<?xml version="1.0" standalone="no"?>
<!DOCTYPE svg PUBLIC "-//W3C//DTD SVG 1.1//EN" "http://www.w3.org/Graphics/SVG/1.1/DTD/svg11.dtd" >
<svg xmlns="http://www.w3.org/2000/svg">
<metadata>
Created by FontPrep 20130207 at Tue Aug  2 15:13:14 2016
 By Tina Muller
Copyright (c) 2016 by LatinoType. All rights reserved.
</metadata>
<defs>
<font id="92accb84c07576fdd89d04296d27cde0" horiz-adv-x='1024' >
  <font-face 
    font-family="Branding-Light"
    font-weight="300"
    font-stretch="normal"
    units-per-em="2048"
    panose-1="0 0 4 0 0 0 0 0 0 0"
    ascent="1577"
    descent="-471"
    x-height="954"
    cap-height="1321"
    bbox="-1305 -428 2767 1702"
    underline-thickness="102"
    underline-position="-102"
    unicode-range="U+0020-FB02"
  />
<missing-glyph horiz-adv-x="864" 
d="M430 184l-344 346l344 344l346 -344z" />
    <glyph glyph-name="fi" unicode="fi" horiz-adv-x="1042" 
d="M860 956v-956q-16 -6 -39 -6t-37 6v893l-491 2v-895q-14 -6 -37 -6t-39 6v895h-147l-7 31q0 6 7 30h147v15q0 186 111 283q110 98 270 98t264 -105q-8 -37 -47 -53q-102 86 -227 86t-210 -74t-85 -225v-25h567z" />
    <glyph glyph-name="fl" unicode="fl" horiz-adv-x="1067" 
d="M217 963q-1 193 111 291t271 98t288 -68v-1284q-19 -6 -39 -6t-39 6l-2 1239q-98 41 -219 41t-208 -75t-87 -232v-17h299q6 -14 6 -29t-6 -34l-299 2v-895q-14 -6 -37 -6t-39 6v895h-147l-7 31q0 6 7 30h147v7z" />
    <glyph glyph-name=".notdef" horiz-adv-x="864" 
d="M430 184l-344 346l344 344l346 -344z" />
    <glyph glyph-name=".null" 
 />
    <glyph glyph-name="nonmarkingreturn" horiz-adv-x="681" 
 />
    <glyph glyph-name="space" unicode=" " horiz-adv-x="534" 
 />
    <glyph glyph-name="exclam" unicode="!" horiz-adv-x="473" 
d="M236 -18q-29 0 -50 19q-20 19 -20 49t20 49t50 19t49 -18q20 -20 20 -50t-20 -49t-49 -19zM235 303q-7 0 -20 4q-16 387 -20 1014q14 4 42 4t39 -4q0 -514 -18 -1014q-16 -4 -23 -4z" />
    <glyph glyph-name="quotedbl" unicode="&#x22;" horiz-adv-x="606" 
d="M418 942q-8 0 -19 6l-22 393q18 9 45 9t45 -9l-25 -395q-16 -4 -24 -4zM184 944q-14 0 -22 4l-23 393q47 19 90 0l-24 -393q-7 -4 -21 -4z" />
    <glyph glyph-name="numbersign" unicode="#" horiz-adv-x="1333" 
d="M821 377l133 401h-417l-134 -401h418zM1239 778h-211l-133 -401h213q2 -33 -21 -66h-213l-135 -407q-39 -12 -73 0l135 407h-418l-135 -407q-39 -12 -74 0l135 407h-239q-2 39 20 66h240l133 401h-242q-4 37 21 66h243l138 416q37 10 73 0l-137 -416h418l137 416
q37 10 74 0l-137 -416h209q4 -37 -21 -66z" />
    <glyph glyph-name="dollar" unicode="$" horiz-adv-x="1048" 
d="M569 150q143 8 224 75q79 67 79 173t-65 162q-66 56 -238 75v-485zM195 942q-1 -100 75 -149t234 -68v442q-143 -5 -226 -65t-83 -160zM950 407q0 -145 -104 -233t-277 -96v-178q-16 -4 -30 -4t-35 4v178q-252 10 -402 131q8 39 48 59q135 -109 354 -118v493
q-190 18 -288 87q-97 69 -97 203t106 217t279 91v172q20 4 34 4t31 -4v-172q209 -10 344 -102q-18 -41 -41 -62q-139 82 -303 90v-448q186 -23 284 -95q97 -73 97 -217z" />
    <glyph glyph-name="percent" unicode="%" horiz-adv-x="1499" 
d="M1141 49q102 0 157 65q56 65 56 164q0 100 -56 166t-156 66t-156 -66t-56 -166t54 -164q54 -65 157 -65zM1141 -14q-127 0 -204 84t-77 209t77 209t204 83q127 0 204 -84q77 -85 77 -209t-78 -208q-76 -84 -203 -84zM355 778q101 0 157 65q55 65 55 164t-55 165
q-54 66 -156 67q-102 0 -157 -67q-55 -68 -55 -166t54 -163q56 -65 157 -65zM252 -96l878 1356q43 12 78 0l-878 -1356q-49 -10 -78 0zM355 715q-127 0 -203 84t-76 209t77 209q77 83 203 83t202 -84q77 -84 77 -208q0 -125 -77 -209t-203 -84z" />
    <glyph glyph-name="ampersand" unicode="&#x26;" horiz-adv-x="1243" 
d="M872 664h-282q-188 0 -290 -87t-101 -225q0 -138 94 -220q94 -81 271 -81t308 94v519zM1182 704q0 -20 -4 -40h-230v-551q-178 -129 -386 -129t-324 97t-115 251q0 154 79 243q79 88 206 123q-232 72 -232 318q0 133 104 223t282 90q180 0 296 -102q-8 -35 -43 -56
q-109 91 -255 91t-228 -73t-82 -190t88 -191t264 -75h576q4 -9 4 -29z" />
    <glyph glyph-name="quotesingle" unicode="'" horiz-adv-x="368" 
d="M184 944q-14 0 -22 4l-23 393q47 19 90 0l-24 -393q-7 -4 -21 -4z" />
    <glyph glyph-name="parenleft" unicode="(" horiz-adv-x="505" 
d="M356 -356q-238 406 -236 870t236 879q43 8 58 -23q-209 -389 -210 -850t210 -854q-15 -30 -58 -22z" />
    <glyph glyph-name="parenright" unicode=")" horiz-adv-x="505" 
d="M150 -356q-43 -8 -58 22q211 393 210 854t-210 850q14 31 58 23q236 -419 237 -881t-237 -868z" />
    <glyph glyph-name="asterisk" unicode="*" horiz-adv-x="690" 
d="M342 1163q14 0 27 -8l116 121q39 -23 50 -68l-148 -78q4 -8 4 -16t-4 -20l150 -74q-12 -47 -50 -68l-118 119q-10 -8 -27 -8l-27 -168q-45 -2 -77 25l75 151q-16 12 -20 27l-166 -29q-16 43 0 84l166 -27q2 14 18 27l-78 152q35 29 80 26l27 -168h2z" />
    <glyph glyph-name="plus" unicode="+" horiz-adv-x="1005" 
d="M535 465v-361q-29 -10 -66 0v361h-360q-14 35 0 67h360v361q35 10 66 0v-361h360q12 -33 0 -67h-360z" />
    <glyph glyph-name="comma" unicode="," horiz-adv-x="403" 
d="M164 39q0 84 -21 147q19 8 49 8t44 -6q12 -37 12 -124t-41 -185t-90 -147q-25 0 -33 26q80 100 80 281z" />
    <glyph glyph-name="hyphen" unicode="-" horiz-adv-x="786" 
d="M154 516q0 16 6 31h469q4 -10 4 -32t-4 -34h-469q-6 19 -6 35z" />
    <glyph glyph-name="period" unicode="." horiz-adv-x="436" 
d="M295 56q-1 -32 -23 -54t-54 -22t-56 22t-23 54q0 32 24 55q23 23 55 23t54 -24q22 -22 23 -54z" />
    <glyph glyph-name="slash" unicode="/" horiz-adv-x="1003" 
d="M86 -373q-14 0 -35 4l823 1737q18 6 36 6t40 -6l-825 -1737q-25 -4 -39 -4z" />
    <glyph glyph-name="zero" unicode="0" horiz-adv-x="1189" 
d="M596 51q199 0 293 161t94 453q0 291 -94 453t-293 162q-387 0 -387 -614t387 -615zM595 -23q-228 1 -347 183t-119 506t120 506t348 182t347 -182t119 -506t-120 -506t-348 -183z" />
    <glyph glyph-name="one" unicode="1" horiz-adv-x="673" 
d="M434 1329q22 0 31 -4v-1325q-19 -6 -39 -6t-35 6v1231l-313 -166q-29 27 -33 65l363 195q4 4 26 4z" />
    <glyph glyph-name="two" unicode="2" horiz-adv-x="1028" 
d="M942 38q0 -18 -6 -38h-832q-6 16 -6 47t41 72q499 476 578 608q80 132 80 256q0 123 -85 206t-235 83q-193 0 -332 -148q-33 8 -47 45q62 74 162 125t219 52q176 0 286 -100q109 -100 109 -264q0 -165 -103 -305t-285 -319q-44 -43 -133 -129t-142 -139l-21 -18l25 2h721
q6 -18 6 -36z" />
    <glyph glyph-name="three" unicode="3" horiz-adv-x="1042" 
d="M930 398q0 -206 -135 -312t-324 -106q-236 0 -371 131q14 41 43 57q143 -119 317 -119t284 88t110 260q0 340 -461 344h-35v15q0 29 25 55l399 428h-673q-6 23 -6 41t6 35h776q2 -61 -37 -107l-385 -403q213 -5 340 -103t127 -304z" />
    <glyph glyph-name="four" unicode="4" horiz-adv-x="1003" 
d="M946 419q0 -15 -6 -34h-166v-385q-25 -4 -37 -4t-37 4v385h-622q-35 74 10 162l434 811q35 -2 68 -29l-428 -797q-25 -49 -17 -77h555v327q25 4 37 4t37 -4v-327h168q4 -21 4 -36z" />
    <glyph glyph-name="five" unicode="5" horiz-adv-x="1036" 
d="M473 825q217 1 335 -109t118 -312t-126 -318t-328 -115q-202 0 -347 113q12 39 45 59q117 -102 295 -102t281 96q104 96 104 265q0 170 -98 260t-293 90q-76 0 -162 -29t-105 -29t-32 6v615h712q13 -40 0 -76h-639v-465q102 51 240 51z" />
    <glyph glyph-name="six" unicode="6" horiz-adv-x="1069" 
d="M197 473q0 -199 100 -317q101 -118 255 -117q154 0 250 91q95 91 95 252t-97 241t-233 79q-207 0 -368 -172q-2 -18 -2 -57zM573 776q168 0 283 -99t115 -289t-119 -305q-118 -114 -304 -114t-306 134t-121 370q0 190 64 347q65 157 174 259q222 206 501 258
q20 -25 21 -69q-219 -40 -414 -189q-98 -75 -168 -195t-92 -268q155 160 366 160z" />
    <glyph glyph-name="seven" unicode="7" horiz-adv-x="950" 
d="M905 1273q0 -22 -39 -104l-618 -1194q-41 6 -64 35l635 1227h-758q-6 21 -6 39t6 37h838q6 -18 6 -40z" />
    <glyph glyph-name="eight" unicode="8" horiz-adv-x="1095" 
d="M545 47q154 0 252 68t98 205q0 138 -90 212q-89 74 -227 119t-140 47q-98 -61 -170 -158t-72 -229t98 -198q97 -66 251 -66zM246 1022q0 -111 77 -171t248 -120l86 -31q209 154 209 322q0 114 -85 184t-221 70t-225 -72t-89 -182zM965 332q0 -180 -119 -267t-303 -87
t-302 80q-118 81 -118 259q0 238 252 410q-102 49 -153 118q-50 69 -50 171q0 143 110 237q110 95 278 95t274 -90q104 -90 104 -232q0 -188 -217 -352q244 -117 244 -342z" />
    <glyph glyph-name="nine" unicode="9" horiz-adv-x="1073" 
d="M498 580q199 0 374 127v6q-2 273 -102 419t-258 146t-254 -97q-94 -97 -94 -263t96 -252t238 -86zM508 510q-186 0 -301 104t-115 299t117 315t293 120q206 0 324 -165t118 -470q2 -741 -706 -742q-17 42 -2 70q260 0 437 124t197 468q-176 -123 -362 -123z" />
    <glyph glyph-name="colon" unicode=":" horiz-adv-x="462" 
d="M230 23q-32 -1 -54 21t-22 54t22 56q22 22 54 22t56 -22t24 -55q0 -32 -24 -54t-56 -22zM230 729q-32 0 -54 23q-22 22 -22 54t22 54t54 23q32 0 56 -23q24 -22 24 -54t-24 -54t-56 -23z" />
    <glyph glyph-name="semicolon" unicode=";" horiz-adv-x="522" 
d="M250 39q0 80 -19 147q15 8 45 8t48 -6q12 -37 12 -124t-41 -185t-90 -147q-25 0 -33 26q78 98 78 281zM262 655q-34 0 -56 24q-22 25 -22 57t23 56t55 24t56 -24q24 -22 24 -56t-24 -58t-56 -23z" />
    <glyph glyph-name="less" unicode="&#x3c;" horiz-adv-x="1144" 
d="M86 482q0 26 4 42l901 381q23 -23 27 -65l-825 -353l-33 -8l33 -10l817 -350q-2 -39 -27 -66l-891 379q-6 24 -6 50z" />
    <glyph glyph-name="equal" unicode="=" horiz-adv-x="1048" 
d="M158 306q0 14 4 34h725q4 -10 4 -34t-4 -34h-725q-4 20 -4 34zM158 645q0 10 4 35h725q4 -12 4 -35t-4 -35h-725q-4 25 -4 35z" />
    <glyph glyph-name="greater" unicode="&#x3e;" horiz-adv-x="1144" 
d="M1053 524q10 -43 -2 -92l-889 -379q-27 29 -29 66l817 350l33 10l-33 8l-823 353q0 41 25 65z" />
    <glyph glyph-name="question" unicode="?" horiz-adv-x="845" 
d="M350 -18q-28 0 -50 20t-22 49t22 49t50 20t49 -18q21 -20 21 -50t-20 -50t-50 -20zM346 324q-14 0 -20 2q-16 127 -17 239h10q158 0 251 93t94 243q0 150 -90 241t-230 91q-141 0 -238 -76q-31 18 -36 53q106 96 277 96t283 -109q112 -110 112 -283q0 -172 -101 -284
q-100 -112 -260 -132q-2 -43 -14 -172q-7 -2 -21 -2z" />
    <glyph glyph-name="at" unicode="@" horiz-adv-x="1683" 
d="M819 252q186 0 260 168v375q-91 63 -211 63t-206 -89t-86 -227t68 -214q69 -76 175 -76zM856 1292q326 0 526 -208t201 -523q0 -176 -79 -292t-212 -117q-170 0 -205 167q-90 -135 -270 -135q-135 0 -224 90t-89 263t107 280q109 107 259 107t279 -88v-445
q0 -174 151 -174q94 -2 151 95q56 97 56 249q0 283 -178 471t-474 188t-478 -193q-182 -195 -182 -487t173 -478t474 -187q174 0 311 66q25 -23 29 -64q-152 -74 -340 -74q-332 0 -529 208q-197 207 -197 527t208 537q206 217 532 217z" />
    <glyph glyph-name="A" unicode="A" horiz-adv-x="1204" 
d="M317 487h570l-264 662l-29 78l-25 -78zM1120.5 -6q-24.5 0 -37.5 4l-168 420h-624l-160 -420q-8 -2 -33 -2t-47 10l508 1309q12 4 38 4t38 -4l528 -1309q-18 -12 -42.5 -12z" />
    <glyph glyph-name="B" unicode="B" horiz-adv-x="1163" 
d="M971 352q0 295 -418 295h-270v-584q121 -16 299 -17t283.5 80t105.5 226zM553.5 1260q-162.5 0 -270.5 -17v-526h252q193 0 283.5 75.5t90.5 199.5t-96.5 196t-259 72zM574.5 -25q-218.5 0 -369.5 25v1300q178 27 325 27q219 0 337 -87t118 -243q0 -235 -242 -307
q305 -59 306 -336q0 -182 -128 -280.5t-346.5 -98.5z" />
    <glyph glyph-name="C" unicode="C" horiz-adv-x="1230" 
d="M724.5 -25q-268.5 0 -437 191.5t-168.5 491.5t176 492.5t457 192.5q227 0 391 -124q-6 -39 -43 -60q-162 113 -348 113q-248 0 -400.5 -171t-152.5 -442.5t147.5 -440.5t385.5 -169t388 125q35 -18 41 -57q-168 -142 -436.5 -142z" />
    <glyph glyph-name="D" unicode="D" horiz-adv-x="1380" 
d="M561 53q291 0 456 165q165 166 165 440t-165 438t-462 164q-158 0 -272 -15v-1173q128 -19 278 -19zM555 1333q332 0 519.5 -185t187.5 -486t-190.5 -490.5t-512.5 -189.5q-197 0 -354 20v1305q166 26 350 26z" />
    <glyph glyph-name="E" unicode="E" horiz-adv-x="1101" 
d="M207 0v1315h768q6 -16 6 -37t-6 -35h-692v-522h626q17 -39 0 -72h-626v-577h718q19 -37 0 -72h-794z" />
    <glyph glyph-name="F" unicode="F" horiz-adv-x="1034" 
d="M283 1243v-567h620q6 -18 6 -35.5t-6 -34.5h-620v-606q-18 -6 -37.5 -6t-38.5 6v1315h772q4 -12 4 -37t-4 -35h-696z" />
    <glyph glyph-name="G" unicode="G" horiz-adv-x="1327" 
d="M1190 627v-545q-190 -106 -456.5 -106.5t-440.5 188t-174 491.5t183 495.5t466 192.5q242 0 406 -120q-10 -43 -41 -64q-162 111 -365 111q-254 0 -411.5 -168t-157.5 -443.5t146.5 -442.5t402.5 -167q213 0 364 74v432h-348q-6 18 -6 36t6 36h426z" />
    <glyph glyph-name="H" unicode="H" horiz-adv-x="1404" 
d="M1162.5 1321q21.5 0 35.5 -6v-1315q-14 -6 -36 -6t-40 6v643h-839v-643q-18 -6 -40 -6t-36 6v1315q14 6 36.5 6t39.5 -6v-600h839v600q19 6 40.5 6z" />
    <glyph glyph-name="I" unicode="I" horiz-adv-x="489" 
d="M244.5 -6q-21.5 0 -37.5 6v1315q14 6 36.5 6t39.5 -6v-1315q-17 -6 -38.5 -6z" />
    <glyph glyph-name="J" unicode="J" horiz-adv-x="761" 
d="M260 -33q-82 0 -143.5 30t-85.5 60q12 35 49 56q88 -74 184 -74t162 62.5t66 199.5v1014q16 6 37 6t40 -6v-1010q0 -170 -90 -254t-219 -84z" />
    <glyph glyph-name="K" unicode="K" horiz-adv-x="1161" 
d="M1075.5 -4q-32.5 0 -39.5 2l-561 664q-115 -76 -192 -119v-543q-16 -6 -39 -6t-37 6v1315q14 6 36.5 6t39.5 -6v-690q233 133 396 289.5t329 402.5q12 2 40 2t44 -4q-238 -377 -555 -610l596 -701q-25 -8 -57.5 -8z" />
    <glyph glyph-name="L" unicode="L" horiz-adv-x="966" 
d="M936 33.5q0 -16.5 -6 -35.5h-723v1317q18 6 37.5 6t38.5 -6v-1247h647q6 -18 6 -34.5z" />
    <glyph glyph-name="M" unicode="M" horiz-adv-x="1609" 
d="M1359.5 1319q21.5 0 43.5 -8v-1311q-14 -6 -35.5 -6t-40.5 6v1073l4 90l-18 -49l-463 -987q-25 -4 -36 -4t-32 4l-485 989l-18 47l2 -90v-1073q-14 -6 -37 -6t-37 6v1311q20 10 42.5 10t31.5 -2l516 -1047l22 -55l23 55l489 1045q7 2 28.5 2z" />
    <glyph glyph-name="N" unicode="N" horiz-adv-x="1392" 
d="M1151.5 1323q20.5 0 34.5 -6v-1311q-31 -10 -68 -10l-813 1151l-26 45l2 -53v-1139q-14 -6 -37 -6t-37 6v1309q37 18 69 10l818 -1159l20 -35l-2 47v1145q19 6 39.5 6z" />
    <glyph glyph-name="O" unicode="O" horiz-adv-x="1484" 
d="M741.5 49q249.5 0 397 170t147.5 442t-146.5 441.5t-397.5 169.5t-397 -169t-146 -441t146.5 -442.5t396 -170.5zM741.5 -23q-280.5 0 -451.5 192.5t-171 488.5t172 490q173 194 453 194.5t451 -190.5q171 -190 171 -488t-172 -492.5t-452.5 -194.5z" />
    <glyph glyph-name="P" unicode="P" horiz-adv-x="1130" 
d="M545 1266q-147 0 -262 -29v-651q104 -25 262 -21q215 0 319.5 97.5t103.5 259.5t-108.5 253t-314.5 91zM545 1337q244 0 373 -108.5t130 -303t-130.5 -312t-372.5 -117.5q-158 0 -262 16v-512q-18 -6 -39 -6t-39 6v1290q152 47 340 47z" />
    <glyph glyph-name="Q" unicode="Q" horiz-adv-x="1484" 
d="M199 661q0 -272 146.5 -442t396 -170t397 170t147.5 442t-146.5 441.5t-397.5 169.5t-397 -169.5t-146 -441.5zM119 659.5q0 294.5 172 489t452.5 194.5t451.5 -191t171 -493q0 -233 -113.5 -410.5t-312.5 -240.5q281 -41 426 -252q-18 -29 -66 -43q-174 264 -569 264
q-276 4 -444 196t-168 486.5z" />
    <glyph glyph-name="R" unicode="R" horiz-adv-x="1150" 
d="M575.5 1266q-165.5 0 -292.5 -27v-610q96 -14 276.5 -14.5t279.5 92t103 249.5q-4 141 -102.5 225.5t-264 84.5zM1004.5 -4q-27.5 0 -33.5 2l-357 551q-45 -4 -144 -4t-187 10v-555q-18 -6 -39 -6t-39 6v1294q160 43 365.5 43t325.5 -101t124 -278q-2 -154 -87 -257
t-235 -138l359 -559q-25 -8 -52.5 -8z" />
    <glyph glyph-name="S" unicode="S" horiz-adv-x="1067" 
d="M526 -29q-274 0 -434 164q10 37 49 55q139 -145 385 -145q170 0 263.5 81t93.5 211t-82 198.5t-262 113.5q-181 45 -279 109q-124 78 -123.5 236.5t109 251.5t291.5 93q250 0 395 -131q-6 -41 -45 -59q-147 119 -350 119q-150 0 -237 -71t-87 -188.5t84 -178
t270.5 -106.5t288.5 -134t102 -252t-115.5 -265.5t-316.5 -101.5z" />
    <glyph glyph-name="T" unicode="T" horiz-adv-x="1095" 
d="M1061 1280q0 -16 -6 -35h-471v-1245q-18 -6 -38 -6t-38 6v1245h-469q-6 18 -6 34.5t6 35.5h1016q6 -19 6 -35z" />
    <glyph glyph-name="U" unicode="U" horiz-adv-x="1372" 
d="M693 -25q-224 0 -363.5 146.5t-139.5 390.5v803q16 6 37.5 6t40.5 -6v-803q0 -207 115 -334t310 -127t304 127t109 334v803q18 6 40 6t36 -6v-803q0 -238 -132.5 -387.5t-356.5 -149.5z" />
    <glyph glyph-name="V" unicode="V" horiz-adv-x="1224" 
d="M617 -8q-26 0 -44 6q-305 535 -516 1315q21 10 43 10t39 -6q184 -707 479 -1251q326 653 465 1251q2 0 35 6q25 0 45 -10q-160 -662 -506 -1315q-14 -6 -40 -6z" />
    <glyph glyph-name="W" unicode="W" horiz-adv-x="1853" 
d="M1747 1321q27 0 39 -6q-172 -756 -420 -1317q-18 -6 -43 -6t-43 6l-322 1024l-18 74l-22 -74l-345 -1024q-18 -6 -42 -6t-48 6q-225 514 -413 1317q16 8 43 8t39 -4q152 -694 376 -1245l371 1124q25 4 45.5 4t32.5 -4l338 -1061l16 -63q233 575 379 1245q10 2 37 2z" />
    <glyph glyph-name="X" unicode="X" horiz-adv-x="1148" 
d="M1042 -2h-30l-441 616l-448 -616h-31q-31 0 -55 6l487 664l-448 647q25 8 65 8h23l416 -602l421 602h21q43 0 65 -8l-460 -649l475 -662q-20 -6 -60 -6z" />
    <glyph glyph-name="Y" unicode="Y" horiz-adv-x="1146" 
d="M575.5 -6q-20.5 0 -38.5 6v553l-500 762q33 8 55 8t29 -2l444 -670l17 -30l14 30l420 670q10 2 32.5 2t51.5 -8l-486 -764v-551q-18 -6 -38.5 -6z" />
    <glyph glyph-name="Z" unicode="Z" horiz-adv-x="1132" 
d="M1065 33q0 -14 -6 -33h-973q-10 16 -10 45t20 53l860 1147h-868q-6 20 -6 35.5t6 34.5h948q6 -18 6 -48t-20 -57l-829 -1104l-31 -36h897q6 -23 6 -37z" />
    <glyph glyph-name="bracketleft" unicode="[" horiz-adv-x="552" 
d="M281 -301h198q8 -33 0 -70h-276v1778h276q8 -37 0 -70h-198v-1638z" />
    <glyph glyph-name="backslash" unicode="\" horiz-adv-x="987" 
d="M899 -373q-14 0 -39 4l-805 1657q25 4 38 4t38 -4l803 -1657q-21 -4 -35 -4z" />
    <glyph glyph-name="bracketright" unicode="]" horiz-adv-x="552" 
d="M350 1407v-1778h-274q-12 37 0 70h198v1638h-198q-12 33 0 70h274z" />
    <glyph glyph-name="asciicircum" unicode="^" horiz-adv-x="1005" 
d="M152 717q-33 6 -56 31l369 634q39 10 76 0l368 -634q-20 -25 -55 -31l-352 602z" />
    <glyph glyph-name="underscore" unicode="_" horiz-adv-x="878" 
d="M0 -102q0 16 6 32h868q4 -10 4 -32t-4 -31h-868q-6 15 -6 31z" />
    <glyph glyph-name="grave" unicode="`" horiz-adv-x="446" 
d="M371 1085l-322 238q18 45 51 63l297 -264q-6 -23 -26 -37z" />
    <glyph glyph-name="a" unicode="a" horiz-adv-x="1011" 
d="M172 287.5q0 -105.5 79 -172t239.5 -66.5t291.5 55v324q-131 84 -292.5 84t-239.5 -59.5t-78 -165zM782 625q0 288 -320 288q-154 0 -282 -98q-31 14 -39 51q133 119 319.5 119t292 -86t105.5 -264v-572q-156 -84 -360.5 -83.5t-305 83t-100.5 223t105.5 218.5t277.5 78
t307 -78v121z" />
    <glyph glyph-name="b" unicode="b" horiz-adv-x="1124" 
d="M533 51q173 0 288 117q115 118 115 316t-108 313t-284 115t-296 -101v-702q112 -58 285 -58zM541 985q209 0 342 -131q133 -130 133 -366t-140 -372t-343 -136t-361 77v1289q16 6 39 6t37 -6v-457q125 96 293 96z" />
    <glyph glyph-name="c" unicode="c" horiz-adv-x="993" 
d="M574 -20q-199 0 -331 134t-132 364t136 368.5t331 138.5t319 -108q-12 -37 -47 -58q-109 94 -278.5 94t-276.5 -124.5t-107 -311t106.5 -306.5t279 -120t296.5 103q35 -25 43 -58q-140 -116 -339 -116z" />
    <glyph glyph-name="d" unicode="d" horiz-adv-x="1126" 
d="M186 473q0 -197 120 -309.5t288 -112.5t285 53v734q-100 76 -275.5 75.5t-296.5 -122t-121 -318.5zM916.5 1354q21.5 0 37.5 -6v-1289q-160 -80 -342 -79q-219 0 -361 131t-142 365.5t148.5 371.5t356.5 137q162 0 265 -63v426q16 6 37.5 6z" />
    <glyph glyph-name="e" unicode="e" horiz-adv-x="1069" 
d="M551.5 915q-146.5 0 -245.5 -102t-116 -266h697q0 180 -94.5 274t-241 94zM188 481v-4q0 -199 104.5 -313.5t283 -114.5t313.5 111q31 -14 41 -54q-156 -127 -361 -126.5t-331.5 130.5t-126.5 364t131 372.5t314 138.5t298 -120t117 -343l-2 -41h-781z" />
    <glyph glyph-name="f" unicode="f" horiz-adv-x="636" 
d="M524 1352q129 0 203 -74q-6 -39 -41 -57q-80 59 -173 59t-157 -59t-63 -189v-76h309q6 -14 6 -29t-6 -34l-309 2v-895q-14 -6 -37 -6t-39 6v895h-147l-7 31q0 6 7 30h147v66q0 164 89 247t218 83z" />
    <glyph glyph-name="g" unicode="g" horiz-adv-x="1124" 
d="M582.5 123q166.5 0 296.5 96v600q-104 94 -279.5 94t-293.5 -110.5t-118 -291.5t114 -284.5t280.5 -103.5zM608 985q209 0 346 -125v-850q0 -180 -113.5 -290.5t-279.5 -110.5t-260 44t-162 122q10 39 51 51q59 -68 138.5 -108t224.5 -40t235.5 91.5t90.5 240.5v131
q-135 -90 -281 -90q-215 0 -352 123t-137 340t145 344t354 127z" />
    <glyph glyph-name="h" unicode="h" horiz-adv-x="1144" 
d="M597.5 985q187.5 0 284.5 -106.5t97 -278.5v-600q-16 -6 -38.5 -6t-37.5 6v584q0 145 -77.5 236t-250 91t-321.5 -114v-797q-16 -6 -39 -6t-37 6v1346q14 6 36.5 6t39.5 -6v-474q156 113 343.5 113z" />
    <glyph glyph-name="i" unicode="i" horiz-adv-x="438" 
d="M221.5 -6q-22.5 0 -41.5 6v961q18 6 41 6t37 -6v-961q-14 -6 -36.5 -6zM219 1180q-29 0 -49 20.5t-20 49t20 50t49 21.5t49.5 -21.5t20.5 -50t-20.5 -49t-49.5 -20.5z" />
    <glyph glyph-name="j" unicode="j" horiz-adv-x="468" 
d="M1.5 -399q-118.5 0 -206.5 82q6 37 41 57q86 -68 172 -68t145.5 61.5t59.5 192.5v1028q43 16 76 0v-1024q0 -162 -84.5 -245.5t-203 -83.5zM250 1174q-29 0 -49.5 20t-20.5 49t20.5 50.5t49.5 21.5t49 -21.5t20 -50.5t-20 -49t-49 -20z" />
    <glyph glyph-name="k" unicode="k" horiz-adv-x="954" 
d="M884.5 -4q-28.5 0 -42.5 2l-445 469q-90 -53 -143 -76v-391q-16 -6 -38.5 -6t-37.5 6v1346q14 6 37 6t39 -6v-877q154 72 305.5 208t224.5 279q6 2 35 2t45 -4q-124 -249 -405 -444l477 -508q-23 -6 -51.5 -6z" />
    <glyph glyph-name="l" unicode="l" horiz-adv-x="438" 
d="M221.5 -6q-22.5 0 -41.5 6v1348q18 6 41 6t37 -6v-1348q-14 -6 -36.5 -6z" />
    <glyph glyph-name="m" unicode="m" horiz-adv-x="1753" 
d="M1210 985q194 0 288 -104q95 -104 91 -273v-608q-16 -6 -40 -6t-38 6v588q6 143 -67 235q-74 92 -245 92t-308 -133q31 -78 31 -174v-608q-16 -6 -39 -6t-37 6v588q0 145 -72 236t-228 91t-300 -96v-819q-16 -6 -39 -6t-37 6v854q166 131 381 131t309 -143
q156 143 350 143z" />
    <glyph glyph-name="n" unicode="n" horiz-adv-x="1136" 
d="M564 985q215 0 312 -104.5t97 -278.5v-602q-14 -6 -36.5 -6t-41.5 6v586q0 328 -330 327q-176 0 -319 -94v-819q-16 -6 -39 -6t-37 6v854q179 131 394 131z" />
    <glyph glyph-name="o" unicode="o" horiz-adv-x="1173" 
d="M586 51q180 0 290.5 122t110.5 307t-110.5 309t-289.5 124t-290 -124.5t-111 -309t110 -306.5t290 -122zM583 -20q-206 0 -340 140t-134 359t137 363.5t344 144.5t341 -143.5t134 -360.5t-138 -360t-344 -143z" />
    <glyph glyph-name="p" unicode="p" horiz-adv-x="1128" 
d="M540 51q176 0 288 117t112 319q0 201 -111 313t-283 112t-300 -95v-696q117 -70 294 -70zM544 985q206 0 340 -130q134 -129 134 -367t-136 -373t-324 -135t-312 61v-424q-16 -6 -39 -6t-37 6v1237q168 131 374 131z" />
    <glyph glyph-name="q" unicode="q" horiz-adv-x="1126" 
d="M600 913q-176 -1 -294 -121t-118 -317t112 -309t290 -113q178 0 291 97l2 665q-107 98 -283 98zM606 985q113 0 207 -39t145 -92l-2 -1237q-14 -6 -36 -6t-39 6v451q-125 -88 -291 -88q-211 0 -345 131t-134 367t145 371q145 136 350 136z" />
    <glyph glyph-name="r" unicode="r" horiz-adv-x="755" 
d="M535 985q113 0 196 -27q0 -45 -22 -69q-80 25 -185 24q-166 0 -278 -79v-834q-16 -6 -39 -6t-37 6v868q144 117 365 117z" />
    <glyph glyph-name="s" unicode="s" horiz-adv-x="907" 
d="M419.5 -18q-192.5 0 -327.5 114q12 41 45 58q121 -102 284.5 -102.5t237.5 56t74 147.5t-61.5 136t-225.5 75t-244.5 86t-80.5 173t95 188.5t269.5 71.5t294.5 -80q-6 -37 -32 -61q-125 72 -267.5 71.5t-213 -49.5t-70.5 -134t61 -125t221 -70.5t245 -89t85 -186.5
t-98.5 -203.5t-291 -75.5z" />
    <glyph glyph-name="t" unicode="t" horiz-adv-x="745" 
d="M217 279v614h-166q-6 18 -6 33.5t6 29.5h166v263q18 6 40 6t36 -6v-263h387q6 -10 6 -30.5t-6 -32.5h-387v-588q0 -137 60.5 -196.5t154.5 -59.5t194 68q29 -23 33 -58q-109 -80 -232.5 -79.5t-204.5 74t-81 225.5z" />
    <glyph glyph-name="u" unicode="u" horiz-adv-x="1124" 
d="M915.5 958q20.5 0 38.5 -6v-893q-188 -84 -394 -84t-300 99.5t-94 275.5v602q14 6 36 6t40 -6v-569q0 -160 73.5 -247t244.5 -87t317 60v843q18 6 38.5 6z" />
    <glyph glyph-name="v" unicode="v" horiz-adv-x="987" 
d="M887 956q25 0 43 -6q-35 -203 -157 -476t-241 -476q-16 -6 -40 -6t-39 6q-105 166 -223 446t-171 506q19 6 43 6t37 -4q45 -205 155 -468t187 -390q12 -23 15 -26l12 26q90 154 201 411t145 447q8 4 33 4z" />
    <glyph glyph-name="w" unicode="w" horiz-adv-x="1452" 
d="M1337.5 956q21.5 0 46.5 -6q-41 -219 -151.5 -500.5t-208.5 -451.5q-16 -6 -38.5 -6t-39.5 6q-104 186 -215 502q-29 -98 -92.5 -247t-120.5 -255q-12 -6 -40 -6t-40 6q-106 166 -219 444.5t-162 507.5q18 6 40.5 6t35.5 -4q47 -209 153.5 -473t182.5 -395q2 -4 5 -12.5
t5 -12.5q2 4 5 12.5t5 12.5q109 215 209 510q-66 205 -96 356q25 6 45.5 6t32.5 -4q41 -215 135 -477t164 -391q8 -16 10 -23q2 2 5 11.5t7 15.5q78 141 174.5 396t133.5 468q7 4 28.5 4z" />
    <glyph glyph-name="x" unicode="x" horiz-adv-x="942" 
d="M518 487l377 -483q-33 -16 -84 -8l-344 444l-330 -444q-20 -4 -39 0q-23 0 -39 8l361 483l-352 465q12 4 45 9h39l321 -424l303 424h37q27 -2 43 -9z" />
    <glyph glyph-name="y" unicode="y" horiz-adv-x="993" 
d="M893 956q25 0 41 -8q-72 -356 -256 -714.5t-451 -643.5q-39 8 -55 48q164 170 293 378q-119 184 -235.5 446.5t-166.5 487.5q12 6 39 6t43 -4q43 -201 144.5 -435t210.5 -415q4 -8 12 -20l12 20q262 461 332 850q12 4 37 4z" />
    <glyph glyph-name="z" unicode="z" horiz-adv-x="942" 
d="M868 33q0 -21 -6 -33h-780q-4 10 -4 40t37 77l626 747l23 25h-668q-6 12 -6 30.5t6 34.5h752q4 -16 4 -22q0 -45 -39 -90l-580 -699l-69 -77h698q6 -12 6 -33z" />
    <glyph glyph-name="braceleft" unicode="{" horiz-adv-x="604" 
d="M459 -358q-104 0 -156 68q-51 69 -51 177v412q0 188 -127 188h-57q-13 39 0 74h57q127 0 127 189v399q0 115 51 187t156 71h71q8 -37 0 -70h-71q-68 0 -99 -46t-30 -142v-399q0 -174 -99 -226q98 -53 99 -225v-412q0 -92 30 -134t99 -42h71q10 -31 0 -69h-71z" />
    <glyph glyph-name="bar" unicode="|" horiz-adv-x="475" 
d="M201 -352v1738q35 12 71 0v-1738q-34 -14 -71 0z" />
    <glyph glyph-name="braceright" unicode="}" horiz-adv-x="604" 
d="M543 524q0 -18 -6 -37h-58q-127 0 -127 -188v-412q0 -109 -51 -177t-156 -68h-71q-10 35 0 69h71q68 0 99 42t30 134v412q0 170 101 225q-100 51 -101 226v399q0 96 -30 142q-31 46 -99 46h-71q-8 33 0 70h71q103 0 155 -72t52 -186v-399q0 -188 127 -189h58q6 -19 6 -37
z" />
    <glyph glyph-name="asciitilde" unicode="~" horiz-adv-x="1093" 
d="M377 524q65 0 179 -43t163 -43q115 0 160 92q39 0 61 -30q-63 -135 -221 -135q-63 0 -176 43t-166 43q-117 -1 -160 -91q-41 6 -61 33q68 131 221 131z" />
    <glyph glyph-name="uni00A0" unicode="&#xa0;" horiz-adv-x="534" 
 />
    <glyph glyph-name="exclamdown" unicode="&#xa1;" horiz-adv-x="444" 
d="M220 -358q-20 0 -40 6q4 545 21 1014q6 2 21 2t22 -2q18 -504 18 -1014q-22 -6 -42 -6zM223 850q-29 0 -49 19t-20 49t20 49q20 20 49 20t49 -20t20 -49q0 -28 -20 -48t-49 -20z" />
    <glyph glyph-name="cent" unicode="&#xa2;" horiz-adv-x="1013" 
d="M190 632q0 -171 90 -279t246 -126v815q-156 -18 -246 -128t-90 -282zM559 -57q-23 0 -33 4v211q-186 18 -301 140t-115 334t118 338t298 144v221q20 4 32 4t34 -4v-219q188 -2 311 -108q-12 -37 -47 -56q-115 92 -264 95v-822q160 2 278 99q33 -23 41 -58
q-141 -109 -319 -110v-209q-10 -4 -33 -4z" />
    <glyph glyph-name="sterling" unicode="&#xa3;" horiz-adv-x="1067" 
d="M973 36q0 -24 -6 -36h-805q0 106 72 254t71 258q0 45 -6 82h-201q-4 12 -4 35t4 35h187q-6 20 -40 101t-34 196q0 165 110 273t301 108t332 -113q-6 -41 -45 -60q-127 103 -291 103t-248 -92t-83 -201q0 -109 47 -226q20 -52 31 -89h407q4 -25 4 -35t-4 -35h-395
q4 -49 4 -82q0 -106 -65 -252t-70 -188h721q6 -12 6 -36z" />
    <glyph glyph-name="currency" unicode="&#xa4;" horiz-adv-x="1261" 
d="M238 642q0 -165 114 -281q114 -115 279 -115t279 116t114 280q0 165 -115 281q-115 115 -279 115t-278 -115q-114 -116 -114 -281zM1100 640q0 -173 -115 -304l113 -115q-18 -35 -54 -53l-114 115q-127 -111 -299 -111t-299 111l-115 -115q-35 18 -53 53l112 115
q-113 133 -112 305q0 172 110 303l-116 119q18 35 53 53l117 -117q131 111 303 111t303 -111l115 115q31 -23 53 -53l-115 -115q113 -133 113 -306z" />
    <glyph glyph-name="yen" unicode="&#xa5;" horiz-adv-x="1107" 
d="M596 565v-172h297q6 -17 6 -33t-6 -32h-297v-328q-14 -6 -36 -6t-42 6v328h-301q-4 20 -4 30t4 35h301v172h-301q-4 19 -4 31t4 33h270l-428 674q25 6 52 6t32 -2l404 -637l12 -25l12 25l398 637q7 2 33 2t47 -6l-422 -674h266q6 -14 6 -31t-6 -33h-297z" />
    <glyph glyph-name="brokenbar" unicode="&#xa6;" horiz-adv-x="471" 
d="M201 -352v708q37 14 69 0v-708q-34 -16 -69 0zM201 678v708q37 14 69 0v-708q-34 -16 -69 0z" />
    <glyph glyph-name="section" unicode="&#xa7;" horiz-adv-x="1085" 
d="M526 -217q-127 0 -212 35t-173 100q6 39 43 59q55 -41 91 -63t104 -40q68 -19 147 -19q164 -1 272 107t107 271q1 87 -29 149t-102 142l-303 277q14 41 51 55l301 -276q156 -160 156 -351t-129 -319t-324 -127zM104 898q0 190 130 319t325 129q127 0 212 -35t173 -101
q-10 -43 -45 -59q-53 39 -90 61q-98 60 -256 61q-159 1 -267 -107t-108 -271q0 -87 31 -149t104 -140l301 -276q-12 -38 -49 -56l-303 277q-158 157 -158 347z" />
    <glyph glyph-name="dieresis" unicode="&#xa8;" horiz-adv-x="677" 
d="M549 1167q-29 0 -48.5 19.5t-19.5 47.5t20.5 47t47 19t46 -19t19.5 -47t-18 -47.5t-47 -19.5zM131 1167q-29 0 -48.5 19.5t-19.5 47.5t20.5 47t47.5 19t46.5 -19t19.5 -47t-18.5 -47.5t-47.5 -19.5z" />
    <glyph glyph-name="copyright" unicode="&#xa9;" horiz-adv-x="1546" 
d="M785 240q-163 0 -266 104t-103 284t105 284q105 106 263 106t269 -94q-10 -35 -41 -54q-94 80 -230 80t-217 -91q-80 -91 -80 -231t80 -230t221 -91q141 0 240 90q33 -16 39 -55q-117 -102 -280 -102zM182 633q0 -255 172 -435t420 -180t419 180t171 434q0 255 -171 434
t-420 179t-420 -178t-171 -434zM119 632q0 282 190 478q189 196 465 197q276 0 464 -197q188 -198 189 -480q-1 -282 -189 -478t-463 -195q-275 0 -466 196q-190 197 -190 479z" />
    <glyph glyph-name="ordfeminine" unicode="&#xaa;" horiz-adv-x="778" 
d="M188 902q0 -66 50 -106q50 -38 148 -38q97 0 179 33v206q-90 49 -184 49q-93 0 -143 -38q-50 -40 -50 -106zM377 1362q254 0 254 -238v-370q-113 -56 -245 -56t-199 56t-67 149q0 94 71 148q71 53 182 53t192 -43v65q0 171 -195 173q-95 1 -188 -66q-31 14 -37 47
q113 82 232 82z" />
    <glyph glyph-name="guillemotleft" unicode="&#xab;" horiz-adv-x="829" 
d="M643 231l-258 293l258 299q27 -8 37 -32l-195 -265l197 -264q-10 -23 -39 -31zM356 231l-258 293l258 299q27 -8 37 -32l-194 -265l196 -264q-10 -23 -39 -31z" />
    <glyph glyph-name="registered" unicode="&#xae;" horiz-adv-x="1544" 
d="M993 999q0 82 -56 131q-55 50 -161 50t-180 -13v-325q66 -20 172 -17q225 2 225 174zM1059 1001q0 -168 -170 -221l192 -334q-20 -6 -45 -6h-26l-189 326q-15 -2 -83 -2t-142 14v-332q-16 -4 -30 -4t-34 4v768q102 27 238 27q136 1 213 -63q76 -64 76 -177zM182 840
q0 -256 172 -436t420 -179t420 181t172 435t-172 433t-420 178t-420 -178t-172 -434zM775 1513q275 0 464 -195q188 -196 188 -478t-188 -479q-187 -195 -463 -195t-467 195q-190 196 -190 479t190 478q191 195 466 195z" />
    <glyph glyph-name="macron" unicode="&#xaf;" horiz-adv-x="641" 
d="M57 1203q0 21 6 36h515q6 -12 6 -33t-6 -32h-515q-6 8 -6 29z" />
    <glyph glyph-name="degree" unicode="&#xb0;" horiz-adv-x="684" 
d="M343 981q73 0 121 51t48 123t-48 122t-121 50t-122 -50t-49 -122t49 -123t122 -51zM341 924q-95 0 -162 68t-67 162q0 95 67 163q67 67 162 67t163 -68t68 -162q0 -95 -68 -163q-68 -67 -163 -67z" />
    <glyph glyph-name="plusminus" unicode="&#xb1;" horiz-adv-x="1093" 
d="M152 80h788q10 -35 0 -68h-788q-14 35 0 68zM512 575h-360q-14 35 0 68h360v338q33 10 68 0v-338h360q10 -33 0 -68h-360v-342q-35 -10 -68 0v342z" />
    <glyph glyph-name="acute" unicode="&#xb4;" horiz-adv-x="436" 
d="M76 1085q-20 16 -27 37l297 264q33 -16 51 -63z" />
    <glyph glyph-name="paragraph" unicode="&#xb6;" horiz-adv-x="1134" 
d="M586 299q16 0 37 -4v-651q-13 -6 -35 -6t-39 6v651q21 4 37 4zM145 907q1 -164 107 -260t319 -96q158 -4 277 22v652q-129 33 -277 32q-211 0 -319 -93t-107 -257zM926 1264v-1620q-18 -6 -38 -6t-40 6v856q-121 -20 -279 -21q-245 0 -375 118t-130 313q0 196 130 308
q132 112 377 111q197 0 355 -51l-2 -14h2z" />
    <glyph glyph-name="periodcentered" unicode="&#xb7;" horiz-adv-x="450" 
d="M225 600q-31 0 -53 22t-22 52t22 52t54 22q30 0 52 -22t22 -54t-22 -52t-53 -20z" />
    <glyph glyph-name="cedilla" unicode="&#xb8;" horiz-adv-x="444" 
d="M389 -225q0 -82 -64.5 -122t-150.5 -40t-119 16q0 35 21 56q39 -14 99 -14.5t101 25t41 75t-42 72t-136 30.5l54 133h61l-35 -86q170 -29 170 -145z" />
    <glyph glyph-name="ordmasculine" unicode="&#xba;" horiz-adv-x="864" 
d="M432 764q114 0 182 74t68 192t-69 193t-181 75t-182 -76t-70 -193t68 -191t184 -74zM429 700q-138 0 -227 92t-89 237t92 239t230 94q137 0 227 -92t90 -238t-92 -240q-92 -92 -231 -92z" />
    <glyph glyph-name="guillemotright" unicode="&#xbb;" horiz-adv-x="829" 
d="M473 231q-31 10 -39 31l197 260l-195 269q10 25 37 32l258 -299zM186 231q-29 8 -39 31l197 260l-194 269q10 25 36 32l258 -299z" />
    <glyph glyph-name="onequarter" unicode="&#xbc;" horiz-adv-x="1492" 
d="M1425 210q0 -22 -2 -32h-94v-178q-25 -4 -35 -4t-34 4v178h-379q-25 57 4 113l272 502q37 0 66 -29l-252 -461q-20 -43 -17 -59h306v233q12 2 34 2t35 -2v-233h94q2 -12 2 -34zM312 1315q13 0 30 -4v-772l-37 -2q-15 0 -35 4v696l-178 -94q-25 20 -31 57q35 18 73 38
t83 45q45 26 64 29q18 3 31 3zM1147 1350q41 10 78 0l-977 -1448q-41 -10 -78 0z" />
    <glyph glyph-name="onehalf" unicode="&#xbd;" horiz-adv-x="1507" 
d="M1423 34q0 -12 -4 -34h-499q-4 12 -4 30t26 42q229 236 297 322t68 160q0 75 -44 117t-120 42q-113 0 -185 -80q-31 6 -38 43q86 102 223 102q104 0 169 -56q64 -56 64 -156t-66 -189q-66 -88 -235 -256l-45 -45l-20 -15l34 5h375q4 -20 4 -32zM306 537q-26 0 -36 2v696
l-178 -94q-25 20 -31 59q156 84 200 103t81 8v-772q-10 -2 -36 -2zM1153 1350q37 10 78 0l-977 -1448q-37 -8 -80 0z" />
    <glyph glyph-name="threequarters" unicode="&#xbe;" horiz-adv-x="1550" 
d="M1479 210q0 -22 -2 -32h-95v-178q-26 -4 -36 -4t-31 4v178h-381q-25 57 4 113l272 502q35 0 68 -29l-254 -461q-20 -43 -16 -59h307v233q10 2 33 2t34 -2v-233h95q2 -12 2 -34zM318 608q100 0 161 48t62 135q0 182 -234 182h-41q-4 12 -4 25t14 30l201 221h-377
q-4 25 -4 35t4 31h475q8 -35 -18 -62l-203 -223q117 -4 186 -63q68 -59 68 -175t-83 -182t-211 -66t-220 81q8 35 39 55q85 -72 185 -72zM1264 1350q39 10 79 0l-976 -1448q-43 -8 -80 0z" />
    <glyph glyph-name="questiondown" unicode="&#xbf;" horiz-adv-x="829" 
d="M487 -344q-169 0 -282 110t-113 282t100 283q100 112 261 132q4 74 16 174q6 2 19 2t22 -2q14 -139 14 -240h-8q-160 -2 -253 -95t-93 -243q0 -151 89 -241t229 -90t239 75q33 -16 39 -51q-110 -96 -279 -96zM479 981q29 0 51 -20q22 -21 21 -51t-21 -50t-50 -20t-50 20
t-20 50t20 50t49 21z" />
    <glyph glyph-name="Agrave" unicode="&#xc0;" horiz-adv-x="1204" 
d="M317 487h570l-264 662l-29 78l-25 -78zM1120.5 -6q-24.5 0 -37.5 4l-168 420h-624l-160 -420q-8 -2 -33 -2t-47 10l508 1309q12 4 38 4t38 -4l528 -1309q-18 -12 -42.5 -12zM762 1440q0 -20 -19 -39l-358 180q2 47 39 72z" />
    <glyph glyph-name="Aacute" unicode="&#xc1;" horiz-adv-x="1204" 
d="M317 487h570l-264 662l-29 78l-25 -78zM1120.5 -6q-24.5 0 -37.5 4l-168 420h-624l-160 -420q-8 -2 -33 -2t-47 10l508 1309q12 4 38 4t38 -4l528 -1309q-18 -12 -42.5 -12zM805 1581l-359 -180q-18 18 -18 39l338 213q37 -25 39 -72z" />
    <glyph glyph-name="Acircumflex" unicode="&#xc2;" horiz-adv-x="1204" 
d="M317 487h570l-264 662l-29 78l-25 -78zM1120.5 -6q-24.5 0 -37.5 4l-168 420h-624l-160 -420q-8 -2 -33 -2t-47 10l508 1309q12 4 38 4t38 -4l528 -1309q-18 -12 -42.5 -12zM367 1386q-25 12 -31 41l231 215q31 6 62 0l229 -212q-6 -29 -31 -44l-233 191z" />
    <glyph glyph-name="Atilde" unicode="&#xc3;" horiz-adv-x="1204" 
d="M317 487h570l-264 662l-29 78l-25 -78zM1120.5 -6q-24.5 0 -37.5 4l-168 420h-624l-160 -420q-8 -2 -33 -2t-47 10l508 1309q12 4 38 4t38 -4l528 -1309q-18 -12 -42.5 -12zM465 1538q-104 0 -135 -94q-39 0 -62 22q47 137 195 138q51 0 140 -46.5t128 -46.5
q106 0 137 95q39 0 60 -21q-47 -139 -193 -139q-55 0 -144 46t-126 46z" />
    <glyph glyph-name="Adieresis" unicode="&#xc4;" horiz-adv-x="1204" 
d="M317 487h570l-264 662l-29 78l-25 -78zM1120.5 -6q-24.5 0 -37.5 4l-168 420h-624l-160 -420q-8 -2 -33 -2t-47 10l508 1309q12 4 38 4t38 -4l528 -1309q-18 -12 -42.5 -12zM805 1470q-29 0 -48.5 19.5t-19.5 47.5t20.5 47.5t47 19.5t46 -19.5t19.5 -47.5t-18 -47.5
t-47 -19.5zM391 1470q-29 0 -48 19.5t-19 47.5t20.5 47.5t47 19.5t46 -19.5t19.5 -47.5t-18.5 -47.5t-47.5 -19.5z" />
    <glyph glyph-name="Aring" unicode="&#xc5;" horiz-adv-x="1204" 
d="M317 487h570l-264 662l-29 78l-25 -78zM1120.5 -6q-24.5 0 -37.5 4l-168 420h-624l-160 -420q-8 -2 -33 -2t-47 10l508 1309q12 4 38 4t38 -4l528 -1309q-18 -12 -42.5 -12zM599 1645q-52 0 -87 -37t-35 -86t35 -86t87 -37t85 35.5t33 87t-33 87.5t-85 36zM597 1339
q-75 0 -128 53.5t-53 129t53 128t128 52.5t128 -52.5t53 -128t-53 -129t-128 -53.5z" />
    <glyph glyph-name="AE" unicode="&#xc6;" horiz-adv-x="1613" 
d="M819 633v555l2 45l-358 -600h356zM1522 36.5q0 -17.5 -6 -36.5h-697v561h-399l-338 -563q-16 -4 -35 -4t-45 10l782 1311h703q6 -18 6 -35.5t-6 -36.5h-592v-610h530q13 -38 0 -72h-530v-489h621q6 -18 6 -35.5z" />
    <glyph glyph-name="Ccedilla" unicode="&#xc7;" horiz-adv-x="1230" 
d="M905 -225q0 -82 -64.5 -122t-150.5 -40t-119 16q0 35 21 56q39 -14 99 -14.5t101.5 25t41.5 75t-42 72t-137 30.5l41 104q-264 14 -420.5 203t-156.5 483.5t176 487t457 192.5q227 0 391 -124q-6 -39 -43 -60q-162 113 -348 113q-248 0 -400.5 -171t-152.5 -442.5
t147.5 -440.5t385.5 -169t388 125q35 -18 41 -57q-162 -135 -403 -142l-23 -55q170 -29 170 -145z" />
    <glyph glyph-name="Egrave" unicode="&#xc8;" horiz-adv-x="1101" 
d="M207 0v1315h768q6 -16 6 -37t-6 -35h-692v-522h626q17 -39 0 -72h-626v-577h718q19 -37 0 -72h-794zM776 1440q0 -20 -18 -39l-359 180q2 47 39 72z" />
    <glyph glyph-name="Eacute" unicode="&#xc9;" horiz-adv-x="1101" 
d="M207 0v1315h768q6 -16 6 -37t-6 -35h-692v-522h626q17 -39 0 -72h-626v-577h718q19 -37 0 -72h-794zM819 1581l-358 -180q-18 18 -19 39l338 213q37 -25 39 -72z" />
    <glyph glyph-name="Ecircumflex" unicode="&#xca;" horiz-adv-x="1101" 
d="M207 0v1315h768q6 -16 6 -37t-6 -35h-692v-522h626q17 -39 0 -72h-626v-577h718q19 -37 0 -72h-794zM381 1386q-25 12 -31 41l232 215q31 6 61 0l229 -212q-6 -29 -30 -44l-234 191z" />
    <glyph glyph-name="Edieresis" unicode="&#xcb;" horiz-adv-x="1101" 
d="M207 0v1315h768q6 -16 6 -37t-6 -35h-692v-522h626q17 -39 0 -72h-626v-577h718q19 -37 0 -72h-794zM819.5 1470q-28.5 0 -48 19.5t-19.5 47.5t20.5 47.5t47 19.5t46 -19.5t19.5 -47.5t-18.5 -47.5t-47 -19.5zM405.5 1470q-28.5 0 -48 19.5t-19.5 47.5t20.5 47.5t47 19.5
t46 -19.5t19.5 -47.5t-18.5 -47.5t-47 -19.5z" />
    <glyph glyph-name="Igrave" unicode="&#xcc;" horiz-adv-x="489" 
d="M244.5 -6q-21.5 0 -37.5 6v1315q14 6 36.5 6t39.5 -6v-1315q-17 -6 -38.5 -6zM356 1401l-286 184q6 47 45 68l266 -217q-2 -19 -25 -35z" />
    <glyph glyph-name="Iacute" unicode="&#xcd;" horiz-adv-x="489" 
d="M244.5 -6q-21.5 0 -37.5 6v1315q14 6 36.5 6t39.5 -6v-1315q-17 -6 -38.5 -6zM133 1399q-20 14 -22 35l264 217q39 -20 47 -66z" />
    <glyph glyph-name="Icircumflex" unicode="&#xce;" horiz-adv-x="489" 
d="M244.5 -6q-21.5 0 -37.5 6v1315q14 6 36.5 6t39.5 -6v-1315q-17 -6 -38.5 -6zM272 1642l193 -204q-8 -25 -35 -39l-186 176l-183 -178q-29 8 -36 33l194 212q24 6 53 0z" />
    <glyph glyph-name="Idieresis" unicode="&#xcf;" horiz-adv-x="489" 
d="M244.5 -6q-21.5 0 -37.5 6v1315q14 6 36.5 6t39.5 -6v-1315q-17 -6 -38.5 -6zM399.5 1452q-28.5 0 -48 19.5t-19.5 47.5t19.5 47t47 19t47 -18.5t19.5 -47t-18.5 -48t-47 -19.5zM96.5 1452q-28.5 0 -48 19.5t-19.5 47.5t19.5 47t47 19t47 -18.5t19.5 -47t-18.5 -48
t-47 -19.5z" />
    <glyph glyph-name="Eth" unicode="&#xd0;" horiz-adv-x="1380" 
d="M561 53q291 0 456 165q165 166 165 440t-165 438t-462 164q-158 0 -272 -15v-549h252q4 -20 4 -30t-4 -35h-252v-559q128 -19 278 -19zM555 1333q332 0 519.5 -185t187.5 -486t-190.5 -490.5t-512.5 -189.5q-197 0 -354 20v629h-148q-4 10 -4 32.5t4 32.5h148v611
q166 26 350 26z" />
    <glyph glyph-name="Ntilde" unicode="&#xd1;" horiz-adv-x="1392" 
d="M1151.5 1323q20.5 0 34.5 -6v-1311q-31 -10 -68 -10l-813 1151l-26 45l2 -53v-1139q-14 -6 -37 -6t-37 6v1309q37 18 69 10l818 -1159l20 -35l-2 47v1145q19 6 39.5 6zM567 1538q-104 0 -135 -94q-39 0 -61 22q47 137 194 138q51 0 140.5 -46.5t128.5 -46.5q106 0 137 95
q39 0 59 -21q-47 -139 -192 -139q-55 0 -144.5 46t-126.5 46z" />
    <glyph glyph-name="Ograve" unicode="&#xd2;" horiz-adv-x="1484" 
d="M741.5 49q249.5 0 397 170t147.5 442t-146.5 441.5t-397.5 169.5t-397 -169t-146 -441t146.5 -442.5t396 -170.5zM741.5 -23q-280.5 0 -451.5 192.5t-171 488.5t172 490q173 194 453 194.5t451 -190.5q171 -190 171 -488t-172 -492.5t-452.5 -194.5zM889 1401l-359 180
q2 47 39 72l338 -213q0 -21 -18 -39z" />
    <glyph glyph-name="Oacute" unicode="&#xd3;" horiz-adv-x="1484" 
d="M741.5 49q249.5 0 397 170t147.5 442t-146.5 441.5t-397.5 169.5t-397 -169t-146 -441t146.5 -442.5t396 -170.5zM741.5 -23q-280.5 0 -451.5 192.5t-171 488.5t172 490q173 194 453 194.5t451 -190.5q171 -190 171 -488t-172 -492.5t-452.5 -194.5zM592 1401
q-18 18 -19 39l338 213q37 -25 39 -72z" />
    <glyph glyph-name="Ocircumflex" unicode="&#xd4;" horiz-adv-x="1484" 
d="M741.5 49q249.5 0 397 170t147.5 442t-146.5 441.5t-397.5 169.5t-397 -169t-146 -441t146.5 -442.5t396 -170.5zM741.5 -23q-280.5 0 -451.5 192.5t-171 488.5t172 490q173 194 453 194.5t451 -190.5q171 -190 171 -488t-172 -492.5t-452.5 -194.5zM512 1386
q-25 12 -31 41l232 215q31 6 61 0l230 -212q-6 -29 -31 -44l-234 191z" />
    <glyph glyph-name="Otilde" unicode="&#xd5;" horiz-adv-x="1484" 
d="M741.5 49q249.5 0 397 170t147.5 442t-146.5 441.5t-397.5 169.5t-397 -169t-146 -441.5t146.5 -442.5t396 -170zM741.5 -23q-280.5 0 -451.5 192.5t-171 488.5t172 490.5t452.5 194.5t451.5 -191t171 -488.5t-172 -492t-452.5 -194.5zM874 1511q106 0 138 95
q39 0 59 -21q-47 -139 -192 -139q-55 0 -144.5 46t-126.5 46q-104 0 -135 -94q-39 0 -61 22q47 137 194 138q51 0 140.5 -46.5t127.5 -46.5z" />
    <glyph glyph-name="Odieresis" unicode="&#xd6;" horiz-adv-x="1484" 
d="M741.5 49q249.5 0 397 170t147.5 442t-146.5 441.5t-397.5 169.5t-397 -169t-146 -441t146.5 -442.5t396 -170.5zM741.5 -23q-280.5 0 -451.5 192.5t-171 488.5t172 490q173 194 453 194.5t451 -190.5q171 -190 171 -488t-172 -492.5t-452.5 -194.5zM950.5 1470
q-28.5 0 -48 19.5t-19.5 47.5t20.5 47.5t47 19.5t46 -19.5t19.5 -47.5t-18.5 -47.5t-47 -19.5zM536.5 1470q-28.5 0 -48 19.5t-19.5 47.5t20.5 47.5t47 19.5t46 -19.5t19.5 -47.5t-18.5 -47.5t-47 -19.5z" />
    <glyph glyph-name="multiply" unicode="&#xd7;" horiz-adv-x="913" 
d="M764 748l-258 -259l258 -260q-14 -29 -47 -47l-258 260l-260 -260q-31 14 -47 49l258 258l-258 259q16 31 47 47l258 -258l260 260q33 -18 47 -49z" />
    <glyph glyph-name="Oslash" unicode="&#xd8;" horiz-adv-x="1484" 
d="M1286 647q0 258 -121 424l-794 -878q147 -143 383.5 -143.5t384 169.5t147.5 428zM199 671q0 -262 127 -427l794 878q-145 150 -387 150t-388 -169.5t-146 -431.5zM754.5 -23q-267.5 0 -432.5 160l-146 -160q-39 10 -49 48l147 163q-156 184 -155.5 475t172.5 485.5
t440 194.5t438 -165l148 161q39 -12 51 -45l-151 -168q150 -184 149.5 -472t-172.5 -482.5t-439.5 -194.5z" />
    <glyph glyph-name="Ugrave" unicode="&#xd9;" horiz-adv-x="1372" 
d="M693 -25q-224 0 -363.5 146.5t-139.5 390.5v803q16 6 37.5 6t40.5 -6v-803q0 -207 115 -334t310 -127t304 127t109 334v803q18 6 40 6t36 -6v-803q0 -238 -132.5 -387.5t-356.5 -149.5zM842 1401l-359 180q2 47 39 72l338 -213q0 -21 -18 -39z" />
    <glyph glyph-name="Uacute" unicode="&#xda;" horiz-adv-x="1372" 
d="M693 -25q-224 0 -363.5 146.5t-139.5 390.5v803q16 6 37.5 6t40.5 -6v-803q0 -207 115 -334t310 -127t304 127t109 334v803q18 6 40 6t36 -6v-803q0 -238 -132.5 -387.5t-356.5 -149.5zM547 1401q-18 18 -19 39l338 213q37 -25 39 -72z" />
    <glyph glyph-name="Ucircumflex" unicode="&#xdb;" horiz-adv-x="1372" 
d="M693 -25q-224 0 -363.5 146.5t-139.5 390.5v803q16 6 37.5 6t40.5 -6v-803q0 -207 115 -334t310 -127t304 127t109 334v803q18 6 40 6t36 -6v-803q0 -238 -132.5 -387.5t-356.5 -149.5zM467 1386q-25 12 -31 41l232 215q31 6 61 0l229 -212q-6 -29 -30 -44l-234 191z" />
    <glyph glyph-name="Udieresis" unicode="&#xdc;" horiz-adv-x="1372" 
d="M693 -25q-224 0 -363.5 146.5t-139.5 390.5v803q16 6 37.5 6t40.5 -6v-803q0 -207 115 -334t310 -127t304 127t109 334v803q18 6 40 6t36 -6v-803q0 -238 -132.5 -387.5t-356.5 -149.5zM903 1470q-29 0 -48 19.5t-19 47.5t20.5 47.5t47 19.5t46 -19.5t19.5 -47.5
t-18.5 -47.5t-47.5 -19.5zM489.5 1470q-28.5 0 -48 19.5t-19.5 47.5t20.5 47.5t47 19.5t46 -19.5t19.5 -47.5t-18.5 -47.5t-47 -19.5z" />
    <glyph glyph-name="Yacute" unicode="&#xdd;" horiz-adv-x="1146" 
d="M575.5 -6q-20.5 0 -38.5 6v553l-500 762q33 8 55 8t29 -2l444 -670l17 -30l14 30l420 670q10 2 32.5 2t51.5 -8l-486 -764v-551q-18 -6 -38.5 -6zM784 1581l-358 -180q-18 18 -18 39l337 213q37 -25 39 -72z" />
    <glyph glyph-name="Thorn" unicode="&#xde;" horiz-adv-x="1091" 
d="M926 660.5q0 154.5 -99.5 243.5t-291.5 89q-137 0 -250 -28v-621q113 -26 254 -20q195 0 291 91t96 245.5zM539 252q-154 0 -254 16v-268q-18 -6 -40 -6t-38 6v1317q14 6 36.5 6t41.5 -6v-281q119 29 252 29q227 0 348 -106.5t122 -292.5t-122 -300t-346 -114z" />
    <glyph glyph-name="germandbls" unicode="&#xdf;" horiz-adv-x="1153" 
d="M1067 243q0 -118 -83 -190t-224 -71q-180 0 -285 112q6 39 45 56q96 -100 224 -100t187 51q60 53 60 137t-46 128q-47 44 -143 84t-132 58q-109 54 -139 121q-17 41 -17 96q0 115 89 178t218 64q49 0 84 -6q-4 180 -88 278q-83 98 -237 98t-240 -90t-88 -241v-1006
q-14 -6 -37 -6t-37 6v1006q0 184 113 294t292 109q179 0 289 -119t109 -340q0 -43 -8 -67q-82 18 -167 18t-151 -45q-65 -45 -65 -122q0 -78 47 -114t177 -91t192 -111t61 -175z" />
    <glyph glyph-name="agrave" unicode="&#xe0;" horiz-adv-x="1011" 
d="M172 287.5q0 -105.5 79 -172t239.5 -66.5t291.5 55v324q-131 84 -292.5 84t-239.5 -59.5t-78 -165zM782 625q0 288 -320 288q-154 0 -282 -98q-31 14 -39 51q133 119 319.5 119t292 -86t105.5 -264v-572q-156 -84 -360.5 -83.5t-305 83t-100.5 223t105.5 218.5t277.5 78
t307 -78v121zM629 1122q-6 -23 -27 -37l-321 238q18 45 51 63z" />
    <glyph glyph-name="aacute" unicode="&#xe1;" horiz-adv-x="1011" 
d="M172 287.5q0 -105.5 79 -172t239.5 -66.5t291.5 55v324q-131 84 -292.5 84t-239.5 -59.5t-78 -165zM782 625q0 288 -320 288q-154 0 -282 -98q-31 14 -39 51q133 119 319.5 119t292 -86t105.5 -264v-572q-156 -84 -360.5 -83.5t-305 83t-100.5 223t105.5 218.5t277.5 78
t307 -78v121zM348 1085q-20 16 -26 37l296 264q33 -16 52 -63z" />
    <glyph glyph-name="acircumflex" unicode="&#xe2;" horiz-adv-x="1011" 
d="M172 287.5q0 -105.5 79 -172t239.5 -66.5t291.5 55v324q-131 84 -292.5 84t-239.5 -59.5t-78 -165zM782 625q0 288 -320 288q-154 0 -282 -98q-31 14 -39 51q133 119 319.5 119t292 -86t105.5 -264v-572q-156 -84 -360.5 -83.5t-305 83t-100.5 223t105.5 218.5t277.5 78
t307 -78v121zM262 1092q-27 12 -39 43l232 245q31 6 59 0l231 -250q-14 -33 -43 -43l-221 224z" />
    <glyph glyph-name="atilde" unicode="&#xe3;" horiz-adv-x="1011" 
d="M172 287.5q0 -105.5 79 -172t239.5 -66.5t291.5 55v324q-131 84 -292.5 84t-239.5 -59.5t-78 -165zM782 625q0 288 -320 288q-154 0 -282 -98q-31 14 -39 51q133 119 319.5 119t292 -86t105.5 -264v-572q-156 -84 -360.5 -83.5t-305 83t-100.5 223t105.5 218.5t277.5 78
t307 -78v121zM352 1251q-92 0 -123 -92q-37 0 -61 21q49 139 180 139q55 -2 144.5 -46t130.5 -44q88 0 120 90q37 0 58 -21q-20 -63 -66.5 -100t-105.5 -37t-147.5 45t-129.5 45z" />
    <glyph glyph-name="adieresis" unicode="&#xe4;" horiz-adv-x="1011" 
d="M172 287.5q0 -105.5 79 -172t239.5 -66.5t291.5 55v324q-131 84 -292.5 84t-239.5 -59.5t-78 -165zM782 625q0 288 -320 288q-154 0 -282 -98q-31 14 -39 51q133 119 319.5 119t292 -86t105.5 -264v-572q-156 -84 -360.5 -83.5t-305 83t-100.5 223t105.5 218.5t277.5 78
t307 -78v121zM694.5 1167q-28.5 0 -48 19.5t-19.5 47.5t20.5 47t47 19t46 -19t19.5 -47t-18.5 -47.5t-47 -19.5zM276.5 1167q-28.5 0 -48 19.5t-19.5 47.5t20.5 47t47 19t46 -19t19.5 -47t-18.5 -47.5t-47 -19.5z" />
    <glyph glyph-name="aring" unicode="&#xe5;" horiz-adv-x="1011" 
d="M172 287.5q0 -105.5 79 -172t239.5 -66.5t291.5 55v324q-131 84 -292.5 84t-239.5 -59.5t-78 -165zM782 625q0 288 -320 288q-154 0 -282 -98q-31 14 -39 51q133 119 319.5 119t292 -86t105.5 -264v-572q-156 -84 -360.5 -83.5t-305 83t-100.5 223t105.5 218.5t277.5 78
t307 -78v121zM486 1360q-52 0 -86.5 -37t-34.5 -87t34.5 -87t86.5 -37t85 36t33 87t-33 88t-85 37zM484 1053q-75 0 -128 53t-53 129t53.5 129t128 53t128 -53t53.5 -129t-53.5 -129t-128.5 -53z" />
    <glyph glyph-name="ae" unicode="&#xe6;" horiz-adv-x="1636" 
d="M754 479h-279q-156 -2 -228.5 -60.5t-73.5 -156.5t62.5 -156.5t179.5 -58.5t217 84q54 45 88 134t34 214zM1452 547q0 164 -74.5 266t-213 102t-234 -102t-99.5 -266h621zM754 633q0 280 -302 280q-146 0 -280 -102q-27 16 -39 53q135 121 338 121q131 0 222 -62.5
t118 -197.5q39 123 137.5 191.5t212.5 68.5q174 0 271.5 -123t99.5 -350q0 -23 -2 -33h-699v-12q2 -207 95.5 -312.5t249.5 -105.5q72 0 133 20.5t85.5 38t69.5 52.5q27 -14 41 -56q-49 -38 -86 -62q-97 -62 -243 -62q-330 0 -390 319q-33 -162 -141 -240.5t-247 -78.5
t-222.5 74.5t-83.5 207.5t102.5 208t280.5 75l279 2v86z" />
    <glyph glyph-name="ccedilla" unicode="&#xe7;" horiz-adv-x="993" 
d="M745 -225q0 -82 -64.5 -122t-150.5 -40t-118 16q0 35 20 56q39 -14 99 -14.5t101.5 25t41.5 75t-42 72t-136 30.5l43 109q-188 12 -308 145t-120 357t136 362.5t331 138.5t319 -108q-12 -37 -47 -58q-109 94 -278.5 94t-276.5 -124.5t-107 -311t106.5 -306.5t279 -120
t296.5 103q35 -25 43 -58q-137 -111 -313 -116l-25 -60q170 -29 170 -145z" />
    <glyph glyph-name="egrave" unicode="&#xe8;" horiz-adv-x="1069" 
d="M551.5 915q-146.5 0 -245.5 -102t-116 -266h697q0 180 -94.5 274t-241 94zM188 481v-4q0 -199 104.5 -313.5t283 -114.5t313.5 111q31 -14 41 -54q-156 -127 -361 -126.5t-331.5 130.5t-126.5 364t131 372.5t314 138.5t298 -120t117 -343l-2 -41h-781zM700 1122
q-6 -23 -26 -37l-322 238q18 45 51 63z" />
    <glyph glyph-name="eacute" unicode="&#xe9;" horiz-adv-x="1069" 
d="M551.5 915q-146.5 0 -245.5 -102t-116 -266h697q0 180 -94.5 274t-241 94zM188 481v-4q0 -199 104.5 -313.5t283 -114.5t313.5 111q31 -14 41 -54q-156 -127 -361 -126.5t-331.5 130.5t-126.5 364t131 372.5t314 138.5t298 -120t117 -343l-2 -41h-781zM418 1085
q-20 16 -27 37l297 264q33 -16 51 -63z" />
    <glyph glyph-name="ecircumflex" unicode="&#xea;" horiz-adv-x="1069" 
d="M551.5 915q-146.5 0 -245.5 -102t-116 -266h697q0 180 -94.5 274t-241 94zM188 481v-4q0 -199 104.5 -313.5t283 -114.5t313.5 111q31 -14 41 -54q-156 -127 -361 -126.5t-331.5 130.5t-126.5 364t131 372.5t314 138.5t298 -120t117 -343l-2 -41h-781zM332 1092
q-27 12 -39 43l231 245q31 6 60 0l231 -250q-14 -33 -43 -43l-221 224z" />
    <glyph glyph-name="edieresis" unicode="&#xeb;" horiz-adv-x="1069" 
d="M551.5 915q-146.5 0 -245.5 -102t-116 -266h697q0 180 -94.5 274t-241 94zM188 481v-4q0 -199 104.5 -313.5t283 -114.5t313.5 111q31 -14 41 -54q-156 -127 -361 -126.5t-331.5 130.5t-126.5 364t131 372.5t314 138.5t298 -120t117 -343l-2 -41h-781zM766 1167
q-29 0 -48.5 19.5t-19.5 47.5t20.5 47t47.5 19t46 -19t19 -47t-18 -47.5t-47 -19.5zM348 1167q-29 0 -48 19.5t-19 47.5t20.5 47t47 19t46 -19t19.5 -47t-18.5 -47.5t-47.5 -19.5z" />
    <glyph glyph-name="igrave" unicode="&#xec;" horiz-adv-x="438" 
d="M221.5 -6q-22.5 0 -41.5 6v961q18 6 41 6t37 -6v-961q-14 -6 -36.5 -6zM334 1085l-285 250q20 47 60 60l256 -277q-6 -21 -31 -33z" />
    <glyph glyph-name="iacute" unicode="&#xed;" horiz-adv-x="438" 
d="M221.5 -6q-22.5 0 -41.5 6v961q18 6 41 6t37 -6v-961q-14 -6 -36.5 -6zM98 1085q-25 12 -30 33l256 277q43 -14 59 -60z" />
    <glyph glyph-name="icircumflex" unicode="&#xee;" horiz-adv-x="438" 
d="M221.5 -6q-22.5 0 -41.5 6v961q18 6 41 6t37 -6v-961q-14 -6 -36.5 -6zM246 1386l188 -249q-12 -25 -35 -33l-182 215l-180 -213q-27 6 -35 31l191 252q28 3 53 -3z" />
    <glyph glyph-name="idieresis" unicode="&#xef;" horiz-adv-x="438" 
d="M221.5 -6q-22.5 0 -41.5 6v961q18 6 41 6t37 -6v-961q-14 -6 -36.5 -6zM372.5 1167q-28.5 0 -48 19.5t-19.5 47.5t19.5 47t47.5 19t47 -19t19 -48t-18.5 -47.5t-47 -18.5zM64 1167q-28 0 -47 19.5t-19 47.5t19.5 47t46 19t47 -19t20.5 -47t-19.5 -47.5t-47.5 -19.5z" />
    <glyph glyph-name="eth" unicode="&#xf0;" horiz-adv-x="1105" 
d="M550 49q165 1 262 107t97 275t-99 277t-260 108t-261 -110q-101 -108 -101 -276t98 -274t264 -107zM989 442q0 -206 -125 -334t-317 -128t-315 124q-122 125 -122 325t126 329q125 129 309 129q227 0 348 -172q-76 281 -318 434l-192 -135q-31 21 -31 47l168 119
q-102 55 -223 86q-4 45 29 71q147 -43 262 -110l157 112q7 -4 19 -19t12 -28l-139 -98q352 -242 352 -752z" />
    <glyph glyph-name="ntilde" unicode="&#xf1;" horiz-adv-x="1136" 
d="M564 985q215 0 312 -104.5t97 -278.5v-602q-14 -6 -36.5 -6t-41.5 6v586q0 328 -330 327q-176 0 -319 -94v-819q-16 -6 -39 -6t-37 6v854q179 131 394 131zM428 1251q-92 0 -123 -92q-37 0 -61 21q49 139 180 139q55 -2 144 -46t130 -44q88 0 121 90q37 0 58 -21
q-20 -63 -66.5 -100t-106 -37t-147.5 45t-129 45z" />
    <glyph glyph-name="ograve" unicode="&#xf2;" horiz-adv-x="1173" 
d="M586 51q180 0 290.5 122t110.5 307t-110.5 309t-289.5 124t-290 -124.5t-111 -309t110 -306.5t290 -122zM583 -20q-206 0 -340 140t-134 359t137 363.5t344 144.5t341 -143.5t134 -360.5t-138 -360t-344 -143zM705 1085l-322 238q18 45 51 63l297 -264q-6 -23 -26 -37z
" />
    <glyph glyph-name="oacute" unicode="&#xf3;" horiz-adv-x="1173" 
d="M586 51q180 0 290.5 122t110.5 307t-110.5 309t-289.5 124t-290 -124.5t-111 -309t110 -306.5t290 -122zM583 -20q-206 0 -340 140t-134 359t137 363.5t344 144.5t341 -143.5t134 -360.5t-138 -360t-344 -143zM451 1085q-20 16 -27 37l297 264q33 -16 51 -63z" />
    <glyph glyph-name="ocircumflex" unicode="&#xf4;" horiz-adv-x="1173" 
d="M586 51q180 0 290.5 122t110.5 307t-110.5 309t-289.5 124t-290 -124.5t-111 -309t110 -306.5t290 -122zM583 -20q-206 0 -340 140t-134 359t137 363.5t344 144.5t341 -143.5t134 -360.5t-138 -360t-344 -143zM616 1380l232 -250q-14 -33 -43 -43l-221 224l-219 -219
q-27 12 -39 43l231 245q30 6 59 0z" />
    <glyph glyph-name="otilde" unicode="&#xf5;" horiz-adv-x="1173" 
d="M586 51q180 0 290.5 122t110.5 307t-110.5 309t-289.5 124t-290 -124.5t-111 -309t110 -306.5t290 -122zM583 -20q-206 0 -340 140t-134 359t137 363.5t344 144.5t341 -143.5t134 -360.5t-138 -360t-344 -143zM725 1229q88 0 121 90q37 0 57 -21q-20 -63 -66 -100
t-105.5 -37t-147.5 45t-129 45q-92 0 -123 -92q-37 0 -62 21q49 139 181 139q55 -2 144 -46t130 -44z" />
    <glyph glyph-name="odieresis" unicode="&#xf6;" horiz-adv-x="1173" 
d="M586 51q180 0 290.5 122t110.5 307t-110.5 309t-289.5 124t-290 -124.5t-111 -309t110 -306.5t290 -122zM583 -20q-206 0 -340 140t-134 359t137 363.5t344 144.5t341 -143.5t134 -360.5t-138 -360t-344 -143zM796.5 1167q-28.5 0 -48 19.5t-19.5 47.5t20.5 47t47 19
t46 -19t19.5 -47t-18.5 -47.5t-47 -19.5zM379 1167q-29 0 -48.5 19.5t-19.5 47.5t20.5 47t47.5 19t46 -19t19 -47t-18 -47.5t-47 -19.5z" />
    <glyph glyph-name="divide" unicode="&#xf7;" horiz-adv-x="1093" 
d="M548 100q-30 0 -52 22t-23 52q0 30 23 50q22 22 52 22t52 -22t21 -52q1 -30 -21 -50q-22 -22 -52 -22zM946 484q0 -16 -6 -35h-786q-13 39 0 67h786q6 -16 6 -32zM548 719q-30 -1 -52 21t-23 52q0 30 23 52q22 22 52 20q30 0 52 -22t21 -50q1 -30 -21 -52t-52 -21z" />
    <glyph glyph-name="oslash" unicode="&#xf8;" horiz-adv-x="1175" 
d="M600 51q168 0 277.5 122t109.5 302t-96 299l-565 -629q106 -94 274 -94zM186 485q0 -178 97 -297l565 631q-104 94 -272 94t-279 -125t-111 -303zM1067 480q0 -214 -138 -357t-331.5 -143t-321.5 110l-122 -137q-35 12 -43 43l120 135q-123 139 -122.5 353t138.5 358.5
t330.5 144.5t321.5 -113l121 136q35 -12 45 -41l-123 -138q125 -137 125 -351z" />
    <glyph glyph-name="ugrave" unicode="&#xf9;" horiz-adv-x="1124" 
d="M915.5 958q20.5 0 38.5 -6v-893q-188 -84 -394 -84t-300 99.5t-94 275.5v602q14 6 36 6t40 -6v-569q0 -160 73.5 -247t244.5 -87t317 60v843q18 6 38.5 6zM711 1122q-6 -23 -27 -37l-322 238q18 45 52 63z" />
    <glyph glyph-name="uacute" unicode="&#xfa;" horiz-adv-x="1124" 
d="M915.5 958q20.5 0 38.5 -6v-893q-188 -84 -394 -84t-300 99.5t-94 275.5v602q14 6 36 6t40 -6v-569q0 -160 73.5 -247t244.5 -87t317 60v843q18 6 38.5 6zM428 1085q-20 16 -27 37l297 264q33 -16 52 -63z" />
    <glyph glyph-name="ucircumflex" unicode="&#xfb;" horiz-adv-x="1124" 
d="M915.5 958q20.5 0 38.5 -6v-893q-188 -84 -394 -84t-300 99.5t-94 275.5v602q14 6 36 6t40 -6v-569q0 -160 73.5 -247t244.5 -87t317 60v843q18 6 38.5 6zM342 1092q-27 12 -39 43l232 245q31 6 59 0l231 -250q-14 -33 -43 -43l-221 224z" />
    <glyph glyph-name="udieresis" unicode="&#xfc;" horiz-adv-x="1124" 
d="M915.5 958q20.5 0 38.5 -6v-893q-188 -84 -394 -84t-300 99.5t-94 275.5v602q14 6 36 6t40 -6v-569q0 -160 73.5 -247t244.5 -87t317 60v843q18 6 38.5 6zM776.5 1167q-28.5 0 -48 19.5t-19.5 47.5t20.5 47t47 19t46 -19t19.5 -47t-18.5 -47.5t-47 -19.5zM358.5 1167
q-28.5 0 -48 19.5t-19.5 47.5t20.5 47t47 19t46 -19t19.5 -47t-18.5 -47.5t-47 -19.5z" />
    <glyph glyph-name="yacute" unicode="&#xfd;" horiz-adv-x="993" 
d="M893 956q25 0 41 -8q-72 -356 -256 -714.5t-451 -643.5q-39 8 -55 48q164 170 293 378q-119 184 -235.5 446.5t-166.5 487.5q12 6 39 6t43 -4q43 -201 144.5 -435t210.5 -415q4 -8 12 -20l12 20q262 461 332 850q12 4 37 4zM365 1085q-20 16 -27 37l297 264
q33 -16 51 -63z" />
    <glyph glyph-name="thorn" unicode="&#xfe;" horiz-adv-x="1136" 
d="M541 51q180 0 294 118q113 118 113 321q0 204 -112 314t-280 110q-169 0 -302 -89v-706q107 -68 287 -68zM549 985q209 0 343 -128q134 -127 134 -365t-136 -375t-326 -137t-310 57v-420q-16 -6 -39 -6t-37 6v1731q14 6 37 6t39 -6v-445q141 82 295 82z" />
    <glyph glyph-name="ydieresis" unicode="&#xff;" horiz-adv-x="993" 
d="M893 956q25 0 41 -8q-72 -356 -256 -714.5t-451 -643.5q-39 8 -55 48q164 170 293 378q-119 184 -235.5 446.5t-166.5 487.5q12 6 39 6t43 -4q43 -201 144.5 -435t210.5 -415q4 -8 12 -20l12 20q262 461 332 850q12 4 37 4zM712.5 1167q-28.5 0 -48 19.5t-19.5 47.5
t20.5 47t47 19t46 -19t19.5 -47t-18.5 -47.5t-47 -19.5zM295 1167q-29 0 -48.5 19.5t-19.5 47.5t20.5 47t47.5 19t46 -19t19 -47t-18 -47.5t-47 -19.5z" />
    <glyph glyph-name="Amacron" unicode="&#x100;" horiz-adv-x="1204" 
d="M317 487h570l-264 662l-29 78l-25 -78zM1120.5 -6q-24.5 0 -37.5 4l-168 420h-624l-160 -420q-8 -2 -33 -2t-47 10l508 1309q12 4 38 4t38 -4l528 -1309q-18 -12 -42.5 -12zM334 1511.5q0 20.5 4 36.5h520q6 -16 6 -30.5t-6 -32.5h-520q-4 6 -4 26.5z" />
    <glyph glyph-name="amacron" unicode="&#x101;" horiz-adv-x="1011" 
d="M172 287.5q0 -105.5 79 -172t239.5 -66.5t291.5 55v324q-131 84 -292.5 84t-239.5 -59.5t-78 -165zM782 625q0 288 -320 288q-154 0 -282 -98q-31 14 -39 51q133 119 319.5 119t292 -86t105.5 -264v-572q-156 -84 -360.5 -83.5t-305 83t-100.5 223t105.5 218.5t277.5 78
t307 -78v121zM221 1203q0 21 6 36h514q6 -12 6 -32.5t-6 -32.5h-514q-6 8 -6 29z" />
    <glyph glyph-name="Abreve" unicode="&#x102;" horiz-adv-x="1204" 
d="M317 487h570l-264 662l-29 78l-25 -78zM1120.5 -6q-24.5 0 -37.5 4l-168 420h-624l-160 -420q-8 -2 -33 -2t-47 10l508 1309q12 4 38 4t38 -4l528 -1309q-18 -12 -42.5 -12zM598 1421q-98 0 -172 59.5t-88 157.5q27 12 57 11q18 -76 74.5 -119t127.5 -43t131 43t73 119
q33 0 55 -9q-8 -96 -84 -157.5t-174 -61.5z" />
    <glyph glyph-name="abreve" unicode="&#x103;" horiz-adv-x="1011" 
d="M172 287.5q0 -105.5 79 -172t239.5 -66.5t291.5 55v324q-131 84 -292.5 84t-239.5 -59.5t-78 -165zM782 625q0 288 -320 288q-154 0 -282 -98q-31 14 -39 51q133 119 319.5 119t292 -86t105.5 -264v-572q-156 -84 -360.5 -83.5t-305 83t-100.5 223t105.5 218.5t277.5 78
t307 -78v121zM484 1104q-103 0 -175.5 64.5t-83.5 177.5q20 14 56 10q14 -92 70.5 -140.5t133 -48.5t137 49.5t68.5 139.5q35 0 53 -8q-6 -111 -81 -177.5t-178 -66.5z" />
    <glyph glyph-name="Aogonek" unicode="&#x104;" horiz-adv-x="1204" 
d="M317 487h570l-264 662l-29 78l-25 -78zM977 -204q1 -95 109 -95q52 0 98 39q29 -16 28 -51q-72 -55 -148.5 -55.5t-119.5 37.5t-43 101.5t50 124t132 103.5l-168 418h-624l-160 -420q-8 -2 -33 -2t-47 10l508 1309q12 4 38 4t38 -4l528 -1309q-83 -41 -134.5 -100.5
t-51.5 -109.5z" />
    <glyph glyph-name="aogonek" unicode="&#x105;" horiz-adv-x="1011" 
d="M172 287.5q0 -105.5 79 -172t239.5 -66.5t291.5 55v324q-131 84 -292.5 84t-239.5 -59.5t-78 -165zM782 625q0 288 -320 288q-154 0 -282 -98q-31 14 -39 51q133 119 319.5 119t292 -86t105.5 -264v-572q-86 -59 -141 -132.5t-55 -129t27.5 -78t76.5 -22.5t96 39
q29 -25 29 -53q-68 -53 -144 -53.5t-117.5 37.5t-41.5 106q0 113 135 235q-123 -33 -244 -32q-186 0 -286.5 82.5t-100.5 223t105.5 218.5t277.5 78t307 -78v121z" />
    <glyph glyph-name="Cacute" unicode="&#x106;" horiz-adv-x="1230" 
d="M724.5 -25q-268.5 0 -437 191.5t-168.5 491.5t176 492.5t457 192.5q227 0 391 -124q-6 -39 -43 -60q-162 113 -348 113q-248 0 -400.5 -171t-152.5 -442.5t147.5 -440.5t385.5 -169t388 125q35 -18 41 -57q-168 -142 -436.5 -142zM565 1401q-18 18 -18 39l338 213
q37 -25 39 -72z" />
    <glyph glyph-name="cacute" unicode="&#x107;" horiz-adv-x="993" 
d="M574 -20q-199 0 -331 134t-132 364t136 368.5t331 138.5t319 -108q-12 -37 -47 -58q-109 94 -278.5 94t-276.5 -124.5t-107 -311t106.5 -306.5t279 -120t296.5 103q35 -25 43 -58q-140 -116 -339 -116zM430 1085q-20 16 -27 37l297 264q33 -16 52 -63z" />
    <glyph glyph-name="Cdotaccent" unicode="&#x10a;" horiz-adv-x="1230" 
d="M724.5 -25q-268.5 0 -437 191.5t-168.5 491.5t176 492.5t457 192.5q227 0 391 -124q-6 -39 -43 -60q-162 113 -348 113q-248 0 -400.5 -171t-152.5 -442.5t147.5 -440.5t385.5 -169t388 125q35 -18 41 -57q-168 -142 -436.5 -142zM714.5 1473q-28.5 0 -49 20t-20.5 48
t20.5 48.5t49 20.5t48 -19.5t19.5 -48.5t-19.5 -49t-48 -20z" />
    <glyph glyph-name="cdotaccent" unicode="&#x10b;" horiz-adv-x="993" 
d="M574 -20q-199 0 -331 134t-132 364t136 368.5t331 138.5t319 -108q-12 -37 -47 -58q-109 94 -278.5 94t-276.5 -124.5t-107 -311t106.5 -306.5t279 -120t296.5 103q35 -25 43 -58q-140 -116 -339 -116zM567.5 1178q-28.5 0 -49 20.5t-20.5 49t20.5 50t49 21.5t49 -21.5
t20.5 -50t-20.5 -49t-49 -20.5z" />
    <glyph glyph-name="Ccaron" unicode="&#x10c;" horiz-adv-x="1230" 
d="M724.5 -25q-268.5 0 -437 191.5t-168.5 491.5t176 492.5t457 192.5q227 0 391 -124q-6 -39 -43 -60q-162 113 -348 113q-248 0 -400.5 -171t-152.5 -442.5t147.5 -440.5t385.5 -169t388 125q35 -18 41 -57q-168 -142 -436.5 -142zM684 1393l-229 211q6 29 30 45l234 -193
l227 193q25 -14 31 -43l-232 -213q-30 -8 -61 0z" />
    <glyph glyph-name="ccaron" unicode="&#x10d;" horiz-adv-x="993" 
d="M574 -20q-199 0 -331 134t-132 364t136 368.5t331 138.5t319 -108q-12 -37 -47 -58q-109 94 -278.5 94t-276.5 -124.5t-107 -311t106.5 -306.5t279 -120t296.5 103q35 -25 43 -58q-140 -116 -339 -116zM537 1096l-230 250q10 33 41 43l219 -224l221 219q29 -12 41 -43
l-233 -245q-30 -6 -59 0z" />
    <glyph glyph-name="Dcaron" unicode="&#x10e;" horiz-adv-x="1380" 
d="M561 53q291 0 456 165q165 166 165 440t-165 438t-462 164q-158 0 -272 -15v-1173q128 -19 278 -19zM555 1333q332 0 519.5 -185t187.5 -486t-190.5 -490.5t-512.5 -189.5q-197 0 -354 20v1305q166 26 350 26zM649 1393q-31 -8 -61 0l-230 211q6 29 31 45l234 -193
l227 193q25 -14 31 -43z" />
    <glyph glyph-name="dcaron" unicode="&#x10f;" horiz-adv-x="1130" 
d="M186 473q0 -197 120 -309.5t288 -112.5t285 53v734q-100 76 -275.5 75.5t-296.5 -122t-121 -318.5zM916.5 1354q21.5 0 37.5 -6v-1289q-160 -80 -342 -79q-219 0 -361 131t-142 365.5t148.5 371.5t356.5 137q162 0 265 -63v426q16 6 37.5 6zM1210 1338.5
q0 -70.5 -23.5 -142.5t-56.5 -109q-25 4 -34 23q45 72 45 175.5t-21 156.5q16 10 41 10t39 -8q10 -35 10 -105.5z" />
    <glyph glyph-name="Dcroat" unicode="&#x110;" horiz-adv-x="1380" 
d="M561 53q291 0 456 165q165 166 165 440t-165 438t-462 164q-158 0 -272 -15v-549h252q4 -20 4 -30t-4 -35h-252v-559q128 -19 278 -19zM555 1333q332 0 519.5 -185t187.5 -486t-190.5 -490.5t-512.5 -189.5q-197 0 -354 20v629h-148q-4 10 -4 32.5t4 32.5h148v611
q166 26 350 26z" />
    <glyph glyph-name="dcroat" unicode="&#x111;" horiz-adv-x="1126" 
d="M186 473q0 -197 120 -309.5t288 -112.5t285 53v734q-100 76 -275.5 75.5t-296.5 -122t-121 -318.5zM1130 1182q0 -16 -6 -35h-170v-1088q-160 -80 -342 -79q-219 0 -361 131t-142 365.5t148.5 371.5t356.5 137q162 0 265 -63v225h-217q-7 35 0 63h217v138q16 6 37.5 6
t37.5 -6v-138h170q6 -12 6 -28z" />
    <glyph glyph-name="Emacron" unicode="&#x112;" horiz-adv-x="1101" 
d="M207 0v1315h768q6 -16 6 -37t-6 -35h-692v-522h626q17 -39 0 -72h-626v-577h718q19 -37 0 -72h-794zM346 1511.5q0 20.5 4 36.5h520q6 -16 6 -30.5t-6 -32.5h-520q-4 6 -4 26.5z" />
    <glyph glyph-name="emacron" unicode="&#x113;" horiz-adv-x="1069" 
d="M551.5 915q-146.5 0 -245.5 -102t-116 -266h697q0 180 -94.5 274t-241 94zM188 481v-4q0 -199 104.5 -313.5t283 -114.5t313.5 111q31 -14 41 -54q-156 -127 -361 -126.5t-331.5 130.5t-126.5 364t131 372.5t314 138.5t298 -120t117 -343l-2 -41h-781zM293 1203
q0 21 6 36h514q6 -12 6 -32.5t-6 -32.5h-514q-6 8 -6 29z" />
    <glyph glyph-name="Edotaccent" unicode="&#x116;" horiz-adv-x="1101" 
d="M207 0v1315h768q6 -16 6 -37t-6 -35h-692v-522h626q17 -39 0 -72h-626v-577h718q19 -37 0 -72h-794zM610.5 1473q-28.5 0 -49 20t-20.5 48t20.5 48.5t49 20.5t48 -19.5t19.5 -48.5t-19.5 -49t-48 -20z" />
    <glyph glyph-name="edotaccent" unicode="&#x117;" horiz-adv-x="1069" 
d="M551.5 915q-146.5 0 -245.5 -102t-116 -266h697q0 180 -94.5 274t-241 94zM188 481v-4q0 -199 104.5 -313.5t283 -114.5t313.5 111q31 -14 41 -54q-156 -127 -361 -126.5t-331.5 130.5t-126.5 364t131 372.5t314 138.5t298 -120t117 -343l-2 -41h-781zM555 1178
q-29 0 -49.5 20.5t-20.5 49t20.5 50t49.5 21.5t49.5 -21.5t20.5 -50t-20.5 -49t-49.5 -20.5z" />
    <glyph glyph-name="Eogonek" unicode="&#x118;" horiz-adv-x="1101" 
d="M780 -207q0 -92 108 -92q50 0 101 39q29 -25 29 -53q-72 -53 -148 -53.5t-119.5 37.5t-43.5 104.5t64.5 127t162.5 97.5h-727v1315h768q6 -16 6 -37t-6 -35h-692v-522h626q17 -39 0 -72h-626v-577h718q19 -37 0 -72q-221 -102 -221 -207z" />
    <glyph glyph-name="eogonek" unicode="&#x119;" horiz-adv-x="1069" 
d="M551.5 915q-146.5 0 -245.5 -102t-116 -266h697q0 180 -94.5 274t-241 94zM188 481v-4q0 -199 104.5 -313.5t283 -114.5t313.5 111q31 -14 41 -54q-37 -29 -60 -43h2q-86 -59 -141 -132.5t-55 -129t27.5 -78t76.5 -22.5t97 39q29 -25 28 -53q-68 -53 -143.5 -53.5
t-117.5 37.5t-42 106q0 106 119 221q-66 -18 -146 -18q-211 0 -337.5 130t-126.5 364t131 372.5t314 138.5t298 -120t117 -343l-2 -41h-781z" />
    <glyph glyph-name="Ecaron" unicode="&#x11a;" horiz-adv-x="1101" 
d="M207 0v1315h768q6 -16 6 -37t-6 -35h-692v-522h626q17 -39 0 -72h-626v-577h718q19 -37 0 -72h-794zM641 1393q-31 -8 -61 0l-230 211q6 29 31 45l233 -193l228 193q25 -14 30 -43z" />
    <glyph glyph-name="ecaron" unicode="&#x11b;" horiz-adv-x="1069" 
d="M551.5 915q-146.5 0 -245.5 -102t-116 -266h697q0 180 -94.5 274t-241 94zM188 481v-4q0 -199 104.5 -313.5t283 -114.5t313.5 111q31 -14 41 -54q-156 -127 -361 -126.5t-331.5 130.5t-126.5 364t131 372.5t314 138.5t298 -120t117 -343l-2 -41h-781zM584 1096
q-31 -6 -60 0l-229 250q10 33 41 43l219 -224l221 219q29 -12 41 -43z" />
    <glyph glyph-name="Gbreve" unicode="&#x11e;" horiz-adv-x="1327" 
d="M1190 627v-545q-190 -106 -456.5 -106.5t-440.5 188t-174 491.5t183 495.5t466 192.5q242 0 406 -120q-10 -43 -41 -64q-162 111 -365 111q-254 0 -411.5 -168t-157.5 -443.5t146.5 -442.5t402.5 -167q213 0 364 74v432h-348q-6 18 -6 36t6 36h426zM716.5 1421
q-98.5 0 -172 59.5t-87.5 157.5q27 12 57 11q18 -76 74.5 -119t127.5 -43t131 43t73 119q33 0 55 -9q-8 -96 -84 -157.5t-174.5 -61.5z" />
    <glyph glyph-name="gbreve" unicode="&#x11f;" horiz-adv-x="1124" 
d="M582.5 123q166.5 0 296.5 96v600q-104 94 -279.5 94t-293.5 -110.5t-118 -291.5t114 -284.5t280.5 -103.5zM608 985q209 0 346 -125v-850q0 -180 -113.5 -290.5t-279.5 -110.5t-260 44t-162 122q10 39 51 51q59 -68 138.5 -108t224.5 -40t235.5 91.5t90.5 240.5v131
q-135 -90 -281 -90q-215 0 -352 123t-137 340t145 344t354 127zM585 1104q-103 0 -176 64.5t-83 177.5q20 14 55 10q14 -92 70.5 -140.5t133.5 -48.5t137 49.5t69 139.5q35 0 53 -8q-6 -111 -81 -177.5t-178 -66.5z" />
    <glyph glyph-name="Gdotaccent" unicode="&#x120;" horiz-adv-x="1327" 
d="M1190 627v-545q-190 -106 -456.5 -106.5t-440.5 188t-174 491.5t183 495.5t466 192.5q242 0 406 -120q-10 -43 -41 -64q-162 111 -365 111q-254 0 -411.5 -168t-157.5 -443.5t146.5 -442.5t402.5 -167q213 0 364 74v432h-348q-6 18 -6 36t6 36h426zM714.5 1473
q-28.5 0 -49 20t-20.5 48t20.5 48.5t49 20.5t48 -19.5t19.5 -48.5t-19.5 -49t-48 -20z" />
    <glyph glyph-name="gdotaccent" unicode="&#x121;" horiz-adv-x="1124" 
d="M582.5 123q166.5 0 296.5 96v600q-104 94 -279.5 94t-293.5 -110.5t-118 -291.5t114 -284.5t280.5 -103.5zM608 985q209 0 346 -125v-850q0 -180 -113.5 -290.5t-279.5 -110.5t-260 44t-162 122q10 39 51 51q59 -68 138.5 -108t224.5 -40t235.5 91.5t90.5 240.5v131
q-135 -90 -281 -90q-215 0 -352 123t-137 340t145 344t354 127zM583.5 1178q-28.5 0 -49 20.5t-20.5 49t20.5 50t49 21.5t49 -21.5t20.5 -50t-20.5 -49t-49 -20.5z" />
    <glyph glyph-name="Gcommaaccent" unicode="&#x122;" horiz-adv-x="1327" 
d="M754.5 -82q23.5 0 40.5 -6q12 -55 12 -113.5t-31 -124t-80 -102.5q-23 8 -24 27q63 72 63 190q0 55 -20 121q16 8 39.5 8zM1190 627v-545q-190 -106 -456.5 -106.5t-440.5 188t-174 491.5t183 495.5t466 192.5q242 0 406 -120q-10 -43 -41 -64q-162 111 -365 111
q-254 0 -411.5 -168t-157.5 -443.5t146.5 -442.5t402.5 -167q213 0 364 74v432h-348q-6 18 -6 36t6 36h426z" />
    <glyph glyph-name="gcommaaccent" unicode="&#x123;" horiz-adv-x="1124" 
d="M582.5 123q166.5 0 296.5 96v600q-104 94 -279.5 94t-293.5 -110.5t-118 -291.5t114 -284.5t280.5 -103.5zM608 985q209 0 346 -125v-850q0 -180 -113.5 -290.5t-279.5 -110.5t-260 44t-162 122q10 39 51 51q59 -68 138.5 -108t224.5 -40t235.5 91.5t90.5 240.5v131
q-135 -90 -281 -90q-215 0 -352 123t-137 340t145 344t354 127zM582 1042q-25 0 -39 7q-30 137 18 237q31 66 80 103q23 -8 25 -27q-63 -72 -64 -191q0 -55 21 -120q-16 -9 -41 -9z" />
    <glyph glyph-name="Hbar" unicode="&#x126;" horiz-adv-x="1404" 
d="M1122 715v219h-839v-219h839zM1354 964.5q0 -14.5 -6 -30.5h-150v-934q-14 -6 -36 -6t-40 6v643h-839v-643q-18 -6 -40 -6t-36 6v934h-137l-7 31l7 30h137v320q14 6 36.5 6t39.5 -6v-320h839v320q18 6 40 6t36 -6v-320h150q6 -16 6 -30.5z" />
    <glyph glyph-name="hbar" unicode="&#x127;" horiz-adv-x="1144" 
d="M597.5 985q187.5 0 284.5 -106.5t97 -278.5v-600q-16 -6 -38.5 -6t-37.5 6v584q0 145 -77.5 236t-250 91t-321.5 -114v-797q-16 -6 -39 -6t-37 6v1149h-153q-7 35 0 63h153v134q14 6 36.5 6t39.5 -6v-134h233q13 -27 0 -63h-233v-277q156 113 343.5 113z" />
    <glyph glyph-name="Itilde" unicode="&#x128;" horiz-adv-x="489" 
d="M244.5 -6q-21.5 0 -37.5 6v1315q14 6 36.5 6t39.5 -6v-1315q-17 -6 -38.5 -6zM349 1448q-46 0 -111.5 44t-94.5 44q-63 0 -86 -84q-41 0 -57 23q16 61 54 95t83 34t113.5 -44t95.5 -44q70 0 90 86q43 0 58 -21q-18 -61 -58.5 -97t-86.5 -36z" />
    <glyph glyph-name="itilde" unicode="&#x129;" horiz-adv-x="438" 
d="M221.5 -6q-22.5 0 -41.5 6v961q18 6 41 6t37 -6v-961q-14 -6 -36.5 -6zM315 1167q-43 0 -106.5 42t-91.5 42q-59 0 -86 -86q-33 0 -58 25q45 127 142 127q39 0 103.5 -41t92.5 -41q68 0 95 86q35 0 55 -25q-46 -129 -146 -129z" />
    <glyph glyph-name="Imacron" unicode="&#x12a;" horiz-adv-x="489" 
d="M244.5 -6q-21.5 0 -37.5 6v1315q14 6 36.5 6t39.5 -6v-1315q-17 -6 -38.5 -6zM55 1512.5q0 19.5 4 35.5h371q4 -20 4 -29t-4 -34h-371q-4 8 -4 27.5z" />
    <glyph glyph-name="imacron" unicode="&#x12b;" horiz-adv-x="438" 
d="M221.5 -6q-22.5 0 -41.5 6v961q18 6 41 6t37 -6v-961q-14 -6 -36.5 -6zM37 1202q0 18 4 39h360q2 -12 2 -33t-2 -32h-360q-4 8 -4 26z" />
    <glyph glyph-name="Iogonek" unicode="&#x12e;" horiz-adv-x="489" 
d="M156 -207q0 -92 105 -92q50 0 101 39q29 -18 29 -51q-76 -55 -150.5 -55.5t-116.5 37.5t-42 106q0 109 125 223v1315q14 6 36.5 6t39.5 -6v-1315q-127 -106 -127 -207z" />
    <glyph glyph-name="iogonek" unicode="&#x12f;" horiz-adv-x="438" 
d="M135 -207q1 -86 103 -86q50 0 100 39q29 -18 29 -51q-76 -55 -151 -55t-117 36.5t-42 104.5q0 106 123 219v961q18 6 41 6t37 -6v-961q-123 -106 -123 -207zM219 1180q-29 0 -50.5 20.5t-21.5 49t21.5 49t50.5 20.5t48.5 -20.5t19.5 -49t-19.5 -49t-48.5 -20.5z" />
    <glyph glyph-name="Idotaccent" unicode="&#x130;" horiz-adv-x="489" 
d="M244.5 -6q-21.5 0 -37.5 6v1315q14 6 36.5 6t39.5 -6v-1315q-17 -6 -38.5 -6zM245.5 1473q-28.5 0 -49 20t-20.5 48t20.5 48.5t49 20.5t48 -19.5t19.5 -48.5t-19.5 -49t-48 -20z" />
    <glyph glyph-name="dotlessi" unicode="&#x131;" horiz-adv-x="438" 
d="M221.5 -6q-22.5 0 -41.5 6v961q18 6 41 6t37 -6v-961q-14 -6 -36.5 -6z" />
    <glyph glyph-name="IJ" unicode="&#x132;" horiz-adv-x="1007" 
d="M498 -33q-137 0 -222 90q12 35 50 56q88 -74 184 -74t162 62t65 200v1014q15 6 37 6t41 -6v-1010q0 -170 -90 -254t-227 -84zM226 270q-22 0 -36 6v1043q20 4 36 4t42 -4v-1043q-20 -6 -42 -6z" />
    <glyph glyph-name="ij" unicode="&#x133;" horiz-adv-x="897" 
d="M429.5 -399q-118.5 0 -206.5 82q6 37 41 57q86 -68 171 -68t144.5 61.5t59.5 192.5v1028q44 15 78 0v-1024q0 -162 -84.5 -245.5t-203 -83.5zM221.5 -6q-22.5 0 -41.5 6v961q18 6 41 6t37 -6v-961q-14 -6 -36.5 -6zM678 1174q-29 0 -49.5 20t-20.5 49t20.5 49.5
t49.5 20.5t49.5 -20.5t20.5 -49.5t-20.5 -49t-49.5 -20zM219 1180q-29 0 -49 20.5t-20 49t20 50t49 21.5t49.5 -21.5t20.5 -50t-20.5 -49t-49.5 -20.5z" />
    <glyph glyph-name="Kcommaaccent" unicode="&#x136;" horiz-adv-x="1161" 
d="M643 -82q25 0 39 -6q12 -55 12 -113.5t-30.5 -124t-79.5 -102.5q-23 8 -25 27q63 72 64 190q0 55 -21 121q16 8 41 8zM1075.5 -4q-32.5 0 -39.5 2l-561 664q-115 -76 -192 -119v-543q-16 -6 -39 -6t-37 6v1315q14 6 36.5 6t39.5 -6v-690q233 133 396 289.5t329 402.5
q12 2 40 2t44 -4q-238 -377 -555 -610l596 -701q-25 -8 -57.5 -8z" />
    <glyph glyph-name="kcommaaccent" unicode="&#x137;" horiz-adv-x="954" 
d="M496.5 -82q23.5 0 40.5 -6q12 -55 12 -113.5t-31 -124t-80 -102.5q-23 8 -24 27q63 72 63 190q0 55 -20 121q16 8 39.5 8zM884.5 -4q-28.5 0 -42.5 2l-445 469q-90 -53 -143 -76v-391q-16 -6 -38.5 -6t-37.5 6v1346q14 6 37 6t39 -6v-877q154 72 305.5 208t224.5 279
q6 2 35 2t45 -4q-124 -249 -405 -444l477 -508q-23 -6 -51.5 -6z" />
    <glyph glyph-name="kgreenlandic" unicode="&#x138;" horiz-adv-x="956" 
d="M886 -4q-32 0 -46 2l-459 463q-51 -31 -131 -70v-391q-16 -6 -36 -6t-40 6v954q42 14 76 0v-481q154 70 308 207t226 276q4 2 34 2t46 -4q-127 -247 -418 -450l494 -502q-22 -6 -54 -6z" />
    <glyph glyph-name="Lacute" unicode="&#x139;" horiz-adv-x="966" 
d="M936 33.5q0 -16.5 -6 -35.5h-723v1317q18 6 37.5 6t38.5 -6v-1247h647q6 -18 6 -34.5zM475 1653q37 -25 39 -72l-358 -180q-18 18 -19 39z" />
    <glyph glyph-name="lacute" unicode="&#x13a;" horiz-adv-x="438" 
d="M221.5 -6q-22.5 0 -41.5 6v1348q18 6 41 6t37 -6v-1348q-14 -6 -36.5 -6zM72 1401q-18 18 -19 39l338 213q37 -25 39 -72z" />
    <glyph glyph-name="Lcommaaccent" unicode="&#x13b;" horiz-adv-x="966" 
d="M594 -82q25 0 39 -6q12 -55 12 -113.5t-30.5 -124t-79.5 -102.5q-23 8 -25 27q63 72 63 190q0 55 -20 121q16 8 41 8zM936 33.5q0 -16.5 -6 -35.5h-723v1317q18 6 37.5 6t38.5 -6v-1247h647q6 -18 6 -34.5z" />
    <glyph glyph-name="lcommaaccent" unicode="&#x13c;" horiz-adv-x="438" 
d="M221 -82q25 0 39 -6q12 -55 12 -113.5t-30.5 -124t-79.5 -102.5q-23 8 -25 27q63 72 64 190q0 55 -21 121q16 8 41 8zM221.5 -6q-22.5 0 -41.5 6v1348q18 6 41 6t37 -6v-1348q-14 -6 -36.5 -6z" />
    <glyph glyph-name="Lcaron" unicode="&#x13d;" horiz-adv-x="966" 
d="M936 33.5q0 -16.5 -6 -35.5h-723v1317q18 6 37.5 6t38.5 -6v-1247h647q6 -18 6 -34.5zM692 1285.5q0 103.5 -20 156.5q16 10 41 10t39 -8q10 -35 10 -105.5t-23.5 -142.5t-56.5 -109q-25 4 -35 23q45 72 45 175.5z" />
    <glyph glyph-name="lcaron" unicode="&#x13e;" horiz-adv-x="442" 
d="M221.5 -6q-22.5 0 -41.5 6v1348q18 6 41 6t37 -6v-1348q-14 -6 -36.5 -6zM442 1285.5q0 103.5 -20 156.5q16 10 41 10t39 -8q10 -35 10 -105.5t-23.5 -142.5t-56.5 -109q-25 4 -35 23q45 72 45 175.5z" />
    <glyph glyph-name="Ldot" unicode="&#x13f;" horiz-adv-x="968" 
d="M725 629q-31 0 -53.5 21.5t-22.5 52t22.5 52t52.5 21.5t52.5 -21.5t22.5 -52t-21.5 -52t-52.5 -21.5zM936 33.5q0 -16.5 -6 -35.5h-723v1317q18 6 37.5 6t38.5 -6v-1247h647q6 -18 6 -34.5z" />
    <glyph glyph-name="ldot" unicode="&#x140;" horiz-adv-x="503" 
d="M469 596q-31 0 -52.5 20.5t-21.5 52.5t21.5 53t52.5 21t53.5 -21.5t22.5 -52t-22.5 -52t-53.5 -21.5zM221.5 -6q-22.5 0 -41.5 6v1348q18 6 41 6t37 -6v-1348q-14 -6 -36.5 -6z" />
    <glyph glyph-name="Lslash" unicode="&#x141;" horiz-adv-x="966" 
d="M936 33.5q0 -16.5 -6 -35.5h-723v606l-137 -69q-25 18 -29 57l166 84v639q18 6 37.5 6t38.5 -6v-600l211 108q27 -18 30 -57l-241 -123v-575h647q6 -18 6 -34.5z" />
    <glyph glyph-name="lslash" unicode="&#x142;" horiz-adv-x="438" 
d="M221.5 -6q-22.5 0 -41.5 6v608l-135 -69q-27 16 -29 53l164 84v672q18 6 41 6t37 -6v-631l135 69q25 -22 29 -53l-164 -84v-649q-14 -6 -36.5 -6z" />
    <glyph glyph-name="Nacute" unicode="&#x143;" horiz-adv-x="1392" 
d="M1151.5 1323q20.5 0 34.5 -6v-1311q-31 -10 -68 -10l-813 1151l-26 45l2 -53v-1139q-14 -6 -37 -6t-37 6v1309q37 18 69 10l818 -1159l20 -35l-2 47v1145q19 6 39.5 6zM909 1581l-358 -180q-18 18 -19 39l338 213q37 -25 39 -72z" />
    <glyph glyph-name="nacute" unicode="&#x144;" horiz-adv-x="1136" 
d="M564 985q215 0 312 -104.5t97 -278.5v-602q-14 -6 -36.5 -6t-41.5 6v586q0 328 -330 327q-176 0 -319 -94v-819q-16 -6 -39 -6t-37 6v854q179 131 394 131zM424 1085q-20 16 -27 37l297 264q33 -16 51 -63z" />
    <glyph glyph-name="Ncommaaccent" unicode="&#x145;" horiz-adv-x="1392" 
d="M705 -82q25 0 38 -6q30 -138 -18 -238q-31 -66 -80 -102q-23 8 -24 27q63 72 63 190q0 55 -20 121q16 8 41 8zM1151.5 1323q20.5 0 34.5 -6v-1311q-31 -10 -68 -10l-813 1151l-26 45l2 -53v-1139q-14 -6 -37 -6t-37 6v1309q37 18 69 10l818 -1159l20 -35l-2 47v1145
q19 6 39.5 6z" />
    <glyph glyph-name="ncommaaccent" unicode="&#x146;" horiz-adv-x="1136" 
d="M565 -82q25 0 39 -6q12 -55 12 -113.5t-30.5 -124t-79.5 -102.5q-23 8 -25 27q63 72 64 190q0 55 -21 121q16 8 41 8zM564 985q215 0 312 -104.5t97 -278.5v-602q-14 -6 -36.5 -6t-41.5 6v586q0 328 -330 327q-176 0 -319 -94v-819q-16 -6 -39 -6t-37 6v854
q179 131 394 131z" />
    <glyph glyph-name="Ncaron" unicode="&#x147;" horiz-adv-x="1392" 
d="M1151.5 1323q20.5 0 34.5 -6v-1311q-31 -10 -68 -10l-813 1151l-26 45l2 -53v-1139q-14 -6 -37 -6t-37 6v1309q37 18 69 10l818 -1159l20 -35l-2 47v1145q19 6 39.5 6zM731 1393q-31 -8 -61 0l-230 211q6 29 31 45l234 -193l227 193q25 -14 31 -43z" />
    <glyph glyph-name="ncaron" unicode="&#x148;" horiz-adv-x="1136" 
d="M564 985q215 0 312 -104.5t97 -278.5v-602q-14 -6 -36.5 -6t-41.5 6v586q0 328 -330 327q-176 0 -319 -94v-819q-16 -6 -39 -6t-37 6v854q179 131 394 131zM590 1096q-31 -6 -60 0l-229 250q10 33 41 43l219 -224l221 219q29 -12 41 -43z" />
    <glyph glyph-name="napostrophe" unicode="&#x149;" horiz-adv-x="1136" 
d="M564 985q215 0 312 -104.5t97 -278.5v-602q-14 -6 -36.5 -6t-41.5 6v586q0 328 -330 327q-176 0 -319 -94v-819q-16 -6 -39 -6t-37 6v854q179 131 394 131zM227 1254.5q0 -78.5 -35.5 -152.5t-80.5 -117q-23 4 -27 25q68 74 68 217q0 78 -23 137q18 8 45 8t39 -6
q14 -33 14 -111.5z" />
    <glyph glyph-name="Eng" unicode="&#x14a;" horiz-adv-x="1392" 
d="M1151.5 1323q20.5 0 34.5 -6v-1380q0 -170 -90 -254t-219 -84q-80 0 -141.5 29.5t-86.5 60.5q12 39 47 51q90 -72 186.5 -72t163 62.5t66.5 201.5v72l-807 1143l-26 45l2 -53v-1139q-14 -6 -37 -6t-37 6v1309q37 18 69 10l818 -1159l20 -33v6l-2 39v1145q19 6 39.5 6z
" />
    <glyph glyph-name="eng" unicode="&#x14b;" horiz-adv-x="1136" 
d="M578 985q200 0 296 -104t97 -279v-672q0 -162 -84 -246t-200 -83q-116 0 -210 82q12 39 43 57q47 -37 82 -53q34 -17 104 -17t130 62t59 194v660q0 150 -79 238t-251 87q-172 0 -319 -96v-815q-16 -6 -39 -6t-37 6v850q164 135 408 135z" />
    <glyph glyph-name="Omacron" unicode="&#x14c;" horiz-adv-x="1484" 
d="M741.5 49q249.5 0 397 170t147.5 442t-146.5 441.5t-397.5 169.5t-397 -169t-146 -441.5t146.5 -442.5t396 -170zM741.5 -23q-280.5 0 -451.5 192.5t-171 488.5t172 490.5t452.5 194.5t451.5 -191t171 -488.5t-172 -492t-452.5 -194.5zM477 1511.5q0 20.5 4 36.5h520
q12 -32 0 -63h-520q-4 6 -4 26.5z" />
    <glyph glyph-name="omacron" unicode="&#x14d;" horiz-adv-x="1173" 
d="M586 51q180 0 290.5 122t110.5 307t-110.5 309t-289.5 124t-290 -124.5t-111 -309t110 -306.5t290 -122zM583 -20q-206 0 -340 140t-134 359t137 363.5t344 144.5t341 -143.5t134 -360.5t-138 -360t-344 -143zM324 1203q0 21 6 36h514q6 -12 6 -33t-6 -32h-514
q-6 8 -6 29z" />
    <glyph glyph-name="Ohungarumlaut" unicode="&#x150;" horiz-adv-x="1484" 
d="M741.5 49q249.5 0 397 170t147.5 442t-146.5 441.5t-397.5 169.5t-397 -169t-146 -441t146.5 -442.5t396 -170.5zM741.5 -23q-280.5 0 -451.5 192.5t-171 488.5t172 490q173 194 453 194.5t451 -190.5q171 -190 171 -488t-172 -492.5t-452.5 -194.5zM827 1372
q-23 12 -30 31l219 283q41 -8 59 -54zM510 1372q-27 14 -31 31l219 283q41 -8 60 -54z" />
    <glyph glyph-name="ohungarumlaut" unicode="&#x151;" horiz-adv-x="1173" 
d="M586 51q180 0 290.5 122t110.5 307t-110.5 309t-289.5 124t-290 -124.5t-111 -309t110 -306.5t290 -122zM583 -20q-206 0 -340 140t-134 359t137 363.5t344 144.5t341 -143.5t134 -360.5t-138 -360t-344 -143zM680 1065q-27 8 -37 25l197 317q39 -8 65 -45zM379 1065
q-27 8 -35 25l195 317q39 -8 67 -45z" />
    <glyph glyph-name="OE" unicode="&#x152;" horiz-adv-x="1810" 
d="M201 658q0 -265 146.5 -432t404.5 -167q133 0 209 17v1161q-92 18 -205 18q-256 0 -405.5 -166t-149.5 -431zM1718 36q0 -17 -6 -36h-749q-98 -16 -211 -16q-289 0 -461 188t-172 482t175 484.5t462 190.5q121 0 209 -14h721l6 -37q0 -4 -6 -35h-648v-522h582
q6 -18 6 -36.5t-6 -37.5h-582v-575h674q6 -19 6 -36z" />
    <glyph glyph-name="oe" unicode="&#x153;" horiz-adv-x="1878" 
d="M1371 913q-140 0 -233.5 -105.5t-107.5 -264.5h668q0 180 -93.5 275t-233.5 95zM571 51q172 0 275.5 122t103.5 307t-103.5 309t-274.5 124t-278.5 -124.5t-107.5 -309t106.5 -306.5t278.5 -122zM1778 479h-750v-4q0 -201 98.5 -314.5t273.5 -113.5t300 111
q31 -16 41 -58q-154 -125 -324 -125q-333 0 -434 283q-55 -127 -163.5 -202.5t-244.5 -75.5q-203 0 -334.5 140t-131.5 358t134 362.5t332 144.5q141 0 251 -78t163 -211q49 135 154.5 211t232.5 76q176 0 288 -120t114 -345v-39z" />
    <glyph glyph-name="Racute" unicode="&#x154;" horiz-adv-x="1150" 
d="M575.5 1266q-165.5 0 -292.5 -27v-610q96 -14 276.5 -14.5t279.5 92t103 249.5q-4 141 -102.5 225.5t-264 84.5zM1004.5 -4q-27.5 0 -33.5 2l-357 551q-45 -4 -144 -4t-187 10v-555q-18 -6 -39 -6t-39 6v1294q160 43 365.5 43t325.5 -101t124 -278q-2 -154 -87 -257
t-235 -138l359 -559q-25 -8 -52.5 -8zM764 1581l-358 -180q-18 18 -19 39l338 213q37 -25 39 -72z" />
    <glyph glyph-name="racute" unicode="&#x155;" horiz-adv-x="755" 
d="M535 985q113 0 196 -27q0 -45 -22 -69q-80 25 -185 24q-166 0 -278 -79v-834q-16 -6 -39 -6t-37 6v868q144 117 365 117zM324 1085q-20 16 -27 37l297 264q33 -16 51 -63z" />
    <glyph glyph-name="Rcommaaccent" unicode="&#x156;" horiz-adv-x="1150" 
d="M586.5 -82q23.5 0 40.5 -6q12 -55 12 -113.5t-30.5 -124t-80.5 -102.5q-23 8 -24 27q63 72 63 190q0 55 -20 121q16 8 39.5 8zM575.5 1266q-165.5 0 -292.5 -27v-610q96 -14 276.5 -14.5t279.5 92t103 249.5q-4 141 -102.5 225.5t-264 84.5zM1004.5 -4q-27.5 0 -33.5 2
l-357 551q-45 -4 -144 -4t-187 10v-555q-18 -6 -39 -6t-39 6v1294q160 43 365.5 43t325.5 -101t124 -278q-2 -154 -87 -257t-235 -138l359 -559q-25 -8 -52.5 -8z" />
    <glyph glyph-name="rcommaaccent" unicode="&#x157;" horiz-adv-x="755" 
d="M217.5 -82q23.5 0 40.5 -6q12 -55 12 -113.5t-30.5 -124t-79.5 -102.5q-23 8 -25 27q63 72 64 190q0 55 -21 121q16 8 39.5 8zM535 985q113 0 196 -27q0 -45 -22 -69q-80 25 -185 24q-166 0 -278 -79v-834q-16 -6 -39 -6t-37 6v868q144 117 365 117z" />
    <glyph glyph-name="Rcaron" unicode="&#x158;" horiz-adv-x="1150" 
d="M575.5 1266q-165.5 0 -292.5 -27v-610q96 -14 276.5 -14.5t279.5 92t103 249.5q-4 141 -102.5 225.5t-264 84.5zM1004.5 -4q-27.5 0 -33.5 2l-357 551q-45 -4 -144 -4t-187 10v-555q-18 -6 -39 -6t-39 6v1294q160 43 365.5 43t325.5 -101t124 -278q-2 -154 -87 -257
t-235 -138l359 -559q-25 -8 -52.5 -8zM586 1393q-31 -8 -62 0l-229 211q6 29 31 45l233 -193l227 193q25 -14 31 -43z" />
    <glyph glyph-name="rcaron" unicode="&#x159;" horiz-adv-x="755" 
d="M535 985q113 0 196 -27q0 -45 -22 -69q-80 25 -185 24q-166 0 -278 -79v-834q-16 -6 -39 -6t-37 6v868q144 117 365 117zM489 1096q-31 -6 -59 0l-229 250q10 33 41 43l219 -224l221 219q29 -12 41 -43z" />
    <glyph glyph-name="Sacute" unicode="&#x15a;" horiz-adv-x="1067" 
d="M526 -29q-274 0 -434 164q10 37 49 55q139 -145 385 -145q170 0 263.5 81t93.5 211t-82 198.5t-262 113.5q-181 45 -279 109q-124 78 -123.5 236.5t109 251.5t291.5 93q250 0 395 -131q-6 -41 -45 -59q-147 119 -350 119q-150 0 -237 -71t-87 -188.5t84 -178
t270.5 -106.5t288.5 -134t102 -252t-115.5 -265.5t-316.5 -101.5zM387 1401q-18 18 -18 39l338 213q37 -25 38 -72z" />
    <glyph glyph-name="sacute" unicode="&#x15b;" horiz-adv-x="907" 
d="M419.5 -18q-192.5 0 -327.5 114q12 41 45 58q121 -102 284.5 -102.5t237.5 56t74 147.5t-61.5 136t-225.5 75t-244.5 86t-80.5 173t95 188.5t269.5 71.5t294.5 -80q-6 -37 -32 -61q-125 72 -267.5 71.5t-213 -49.5t-70.5 -134t61 -125t221 -70.5t245 -89t85 -186.5
t-98.5 -203.5t-291 -75.5zM326 1085q-20 16 -27 37l297 264q33 -16 51 -63z" />
    <glyph glyph-name="Scedilla" unicode="&#x15e;" horiz-adv-x="1067" 
d="M958 342q0 -160 -106.5 -260t-290.5 -111l-20 -51q170 -29 170 -145q0 -82 -64.5 -122t-150.5 -40t-119 16q0 35 20 56q39 -14 99.5 -14.5t101.5 25t41 75t-42 72t-136 30.5l39 98q-256 8 -408 164q10 37 49 55q139 -145 385 -145q170 0 263.5 81t93.5 211t-82 198.5
t-262 113.5q-181 45 -279 109q-124 78 -123.5 236.5t109 251.5t291.5 93q250 0 395 -131q-6 -41 -45 -59q-147 119 -350 119q-150 0 -237 -71t-87 -188.5t84 -178t270.5 -106.5t288.5 -134t102 -248z" />
    <glyph glyph-name="scedilla" unicode="&#x15f;" horiz-adv-x="907" 
d="M809 265q0 -124 -86 -198.5t-240 -82.5l-24 -64q170 -29 170 -145q0 -82 -64.5 -122t-150.5 -40t-119 16q0 35 20 56q39 -14 99.5 -14.5t101.5 25t41 75t-42 72t-136 30.5l43 109q-199 6 -330 114q12 41 45 58q121 -102 284.5 -102.5t237.5 56t74 147.5t-61.5 136
t-225.5 75t-244.5 86t-80.5 173t95 188.5t269.5 71.5t294.5 -80q-6 -37 -32 -61q-125 72 -267.5 71.5t-213 -49.5t-70.5 -134t61 -125t221 -70.5t245 -89t85 -182.5z" />
    <glyph glyph-name="Scaron" unicode="&#x160;" horiz-adv-x="1067" 
d="M526 -29q-274 0 -434 164q10 37 49 55q139 -145 385 -145q170 0 263.5 81t93.5 211t-82 198.5t-262 113.5q-181 45 -279 109q-124 78 -123.5 236.5t109 251.5t291.5 93q250 0 395 -131q-6 -41 -45 -59q-147 119 -350 119q-150 0 -237 -71t-87 -188.5t84 -178
t270.5 -106.5t288.5 -134t102 -252t-115.5 -265.5t-316.5 -101.5zM508 1393l-229 211q6 29 30 45l234 -193l227 193q25 -14 31 -43l-232 -213q-30 -8 -61 0z" />
    <glyph glyph-name="scaron" unicode="&#x161;" horiz-adv-x="907" 
d="M419.5 -18q-192.5 0 -327.5 114q12 41 45 58q121 -102 284.5 -102.5t237.5 56t74 147.5t-61.5 136t-225.5 75t-244.5 86t-80.5 173t95 188.5t269.5 71.5t294.5 -80q-6 -37 -32 -61q-125 72 -267.5 71.5t-213 -49.5t-70.5 -134t61 -125t221 -70.5t245 -89t85 -186.5
t-98.5 -203.5t-291 -75.5zM432 1096l-229 250q10 33 41 43l219 -224l221 219q29 -12 41 -43l-233 -245q-31 -6 -60 0z" />
    <glyph glyph-name="uni0162" unicode="&#x162;" horiz-adv-x="1095" 
d="M713 -225q0 -82 -64.5 -122t-150.5 -40t-119 16q0 35 20 56q39 -14 99.5 -14.5t101.5 25t41 75t-42 72t-136 30.5l49 125q-2 2 -4 2v1245h-469q-6 18 -6 34.5t6 35.5h1016q6 -18 6 -34.5t-6 -35.5h-471v-1245q-4 -2 -11 -2l-30 -78q170 -29 170 -145z" />
    <glyph glyph-name="uni0163" unicode="&#x163;" horiz-adv-x="745" 
d="M641 -225q0 -82 -64.5 -122t-150.5 -40t-119 16q0 35 21 56q39 -14 99 -14.5t101 25t41 75t-42 72t-136 30.5l45 113q-96 16 -157.5 88.5t-61.5 204.5v614h-166q-6 18 -6 33.5t6 29.5h166v263q18 6 40 6t36 -6v-263h387q6 -10 6 -30.5t-6 -32.5h-387v-588
q0 -137 60.5 -196.5t154.5 -59.5t194 68q29 -23 33 -58q-109 -80 -237 -79h-2l-25 -60q170 -29 170 -145z" />
    <glyph glyph-name="Tcaron" unicode="&#x164;" horiz-adv-x="1095" 
d="M1061 1280q0 -16 -6 -35h-471v-1245q-18 -6 -38 -6t-38 6v1245h-469q-6 18 -6 34.5t6 35.5h1016q6 -19 6 -35zM578 1393q-31 -8 -62 0l-229 211q6 29 30 45l234 -193l227 193q25 -14 31 -43z" />
    <glyph glyph-name="tcaron" unicode="&#x165;" horiz-adv-x="745" 
d="M217 279v614h-166q-6 18 -6 33.5t6 29.5h166v263q18 6 40 6t36 -6v-263h387q6 -10 6 -30.5t-6 -32.5h-387v-588q0 -137 60.5 -196.5t154.5 -59.5t194 68q29 -23 33 -58q-109 -80 -232.5 -79.5t-204.5 74t-81 225.5zM545 1285.5q0 103.5 -21 156.5q16 10 41 10t39 -8
q10 -35 10 -105.5t-23 -142.5t-56 -109q-25 4 -35 23q45 72 45 175.5z" />
    <glyph glyph-name="Tbar" unicode="&#x166;" horiz-adv-x="1095" 
d="M584 1245v-555h200q12 -33 0 -65h-200v-625q-18 -6 -37.5 -6t-38.5 6v625h-205q-4 20 -4 32.5t4 32.5h205v555h-469q-6 18 -6 34.5t6 35.5h1016q6 -18 6 -35t-6 -35h-471z" />
    <glyph glyph-name="tbar" unicode="&#x167;" horiz-adv-x="745" 
d="M217 279v249h-143q-6 14 -6 31.5t6 32.5h143v301h-166q-6 18 -6 33.5t6 29.5h166v263q18 6 40 6t36 -6v-263h387q6 -10 6 -30.5t-6 -32.5h-387v-301h248q4 -8 4 -29.5t-4 -34.5h-248v-223q0 -137 60.5 -196.5t154.5 -59.5t194 68q29 -23 33 -58q-109 -80 -232.5 -79.5
t-204.5 74t-81 225.5z" />
    <glyph glyph-name="Utilde" unicode="&#x168;" horiz-adv-x="1372" 
d="M693 -25q-224 0 -363.5 146.5t-139.5 390.5v803q16 6 37.5 6t40.5 -6v-803q0 -207 115 -334t310 -127t304 127t109 334v803q18 6 40 6t36 -6v-803q0 -238 -132.5 -387.5t-356.5 -149.5zM829 1511q106 0 138 95q39 0 59 -21q-47 -139 -192 -139q-55 0 -144.5 46t-126.5 46
q-104 0 -135 -94q-39 0 -61 22q47 137 194 138q51 0 140.5 -46.5t127.5 -46.5z" />
    <glyph glyph-name="utilde" unicode="&#x169;" horiz-adv-x="1124" 
d="M915.5 958q20.5 0 38.5 -6v-893q-188 -84 -394 -84t-300 99.5t-94 275.5v602q14 6 36 6t40 -6v-569q0 -160 73.5 -247t244.5 -87t317 60v843q18 6 38.5 6zM434 1251q-92 0 -123 -92q-37 0 -61 21q49 139 180 139q55 -2 144.5 -46t130.5 -44q88 0 120 90q37 0 58 -21
q-20 -63 -66.5 -100t-105.5 -37t-147.5 45t-129.5 45z" />
    <glyph glyph-name="Umacron" unicode="&#x16a;" horiz-adv-x="1372" 
d="M693 -25q-224 0 -363.5 146.5t-139.5 390.5v803q16 6 37.5 6t40.5 -6v-803q0 -207 115 -334t310 -127t304 127t109 334v803q18 6 40 6t36 -6v-803q0 -238 -132.5 -387.5t-356.5 -149.5zM432 1511.5q0 20.5 4 36.5h520q12 -32 0 -63h-520q-4 6 -4 26.5z" />
    <glyph glyph-name="umacron" unicode="&#x16b;" horiz-adv-x="1124" 
d="M915.5 958q20.5 0 38.5 -6v-893q-188 -84 -394 -84t-300 99.5t-94 275.5v602q14 6 36.5 6t39.5 -6v-569q0 -160 73.5 -247t244.5 -87t317 60v843q18 6 38.5 6zM303 1203q0 21 6 36h514q6 -12 6 -32.5t-6 -32.5h-514q-6 8 -6 29z" />
    <glyph glyph-name="Uring" unicode="&#x16e;" horiz-adv-x="1372" 
d="M693 -25q-224 0 -363.5 146.5t-139.5 390.5v803q16 6 37.5 6t40.5 -6v-803q0 -207 115 -334t310 -127t304 127t109 334v803q18 6 40 6t36 -6v-803q0 -238 -132.5 -387.5t-356.5 -149.5zM699 1399q52 0 85 35.5t33 87t-32.5 87.5t-85 36t-87 -37t-34.5 -86t34.5 -86
t86.5 -37zM697 1339q-75 0 -128 53.5t-53 129t53.5 128t128 52.5t128 -52.5t53.5 -128t-53.5 -129t-128.5 -53.5z" />
    <glyph glyph-name="uring" unicode="&#x16f;" horiz-adv-x="1124" 
d="M915.5 958q20.5 0 38.5 -6v-893q-188 -84 -394 -84t-300 99.5t-94 275.5v602q14 6 36.5 6t39.5 -6v-569q0 -160 73.5 -247t244.5 -87t317 60v843q18 6 38.5 6zM568 1360q-52 0 -87 -37t-35 -87t35 -87t87 -37t85 36t33 87t-33 88t-85 37zM566 1053q-75 0 -128 53t-53 129
t53.5 129t128 53t128 -53t53.5 -129t-53.5 -129t-128.5 -53z" />
    <glyph glyph-name="Uhungarumlaut" unicode="&#x170;" horiz-adv-x="1372" 
d="M693 -25q-224 0 -363.5 146.5t-139.5 390.5v803q16 6 37.5 6t40.5 -6v-803q0 -207 115 -334t310 -127t304 127t109 334v803q18 6 40 6t36 -6v-803q0 -238 -132.5 -387.5t-356.5 -149.5zM782 1372q-23 12 -30 31l219 283q41 -8 59 -54zM465 1372q-27 14 -31 31l219 283
q41 -8 60 -54z" />
    <glyph glyph-name="uhungarumlaut" unicode="&#x171;" horiz-adv-x="1124" 
d="M915.5 958q20.5 0 38.5 -6v-893q-188 -84 -394 -84t-300 99.5t-94 275.5v602q14 6 36 6t40 -6v-569q0 -160 73.5 -247t244.5 -87t317 60v843q18 6 38.5 6zM659 1065q-27 8 -36 25l196 317q39 -8 66 -45zM358 1065q-27 8 -34 25l194 317q39 -8 68 -45z" />
    <glyph glyph-name="Uogonek" unicode="&#x172;" horiz-adv-x="1372" 
d="M778 -209q0 -90 104 -90q48 0 97 39q29 -25 29 -53q-68 -53 -144 -53.5t-117.5 37.5t-41.5 106q0 102 108 211q-51 -12 -115 -13q-229 0 -368.5 146.5t-139.5 390.5v803q16 6 37.5 6t40.5 -6v-803q0 -207 115 -334t310 -127t304 127t109 334v803q19 6 40.5 6t35.5 -6
v-803q0 -164 -65.5 -290t-184.5 -191q-154 -125 -154 -240z" />
    <glyph glyph-name="uogonek" unicode="&#x173;" horiz-adv-x="1124" 
d="M756 -202q0 -100 104 -99q49 0 96 39q29 -25 29 -53q-68 -53 -143.5 -53.5t-117.5 37.5t-42 106q0 111 135 235q-125 -35 -266 -35q-197 0 -291 99.5t-94 275.5v602q14 6 36.5 6t39.5 -6v-569q0 -160 73.5 -247t244.5 -87t317 60v843q18 6 38.5 6t38.5 -6v-893l-12 -6
q-82 -57 -134 -129t-52 -126z" />
    <glyph glyph-name="Wcircumflex" unicode="&#x174;" horiz-adv-x="1853" 
d="M1747 1321q27 0 39 -6q-172 -756 -420 -1317q-18 -6 -43 -6t-43 6l-322 1024l-18 74l-22 -74l-345 -1024q-18 -6 -42 -6t-48 6q-225 514 -413 1317q16 8 43 8t39 -4q152 -694 376 -1245l371 1124q25 4 45.5 4t32.5 -4l338 -1061l16 -63q233 575 379 1245q10 2 37 2z
M698 1386q-25 12 -30 41l231 215q31 6 62 0l229 -212q-6 -29 -31 -44l-233 191z" />
    <glyph glyph-name="wcircumflex" unicode="&#x175;" horiz-adv-x="1452" 
d="M1337.5 956q21.5 0 46.5 -6q-41 -219 -151.5 -500.5t-208.5 -451.5q-16 -6 -38.5 -6t-39.5 6q-104 186 -215 502q-29 -98 -92.5 -247t-120.5 -255q-12 -6 -40 -6t-40 6q-106 166 -219 444.5t-162 507.5q18 6 40.5 6t35.5 -4q47 -209 153.5 -473t182.5 -395q2 -4 5 -12.5
t5 -12.5q2 4 5 12.5t5 12.5q109 215 209 510q-66 205 -96 356q25 6 45.5 6t32.5 -4q41 -215 135 -477t164 -391q8 -16 10 -23q2 2 5 11.5t7 15.5q78 141 174.5 396t133.5 468q7 4 28.5 4zM487 1092q-27 12 -38 43l231 245q31 6 59 0l232 -250q-14 -33 -43 -43l-221 224z" />
    <glyph glyph-name="Ycircumflex" unicode="&#x176;" horiz-adv-x="1146" 
d="M575.5 -6q-20.5 0 -38.5 6v553l-500 762q33 8 55 8t29 -2l444 -670l17 -30l14 30l420 670q10 2 32.5 2t51.5 -8l-486 -764v-551q-18 -6 -38.5 -6zM344 1386q-25 12 -31 41l232 215q31 6 61 0l230 -212q-6 -29 -31 -44l-234 191z" />
    <glyph glyph-name="ycircumflex" unicode="&#x177;" horiz-adv-x="993" 
d="M893 956q25 0 41 -8q-72 -356 -256 -714.5t-451 -643.5q-39 8 -55 48q164 170 293 378q-119 184 -235.5 446.5t-166.5 487.5q12 6 39 6t43 -4q43 -201 144.5 -435t210.5 -415q4 -8 12 -20l12 20q262 461 332 850q12 4 37 4zM279 1092q-27 12 -39 43l231 245q31 6 59 0
l232 -250q-14 -33 -43 -43l-221 224z" />
    <glyph glyph-name="Ydieresis" unicode="&#x178;" horiz-adv-x="1146" 
d="M575.5 -6q-20.5 0 -38.5 6v553l-500 762q33 8 55 8t29 -2l444 -670l17 -30l14 30l420 670q10 2 32.5 2t51.5 -8l-486 -764v-551q-18 -6 -38.5 -6zM782.5 1470q-28.5 0 -48 19.5t-19.5 47.5t20.5 47.5t47 19.5t46 -19.5t19.5 -47.5t-18.5 -47.5t-47 -19.5zM368.5 1470
q-28.5 0 -48 19.5t-19.5 47.5t20.5 47.5t47 19.5t46 -19.5t19.5 -47.5t-18.5 -47.5t-47 -19.5z" />
    <glyph glyph-name="Zacute" unicode="&#x179;" horiz-adv-x="1132" 
d="M1065 33q0 -14 -6 -33h-973q-10 16 -10 45t20 53l860 1147h-868q-6 20 -6 35.5t6 34.5h948q6 -18 6 -48t-20 -57l-829 -1104l-31 -36h897q6 -23 6 -37zM766 1581l-358 -180q-18 18 -19 39l338 213q37 -25 39 -72z" />
    <glyph glyph-name="zacute" unicode="&#x17a;" horiz-adv-x="942" 
d="M868 33q0 -21 -6 -33h-780q-4 10 -4 40t37 77l626 747l23 25h-668q-6 12 -6 30.5t6 34.5h752q4 -16 4 -22q0 -45 -39 -90l-580 -699l-69 -77h698q6 -12 6 -33zM324 1085q-20 16 -27 37l297 264q33 -16 51 -63z" />
    <glyph glyph-name="Zdotaccent" unicode="&#x17b;" horiz-adv-x="1132" 
d="M1065 33q0 -14 -6 -33h-973q-10 16 -10 45t20 53l860 1147h-868q-6 20 -6 35.5t6 34.5h948q6 -18 6 -48t-20 -57l-829 -1104l-31 -36h897q6 -23 6 -37zM559 1473q-29 0 -49.5 20t-20.5 48t20.5 48.5t49.5 20.5t48.5 -19.5t19.5 -48.5t-19.5 -49t-48.5 -20z" />
    <glyph glyph-name="zdotaccent" unicode="&#x17c;" horiz-adv-x="942" 
d="M868 33q0 -21 -6 -33h-780q-4 10 -4 40t37 77l626 747l23 25h-668q-6 12 -6 30.5t6 34.5h752q4 -16 4 -22q0 -45 -39 -90l-580 -699l-69 -77h698q6 -12 6 -33zM460.5 1178q-28.5 0 -49 20.5t-20.5 49t20.5 50t49 21.5t49 -21.5t20.5 -50t-20.5 -49t-49 -20.5z" />
    <glyph glyph-name="Zcaron" unicode="&#x17d;" horiz-adv-x="1132" 
d="M1065 33q0 -14 -6 -33h-973q-10 16 -10 45t20 53l860 1147h-868q-6 20 -6 35.5t6 34.5h948q6 -18 6 -48t-20 -57l-829 -1104l-31 -36h897q6 -23 6 -37zM588 1393q-31 -8 -62 0l-229 211q6 29 31 45l233 -193l227 193q25 -14 31 -43z" />
    <glyph glyph-name="zcaron" unicode="&#x17e;" horiz-adv-x="942" 
d="M868 33q0 -21 -6 -33h-780q-4 10 -4 40t37 77l626 747l23 25h-668q-6 12 -6 30.5t6 34.5h752q4 -16 4 -22q0 -45 -39 -90l-580 -699l-69 -77h698q6 -12 6 -33zM492 1096q-31 -6 -60 0l-229 250q10 33 41 43l219 -224l221 219q29 -12 41 -43z" />
    <glyph glyph-name="uni01EA" unicode="&#x1ea;" horiz-adv-x="1484" 
d="M199 661q0 -272 146.5 -442t396 -170t397 170t147.5 442t-146.5 441.5t-397.5 169.5t-397 -169.5t-146 -441.5zM862 -200q0 -98 104 -99q48 0 97 39q29 -25 29 -53q-68 -53 -144 -53.5t-118 37.5t-42 106q0 109 121 221q-88 -20 -168 -21q-281 0 -451.5 192.5
t-170.5 488.5t172 490.5t452.5 194.5t451.5 -191t171 -493q0 -201 -86 -362.5t-238 -245.5q-80 -57 -130 -127t-50 -124z" />
    <glyph glyph-name="uni01EB" unicode="&#x1eb;" horiz-adv-x="1173" 
d="M186 479q0 -184 110 -306t290 -122t290.5 122t110.5 307t-110.5 309t-289.5 124t-290 -125t-111 -309zM653 -209q0 -90 105 -90q49 0 96 39q29 -25 29 -53q-68 -53 -144 -53.5t-117.5 37.5t-41.5 106q0 102 112 215q-53 -12 -108 -12q-207 0 -341 140t-134 359t137 363.5
t344 144.5t341 -143.5t134 -362.5q0 -147 -68.5 -264t-183.5 -180q-160 -131 -160 -246z" />
    <glyph glyph-name="AEacute" unicode="&#x1fc;" horiz-adv-x="1613" 
d="M819 633v555l2 45l-358 -600h356zM1522 36.5q0 -17.5 -6 -36.5h-697v561h-399l-338 -563q-16 -4 -35 -4t-45 10l782 1311h703q6 -18 6 -35.5t-6 -36.5h-592v-610h530q13 -38 0 -72h-530v-489h621q6 -18 6 -35.5zM1151 1581l-358 -180q-18 18 -19 39l338 213
q37 -25 39 -72z" />
    <glyph glyph-name="aeacute" unicode="&#x1fd;" horiz-adv-x="1636" 
d="M754 479h-279q-156 -2 -228.5 -60.5t-73.5 -156.5t62.5 -156.5t179.5 -58.5t217 84q54 45 88 134t34 214zM1452 547q0 164 -74.5 266t-213 102t-234 -102t-99.5 -266h621zM754 633q0 280 -302 280q-146 0 -280 -102q-27 16 -39 53q135 121 338 121q131 0 222 -62.5
t118 -197.5q39 123 137.5 191.5t212.5 68.5q174 0 271.5 -123t99.5 -350q0 -23 -2 -33h-699v-12q2 -207 95.5 -312.5t249.5 -105.5q72 0 133 20.5t85.5 38t69.5 52.5q27 -14 41 -56q-49 -38 -86 -62q-97 -62 -243 -62q-330 0 -390 319q-33 -162 -141 -240.5t-247 -78.5
t-222.5 74.5t-83.5 207.5t102.5 208t280.5 75l279 2v86zM694 1085q-20 16 -26 37l297 264q33 -16 51 -63z" />
    <glyph glyph-name="Oslashacute" unicode="&#x1fe;" horiz-adv-x="1484" 
d="M1286 647q0 258 -121 424l-794 -878q147 -143 383.5 -143.5t384 169.5t147.5 428zM199 671q0 -262 127 -427l794 878q-145 150 -387 150t-388 -169.5t-146 -431.5zM754.5 -23q-267.5 0 -432.5 160l-146 -160q-39 10 -49 48l147 163q-156 184 -155.5 475t172.5 485.5
t440 194.5t438 -165l148 161q39 -12 51 -45l-151 -168q150 -184 149.5 -472t-172.5 -482.5t-439.5 -194.5zM950 1581l-358 -180q-18 18 -19 39l338 213q37 -25 39 -72z" />
    <glyph glyph-name="oslashacute" unicode="&#x1ff;" horiz-adv-x="1175" 
d="M600 51q168 0 277.5 122t109.5 302t-96 299l-565 -629q106 -94 274 -94zM186 485q0 -178 97 -297l565 631q-104 94 -272 94t-279 -125t-111 -303zM1067 480q0 -214 -138 -357t-331.5 -143t-321.5 110l-122 -137q-35 12 -43 43l120 135q-123 139 -122.5 353t138.5 358.5
t330.5 144.5t321.5 -113l121 136q35 -12 45 -41l-123 -138q125 -137 125 -351zM451 1085q-20 16 -27 37l297 264q33 -16 51 -63z" />
    <glyph glyph-name="Scommaaccent" unicode="&#x218;" horiz-adv-x="1067" 
d="M526 -211q0 55 -20 121q16 8 39.5 8t40.5 -6q12 -55 12 -113.5t-31 -124t-80 -102.5q-23 8 -24 27q63 72 63 190zM526 -29q-274 0 -434 164q10 37 49 55q139 -145 385 -145q170 0 263.5 81t93.5 211t-82 198.5t-262 113.5q-181 45 -279 109q-124 78 -123.5 236.5
t109 251.5t291.5 93q250 0 395 -131q-6 -41 -45 -59q-147 119 -350 119q-150 0 -237 -71t-87 -188.5t84 -178t270.5 -106.5t288.5 -134t102 -252t-115.5 -265.5t-316.5 -101.5z" />
    <glyph glyph-name="scommaaccent" unicode="&#x219;" horiz-adv-x="907" 
d="M446 -211q0 55 -20 121q16 8 41 8t39 -6q12 -55 12 -113.5t-30.5 -124t-79.5 -102.5q-23 8 -25 27q63 72 63 190zM419.5 -18q-192.5 0 -327.5 114q12 41 45 58q121 -102 284.5 -102.5t237.5 56t74 147.5t-61.5 136t-225.5 75t-244.5 86t-80.5 173t95 188.5t269.5 71.5
t294.5 -80q-6 -37 -32 -61q-125 72 -267.5 71.5t-213 -49.5t-70.5 -134t61 -125t221 -70.5t245 -89t85 -186.5t-98.5 -203.5t-291 -75.5z" />
    <glyph glyph-name="uni021A" unicode="&#x21a;" horiz-adv-x="1095" 
d="M549.5 -82q23.5 0 40.5 -6q12 -55 12 -113.5t-30.5 -124t-79.5 -102.5q-23 8 -25 27q63 72 63 190q0 55 -20 121q16 8 39.5 8zM1061 1280.5q0 -16.5 -6 -35.5h-471v-1245q-18 -6 -37.5 -6t-38.5 6v1245h-469q-6 18 -6 34.5t6 35.5h1016q6 -18 6 -34.5z" />
    <glyph glyph-name="uni021B" unicode="&#x21b;" horiz-adv-x="745" 
d="M479 -82q25 0 39 -6q12 -55 12 -113.5t-30.5 -124t-79.5 -102.5q-23 8 -25 27q63 72 64 190q0 55 -21 121q16 8 41 8zM217 279v614h-166q-6 18 -6 33.5t6 29.5h166v263q18 6 40 6t36 -6v-263h387q6 -10 6 -30.5t-6 -32.5h-387v-588q0 -137 60.5 -196.5t154.5 -59.5
t194 68q29 -23 33 -58q-109 -80 -232.5 -79.5t-204.5 74t-81 225.5z" />
    <glyph glyph-name="circumflex" unicode="&#x2c6;" horiz-adv-x="608" 
d="M334 1380l231 -250q-14 -33 -43 -43l-221 224l-219 -219q-27 12 -39 43l231 245q31 6 60 0z" />
    <glyph glyph-name="caron" unicode="&#x2c7;" horiz-adv-x="606" 
d="M274 1096l-229 250q10 33 41 43l219 -224l221 219q29 -12 41 -43l-233 -245q-31 -6 -60 0z" />
    <glyph glyph-name="breve" unicode="&#x2d8;" horiz-adv-x="614" 
d="M306 1104q-103 0 -176 64.5t-83 177.5q20 14 55 10q14 -92 70.5 -140.5t133.5 -48.5t137.5 49.5t68.5 139.5q35 0 53 -8q-6 -111 -81 -177.5t-178 -66.5z" />
    <glyph glyph-name="dotaccent" unicode="&#x2d9;" horiz-adv-x="290" 
d="M145.5 1178q-28.5 0 -49 20.5t-20.5 49t20.5 50t49 21.5t49 -21.5t20.5 -50t-20.5 -49t-49 -20.5z" />
    <glyph glyph-name="ring" unicode="&#x2da;" horiz-adv-x="473" 
d="M239 1112q52 0 84.5 36t32.5 87t-32.5 88t-84.5 37t-87 -37t-35 -87t35 -87t87 -37zM237 1053q-75 0 -128.5 53t-53.5 129t53.5 129t128.5 53t128 -53t53 -129t-53 -129t-128 -53z" />
    <glyph glyph-name="ogonek" unicode="&#x2db;" horiz-adv-x="452" 
d="M244 -367q-76 0 -118 38t-42 106q0 141 199 286h71q-86 -59 -141 -133t-55 -129t28 -77t76 -23q49 0 96 39q29 -25 29 -53q-67 -54 -143 -54z" />
    <glyph glyph-name="tilde" unicode="&#x2dc;" horiz-adv-x="753" 
d="M508 1229q88 0 119 90q39 0 59 -21q-45 -137 -174 -137q-57 0 -146.5 45t-129.5 45q-90 0 -121 -92q-37 0 -62 21q20 66 68.5 102.5t106.5 35.5t148.5 -45t131.5 -44z" />
    <glyph glyph-name="hungarumlaut" unicode="&#x2dd;" horiz-adv-x="651" 
d="M377 1065q-27 8 -37 25l197 317q39 -8 65 -45zM76 1065q-27 8 -35 25l195 317q39 -8 67 -45z" />
    <glyph glyph-name="gravecomb" unicode="&#x300;" 
d="M-76 1085l-321 238q18 45 51 63l297 -264q-7 -23 -27 -37z" />
    <glyph glyph-name="acutecomb" unicode="&#x301;" 
d="M-371 1085q-20 16 -26 37l297 264q33 -16 51 -63z" />
    <glyph glyph-name="uni0302" unicode="&#x302;" 
d="M-276 1380l231 -250q-14 -33 -43 -43l-221 224l-219 -219q-27 12 -39 43l231 245q31 6 60 0z" />
    <glyph glyph-name="tildecomb" unicode="&#x303;" 
d="M-231 1229q88 0 120 90q37 0 58 -21q-20 -63 -66.5 -100t-105.5 -37t-147.5 45t-129.5 45q-92 0 -123 -92q-37 0 -61 21q49 139 180 139q55 -2 144.5 -46t130.5 -44z" />
    <glyph glyph-name="uni0304" unicode="&#x304;" 
d="M-584 1203q0 21 6 36h515q6 -12 6 -33t-6 -32h-515q-6 8 -6 29z" />
    <glyph glyph-name="uni0306" unicode="&#x306;" 
d="M-306 1104q-103 0 -176 64.5t-83 177.5q20 14 55 10q14 -92 70.5 -140.5t133.5 -48.5t137 49.5t69 139.5q35 0 53 -8q-6 -111 -81 -177.5t-178 -66.5z" />
    <glyph glyph-name="uni0307" unicode="&#x307;" 
d="M-145.5 1178q-28.5 0 -49 20.5t-20.5 49t20.5 50t49 21.5t49 -21.5t20.5 -50t-20.5 -49t-49 -20.5z" />
    <glyph glyph-name="uni0308" unicode="&#x308;" 
d="M-129 1167q-29 0 -48.5 19.5t-19.5 47.5t20.5 47t47.5 19t46.5 -19t19.5 -47t-18.5 -47.5t-47.5 -19.5zM-546.5 1167q-28.5 0 -48 19.5t-19.5 47.5t20.5 47t47 19t46 -19t19.5 -47t-18.5 -47.5t-47 -19.5z" />
    <glyph glyph-name="uni030A" unicode="&#x30a;" 
d="M-235 1112q52 0 85 36t33 87t-32.5 88t-85 37t-87 -37t-34.5 -87t34.5 -87t86.5 -37zM-237 1053q-75 0 -128 53t-53 129t53.5 129t128 53t128 -53t53.5 -129t-53.5 -129t-128.5 -53z" />
    <glyph glyph-name="uni030B" unicode="&#x30b;" 
d="M-266 1065q-27 8 -37 25l197 317q39 -8 65 -45zM-567 1065q-27 8 -35 25l194 317q39 -8 68 -45z" />
    <glyph glyph-name="uni030C" unicode="&#x30c;" 
d="M-336 1096l-229 250q10 33 41 43l219 -224l221 219q29 -12 41 -43l-233 -245q-31 -6 -60 0z" />
    <glyph glyph-name="uni0326" unicode="&#x326;" 
d="M-123 -211q0 55 -20 121q16 8 41 8t39 -6q12 -55 12 -113.5t-31 -124t-80 -102.5q-23 8 -24 27q63 72 63 190z" />
    <glyph glyph-name="uni0327" unicode="&#x327;" 
d="M-29 -225q0 -82 -64.5 -122t-150.5 -40t-118 16q0 35 20 56q39 -14 99 -14.5t101.5 25t41.5 75t-42 72t-137 30.5l54 133h61l-35 -86q170 -29 170 -145z" />
    <glyph glyph-name="uni0328" unicode="&#x328;" 
d="M-209 -367q-76 0 -118 38t-42 106q0 141 199 286h72q-86 -59 -141.5 -132.5t-55.5 -129t27.5 -78t76.5 -22.5t97 39q29 -25 28 -53q-67 -54 -143 -54z" />
    <glyph glyph-name="uni0335" unicode="&#x335;" 
d="M-526 959.5q0 11.5 4 31.5h463q6 -12 6 -28t-6 -35h-463q-4 20 -4 31.5z" />
    <glyph glyph-name="uni0336" unicode="&#x336;" 
d="M-1298 932l-7 31l7 30h1232q14 -33 0 -61h-1232z" />
    <glyph glyph-name="uni0337" unicode="&#x337;" 
d="M-426 575q-27 16 -29 54l377 194q25 -23 29 -53z" />
    <glyph glyph-name="uni0338" unicode="&#x338;" 
d="M-1061 -51q-35 12 -43 43l909 1014q35 -12 45 -41z" />
    <glyph glyph-name="Wgrave" unicode="&#x1e80;" horiz-adv-x="1853" 
d="M1747 1321q27 0 39 -6q-172 -756 -420 -1317q-18 -6 -43 -6t-43 6l-322 1024l-18 74l-22 -74l-345 -1024q-18 -6 -42 -6t-48 6q-225 514 -413 1317q16 8 43 8t39 -4q152 -694 376 -1245l371 1124q25 4 45.5 4t32.5 -4l338 -1061l16 -63q233 575 379 1245q10 2 37 2z
M1094 1440q0 -20 -19 -39l-358 180q2 47 39 72z" />
    <glyph glyph-name="wgrave" unicode="&#x1e81;" horiz-adv-x="1452" 
d="M1337.5 956q21.5 0 46.5 -6q-41 -219 -151.5 -500.5t-208.5 -451.5q-16 -6 -38.5 -6t-39.5 6q-104 186 -215 502q-29 -98 -92.5 -247t-120.5 -255q-12 -6 -40 -6t-40 6q-106 166 -219 444.5t-162 507.5q18 6 40.5 6t35.5 -4q47 -209 153.5 -473t182.5 -395q2 -4 5 -12.5
t5 -12.5q2 4 5 12.5t5 12.5q109 215 209 510q-66 205 -96 356q25 6 45.5 6t32.5 -4q41 -215 135 -477t164 -391q8 -16 10 -23q2 2 5 11.5t7 15.5q78 141 174.5 396t133.5 468q7 4 28.5 4zM854 1122q-6 -23 -27 -37l-321 238q18 45 51 63z" />
    <glyph glyph-name="Wacute" unicode="&#x1e82;" horiz-adv-x="1853" 
d="M1747 1321q27 0 39 -6q-172 -756 -420 -1317q-18 -6 -43 -6t-43 6l-322 1024l-18 74l-22 -74l-345 -1024q-18 -6 -42 -6t-48 6q-225 514 -413 1317q16 8 43 8t39 -4q152 -694 376 -1245l371 1124q25 4 45.5 4t32.5 -4l338 -1061l16 -63q233 575 379 1245q10 2 37 2z
M1137 1581l-359 -180q-18 18 -18 39l338 213q37 -25 39 -72z" />
    <glyph glyph-name="wacute" unicode="&#x1e83;" horiz-adv-x="1452" 
d="M1337.5 956q21.5 0 46.5 -6q-41 -219 -151.5 -500.5t-208.5 -451.5q-16 -6 -38.5 -6t-39.5 6q-104 186 -215 502q-29 -98 -92.5 -247t-120.5 -255q-12 -6 -40 -6t-40 6q-106 166 -219 444.5t-162 507.5q18 6 40.5 6t35.5 -4q47 -209 153.5 -473t182.5 -395q2 -4 5 -12.5
t5 -12.5q2 4 5 12.5t5 12.5q109 215 209 510q-66 205 -96 356q25 6 45.5 6t32.5 -4q41 -215 135 -477t164 -391q8 -16 10 -23q2 2 5 11.5t7 15.5q78 141 174.5 396t133.5 468q7 4 28.5 4zM573 1085q-20 16 -26 37l297 264q33 -16 51 -63z" />
    <glyph glyph-name="Wdieresis" unicode="&#x1e84;" horiz-adv-x="1853" 
d="M1747 1321q27 0 39 -6q-172 -756 -420 -1317q-18 -6 -43 -6t-43 6l-322 1024l-18 74l-22 -74l-345 -1024q-18 -6 -42 -6t-48 6q-225 514 -413 1317q16 8 43 8t39 -4q152 -694 376 -1245l371 1124q25 4 45.5 4t32.5 -4l338 -1061l16 -63q233 575 379 1245q10 2 37 2z
M1136.5 1470q-28.5 0 -48 19.5t-19.5 47.5t20.5 47.5t47 19.5t46 -19.5t19.5 -47.5t-18.5 -47.5t-47 -19.5zM723 1470q-29 0 -48.5 19.5t-19.5 47.5t20.5 47.5t47.5 19.5t46 -19.5t19 -47.5t-18 -47.5t-47 -19.5z" />
    <glyph glyph-name="wdieresis" unicode="&#x1e85;" horiz-adv-x="1452" 
d="M1337.5 956q21.5 0 46.5 -6q-41 -219 -151.5 -500.5t-208.5 -451.5q-16 -6 -38.5 -6t-39.5 6q-104 186 -215 502q-29 -98 -92.5 -247t-120.5 -255q-12 -6 -40 -6t-40 6q-106 166 -219 444.5t-162 507.5q18 6 40.5 6t35.5 -4q47 -209 153.5 -473t182.5 -395q2 -4 5 -12.5
t5 -12.5q2 4 5 12.5t5 12.5q109 215 209 510q-66 205 -96 356q25 6 45.5 6t32.5 -4q41 -215 135 -477t164 -391q8 -16 10 -23q2 2 5 11.5t7 15.5q78 141 174.5 396t133.5 468q7 4 28.5 4zM921.5 1167q-28.5 0 -48 19.5t-19.5 47.5t20.5 47t47 19t46 -19t19.5 -47
t-18.5 -47.5t-47 -19.5zM503.5 1167q-28.5 0 -48 19.5t-19.5 47.5t20.5 47t47 19t46 -19t19.5 -47t-18.5 -47.5t-47 -19.5z" />
    <glyph glyph-name="uni1E9E" unicode="&#x1e9e;" horiz-adv-x="1249" 
d="M815 -20q-197 0 -321 124q14 39 49 58q103 -111 255 -111t223 69t71 174t-52 174t-193 148q-140 80 -206 150t-66 180t68 188t186 119q-106 -10 -172 -10q-176 0 -282 -91t-107 -271v-881q-14 -6 -37 -6t-38 6v883q0 213 132 323t337 109h344q6 -17 6 -35t-6 -37
q-176 -18 -266 -96t-89 -186q0 -77 44 -135q43 -58 189 -140t215 -161t69 -225t-100 -234q-99 -86 -253 -86z" />
    <glyph glyph-name="Ygrave" unicode="&#x1ef2;" horiz-adv-x="1146" 
d="M575.5 -6q-20.5 0 -38.5 6v553l-500 762q33 8 55 8t29 -2l444 -670l17 -30l14 30l420 670q10 2 32.5 2t51.5 -8l-486 -764v-551q-18 -6 -38.5 -6zM739 1440q0 -20 -18 -39l-359 180q2 47 39 72z" />
    <glyph glyph-name="ygrave" unicode="&#x1ef3;" horiz-adv-x="993" 
d="M893 956q25 0 41 -8q-72 -356 -256 -714.5t-451 -643.5q-39 8 -55 48q164 170 293 378q-119 184 -235.5 446.5t-166.5 487.5q12 6 39 6t43 -4q43 -201 144.5 -435t210.5 -415q4 -8 12 -20l12 20q262 461 332 850q12 4 37 4zM647 1122q-6 -23 -26 -37l-322 238
q18 45 51 63z" />
    <glyph glyph-name="uni1EF8" unicode="&#x1ef8;" horiz-adv-x="1146" 
d="M575.5 -6q-20.5 0 -38.5 6v553l-500 762q33 8 55 8t29 -2l444 -670l17 -30l14 30l420 670q10 2 32.5 2t51.5 -8l-486 -764v-551q-18 -6 -38.5 -6zM442 1538q-104 0 -135 -94q-39 0 -61 22q47 137 194 138q51 0 140.5 -46.5t128.5 -46.5q106 0 137 95q39 0 59 -21
q-47 -139 -192 -139q-55 0 -144.5 46t-126.5 46z" />
    <glyph glyph-name="uni1EF9" unicode="&#x1ef9;" horiz-adv-x="993" 
d="M893 956q25 0 41 -8q-72 -356 -256 -714.5t-451 -643.5q-39 8 -55 48q164 170 293 378q-119 184 -235.5 446.5t-166.5 487.5q12 6 39 6t43 -4q43 -201 144.5 -435t210.5 -415q4 -8 12 -20l12 20q262 461 332 850q12 4 37 4zM369 1251q-92 0 -123 -92q-37 0 -62 21
q49 139 181 139q55 -2 144 -46t130 -44q88 0 121 90q37 0 57 -21q-20 -63 -66 -100t-105.5 -37t-147.5 45t-129 45z" />
    <glyph glyph-name="endash" unicode="&#x2013;" horiz-adv-x="1185" 
d="M154 512q0 16 6 33h868q4 -12 4 -34t-4 -34h-868q-6 19 -6 35z" />
    <glyph glyph-name="emdash" unicode="&#x2014;" horiz-adv-x="2199" 
d="M154 514q0 18 6 31h1880q4 -10 4 -32t-4 -34h-1880q-6 17 -6 35z" />
    <glyph glyph-name="quoteleft" unicode="&#x2018;" horiz-adv-x="387" 
d="M186 985q-27 0 -39 6q-16 39 -16 103q0 166 117 278q25 -4 28 -24q-68 -74 -67 -218q0 -76 20 -137q-16 -8 -43 -8z" />
    <glyph glyph-name="quoteright" unicode="&#x2019;" horiz-adv-x="387" 
d="M213 1372q27 0 39 -6q14 -34 14 -112t-36 -152t-80 -117q-23 4 -27 25q68 74 67 217q0 78 -22 137q18 8 45 8z" />
    <glyph glyph-name="quotesinglbase" unicode="&#x201a;" horiz-adv-x="397" 
d="M166 37q0 72 -23 139q18 6 45 6t37 -4q17 -40 17 -116t-36 -150t-81 -117q-25 4 -29 25q70 76 70 217z" />
    <glyph glyph-name="quotedblleft" unicode="&#x201c;" horiz-adv-x="616" 
d="M416 985q-27 0 -39 6q-17 39 -17 115t36 150t83 116q23 -4 27 -24q-68 -74 -68 -218q0 -78 23 -137q-18 -8 -45 -8zM187 985q-28 0 -37 6q-16 39 -16 115t35 150q36 74 81 116q23 -4 26 -24q-68 -74 -67 -218q0 -78 22 -137q-16 -8 -44 -8z" />
    <glyph glyph-name="quotedblright" unicode="&#x201d;" horiz-adv-x="616" 
d="M420 1225q0 78 -23 137q25 8 45 8t37 -6q17 -40 17 -116t-36 -151t-81 -114q-25 4 -27 25q68 74 68 217zM214 1370q19 0 38 -6q14 -34 14 -112t-36 -153t-78 -116q-27 4 -29 25q68 74 67 217q0 76 -20 137q25 8 44 8z" />
    <glyph glyph-name="quotedblbase" unicode="&#x201e;" horiz-adv-x="626" 
d="M417 182q26 0 38 -4q14 -32 14 -112t-35 -155t-80 -116q-25 4 -28 25q68 78 67 217q0 78 -20 139q18 6 44 6zM164 37q0 78 -21 139q18 6 45 6t37 -4q17 -40 17 -116t-36 -150t-81 -117q-25 4 -29 25q68 78 68 217z" />
    <glyph glyph-name="dagger" unicode="&#x2020;" horiz-adv-x="1038" 
d="M913 1007q0 -24 -6 -36l-352 8v-1286q-19 -6 -37 -6t-37 6v1286l-350 -8q-6 17 -6 35t6 34l350 -8v436q44 15 74 0v-436l352 8q6 -9 6 -33z" />
    <glyph glyph-name="daggerdbl" unicode="&#x2021;" horiz-adv-x="1038" 
d="M913 157q0 -24 -6 -36l-352 8v-436q-19 -6 -37 -6t-37 6v436l-350 -8q-6 13 -6 33t6 39l350 -11v797l-350 -8q-6 17 -6 35t6 34l350 -8v436q44 15 74 0v-436l352 8q6 -10 6 -34t-6 -35l-352 8v-797l352 11q6 -12 6 -36z" />
    <glyph glyph-name="bullet" unicode="&#x2022;" horiz-adv-x="753" 
d="M377 360q-80 0 -136 56t-57 137q0 80 56 136t137 56q80 0 136 -56t56 -136q0 -81 -56 -137t-136 -56z" />
    <glyph glyph-name="ellipsis" unicode="&#x2026;" horiz-adv-x="1097" 
d="M883 -18q-29 0 -49 20t-20 50t20 49t49 19t51 -20t20 -49q0 -29 -21 -49t-50 -20zM547 -18q-29 0 -49 20t-20 50t20 49t49 19t51 -20t20 -49q0 -29 -21 -49t-50 -20zM213 -18q-29 0 -51 20t-21 49q0 29 22 49q23 20 51 20t50 -20t21 -49q1 -29 -21 -49t-51 -20z" />
    <glyph glyph-name="perthousand" unicode="&#x2030;" horiz-adv-x="2195" 
d="M1839 49q102 0 157 65q54 65 54 165q0 99 -55 165t-157 66t-156 -67q-56 -67 -56 -165t56 -164q56 -65 157 -65zM1171 49q102 0 157 65q54 65 54 165q0 99 -55 165t-157 66t-156 -67q-56 -67 -56 -165t56 -164q56 -65 157 -65zM1838 -14q-126 0 -203 84t-76 209t77 209
t202 83q126 0 203 -84q77 -85 77 -209t-77 -208t-203 -84zM1170 -14q-126 0 -202 84t-77 209q0 125 77 209q76 84 202 83q126 0 203 -84q77 -85 77 -209t-77 -208t-203 -84zM359 655q101 0 156 65q54 65 54 165t-55 166q-56 65 -156 65t-156 -66t-56 -166q0 -99 56 -164
t157 -65zM357 592q-127 0 -203 84t-76 209t77 209t203 84t202 -84q77 -84 77 -209t-77 -209t-203 -84zM283 -96l878 1356q43 12 80 0l-879 -1356q-46 -12 -79 0z" />
    <glyph glyph-name="guilsinglleft" unicode="&#x2039;" horiz-adv-x="544" 
d="M356 231l-258 293l258 299q27 -8 37 -32l-194 -269l196 -260q-10 -23 -39 -31z" />
    <glyph glyph-name="guilsinglright" unicode="&#x203a;" horiz-adv-x="542" 
d="M186 231q-29 8 -39 31l197 260l-194 269q10 25 36 32l258 -299z" />
    <glyph glyph-name="fraction" unicode="&#x2044;" horiz-adv-x="1085" 
d="M12 -98l977 1448q43 8 84 0l-977 -1448q-43 -10 -84 0z" />
    <glyph glyph-name="Euro" unicode="&#x20ac;" horiz-adv-x="1337" 
d="M80 510q0 10 4 31h174q-6 57 -6 121t8 116h-141q-6 16 -6 32t6 32h151q45 229 200 366q155 138 373 138t380 -121q-12 -37 -39 -56q-158 107 -346 107t-320 -114q-131 -114 -172 -320h465q6 -16 6 -32t-6 -32h-475q-6 -55 -6 -121t8 -116h440q4 -21 4 -31t-4 -35h-430
q43 -199 171 -315t335 -115q207 0 348 123q33 -20 39 -55q-162 -135 -394 -135t-383 134q-151 136 -196 363h-184q-4 25 -4 35z" />
    <glyph glyph-name="trademark" unicode="&#x2122;" horiz-adv-x="1507" 
d="M612 1312q0 -9 -4 -30h-227v-651q-10 -4 -34 -4t-34 4v651h-241q-4 10 -4 31t4 33h536q4 -25 4 -34zM1282 1348q14 0 55 -5v-712q-25 -4 -39 -4t-30 4v508l4 69l-221 -508q-15 -6 -33 -6t-41 6l-238 498l-4 12l4 -71v-508q-16 -4 -30 -4t-39 4v712q23 6 53 7h20l250 -516
l23 -56l22 56l226 514h18z" />
    <glyph glyph-name="minus" unicode="&#x2212;" horiz-adv-x="1114" 
d="M158 484q0 17 6 32h786q6 -16 6 -32t-6 -35h-786q-6 18 -6 35z" />
    <glyph glyph-name="approxequal" unicode="&#x2248;" horiz-adv-x="1093" 
d="M377 354q67 0 177 -46t161 -46q113 0 164 94q43 -4 57 -28q-61 -137 -221 -138q-65 0 -173 46t-165 47q-117 -1 -164 -93q-37 4 -55 29q63 135 219 135zM377 721q67 0 177 -46t161 -46q115 0 164 96q41 -4 57 -31q-61 -135 -221 -135q-65 0 -173 46t-165 46
q-117 0 -164 -94q-35 4 -55 29q63 135 219 135z" />
    <glyph glyph-name="notequal" unicode="&#x2260;" horiz-adv-x="1048" 
d="M891 312q0 -24 -4 -33h-414l-137 -238q-33 8 -55 35l116 203h-235q-4 20 -4 33t4 34h274l152 264h-426q-4 25 -4 35t4 35h467l145 252q31 -6 55 -35l-124 -217h182q4 -12 4 -35t-4 -35h-223l-152 -264h375q4 -10 4 -34z" />
    <glyph glyph-name="dotlessj" unicode="&#xf6be;" horiz-adv-x="468" 
d="M289 -70q-1 -162 -85 -246t-202 -83q-118 0 -207 82q6 37 41 57q86 -68 172 -68t146 62t59 192v1028q43 16 76 0v-1024z" />
    <glyph glyph-name="uniF8FF" unicode="&#xf8ff;" horiz-adv-x="2971" 
d="M2253 31q8 0 8 6t-8 6h-15v-12h15zM2238 23v-19h-10v47h23q20 0 20 -14t-14 -14l12 -19h-12l-8 19h-11zM2212 27q0 -37 37 -37t37 37t-37 36q-37 1 -37 -36zM2200 27q0 47 49 47t49 -47t-49 -47t-49 47zM1448 223q0 47 -43 47t-43 -63q0 -29 10 -60q30 -1 53 23t23 53z
M1921 223h82q6 55 -35 56q-47 0 -47 -56zM2191 260q0 -43 -6 -72h-254q23 -36 98 -36t117 24v-153q-47 -33 -159 -33q-289 0 -289 250q0 122 66 190t185 68q118 0 180 -62t62 -176zM1501 498q76 0 120 -60t44 -172q0 -276 -281 -276q2 -31 2 -80h-243q0 291 20 577h160
q14 -86 14 -155q35 166 164 166zM877 487h213q20 -106 20 -277t-69 -242t-242 -70q-125 0 -181 34v170q49 -32 118 -32q136 1 136 57q-33 -23 -100 -23q-184 0 -184 170v27h-113l6 -133q12 -8 35 -8t33 10v-150q-39 -30 -135 -30t-133 35t-37 113t6 163h-37v164l240 59
l-2 -37h362v-243q0 -33 6 -44t25 -12q33 0 33 56v243zM2562 764q0 57 -45 57t-45 -57t45 -57t45 57zM799 764q0 57 -47 57t-47 -57t47 -57t47 57zM2519 1053q248 0 248 -255t-251 -255t-251 255t254 255zM1708 553q0 358 21 489h163q12 -90 13 -155q4 31 13 61t49 68
q39 37 113 37q74 1 108 -51t38 -166l6 -283h-233l4 190q0 59 -31 60q-37 0 -37 -60l7 -190h-234zM1012 813v-260h-170l-17 125q-24 -135 -153 -135q-188 0 -189 233q0 276 275 277q254 0 254 -240zM1032 854v162l244 61l2 -35h364q20 -131 21 -489h-242q0 188 6 301h-124
l6 -133q9 -8 33 -8t34 10v-152q-29 -31 -139 -30q-168 0 -168 135l8 178h-45zM449 553h-244q0 274 18 643h205q21 -410 21 -643zM1415 1195q0 52 36 89t89 37t90 -37t37 -90t-37 -89t-90 -36t-89 37t-36 89z" />
    <glyph glyph-name="A.ss01" horiz-adv-x="1193" 
d="M287 487h610q-131 365 -285 670l-26 64l-27 -64q-147 -305 -272 -670zM1097 -6q-24 0 -40 4q-70 229 -135 420h-660q-49 -147 -127 -420q-8 -2 -32.5 -2t-47.5 10q221 745 494 1309q12 4 38 4t38 -4q283 -559 514 -1309q-18 -12 -42 -12z" />
    <glyph glyph-name="Aacute.ss01" horiz-adv-x="1193" 
d="M287 487h610q-131 365 -285 670l-26 64l-27 -64q-147 -305 -272 -670zM1097 -6q-24 0 -40 4q-70 229 -135 420h-660q-49 -147 -127 -420q-8 -2 -32.5 -2t-47.5 10q221 745 494 1309q12 4 38 4t38 -4q283 -559 514 -1309q-18 -12 -42 -12zM797 1581l-359 -180
q-18 18 -18 39l338 213q37 -25 39 -72z" />
    <glyph glyph-name="Abreve.ss01" horiz-adv-x="1193" 
d="M287 487h610q-131 365 -285 670l-26 64l-27 -64q-147 -305 -272 -670zM1097 -6q-24 0 -40 4q-70 229 -135 420h-660q-49 -147 -127 -420q-8 -2 -32.5 -2t-47.5 10q221 745 494 1309q12 4 38 4t38 -4q283 -559 514 -1309q-18 -12 -42 -12zM587.5 1421q-98.5 0 -172 59.5
t-87.5 157.5q27 12 57 11q18 -76 74.5 -119t127.5 -43t131 43t73 119q33 0 55 -9q-8 -96 -84 -157.5t-174.5 -61.5z" />
    <glyph glyph-name="Acircumflex.ss01" horiz-adv-x="1193" 
d="M287 487h610q-131 365 -285 670l-26 64l-27 -64q-147 -305 -272 -670zM1097 -6q-24 0 -40 4q-70 229 -135 420h-660q-49 -147 -127 -420q-8 -2 -32.5 -2t-47.5 10q221 745 494 1309q12 4 38 4t38 -4q283 -559 514 -1309q-18 -12 -42 -12zM356 1386q-25 12 -30 41l231 215
q31 6 61 0l230 -212q-6 -29 -31 -44l-233 191z" />
    <glyph glyph-name="Adieresis.ss01" horiz-adv-x="1193" 
d="M287 487h610q-131 365 -285 670l-26 64l-27 -64q-147 -305 -272 -670zM1097 -6q-24 0 -40 4q-70 229 -135 420h-660q-49 -147 -127 -420q-8 -2 -32.5 -2t-47.5 10q221 745 494 1309q12 4 38 4t38 -4q283 -559 514 -1309q-18 -12 -42 -12zM794.5 1470q-28.5 0 -48 19.5
t-19.5 47.5t20.5 47.5t47 19.5t46 -19.5t19.5 -47.5t-18.5 -47.5t-47 -19.5zM381 1470q-29 0 -48.5 19.5t-19.5 47.5t20.5 47.5t47.5 19.5t46 -19.5t19 -47.5t-18 -47.5t-47 -19.5z" />
    <glyph glyph-name="Agrave.ss01" horiz-adv-x="1193" 
d="M287 487h610q-131 365 -285 670l-26 64l-27 -64q-147 -305 -272 -670zM1097 -6q-24 0 -40 4q-70 229 -135 420h-660q-49 -147 -127 -420q-8 -2 -32.5 -2t-47.5 10q221 745 494 1309q12 4 38 4t38 -4q283 -559 514 -1309q-18 -12 -42 -12zM752 1440q0 -20 -19 -39
l-358 180q2 47 39 72z" />
    <glyph glyph-name="Amacron.ss01" horiz-adv-x="1193" 
d="M287 487h610q-131 365 -285 670l-26 64l-27 -64q-147 -305 -272 -670zM1097 -6q-24 0 -40 4q-70 229 -135 420h-660q-49 -147 -127 -420q-8 -2 -32.5 -2t-47.5 10q221 745 494 1309q12 4 38 4t38 -4q283 -559 514 -1309q-18 -12 -42 -12zM324 1511.5q0 20.5 4 36.5h520
q6 -16 6 -30.5t-6 -32.5h-520q-4 6 -4 26.5z" />
    <glyph glyph-name="Aogonek.ss01" horiz-adv-x="1193" 
d="M287 487h610q-131 365 -285 670l-26 64l-27 -64q-147 -305 -272 -670zM979 -207q1 -92 109 -92q52 0 98 39q29 -16 28 -51q-72 -55 -148.5 -55.5t-118.5 37.5t-42 106q0 106 152 225q-68 219 -135 416h-660q-49 -147 -127 -420q-8 -2 -32.5 -2t-47.5 10q221 745 494 1309
q12 4 38 4t38 -4q283 -559 514 -1309q-160 -115 -160 -213z" />
    <glyph glyph-name="Aring.ss01" horiz-adv-x="1193" 
d="M287 487h610q-131 365 -285 670l-26 64l-27 -64q-147 -305 -272 -670zM1097 -6q-24 0 -40 4q-70 229 -135 420h-660q-49 -147 -127 -420q-8 -2 -32.5 -2t-47.5 10q221 745 494 1309q12 4 38 4t38 -4q283 -559 514 -1309q-18 -12 -42 -12zM589 1645q-52 0 -87 -37t-35 -86
t35 -86t87 -37t85 35.5t33 87t-33 87.5t-85 36zM587 1339q-75 0 -128 53.5t-53 129t53 128t128 52.5t128 -52.5t53 -128t-53 -129t-128 -53.5z" />
    <glyph glyph-name="Atilde.ss01" horiz-adv-x="1193" 
d="M287 487h610q-131 365 -285 670l-26 64l-27 -64q-147 -305 -272 -670zM1097 -6q-24 0 -40 4q-70 229 -135 420h-660q-49 -147 -127 -420q-8 -2 -32.5 -2t-47.5 10q221 745 494 1309q12 4 38 4t38 -4q283 -559 514 -1309q-18 -12 -42 -12zM455 1538q-104 0 -136 -94
q-39 0 -61 22q47 137 195 138q51 0 140 -46.5t128 -46.5q106 0 137 95q39 0 60 -21q-47 -139 -193 -139q-55 0 -144 46t-126 46z" />
    <glyph glyph-name="E.ss01" horiz-adv-x="1005" 
d="M121 348q0 135 77.5 224.5t204.5 125.5q-233 70 -233 303q0 152 109.5 242t291.5 90t303 -84q-6 -35 -34 -61q-117 76 -267.5 76t-238.5 -73t-88 -191t89 -192.5t265 -74.5h145q6 -14 6.5 -36t-6.5 -33h-157q-186 0 -288.5 -88.5t-102.5 -225.5t98 -217t287.5 -79.5
t328.5 102.5q31 -18 37 -60q-156 -113 -372 -112.5t-335.5 97.5t-119.5 267z" />
    <glyph glyph-name="Eacute.ss01" horiz-adv-x="1005" 
d="M121 348q0 135 77.5 224.5t204.5 125.5q-233 70 -233 303q0 152 109.5 242t291.5 90t303 -84q-6 -35 -34 -61q-117 76 -267.5 76t-238.5 -73t-88 -191t89 -192.5t265 -74.5h145q6 -14 6.5 -36t-6.5 -33h-157q-186 0 -288.5 -88.5t-102.5 -225.5t98 -217t287.5 -79.5
t328.5 102.5q31 -18 37 -60q-156 -113 -372 -112.5t-335.5 97.5t-119.5 267zM750 1581l-359 -180q-18 18 -18 39l338 213q37 -25 39 -72z" />
    <glyph glyph-name="Ecaron.ss01" horiz-adv-x="1005" 
d="M121 348q0 135 77.5 224.5t204.5 125.5q-233 70 -233 303q0 152 109.5 242t291.5 90t303 -84q-6 -35 -34 -61q-117 76 -267.5 76t-238.5 -73t-88 -191t89 -192.5t265 -74.5h145q6 -14 6.5 -36t-6.5 -33h-157q-186 0 -288.5 -88.5t-102.5 -225.5t98 -217t287.5 -79.5
t328.5 102.5q31 -18 37 -60q-156 -113 -372 -112.5t-335.5 97.5t-119.5 267zM571 1393q-31 -8 -61 0l-229 211q6 29 30 45l234 -193l227 193q25 -14 31 -43z" />
    <glyph glyph-name="Ecircumflex.ss01" horiz-adv-x="1005" 
d="M121 348q0 135 77.5 224.5t204.5 125.5q-233 70 -233 303q0 152 109.5 242t291.5 90t303 -84q-6 -35 -34 -61q-117 76 -267.5 76t-238.5 -73t-88 -191t89 -192.5t265 -74.5h145q6 -14 6.5 -36t-6.5 -33h-157q-186 0 -288.5 -88.5t-102.5 -225.5t98 -217t287.5 -79.5
t328.5 102.5q31 -18 37 -60q-156 -113 -372 -112.5t-335.5 97.5t-119.5 267zM311 1386q-25 12 -30 41l231 215q31 6 61 0l230 -212q-6 -29 -31 -44l-233 191z" />
    <glyph glyph-name="Edieresis.ss01" horiz-adv-x="1005" 
d="M121 348q0 135 77.5 224.5t204.5 125.5q-233 70 -233 303q0 152 109.5 242t291.5 90t303 -84q-6 -35 -34 -61q-117 76 -267.5 76t-238.5 -73t-88 -191t89 -192.5t265 -74.5h145q6 -14 6.5 -36t-6.5 -33h-157q-186 0 -288.5 -88.5t-102.5 -225.5t98 -217t287.5 -79.5
t328.5 102.5q31 -18 37 -60q-156 -113 -372 -112.5t-335.5 97.5t-119.5 267zM749.5 1470q-28.5 0 -48 19.5t-19.5 47.5t20.5 47.5t47 19.5t46 -19.5t19.5 -47.5t-18.5 -47.5t-47 -19.5zM336 1470q-29 0 -48.5 19.5t-19.5 47.5t20.5 47.5t47 19.5t46 -19.5t19.5 -47.5
t-18 -47.5t-47 -19.5z" />
    <glyph glyph-name="Edotaccent.ss01" horiz-adv-x="1005" 
d="M121 348q0 135 77.5 224.5t204.5 125.5q-233 70 -233 303q0 152 109.5 242t291.5 90t303 -84q-6 -35 -34 -61q-117 76 -267.5 76t-238.5 -73t-88 -191t89 -192.5t265 -74.5h145q6 -14 6.5 -36t-6.5 -33h-157q-186 0 -288.5 -88.5t-102.5 -225.5t98 -217t287.5 -79.5
t328.5 102.5q31 -18 37 -60q-156 -113 -372 -112.5t-335.5 97.5t-119.5 267zM542.5 1473q-28.5 0 -49 20t-20.5 48t20.5 48.5t49 20.5t48 -19.5t19.5 -48.5t-19.5 -49t-48 -20z" />
    <glyph glyph-name="Egrave.ss01" horiz-adv-x="1005" 
d="M121 348q0 135 77.5 224.5t204.5 125.5q-233 70 -233 303q0 152 109.5 242t291.5 90t303 -84q-6 -35 -34 -61q-117 76 -267.5 76t-238.5 -73t-88 -191t89 -192.5t265 -74.5h145q6 -14 6.5 -36t-6.5 -33h-157q-186 0 -288.5 -88.5t-102.5 -225.5t98 -217t287.5 -79.5
t328.5 102.5q31 -18 37 -60q-156 -113 -372 -112.5t-335.5 97.5t-119.5 267zM707 1440q0 -20 -19 -39l-358 180q2 47 39 72z" />
    <glyph glyph-name="Emacron.ss01" horiz-adv-x="1005" 
d="M121 348q0 135 77.5 224.5t204.5 125.5q-233 70 -233 303q0 152 109.5 242t291.5 90t303 -84q-6 -35 -34 -61q-117 76 -267.5 76t-238.5 -73t-88 -191t89 -192.5t265 -74.5h145q6 -14 6.5 -36t-6.5 -33h-157q-186 0 -288.5 -88.5t-102.5 -225.5t98 -217t287.5 -79.5
t328.5 102.5q31 -18 37 -60q-156 -113 -372 -112.5t-335.5 97.5t-119.5 267zM279 1511.5q0 20.5 4 36.5h520q6 -16 6 -30.5t-6 -32.5h-520q-4 6 -4 26.5z" />
    <glyph glyph-name="Eogonek.ss01" horiz-adv-x="1005" 
d="M682 -209q0 -90 104 -90q50 0 97 39q29 -25 28 -53q-68 -53 -143.5 -53.5t-117.5 37.5t-42 106q0 109 123 223q-76 -16 -162 -16q-209 0 -328.5 97t-119.5 267q0 135 77.5 224.5t204.5 125.5q-233 70 -233 303q0 152 109.5 242t291.5 90t303 -84q-6 -35 -34 -61
q-117 76 -267.5 76t-238.5 -73t-88 -191t89 -192.5t265 -74.5h145q6 -14 6.5 -36t-6.5 -33h-157q-186 0 -288.5 -88.5t-102.5 -225.5t98 -217t287.5 -80t328.5 103q31 -18 37 -60q-47 -35 -106 -59q-160 -131 -160 -246z" />
    <glyph glyph-name="Q.ss02" horiz-adv-x="1484" 
d="M741 49q145 0 263 62l-160 196q20 29 55 43l166 -200q221 166 221 509q0 274 -146.5 443.5t-397.5 169.5t-397 -169t-146 -441t146 -442.5t396 -170.5zM1366 659q0 -178 -67.5 -325.5t-188.5 -239.5l160 -194q-18 -39 -58 -45l-163 200q-139 -78 -308 -78
q-281 0 -451.5 192.5t-170.5 488.5t172 490q173 194 453 194.5t451 -191t171 -492.5z" />
    <glyph glyph-name="a.ss01" horiz-adv-x="1138" 
d="M543 51q96 0 185 55.5t136 157.5v586q-106 63 -270 63t-285 -122.5t-121 -327.5t97.5 -308.5t257.5 -103.5zM940 227q0 -80 23.5 -113.5t83.5 -62.5q0 -41 -37 -61q-121 41 -140 162q-117 -172 -333 -172q-184 0 -305 117.5t-121 358.5t143 385q144 144 342 144t344 -92
v-666z" />
    <glyph glyph-name="aacute.ss01" horiz-adv-x="1138" 
d="M543 51q96 0 185 55.5t136 157.5v586q-106 63 -270 63t-285 -122.5t-121 -327.5t97.5 -308.5t257.5 -103.5zM940 227q0 -80 23.5 -113.5t83.5 -62.5q0 -41 -37 -61q-121 41 -140 162q-117 -172 -333 -172q-184 0 -305 117.5t-121 358.5t143 385q144 144 342 144t344 -92
v-666zM436 1085q-20 16 -26 37l297 264q33 -16 51 -63z" />
    <glyph glyph-name="abreve.ss01" horiz-adv-x="1138" 
d="M543 51q96 0 185 55.5t136 157.5v586q-106 63 -270 63t-285 -122.5t-121 -327.5t97.5 -308.5t257.5 -103.5zM940 227q0 -80 23.5 -113.5t83.5 -62.5q0 -41 -37 -61q-121 41 -140 162q-117 -172 -333 -172q-184 0 -305 117.5t-121 358.5t143 385t341.5 144t344.5 -92v-666
zM574 1104q-103 0 -175.5 64.5t-83.5 177.5q20 14 56 10q14 -92 70.5 -140.5t133 -48.5t137 49.5t68.5 139.5q35 0 54 -8q-6 -111 -81.5 -177.5t-178.5 -66.5z" />
    <glyph glyph-name="acircumflex.ss01" horiz-adv-x="1138" 
d="M543 51q96 0 185 55.5t136 157.5v586q-106 63 -270 63t-285 -122.5t-121 -327.5t97.5 -308.5t257.5 -103.5zM940 227q0 -80 23.5 -113.5t83.5 -62.5q0 -41 -37 -61q-121 41 -140 162q-117 -172 -333 -172q-184 0 -305 117.5t-121 358.5t143 385q144 144 342 144t344 -92
v-666zM350 1092q-27 12 -39 43l232 245q31 6 59 0l232 -250q-14 -33 -43 -43l-222 224z" />
    <glyph glyph-name="adieresis.ss01" horiz-adv-x="1138" 
d="M543 51q96 0 185 55.5t136 157.5v586q-106 63 -270 63t-285 -122.5t-121 -327.5t97.5 -308.5t257.5 -103.5zM940 227q0 -80 23.5 -113.5t83.5 -62.5q0 -41 -37 -61q-121 41 -140 162q-117 -172 -333 -172q-184 0 -305 117.5t-121 358.5t143 385q144 144 342 144t344 -92
v-666zM784.5 1167q-28.5 0 -48 19.5t-19.5 47.5t20.5 47t47 19t46 -19t19.5 -47t-18.5 -47.5t-47 -19.5zM366.5 1167q-28.5 0 -48 19.5t-19.5 47.5t20.5 47t47 19t46 -19t19.5 -47t-18.5 -47.5t-47 -19.5z" />
    <glyph glyph-name="agrave.ss01" horiz-adv-x="1138" 
d="M543 51q96 0 185 55.5t136 157.5v586q-106 63 -270 63t-285 -122.5t-121 -327.5t97.5 -308.5t257.5 -103.5zM940 227q0 -80 23.5 -113.5t83.5 -62.5q0 -41 -37 -61q-121 41 -140 162q-117 -172 -333 -172q-184 0 -305 117.5t-121 358.5t143 385q144 144 342 144t344 -92
v-666zM719 1122q-6 -23 -27 -37l-321 238q18 45 51 63z" />
    <glyph glyph-name="amacron.ss01" horiz-adv-x="1138" 
d="M543 51q96 0 185 55.5t136 157.5v586q-106 63 -270 63t-285 -122.5t-121 -327.5t97.5 -308.5t257.5 -103.5zM940 227q0 -80 23.5 -113.5t83.5 -62.5q0 -41 -37 -61q-121 41 -140 162q-117 -172 -333 -172q-184 0 -305 117.5t-121 358.5t143 385t341.5 144t344.5 -92v-666
zM311 1203q0 21 6 36h514q6 -12 6 -32.5t-6 -32.5h-514q-6 8 -6 29z" />
    <glyph glyph-name="aogonek.ss01" horiz-adv-x="1140" 
d="M530 51q102 0 192 51q89 51 144 154v594q-108 63 -272 63q-164 -1 -285 -123t-121 -326t94 -308q94 -105 248 -105zM805 -196q0 -104 107 -103q49 0 100 39q29 -18 28 -51q-70 -55 -146 -55t-119 39q-44 40 -44 113q1 72 59 140t162 113q-66 33 -80 113
q-127 -172 -348 -172q-178 0 -296 118t-118 359q0 242 144 385q143 143 344 143t344 -92v-666q0 -71 23 -105t79 -36q6 -39 -12 -70q-115 -39 -171 -98q-56 -60 -56 -114z" />
    <glyph glyph-name="aring.ss01" horiz-adv-x="1138" 
d="M543 51q96 0 185 55.5t136 157.5v586q-106 63 -270 63t-285 -122.5t-121 -327.5t97.5 -308.5t257.5 -103.5zM940 227q0 -80 23.5 -113.5t83.5 -62.5q0 -41 -37 -61q-121 41 -140 162q-117 -172 -333 -172q-184 0 -305 117.5t-121 358.5t143 385t341.5 144t344.5 -92v-666
zM576 1360q-52 0 -86.5 -37t-34.5 -87t34.5 -87t86.5 -37t85 36t33 87t-33 88t-85 37zM574 1053q-75 0 -128 53t-53 129t53.5 129t128 53t128 -53t53.5 -129t-53.5 -129t-128.5 -53z" />
    <glyph glyph-name="atilde.ss01" horiz-adv-x="1138" 
d="M543 51q96 0 185 55.5t136 157.5v586q-106 63 -270 63t-285 -122.5t-121 -327.5t97.5 -308.5t257.5 -103.5zM940 227q0 -80 23.5 -113.5t83.5 -62.5q0 -41 -37 -61q-121 41 -140 162q-117 -172 -333 -172q-184 0 -305 117.5t-121 358.5t143 385q144 144 342 144t344 -92
v-666zM442 1251q-92 0 -123 -92q-37 0 -61 21q49 139 180 139q55 -2 144.5 -46t130.5 -44q88 0 121 90q37 0 57 -21q-20 -63 -66.5 -100t-105.5 -37t-147.5 45t-129.5 45z" />
    <glyph glyph-name="e.ss01" horiz-adv-x="1030" 
d="M565 915q-133 0 -236.5 -91t-131.5 -249q158 -74 350 -73q293 0 293 196q0 88 -71 152.5t-204 64.5zM569.5 -20q-201.5 0 -331 124.5t-129.5 359t136 378t311 143.5t269.5 -80t94.5 -213t-103.5 -195.5t-285 -62.5t-343.5 78q-2 -14 -2 -45q0 -197 105.5 -307.5
t284.5 -110.5t298 119q29 -16 44 -57q-147 -131 -348.5 -131z" />
    <glyph glyph-name="eacute.ss01" horiz-adv-x="1030" 
d="M565 915q-133 0 -236.5 -91t-131.5 -249q158 -74 350 -73q293 0 293 196q0 88 -71 152.5t-204 64.5zM569.5 -20q-201.5 0 -331 124.5t-129.5 359t136 378t311 143.5t269.5 -80t94.5 -213t-103.5 -195.5t-285 -62.5t-343.5 78q-2 -14 -2 -45q0 -197 105.5 -307.5
t284.5 -110.5t298 119q29 -16 44 -57q-147 -131 -348.5 -131zM403 1085q-20 16 -26 37l297 264q33 -16 51 -63z" />
    <glyph glyph-name="ecaron.ss01" horiz-adv-x="1030" 
d="M565 915q-133 0 -236.5 -91t-131.5 -249q158 -74 350 -73q293 0 293 196q0 88 -71 152.5t-204 64.5zM569.5 -20q-201.5 0 -331 124.5t-129.5 359t136 378t311 143.5t269.5 -80t94.5 -213t-103.5 -195.5t-285 -62.5t-343.5 78q-2 -14 -2 -45q0 -197 105.5 -307.5
t284.5 -110.5t298 119q29 -16 44 -57q-147 -131 -348.5 -131zM569 1096q-31 -6 -59 0l-229 250q10 33 41 43l219 -224l221 219q29 -12 41 -43z" />
    <glyph glyph-name="ecircumflex.ss01" horiz-adv-x="1030" 
d="M565 915q-133 0 -236.5 -91t-131.5 -249q158 -74 350 -73q293 0 293 196q0 88 -71 152.5t-204 64.5zM569.5 -20q-201.5 0 -331 124.5t-129.5 359t136 378t311 143.5t269.5 -80t94.5 -213t-103.5 -195.5t-285 -62.5t-343.5 78q-2 -14 -2 -45q0 -197 105.5 -307.5
t284.5 -110.5t298 119q29 -16 44 -57q-147 -131 -348.5 -131zM317 1092q-27 12 -38 43l231 245q31 6 59 0l232 -250q-14 -33 -43 -43l-221 224z" />
    <glyph glyph-name="edieresis.ss01" horiz-adv-x="1030" 
d="M565 915q-133 0 -236.5 -91t-131.5 -249q158 -74 350 -73q293 0 293 196q0 88 -71 152.5t-204 64.5zM569.5 -20q-201.5 0 -331 124.5t-129.5 359t136 378t311 143.5t269.5 -80t94.5 -213t-103.5 -195.5t-285 -62.5t-343.5 78q-2 -14 -2 -45q0 -197 105.5 -307.5
t284.5 -110.5t298 119q29 -16 44 -57q-147 -131 -348.5 -131zM749.5 1167q-28.5 0 -48 19.5t-19.5 47.5t20.5 47t47 19t46 -19t19.5 -47t-18.5 -47.5t-47 -19.5zM331.5 1167q-28.5 0 -48 19.5t-19.5 47.5t20.5 47t47 19t46 -19t19.5 -47t-18.5 -47.5t-47 -19.5z" />
    <glyph glyph-name="edotaccent.ss01" horiz-adv-x="1030" 
d="M565 915q-133 0 -236.5 -91t-131.5 -249q158 -74 350 -73q293 0 293 196q0 88 -71 152.5t-204 64.5zM569.5 -20q-201.5 0 -331 124.5t-129.5 359t136 378t311 143.5t269.5 -80t94.5 -213t-103.5 -195.5t-285 -62.5t-343.5 78q-2 -14 -2 -45q0 -197 105.5 -307.5
t284.5 -110.5t298 119q29 -16 44 -57q-147 -131 -348.5 -131zM538.5 1178q-28.5 0 -49 20.5t-20.5 49t20.5 50t49 21.5t49 -21.5t20.5 -50t-20.5 -49t-49 -20.5z" />
    <glyph glyph-name="egrave.ss01" horiz-adv-x="1030" 
d="M565 915q-133 0 -236.5 -91t-131.5 -249q158 -74 350 -73q293 0 293 196q0 88 -71 152.5t-204 64.5zM569.5 -20q-201.5 0 -331 124.5t-129.5 359t136 378t311 143.5t269.5 -80t94.5 -213t-103.5 -195.5t-285 -62.5t-343.5 78q-2 -14 -2 -45q0 -197 105.5 -307.5
t284.5 -110.5t298 119q29 -16 44 -57q-147 -131 -348.5 -131zM684 1122q-6 -23 -27 -37l-321 238q18 45 51 63z" />
    <glyph glyph-name="emacron.ss01" horiz-adv-x="1030" 
d="M565 915q-133 0 -236.5 -91t-131.5 -249q158 -74 350 -73q293 0 293 196q0 88 -71 152.5t-204 64.5zM569.5 -20q-201.5 0 -331 124.5t-129.5 359t136 378t311 143.5t269.5 -80t94.5 -213t-103.5 -195.5t-285 -62.5t-343.5 78q-2 -14 -2 -45q0 -197 105.5 -307.5
t284.5 -110.5t298 119q29 -16 44 -57q-147 -131 -348.5 -131zM803 1206.5q0 -20.5 -6 -32.5h-514q-6 8 -6.5 29t6.5 36h514q6 -12 6 -32.5z" />
    <glyph glyph-name="eogonek.ss01" horiz-adv-x="1030" 
d="M565 915q-133 0 -236.5 -91t-131.5 -249q158 -74 350 -73q293 0 293 196q0 88 -71 152.5t-204 64.5zM662 -198.5q0 -55.5 27.5 -78t76.5 -22.5t96 39q29 -25 29 -53q-68 -53 -144 -53.5t-117.5 37.5t-41.5 106q0 104 119 219q-66 -16 -140 -16q-199 0 -328.5 124.5
t-129.5 359t136 378t311 143.5t269.5 -80t94.5 -213t-103.5 -195.5t-285 -62.5t-343.5 78q-2 -14 -2 -45q0 -197 105.5 -307.5t284.5 -110.5t298 119q29 -16 44 -57q-31 -29 -62 -48h2q-86 -59 -141 -132.5t-55 -129z" />
    <glyph glyph-name="g.ss01" horiz-adv-x="1116" 
d="M520 -330q160 0 255 87t95 239v166q-100 -70 -223 -84q-195 -39 -275.5 -95.5t-80.5 -146.5q0 -166 229 -166zM188 518q0 -174 112 -272.5t276.5 -98.5t293.5 97v575q-115 94 -281.5 94t-283.5 -110.5t-117 -284.5zM599 985q204 0 347 -125v-864q0 -182 -118.5 -288.5
t-288 -106.5t-248 61.5t-78.5 169.5q0 174 250 256q-160 33 -257 145.5t-97 286.5q0 213 143 339t347 126z" />
    <glyph glyph-name="gbreve.ss01" horiz-adv-x="1116" 
d="M520 -330q160 0 255 87t95 239v166q-100 -70 -223 -84q-195 -39 -275.5 -95.5t-80.5 -146.5q0 -166 229 -166zM188 518q0 -174 112 -272.5t276.5 -98.5t293.5 97v575q-115 94 -281.5 94t-283.5 -110.5t-117 -284.5zM599 985q204 0 347 -125v-864q0 -182 -118.5 -288.5
t-288 -106.5t-248 61.5t-78.5 169.5q0 174 250 256q-160 33 -257 145.5t-97 286.5q0 213 143 339t347 126zM558 1104q-103 0 -176 64.5t-83 177.5q20 14 55 10q14 -92 70.5 -140.5t133.5 -48.5t137.5 49.5t68.5 139.5q35 0 53 -8q-6 -111 -81 -177.5t-178 -66.5z" />
    <glyph glyph-name="gcommaaccent.ss01" horiz-adv-x="1116" 
d="M520 -330q160 0 255 87t95 239v166q-100 -70 -223 -84q-195 -39 -275.5 -95.5t-80.5 -146.5q0 -166 229 -166zM188 518q0 -174 112 -272.5t276.5 -98.5t293.5 97v575q-115 94 -281.5 94t-283.5 -110.5t-117 -284.5zM599 985q204 0 347 -125v-864q0 -182 -118.5 -288.5
t-288 -106.5t-248 61.5t-78.5 169.5q0 174 250 256q-160 33 -257 145.5t-97 286.5q0 213 143 339t347 126zM553 1042q-25 0 -39 7q-12 55 -12 113.5t30.5 124t79.5 102.5q23 -8 25 -27q-63 -72 -64 -191q0 -55 21 -120q-16 -9 -41 -9z" />
    <glyph glyph-name="gdotaccent.ss01" horiz-adv-x="1116" 
d="M520 -330q160 0 255 87t95 239v166q-100 -70 -223 -84q-195 -39 -275.5 -95.5t-80.5 -146.5q0 -166 229 -166zM188 518q0 -174 112 -272.5t276.5 -98.5t293.5 97v575q-115 94 -281.5 94t-283.5 -110.5t-117 -284.5zM599 985q204 0 347 -125v-864q0 -182 -118.5 -288.5
t-288 -106.5t-248 61.5t-78.5 169.5q0 174 250 256q-160 33 -257 145.5t-97 286.5q0 213 143 339t347 126zM557 1178q-29 0 -49.5 20.5t-20.5 49t20.5 50t49.5 21.5t49.5 -21.5t20.5 -50t-20.5 -49t-49.5 -20.5z" />
    <glyph glyph-name="k.ss01" horiz-adv-x="1064" 
d="M254 762q116 223 394 223q136 0 219 -78t83 -202q0 -238 -305 -320l336 -383q-29 -8 -57.5 -8t-42.5 2l-299 346q-27 33 -27 84q156 37 236.5 97.5t80.5 165.5t-65.5 164.5t-195 59.5t-243.5 -99t-114 -257v-557q-16 -6 -38.5 -6t-37.5 6v1346q14 6 37 6t39 -6v-584z" />
    <glyph glyph-name="kcommaaccent.ss01" horiz-adv-x="1064" 
d="M492.5 -82q23.5 0 39.5 -6q30 -138 -18 -238q-31 -66 -80 -102q-23 8 -24 27q63 72 63 190q0 55 -20 121q16 8 39.5 8zM254 762q116 223 394 223q136 0 219 -78t83 -202q0 -238 -305 -320l336 -383q-29 -8 -57.5 -8t-42.5 2l-299 346q-27 33 -27 84q156 37 236.5 97.5
t80.5 165.5t-65.5 164.5t-195 59.5t-243.5 -99t-114 -257v-557q-16 -6 -38.5 -6t-37.5 6v1346q14 6 37 6t39 -6v-584z" />
    <glyph glyph-name="l.ss01" horiz-adv-x="600" 
d="M399.5 -14q-104.5 0 -167 52t-62.5 159v1153q20 4 37.5 4t38.5 -4v-1149q0 -70 43 -108t116.5 -38t143.5 74q33 -14 45 -53q-90 -90 -194.5 -90z" />
    <glyph glyph-name="lacute.ss01" horiz-adv-x="600" 
d="M399.5 -14q-104.5 0 -167 52t-62.5 159v1153q20 4 37.5 4t38.5 -4v-1149q0 -70 43 -108t116.5 -38t143.5 74q33 -14 45 -53q-90 -90 -194.5 -90zM63 1401q-18 18 -18 39l338 213q37 -25 39 -72z" />
    <glyph glyph-name="lcaron.ss01" horiz-adv-x="600" 
d="M399.5 -14q-104.5 0 -167 52t-62.5 159v1153q20 4 37.5 4t38.5 -4v-1149q0 -70 43 -108t116.5 -38t143.5 74q33 -14 45 -53q-90 -90 -194.5 -90zM416 1285.5q0 103.5 -21 156.5q16 10 41 10t39 -8q10 -35 10 -105.5t-23 -142.5t-56 -109q-25 4 -35 23q45 72 45 175.5z
" />
    <glyph glyph-name="lcommaaccent.ss01" horiz-adv-x="600" 
d="M350 -211q0 55 -20 121q16 8 39.5 8t40.5 -6q12 -55 12 -113.5t-31 -124t-80 -102.5q-23 8 -24 27q63 72 63 190zM399.5 -14q-104.5 0 -167 52t-62.5 159v1153q20 4 37.5 4t38.5 -4v-1149q0 -70 43 -108t116.5 -38t143.5 74q33 -14 45 -53q-90 -90 -194.5 -90z" />
    <glyph glyph-name="ldot.ss01" horiz-adv-x="552" 
d="M458.5 606q-30.5 0 -52 20.5t-21.5 52.5t21.5 53.5t52 21.5t53.5 -21.5t23 -52.5t-23 -52.5t-53.5 -21.5zM399.5 -14q-104.5 0 -167 52t-62.5 159v1153q20 4 37.5 4t38.5 -4v-1149q0 -70 43 -108t116.5 -38t143.5 74q33 -14 45 -53q-90 -90 -194.5 -90z" />
    <glyph glyph-name="lslash.ss01" horiz-adv-x="600" 
d="M399.5 -14q-104.5 0 -167 52t-62.5 159v436l-135 -70q-27 16 -29 53l164 84v650q20 4 37.5 4t38.5 -4v-611l137 72q25 -23 29 -53l-166 -86v-471q0 -70 43 -108t116.5 -38t143.5 74q33 -14 45 -53q-90 -90 -194.5 -90z" />
    <glyph glyph-name="y.ss01" horiz-adv-x="1126" 
d="M526 -330q156 0 251 89t95 237v139q-117 -63 -254 -78q-168 -31 -239.5 -86t-71.5 -135t57.5 -123t161.5 -43zM910 958q24 0 38 -6v-956q0 -184 -117.5 -289.5t-304.5 -105.5q-143 0 -220 60t-77 163q0 174 238 246q-150 20 -226.5 114.5t-76.5 245.5v522q16 6 38.5 6
t37.5 -6v-491q0 -158 73.5 -245t245.5 -87t313 86v737q14 6 38 6z" />
    <glyph glyph-name="yacute.ss01" horiz-adv-x="1126" 
d="M526 -330q156 0 251 89t95 237v139q-117 -63 -254 -78q-168 -31 -239.5 -86t-71.5 -135t57.5 -123t161.5 -43zM910 958q24 0 38 -6v-956q0 -184 -117.5 -289.5t-304.5 -105.5q-143 0 -220 60t-77 163q0 174 238 246q-150 20 -226.5 114.5t-76.5 245.5v522q16 6 38.5 6
t37.5 -6v-491q0 -158 73.5 -245t245.5 -87t313 86v737q14 6 38 6zM422 1085q-20 16 -27 37l297 264q33 -16 51 -63z" />
    <glyph glyph-name="ycircumflex.ss01" horiz-adv-x="1126" 
d="M526 -330q156 0 251 89t95 237v139q-117 -63 -254 -78q-168 -31 -239.5 -86t-71.5 -135t57.5 -123t161.5 -43zM910 958q24 0 38 -6v-956q0 -184 -117.5 -289.5t-304.5 -105.5q-143 0 -220 60t-77 163q0 174 238 246q-150 20 -226.5 114.5t-76.5 245.5v522q16 6 38.5 6
t37.5 -6v-491q0 -158 73.5 -245t245.5 -87t313 86v737q14 6 38 6zM338 1092q-27 12 -39 43l231 245q31 6 60 0l231 -250q-14 -33 -43 -43l-221 224z" />
    <glyph glyph-name="ydieresis.ss01" horiz-adv-x="1126" 
d="M526 -330q156 0 251 89t95 237v139q-117 -63 -254 -78q-168 -31 -239.5 -86t-71.5 -135t57.5 -123t161.5 -43zM910 958q24 0 38 -6v-956q0 -184 -117.5 -289.5t-304.5 -105.5q-143 0 -220 60t-77 163q0 174 238 246q-150 20 -226.5 114.5t-76.5 245.5v522q16 6 38.5 6
t37.5 -6v-491q0 -158 73.5 -245t245.5 -87t313 86v737q14 6 38 6zM770 1167q-29 0 -48.5 19.5t-19.5 47.5t20.5 47t47.5 19t46.5 -19t19.5 -47t-18.5 -47.5t-47.5 -19.5zM352.5 1167q-28.5 0 -48 19.5t-19.5 47.5t20.5 47t47 19t46 -19t19.5 -47t-18.5 -47.5t-47 -19.5z" />
    <glyph glyph-name="ygrave.ss01" horiz-adv-x="1126" 
d="M526 -330q156 0 251 89t95 237v139q-117 -63 -254 -78q-168 -31 -239.5 -86t-71.5 -135t57.5 -123t161.5 -43zM910 958q24 0 38 -6v-956q0 -184 -117.5 -289.5t-304.5 -105.5q-143 0 -220 60t-77 163q0 174 238 246q-150 20 -226.5 114.5t-76.5 245.5v522q16 6 38.5 6
t37.5 -6v-491q0 -158 73.5 -245t245.5 -87t313 86v737q14 6 38 6zM705 1122q-6 -23 -27 -37l-322 238q18 45 52 63z" />
    <glyph glyph-name="a.ss02" horiz-adv-x="1030" 
d="M421 47q124 0 232.5 96.5t108.5 302.5v29l-289 -2q-154 0 -227.5 -57.5t-73.5 -155.5t62.5 -155.5t186.5 -57.5zM762 631q0 282 -304 282q-146 0 -280 -102q-27 16 -39 53q135 121 336 121q160 0 261.5 -85t101.5 -265v-424q0 -74 22.5 -105.5t89.5 -52.5q0 -45 -26 -65
q-78 16 -116 56t-40 122l-6 14v19q-51 -111 -148.5 -165t-225 -54t-212 74.5t-84.5 206.5t101.5 206t279.5 76h289v88z" />
    <glyph glyph-name="aacute.ss02" horiz-adv-x="1030" 
d="M421 47q124 0 232.5 96.5t108.5 302.5v29l-289 -2q-154 0 -227.5 -57.5t-73.5 -155.5t62.5 -155.5t186.5 -57.5zM762 631q0 282 -304 282q-146 0 -280 -102q-27 16 -39 53q135 121 336 121q160 0 261.5 -85t101.5 -265v-424q0 -74 22.5 -105.5t89.5 -52.5q0 -45 -26 -65
q-78 16 -116 56t-40 122l-6 14v19q-51 -111 -148.5 -165t-225 -54t-212 74.5t-84.5 206.5t101.5 206t279.5 76h289v88zM338 1085q-20 16 -27 37l297 264q33 -16 51 -63z" />
    <glyph glyph-name="abreve.ss02" horiz-adv-x="1030" 
d="M421 47q124 0 232.5 96.5t108.5 302.5v29l-289 -2q-154 0 -227.5 -57.5t-73.5 -155.5t62.5 -155.5t186.5 -57.5zM762 631q0 282 -304 282q-146 0 -280 -102q-27 16 -39 53q135 121 336 121q160 0 261.5 -85t101.5 -265v-424q0 -74 22.5 -105.5t89.5 -52.5q0 -45 -26 -65
q-78 16 -116 56t-40 122l-6 14v19q-51 -111 -148.5 -165t-225 -54t-212 74.5t-84.5 206.5t101.5 206t279.5 76h289v88zM476 1104q-103 0 -176 64.5t-83 177.5q20 14 55 10q14 -92 70.5 -140.5t133.5 -48.5t137.5 49.5t68.5 139.5q35 0 53 -8q-6 -111 -81 -177.5t-178 -66.5z
" />
    <glyph glyph-name="acircumflex.ss02" horiz-adv-x="1030" 
d="M421 47q124 0 232.5 96.5t108.5 302.5v29l-289 -2q-154 0 -227.5 -57.5t-73.5 -155.5t62.5 -155.5t186.5 -57.5zM762 631q0 282 -304 282q-146 0 -280 -102q-27 16 -39 53q135 121 336 121q160 0 261.5 -85t101.5 -265v-424q0 -74 22.5 -105.5t89.5 -52.5q0 -45 -26 -65
q-78 16 -116 56t-40 122l-6 14v19q-51 -111 -148.5 -165t-225 -54t-212 74.5t-84.5 206.5t101.5 206t279.5 76h289v88zM254 1092q-27 12 -39 43l231 245q31 6 60 0l231 -250q-14 -33 -43 -43l-221 224z" />
    <glyph glyph-name="adieresis.ss02" horiz-adv-x="1030" 
d="M421 47q124 0 232.5 96.5t108.5 302.5v29l-289 -2q-154 0 -227.5 -57.5t-73.5 -155.5t62.5 -155.5t186.5 -57.5zM762 631q0 282 -304 282q-146 0 -280 -102q-27 16 -39 53q135 121 336 121q160 0 261.5 -85t101.5 -265v-424q0 -74 22.5 -105.5t89.5 -52.5q0 -45 -26 -65
q-78 16 -116 56t-40 122l-6 14v19q-51 -111 -148.5 -165t-225 -54t-212 74.5t-84.5 206.5t101.5 206t279.5 76h289v88zM686 1167q-29 0 -48.5 19.5t-19.5 47.5t20.5 47t47.5 19t46.5 -19t19.5 -47t-18.5 -47.5t-47.5 -19.5zM268.5 1167q-28.5 0 -48 19.5t-19.5 47.5t20.5 47
t47 19t46 -19t19.5 -47t-18.5 -47.5t-47 -19.5z" />
    <glyph glyph-name="agrave.ss02" horiz-adv-x="1030" 
d="M421 47q124 0 232.5 96.5t108.5 302.5v29l-289 -2q-154 0 -227.5 -57.5t-73.5 -155.5t62.5 -155.5t186.5 -57.5zM762 631q0 282 -304 282q-146 0 -280 -102q-27 16 -39 53q135 121 336 121q160 0 261.5 -85t101.5 -265v-424q0 -74 22.5 -105.5t89.5 -52.5q0 -45 -26 -65
q-78 16 -116 56t-40 122l-6 14v19q-51 -111 -148.5 -165t-225 -54t-212 74.5t-84.5 206.5t101.5 206t279.5 76h289v88zM621 1122q-6 -23 -27 -37l-322 238q18 45 52 63z" />
    <glyph glyph-name="amacron.ss02" horiz-adv-x="1030" 
d="M421 47q124 0 232.5 96.5t108.5 302.5v29l-289 -2q-154 0 -227.5 -57.5t-73.5 -155.5t62.5 -155.5t186.5 -57.5zM762 631q0 282 -304 282q-146 0 -280 -102q-27 16 -39 53q135 121 336 121q160 0 261.5 -85t101.5 -265v-424q0 -74 22.5 -105.5t89.5 -52.5q0 -45 -26 -65
q-78 16 -116 56t-40 122l-6 14v19q-51 -111 -148.5 -165t-225 -54t-212 74.5t-84.5 206.5t101.5 206t279.5 76h289v88zM213 1203q0 21 6 36h514q6 -12 6 -32.5t-6 -32.5h-514q-6 8 -6 29z" />
    <glyph glyph-name="aogonek.ss02" horiz-adv-x="1026" 
d="M414 47q158 0 262 121q37 43 61 116q25 73 25 162v29l-289 -2q-153 0 -227 -57q-74 -56 -74 -156t61 -157q62 -56 181 -56zM796 -299q48 0 97 39q33 -16 33 -51q-72 -55 -148 -55t-120 38q-44 39 -44 113t58 137t166 101q-61 33 -70 143l-6 14v15q-54 -109 -152 -162
t-200 -53q-150 0 -234 74t-84 207q0 132 102 206t279 76h289v90q0 143 -79 212t-223 69t-280 -103q-31 16 -41 53q152 121 324 121t273 -85t102 -265v-408q0 -87 22 -119t88 -42q0 -43 -16 -68q-119 -25 -180 -82q-62 -56 -62 -112t29 -80t77 -23z" />
    <glyph glyph-name="aring.ss02" horiz-adv-x="1030" 
d="M421 47q124 0 232.5 96.5t108.5 302.5v29l-289 -2q-154 0 -227.5 -57.5t-73.5 -155.5t62.5 -155.5t186.5 -57.5zM762 631q0 282 -304 282q-146 0 -280 -102q-27 16 -39 53q135 121 336 121q160 0 261.5 -85t101.5 -265v-424q0 -74 22.5 -105.5t89.5 -52.5q0 -45 -26 -65
q-78 16 -116 56t-40 122l-6 14v19q-51 -111 -148.5 -165t-225 -54t-212 74.5t-84.5 206.5t101.5 206t279.5 76h289v88zM478 1360q-52 0 -87 -37t-35 -87t35 -87t87 -37t85 36t33 87t-33 88t-85 37zM476 1053q-75 0 -128 53t-53 129t53 129t128 53t128 -53t53 -129t-53 -129
t-128 -53z" />
    <glyph glyph-name="atilde.ss02" horiz-adv-x="1030" 
d="M421 47q124 0 232.5 96.5t108.5 302.5v29l-289 -2q-154 0 -227.5 -57.5t-73.5 -155.5t62.5 -155.5t186.5 -57.5zM762 631q0 282 -304 282q-146 0 -280 -102q-27 16 -39 53q135 121 336 121q160 0 261.5 -85t101.5 -265v-424q0 -74 22.5 -105.5t89.5 -52.5q0 -45 -26 -65
q-78 16 -116 56t-40 122l-6 14v19q-51 -111 -148.5 -165t-225 -54t-212 74.5t-84.5 206.5t101.5 206t279.5 76h289v88zM344 1251q-92 0 -123 -92q-37 0 -61 21q49 139 180 139q55 -2 144 -46t130 -44q88 0 121 90q37 0 58 -21q-20 -63 -66.5 -100t-106 -37t-147.5 45
t-129 45z" />
    <glyph glyph-name="e.ss02" horiz-adv-x="1050" 
d="M565 915q-164 0 -271.5 -120.5t-105.5 -311.5v-22l680 207q-8 88 -91 167.5t-212 79.5zM577.5 -20q-204.5 0 -335.5 134t-131 364t133 368.5t309 138.5t285.5 -105.5t117.5 -252.5l-759 -232q25 -162 127 -254t269 -92t302 115q33 -18 41 -55q-154 -129 -358.5 -129z" />
    <glyph glyph-name="eacute.ss02" horiz-adv-x="1050" 
d="M565 915q-164 0 -271.5 -120.5t-105.5 -311.5v-22l680 207q-8 88 -91 167.5t-212 79.5zM577.5 -20q-204.5 0 -335.5 134t-131 364t133 368.5t309 138.5t285.5 -105.5t117.5 -252.5l-759 -232q25 -162 127 -254t269 -92t302 115q33 -18 41 -55q-154 -129 -358.5 -129z
M410 1085q-20 16 -27 37l297 264q33 -16 51 -63z" />
    <glyph glyph-name="ecaron.ss02" horiz-adv-x="1050" 
d="M565 915q-164 0 -271.5 -120.5t-105.5 -311.5v-22l680 207q-8 88 -91 167.5t-212 79.5zM577.5 -20q-204.5 0 -335.5 134t-131 364t133 368.5t309 138.5t285.5 -105.5t117.5 -252.5l-759 -232q25 -162 127 -254t269 -92t302 115q33 -18 41 -55q-154 -129 -358.5 -129z
M575 1096q-31 -6 -59 0l-229 250q10 33 41 43l219 -224l221 219q29 -12 41 -43z" />
    <glyph glyph-name="ecircumflex.ss02" horiz-adv-x="1050" 
d="M565 915q-164 0 -271.5 -120.5t-105.5 -311.5v-22l680 207q-8 88 -91 167.5t-212 79.5zM577.5 -20q-204.5 0 -335.5 134t-131 364t133 368.5t309 138.5t285.5 -105.5t117.5 -252.5l-759 -232q25 -162 127 -254t269 -92t302 115q33 -18 41 -55q-154 -129 -358.5 -129z
M324 1092q-27 12 -39 43l231 245q31 6 59 0l232 -250q-14 -33 -43 -43l-221 224z" />
    <glyph glyph-name="edieresis.ss02" horiz-adv-x="1050" 
d="M565 915q-164 0 -271.5 -120.5t-105.5 -311.5v-22l680 207q-8 88 -91 167.5t-212 79.5zM577.5 -20q-204.5 0 -335.5 134t-131 364t133 368.5t309 138.5t285.5 -105.5t117.5 -252.5l-759 -232q25 -162 127 -254t269 -92t302 115q33 -18 41 -55q-154 -129 -358.5 -129z
M757.5 1167q-28.5 0 -48 19.5t-19.5 47.5t20.5 47t47 19t46 -19t19.5 -47t-18.5 -47.5t-47 -19.5zM340 1167q-29 0 -48.5 19.5t-19.5 47.5t20.5 47t47.5 19t46.5 -19t19.5 -47t-18.5 -47.5t-47.5 -19.5z" />
    <glyph glyph-name="edotaccent.ss02" horiz-adv-x="1050" 
d="M565 915q-164 0 -271.5 -120.5t-105.5 -311.5v-22l680 207q-8 88 -91 167.5t-212 79.5zM577.5 -20q-204.5 0 -335.5 134t-131 364t133 368.5t309 138.5t285.5 -105.5t117.5 -252.5l-759 -232q25 -162 127 -254t269 -92t302 115q33 -18 41 -55q-154 -129 -358.5 -129z
M546.5 1178q-28.5 0 -49 20.5t-20.5 49t20.5 50t49 21.5t49 -21.5t20.5 -50t-20.5 -49t-49 -20.5z" />
    <glyph glyph-name="egrave.ss02" horiz-adv-x="1050" 
d="M565 915q-164 0 -271.5 -120.5t-105.5 -311.5v-22l680 207q-8 88 -91 167.5t-212 79.5zM577.5 -20q-204.5 0 -335.5 134t-131 364t133 368.5t309 138.5t285.5 -105.5t117.5 -252.5l-759 -232q25 -162 127 -254t269 -92t302 115q33 -18 41 -55q-154 -129 -358.5 -129z
M690 1122q-6 -23 -26 -37l-322 238q18 45 51 63z" />
    <glyph glyph-name="emacron.ss02" horiz-adv-x="1050" 
d="M565 915q-164 0 -271.5 -120.5t-105.5 -311.5v-22l680 207q-8 88 -91 167.5t-212 79.5zM577.5 -20q-204.5 0 -335.5 134t-131 364t133 368.5t309 138.5t285.5 -105.5t117.5 -252.5l-759 -232q25 -162 127 -254t269 -92t302 115q33 -18 41 -55q-154 -129 -358.5 -129z
M283 1203q0 21 6 36h514q6 -12 6 -32.5t-6 -32.5h-514q-6 8 -6 29z" />
    <glyph glyph-name="eogonek.ss02" horiz-adv-x="1050" 
d="M565 915q-164 0 -271.5 -120.5t-105.5 -311.5v-22l680 207q-8 88 -91 167.5t-212 79.5zM672 -209q0 -90 104 -90q49 0 96 39q29 -25 29 -53q-68 -53 -143.5 -53.5t-117.5 37.5t-42 106q0 106 117 219q-66 -16 -135 -16q-207 0 -338 134t-131 364t133 368.5t309 138.5
t285.5 -105.5t117.5 -252.5l-759 -232q25 -162 127 -254t269 -92t302 115q33 -18 41 -55q-37 -31 -92 -64q-172 -131 -172 -254z" />
    <glyph glyph-name="g.ss02" horiz-adv-x="1005" 
d="M504 907q-137 0 -218 -74.5t-81 -196.5t76.5 -191.5t205.5 -69.5t207 66.5t82 189.5q4 162 -123 276h-149zM489 309q-102 0 -186 37q-76 -57 -76 -131q0 -98 158 -98h223q291 0 291 -232q0 -133 -113.5 -209.5t-335 -76.5t-362.5 110q12 41 47 60q37 -29 70 -47
q92 -52 266 -52t265 55.5t91 155.5q0 166 -225 166h-219q-229 0 -229 160q0 96 96 172q-121 86 -121 247t105.5 255t269.5 94h168q94 0 146 21.5t85 80.5q40 -10 58 -41q-70 -119 -222 -129q113 -104 113 -276q-2 -143 -103.5 -232.5t-259.5 -89.5z" />
    <glyph glyph-name="gbreve.ss02" horiz-adv-x="1005" 
d="M504 907q-137 0 -218 -74.5t-81 -196.5t76.5 -191.5t205.5 -69.5t207 66.5t82 189.5q4 162 -123 276h-149zM489 309q-102 0 -186 37q-76 -57 -76 -131q0 -98 158 -98h223q291 0 291 -232q0 -133 -113.5 -209.5t-335 -76.5t-362.5 110q12 41 47 60q37 -29 70 -47
q92 -52 266 -52t265 55.5t91 155.5q0 166 -225 166h-219q-229 0 -229 160q0 96 96 172q-121 86 -121 247t105.5 255t269.5 94h168q94 0 146 21.5t85 80.5q40 -10 58 -41q-70 -119 -222 -129q113 -104 113 -276q-2 -143 -103.5 -232.5t-259.5 -89.5zM493 1104
q-103 0 -176 64.5t-84 177.5q20 14 56 10q14 -92 70.5 -140.5t133.5 -48.5t137 49.5t68 139.5q35 0 54 -8q-6 -111 -81 -177.5t-178 -66.5z" />
    <glyph glyph-name="gcommaaccent.ss02" horiz-adv-x="1005" 
d="M504 907q-137 0 -218 -74.5t-81 -196.5t76.5 -191.5t205.5 -69.5t207 66.5t82 189.5q4 162 -123 276h-149zM489 309q-102 0 -186 37q-76 -57 -76 -131q0 -98 158 -98h223q291 0 291 -232q0 -133 -113.5 -209.5t-335 -76.5t-362.5 110q12 41 47 60q37 -29 70 -47
q92 -52 266 -52t265 55.5t91 155.5q0 166 -225 166h-219q-229 0 -229 160q0 96 96 172q-121 86 -121 247t105.5 255t269.5 94h168q94 0 146 21.5t85 80.5q40 -10 58 -41q-70 -119 -222 -129q113 -104 113 -276q-2 -143 -103.5 -232.5t-259.5 -89.5zM487 1042q-25 0 -38 7
q-30 137 18 237q31 66 80 103q23 -8 24 -27q-63 -72 -63 -191q0 -55 20 -120q-16 -9 -41 -9z" />
    <glyph glyph-name="gdotaccent.ss02" horiz-adv-x="1005" 
d="M504 907q-137 0 -218 -74.5t-81 -196.5t76.5 -191.5t205.5 -69.5t207 66.5t82 189.5q4 162 -123 276h-149zM489 309q-102 0 -186 37q-76 -57 -76 -131q0 -98 158 -98h223q291 0 291 -232q0 -133 -113.5 -209.5t-335 -76.5t-362.5 110q12 41 47 60q37 -29 70 -47
q92 -52 266 -52t265 55.5t91 155.5q0 166 -225 166h-219q-229 0 -229 160q0 96 96 172q-121 86 -121 247t105.5 255t269.5 94h168q94 0 146 21.5t85 80.5q40 -10 58 -41q-70 -119 -222 -129q113 -104 113 -276q-2 -143 -103.5 -232.5t-259.5 -89.5zM491.5 1178
q-28.5 0 -49 20.5t-20.5 49t20.5 50t49 21.5t49 -21.5t20.5 -50t-20.5 -49t-49 -20.5z" />
    <glyph glyph-name="w.ss02" horiz-adv-x="1501" 
d="M1376.5 956q22.5 0 40.5 -6q-33 -236 -131 -509t-199 -443q-15 -6 -39 -6t-36 6q-78 150 -155 369t-109 424q-35 -209 -111 -430.5t-152 -362.5q-14 -6 -38.5 -6t-36.5 6q-98 160 -191.5 432t-134.5 520q18 6 40 6t32 -4q45 -227 131 -488t149 -376q8 -16 10 -27l13 27
q63 129 142 381t110 467q16 4 40 4t40 -4q25 -221 102.5 -465t146.5 -383l13 -25q8 16 10 25q70 111 159 374t124 490q8 4 30.5 4z" />
    <glyph glyph-name="wacute.ss02" horiz-adv-x="1501" 
d="M1376.5 956q22.5 0 40.5 -6q-33 -236 -131 -509t-199 -443q-15 -6 -39 -6t-36 6q-78 150 -155 369t-109 424q-35 -209 -111 -430.5t-152 -362.5q-14 -6 -38.5 -6t-36.5 6q-98 160 -191.5 432t-134.5 520q18 6 40 6t32 -4q45 -227 131 -488t149 -376q8 -16 10 -27l13 27
q63 129 142 381t110 467q16 4 40 4t40 -4q25 -221 102.5 -465t146.5 -383l13 -25q8 16 10 25q70 111 159 374t124 490q8 4 30.5 4zM612 1085q-20 16 -26 37l297 264q33 -16 51 -63z" />
    <glyph glyph-name="wcircumflex.ss02" horiz-adv-x="1501" 
d="M1376.5 956q22.5 0 40.5 -6q-33 -236 -131 -509t-199 -443q-15 -6 -39 -6t-36 6q-78 150 -155 369t-109 424q-35 -209 -111 -430.5t-152 -362.5q-14 -6 -38.5 -6t-36.5 6q-98 160 -191.5 432t-134.5 520q18 6 40 6t32 -4q45 -227 131 -488t149 -376q8 -16 10 -27l13 27
q63 129 142 381t110 467q16 4 40 4t40 -4q25 -221 102.5 -465t146.5 -383l13 -25q8 16 10 25q70 111 159 374t124 490q8 4 30.5 4zM528 1092q-27 12 -39 43l232 245q31 6 59 0l232 -250q-14 -33 -43 -43l-221 224z" />
    <glyph glyph-name="wdieresis.ss02" horiz-adv-x="1501" 
d="M1376.5 956q22.5 0 40.5 -6q-33 -236 -131 -509t-199 -443q-15 -6 -39 -6t-36 6q-78 150 -155 369t-109 424q-35 -209 -111 -430.5t-152 -362.5q-14 -6 -38.5 -6t-36.5 6q-98 160 -191.5 432t-134.5 520q18 6 40 6t32 -4q45 -227 131 -488t149 -376q8 -16 10 -27l13 27
q63 129 142 381t110 467q16 4 40 4t40 -4q25 -221 102.5 -465t146.5 -383l13 -25q8 16 10 25q70 111 159 374t124 490q8 4 30.5 4zM960.5 1167q-28.5 0 -48 19.5t-19.5 47.5t20.5 47t47 19t46 -19t19.5 -47t-18.5 -47.5t-47 -19.5zM542.5 1167q-28.5 0 -48 19.5t-19.5 47.5
t20.5 47t47 19t46 -19t19.5 -47t-18.5 -47.5t-47 -19.5z" />
    <glyph glyph-name="wgrave.ss02" horiz-adv-x="1501" 
d="M1376.5 956q22.5 0 40.5 -6q-33 -236 -131 -509t-199 -443q-15 -6 -39 -6t-36 6q-78 150 -155 369t-109 424q-35 -209 -111 -430.5t-152 -362.5q-14 -6 -38.5 -6t-36.5 6q-98 160 -191.5 432t-134.5 520q18 6 40 6t32 -4q45 -227 131 -488t149 -376q8 -16 10 -27l13 27
q63 129 142 381t110 467q16 4 40 4t40 -4q25 -221 102.5 -465t146.5 -383l13 -25q8 16 10 25q70 111 159 374t124 490q8 4 30.5 4zM895 1122q-6 -23 -27 -37l-321 238q18 45 51 63z" />
    <glyph glyph-name="y.ss02" horiz-adv-x="1126" 
d="M910 958q24 0 38 -6v-942q0 -184 -110.5 -292.5t-294.5 -108.5q-244 0 -371 143q14 39 51 51q121 -125 320 -125q158 0 243.5 88.5t85.5 243.5v103q-145 -82 -331.5 -82t-281.5 100t-95 275v546q16 6 38.5 6t37.5 -6v-526q0 -322 325 -322q170 0 307 89v759q14 6 38 6z
" />
    <glyph glyph-name="yacute.ss02" horiz-adv-x="1126" 
d="M910 958q24 0 38 -6v-942q0 -184 -110.5 -292.5t-294.5 -108.5q-244 0 -371 143q14 39 51 51q121 -125 320 -125q158 0 243.5 88.5t85.5 243.5v103q-145 -82 -331.5 -82t-281.5 100t-95 275v546q16 6 38.5 6t37.5 -6v-526q0 -322 325 -322q170 0 307 89v759q14 6 38 6z
M422 1085q-20 16 -27 37l297 264q33 -16 51 -63z" />
    <glyph glyph-name="ycircumflex.ss02" horiz-adv-x="1126" 
d="M910 958q24 0 38 -6v-942q0 -184 -110.5 -292.5t-294.5 -108.5q-244 0 -371 143q14 39 51 51q121 -125 320 -125q158 0 243.5 88.5t85.5 243.5v103q-145 -82 -331.5 -82t-281.5 100t-95 275v546q16 6 38.5 6t37.5 -6v-526q0 -322 325 -322q170 0 307 89v759q14 6 38 6z
M338 1092q-27 12 -39 43l231 245q31 6 60 0l231 -250q-14 -33 -43 -43l-221 224z" />
    <glyph glyph-name="ydieresis.ss02" horiz-adv-x="1126" 
d="M910 958q24 0 38 -6v-942q0 -184 -110.5 -292.5t-294.5 -108.5q-244 0 -371 143q14 39 51 51q121 -125 320 -125q158 0 243.5 88.5t85.5 243.5v103q-145 -82 -331.5 -82t-281.5 100t-95 275v546q16 6 38.5 6t37.5 -6v-526q0 -322 325 -322q170 0 307 89v759q14 6 38 6z
M770 1167q-29 0 -48.5 19.5t-19.5 47.5t20.5 47t47.5 19t46.5 -19t19.5 -47t-18.5 -47.5t-47.5 -19.5zM352.5 1167q-28.5 0 -48 19.5t-19.5 47.5t20.5 47t47 19t46 -19t19.5 -47t-18.5 -47.5t-47 -19.5z" />
    <glyph glyph-name="ygrave.ss02" horiz-adv-x="1126" 
d="M910 958q24 0 38 -6v-942q0 -184 -110.5 -292.5t-294.5 -108.5q-244 0 -371 143q14 39 51 51q121 -125 320 -125q158 0 243.5 88.5t85.5 243.5v103q-145 -82 -331.5 -82t-281.5 100t-95 275v546q16 6 38.5 6t37.5 -6v-526q0 -322 325 -322q170 0 307 89v759q14 6 38 6z
M705 1122q-6 -23 -27 -37l-322 238q18 45 52 63z" />
    <glyph glyph-name="a.ss03" horiz-adv-x="1011" 
d="M172 285q0 -236 307 -236q176 0 303 60v362h-350q-129 0 -194.5 -50t-65.5 -136zM782 625q0 288 -318 288q-154 0 -284 -102q-29 16 -41 53q135 121 321.5 121t292 -85t105.5 -265v-572q-156 -83 -360 -83q-406 1 -406 294q0 125 90 196t250 71h350v84z" />
    <glyph glyph-name="aacute.ss03" horiz-adv-x="1011" 
d="M172 285q0 -236 307 -236q176 0 303 60v362h-350q-129 0 -194.5 -50t-65.5 -136zM782 625q0 288 -318 288q-154 0 -284 -102q-29 16 -41 53q135 121 321.5 121t292 -85t105.5 -265v-572q-156 -83 -360 -83q-406 1 -406 294q0 125 90 196t250 71h350v84zM344 1085
q-20 16 -27 37l297 264q33 -16 52 -63z" />
    <glyph glyph-name="abreve.ss03" horiz-adv-x="1011" 
d="M172 285q0 -236 307 -236q176 0 303 60v362h-350q-129 0 -194.5 -50t-65.5 -136zM782 625q0 288 -318 288q-154 0 -284 -102q-29 16 -41 53q135 121 321.5 121t292 -85t105.5 -265v-572q-156 -83 -360 -83q-406 1 -406 294q0 125 90 196t250 71h350v84zM482 1104
q-103 0 -176 64.5t-83 177.5q20 14 56 10q14 -92 70.5 -140.5t133 -48.5t137 49.5t68.5 139.5q35 0 53 -8q-6 -111 -81 -177.5t-178 -66.5z" />
    <glyph glyph-name="acircumflex.ss03" horiz-adv-x="1011" 
d="M172 285q0 -236 307 -236q176 0 303 60v362h-350q-129 0 -194.5 -50t-65.5 -136zM782 625q0 288 -318 288q-154 0 -284 -102q-29 16 -41 53q135 121 321.5 121t292 -85t105.5 -265v-572q-156 -83 -360 -83q-406 1 -406 294q0 125 90 196t250 71h350v84zM260 1092
q-27 12 -39 43l232 245q31 6 59 0l231 -250q-14 -33 -43 -43l-221 224z" />
    <glyph glyph-name="adieresis.ss03" horiz-adv-x="1011" 
d="M172 285q0 -236 307 -236q176 0 303 60v362h-350q-129 0 -194.5 -50t-65.5 -136zM782 625q0 288 -318 288q-154 0 -284 -102q-29 16 -41 53q135 121 321.5 121t292 -85t105.5 -265v-572q-156 -83 -360 -83q-406 1 -406 294q0 125 90 196t250 71h350v84zM692.5 1167
q-28.5 0 -48 19.5t-19.5 47.5t20.5 47t47 19t46 -19t19.5 -47t-18.5 -47.5t-47 -19.5zM274.5 1167q-28.5 0 -48 19.5t-19.5 47.5t20.5 47t47 19t46 -19t19.5 -47t-18.5 -47.5t-47 -19.5z" />
    <glyph glyph-name="agrave.ss03" horiz-adv-x="1011" 
d="M172 285q0 -236 307 -236q176 0 303 60v362h-350q-129 0 -194.5 -50t-65.5 -136zM782 625q0 288 -318 288q-154 0 -284 -102q-29 16 -41 53q135 121 321.5 121t292 -85t105.5 -265v-572q-156 -83 -360 -83q-406 1 -406 294q0 125 90 196t250 71h350v84zM627 1122
q-6 -23 -27 -37l-321 238q18 45 51 63z" />
    <glyph glyph-name="amacron.ss03" horiz-adv-x="1011" 
d="M172 285q0 -236 307 -236q176 0 303 60v362h-350q-129 0 -194.5 -50t-65.5 -136zM782 625q0 288 -318 288q-154 0 -284 -102q-29 16 -41 53q135 121 321.5 121t292 -85t105.5 -265v-572q-156 -83 -360 -83q-406 1 -406 294q0 125 90 196t250 71h350v84zM219 1203
q0 21 6 36h514q6 -12 6 -32.5t-6 -32.5h-514q-6 8 -6 29z" />
    <glyph glyph-name="aogonek.ss03" horiz-adv-x="1011" 
d="M172 285q0 -236 307 -236q176 0 303 60v362h-350q-129 0 -194.5 -50t-65.5 -136zM782 625q0 288 -318 288q-154 0 -284 -102q-29 16 -41 53q135 121 321.5 121t292 -85t105.5 -265v-572q-86 -59 -141 -132.5t-55 -129t27.5 -78t76.5 -22.5t96 39q29 -25 29 -53
q-68 -53 -144 -53.5t-117.5 37.5t-41.5 106q0 113 133 233q-123 -31 -242 -30q-186 0 -286.5 74.5t-100.5 209.5t90 206t250 71h350v84z" />
    <glyph glyph-name="aring.ss03" horiz-adv-x="1011" 
d="M172 285q0 -236 307 -236q176 0 303 60v362h-350q-129 0 -194.5 -50t-65.5 -136zM782 625q0 288 -318 288q-154 0 -284 -102q-29 16 -41 53q135 121 321.5 121t292 -85t105.5 -265v-572q-156 -83 -360 -83q-406 1 -406 294q0 125 90 196t250 71h350v84zM484 1360
q-52 0 -87 -37t-35 -87t35 -87t87 -37t85 36t33 87t-33 88t-85 37zM482 1053q-75 0 -128 53t-53 129t53.5 129t128 53t128 -53t53.5 -129t-53.5 -129t-128.5 -53z" />
    <glyph glyph-name="atilde.ss03" horiz-adv-x="1011" 
d="M172 285q0 -236 307 -236q176 0 303 60v362h-350q-129 0 -194.5 -50t-65.5 -136zM782 625q0 288 -318 288q-154 0 -284 -102q-29 16 -41 53q135 121 321.5 121t292 -85t105.5 -265v-572q-156 -83 -360 -83q-406 1 -406 294q0 125 90 196t250 71h350v84zM350 1251
q-92 0 -123 -92q-37 0 -61 21q49 139 180 139q55 -2 144.5 -46t130.5 -44q88 0 120 90q37 0 58 -21q-20 -63 -66.5 -100t-105.5 -37t-147.5 45t-129.5 45z" />
    <glyph glyph-name="e.ss03" horiz-adv-x="1034" 
d="M588 915q-162 0 -273.5 -108.5t-124.5 -280.5h435q102 0 161.5 46t59.5 135.5t-71.5 148.5t-186.5 59zM109 469q0 233 139 374.5t340 141.5q150 0 245 -78t95 -199.5t-83 -184t-224 -62.5h-435q2 -188 105.5 -300t276 -112t311.5 111q31 -14 41 -54
q-156 -127 -357 -126.5t-327.5 128.5t-126.5 361z" />
    <glyph glyph-name="eacute.ss03" horiz-adv-x="1034" 
d="M588 915q-162 0 -273.5 -108.5t-124.5 -280.5h435q102 0 161.5 46t59.5 135.5t-71.5 148.5t-186.5 59zM109 469q0 233 139 374.5t340 141.5q150 0 245 -78t95 -199.5t-83 -184t-224 -62.5h-435q2 -188 105.5 -300t276 -112t311.5 111q31 -14 41 -54
q-156 -127 -357 -126.5t-327.5 128.5t-126.5 361zM408 1085q-20 16 -27 37l297 264q33 -16 51 -63z" />
    <glyph glyph-name="ecaron.ss03" horiz-adv-x="1034" 
d="M588 915q-162 0 -273.5 -108.5t-124.5 -280.5h435q102 0 161.5 46t59.5 135.5t-71.5 148.5t-186.5 59zM109 469q0 233 139 374.5t340 141.5q150 0 245 -78t95 -199.5t-83 -184t-224 -62.5h-435q2 -188 105.5 -300t276 -112t311.5 111q31 -14 41 -54
q-156 -127 -357 -126.5t-327.5 128.5t-126.5 361zM575 1096q-31 -6 -59 0l-229 250q10 33 41 43l219 -224l221 219q29 -12 41 -43z" />
    <glyph glyph-name="ecircumflex.ss03" horiz-adv-x="1034" 
d="M588 915q-162 0 -273.5 -108.5t-124.5 -280.5h435q102 0 161.5 46t59.5 135.5t-71.5 148.5t-186.5 59zM109 469q0 233 139 374.5t340 141.5q150 0 245 -78t95 -199.5t-83 -184t-224 -62.5h-435q2 -188 105.5 -300t276 -112t311.5 111q31 -14 41 -54
q-156 -127 -357 -126.5t-327.5 128.5t-126.5 361zM324 1092q-27 12 -39 43l231 245q31 6 59 0l232 -250q-14 -33 -43 -43l-221 224z" />
    <glyph glyph-name="edieresis.ss03" horiz-adv-x="1034" 
d="M588 915q-162 0 -273.5 -108.5t-124.5 -280.5h435q102 0 161.5 46t59.5 135.5t-71.5 148.5t-186.5 59zM109 469q0 233 139 374.5t340 141.5q150 0 245 -78t95 -199.5t-83 -184t-224 -62.5h-435q2 -188 105.5 -300t276 -112t311.5 111q31 -14 41 -54
q-156 -127 -357 -126.5t-327.5 128.5t-126.5 361zM755.5 1167q-28.5 0 -48 19.5t-19.5 47.5t20.5 47t47 19t46 -19t19.5 -47t-18.5 -47.5t-47 -19.5zM338 1167q-29 0 -48.5 19.5t-19.5 47.5t20.5 47t47.5 19t46 -19t19 -47t-18 -47.5t-47 -19.5z" />
    <glyph glyph-name="edotaccent.ss03" horiz-adv-x="1034" 
d="M588 915q-162 0 -273.5 -108.5t-124.5 -280.5h435q102 0 161.5 46t59.5 135.5t-71.5 148.5t-186.5 59zM109 469q0 233 139 374.5t340 141.5q150 0 245 -78t95 -199.5t-83 -184t-224 -62.5h-435q2 -188 105.5 -300t276 -112t311.5 111q31 -14 41 -54
q-156 -127 -357 -126.5t-327.5 128.5t-126.5 361zM544.5 1178q-28.5 0 -49 20.5t-20.5 49t20.5 50t49 21.5t49 -21.5t20.5 -50t-20.5 -49t-49 -20.5z" />
    <glyph glyph-name="egrave.ss03" horiz-adv-x="1034" 
d="M588 915q-162 0 -273.5 -108.5t-124.5 -280.5h435q102 0 161.5 46t59.5 135.5t-71.5 148.5t-186.5 59zM109 469q0 233 139 374.5t340 141.5q150 0 245 -78t95 -199.5t-83 -184t-224 -62.5h-435q2 -188 105.5 -300t276 -112t311.5 111q31 -14 41 -54
q-156 -127 -357 -126.5t-327.5 128.5t-126.5 361zM690 1122q-6 -23 -26 -37l-322 238q18 45 51 63z" />
    <glyph glyph-name="emacron.ss03" horiz-adv-x="1034" 
d="M588 915q-162 0 -273.5 -108.5t-124.5 -280.5h435q102 0 161.5 46t59.5 135.5t-71.5 148.5t-186.5 59zM109 469q0 233 139 374.5t340 141.5q150 0 245 -78t95 -199.5t-83 -184t-224 -62.5h-435q2 -188 105.5 -300t276 -112t311.5 111q31 -14 41 -54
q-156 -127 -357 -126.5t-327.5 128.5t-126.5 361zM283 1203q0 21 6 36h514q6 -12 6 -32.5t-6 -32.5h-514q-6 8 -6 29z" />
    <glyph glyph-name="eogonek.ss03" horiz-adv-x="1034" 
d="M588 915q-162 0 -273.5 -108.5t-124.5 -280.5h435q102 0 161.5 46t59.5 135.5t-71.5 148.5t-186.5 59zM766 -297q49 0 96 39q29 -25 29 -53q-68 -53 -144 -53.5t-117.5 37.5t-41.5 106q0 102 114 217q-66 -16 -139 -16q-201 0 -327.5 128t-126.5 361t139 374.5t340 141.5
q150 0 245 -78t95 -199.5t-83 -184t-224 -62.5h-435q2 -188 105.5 -300t275.5 -112t312 111q31 -14 41 -54q-58 -45 -91 -61q-168 -131 -167 -252q0 -90 104 -90z" />
    <glyph glyph-name="g.ss03" horiz-adv-x="1050" 
d="M508 901q-150 0 -241 -85t-93 -224t81 -224t225 -85t227.5 83t87.5 228q4 174 -133 307h-154zM926 17.5q0 -185.5 -129 -298t-316 -112.5q-240 0 -375 166q18 37 56 51q113 -145 319 -146q162 0 262.5 94.5t103.5 248t-136 255.5q-102 -66 -228 -65q-182 0 -284.5 107.5
t-102.5 274.5t118 274.5t296 107.5h168q100 0 153.5 21.5t88.5 82.5q43 -10 61 -43q-76 -125 -233 -135q123 -117 122.5 -292t-100.5 -281q156 -125 156 -310.5z" />
    <glyph glyph-name="gbreve.ss03" horiz-adv-x="1050" 
d="M508 901q-150 0 -241 -85t-93 -224t81 -224t225 -85t227.5 83t87.5 228q4 174 -133 307h-154zM926 17.5q0 -185.5 -129 -298t-316 -112.5q-240 0 -375 166q18 37 56 51q113 -145 319 -146q162 0 262.5 94.5t103.5 248t-136 255.5q-102 -66 -228 -65q-182 0 -284.5 107.5
t-102.5 274.5t118 274.5t296 107.5h168q100 0 153.5 21.5t88.5 82.5q43 -10 61 -43q-76 -125 -233 -135q123 -117 122.5 -292t-100.5 -281q156 -125 156 -310.5zM488 1104q-103 0 -175.5 64.5t-83.5 177.5q20 14 56 10q14 -92 70.5 -140.5t133 -48.5t137 49.5t68.5 139.5
q35 0 54 -8q-6 -111 -81.5 -177.5t-178.5 -66.5z" />
    <glyph glyph-name="gcommaaccent.ss03" horiz-adv-x="1050" 
d="M508 901q-150 0 -241 -85t-93 -224t81 -224t225 -85t227.5 83t87.5 228q4 174 -133 307h-154zM926 17.5q0 -185.5 -129 -298t-316 -112.5q-240 0 -375 166q18 37 56 51q113 -145 319 -146q162 0 262.5 94.5t103.5 248t-136 255.5q-102 -66 -228 -65q-182 0 -284.5 107.5
t-102.5 274.5t118 274.5t296 107.5h168q100 0 153.5 21.5t88.5 82.5q43 -10 61 -43q-76 -125 -233 -135q123 -117 122.5 -292t-100.5 -281q156 -125 156 -310.5zM483 1042q-25 0 -39 7q-12 55 -12 113.5t31 124t80 102.5q23 -8 24 -27q-63 -72 -63 -191q0 -55 20 -120
q-16 -9 -41 -9z" />
    <glyph glyph-name="gdotaccent.ss03" horiz-adv-x="1050" 
d="M508 901q-150 0 -241 -85t-93 -224t81 -224t225 -85t227.5 83t87.5 228q4 174 -133 307h-154zM926 17.5q0 -185.5 -129 -298t-316 -112.5q-240 0 -375 166q18 37 56 51q113 -145 319 -146q162 0 262.5 94.5t103.5 248t-136 255.5q-102 -66 -228 -65q-182 0 -284.5 107.5
t-102.5 274.5t118 274.5t296 107.5h168q100 0 153.5 21.5t88.5 82.5q43 -10 61 -43q-76 -125 -233 -135q123 -117 122.5 -292t-100.5 -281q156 -125 156 -310.5zM487.5 1178q-28.5 0 -49 20.5t-20.5 49t20.5 50t49 21.5t49 -21.5t20.5 -50t-20.5 -49t-49 -20.5z" />
    <glyph glyph-name="g.ss04" horiz-adv-x="1017" 
d="M492 356q131 0 208.5 73t77.5 212.5t-114 255.5l-152 2q-141 0 -222 -73.5t-81 -200.5t76 -198t207 -71zM858 630q0 -156 -101.5 -250.5t-262.5 -94.5h-119q-70 0 -109 -42t-39 -98t39 -93.5t115 -37.5h487q6 -14 6 -36.5t-6 -36.5h-487q-115 0 -174.5 54t-59.5 148
q0 141 148 191q-166 84 -166 287q0 160 106.5 257t276.5 95l166 -2q98 0 151.5 22.5t85.5 81.5q39 -8 62 -41q-72 -121 -225 -135q106 -113 106 -269z" />
    <glyph glyph-name="gbreve.ss04" horiz-adv-x="1017" 
d="M492 356q131 0 208.5 73t77.5 212.5t-114 255.5l-152 2q-141 0 -222 -73.5t-81 -200.5t76 -198t207 -71zM858 630q0 -156 -101.5 -250.5t-262.5 -94.5h-119q-70 0 -109 -42t-39 -98t39 -93.5t115 -37.5h487q6 -14 6 -36.5t-6 -36.5h-487q-115 0 -174.5 54t-59.5 148
q0 141 148 191q-166 84 -166 287q0 160 106.5 257t276.5 95l166 -2q98 0 151.5 22.5t85.5 81.5q39 -8 62 -41q-72 -121 -225 -135q106 -113 106 -269zM503 1104q-103 0 -176 64.5t-83 177.5q20 14 55 10q14 -92 70.5 -140.5t133.5 -48.5t137 49.5t69 139.5q35 0 53 -8
q-6 -111 -81 -177.5t-178 -66.5z" />
    <glyph glyph-name="gcommaaccent.ss04" horiz-adv-x="1017" 
d="M492 356q131 0 208.5 73t77.5 212.5t-114 255.5l-152 2q-141 0 -222 -73.5t-81 -200.5t76 -198t207 -71zM858 630q0 -156 -101.5 -250.5t-262.5 -94.5h-119q-70 0 -109 -42t-39 -98t39 -93.5t115 -37.5h487q6 -14 6 -36.5t-6 -36.5h-487q-115 0 -174.5 54t-59.5 148
q0 141 148 191q-166 84 -166 287q0 160 106.5 257t276.5 95l166 -2q98 0 151.5 22.5t85.5 81.5q39 -8 62 -41q-72 -121 -225 -135q106 -113 106 -269zM499.5 1042q-23.5 0 -40.5 7q-30 137 18 237q31 66 80 103q23 -8 25 -27q-63 -72 -64 -191q0 -55 21 -120
q-16 -9 -39.5 -9z" />
    <glyph glyph-name="gdotaccent.ss04" horiz-adv-x="1017" 
d="M492 356q131 0 208.5 73t77.5 212.5t-114 255.5l-152 2q-141 0 -222 -73.5t-81 -200.5t76 -198t207 -71zM858 630q0 -156 -101.5 -250.5t-262.5 -94.5h-119q-70 0 -109 -42t-39 -98t39 -93.5t115 -37.5h487q6 -14 6 -36.5t-6 -36.5h-487q-115 0 -174.5 54t-59.5 148
q0 141 148 191q-166 84 -166 287q0 160 106.5 257t276.5 95l166 -2q98 0 151.5 22.5t85.5 81.5q39 -8 62 -41q-72 -121 -225 -135q106 -113 106 -269zM501.5 1178q-28.5 0 -49 20.5t-20.5 49t20.5 50t49 21.5t49 -21.5t20.5 -50t-20.5 -49t-49 -20.5z" />
    <glyph glyph-name="zero.osf" horiz-adv-x="1228" 
d="M614 51q205 0 308 134q102 135 102 363t-102 363t-308 135t-307 -134q-102 -136 -102 -364t102 -362t307 -135zM614 -23q-236 0 -362 156t-127 416q0 260 127 416q126 155 362 155t363 -156t127 -415q0 -260 -127 -416t-363 -156z" />
    <glyph glyph-name="one.osf" horiz-adv-x="634" 
d="M406 1106q23 0 28 -4v-1102q-14 -6 -36 -6t-40 6v1010l-270 -142q-31 31 -33 66l322 168q6 4 29 4z" />
    <glyph glyph-name="two.osf" horiz-adv-x="995" 
d="M915 38q0 -18 -6 -38h-790q-8 20 -8 39q0 47 43 80q354 268 477 401t123 259t-78 199t-192 73q-206 0 -334 -144q-33 10 -48 45q56 70 154 120t209 50q164 0 265 -87t101 -241t-125 -297q-50 -56 -103 -109q-65 -65 -367 -296l-27 -20l29 2h671q6 -18 6 -36z" />
    <glyph glyph-name="three.osf" horiz-adv-x="987" 
d="M797 201q-1 135 -101 211t-301 75q-6 13 -6 33t6 35q166 0 249 74t83 182t-72 174t-188 66q-188 0 -307 -131q-35 12 -45 43q129 158 352 157q145 0 241 -80t95 -219q-1 -104 -61 -181t-158 -112q125 -24 207 -102q81 -78 81 -228t-114 -254t-318 -104q-206 0 -348 127
q10 39 41 56q76 -63 149 -89t177 -26q156 0 247 79t91 214z" />
    <glyph glyph-name="four.osf" horiz-adv-x="1048" 
d="M723 213v731l2 29l-18 -27l-549 -733h565zM963 177q0 -24 -5 -36h-159v-303q-11 -4 -31 -4t-45 4v303h-645q-10 25 -10 49t18 50l639 854q15 6 35 6t39 -6v-881h159q5 -12 5 -36z" />
    <glyph glyph-name="five.osf" horiz-adv-x="989" 
d="M436 -162q-203 0 -319 113q14 41 47 57q36 -40 112 -70t170 -30q160 0 256 83t96 243t-110 234q-111 75 -373 75h-153v547h653q4 -28 4 -46t-4 -30h-577v-398h77q297 0 429 -92t132 -284t-118 -296q-119 -106 -322 -106z" />
    <glyph glyph-name="six.osf" horiz-adv-x="1042" 
d="M532 39q150 0 242 88t92 246q0 159 -89 233t-214 74q-217 0 -370 -178q-2 -16 -3 -49q0 -193 96 -303t246 -111zM569 752q159 0 265 -96t106 -281q0 -184 -115 -295t-295 -111t-299 130q-117 130 -116 358q0 184 64 340q115 276 413 438q129 70 272 102q25 -23 25 -67
q-224 -47 -422 -201q-102 -80 -175 -207t-93 -282q151 172 370 172z" />
    <glyph glyph-name="seven.osf" horiz-adv-x="958" 
d="M893 1048q0 -26 -37 -104l-592 -1108q-41 10 -65 37l612 1137h-727q-4 29 -4 39t4 38h805q4 -13 4 -39z" />
    <glyph glyph-name="eight.osf" horiz-adv-x="1021" 
d="M195 295q0 -123 90 -187t226 -63q136 0 226 65q90 66 90 190t-83 199t-244 148q-305 -133 -305 -352zM225 1030q0 -148 184 -251q105 -60 119 -60q137 68 201 141q63 74 64 180q0 106 -78 174t-202 68t-206 -72t-82 -180zM901 296q1 -150 -111 -236q-112 -85 -280 -85
t-280 78t-111 236q0 248 317 391q-135 70 -210 148q-74 78 -74 207q0 131 103 225t260 94t254 -86t97 -226q0 -219 -270 -358q145 -74 225 -156t80 -232z" />
    <glyph glyph-name="nine.osf" horiz-adv-x="1026" 
d="M487 412q186 0 340 129v16q0 231 -93 363q-94 132 -242 131q-148 0 -237 -88t-89 -241q0 -154 94 -232t227 -78zM492 342q-172 0 -286 98t-114 278t112 290q112 112 292 112q182 0 295 -150t112 -413q0 -348 -185 -522t-507 -195q-8 20 -8 38t2 28q276 18 435 151
t183 408q-158 -123 -331 -123z" />
    <glyph glyph-name="zero.tf" horiz-adv-x="1095" 
d="M549 49q362 1 362 615t-362 614t-362 -614t362 -615zM548 -23q-218 1 -331 183t-113 505t114 503t332 182q218 0 331 -182t113 -504t-114 -504t-332 -183z" />
    <glyph glyph-name="one.tf" horiz-adv-x="1095" 
d="M956 36q0 -12 -4 -36h-712q-14 38 0 68h340v1151l-351 -179q-29 25 -34 68l401 207q8 4 26 4t33 -4v-1247h297q4 -20 4 -32z" />
    <glyph glyph-name="two.tf" horiz-adv-x="1095" 
d="M983 38q0 -20 -6 -38h-823q-6 16 -6 46t42 73q434 456 496 549q105 153 116 205q11 53 11 104q0 139 -82 220t-229 81q-190 0 -334 -148q-33 8 -47 46q61 74 163 124t220 50q174 0 282 -96t107 -271q0 -112 -76 -256q-52 -95 -218 -275q-48 -52 -159 -168t-174 -186
l-22 -24l28 2h705q6 -18 6 -38z" />
    <glyph glyph-name="three.tf" horiz-adv-x="1095" 
d="M133 1276q0 20 6 39h764v-10q0 -59 -37 -97l-385 -397q213 -6 341 -105q128 -100 128 -306t-131 -313t-315 -107q-238 0 -361 118q8 39 45 60q138 -109 306 -109t273 88t105 258q0 348 -464 350h-35l-2 19q0 25 26 53l402 422h-660q-6 17 -6 37z" />
    <glyph glyph-name="four.tf" horiz-adv-x="1095" 
d="M987 424q0 -12 -4 -37h-170v-387q-25 -4 -38 -4t-38 4v387h-608q-33 70 10 160l424 811q35 -2 68 -29l-416 -797q-23 -45 -16 -75h538v319q25 4 38 4t38 -4v-319h170q4 -21 4 -33z" />
    <glyph glyph-name="five.tf" horiz-adv-x="1095" 
d="M520 825q205 -1 321 -111q115 -110 115 -311t-124 -317t-329 -115q-206 0 -345 113q8 37 45 59q113 -102 294 -102t281 94t100 263t-94 261t-278 93q-80 0 -172 -32t-110 -32t-31 6v621h702q4 -25 4 -45t-4 -31h-627v-471q115 57 252 57z" />
    <glyph glyph-name="six.tf" horiz-adv-x="1095" 
d="M213 457q0 -193 98 -305t253 -113q155 0 249 90t94 256t-97 246t-237 80q-201 0 -356 -164q-4 -57 -4 -90zM568 782q184 0 300 -100t115 -292q0 -192 -120 -307q-119 -114 -305 -114t-304 131t-119 336q0 546 471 804q127 69 264 97q20 -25 21 -69q-207 -37 -395 -184
q-96 -74 -168 -192t-99 -261q155 151 339 151z" />
    <glyph glyph-name="seven.tf" horiz-adv-x="1095" 
d="M991 1273q0 -30 -39 -104l-635 -1196q-47 8 -67 37l655 1227h-786q-4 29 -4 40t4 36h866q6 -10 6 -40z" />
    <glyph glyph-name="eight.tf" horiz-adv-x="1095" 
d="M217 302q-1 -126 93 -190t238 -65q144 0 237 68q93 69 93 195t-82 201q-83 75 -241 142q-33 14 -94 39q-92 -60 -168 -162t-76 -228zM258 1026q0 -59 20 -102q32 -71 161 -136q42 -20 132 -59l68 -31q203 147 203 330q0 116 -80 184t-209 68t-212 -72t-83 -182zM141 307
q0 127 78 236t178 180q-109 55 -161 122t-52 193t104 219q104 95 267 95q162 0 262 -89t101 -233q-1 -202 -218 -360q117 -60 185 -142t67 -204q0 -172 -116 -259t-291 -87q-174 0 -289 80q-115 81 -115 249z" />
    <glyph glyph-name="nine.tf" horiz-adv-x="1095" 
d="M526 598q184 0 348 113v18q0 267 -94 411t-248 144t-250 -94t-96 -257t100 -249t240 -86zM536 1354q188 0 301 -163q114 -163 113 -462q0 -420 -206 -595q-190 -163 -498 -163q-8 21 -8 39t6 31q325 0 479 173q127 145 147 421q-156 -105 -340 -105t-302 104t-118 296
q0 190 119 307t307 117z" />
    <glyph glyph-name="currency.osf" horiz-adv-x="1216" 
d="M608 918q-164 0 -278 -116t-115 -281q0 -165 115 -281q114 -116 278 -115q164 0 279 116q115 117 115 281t-115 280t-279 116zM608 51q-170 0 -301 111l-110 -115q-31 16 -56 55l113 113q-113 133 -113 305t111 303l-117 119q25 39 55 55l117 -118q131 111 302 111
t302 -111l115 116q33 -23 55 -55l-114 -117q111 -131 111 -302t-113 -304l112 -115q-20 -33 -55 -55l-113 115q-131 -111 -301 -111z" />
    <glyph glyph-name="dollar.osf" horiz-adv-x="937" 
d="M766 309q0 93 -54 145t-198 70v-440q124 12 188 72t64 153zM190 812q0 -91 65 -137t194 -63v408q-121 -6 -190 -62t-69 -146zM844 317q0 -131 -88 -211t-242 -94v-217q-12 -4 -32 -4t-33 4v215q-111 2 -208 40t-155 89q8 41 47 60q127 -115 316 -117v450
q-336 35 -336 275q0 123 92 199t244 86v215q12 4 32 4t33 -4v-215q182 -10 299 -99q-6 -41 -39 -61q-119 78 -260 88v-414q164 -22 247 -90t83 -199z" />
    <glyph glyph-name="sterling.osf" horiz-adv-x="1046" 
d="M98 532q0 22 4 33h138q-25 143 -25 187q1 158 107 259t290 101t314 -113q-8 -39 -45 -59q-117 102 -269 102t-238 -80q-85 -80 -85 -204q0 -62 12 -118t14 -75h408q4 -19 4 -31t-4 -36h-399q2 -20 2 -87t-40 -185t-42 -156h696q6 -18 6 -34t-6 -36h-780q0 84 46 208
t46 224l-2 66h-148q-4 12 -4 34z" />
    <glyph glyph-name="yen.osf" horiz-adv-x="1079" 
d="M580 430v-160h278q4 -20 4 -30t-4 -35h-278v-205q-14 -6 -36 -6t-42 6v205h-281q-4 25 -4 35t4 30h281v160h-281q-4 20 -4 32t4 32h242l-389 585q26 6 54 6t36 -2l371 -559l12 -22l12 22l361 559q10 2 36 2t48 -6l-383 -585h237q4 -20 4 -32t-4 -32h-278z" />
    <glyph glyph-name="ampersand.ss02" horiz-adv-x="1271" 
d="M520 51q111 0 196 47t128 131l-414 453q-118 -37 -182 -121t-64 -209t90 -213t246 -88zM961 682v-270q0 -88 -33 -170l217 -240q-25 -8 -49 -8t-41 6l-162 176q-57 -92 -157 -144t-218 -52q-184 0 -297 106t-112 274q0 135 74 232q75 96 196 143q-74 79 -107 141t-32 140
q0 129 90 214t252 85t270 -103q-12 -33 -45 -55q-103 92 -229 92t-194 -63q-68 -64 -69 -168q0 -104 193 -311q13 -20 27 -31l337 -373q12 49 13 109h4v333h303q10 -31 0 -63h-231z" />
    <glyph glyph-name="caroncomb.alt" 
d="M-131 1285.5q0 103.5 -21 156.5q16 10 41 10t39 -8q10 -35 10.5 -105.5t-23 -142.5t-56.5 -109q-25 4 -35 23q45 72 45 175.5z" />
    <glyph glyph-name="gravecomb.case" 
d="M-74 1401l-358 180q2 47 39 72l338 -213q-1 -21 -19 -39z" />
    <glyph glyph-name="acutecomb.case" 
d="M-418 1401q-18 18 -18 39l338 213q37 -25 39 -72z" />
    <glyph glyph-name="tildecomb.case" 
d="M-246 1511q106 0 137 95q39 0 60 -21q-47 -139 -193 -139q-55 0 -144 46t-126 46q-104 0 -135 -94q-39 0 -62 22q47 137 195 138q51 0 140 -46.5t128 -46.5z" />
    <glyph glyph-name="acute.case" horiz-adv-x="485" 
d="M70 1401q-18 18 -19 39l338 213q37 -25 39 -72z" />
    <glyph glyph-name="breve.case" horiz-adv-x="620" 
d="M311.5 1421q-98.5 0 -172 59.5t-88.5 157.5q27 12 58 11q18 -76 74.5 -119t126.5 -43t131 43t73 119q33 0 55 -9q-8 -96 -83.5 -157.5t-174 -61.5z" />
    <glyph glyph-name="caron.case" horiz-adv-x="614" 
d="M274 1393l-229 211q6 29 31 45l233 -193l228 193q25 -14 30 -43l-231 -213q-31 -8 -62 0z" />
    <glyph glyph-name="circumflex.case" horiz-adv-x="612" 
d="M76 1386q-25 12 -31 41l231 215q31 6 62 0l229 -212q-6 -29 -30 -44l-234 191z" />
    <glyph glyph-name="dieresis.case" horiz-adv-x="673" 
d="M544.5 1470q-28.5 0 -48 19.5t-19.5 47.5t20.5 47.5t47 19.5t46 -19.5t19.5 -47.5t-18.5 -47.5t-47 -19.5zM131 1470q-29 0 -48.5 19.5t-19.5 47.5t20.5 47.5t47.5 19.5t46.5 -19.5t19.5 -47.5t-18.5 -47.5t-47.5 -19.5z" />
    <glyph glyph-name="dotaccent.case" horiz-adv-x="266" 
d="M133 1473q-29 0 -49.5 20t-20.5 48t20.5 48.5t49.5 20.5t48.5 -19.5t19.5 -48.5t-19.5 -49t-48.5 -20z" />
    <glyph glyph-name="grave.case" horiz-adv-x="489" 
d="M414 1401l-359 180q2 47 39 72l338 -213q0 -21 -18 -39z" />
    <glyph glyph-name="hungarumlaut.case" horiz-adv-x="708" 
d="M406 1372q-23 12 -31 31l219 283q41 -8 59 -54zM88 1372q-27 14 -31 31l219 283q41 -8 60 -54z" />
    <glyph glyph-name="macron.case" horiz-adv-x="647" 
d="M59 1511.5q0 20.5 4 36.5h521q6 -16 6 -30.5t-6 -32.5h-521q-4 6 -4 26.5z" />
    <glyph glyph-name="ring.case" horiz-adv-x="473" 
d="M239 1399q52 0 84.5 35.5t32.5 87t-32.5 87.5t-84.5 36t-87 -37t-35 -86t35 -86t87 -37zM237 1339q-75 0 -128.5 53.5t-53.5 129t53.5 128t128.5 52.5t128 -52.5t53 -128t-53 -129t-128 -53.5z" />
    <glyph glyph-name="tilde.case" horiz-adv-x="757" 
d="M510 1511q106 0 137 95q39 0 60 -21q-47 -139 -193 -139q-55 0 -144 46t-126 46q-104 0 -135 -94q-39 0 -62 22q47 137 195 138q51 0 140 -46.5t128 -46.5z" />
    <glyph glyph-name="IJacute" horiz-adv-x="999" 
d="M494 -37q-80 0 -142 30t-86 60q12 37 49 53q87 -72 183 -72t162 63q66 62 65 200v1018q16 6 39 6t39 -6v-1016q0 -168 -90 -252t-219 -84zM226 274q-22 0 -36 7v1038q16 6 38 6t40 -6v-1038q-20 -7 -42 -7zM588 1401q-18 18 -19 39l338 213q35 -23 41 -72zM92 1401
q-18 14 -20 39l338 213q39 -25 41 -72z" />
    <glyph glyph-name="ijacute" horiz-adv-x="919" 
d="M739 -70q1 -162 -83 -246t-203 -83q-119 0 -207 82q10 37 43 57q80 -68 168 -68t147 62t60 192v1028q43 16 75 0v-1024zM220 -6q-22 0 -40 6v961q18 6 40 6t36 -6v-961q-14 -6 -36 -6zM553 1081q-23 16 -25 37l295 264q37 -18 51 -63zM100 1081q-20 14 -26 37l297 264
q35 -18 49 -63z" />
    <glyph glyph-name="slashlong" horiz-adv-x="1165" 
d="M150 -51q-35 12 -44 43l910 1014q35 -12 45 -41z" />
    <glyph glyph-name="slashshort" horiz-adv-x="505" 
d="M80 575q-27 16 -29 54l377 194q25 -23 29 -53z" />
    <glyph glyph-name="stroke" horiz-adv-x="587" 
d="M66 928q-7 35 0 63h462q13 -27 0 -63h-462z" />
    <glyph glyph-name="caronalt" horiz-adv-x="227" 
d="M96 1286q0 104 -20 156q16 10 41 10t39 -8q10 -36 10 -106t-24 -142t-56 -109q-25 4 -35 23q45 72 45 176z" />
    <glyph glyph-name="slashlong.case" horiz-adv-x="1294" 
d="M76 -23q-39 10 -49 48l1190 1314q39 -12 51 -45z" />
    <glyph glyph-name="slashshort.case" horiz-adv-x="540" 
d="M92 569q-25 18 -29 58l453 231q27 -18 31 -57z" />
    <glyph glyph-name="i.loclTRK" horiz-adv-x="438" 
d="M221.5 -6q-22.5 0 -41.5 6v961q18 6 41 6t37 -6v-961q-14 -6 -36.5 -6zM219 1180q-29 0 -49 20.5t-20 49t20 50t49 21.5t49.5 -21.5t20.5 -50t-20.5 -49t-49.5 -20.5z" />
    <glyph glyph-name="uni1EF9.ss01" horiz-adv-x="1126" 
d="M526 -330q156 0 251 89t95 237v139q-117 -63 -254 -78q-168 -31 -239.5 -86t-71.5 -135t57.5 -123t161.5 -43zM910 958q24 0 38 -6v-956q0 -184 -117.5 -289.5t-304.5 -105.5q-143 0 -220 60t-77 163q0 174 238 246q-150 20 -226.5 114.5t-76.5 245.5v522q16 6 38.5 6
t37.5 -6v-491q0 -158 73.5 -245t245.5 -87t313 86v737q14 6 38 6zM428 1251q-92 0 -123 -92q-37 0 -61 21q49 139 180 139q55 -2 144 -46t130 -44q88 0 121 90q37 0 58 -21q-20 -63 -66.5 -100t-106 -37t-147.5 45t-129 45z" />
    <glyph glyph-name="uni1EF9.ss02" horiz-adv-x="1126" 
d="M910 958q24 0 38 -6v-942q0 -184 -110.5 -292.5t-294.5 -108.5q-244 0 -371 143q14 39 51 51q121 -125 320 -125q158 0 243.5 88.5t85.5 243.5v103q-145 -82 -331.5 -82t-281.5 100t-95 275v546q16 6 38.5 6t37.5 -6v-526q0 -322 325 -322q170 0 307 89v759q14 6 38 6z
M428 1251q-92 0 -123 -92q-37 0 -61 21q49 139 180 139q55 -2 144 -46t130 -44q88 0 121 90q37 0 58 -21q-20 -63 -66.5 -100t-106 -37t-147.5 45t-129 45z" />
    <glyph glyph-name="cent.osf" horiz-adv-x="1013" 
d="M190 511q0 -171 90 -279t246 -126v816q-156 -18 -246 -129t-90 -282zM559 -178q-23 0 -33 4v211q-186 18 -301 140t-115 334t118 338t298 144v221q36 7 66 0v-219q188 -2 311 -108q-12 -37 -47 -56q-115 92 -264 95v-822q160 2 278 99q33 -23 41 -58q-141 -109 -319 -110
v-209q-10 -4 -33 -4z" />
    <glyph glyph-name="Euro.osf" horiz-adv-x="1167" 
d="M728 -20q-200 0 -329 114t-166 312h-151q-6 16 -6 32t6 31h143q-4 53 -4 82t4 82h-112q-13 39 0 65h123q39 193 172 308q133 114 321 114t315 -92q-12 -39 -36 -55q-125 84 -283 83q-159 -1 -269 -95t-145 -263h410q4 -10 4 -31t-4 -34h-420q-4 -53 -4 -82t4 -82h389
q4 -10 4 -32t-4 -31h-381q35 -168 144 -264t274 -95q182 -6 299 94q33 -20 35 -55q-133 -106 -333 -106z" />
    <glyph glyph-name="uni0308.case" 
d="M-129 1470q-29 0 -48.5 19.5t-19.5 47.5t20.5 47.5t47.5 19.5t46.5 -19.5t19.5 -47.5t-18.5 -47.5t-47.5 -19.5zM-542.5 1470q-28.5 0 -48 19.5t-19.5 47.5t20.5 47.5t47 19.5t46 -19.5t19.5 -47.5t-18.5 -47.5t-47 -19.5z" />
    <glyph glyph-name="uni0307.case" 
d="M-131 1473q-29 0 -49.5 20t-20.5 48t20.5 48.5t49.5 20.5t48.5 -19.5t19.5 -48.5t-19.5 -49t-48.5 -20z" />
    <glyph glyph-name="uni030B.case" 
d="M-303 1372q-23 12 -31 31l219 283q41 -8 60 -54zM-621 1372q-27 14 -30 31l219 283q41 -8 59 -54z" />
    <glyph glyph-name="uni0302.case" 
d="M-541 1386q-25 12 -30 41l231 215q31 6 61 0l230 -212q-6 -29 -31 -44l-233 191z" />
    <glyph glyph-name="uni030C.case" 
d="M-340 1393l-229 211q6 29 30 45l234 -193l227 193q25 -14 31 -43l-232 -213q-30 -8 -61 0z" />
    <glyph glyph-name="uni0306.case" 
d="M-309.5 1421q-98.5 0 -172 59.5t-87.5 157.5q27 12 57 11q18 -76 74.5 -119t127.5 -43t131 43t73 119q33 0 55 -9q-8 -96 -84 -157.5t-174.5 -61.5z" />
    <glyph glyph-name="uni030A.case" 
d="M-235 1399q52 0 85 35.5t33 87t-32.5 87.5t-85 36t-87 -37t-34.5 -86t34.5 -86t86.5 -37zM-237 1339q-75 0 -128 53.5t-53 129t53.5 128t128 52.5t128 -52.5t53.5 -128t-53.5 -129t-128.5 -53.5z" />
    <glyph glyph-name="uni0304.case" 
d="M-588 1511.5q0 20.5 4 36.5h521q6 -16 6 -30.5t-6 -32.5h-521q-4 6 -4 26.5z" />
    <glyph glyph-name="uni0337.case" 
d="M-449 569q-25 18 -28 58l452 231q27 -18 31 -57z" />
    <glyph glyph-name="uni0338.case" 
d="M-1219 -23q-39 10 -49 48l1190 1314q39 -12 51 -45z" />
    </font>
</defs>
</svg>
