<?xml version="1.0" standalone="no"?>
<!DOCTYPE svg PUBLIC "-//W3C//DTD SVG 1.1//EN" "http://www.w3.org/Graphics/SVG/1.1/DTD/svg11.dtd" >
<svg xmlns="http://www.w3.org/2000/svg">
<metadata>
Created by FontPrep 20130207 at Tue Aug  2 15:13:22 2016
 By Tina Muller
Copyright (c) 2016 by LatinoType. All rights reserved.
</metadata>
<defs>
<font id="17666409a1955c1a2ae6162ba6fe081d" horiz-adv-x='1024' >
  <font-face 
    font-family="Branding-Thin"
    font-weight="250"
    font-stretch="normal"
    units-per-em="2048"
    panose-1="0 0 3 0 0 0 0 0 0 0"
    ascent="1577"
    descent="-471"
    x-height="950"
    cap-height="1319"
    bbox="-1282 -428 2767 1690"
    underline-thickness="102"
    underline-position="-102"
    unicode-range="U+0020-FB02"
  />
<missing-glyph horiz-adv-x="876" 
d="M436 184l-344 346l344 344l346 -344z" />
    <glyph glyph-name="fi" unicode="fi" horiz-adv-x="1026" 
d="M836 956v-956q-8 -4 -20 -4t-21 4v922h-533v-922q-8 -4 -20 -4t-21 4v922h-153q-7 22 0 34h153v17q0 182 108 278q108 97 258 97t255 -99q-2 -16 -27 -30q-101 88 -233 88t-226 -82t-94 -246v-23h574z" />
    <glyph glyph-name="fl" unicode="fl" horiz-adv-x="1044" 
d="M221 961q1 193 107 290t268 97t258 -62v-1286q-8 -4 -20 -4t-21 4v1260q-104 47 -234 47q-129 0 -223 -83t-94 -257v-11h334q4 -6 4 -17t-4 -17h-334v-922q-8 -4 -20 -4t-21 4v922h-153q-7 22 0 34h153v5z" />
    <glyph glyph-name=".notdef" horiz-adv-x="876" 
d="M436 184l-344 346l344 344l346 -344z" />
    <glyph glyph-name=".null" 
 />
    <glyph glyph-name="nonmarkingreturn" horiz-adv-x="681" 
 />
    <glyph glyph-name="space" unicode=" " horiz-adv-x="548" 
 />
    <glyph glyph-name="exclam" unicode="!" horiz-adv-x="454" 
d="M227 -18q-23 0 -39 16t-16 38t16 38t39 16t39 -16t16 -38t-16 -38t-39 -16zM227 305q-8 0 -12 2q-8 444 -8 1016q12 4 20 4t21 -4q0 -571 -8 -1016q-5 -2 -13 -2z" />
    <glyph glyph-name="quotedbl" unicode="&#x22;" horiz-adv-x="598" 
d="M416 944q-10 0 -15 4l-12 398q11 4 29 4t28 -4l-14 -400q-6 -2 -16 -2zM181 944q-5 0 -17 4l-10 398q14 6 28 6t29 -6l-16 -398q-9 -4 -14 -4z" />
    <glyph glyph-name="numbersign" unicode="#" horiz-adv-x="1327" 
d="M836 360l141 431h-451l-141 -431h451zM1241 791h-223l-141 -431h221q6 -16 -8 -36h-226l-139 -420q-20 -6 -41 0l139 420h-450l-140 -420q-20 -6 -40 0l139 420h-260q-2 18 8 36h264l141 431h-262q-2 18 8 36h267l143 433q20 6 41 0l-143 -433h450l144 433q20 6 41 0
l-144 -433h219q6 -16 -8 -36z" />
    <glyph glyph-name="dollar" unicode="$" horiz-adv-x="1050" 
d="M905 398q0 116 -77 176t-265 83v-532q162 4 252 80q90 77 90 193zM170 943q0 -116 90 -168t262 -68v485q-160 -4 -256 -68t-96 -181zM948 402q0 -142 -106 -228t-279 -90v-180q-8 -4 -20 -4t-21 4v180q-262 6 -413 123q4 27 26 35q147 -113 387 -117v537q-199 23 -297 86
t-98 195t111 211t284 83v174q8 4 20 4t21 -4v-174q190 -6 344 -92q-6 -27 -22 -37q-152 80 -322 84v-490q189 -23 287 -91q98 -67 98 -209z" />
    <glyph glyph-name="percent" unicode="%" horiz-adv-x="1501" 
d="M1145 31q111 -1 172 71t61 176t-61 177q-61 71 -172 71t-172 -72t-61 -175q0 -104 60 -176q62 -72 173 -72zM870 279q0 121 76 203t198 83q122 0 198 -84q76 -85 77 -203q-1 -118 -77 -202t-198 -84t-198 83t-76 204zM119 1008q0 -104 62 -176t172 -72t171 72
q62 72 62 176t-62 176t-171 72q-110 0 -172 -72t-62 -176zM268 -96l879 1356q25 10 49 0l-879 -1356q-29 -6 -49 0zM352 721q-122 0 -198 83t-76 204q0 122 77 204t197 82t198 -83q77 -83 77 -203t-77 -203q-77 -84 -198 -84z" />
    <glyph glyph-name="ampersand" unicode="&#x26;" horiz-adv-x="1236" 
d="M889 684h-297q-202 -2 -312 -98t-110 -242t100 -231q100 -86 287 -86t332 106v551zM1174 701q0 -9 -5 -17h-239v-569q-176 -127 -377 -127t-313 97t-111 255q0 158 94 247t232 115q-125 20 -201 100t-76 218q0 137 104 223t282 86t288 -104q-6 -18 -27 -29
q-107 94 -265 94t-250 -79t-91 -201q0 -122 94 -205q94 -82 279 -82h577q5 -13 5 -22z" />
    <glyph glyph-name="quotesingle" unicode="'" horiz-adv-x="362" 
d="M181 944q-5 0 -17 4l-10 398q14 6 28 6t29 -6l-16 -398q-9 -4 -14 -4z" />
    <glyph glyph-name="parenleft" unicode="(" horiz-adv-x="485" 
d="M360 -356q-236 406 -234 866t234 883q23 2 31 -11q-221 -395 -223 -857t223 -871q-8 -12 -31 -10z" />
    <glyph glyph-name="parenright" unicode=")" horiz-adv-x="485" 
d="M125 -356q-23 -2 -31 10q225 410 223 872t-223 856q8 12 31 11q231 -423 233 -883t-233 -866z" />
    <glyph glyph-name="asterisk" unicode="*" horiz-adv-x="688" 
d="M340 1067h-4l-31 -164q-35 -2 -55 19l69 149q-23 10 -24 31l-164 -23q-12 31 0 60l162 -21q4 23 24 33l-71 147q25 20 55 19l33 -160h6q14 0 29 -10l116 115q29 -20 35 -48l-139 -81q4 -11 4 -23t-6 -20l143 -78q-10 -31 -35 -47l-120 112q-14 -10 -27 -10z" />
    <glyph glyph-name="plus" unicode="+" horiz-adv-x="991" 
d="M514 475v-360q-18 -8 -37 0v360h-360q-16 20 0 37h360v360q18 8 37 0v-360h360q10 -18 0 -37h-360z" />
    <glyph glyph-name="comma" unicode="," horiz-adv-x="380" 
d="M170 56q0 70 -20 130q23 14 53 2q12 -30 12 -120t-35 -182t-76 -134q-14 0 -18 17q45 53 65 135q19 82 19 152z" />
    <glyph glyph-name="hyphen" unicode="-" horiz-adv-x="774" 
d="M160 518q0 8 4 17h446q4 -7 4 -19t-4 -18h-446q-4 12 -4 20z" />
    <glyph glyph-name="period" unicode="." horiz-adv-x="417" 
d="M209 -18q-23 0 -40 16t-17 40t17 40t40 16t40 -16t17 -40t-17 -40t-40 -16z" />
    <glyph glyph-name="slash" unicode="/" horiz-adv-x="966" 
d="M73 -367q-15 0 -22 2l817 1733q8 2 22 2t21 -2l-817 -1733q-6 -2 -21 -2z" />
    <glyph glyph-name="zero" unicode="0" horiz-adv-x="1183" 
d="M592 23q211 -1 313 167q103 168 103 476t-102 478q-102 169 -314 169q-211 0 -313 -169q-103 -169 -103 -477t102 -476t314 -168zM592 -18q-223 0 -340 180t-117 506t116 506t341 180t341 -180t116 -506t-117 -506t-340 -180z" />
    <glyph glyph-name="one" unicode="1" horiz-adv-x="673" 
d="M436 1329q12 0 21 -4v-1325q-9 -4 -21 -4t-20 4v1282l-348 -186q-16 14 -21 37l369 192q8 4 20 4z" />
    <glyph glyph-name="two" unicode="2" horiz-adv-x="1021" 
d="M936 20q0 -14 -4 -20h-830q-8 16 -8 34t31 54q442 422 570 581t128 308t-92 237t-252 89q-104 0 -195 -43t-151 -109q-18 6 -27 25q145 166 373 165q173 0 279 -95t106 -267q0 -120 -82 -260q-32 -53 -112 -143t-132 -143q-52 -52 -182 -178t-202 -198l-19 -16h797
q4 -7 4 -21z" />
    <glyph glyph-name="three" unicode="3" horiz-adv-x="1050" 
d="M893 1315q0 -49 -29 -78l-436 -440q508 -4 508 -408q0 -199 -134 -303t-319 -104q-242 0 -379 133q6 20 25 32q145 -125 354 -124q170 0 291 94q121 93 121 279t-125 274t-369 90h-32v10q0 18 16 37l459 467h-735q-4 16 -4 22t4 19h784z" />
    <glyph glyph-name="four" unicode="4" horiz-adv-x="1007" 
d="M950 425q0 -7 -4 -19h-180v-406q-12 -4 -20 -4t-21 4v406h-649q-29 49 4 106l467 846q20 0 37 -17l-469 -839q-16 -35 -6 -58h616v320q12 4 20 4t21 -4v-320h180q4 -12 4 -19z" />
    <glyph glyph-name="five" unicode="5" horiz-adv-x="1036" 
d="M471 815q211 -1 330 -109t119 -308t-126 -314t-326 -113q-200 0 -339 107q6 23 27 33q113 -101 304 -101t305 104t114 284q-1 180 -107 278t-315 98q-82 0 -170 -29t-100 -29t-21 5v594h708q8 -23 0 -41h-667v-516q121 57 264 57z" />
    <glyph glyph-name="six" unicode="6" horiz-adv-x="1071" 
d="M168 469q0 -211 108 -336t275 -125q166 0 270 100q105 100 105 271q0 172 -104 259t-253 87q-217 0 -399 -201q-2 -18 -2 -55zM569 764q166 0 282 -96t116 -286t-118 -301q-119 -112 -301 -112t-302 134t-119 345q0 548 481 788q127 62 266 89q8 -10 9 -41
q-234 -37 -441 -202q-104 -83 -177 -214t-91 -290q176 186 395 186z" />
    <glyph glyph-name="seven" unicode="7" horiz-adv-x="954" 
d="M911 1296q0 -14 -39 -92l-653 -1227q-20 4 -33 19l678 1276h-805q-4 12 -4 20t4 21h848q4 -3 4 -17z" />
    <glyph glyph-name="eight" unicode="8" horiz-adv-x="1099" 
d="M170 306q0 -142 106 -214t272 -72q165 0 270 73q106 73 106 220t-94 229t-263 132q-82 27 -139 49q-104 -66 -181 -170t-77 -247zM566 1303q-148 0 -246 -80t-99 -200q0 -121 82 -185t270 -123q78 -25 101 -33q225 164 225 348q0 123 -93 198q-92 75 -240 75zM963 319
q0 -172 -117 -256q-116 -83 -302 -83t-300 82t-115 255q0 244 262 422q-109 49 -160 115t-51 168q0 139 109 231q109 93 277 93t270 -88q104 -88 104 -228q0 -190 -227 -364q250 -113 250 -347z" />
    <glyph glyph-name="nine" unicode="9" horiz-adv-x="1077" 
d="M496 563q211 0 407 142v6q-1 289 -111 441t-281 153q-171 -1 -272 -103t-101 -278t104 -268t254 -93zM498 1343q202 1 324 -163t122 -469q0 -381 -190 -560t-518 -180q-11 23 0 41q297 0 475 155t190 488q-193 -131 -405 -131q-168 0 -284 102t-116 294t116 308t286 115z
" />
    <glyph glyph-name="colon" unicode=":" horiz-adv-x="434" 
d="M217 41q-23 0 -40 16t-17 40t17 40q17 17 40 17t40 -16t17 -41q0 -24 -17 -40t-40 -16zM217 760q-23 0 -40 16t-17 40t17 40t40 16t40 -16t17 -40t-17 -40t-40 -16z" />
    <glyph glyph-name="semicolon" unicode=";" horiz-adv-x="509" 
d="M270 56q0 70 -20 130q21 15 53 2q12 -30 12 -120q-1 -90 -35 -182t-75 -134q-14 0 -19 17q45 53 65 135q19 82 19 152zM260 674q-23 0 -40 16t-17 40t17 40t40 16t40 -16t17 -40t-17 -40t-40 -16z" />
    <glyph glyph-name="less" unicode="&#x3c;" horiz-adv-x="1128" 
d="M90 472q0 12 4 34l887 385q16 -8 16 -37l-835 -367l-39 -10l39 -12l819 -361q0 -25 -18 -36l-867 378q-6 14 -6 26z" />
    <glyph glyph-name="equal" unicode="=" horiz-adv-x="1003" 
d="M164 320q0 8 4 20h670q2 -6 2 -19t-2 -20h-670q-4 11 -4 19zM164 632q0 8 4 19h670q2 -6 2 -19t-2 -20h-670q-4 12 -4 20z" />
    <glyph glyph-name="greater" unicode="&#x3e;" horiz-adv-x="1128" 
d="M1036 474q0 -12 -6 -28l-866 -378q-18 12 -19 36l820 361l39 12l-39 10l-836 367q0 29 16 37l887 -385q4 -20 4 -32z" />
    <glyph glyph-name="question" unicode="?" horiz-adv-x="837" 
d="M344 -18q-23 0 -40 16t-17 40t17 40t40 16t40 -16t17 -40t-17 -40t-40 -16zM340 330q-8 0 -12 2q-10 119 -11 217h5q166 2 263 102t97 257t-94 256q-94 100 -244 100t-248 -80q-18 6 -22 28q110 92 272 92t270 -107q108 -108 109 -280q0 -173 -101 -283t-262 -124
q0 -59 -10 -178q-4 -2 -12 -2z" />
    <glyph glyph-name="at" unicode="@" horiz-adv-x="1665" 
d="M805 242q213 0 287 211v360q-102 70 -228 70q-126 1 -220 -95t-93 -242q-1 -146 71 -224q72 -80 183 -80zM852 1286q328 0 523 -208q196 -208 196 -515q0 -155 -73 -275t-202 -122q-92 0 -146 54t-58 151q-82 -170 -289 -170q-121 0 -208 86q-87 85 -87 255t106 274
t267 106q117 0 252 -84v-447q0 -88 42 -138t121 -50q109 -1 170 107t62 253q0 295 -181 489t-495 194t-500 -198t-186 -503t180 -493t490 -189q180 0 323 63q18 -8 19 -35q-152 -70 -342 -69q-326 0 -520 203t-194 517t202 529q200 215 528 215z" />
    <glyph glyph-name="A" unicode="A" horiz-adv-x="1193" 
d="M287 477h624l-297 723l-24 66l-23 -66zM1116 -4h-8l-182 442h-654l-172 -440h-8q-23 0 -35 4l516 1313q6 2 18.5 2t16.5 -2l543 -1313q-12 -6 -35 -6z" />
    <glyph glyph-name="B" unicode="B" horiz-adv-x="1148" 
d="M985 344q0 319 -455 320h-274v-631q121 -17 312.5 -18t304 88.5t112.5 240.5zM518 1288q-129 0 -262 -18v-568h256q209 0 309.5 84t100.5 215.5t-103.5 209t-300.5 77.5zM1028 344q0 -176 -125 -272.5t-340 -96.5t-348 25v1303q166 25 305 24q211 0 328 -87t117 -234
q0 -261 -293 -318q356 -45 356 -344z" />
    <glyph glyph-name="C" unicode="C" horiz-adv-x="1230" 
d="M720.5 -20q-262.5 0 -428 190t-165.5 490t171 490.5t452 190.5q221 0 387 -127q-6 -23 -23 -32q-88 61 -169 89.5t-195 28.5q-264 0 -422 -180t-158 -462.5t152.5 -460t405.5 -177.5t407 134q23 -8 22 -33q-174 -141 -436.5 -141z" />
    <glyph glyph-name="D" unicode="D" horiz-adv-x="1380" 
d="M563 23q301 0 475 173t174 461t-173 461.5t-474 173.5q-172 0 -309 -18v-1233q170 -18 307 -18zM565 1333q319 0 504.5 -187.5t185.5 -485.5t-186 -488t-506 -190q-182 0 -348 18v1307q155 26 350 26z" />
    <glyph glyph-name="E" unicode="E" horiz-adv-x="1091" 
d="M999 19.5q0 -7.5 -4 -19.5h-780v1315h750q4 -12 4 -19.5t-4 -19.5h-709v-569h647q4 -12 4 -19.5t-4 -19.5h-647v-629h739q4 -12 4 -19.5z" />
    <glyph glyph-name="F" unicode="F" horiz-adv-x="1026" 
d="M256 1276v-612h641q4 -12 4 -19.5t-4 -19.5h-641v-625q-12 -4 -20.5 -4t-20.5 4v1315h758q4 -12 4 -19.5t-4 -19.5h-717z" />
    <glyph glyph-name="G" unicode="G" horiz-adv-x="1318" 
d="M1178 606v-520q-186 -106 -453 -106t-432.5 188t-165.5 487t178 492.5t463 193.5q223 0 391 -122q-6 -23 -22 -33q-168 115 -369 114q-270 0 -434 -176t-164 -465t152.5 -464t399 -175t415.5 86v461h-377q-4 12 -4 19.5t4 19.5h418z" />
    <glyph glyph-name="H" unicode="H" horiz-adv-x="1400" 
d="M1165.5 1319q12.5 0 20.5 -4v-1315q-8 -4 -20.5 -4t-20.5 4v662h-889v-662q-8 -4 -20.5 -4t-20.5 4v1315q8 4 20.5 4t20.5 -4v-615h889v615q8 4 20.5 4z" />
    <glyph glyph-name="I" unicode="I" horiz-adv-x="471" 
d="M235.5 -4q-12.5 0 -20.5 4v1315q8 4 20.5 4t20.5 -4v-1315q-8 -4 -20.5 -4z" />
    <glyph glyph-name="J" unicode="J" horiz-adv-x="735" 
d="M242 -33q-121 0 -207 76q6 23 26 31q86 -66 186.5 -66t172.5 66.5t72 212.5v1028q8 4 20 4t20 -4v-1022q0 -162 -84.5 -244t-205.5 -82z" />
    <glyph glyph-name="K" unicode="K" horiz-adv-x="1142" 
d="M1057 -4h-6l-584 684q-86 -55 -211 -119v-561q-8 -4 -20.5 -4t-20.5 4v1315q8 4 20.5 4t20.5 -4v-711q246 123 422 286t350 425q6 2 21.5 2t21.5 -2q-237 -387 -567 -610l598 -705q-25 -4 -45 -4z" />
    <glyph glyph-name="L" unicode="L" horiz-adv-x="954" 
d="M926 15.5q0 -7.5 -4 -19.5h-707v1319q12 4 20.5 4t20.5 -4v-1280h666q4 -12 4 -19.5z" />
    <glyph glyph-name="M" unicode="M" horiz-adv-x="1607" 
d="M1358 1317q23 0 35 -4v-1313q-8 -4 -20.5 -4t-20.5 4v1225l-15 -39l-501 -1059q-6 -2 -18.5 -2t-16.5 2l-531 1059l-14 39v-1225q-8 -4 -20.5 -4t-20.5 4v1313q12 6 35 6h4l541 -1081l22 -50l537 1129h4z" />
    <glyph glyph-name="N" unicode="N" horiz-adv-x="1388" 
d="M1153 1323q12 0 21 -4v-1315q-10 -6 -39 -6l-881 1251l2 -43v-1206q-8 -4 -20.5 -4t-20.5 4v1313q25 10 41 6l864 -1233l15 -23l-2 29v1227q8 4 20 4z" />
    <glyph glyph-name="O" unicode="O" horiz-adv-x="1476" 
d="M738 20q263 0 416 177.5t153 463t-153 462.5t-417 177t-415.5 -177t-151.5 -462t152.5 -463t415.5 -178zM737.5 -20q-278.5 0 -444.5 191t-166 487t166 489.5t445.5 193.5t445.5 -190t166 -487.5t-167 -490.5t-445.5 -193z" />
    <glyph glyph-name="P" unicode="P" horiz-adv-x="1120" 
d="M535 1296q-145 0 -279 -34v-697q113 -30 279 -24q227 0 340.5 104.5t112.5 277.5t-115.5 273t-337.5 100zM535 1337q238 0 366.5 -108.5t128.5 -303t-128 -310t-367 -115.5q-182 0 -279 22v-522q-8 -4 -20.5 -4t-20.5 4v1290q152 47 320 47z" />
    <glyph glyph-name="Q" unicode="Q" horiz-adv-x="1476" 
d="M170 661q0 -285 152.5 -463t415.5 -178t416 177.5t153 463t-153 462.5t-417 177t-415.5 -177t-151.5 -462zM127 659.5q0 294.5 166 488t445.5 193.5t445.5 -190t166 -492q0 -246 -121 -426t-330 -233q164 -18 266.5 -78.5t180.5 -171.5q-10 -16 -33 -22
q-162 252 -586 252q-274 4 -437 194.5t-163 485z" />
    <glyph glyph-name="R" unicode="R" horiz-adv-x="1134" 
d="M543.5 596q193.5 0 301 98.5t113.5 270.5q-6 147 -111.5 239t-278.5 92t-312 -32v-652q94 -16 287.5 -16zM987 -4h-4l-371 565q-57 -4 -161.5 -4t-194.5 12v-569q-8 -4 -20.5 -4t-20.5 4v1294q150 43 346.5 43t315 -100t124.5 -272q-4 -156 -92 -260.5t-250 -135.5
l371 -569q-25 -4 -43 -4z" />
    <glyph glyph-name="S" unicode="S" horiz-adv-x="1062" 
d="M530 -27q-268 0 -432 160q2 23 27 31q143 -150 405 -150q178 0 277.5 87t99.5 230.5t-88 216.5t-284 122q-90 23 -146.5 43t-118.5 59q-124 78 -124.5 230.5t105 243.5t284.5 91q250 0 387 -133q-10 -23 -29 -30q-139 123 -358 122q-162 0 -255.5 -76.5t-93.5 -207.5
t95.5 -195.5t282 -109.5t285.5 -131.5t99 -245t-111.5 -258t-306.5 -99.5z" />
    <glyph glyph-name="T" unicode="T" horiz-adv-x="1097" 
d="M1063 1296q0 -6 -4 -18h-492v-1278q-16 -4 -22 -4t-19 4v1278h-489q-4 12 -4 18t4 19h1022q4 -13 4 -19z" />
    <glyph glyph-name="U" unicode="U" horiz-adv-x="1368" 
d="M695 -20q-220 0 -358 146t-138 384v805q8 4 20 4t21 -4v-805q0 -217 123.5 -353.5t329.5 -136.5t320.5 136.5t114.5 353.5v805q8 4 20.5 4t20.5 -4v-805q0 -227 -127 -378.5t-347 -151.5z" />
    <glyph glyph-name="V" unicode="V" horiz-adv-x="1214" 
d="M612 -8q-16 0 -24 4q-184 307 -303 621t-222 698q7 4 21 4t22 -4q197 -752 506 -1284q348 670 492 1284q13 13 41 0q-150 -662 -508 -1319q-9 -4 -25 -4z" />
    <glyph glyph-name="W" unicode="W" horiz-adv-x="1857" 
d="M1331.5 -8q-16.5 0 -24.5 4l-353 1102l-12 45l-385 -1147q-8 -4 -25.5 -4t-25.5 4q-231 508 -436 1321q10 2 24 2l21 -2q172 -723 415 -1284l388 1165q6 2 22 2t21 -2l366 -1130l10 -35q242 571 406 1284l6 2h14l19 -2q-172 -750 -426 -1321q-8 -4 -24.5 -4z" />
    <glyph glyph-name="X" unicode="X" horiz-adv-x="1128" 
d="M1036 -2h-10l-461 641l-477 -641h-12q-12 0 -33 4l494 668l-457 647q25 4 43 4h6l438 -623l451 623h4q20 0 41 -4l-467 -649l479 -666q-20 -4 -39 -4z" />
    <glyph glyph-name="Y" unicode="Y" horiz-adv-x="1132" 
d="M569.5 -4q-12.5 0 -20.5 4v565l-510 752q20 4 41 4h6l477 -698l8 -15l461 713h15q16 0 32 -4l-489 -750v-567q-8 -4 -20.5 -4z" />
    <glyph glyph-name="Z" unicode="Z" horiz-adv-x="1120" 
d="M1053 19.5q0 -13.5 -2 -19.5h-967q-10 10 -10 27.5t6 25.5l909 1223h-901q-6 12 -6 21t6 18h940q6 -18 6 -31.5t-10 -28.5l-879 -1183l-26 -33h932q2 -6 2 -19.5z" />
    <glyph glyph-name="bracketleft" unicode="[" horiz-adv-x="524" 
d="M252 -330h199q10 -18 0 -39h-240v1774h240q10 -20 0 -39h-199v-1696z" />
    <glyph glyph-name="backslash" unicode="\" horiz-adv-x="958" 
d="M884 -367q-15 0 -22 2l-805 1647q23 6 43 0l805 -1647q-6 -2 -21 -2z" />
    <glyph glyph-name="bracketright" unicode="]" horiz-adv-x="524" 
d="M313 1405v-1774h-239q-10 20 0 39h198v1696h-198q-10 19 0 39h239z" />
    <glyph glyph-name="asciicircum" unicode="^" horiz-adv-x="980" 
d="M131 733q-18 4 -29 17l365 628q25 6 47 0l365 -628q-8 -12 -27 -17l-360 617z" />
    <glyph glyph-name="underscore" unicode="_" horiz-adv-x="866" 
d="M0 -83q0 7 4 15h858q4 -6 4 -17t-4 -17h-858q-4 12 -4 19z" />
    <glyph glyph-name="grave" unicode="`" horiz-adv-x="432" 
d="M362 1096l-311 250q10 25 29 34l301 -260q-3 -14 -19 -24z" />
    <glyph glyph-name="a" unicode="a" horiz-adv-x="1003" 
d="M143 285.5q0 -115.5 85 -190.5t264.5 -75t306.5 66v356q-143 94 -315.5 94.5t-256.5 -67.5t-84 -183.5zM799 629q0 313 -333 313q-157 0 -296 -102q-16 8 -20 28q145 115 316 115t272.5 -84t101.5 -256v-582q-147 -80 -345 -79.5t-297.5 83t-99.5 222t104.5 215.5
t271.5 76t325 -91v142z" />
    <glyph glyph-name="b" unicode="b" horiz-adv-x="1114" 
d="M522 23q184 1 308 125t124 338t-114 334q-114 122 -304 122q-188 0 -315 -115v-745q117 -59 301 -59zM544 983q190 0 322 -130q131 -129 131 -367t-139 -371t-352 -133q-174 0 -326 73v1291q8 4 20 4t21 -4v-474q133 111 323 111z" />
    <glyph glyph-name="c" unicode="c" horiz-adv-x="995" 
d="M566.5 -18q-190.5 0 -320 134t-129.5 363t135 366.5t321 137.5t318 -109q-6 -20 -27 -30q-117 98 -295 98t-293.5 -132t-115.5 -334t114.5 -327.5t296.5 -125.5t314 106q18 -12 22 -35q-150 -112 -340.5 -112z" />
    <glyph glyph-name="d" unicode="d" horiz-adv-x="1116" 
d="M158 472q0 -210 130 -329.5t311 -119.5t296 59v778q-106 82 -292 82t-315.5 -130t-129.5 -340zM915.5 1354q12.5 0 20.5 -4v-1295q-86 -41 -150.5 -57t-167.5 -16q-219 0 -361 130t-142 366.5t148.5 370.5t340.5 134t291 -74v441q8 4 20.5 4z" />
    <glyph glyph-name="e" unicode="e" horiz-adv-x="1067" 
d="M547.5 944q-154.5 0 -262 -113.5t-123.5 -293.5h753q0 209 -106.5 308t-261 99zM160 500v-19q0 -219 110.5 -340t303 -121t325.5 115q16 -8 23 -31q-152 -123 -352.5 -122.5t-326.5 127.5t-126 364t130 373.5t309 136.5t292 -120t115 -359v-4h-803z" />
    <glyph glyph-name="f" unicode="f" horiz-adv-x="628" 
d="M511 1348q120 0 196 -66q-4 -23 -23 -35q-82 59 -180 59t-170 -66q-72 -67 -72 -212v-72h334q4 -6 4 -17t-4 -17h-334v-922q-8 -4 -20 -4t-21 4v922h-153q-7 22 0 34h153v66q0 162 85 244t205 82z" />
    <glyph glyph-name="g" unicode="g" horiz-adv-x="1118" 
d="M579.5 104q178.5 0 319.5 107v627q-111 104 -299.5 104t-314 -116.5t-125.5 -308.5t120.5 -302.5t299 -110.5zM613 983q208 0 327 -127v-852q0 -178 -107.5 -284.5t-274.5 -106.5t-255 44t-151 122q6 20 30 26q100 -114 228 -140q64 -13 149 -13q150 0 245 95t95 257v162
q-143 -102 -299 -103q-217 0 -350 120t-133 338t144 340t352 122z" />
    <glyph glyph-name="h" unicode="h" horiz-adv-x="1134" 
d="M579.5 983q192.5 0 287 -102.5t94.5 -278.5v-602q-8 -4 -20.5 -4t-20.5 4v602q0 150 -83 245t-268.5 95t-341.5 -135v-807q-8 -4 -20 -4t-21 4v1346q8 4 20.5 4t20.5 -4v-494q160 131 352.5 131z" />
    <glyph glyph-name="i" unicode="i" horiz-adv-x="421" 
d="M211 -4q-12 0 -21 4v958q23 11 41 0v-958q-8 -4 -20 -4zM212.5 1198q-21.5 0 -37 15.5t-15.5 36t15 35.5t35.5 15t36 -15t15.5 -35.5t-14 -36t-35.5 -15.5z" />
    <glyph glyph-name="j" unicode="j" horiz-adv-x="454" 
d="M6 -356q88 0 152.5 67.5t64.5 210.5v1030q8 4 20.5 4t20.5 -4v-1024q0 -162 -78 -243.5t-192 -81.5q-114 1 -182 69q-12 12 -13 11q4 23 23 34q58 -48 99.5 -60.5t84.5 -12.5zM245.5 1192q-21.5 0 -37 15.5t-15.5 36t15 35.5t35.5 15t36 -15t15.5 -37t-14 -36t-35.5 -14z
" />
    <glyph glyph-name="k" unicode="k" horiz-adv-x="940" 
d="M891.5 -2q-16.5 0 -25.5 2l-479 487q-74 -45 -160 -79v-408q-8 -4 -20 -4t-21 4v1346q8 4 20.5 4t20.5 -4v-897q160 63 330 210.5t242 292.5l20 2h2l21 -2q-51 -115 -166 -232.5t-252 -209.5l496 -508q-12 -4 -28.5 -4z" />
    <glyph glyph-name="l" unicode="l" horiz-adv-x="421" 
d="M211 -4q-12 0 -21 4v1350q8 4 20.5 4t20.5 -4v-1350q-8 -4 -20 -4z" />
    <glyph glyph-name="m" unicode="m" horiz-adv-x="1746" 
d="M1202 983q196 0 288 -103q91 -103 83 -278v-602q-9 -4 -21 -4t-20 4v602q8 150 -72 246t-254 96q-94 0 -186 -40t-156 -103q37 -82 37 -199v-602q-8 -4 -20 -4t-21 4v602q0 152 -75 247t-241 95t-325 -106v-838q-8 -4 -20 -4t-21 4v856q168 127 376 127t294 -149
q158 149 354 149z" />
    <glyph glyph-name="n" unicode="n" horiz-adv-x="1126" 
d="M563 983q203 0 296 -102.5t93 -278.5v-602q-8 -4 -20 -4t-21 4v602q0 152 -80.5 246t-267 94t-344.5 -104v-838q-8 -4 -20.5 -4t-20.5 4v856q182 127 385 127z" />
    <glyph glyph-name="o" unicode="o" horiz-adv-x="1171" 
d="M585.5 23q192.5 0 310.5 130t118 326.5t-118 329.5t-309 133t-310 -134t-119 -330t117.5 -325.5t310 -129.5zM583 -18q-202 0 -335 139t-133 358t135 361.5t338 142.5t336 -141.5t133 -358.5t-136 -359t-338 -142z" />
    <glyph glyph-name="p" unicode="p" horiz-adv-x="1120" 
d="M532 23q188 -1 309 123q120 124 120 342t-118 336t-298 118t-326 -104v-742q125 -73 313 -73zM542 983q200 0 330 -129q130 -128 132 -366q0 -238 -132 -372t-330 -134t-323 71v-438q-8 -4 -20 -4t-21 4v1241q164 127 364 127z" />
    <glyph glyph-name="q" unicode="q" horiz-adv-x="1118" 
d="M600 942q-186 0 -314 -129q-126 -129 -126 -340t119 -331t307 -119q188 0 313 108v707q-113 104 -299 104zM606 983q111 0 201 -40t133 -87v-1241q-8 -4 -20 -4t-21 4v469q-137 -102 -327 -102t-323 130q-132 130 -132 366t144 371q144 134 345 134z" />
    <glyph glyph-name="r" unicode="r" horiz-adv-x="751" 
d="M535 983q117 0 190 -27q0 -23 -14 -38q-74 25 -187 24q-180 0 -305 -90v-852q-8 -4 -20.5 -4t-20.5 4v870q140 113 357 113z" />
    <glyph glyph-name="s" unicode="s" horiz-adv-x="894" 
d="M416.5 -14q-183.5 0 -318.5 112q4 23 25 33q129 -106 297 -106t249 63.5t81 163.5t-64.5 149.5t-236 83t-246 87t-74.5 165t92 179t252 67.5t289 -76q-6 -25 -19 -35q-131 70 -274 70t-221 -55.5t-78 -150.5t65.5 -136t228 -76t245 -90t82.5 -179t-95.5 -196.5
t-279 -72.5z" />
    <glyph glyph-name="t" unicode="t" horiz-adv-x="708" 
d="M219 272v650h-168q-4 12 -4 19t4 15h168v265q8 4 20.5 4t20.5 -4v-265h389q4 -6 4 -17t-4 -17h-389v-627q0 -143 63.5 -207.5t149.5 -64.5t129 19t82 44q16 -12 18 -33q-113 -72 -221 -71.5t-185 72t-77 218.5z" />
    <glyph glyph-name="u" unicode="u" horiz-adv-x="1116" 
d="M915.5 952q12.5 0 20.5 -4v-891q-174 -80 -377 -80t-294 98.5t-91 274.5v598q8 4 20.5 4t20.5 -4v-579q0 -350 346 -351q178 0 334 64v866q8 4 20.5 4z" />
    <glyph glyph-name="v" unicode="v" horiz-adv-x="978" 
d="M488 -8q-16 0 -25 4q-102 147 -227 443t-168 509q10 2 24 2l19 -2q39 -206 161 -494t201 -401l14 -26q4 4 15 26q86 131 215 420t155 475l21 2h2l18 -2q-25 -190 -155 -476t-246 -476q-8 -4 -24 -4z" />
    <glyph glyph-name="w" unicode="w" horiz-adv-x="1429" 
d="M974 -8q-15 0 -24 4q-113 188 -229 528q-18 -82 -91 -248.5t-134 -279.5q-8 -4 -23.5 -4t-23.5 4q-98 147 -220.5 441t-167.5 511q10 2 23 2l16 -2q45 -209 165 -494.5t194 -400.5l12 -26q147 294 236 542q-72 211 -103 379q10 2 23 2l18 -2q39 -213 144.5 -497.5
t173.5 -397.5q6 -12 8 -17t4 -7q2 12 14 28q70 113 180.5 397.5t141.5 493.5l20 2h2l19 -2q-31 -209 -144.5 -499.5t-210.5 -452.5q-8 -4 -23 -4z" />
    <glyph glyph-name="x" unicode="x" horiz-adv-x="929" 
d="M72 950q16 8 45 8l348 -446l332 446q27 0 41 -8l-346 -465l387 -481q-16 -8 -45 -8l-373 463l-355 -463q-30 0 -38 8l368 481z" />
    <glyph glyph-name="y" unicode="y" horiz-adv-x="978" 
d="M893 950l20 -2q-53 -313 -248.5 -693t-461.5 -661q-23 6 -31 27q162 164 307 395q-113 162 -238.5 435.5t-170.5 496.5q10 2 24 2l21 -2q39 -201 155.5 -458t221.5 -422q4 -4 12 -17q2 6 10 19q115 193 219.5 431t136.5 447l21 2h2z" />
    <glyph glyph-name="z" unicode="z" horiz-adv-x="940" 
d="M864 18.5q0 -10.5 -4 -18.5h-784v4q0 33 24 64l678 825l19 20h-703q-4 8 -4 18.5t4 18.5h758v-4q0 -29 -25 -59l-616 -752l-86 -98h735q4 -8 4 -18.5z" />
    <glyph glyph-name="braceleft" unicode="{" horiz-adv-x="571" 
d="M428 -352q-88 0 -130 63t-42 164v426q0 105 -30 155t-97 50h-51q-4 6 -4 20t4 21h51q67 0 97 49t30 156v409q0 109 42 177t130 67h72q6 -20 0 -39h-72q-131 0 -131 -205v-409q0 -207 -117 -226q117 -18 117 -225v-426q0 -98 31 -143t100 -45h72q8 -16 0 -39h-72z" />
    <glyph glyph-name="bar" unicode="|" horiz-adv-x="462" 
d="M211 -348v1728q20 12 41 0v-1728q-21 -12 -41 0z" />
    <glyph glyph-name="braceright" unicode="}" horiz-adv-x="571" 
d="M500 526q0 -10 -6 -20h-52q-68 0 -98 -49t-29 -156v-426q0 -103 -42 -165t-130 -62h-71q-6 18 0 39h71q70 0 101 45t30 143v426q0 207 117 225q-117 18 -117 226v409q0 106 -30 156q-31 49 -101 49h-71q-6 18 0 39h71q88 0 130 -68t42 -176v-409q0 -106 30 -156t97 -49
h52q6 -11 6 -21z" />
    <glyph glyph-name="asciitilde" unicode="~" horiz-adv-x="1073" 
d="M369 502q69 0 181 -46t159 -46q127 0 165 92q25 0 37 -13q-51 -119 -202 -118q-61 0 -172 46t-168 46q-125 0 -166 -92q-25 0 -37 12q51 119 203 119z" />
    <glyph glyph-name="uni00A0" unicode="&#xa0;" horiz-adv-x="548" 
 />
    <glyph glyph-name="exclamdown" unicode="&#xa1;" horiz-adv-x="425" 
d="M213 -358q-8 0 -20 4q0 571 8 1016q4 2 12 2t12 -2q8 -444 8 -1016q-12 -4 -20 -4zM213 879q-23 0 -39 16t-16 38t16 38t39 16t39 -16t16 -39t-16 -38t-39 -15z" />
    <glyph glyph-name="cent" unicode="&#xa2;" horiz-adv-x="1015" 
d="M162 630q0 -192 100 -306t273 -125v872q-169 -14 -271 -132q-102 -117 -102 -309zM535 1335h38v-223h5q182 0 315 -102q-6 -23 -27 -33q-115 96 -288 96h-5v-876h5q180 0 309 102q18 -13 22 -33q-150 -109 -331 -108h-5v-209q-6 -2 -19 -2t-19 2v211q-184 12 -301 133
q-116 121 -116 339t120 341q119 123 297 137v225z" />
    <glyph glyph-name="sterling" unicode="&#xa3;" horiz-adv-x="1056" 
d="M162 0q0 106 71 256q72 150 72 258q0 43 -8 100h-199q-2 6 -2 20t2 19h189q-8 31 -42 114t-34 196q0 164 107 270q108 106 298 106t322 -108q-4 -25 -25 -33q-129 100 -304 100t-266 -102t-91 -231q0 -85 38 -187t42 -125h440q4 -12 4 -19t-4 -20h-432q6 -42 6 -118
t-36 -166t-72 -163t-35 -126h753q4 -7 4 -21t-4 -20h-794z" />
    <glyph glyph-name="currency" unicode="&#xa4;" horiz-adv-x="1259" 
d="M207 629q0 -176 124 -299t300 -123t299 124t123 299t-124 299t-299 124t-299 -124t-124 -300zM1092 629q0 -180 -123 -314l114 -114q-10 -20 -26 -27l-115 115q-135 -123 -314 -123t-311 121l-112 -113q-18 6 -29 27l115 112q-123 135 -123 315t121 312l-119 121
q6 16 27 26l118 -118q131 125 313 125t318 -125l115 114q16 -10 26 -26l-116 -117q121 -131 121 -311z" />
    <glyph glyph-name="yen" unicode="&#xa5;" horiz-adv-x="1112" 
d="M584 580v-195h309q2 -6 2 -19t-2 -20h-309v-346q-8 -4 -20 -4t-21 4v346h-312q-4 12 -4 20t4 19h312v195h-312q-4 12 -4 17t4 21h285l-457 687q20 4 41 4h6l449 -674l8 -17l8 17l433 674h14q16 0 33 -4l-443 -687h285q2 -8 2 -20t-2 -18h-309z" />
    <glyph glyph-name="brokenbar" unicode="&#xa6;" horiz-adv-x="458" 
d="M209 -348v704q20 12 41 0v-704q-21 -12 -41 0zM209 676v704q20 12 41 0v-704q-21 -12 -41 0z" />
    <glyph glyph-name="section" unicode="&#xa7;" horiz-adv-x="1069" 
d="M510 -213q-92 0 -173 26q-81 25 -114 47t-92 64q4 20 25 33q53 -41 86 -63q32 -22 106 -45q74 -24 162 -23q176 0 289 113t112 288q-1 95 -29 155t-106 148l-303 283q4 20 25 29l305 -283l20 -20q17 -19 21 -25t21 -26q87 -105 87 -278t-124 -298t-318 -125zM559 1305
q-176 0 -289 -113t-112 -289q0 -94 28 -155t107 -148l303 -281q-2 -20 -25 -30l-305 282q-47 51 -68 77q-22 26 -52 98t-29 157q0 189 125 315t317 125q94 -1 175 -27t110 -44t94 -66q-6 -20 -25 -32q-57 43 -88 63t-105 44t-161 24z" />
    <glyph glyph-name="dieresis" unicode="&#xa8;" horiz-adv-x="669" 
d="M548.5 1184q-21.5 0 -37 15t-15.5 35.5t15 36t35.5 15.5t36 -15.5t15.5 -37t-14 -35.5t-35.5 -14zM122.5 1184q-20.5 0 -35.5 15t-15 35.5t15 36t35.5 15.5t36 -15.5t15.5 -37t-15.5 -35.5t-36 -14z" />
    <glyph glyph-name="copyright" unicode="&#xa9;" horiz-adv-x="1546" 
d="M786 242q-162 0 -263 104t-101 284t103 281q103 103 257 103t269 -92q-6 -25 -25 -33q-98 84 -245 84t-233 -96t-85 -249q0 -153 87 -249q88 -96 240 -96t254 102q25 -14 27 -35q-123 -108 -285 -108zM166 632q0 -262 176 -446t431 -184t431 184t176 446t-175 445
q-175 185 -432 185t-432 -184t-175 -446zM776 -37q-274 0 -463 195q-188 194 -188 474t188 474q189 194 463 194t460 -194q185 -194 185 -474q1 -280 -185 -474t-460 -195z" />
    <glyph glyph-name="ordfeminine" unicode="&#xaa;" horiz-adv-x="778" 
d="M382 1065q-108 0 -162 -45q-56 -45 -56 -119t55 -121t169 -47t196 39v238q-94 55 -202 55zM584 1126q0 199 -214 199q-102 0 -192 -70q-18 10 -22 29q110 78 220 78t179 -56q68 -56 68 -169v-385q-95 -54 -229 -54t-202 54t-67 150q0 94 71 148q70 54 180 54t208 -55v77z
" />
    <glyph glyph-name="guillemotleft" unicode="&#xab;" horiz-adv-x="788" 
d="M610 246l-245 278l245 287q14 -6 21 -20l-207 -265l209 -258q-7 -12 -23 -22zM352 246l-246 278l246 287q12 -4 21 -20l-207 -265l209 -258q-5 -14 -23 -22z" />
    <glyph glyph-name="registered" unicode="&#xae;" horiz-adv-x="1546" 
d="M1012 997q0 87 -64 143t-180 56q-117 0 -184 -16v-353q63 -20 184 -20q244 6 244 190zM1055 997q0 -170 -172 -217l190 -334q-25 -4 -35 -4h-12l-188 328q-46 -4 -108 -4t-146 18v-333q-23 -8 -41 0v761q104 25 232 25q128 -1 204 -65t76 -175zM166 839q0 -263 176 -447
t432 -183q256 0 432 184q176 185 176 447t-176 445t-433 183t-432 -183t-175 -446zM776 1507q274 0 460 -194q185 -195 185 -475t-185 -474q-186 -194 -460 -194t-463 195q-188 195 -188 475t188 473q189 194 463 194z" />
    <glyph glyph-name="macron" unicode="&#xaf;" horiz-adv-x="641" 
d="M66 1184q-4 0 -4.5 13t4.5 22h509q13 -19 0 -35h-509z" />
    <glyph glyph-name="degree" unicode="&#xb0;" horiz-adv-x="692" 
d="M348 965q80 0 131 55t51 134t-51 134t-132 55t-134 -55t-53 -133t54 -134t134 -56zM345 928q-93 0 -160 66t-66 161q0 94 66 161q67 66 160 66t160 -66t67 -161q0 -94 -67 -161q-67 -66 -160 -66z" />
    <glyph glyph-name="plusminus" unicode="&#xb1;" horiz-adv-x="1077" 
d="M160 66h758q8 -18 0 -37h-758q-16 21 0 37zM520 580h-360q-16 20 0 36h360v361q18 10 37 0v-361h361q8 -18 0 -36h-361v-361q-18 -8 -37 0v361z" />
    <glyph glyph-name="acute" unicode="&#xb4;" horiz-adv-x="432" 
d="M70 1096q-16 10 -19 24l301 260q18 -10 29 -34z" />
    <glyph glyph-name="paragraph" unicode="&#xb6;" horiz-adv-x="1097" 
d="M571 299q10 0 23 -4v-643q-12 -4 -22 -4t-19 4v643q8 4 18 4zM561 1286q-223 0 -338 -101t-115 -274t113 -277q113 -103 340 -104q160 -8 279 25v696q-133 35 -279 35zM561 1327q168 0 320 -47v-1628q-13 -4 -21 -4t-20 4v860q-96 -23 -279 -23q-239 0 -367 115
q-128 116 -128 310t128 304t367 109z" />
    <glyph glyph-name="periodcentered" unicode="&#xb7;" horiz-adv-x="434" 
d="M217 616q-23 0 -40 16t-17 41q0 24 17 40t40 16t40 -16t17 -40q0 -25 -17 -41t-40 -16z" />
    <glyph glyph-name="cedilla" unicode="&#xb8;" horiz-adv-x="421" 
d="M360 -235.5q0 -73.5 -61 -112.5t-147 -39t-111 10q0 27 12 39q35 -10 103 -10t115.5 28.5t47.5 86t-46 83t-148 33.5l49 117h41l-35 -82q88 -12 134 -46t46 -107.5z" />
    <glyph glyph-name="ordmasculine" unicode="&#xba;" horiz-adv-x="872" 
d="M436 737q125 0 202 84t77 208t-77 209t-202 85t-202 -85q-76 -85 -76 -209t76 -208t202 -84zM435 700q-136 0 -226 92t-90 237t91 239t227 94q137 0 227 -93t90 -237t-92 -238t-227 -94z" />
    <glyph glyph-name="guillemotright" unicode="&#xbb;" horiz-adv-x="788" 
d="M436 246q-18 8 -22 22l207 254l-205 269q4 14 20 20l246 -287zM178 246q-14 8 -22 22l209 254l-207 269q8 16 20 20l246 -287z" />
    <glyph glyph-name="onequarter" unicode="&#xbc;" horiz-adv-x="1478" 
d="M1411 216q0 -13 -2 -21h-109v-195q-8 -2 -20 -2t-20 2v195h-388q-20 49 2 88l279 503q23 0 43 -14l-272 -483q-20 -35 -17 -53h353v237q8 2 20 2t20 -2v-237h109q2 -7 2 -20zM303 1315q12 0 16 -2v-774q-4 -2 -20 -2t-20 2v731l-199 -107q-12 12 -17 37q95 49 135 71
q38 23 48 27t18 8t14 6q6 1 9 2q4 1 16 1zM1171 1352q25 6 50 0l-985 -1450q-27 -6 -50 0z" />
    <glyph glyph-name="onehalf" unicode="&#xbd;" horiz-adv-x="1501" 
d="M1413 18q0 -6 -4 -18h-487q-4 8 -4 20t18 31q248 250 318 339q71 89 71 172t-49 129t-133 46q-121 0 -195 -86q-20 4 -26 27q84 100 221 100q99 0 161 -55t62 -139t-45 -162q-45 -76 -92 -127t-147 -149t-111 -109l28 4h410q4 -17 4 -23zM300 1315q17 0 19 -2v-774
q-4 -2 -20 -2t-20 2v731l-199 -107q-12 12 -17 37q162 88 191 102t46 13zM1171 1352q25 6 50 0l-985 -1450q-23 -6 -50 0z" />
    <glyph glyph-name="threequarters" unicode="&#xbe;" horiz-adv-x="1519" 
d="M1446 216q0 -13 -2 -21h-109v-195q-8 -2 -20 -2t-21 2v195h-387q-20 49 2 88l279 503q20 0 43 -14l-273 -483q-20 -35 -16 -53h352v237q8 2 20 2t21 -2v-237h109q2 -7 2 -20zM314 592q106 0 174 51t69 148q0 199 -248 198h-37q-2 3 -2 17t13 28l225 240h-408q-2 8 -2 21
t2 20h467q8 -20 -12 -45l-229 -242q128 0 200 -60t72 -176t-82 -178t-208 -63q-126 0 -210 78q8 23 29 37q81 -74 187 -74zM1288 1352q25 6 49 0l-985 -1450q-29 -6 -49 0z" />
    <glyph glyph-name="questiondown" unicode="&#xbf;" horiz-adv-x="819" 
d="M508 410h-4q-166 -2 -263 -102t-97 -259q0 -158 94 -256t242 -98t249 80q20 -10 23 -29q-109 -92 -273 -92q-163 0 -271 108t-108 279q0 172 102 283t261 125q0 59 10 178l12 2l13 -2q10 -123 10 -217zM475 864q-23 0 -40 16t-17 41q0 24 17 40t40 16t40 -16t17 -40
q0 -25 -17 -41t-40 -16z" />
    <glyph glyph-name="Agrave" unicode="&#xc0;" horiz-adv-x="1193" 
d="M287 477h624l-297 723l-24 66l-23 -66zM1116 -4h-8l-182 442h-654l-172 -440h-8q-23 0 -35 4l516 1313q6 2 18.5 2t16.5 -2l543 -1313q-12 -6 -35 -6zM748 1438q0 -14 -15 -29l-350 193q6 27 23 38z" />
    <glyph glyph-name="Aacute" unicode="&#xc1;" horiz-adv-x="1193" 
d="M287 477h624l-297 723l-24 66l-23 -66zM1116 -4h-8l-182 442h-654l-172 -440h-8q-23 0 -35 4l516 1313q6 2 18.5 2t16.5 -2l543 -1313q-12 -6 -35 -6zM801 1602l-350 -193q-14 14 -15 29l342 202q17 -11 23 -38z" />
    <glyph glyph-name="Acircumflex" unicode="&#xc2;" horiz-adv-x="1193" 
d="M287 477h624l-297 723l-24 66l-23 -66zM1116 -4h-8l-182 442h-654l-172 -440h-8q-23 0 -35 4l516 1313q6 2 18.5 2t16.5 -2l543 -1313q-12 -6 -35 -6zM354 1382q-18 8 -22 27l239 229q20 6 41 0l238 -229q-6 -16 -23 -27l-237 217z" />
    <glyph glyph-name="Atilde" unicode="&#xc3;" horiz-adv-x="1193" 
d="M287 477h624l-297 723l-24 66l-23 -66zM1116 -4h-8l-182 442h-654l-172 -440h-8q-23 0 -35 4l516 1313q6 2 18.5 2t16.5 -2l543 -1313q-12 -6 -35 -6zM453 1556q-113 0 -150 -96q-23 0 -35 13q47 121 187 120q49 0 139 -49t133 -49q115 0 152 96q27 0 34 -12
q-47 -121 -186 -121q-55 0 -144 49t-130 49z" />
    <glyph glyph-name="Adieresis" unicode="&#xc4;" horiz-adv-x="1193" 
d="M287 477h624l-297 723l-24 66l-23 -66zM1116 -4h-8l-182 442h-654l-172 -440h-8q-23 0 -35 4l516 1313q6 2 18.5 2t16.5 -2l543 -1313q-12 -6 -35 -6zM802.5 1489q-21.5 0 -37 15.5t-15.5 36t15 35.5t35.5 15t36 -15t15.5 -35.5t-14 -36t-35.5 -15.5zM376.5 1489
q-20.5 0 -35.5 15.5t-15 36t15 35.5t35.5 15t36 -15t15.5 -35.5t-15.5 -36t-36 -15.5z" />
    <glyph glyph-name="Aring" unicode="&#xc5;" horiz-adv-x="1193" 
d="M287 477h624l-297 723l-24 66l-23 -66zM1116 -4h-8l-182 442h-654l-172 -440h-8q-23 0 -35 4l516 1313q6 2 18.5 2t16.5 -2l543 -1313q-12 -6 -35 -6zM593 1651q-58 0 -97 -41t-39 -96.5t39 -96.5t97 -41t95 40t37 97.5t-37 97.5t-95 40zM592 1337q-72 0 -124 51.5
t-52 124t52 125t124 52.5t123 -52.5t51 -125.5t-51 -124t-123 -51z" />
    <glyph glyph-name="AE" unicode="&#xc6;" horiz-adv-x="1591" 
d="M817 616v652l-393 -652h393zM1499 19.5q0 -7.5 -4 -19.5h-678v578h-418l-352 -582h-8q-23 0 -35 4l797 1315h663q4 -12 4 -19.5t-4 -19.5h-606v-660h545q4 -12 4 -19t-4 -19h-545v-539h637q4 -12 4 -19.5z" />
    <glyph glyph-name="Ccedilla" unicode="&#xc7;" horiz-adv-x="1230" 
d="M903 -235.5q0 -73.5 -61.5 -112.5t-147.5 -39t-110 10q0 27 12 39q35 -10 102.5 -10t115.5 28.5t48 86t-46 83t-148 33.5l41 97q-268 10 -425 199.5t-157 485t171 486t452 190.5q221 0 387 -127q-6 -23 -23 -32q-88 61 -169 89.5t-195 28.5q-264 0 -422 -180t-158 -462.5
t152.5 -460t405.5 -177.5t407 134q23 -8 22 -33q-172 -139 -407 -141l-27 -62q88 -12 134 -46t46 -107.5z" />
    <glyph glyph-name="Egrave" unicode="&#xc8;" horiz-adv-x="1091" 
d="M999 19.5q0 -7.5 -4 -19.5h-780v1315h750q4 -12 4 -19.5t-4 -19.5h-709v-569h647q4 -12 4 -19.5t-4 -19.5h-647v-629h739q4 -12 4 -19.5zM768 1438q0 -14 -14 -29l-351 193q6 27 23 38z" />
    <glyph glyph-name="Eacute" unicode="&#xc9;" horiz-adv-x="1091" 
d="M999 19.5q0 -7.5 -4 -19.5h-780v1315h750q4 -12 4 -19.5t-4 -19.5h-709v-569h647q4 -12 4 -19.5t-4 -19.5h-647v-629h739q4 -12 4 -19.5zM821 1602l-350 -193q-14 14 -14 29l342 202q16 -11 22 -38z" />
    <glyph glyph-name="Ecircumflex" unicode="&#xca;" horiz-adv-x="1091" 
d="M999 19.5q0 -7.5 -4 -19.5h-780v1315h750q4 -12 4 -19.5t-4 -19.5h-709v-569h647q4 -12 4 -19.5t-4 -19.5h-647v-629h739q4 -12 4 -19.5zM375 1382q-18 8 -23 27l240 229q20 6 41 0l237 -229q-6 -16 -22 -27l-238 217z" />
    <glyph glyph-name="Edieresis" unicode="&#xcb;" horiz-adv-x="1091" 
d="M999 19.5q0 -7.5 -4 -19.5h-780v1315h750q4 -12 4 -19.5t-4 -19.5h-709v-569h647q4 -12 4 -19.5t-4 -19.5h-647v-629h739q4 -12 4 -19.5zM822.5 1489q-21.5 0 -37 15.5t-15.5 36t15.5 35.5t36 15t35.5 -15t15 -35.5t-14 -36t-35.5 -15.5zM397.5 1489q-20.5 0 -36 15.5
t-15.5 36t15.5 35.5t36 15t36 -15t15.5 -35.5t-15.5 -36t-36 -15.5z" />
    <glyph glyph-name="Igrave" unicode="&#xcc;" horiz-adv-x="471" 
d="M235.5 -4q-12.5 0 -20.5 4v1315q8 4 20.5 4t20.5 -4v-1315q-8 -4 -20.5 -4zM350 1403l-274 207q10 25 28 35l263 -218q-1 -14 -17 -24z" />
    <glyph glyph-name="Iacute" unicode="&#xcd;" horiz-adv-x="471" 
d="M235.5 -4q-12.5 0 -20.5 4v1315q8 4 20.5 4t20.5 -4v-1315q-8 -4 -20.5 -4zM135 1403q-16 10 -18 24l264 218q20 -10 27 -35z" />
    <glyph glyph-name="Icircumflex" unicode="&#xce;" horiz-adv-x="471" 
d="M235.5 -4q-12.5 0 -20.5 4v1315q8 4 20.5 4t20.5 -4v-1315q-8 -4 -20.5 -4zM252 1638l199 -217q-8 -14 -25 -20l-188 194l-189 -198q-16 4 -24 18l198 223q13 4 29 0z" />
    <glyph glyph-name="Idieresis" unicode="&#xcf;" horiz-adv-x="471" 
d="M235.5 -4q-12.5 0 -20.5 4v1315q8 4 20.5 4t20.5 -4v-1315q-8 -4 -20.5 -4zM389.5 1464q-20.5 0 -36 15.5t-15.5 36t15.5 36t36 15.5t35.5 -15.5t15 -36t-15 -36t-35.5 -15.5zM86 1464q-20 0 -35.5 15.5t-15.5 36t15.5 36t35.5 15.5t35.5 -15.5t15.5 -36t-15.5 -36
t-35.5 -15.5z" />
    <glyph glyph-name="Eth" unicode="&#xd0;" horiz-adv-x="1380" 
d="M563 23q301 0 475 173t174 461t-173 461.5t-474 173.5q-172 0 -309 -18v-590h262q2 -4 2 -16.5t-2 -18.5h-262v-608q170 -18 307 -18zM565 1333q319 0 504.5 -187.5t185.5 -485.5t-186 -488t-506 -190q-182 0 -348 18v649h-145q-2 6 -2 18.5t2 16.5h145v623
q155 26 350 26z" />
    <glyph glyph-name="Ntilde" unicode="&#xd1;" horiz-adv-x="1388" 
d="M1153 1323q12 0 21 -4v-1315q-10 -6 -39 -6l-881 1251l2 -43v-1206q-8 -4 -20.5 -4t-20.5 4v1313q25 10 41 6l864 -1233l15 -23l-2 29v1227q8 4 20 4zM563 1556q-113 0 -149 -96q-23 0 -35 13q47 121 186 120q49 0 139.5 -49t133.5 -49q115 0 151 96q27 0 35 -12
q-47 -121 -186 -121q-55 0 -144.5 49t-130.5 49z" />
    <glyph glyph-name="Ograve" unicode="&#xd2;" horiz-adv-x="1476" 
d="M738 20q263 0 416 177.5t153 463t-153 462.5t-417 177t-415.5 -177t-151.5 -462t152.5 -463t415.5 -178zM737.5 -20q-278.5 0 -444.5 191t-166 487t166 489.5t445.5 193.5t445.5 -190t166 -487.5t-167 -490.5t-445.5 -193zM881 1409l-351 193q6 27 23 38l342 -202
q0 -15 -14 -29z" />
    <glyph glyph-name="Oacute" unicode="&#xd3;" horiz-adv-x="1476" 
d="M738 20q263 0 416 177.5t153 463t-153 462.5t-417 177t-415.5 -177t-151.5 -462t152.5 -463t415.5 -178zM737.5 -20q-278.5 0 -444.5 191t-166 487t166 489.5t445.5 193.5t445.5 -190t166 -487.5t-167 -490.5t-445.5 -193zM598 1409q-14 14 -14 29l342 202q16 -12 22 -38
z" />
    <glyph glyph-name="Ocircumflex" unicode="&#xd4;" horiz-adv-x="1476" 
d="M738 20q263 0 416 177.5t153 463t-153 462.5t-417 177t-415.5 -177t-151.5 -462t152.5 -463t415.5 -178zM737.5 -20q-278.5 0 -444.5 191t-166 487t166 489.5t445.5 193.5t445.5 -190t166 -487.5t-167 -490.5t-445.5 -193zM502 1382q-18 8 -23 27l240 229q20 6 41 0
l237 -229q-6 -16 -22 -27l-238 217z" />
    <glyph glyph-name="Otilde" unicode="&#xd5;" horiz-adv-x="1476" 
d="M738 20q263 0 416 177.5t153 463t-153 462.5t-417 177t-415.5 -177t-151.5 -462t152.5 -463t415.5 -178zM737.5 -20q-278.5 0 -444.5 191t-166 487t166 489.5t445.5 193.5t445.5 -190t166 -487.5t-167 -490.5t-445.5 -193zM874 1495q115 0 152 96q27 0 35 -12
q-47 -121 -187 -121q-55 0 -144 49t-130 49q-112 0 -149 -96q-23 0 -35 13q47 121 186 120q49 0 139 -49t133 -49z" />
    <glyph glyph-name="Odieresis" unicode="&#xd6;" horiz-adv-x="1476" 
d="M738 20q263 0 416 177.5t153 463t-153 462.5t-417 177t-415.5 -177t-151.5 -462t152.5 -463t415.5 -178zM737.5 -20q-278.5 0 -444.5 191t-166 487t166 489.5t445.5 193.5t445.5 -190t166 -487.5t-167 -490.5t-445.5 -193zM949.5 1489q-21.5 0 -37 15.5t-15.5 36
t15.5 35.5t36 15t35.5 -15t15 -35.5t-14 -36t-35.5 -15.5zM524.5 1489q-20.5 0 -36 15.5t-15.5 36t15.5 35.5t36 15t35.5 -15t15 -35.5t-15 -36t-35.5 -15.5z" />
    <glyph glyph-name="multiply" unicode="&#xd7;" horiz-adv-x="888" 
d="M725 737l-254 -254l254 -256q-4 -16 -25 -26l-256 256l-254 -256q-20 6 -26 26l256 256l-256 254q6 16 26 27l254 -256l256 256q19 -11 25 -27z" />
    <glyph glyph-name="Oslash" unicode="&#xd8;" horiz-adv-x="1476" 
d="M1307 654.5q0 280.5 -138 449.5l-831 -924q154 -160 408.5 -160t407.5 177t153 457.5zM170 665.5q0 -280.5 143 -456.5l834 924q-156 168 -415 167.5t-410.5 -177.5t-151.5 -457.5zM1350 657.5q0 -291.5 -167 -484.5t-436.5 -193t-435.5 170l-149 -166q-20 6 -27 26
l152 168q-160 188 -160 482t166 487.5t440 193.5t441 -178l151 168q21 -4 27 -24l-154 -172q152 -186 152 -477.5z" />
    <glyph glyph-name="Ugrave" unicode="&#xd9;" horiz-adv-x="1368" 
d="M695 -20q-220 0 -358 146t-138 384v805q8 4 20 4t21 -4v-805q0 -217 123.5 -353.5t329.5 -136.5t320.5 136.5t114.5 353.5v805q8 4 20.5 4t20.5 -4v-805q0 -227 -127 -378.5t-347 -151.5zM838 1409l-351 193q6 27 23 38l342 -202q0 -15 -14 -29z" />
    <glyph glyph-name="Uacute" unicode="&#xda;" horiz-adv-x="1368" 
d="M695 -20q-220 0 -358 146t-138 384v805q8 4 20 4t21 -4v-805q0 -217 123.5 -353.5t329.5 -136.5t320.5 136.5t114.5 353.5v805q8 4 20.5 4t20.5 -4v-805q0 -227 -127 -378.5t-347 -151.5zM555 1409q-14 14 -14 29l342 202q16 -12 22 -38z" />
    <glyph glyph-name="Ucircumflex" unicode="&#xdb;" horiz-adv-x="1368" 
d="M695 -20q-220 0 -358 146t-138 384v805q8 4 20 4t21 -4v-805q0 -217 123.5 -353.5t329.5 -136.5t320.5 136.5t114.5 353.5v805q8 4 20.5 4t20.5 -4v-805q0 -227 -127 -378.5t-347 -151.5zM459 1382q-16 8 -23 27l240 229q20 6 41 0l237 -229q-6 -16 -22 -27l-238 217z
" />
    <glyph glyph-name="Udieresis" unicode="&#xdc;" horiz-adv-x="1368" 
d="M695 -20q-220 0 -358 146t-138 384v805q8 4 20 4t21 -4v-805q0 -217 123.5 -353.5t329.5 -136.5t320.5 136.5t114.5 353.5v805q8 4 20.5 4t20.5 -4v-805q0 -227 -127 -378.5t-347 -151.5zM905.5 1489q-20.5 0 -36 15.5t-15.5 36t15.5 35.5t36 15t35.5 -15t15 -35.5
t-15 -36t-35.5 -15.5zM482.5 1489q-21.5 0 -37 15.5t-15.5 36t15.5 35.5t36 15t35.5 -15t15 -35.5t-14 -36t-35.5 -15.5z" />
    <glyph glyph-name="Yacute" unicode="&#xdd;" horiz-adv-x="1132" 
d="M569.5 -4q-12.5 0 -20.5 4v565l-510 752q20 4 41 4h6l477 -698l8 -15l461 713h15q16 0 32 -4l-489 -750v-567q-8 -4 -20.5 -4zM780 1602l-350 -193q-14 14 -14 29l342 202q16 -11 22 -38z" />
    <glyph glyph-name="Thorn" unicode="&#xde;" horiz-adv-x="1081" 
d="M532 1018q-143 0 -276 -35v-655q112 -31 276 -25q207 0 311.5 97.5t103.5 261.5t-106.5 260t-308.5 96zM532 1059q219 0 338 -104.5t119 -289.5t-118.5 -294t-318.5 -109t-296 23v-285q-8 -4 -20.5 -4t-20.5 4v1319q8 4 20.5 4t20.5 -4v-295q135 35 276 35z" />
    <glyph glyph-name="germandbls" unicode="&#xdf;" horiz-adv-x="1142" 
d="M1051 236q0 -115 -79 -183t-218 -67q-174 0 -279 108q2 20 27 31q94 -100 252 -100q120 0 188 58q68 59 68 151t-47 139t-155 92t-140 60t-77 48q-46 33 -62 71q-15 38 -15 91q0 109 85 168t210 60q66 0 117 -11q-16 412 -353 412q-162 0 -254 -97t-92 -253v-1014
q-8 -4 -20 -4t-21 4v1014q0 178 108 284t286 106t282 -118q104 -119 105 -344q0 -20 -6 -39q-215 50 -333 -29q-73 -47 -73 -137q0 -57 30 -97q29 -40 63 -58t73 -35t43 -19t9 -4t9 -4q156 -68 199 -106q70 -63 70 -178z" />
    <glyph glyph-name="agrave" unicode="&#xe0;" horiz-adv-x="1003" 
d="M143 285.5q0 -115.5 85 -190.5t264.5 -75t306.5 66v356q-143 94 -315.5 94.5t-256.5 -67.5t-84 -183.5zM799 629q0 313 -333 313q-157 0 -296 -102q-16 8 -20 28q145 115 316 115t272.5 -84t101.5 -256v-582q-147 -80 -345 -79.5t-297.5 83t-99.5 222t104.5 215.5
t271.5 76t325 -91v142zM612 1120q-2 -14 -18 -24l-311 250q10 25 28 34z" />
    <glyph glyph-name="aacute" unicode="&#xe1;" horiz-adv-x="1003" 
d="M143 285.5q0 -115.5 85 -190.5t264.5 -75t306.5 66v356q-143 94 -315.5 94.5t-256.5 -67.5t-84 -183.5zM799 629q0 313 -333 313q-157 0 -296 -102q-16 8 -20 28q145 115 316 115t272.5 -84t101.5 -256v-582q-147 -80 -345 -79.5t-297.5 83t-99.5 222t104.5 215.5
t271.5 76t325 -91v142zM342 1096q-16 10 -18 24l301 260q18 -10 28 -34z" />
    <glyph glyph-name="acircumflex" unicode="&#xe2;" horiz-adv-x="1003" 
d="M143 285.5q0 -115.5 85 -190.5t264.5 -75t306.5 66v356q-143 94 -315.5 94.5t-256.5 -67.5t-84 -183.5zM799 629q0 313 -333 313q-157 0 -296 -102q-16 8 -20 28q145 115 316 115t272.5 -84t101.5 -256v-582q-147 -80 -345 -79.5t-297.5 83t-99.5 222t104.5 215.5
t271.5 76t325 -91v142zM242 1098q-16 6 -25 24l242 260q18 6 37 0l239 -268q-6 -14 -26 -22l-234 251z" />
    <glyph glyph-name="atilde" unicode="&#xe3;" horiz-adv-x="1003" 
d="M143 285.5q0 -115.5 85 -190.5t264.5 -75t306.5 66v356q-143 94 -315.5 94.5t-256.5 -67.5t-84 -183.5zM799 629q0 313 -333 313q-157 0 -296 -102q-16 8 -20 28q145 115 316 115t272.5 -84t101.5 -256v-582q-147 -80 -345 -79.5t-297.5 83t-99.5 222t104.5 215.5
t271.5 76t325 -91v142zM340 1266q-96 0 -131 -92q-23 0 -35 12q45 119 166 119q55 0 145 -46.5t136 -46.5q96 0 127 93q27 0 34 -13q-41 -119 -161 -118q-57 0 -146.5 46t-134.5 46z" />
    <glyph glyph-name="adieresis" unicode="&#xe4;" horiz-adv-x="1003" 
d="M143 285.5q0 -115.5 85 -190.5t264.5 -75t306.5 66v356q-143 94 -315.5 94.5t-256.5 -67.5t-84 -183.5zM799 629q0 313 -333 313q-157 0 -296 -102q-16 8 -20 28q145 115 316 115t272.5 -84t101.5 -256v-582q-147 -80 -345 -79.5t-297.5 83t-99.5 222t104.5 215.5
t271.5 76t325 -91v142zM688.5 1184q-20.5 0 -36 15t-15.5 35.5t15.5 36t36 15.5t35.5 -15.5t15 -37t-15 -35.5t-35.5 -14zM265.5 1184q-21.5 0 -37 15t-15.5 35.5t15.5 36t36 15.5t35.5 -15.5t15 -37t-14 -35.5t-35.5 -14z" />
    <glyph glyph-name="aring" unicode="&#xe5;" horiz-adv-x="1003" 
d="M143 285.5q0 -115.5 85 -190.5t264.5 -75t306.5 66v356q-143 94 -315.5 94.5t-256.5 -67.5t-84 -183.5zM799 629q0 313 -333 313q-157 0 -296 -102q-16 8 -20 28q145 115 316 115t272.5 -84t101.5 -256v-582q-147 -80 -345 -79.5t-297.5 83t-99.5 222t104.5 215.5
t271.5 76t325 -91v142zM480 1374q-58 0 -97 -40t-39 -96t39 -97t97 -41t95 40t37 97t-37 97t-95 40zM479.5 1061q-71.5 0 -124 52t-52.5 125t52.5 124t124 51t122.5 -51t51 -124t-51 -125t-122.5 -52z" />
    <glyph glyph-name="ae" unicode="&#xe6;" horiz-adv-x="1634" 
d="M770 496h-293q-170 0 -251 -67t-82 -174.5t67.5 -171t191.5 -63.5t233 88q60 48 97 147t37 241zM813 535h668q0 186 -84 297.5t-231.5 111.5t-250 -111.5t-102.5 -297.5zM770 629q0 313 -316 313q-152 0 -292 -102q-16 8 -21 28q145 115 330 115q135 0 223 -69.5
t107 -219.5q37 139 139 214t223 75q170 0 265.5 -124t97.5 -359v-4h-715v-15q0 -236 99.5 -348.5t269.5 -112.5q72 0 133 21.5t85.5 38t71.5 55.5q16 -8 23 -31q-55 -43 -86 -62t-92.5 -39.5t-134.5 -20.5q-168 0 -268.5 92t-123.5 268q-25 -184 -139.5 -272t-251.5 -88
t-217 72.5t-80 203.5t99.5 204t277.5 73h293v94z" />
    <glyph glyph-name="ccedilla" unicode="&#xe7;" horiz-adv-x="995" 
d="M741 -235.5q0 -73.5 -61.5 -112.5t-147 -39t-110.5 10q0 27 12 39q35 -10 103 -10t115.5 28.5t47.5 86t-46 83t-148 33.5l41 99q-186 10 -308 143t-122 358t135 362.5t321 137.5t318 -109q-6 -20 -27 -30q-117 98 -295 98t-293.5 -132t-115.5 -334t114.5 -327.5
t296.5 -125.5t314 106q18 -12 22 -35q-147 -111 -319 -112l-27 -64q88 -12 134 -46t46 -107.5z" />
    <glyph glyph-name="egrave" unicode="&#xe8;" horiz-adv-x="1067" 
d="M547.5 944q-154.5 0 -262 -113.5t-123.5 -293.5h753q0 209 -106.5 308t-261 99zM160 500v-19q0 -219 110.5 -340t303 -121t325.5 115q16 -8 23 -31q-152 -123 -352.5 -122.5t-326.5 127.5t-126 364t130 373.5t309 136.5t292 -120t115 -359v-4h-803zM692 1120
q-2 -14 -18 -24l-312 250q10 25 29 34z" />
    <glyph glyph-name="eacute" unicode="&#xe9;" horiz-adv-x="1067" 
d="M547.5 944q-154.5 0 -262 -113.5t-123.5 -293.5h753q0 209 -106.5 308t-261 99zM160 500v-19q0 -219 110.5 -340t303 -121t325.5 115q16 -8 23 -31q-152 -123 -352.5 -122.5t-326.5 127.5t-126 364t130 373.5t309 136.5t292 -120t115 -359v-4h-803zM422 1096
q-16 10 -19 24l302 260q18 -10 28 -34z" />
    <glyph glyph-name="ecircumflex" unicode="&#xea;" horiz-adv-x="1067" 
d="M547.5 944q-154.5 0 -262 -113.5t-123.5 -293.5h753q0 209 -106.5 308t-261 99zM160 500v-19q0 -219 110.5 -340t303 -121t325.5 115q16 -8 23 -31q-152 -123 -352.5 -122.5t-326.5 127.5t-126 364t130 373.5t309 136.5t292 -120t115 -359v-4h-803zM322 1098
q-16 6 -25 24l242 260q18 6 36 0l240 -268q-6 -14 -27 -22l-233 251z" />
    <glyph glyph-name="edieresis" unicode="&#xeb;" horiz-adv-x="1067" 
d="M547.5 944q-154.5 0 -262 -113.5t-123.5 -293.5h753q0 209 -106.5 308t-261 99zM160 500v-19q0 -219 110.5 -340t303 -121t325.5 115q16 -8 23 -31q-152 -123 -352.5 -122.5t-326.5 127.5t-126 364t130 373.5t309 136.5t292 -120t115 -359v-4h-803zM769.5 1184
q-21.5 0 -37 15t-15.5 35.5t15.5 36t35.5 15.5t35.5 -15.5t15.5 -37t-14 -35.5t-35.5 -14zM344.5 1184q-20.5 0 -36 15t-15.5 35.5t15.5 36t36 15.5t35.5 -15.5t15 -37t-15 -35.5t-35.5 -14z" />
    <glyph glyph-name="igrave" unicode="&#xec;" horiz-adv-x="421" 
d="M211 -4q-12 0 -21 4v958q23 11 41 0v-958q-8 -4 -20 -4zM332 1092l-269 256q12 23 33 32l256 -266q-2 -10 -20 -22z" />
    <glyph glyph-name="iacute" unicode="&#xed;" horiz-adv-x="421" 
d="M211 -4q-12 0 -21 4v958q23 11 41 0v-958q-8 -4 -20 -4zM84 1092q-16 10 -21 22l259 266q18 -10 30 -32z" />
    <glyph glyph-name="icircumflex" unicode="&#xee;" horiz-adv-x="421" 
d="M211 -4q-12 0 -21 4v958q23 11 41 0v-958q-8 -4 -20 -4zM233 1393l193 -265q-10 -16 -20 -18l-191 244l-190 -244q-14 4 -21 16l195 267q16 4 34 0z" />
    <glyph glyph-name="idieresis" unicode="&#xef;" horiz-adv-x="421" 
d="M211 -4q-12 0 -21 4v958q23 11 41 0v-958q-8 -4 -20 -4zM368.5 1184q-21.5 0 -37.5 15t-16 35.5t15.5 36t36 15.5t36 -15.5t15.5 -37t-14 -35.5t-35.5 -14zM64.5 1184q-21.5 0 -37 15t-15.5 35.5t15.5 36t36 15.5t36 -15.5t15.5 -37t-14.5 -35.5t-36 -14z" />
    <glyph glyph-name="eth" unicode="&#xf0;" horiz-adv-x="1099" 
d="M547 23q176 1 281 113q106 112 106 291t-106 296t-281 117t-281 -118t-106 -295t105 -291q106 -113 282 -113zM977 430q0 -201 -123 -325q-123 -123 -309 -123t-307 122t-121 324q0 201 123 327t307 126q274 0 381 -244q-66 350 -348 532l-205 -143q-6 4 -15 12
q-6 10 -6 17l193 135q-115 63 -246 96q0 27 14 41q152 -45 267 -115l161 115q2 0 13 -10q8 -12 8 -19l-152 -106q365 -244 365 -762z" />
    <glyph glyph-name="ntilde" unicode="&#xf1;" horiz-adv-x="1126" 
d="M563 983q203 0 296 -102.5t93 -278.5v-602q-8 -4 -20 -4t-21 4v602q0 152 -80.5 246t-267 94t-344.5 -104v-838q-8 -4 -20.5 -4t-20.5 4v856q182 127 385 127zM418 1266q-96 0 -131 -92q-23 0 -35 12q45 119 166 119q55 0 145 -46.5t135 -46.5q96 0 127 93q27 0 35 -13
q-41 -119 -162 -118q-57 0 -146 46t-134 46z" />
    <glyph glyph-name="ograve" unicode="&#xf2;" horiz-adv-x="1171" 
d="M585.5 23q192.5 0 310.5 130t118 326.5t-118 329.5t-309 133t-310 -134t-119 -330t117.5 -325.5t310 -129.5zM583 -18q-202 0 -335 139t-133 358t135 361.5t338 142.5t336 -141.5t133 -358.5t-136 -359t-338 -142zM705 1096l-312 250q10 25 29 34l301 -260
q-2 -14 -18 -24z" />
    <glyph glyph-name="oacute" unicode="&#xf3;" horiz-adv-x="1171" 
d="M585.5 23q192.5 0 310.5 130t118 326.5t-118 329.5t-309 133t-310 -134t-119 -330t117.5 -325.5t310 -129.5zM583 -18q-202 0 -335 139t-133 358t135 361.5t338 142.5t336 -141.5t133 -358.5t-136 -359t-338 -142zM453 1096q-16 10 -19 24l301 260q18 -10 29 -34z" />
    <glyph glyph-name="ocircumflex" unicode="&#xf4;" horiz-adv-x="1171" 
d="M585.5 23q192.5 0 310.5 130t118 326.5t-118 329.5t-309 133t-310 -134t-119 -330t117.5 -325.5t310 -129.5zM583 -18q-202 0 -335 139t-133 358t135 361.5t338 142.5t336 -141.5t133 -358.5t-136 -359t-338 -142zM606 1382l240 -268q-6 -14 -27 -22l-233 251l-234 -245
q-16 6 -24 24l241 260q19 6 37 0z" />
    <glyph glyph-name="otilde" unicode="&#xf5;" horiz-adv-x="1171" 
d="M585.5 23q192.5 0 310.5 130t118 326.5t-118 329.5t-309 133t-310 -134t-119 -330t117.5 -325.5t310 -129.5zM583 -18q-202 0 -335 139t-133 358t135 361.5t338 142.5t336 -141.5t133 -358.5t-136 -359t-338 -142zM451 1305q55 0 145 -46.5t135 -46.5q96 0 127 93
q25 0 35 -13q-41 -119 -162 -118q-57 0 -146 46t-134 46q-97 0 -132 -92q-23 0 -34 12q45 119 166 119z" />
    <glyph glyph-name="odieresis" unicode="&#xf6;" horiz-adv-x="1171" 
d="M585.5 23q192.5 0 310.5 130t118 326.5t-118 329.5t-309 133t-310 -134t-119 -330t117.5 -325.5t310 -129.5zM583 -18q-202 0 -335 139t-133 358t135 361.5t338 142.5t336 -141.5t133 -358.5t-136 -359t-338 -142zM798.5 1184q-20.5 0 -35.5 15t-15 35.5t15 36t35.5 15.5
t36 -15.5t15.5 -37t-15.5 -35.5t-36 -14zM376.5 1184q-21.5 0 -37 15t-15.5 35.5t15 36t35.5 15.5t36 -15.5t15.5 -37t-14 -35.5t-35.5 -14z" />
    <glyph glyph-name="divide" unicode="&#xf7;" horiz-adv-x="1093" 
d="M548 127q-22 0 -37 15q-15 16 -15 36t15 36t35 15q20 0 36 -15t16 -37t-14 -36t-36 -14zM164 481q0 6 4 19h758q4 -6 4 -18t-4 -19h-758q-4 12 -4 18zM496 786q0 20 15 36t35 16t36 -16t16 -36t-14 -36t-36 -15q-22 -1 -36 15q-16 16 -16 36z" />
    <glyph glyph-name="oslash" unicode="&#xf8;" horiz-adv-x="1171" 
d="M1014 476.5q0 194.5 -113 326.5l-602 -674q117 -106 298.5 -106t299 129.5t117.5 324zM158 478q0 -196 114 -322l605 673q-119 113 -300 113t-300 -134t-119 -330zM1057 479.5q0 -213.5 -136.5 -355.5t-328.5 -142t-322 116l-129 -143q-23 8 -24 27l127 143
q-129 139 -129 356t135 359.5t330.5 142.5t324.5 -123l125 141q23 -4 27 -24l-127 -141q127 -143 127 -356.5z" />
    <glyph glyph-name="ugrave" unicode="&#xf9;" horiz-adv-x="1116" 
d="M915.5 952q12.5 0 20.5 -4v-891q-174 -80 -377 -80t-294 98.5t-91 274.5v598q8 4 20.5 4t20.5 -4v-579q0 -350 346 -351q178 0 334 64v866q8 4 20.5 4zM698 1120q-2 -14 -18 -24l-311 250q10 25 28 34z" />
    <glyph glyph-name="uacute" unicode="&#xfa;" horiz-adv-x="1116" 
d="M915.5 952q12.5 0 20.5 -4v-891q-174 -80 -377 -80t-294 98.5t-91 274.5v598q8 4 20.5 4t20.5 -4v-579q0 -350 346 -351q178 0 334 64v866q8 4 20.5 4zM428 1096q-16 10 -18 24l301 260q18 -10 28 -34z" />
    <glyph glyph-name="ucircumflex" unicode="&#xfb;" horiz-adv-x="1116" 
d="M915.5 952q12.5 0 20.5 -4v-891q-174 -80 -377 -80t-294 98.5t-91 274.5v598q8 4 20.5 4t20.5 -4v-579q0 -350 346 -351q178 0 334 64v866q8 4 20.5 4zM328 1098q-16 6 -25 24l242 260q18 6 37 0l239 -268q-6 -14 -26 -22l-234 251z" />
    <glyph glyph-name="udieresis" unicode="&#xfc;" horiz-adv-x="1116" 
d="M915.5 952q12.5 0 20.5 -4v-891q-174 -80 -377 -80t-294 98.5t-91 274.5v598q8 4 20.5 4t20.5 -4v-579q0 -350 346 -351q178 0 334 64v866q8 4 20.5 4zM774.5 1184q-20.5 0 -36 15t-15.5 35.5t15.5 36t36 15.5t35.5 -15.5t15 -37t-15 -35.5t-35.5 -14zM351.5 1184
q-21.5 0 -37 15t-15.5 35.5t15.5 36t36 15.5t35.5 -15.5t15 -37t-14 -35.5t-35.5 -14z" />
    <glyph glyph-name="yacute" unicode="&#xfd;" horiz-adv-x="978" 
d="M893 950l20 -2q-53 -313 -248.5 -693t-461.5 -661q-23 6 -31 27q162 164 307 395q-113 162 -238.5 435.5t-170.5 496.5q10 2 24 2l21 -2q39 -201 155.5 -458t221.5 -422q4 -4 12 -17q2 6 10 19q115 193 219.5 431t136.5 447l21 2h2zM358 1096q-16 10 -18 24l301 260
q18 -10 29 -34z" />
    <glyph glyph-name="thorn" unicode="&#xfe;" horiz-adv-x="1128" 
d="M532 23q196 1 316 125q121 124 121 342t-119 336q-119 116 -300 116t-323 -104v-742q109 -73 305 -73zM562 983q186 0 318 -126q132 -125 132 -365t-133 -375t-337 -135t-315 67v-434q-8 -4 -20 -4t-21 4v1735q8 4 20 4t21 -4v-465q149 98 335 98z" />
    <glyph glyph-name="ydieresis" unicode="&#xff;" horiz-adv-x="978" 
d="M893 950l20 -2q-53 -313 -248.5 -693t-461.5 -661q-23 6 -31 27q162 164 307 395q-113 162 -238.5 435.5t-170.5 496.5q10 2 24 2l21 -2q39 -201 155.5 -458t221.5 -422q4 -4 12 -17q2 6 10 19q115 193 219.5 431t136.5 447l21 2h2zM704.5 1184q-20.5 0 -36 15
t-15.5 35.5t15.5 36t36 15.5t36 -15.5t15.5 -37t-15.5 -35.5t-36 -14zM282.5 1184q-21.5 0 -37.5 15t-16 35.5t15.5 36t36 15.5t36 -15.5t15.5 -37t-14 -35.5t-35.5 -14z" />
    <glyph glyph-name="Amacron" unicode="&#x100;" horiz-adv-x="1193" 
d="M287 477h624l-297 723l-24 66l-23 -66zM1116 -4h-8l-182 442h-654l-172 -440h-8q-23 0 -35 4l516 1313q6 2 18.5 2t16.5 -2l543 -1313q-12 -6 -35 -6zM334 1495q-4 0 -4 13t4 22h510q4 -6 4 -17.5t-4 -17.5h-510z" />
    <glyph glyph-name="amacron" unicode="&#x101;" horiz-adv-x="1003" 
d="M143 285.5q0 -115.5 85 -190.5t264.5 -75t306.5 66v356q-143 94 -315.5 94.5t-256.5 -67.5t-84 -183.5zM799 629q0 313 -333 313q-157 0 -296 -102q-16 8 -20 28q145 115 316 115t272.5 -84t101.5 -256v-582q-147 -80 -345 -79.5t-297.5 83t-99.5 222t104.5 215.5
t271.5 76t325 -91v142zM221 1184q-4 0 -4 13t4 22h510q4 -6 4 -17.5t-4 -17.5h-510z" />
    <glyph glyph-name="Abreve" unicode="&#x102;" horiz-adv-x="1193" 
d="M287 477h624l-297 723l-24 66l-23 -66zM1116 -4h-8l-182 442h-654l-172 -440h-8q-23 0 -35 4l516 1313q6 2 18.5 2t16.5 -2l543 -1313q-12 -6 -35 -6zM591 1430q-89 0 -162 54t-93 154q16 10 33 11q20 -86 82.5 -133.5t136.5 -47.5t143.5 48.5t81.5 130.5q18 0 31 -7
q-12 -98 -88 -154t-165 -56z" />
    <glyph glyph-name="abreve" unicode="&#x103;" horiz-adv-x="1003" 
d="M143 285.5q0 -115.5 85 -190.5t264.5 -75t306.5 66v356q-143 94 -315.5 94.5t-256.5 -67.5t-84 -183.5zM799 629q0 313 -333 313q-157 0 -296 -102q-16 8 -20 28q145 115 316 115t272.5 -84t101.5 -256v-582q-147 -80 -345 -79.5t-297.5 83t-99.5 222t104.5 215.5
t271.5 76t325 -91v142zM477 1112q-92 0 -164.5 58.5t-89.5 170.5q14 8 33 9q16 -98 79.5 -148.5t140.5 -50.5t146.5 51t77.5 148q18 0 31 -7q-8 -111 -85 -171t-169 -60z" />
    <glyph glyph-name="Aogonek" unicode="&#x104;" horiz-adv-x="1193" 
d="M287 477h624l-297 723l-24 66l-23 -66zM1071.5 -356q-66.5 0 -106 34.5t-39.5 98t50 124t130 99.5l-180 438h-654l-172 -440h-8q-23 0 -35 4l516 1313q6 2 18.5 2t16.5 -2l543 -1313h-2q-86 -41 -134 -101.5t-48 -114.5t32.5 -79.5t85 -26t103.5 38.5q16 -8 16 -28
q-66 -47 -132.5 -47z" />
    <glyph glyph-name="aogonek" unicode="&#x105;" horiz-adv-x="1003" 
d="M143 285.5q0 -115.5 85 -190.5t264.5 -75t306.5 66v356q-143 94 -315.5 94.5t-256.5 -67.5t-84 -183.5zM799 629q0 313 -333 313q-157 0 -296 -102q-16 8 -20 28q145 115 316 115t272.5 -84t101.5 -256v-582h2q-92 -59 -148.5 -133.5t-56.5 -135t31.5 -86t86 -26
t101.5 38.5q16 -8 16 -28q-66 -47 -131.5 -47t-105 34.5t-39.5 102.5q0 119 147 239q-119 -39 -282.5 -38.5t-263 83t-99.5 222t104.5 215.5t271.5 76t325 -91v142z" />
    <glyph glyph-name="Cacute" unicode="&#x106;" horiz-adv-x="1230" 
d="M720.5 -20q-262.5 0 -428 190t-165.5 490t171 490.5t452 190.5q221 0 387 -127q-6 -23 -23 -32q-88 61 -169 89.5t-195 28.5q-264 0 -422 -180t-158 -462.5t152.5 -460t405.5 -177.5t407 134q23 -8 22 -33q-174 -141 -436.5 -141zM569 1409q-14 14 -14 29l342 202
q16 -12 23 -38z" />
    <glyph glyph-name="cacute" unicode="&#x107;" horiz-adv-x="995" 
d="M566.5 -18q-190.5 0 -320 134t-129.5 363t135 366.5t321 137.5t318 -109q-6 -20 -27 -30q-117 98 -295 98t-293.5 -132t-115.5 -334t114.5 -327.5t296.5 -125.5t314 106q18 -12 22 -35q-150 -112 -340.5 -112zM432 1096q-16 10 -18 24l301 260q18 -10 28 -34z" />
    <glyph glyph-name="Cdotaccent" unicode="&#x10a;" horiz-adv-x="1230" 
d="M720.5 -20q-262.5 0 -428 190t-165.5 490t171 490.5t452 190.5q221 0 387 -127q-6 -23 -23 -32q-88 61 -169 89.5t-195 28.5q-264 0 -422 -180t-158 -462.5t152.5 -460t405.5 -177.5t407 134q23 -8 22 -33q-174 -141 -436.5 -141zM708.5 1493q-20.5 0 -36 15.5t-15.5 36
t15.5 35.5t36 15t36 -15t15.5 -35.5t-15.5 -36t-36 -15.5z" />
    <glyph glyph-name="cdotaccent" unicode="&#x10b;" horiz-adv-x="995" 
d="M566.5 -18q-190.5 0 -320 134t-129.5 363t135 366.5t321 137.5t318 -109q-6 -20 -27 -30q-117 98 -295 98t-293.5 -132t-115.5 -334t114.5 -327.5t296.5 -125.5t314 106q18 -12 22 -35q-150 -112 -340.5 -112zM568.5 1198q-21.5 0 -37 15.5t-15.5 36t15.5 35.5t36 15
t35.5 -15t15 -35.5t-14 -36t-35.5 -15.5z" />
    <glyph glyph-name="Ccaron" unicode="&#x10c;" horiz-adv-x="1230" 
d="M720.5 -20q-262.5 0 -428 190t-165.5 490t171 490.5t452 190.5q221 0 387 -127q-6 -23 -23 -32q-88 61 -169 89.5t-195 28.5q-264 0 -422 -180t-158 -462.5t152.5 -460t405.5 -177.5t407 134q23 -8 22 -33q-174 -141 -436.5 -141zM688 1386l-237 230q6 18 22 26l238 -217
l235 217q16 -8 23 -26l-240 -230q-21 -6 -41 0z" />
    <glyph glyph-name="ccaron" unicode="&#x10d;" horiz-adv-x="995" 
d="M566.5 -18q-190.5 0 -320 134t-129.5 363t135 366.5t321 137.5t318 -109q-6 -20 -27 -30q-117 98 -295 98t-293.5 -132t-115.5 -334t114.5 -327.5t296.5 -125.5t314 106q18 -12 22 -35q-150 -112 -340.5 -112zM547 1100l-240 266q8 16 27 23l233 -250l234 243
q18 -6 24 -24l-241 -258q-19 -6 -37 0z" />
    <glyph glyph-name="Dcaron" unicode="&#x10e;" horiz-adv-x="1380" 
d="M563 23q301 0 475 173t174 461t-173 461.5t-474 173.5q-172 0 -309 -18v-1233q170 -18 307 -18zM565 1333q319 0 504.5 -187.5t185.5 -485.5t-186 -488t-506 -190q-182 0 -348 18v1307q155 26 350 26zM637 1386q-20 -6 -41 0l-238 230q6 18 23 26l237 -217l236 217
q16 -8 23 -26z" />
    <glyph glyph-name="dcaron" unicode="&#x10f;" horiz-adv-x="1116" 
d="M158 472q0 -210 130 -329.5t311 -119.5t296 59v778q-106 82 -292 82t-315.5 -130t-129.5 -340zM915.5 1354q12.5 0 20.5 -4v-1295q-86 -41 -150.5 -57t-167.5 -16q-219 0 -361 130t-142 366.5t148.5 370.5t340.5 134t291 -74v441q8 4 20.5 4zM1141 1326q0 60 -21 120
q10 6 23.5 6t25.5 -4q12 -31 13 -107q0 -166 -68 -251q-18 0 -22 14q49 74 49 222z" />
    <glyph glyph-name="Dcroat" unicode="&#x110;" horiz-adv-x="1380" 
d="M563 23q301 0 475 173t174 461t-173 461.5t-474 173.5q-172 0 -309 -18v-590h262q2 -4 2 -16.5t-2 -18.5h-262v-608q170 -18 307 -18zM565 1333q319 0 504.5 -187.5t185.5 -485.5t-186 -488t-506 -190q-182 0 -348 18v649h-145q-2 6 -2 18.5t2 16.5h145v623
q155 26 350 26z" />
    <glyph glyph-name="dcroat" unicode="&#x111;" horiz-adv-x="1116" 
d="M158 472q0 -210 130 -329.5t311 -119.5t296 59v778q-106 82 -292 82t-315.5 -130t-129.5 -340zM1112 1183.5q0 -12.5 -2 -18.5h-174v-1110q-86 -41 -150.5 -57t-167.5 -16q-219 0 -361 130t-142 366.5t148.5 370.5t340.5 134t291 -74v256h-233q-8 24 0 35h233v150
q8 4 20.5 4t20.5 -4v-150h174q2 -4 2 -16.5z" />
    <glyph glyph-name="Emacron" unicode="&#x112;" horiz-adv-x="1091" 
d="M999 19.5q0 -7.5 -4 -19.5h-780v1315h750q4 -12 4 -19.5t-4 -19.5h-709v-569h647q4 -12 4 -19.5t-4 -19.5h-647v-629h739q4 -12 4 -19.5zM354 1495q-4 0 -4 13t4 22h510q4 -6 4 -17.5t-4 -17.5h-510z" />
    <glyph glyph-name="emacron" unicode="&#x113;" horiz-adv-x="1067" 
d="M547.5 944q-154.5 0 -262 -113.5t-123.5 -293.5h753q0 209 -106.5 308t-261 99zM160 500v-19q0 -219 110.5 -340t303 -121t325.5 115q16 -8 23 -31q-152 -123 -352.5 -122.5t-326.5 127.5t-126 364t130 373.5t309 136.5t292 -120t115 -359v-4h-803zM301 1184q-4 0 -4 13
t4 22h510q4 -6 4 -17.5t-4 -17.5h-510z" />
    <glyph glyph-name="Edotaccent" unicode="&#x116;" horiz-adv-x="1091" 
d="M999 19.5q0 -7.5 -4 -19.5h-780v1315h750q4 -12 4 -19.5t-4 -19.5h-709v-569h647q4 -12 4 -19.5t-4 -19.5h-647v-629h739q4 -12 4 -19.5zM610.5 1493q-20.5 0 -36 15.5t-15.5 36t15.5 35.5t36 15t36 -15t15.5 -35.5t-15.5 -36t-36 -15.5z" />
    <glyph glyph-name="edotaccent" unicode="&#x117;" horiz-adv-x="1067" 
d="M547.5 944q-154.5 0 -262 -113.5t-123.5 -293.5h753q0 209 -106.5 308t-261 99zM160 500v-19q0 -219 110.5 -340t303 -121t325.5 115q16 -8 23 -31q-152 -123 -352.5 -122.5t-326.5 127.5t-126 364t130 373.5t309 136.5t292 -120t115 -359v-4h-803zM557.5 1198
q-20.5 0 -36 15.5t-15.5 36t15.5 35.5t36 15t35.5 -15t15 -35.5t-15 -36t-35.5 -15.5z" />
    <glyph glyph-name="Eogonek" unicode="&#x118;" horiz-adv-x="1091" 
d="M875.5 -358q-66.5 0 -106.5 35.5t-40 100t65.5 124t159.5 98.5h-739v1315h750q4 -12 4 -19.5t-4 -19.5h-709v-569h647q4 -12 4 -19.5t-4 -19.5h-647v-629h739q4 -12 4 -19.5t-4 -19.5q-104 -51 -164.5 -108.5t-60.5 -109.5t33 -78t85 -26t103 39q16 -8 17 -28
q-66 -47 -132.5 -47z" />
    <glyph glyph-name="eogonek" unicode="&#x119;" horiz-adv-x="1067" 
d="M547.5 944q-154.5 0 -262 -113.5t-123.5 -293.5h753q0 209 -106.5 308t-261 99zM662 -208q0 -112 118 -111q54 0 101 38q16 -8 16 -28q-66 -47 -131.5 -47t-105 34.5t-39.5 102.5q0 106 133 229q-76 -29 -176 -28q-209 0 -335 127t-126 364t130 373.5t309 136.5t292 -120
t115 -359v-4h-803v-19q0 -219 110.5 -340t303 -121t325.5 115q16 -8 23 -31q-37 -29 -60 -43h4q-92 -59 -148 -134t-56 -135z" />
    <glyph glyph-name="Ecaron" unicode="&#x11a;" horiz-adv-x="1091" 
d="M999 19.5q0 -7.5 -4 -19.5h-780v1315h750q4 -12 4 -19.5t-4 -19.5h-709v-569h647q4 -12 4 -19.5t-4 -19.5h-647v-629h739q4 -12 4 -19.5zM631 1386q-20 -6 -41 0l-238 230q6 18 23 26l237 -217l236 217q16 -8 22 -26z" />
    <glyph glyph-name="ecaron" unicode="&#x11b;" horiz-adv-x="1067" 
d="M547.5 944q-154.5 0 -262 -113.5t-123.5 -293.5h753q0 209 -106.5 308t-261 99zM160 500v-19q0 -219 110.5 -340t303 -121t325.5 115q16 -8 23 -31q-152 -123 -352.5 -122.5t-326.5 127.5t-126 364t130 373.5t309 136.5t292 -120t115 -359v-4h-803zM573 1100
q-18 -6 -36 0l-240 266q8 16 27 23l233 -250l234 243q18 -6 24 -24z" />
    <glyph glyph-name="Gbreve" unicode="&#x11e;" horiz-adv-x="1318" 
d="M1178 606v-520q-186 -106 -453 -106t-432.5 188t-165.5 487t178 492.5t463 193.5q223 0 391 -122q-6 -23 -22 -33q-168 115 -369 114q-270 0 -434 -176t-164 -465t152.5 -464t399 -175t415.5 86v461h-377q-4 12 -4 19.5t4 19.5h418zM710 1430q-89 0 -162 54t-93 154
q16 10 32 11q20 -86 83 -133.5t137 -47.5t143.5 48.5t81.5 130.5q18 0 31 -7q-12 -98 -88 -154t-165 -56z" />
    <glyph glyph-name="gbreve" unicode="&#x11f;" horiz-adv-x="1118" 
d="M579.5 104q178.5 0 319.5 107v627q-111 104 -299.5 104t-314 -116.5t-125.5 -308.5t120.5 -302.5t299 -110.5zM613 983q208 0 327 -127v-852q0 -178 -107.5 -284.5t-274.5 -106.5t-255 44t-151 122q6 20 30 26q100 -114 228 -140q64 -13 149 -13q150 0 245 95t95 257v162
q-143 -102 -299 -103q-217 0 -350 120t-133 338t144 340t352 122zM584 1112q-92 0 -165 58.5t-89 170.5q14 8 32 9q16 -98 80 -148.5t141 -50.5t146.5 51t77.5 148q18 0 31 -7q-8 -111 -85 -171t-169 -60z" />
    <glyph glyph-name="Gdotaccent" unicode="&#x120;" horiz-adv-x="1318" 
d="M1178 606v-520q-186 -106 -453 -106t-432.5 188t-165.5 487t178 492.5t463 193.5q223 0 391 -122q-6 -23 -22 -33q-168 115 -369 114q-270 0 -434 -176t-164 -465t152.5 -464t399 -175t415.5 86v461h-377q-4 12 -4 19.5t4 19.5h418zM708.5 1493q-20.5 0 -36 15.5
t-15.5 36t15.5 35.5t36 15t36 -15t15.5 -35.5t-15.5 -36t-36 -15.5z" />
    <glyph glyph-name="gdotaccent" unicode="&#x121;" horiz-adv-x="1118" 
d="M579.5 104q178.5 0 319.5 107v627q-111 104 -299.5 104t-314 -116.5t-125.5 -308.5t120.5 -302.5t299 -110.5zM613 983q208 0 327 -127v-852q0 -178 -107.5 -284.5t-274.5 -106.5t-255 44t-151 122q6 20 30 26q100 -114 228 -140q64 -13 149 -13q150 0 245 95t95 257v162
q-143 -102 -299 -103q-217 0 -350 120t-133 338t144 340t352 122zM585.5 1198q-21.5 0 -37.5 15.5t-16 36t15.5 35.5t36 15t36 -15t15.5 -35.5t-14 -36t-35.5 -15.5z" />
    <glyph glyph-name="Gcommaaccent" unicode="&#x122;" horiz-adv-x="1318" 
d="M758 -86q12 0 24 -4q16 -33 17 -100q0 -150 -92 -238q-10 4 -15 16q63 70 64 195q0 63 -21 125q11 6 23 6zM1178 606v-520q-186 -106 -453 -106t-432.5 188t-165.5 487t178 492.5t463 193.5q223 0 391 -122q-6 -23 -22 -33q-168 115 -369 114q-270 0 -434 -176t-164 -465
t152.5 -464t399 -175t415.5 86v461h-377q-4 12 -4 19.5t4 19.5h418z" />
    <glyph glyph-name="gcommaaccent" unicode="&#x123;" horiz-adv-x="1118" 
d="M579.5 104q178.5 0 319.5 107v627q-111 104 -299.5 104t-314 -116.5t-125.5 -308.5t120.5 -302.5t299 -110.5zM613 983q208 0 327 -127v-852q0 -178 -107.5 -284.5t-274.5 -106.5t-255 44t-151 122q6 20 30 26q100 -114 228 -140q64 -13 149 -13q150 0 245 95t95 257v162
q-143 -102 -299 -103q-217 0 -350 120t-133 338t144 340t352 122zM585 1044q-13 0 -26 5q-16 33 -16 100q0 145 92 237q10 -4 14 -16q-63 -70 -63 -194q0 -63 20 -125q-8 -7 -21 -7z" />
    <glyph glyph-name="Hbar" unicode="&#x126;" horiz-adv-x="1400" 
d="M1145 700v240h-889v-240h889zM1346 957q0 -11 -5 -17h-155v-940q-8 -4 -20.5 -4t-20.5 4v662h-889v-662q-8 -4 -20.5 -4t-20.5 4v940h-139q-4 12 -4 19t4 16h139v340q8 4 20.5 4t20.5 -4v-340h889v340q8 4 20.5 4t20.5 -4v-340h155q5 -7 5 -18z" />
    <glyph glyph-name="hbar" unicode="&#x127;" horiz-adv-x="1134" 
d="M579.5 983q192.5 0 287 -102.5t94.5 -278.5v-602q-8 -4 -20.5 -4t-20.5 4v602q0 150 -83 245t-268.5 95t-341.5 -135v-807q-8 -4 -20 -4t-21 4v1165h-170q-2 6 -2 18.5t2 16.5h170v146q8 4 20.5 4t20.5 -4v-146h238q2 -4 2 -16.5t-2 -18.5h-238v-313q160 131 352.5 131z
" />
    <glyph glyph-name="Itilde" unicode="&#x128;" horiz-adv-x="471" 
d="M235.5 -4q-12.5 0 -20.5 4v1315q8 4 20.5 4t20.5 -4v-1315q-8 -4 -20.5 -4zM338 1458q-45 0 -110.5 49t-96.5 49q-68 0 -88 -92q-18 0 -35 11q35 119 125 118q41 0 107.5 -49t97.5 -49q76 0 98 96q23 0 33 -10q-16 -57 -51 -90t-80 -33z" />
    <glyph glyph-name="itilde" unicode="&#x129;" horiz-adv-x="421" 
d="M211 -4q-12 0 -21 4v958q23 11 41 0v-958q-8 -4 -20 -4zM315 1174q-45 0 -110.5 49t-95.5 49q-68 0 -89 -92q-18 0 -34 10q35 119 125 119q41 0 107.5 -49.5t96.5 -49.5q76 0 99 97q23 0 32 -11q-16 -57 -51 -89.5t-80 -32.5z" />
    <glyph glyph-name="Imacron" unicode="&#x12a;" horiz-adv-x="471" 
d="M235.5 -4q-12.5 0 -20.5 4v1315q8 4 20.5 4t20.5 -4v-1315q-8 -4 -20.5 -4zM57 1495q-2 0 -2 15t2 20h357q4 -6 4 -18t-4 -17h-357z" />
    <glyph glyph-name="imacron" unicode="&#x12b;" horiz-adv-x="421" 
d="M211 -4q-12 0 -21 4v958q23 11 41 0v-958q-8 -4 -20 -4zM33 1184q-4 0 -4 13t4 22h356q2 -6 2 -17.5t-2 -17.5h-356z" />
    <glyph glyph-name="Iogonek" unicode="&#x12e;" horiz-adv-x="471" 
d="M240 -356q-147 0 -148 137q0 106 123 219v1315q8 4 20.5 4t20.5 -4v-1315q-123 -109 -123 -219q0 -49 32 -74.5t84 -26t103 38.5q16 -8 17 -28q-66 -47 -129 -47z" />
    <glyph glyph-name="iogonek" unicode="&#x12f;" horiz-adv-x="421" 
d="M211 -348q-143 0 -143 129q0 106 122 219v958q23 11 41 0v-958q-123 -109 -122 -219q0 -45 30.5 -68.5t82 -23.5t102.5 39q16 -8 16 -29q-66 -47 -129 -47zM216.5 1198q-21.5 0 -37 15.5t-15.5 36t15.5 35.5t36 15t35.5 -15t15 -35.5t-14 -36t-35.5 -15.5z" />
    <glyph glyph-name="Idotaccent" unicode="&#x130;" horiz-adv-x="471" 
d="M235.5 -4q-12.5 0 -20.5 4v1315q8 4 20.5 4t20.5 -4v-1315q-8 -4 -20.5 -4zM237.5 1493q-21.5 0 -37.5 15.5t-16 36t15.5 35.5t36 15t36 -15t15.5 -35.5t-14 -36t-35.5 -15.5z" />
    <glyph glyph-name="dotlessi" unicode="&#x131;" horiz-adv-x="421" 
d="M211 -4q-12 0 -21 4v958q23 11 41 0v-958q-8 -4 -20 -4z" />
    <glyph glyph-name="IJ" unicode="&#x132;" horiz-adv-x="983" 
d="M780 293q0 -162 -84 -244t-206 -82q-121 0 -207 76q6 23 26 31q87 -66 187 -66t172 67t71 212v1028q9 4 21 4t20 -4v-1022zM219 254q-12 0 -20 4v1061q8 4 20 4t21 -4v-1061q-9 -4 -21 -4z" />
    <glyph glyph-name="ij" unicode="&#x133;" horiz-adv-x="876" 
d="M432.5 -356q83.5 0 148 67.5t64.5 210.5v1030q8 4 20.5 4t20.5 -4v-1024q0 -162 -78 -243.5t-192 -81.5q-114 1 -182 69q-12 12 -13 11q4 23 23 34q35 -29 54 -41q51 -32 134.5 -32zM211 -4q-12 0 -21 4v958q23 11 41 0v-958q-8 -4 -20 -4zM667.5 1192
q-21.5 0 -37.5 15.5t-16 36t15.5 35.5t36 15t36 -15t15.5 -37t-14 -36t-35.5 -14zM212.5 1198q-21.5 0 -37 15.5t-15.5 36t15 35.5t35.5 15t36 -15t15.5 -35.5t-14 -36t-35.5 -15.5z" />
    <glyph glyph-name="Kcommaaccent" unicode="&#x136;" horiz-adv-x="1142" 
d="M639 -86q12 0 25 -4q16 -33 16 -100q0 -150 -92 -238q-10 4 -15 16q63 70 64 195q0 63 -21 125q11 6 23 6zM1057 -4h-6l-584 684q-86 -55 -211 -119v-561q-8 -4 -20.5 -4t-20.5 4v1315q8 4 20.5 4t20.5 -4v-711q246 123 422 286t350 425q6 2 21.5 2t21.5 -2
q-237 -387 -567 -610l598 -705q-25 -4 -45 -4z" />
    <glyph glyph-name="kcommaaccent" unicode="&#x137;" horiz-adv-x="940" 
d="M504 -86q12 0 24 -4q16 -33 17 -100q0 -150 -92 -238q-10 4 -15 16q63 70 64 195q0 63 -21 125q11 6 23 6zM891.5 -2q-16.5 0 -25.5 2l-479 487q-74 -45 -160 -79v-408q-8 -4 -20 -4t-21 4v1346q8 4 20.5 4t20.5 -4v-897q160 63 330 210.5t242 292.5l20 2h2l21 -2
q-51 -115 -166 -232.5t-252 -209.5l496 -508q-12 -4 -28.5 -4z" />
    <glyph glyph-name="kgreenlandic" unicode="&#x138;" horiz-adv-x="937" 
d="M890 -2q-18 0 -28 2l-491 479q-78 -45 -146 -71v-408q-8 -4 -20 -4t-21 4v952q8 4 20 4t21 -4v-501q162 66 332 212t240 289l20 2h2l21 -2q-51 -116 -171 -238t-261 -212l512 -500q-12 -4 -30 -4z" />
    <glyph glyph-name="Lacute" unicode="&#x139;" horiz-adv-x="954" 
d="M926 15.5q0 -7.5 -4 -19.5h-707v1319q12 4 20.5 4t20.5 -4v-1280h666q4 -12 4 -19.5zM494 1640q16 -12 22 -38l-350 -193q-14 14 -14 29z" />
    <glyph glyph-name="lacute" unicode="&#x13a;" horiz-adv-x="421" 
d="M211 -4q-12 0 -21 4v1350q8 4 20.5 4t20.5 -4v-1350q-8 -4 -20 -4zM72 1409q-14 14 -15 29l342 202q16 -12 23 -38z" />
    <glyph glyph-name="Lcommaaccent" unicode="&#x13b;" horiz-adv-x="954" 
d="M594 -86q12 0 24 -4q16 -33 17 -100q0 -150 -92 -238q-10 4 -15 16q63 70 64 195q0 63 -21 125q11 6 23 6zM926 15.5q0 -7.5 -4 -19.5h-707v1319q12 4 20.5 4t20.5 -4v-1280h666q4 -12 4 -19.5z" />
    <glyph glyph-name="lcommaaccent" unicode="&#x13c;" horiz-adv-x="421" 
d="M209.5 -86q13.5 0 26.5 -4q16 -33 16 -100q0 -150 -92 -238q-10 4 -15 16q63 70 64 195q0 63 -21 125q8 6 21.5 6zM211 -4q-12 0 -21 4v1350q8 4 20.5 4t20.5 -4v-1350q-8 -4 -20 -4z" />
    <glyph glyph-name="Lcaron" unicode="&#x13d;" horiz-adv-x="954" 
d="M926 15.5q0 -7.5 -4 -19.5h-707v1319q12 4 20.5 4t20.5 -4v-1280h666q4 -12 4 -19.5zM698 1326q0 60 -20 120q8 6 22.5 6t26.5 -4q12 -31 12 -107q1 -165 -67 -251q-18 0 -23 14q49 74 49 222z" />
    <glyph glyph-name="lcaron" unicode="&#x13e;" horiz-adv-x="421" 
d="M211 -4q-12 0 -21 4v1350q8 4 20.5 4t20.5 -4v-1350q-8 -4 -20 -4zM436 1326q0 60 -20 120q8 6 22 6t27 -4q12 -31 12 -107q1 -165 -67 -251q-18 0 -23 14q49 74 49 222z" />
    <glyph glyph-name="Ldot" unicode="&#x13f;" horiz-adv-x="956" 
d="M718.5 645q-22.5 0 -39.5 16.5t-17 40t17 40t39.5 16.5t40 -16.5t17.5 -40.5t-17.5 -40t-40 -16zM926 15.5q0 -7.5 -4 -19.5h-707v1319q12 4 20.5 4t20.5 -4v-1280h666q4 -12 4 -19.5z" />
    <glyph glyph-name="ldot" unicode="&#x140;" horiz-adv-x="477" 
d="M448.5 612q-22.5 0 -40 16.5t-17.5 40.5t17.5 40t40 16t40 -16.5t17.5 -40.5t-17.5 -40t-40 -16zM211 -4q-12 0 -21 4v1350q8 4 20.5 4t20.5 -4v-1350q-8 -4 -20 -4z" />
    <glyph glyph-name="Lslash" unicode="&#x141;" horiz-adv-x="954" 
d="M926 15.5q0 -7.5 -4 -19.5h-707v637l-145 -74q-18 8 -19 29l164 84v643q12 4 20.5 4t20.5 -4v-621l240 123q18 -10 18 -31l-258 -131v-620h666q4 -12 4 -19.5z" />
    <glyph glyph-name="lslash" unicode="&#x142;" horiz-adv-x="421" 
d="M211 -4q-12 0 -21 4v627l-145 -76q-16 10 -18 29l163 86v684q8 4 20.5 4t20.5 -4v-664l144 76q18 -9 18 -29l-162 -84v-649q-8 -4 -20 -4z" />
    <glyph glyph-name="Nacute" unicode="&#x143;" horiz-adv-x="1388" 
d="M1153 1323q12 0 21 -4v-1315q-10 -6 -39 -6l-881 1251l2 -43v-1206q-8 -4 -20.5 -4t-20.5 4v1313q25 10 41 6l864 -1233l15 -23l-2 29v1227q8 4 20 4zM911 1602l-350 -193q-14 14 -14 29l342 202q16 -11 22 -38z" />
    <glyph glyph-name="nacute" unicode="&#x144;" horiz-adv-x="1126" 
d="M563 983q203 0 296 -102.5t93 -278.5v-602q-8 -4 -20 -4t-21 4v602q0 152 -80.5 246t-267 94t-344.5 -104v-838q-8 -4 -20.5 -4t-20.5 4v856q182 127 385 127zM420 1096q-16 10 -19 24l301 260q18 -10 29 -34z" />
    <glyph glyph-name="Ncommaaccent" unicode="&#x145;" horiz-adv-x="1388" 
d="M700 -86q13 0 25 -4q16 -33 16 -100q0 -150 -92 -238q-10 4 -14 16q63 70 63 195q0 63 -20 125q9 6 22 6zM1153 1323q12 0 21 -4v-1315q-10 -6 -39 -6l-881 1251l2 -43v-1206q-8 -4 -20.5 -4t-20.5 4v1313q25 10 41 6l864 -1233l15 -23l-2 29v1227q8 4 20 4z" />
    <glyph glyph-name="ncommaaccent" unicode="&#x146;" horiz-adv-x="1126" 
d="M554 -86q13 0 26 -4q16 -33 16 -100q0 -150 -92 -238q-10 4 -15 16q63 70 64 195q0 63 -21 125q9 6 22 6zM563 983q203 0 296 -102.5t93 -278.5v-602q-8 -4 -20 -4t-21 4v602q0 152 -80.5 246t-267 94t-344.5 -104v-838q-8 -4 -20.5 -4t-20.5 4v856q182 127 385 127z" />
    <glyph glyph-name="Ncaron" unicode="&#x147;" horiz-adv-x="1388" 
d="M1153 1323q12 0 21 -4v-1315q-10 -6 -39 -6l-881 1251l2 -43v-1206q-8 -4 -20.5 -4t-20.5 4v1313q25 10 41 6l864 -1233l15 -23l-2 29v1227q8 4 20 4zM721 1386q-20 -6 -41 0l-238 230q6 18 23 26l237 -217l236 217q16 -8 23 -26z" />
    <glyph glyph-name="ncaron" unicode="&#x148;" horiz-adv-x="1126" 
d="M563 983q203 0 296 -102.5t93 -278.5v-602q-8 -4 -20 -4t-21 4v602q0 152 -80.5 246t-267 94t-344.5 -104v-838q-8 -4 -20.5 -4t-20.5 4v856q182 127 385 127zM571 1100q-18 -6 -36 0l-240 266q8 16 27 23l233 -250l233 243q18 -6 25 -24z" />
    <glyph glyph-name="napostrophe" unicode="&#x149;" horiz-adv-x="1126" 
d="M563 983q203 0 296 -102.5t93 -278.5v-602q-8 -4 -20 -4t-21 4v602q0 152 -80.5 246t-267 94t-344.5 -104v-838q-8 -4 -20.5 -4t-20.5 4v856q182 127 385 127zM160 1227q0 68 -21 135q8 4 22.5 4t20.5 -2q16 -39 16.5 -114t-27.5 -143.5t-67 -107.5q-10 4 -14 17
q70 78 70 211z" />
    <glyph glyph-name="Eng" unicode="&#x14a;" horiz-adv-x="1388" 
d="M1153 1323q12 0 21 -4v-1395q0 -162 -85 -243.5t-206 -81.5t-207 75q6 23 26 31q86 -66 186.5 -65.5t172.5 67t72 211.5v82l-879 1249l2 -43v-1206q-8 -4 -20.5 -4t-20.5 4v1313q25 10 41 6l864 -1233l13 -20v1253q8 4 20 4z" />
    <glyph glyph-name="eng" unicode="&#x14b;" horiz-adv-x="1126" 
d="M556 983q210 0 303 -102t93 -279v-674q0 -162 -78 -244t-192 -81q-114 0 -181 68q-11 11 -14 12q4 23 23 34q35 -29 54 -41q51 -32 134 -32q84 0 149 68t64 210v680q0 152 -81 246t-267 94t-344 -104v-838q-8 -4 -20 -4t-21 4v856q168 127 378 127z" />
    <glyph glyph-name="Omacron" unicode="&#x14c;" horiz-adv-x="1476" 
d="M738 20q263 0 416 177.5t153 463t-153 462.5t-417 177t-415.5 -177t-151.5 -462t152.5 -463t415.5 -178zM737.5 -20q-278.5 0 -444.5 191t-166 487t166 489.5t445.5 193.5t445.5 -190t166 -487.5t-167 -490.5t-445.5 -193zM481 1495q-4 0 -4 13t4 22h510q4 -6 4 -17.5
t-4 -17.5h-510z" />
    <glyph glyph-name="omacron" unicode="&#x14d;" horiz-adv-x="1171" 
d="M585.5 23q192.5 0 310.5 130t118 326.5t-118 329.5t-309 133t-310 -134t-119 -330t117.5 -325.5t310 -129.5zM583 -18q-202 0 -335 139t-133 358t135 361.5t338 142.5t336 -141.5t133 -358.5t-136 -359t-338 -142zM332 1184q-4 0 -4 13t4 22h510q4 -6 4 -17.5t-4 -17.5
h-510z" />
    <glyph glyph-name="Ohungarumlaut" unicode="&#x150;" horiz-adv-x="1476" 
d="M738 20q263 0 416 177.5t153 463t-153 462.5t-417 177t-415.5 -177t-151.5 -462t152.5 -463t415.5 -178zM737.5 -20q-278.5 0 -444.5 191t-166 487t166 489.5t445.5 193.5t445.5 -190t166 -487.5t-167 -490.5t-445.5 -193zM823 1374q-16 6 -22 23l225 289q20 -8 33 -31z
M504 1374q-16 6 -23 23l226 289q20 -8 34 -31z" />
    <glyph glyph-name="ohungarumlaut" unicode="&#x151;" horiz-adv-x="1171" 
d="M585.5 23q192.5 0 310.5 130t118 326.5t-118 329.5t-309 133t-310 -134t-119 -330t117.5 -325.5t310 -129.5zM583 -18q-202 0 -335 139t-133 358t135 361.5t338 142.5t336 -141.5t133 -358.5t-136 -359t-338 -142zM676 1065q-18 4 -25 18l215 322q20 -4 37 -27zM375 1065
q-18 4 -25 18l215 322q20 -4 37 -27z" />
    <glyph glyph-name="OE" unicode="&#x152;" horiz-adv-x="1796" 
d="M745 27q135 0 216 14v1233q-102 16 -209 16q-272 0 -427 -174t-155 -456t153.5 -457.5t421.5 -175.5zM1704 19.5q0 -13.5 -4 -19.5h-739q-104 -14 -216 -14q-285 0 -451.5 189.5t-166.5 482t169 483t456 190.5q111 0 213 -16h704q4 -6 4 -19.5t-4 -19.5h-668v-569h607
q4 -6 4 -19.5t-4 -19.5h-607v-629h699q4 -6 4 -19.5z" />
    <glyph glyph-name="oe" unicode="&#x153;" horiz-adv-x="1892" 
d="M1383.5 940q-148.5 0 -249 -112.5t-116.5 -295.5h723q0 209 -104.5 308.5t-253 99.5zM571 23q184 0 293 130t109 326.5t-109.5 329.5t-292 133t-298 -134t-115.5 -330t114.5 -325.5t298.5 -129.5zM1016 496v-19q0 -219 103.5 -340t289.5 -121t315 115q16 -8 23 -31
q-147 -123 -321.5 -123t-286 84t-148.5 246q-45 -147 -157.5 -236t-258.5 -89q-201 0 -330.5 139t-129.5 358t132 361.5t328 142.5q152 0 263.5 -92t154.5 -244q41 156 151.5 244t248.5 88q174 0 283.5 -120t111.5 -359v-4h-772z" />
    <glyph glyph-name="Racute" unicode="&#x154;" horiz-adv-x="1134" 
d="M543.5 596q193.5 0 301 98.5t113.5 270.5q-6 147 -111.5 239t-278.5 92t-312 -32v-652q94 -16 287.5 -16zM987 -4h-4l-371 565q-57 -4 -161.5 -4t-194.5 12v-569q-8 -4 -20.5 -4t-20.5 4v1294q150 43 346.5 43t315 -100t124.5 -272q-4 -156 -92 -260.5t-250 -135.5
l371 -569q-25 -4 -43 -4zM760 1602l-350 -193q-14 14 -15 29l342 202q17 -11 23 -38z" />
    <glyph glyph-name="racute" unicode="&#x155;" horiz-adv-x="751" 
d="M535 983q117 0 190 -27q0 -23 -14 -38q-74 25 -187 24q-180 0 -305 -90v-852q-8 -4 -20.5 -4t-20.5 4v870q140 113 357 113zM328 1096q-16 10 -19 24l301 260q18 -10 29 -34z" />
    <glyph glyph-name="Rcommaaccent" unicode="&#x156;" horiz-adv-x="1134" 
d="M587 -86q13 0 25 -4q16 -33 17 -100q0 -150 -92 -238q-10 4 -15 16q63 70 64 195q0 63 -21 125q9 6 22 6zM543.5 596q193.5 0 301 98.5t113.5 270.5q-6 147 -111.5 239t-278.5 92t-312 -32v-652q94 -16 287.5 -16zM987 -4h-4l-371 565q-57 -4 -161.5 -4t-194.5 12v-569
q-8 -4 -20.5 -4t-20.5 4v1294q150 43 346.5 43t315 -100t124.5 -272q-4 -156 -92 -260.5t-250 -135.5l371 -569q-25 -4 -43 -4z" />
    <glyph glyph-name="rcommaaccent" unicode="&#x157;" horiz-adv-x="751" 
d="M214 -86q13 0 26 -4q16 -33 16 -100q0 -150 -92 -238q-10 4 -14 16q63 70 63 195q0 63 -20 125q8 6 21 6zM535 983q117 0 190 -27q0 -23 -14 -38q-74 25 -187 24q-180 0 -305 -90v-852q-8 -4 -20.5 -4t-20.5 4v870q140 113 357 113z" />
    <glyph glyph-name="Rcaron" unicode="&#x158;" horiz-adv-x="1134" 
d="M543.5 596q193.5 0 301 98.5t113.5 270.5q-6 147 -111.5 239t-278.5 92t-312 -32v-652q94 -16 287.5 -16zM987 -4h-4l-371 565q-57 -4 -161.5 -4t-194.5 12v-569q-8 -4 -20.5 -4t-20.5 4v1294q150 43 346.5 43t315 -100t124.5 -272q-4 -156 -92 -260.5t-250 -135.5
l371 -569q-25 -4 -43 -4zM569 1386q-20 -6 -41 0l-237 230q6 18 22 26l238 -217l235 217q16 -8 23 -26z" />
    <glyph glyph-name="rcaron" unicode="&#x159;" horiz-adv-x="751" 
d="M535 983q117 0 190 -27q0 -23 -14 -38q-74 25 -187 24q-180 0 -305 -90v-852q-8 -4 -20.5 -4t-20.5 4v870q140 113 357 113zM479 1100q-18 -6 -37 0l-239 266q8 16 26 23l234 -250l233 243q18 -6 25 -24z" />
    <glyph glyph-name="Sacute" unicode="&#x15a;" horiz-adv-x="1062" 
d="M530 -27q-268 0 -432 160q2 23 27 31q143 -150 405 -150q178 0 277.5 87t99.5 230.5t-88 216.5t-284 122q-90 23 -146.5 43t-118.5 59q-124 78 -124.5 230.5t105 243.5t284.5 91q250 0 387 -133q-10 -23 -29 -30q-139 123 -358 122q-162 0 -255.5 -76.5t-93.5 -207.5
t95.5 -195.5t282 -109.5t285.5 -131.5t99 -245t-111.5 -258t-306.5 -99.5zM399 1409q-14 14 -14 29l342 202q16 -12 23 -38z" />
    <glyph glyph-name="sacute" unicode="&#x15b;" horiz-adv-x="894" 
d="M416.5 -14q-183.5 0 -318.5 112q4 23 25 33q129 -106 297 -106t249 63.5t81 163.5t-64.5 149.5t-236 83t-246 87t-74.5 165t92 179t252 67.5t289 -76q-6 -25 -19 -35q-131 70 -274 70t-221 -55.5t-78 -150.5t65.5 -136t228 -76t245 -90t82.5 -179t-95.5 -196.5
t-279 -72.5zM326 1096q-16 10 -19 24l301 260q18 -10 29 -34z" />
    <glyph glyph-name="Scedilla" unicode="&#x15e;" horiz-adv-x="1062" 
d="M948 333q0 -157 -104.5 -255t-288.5 -105l-25 -55q88 -12 134.5 -46t46.5 -107.5t-61.5 -112.5t-147.5 -39t-111 10q0 27 12 39q35 -10 103 -10t116 28.5t48 86t-46 83t-149 33.5l39 90q-258 6 -416 160q2 23 27 31q143 -150 405 -150q178 0 277.5 87t99.5 230.5
t-88 216.5t-284 122q-90 23 -146.5 43t-118.5 59q-124 78 -124.5 230.5t105 243.5t284.5 91q250 0 387 -133q-10 -23 -29 -30q-139 123 -358 122q-162 0 -255.5 -76.5t-93.5 -207.5t95.5 -195.5t282 -109.5t285.5 -131t99 -243z" />
    <glyph glyph-name="scedilla" unicode="&#x15f;" horiz-adv-x="894" 
d="M791 258q0 -121 -86.5 -192.5t-237.5 -79.5l-29 -68q88 -12 134 -46t46 -107.5t-61 -112.5t-147 -39t-111 10q0 27 12 39q35 -10 103 -10t116 28.5t48 86t-46.5 83t-148.5 33.5l43 103q-96 2 -183 33.5t-145 78.5q4 23 25 33q129 -106 297 -106t249 63.5t81 163.5
t-64.5 149.5t-236 83t-246 87t-74.5 165t92 179t252 67.5t289 -76q-6 -25 -19 -35q-131 70 -274 70t-221 -55.5t-78 -150.5t65.5 -136t228 -76t245 -90t82.5 -176z" />
    <glyph glyph-name="Scaron" unicode="&#x160;" horiz-adv-x="1062" 
d="M530 -27q-268 0 -432 160q2 23 27 31q143 -150 405 -150q178 0 277.5 87t99.5 230.5t-88 216.5t-284 122q-90 23 -146.5 43t-118.5 59q-124 78 -124.5 230.5t105 243.5t284.5 91q250 0 387 -133q-10 -23 -29 -30q-139 123 -358 122q-162 0 -255.5 -76.5t-93.5 -207.5
t95.5 -195.5t282 -109.5t285.5 -131.5t99 -245t-111.5 -258t-306.5 -99.5zM518 1386l-237 230q6 18 22 26l238 -217l235 217q16 -8 23 -26l-240 -230q-21 -6 -41 0z" />
    <glyph glyph-name="scaron" unicode="&#x161;" horiz-adv-x="894" 
d="M416.5 -14q-183.5 0 -318.5 112q4 23 25 33q129 -106 297 -106t249 63.5t81 163.5t-64.5 149.5t-236 83t-246 87t-74.5 165t92 179t252 67.5t289 -76q-6 -25 -19 -35q-131 70 -274 70t-221 -55.5t-78 -150.5t65.5 -136t228 -76t245 -90t82.5 -179t-95.5 -196.5
t-279 -72.5zM440 1100l-239 266q8 16 26 23l234 -250l233 243q18 -6 25 -24l-242 -258q-19 -6 -37 0z" />
    <glyph glyph-name="uni0162" unicode="&#x162;" horiz-adv-x="1097" 
d="M567 1278v-1278l-35 -82q88 -12 134.5 -46t46.5 -108t-61.5 -112.5t-147.5 -38.5t-111 10q0 27 13 39q34 -10 102 -10t116 28.5t48 86t-46 83t-149 33.5l49 117v1278h-489q-4 12 -4 18t4 19h1022q4 -13 4 -19t-4 -18h-492z" />
    <glyph glyph-name="uni0163" unicode="&#x163;" horiz-adv-x="708" 
d="M627 -235.5q0 -73.5 -61.5 -112.5t-147.5 -39t-111 10q0 27 12 39q35 -10 103 -10t116 28.5t48 86t-46 83t-149 33.5l43 103q-92 14 -153.5 84.5t-61.5 201.5v650h-168q-4 12 -4 19t4 15h168v265q8 4 20.5 4t20.5 -4v-265h389q4 -6 4 -17t-4 -17h-389v-627
q0 -143 63.5 -207.5t150 -64.5t129 19t81.5 44q16 -12 18 -33q-113 -72 -225 -71h-4l-27 -64q88 -12 134.5 -46t46.5 -107.5z" />
    <glyph glyph-name="Tcaron" unicode="&#x164;" horiz-adv-x="1097" 
d="M1063 1296q0 -6 -4 -18h-492v-1278q-16 -4 -22 -4t-19 4v1278h-489q-4 12 -4 18t4 19h1022q4 -13 4 -19zM567 1386q-20 -6 -41 0l-237 230q6 18 22 26l238 -217l235 217q16 -8 23 -26z" />
    <glyph glyph-name="tcaron" unicode="&#x165;" horiz-adv-x="708" 
d="M219 272v650h-168q-4 12 -4 19t4 15h168v265q8 4 20.5 4t20.5 -4v-265h389q4 -6 4 -17t-4 -17h-389v-627q0 -143 63.5 -207.5t150 -64.5t129 19t81.5 44q16 -12 18 -33q-113 -72 -221 -71.5t-185 72t-77 218.5zM530 1326q0 60 -20 120q10 6 23.5 6t25.5 -4
q12 -31 12 -107q1 -165 -67 -251q-18 0 -23 14q49 74 49 222z" />
    <glyph glyph-name="Tbar" unicode="&#x166;" horiz-adv-x="1097" 
d="M567 1278v-604h205q2 -4 2 -16.5t-2 -18.5h-205v-639q-16 -4 -22 -4t-19 4v639h-202q-2 6 -2 18.5t2 16.5h202v604h-489q-4 12 -4 18t4 19h1022q4 -12 4 -18.5t-4 -18.5h-492z" />
    <glyph glyph-name="tbar" unicode="&#x167;" horiz-adv-x="708" 
d="M219 272v271h-158q-2 6 -2 18t2 17h158v344h-168q-4 12 -4 19t4 15h168v265q8 4 20.5 4t20.5 -4v-265h389q4 -6 4 -17t-4 -17h-389v-344h250q2 -4 2 -16.5t-2 -18.5h-250v-248q0 -143 63.5 -207.5t149.5 -64.5t129 19t82 44q16 -12 18 -33q-113 -72 -221 -71.5t-185 72
t-77 218.5z" />
    <glyph glyph-name="Utilde" unicode="&#x168;" horiz-adv-x="1368" 
d="M695 -20q-220 0 -358 146t-138 384v805q8 4 20 4t21 -4v-805q0 -217 123.5 -353.5t329.5 -136.5t320.5 136.5t114.5 353.5v805q8 4 20.5 4t20.5 -4v-805q0 -227 -127 -378.5t-347 -151.5zM831 1495q115 0 152 96q25 0 35 -12q-47 -121 -187 -121q-55 0 -144 49t-130 49
q-112 0 -149 -96q-23 0 -35 13q47 121 186 120q49 0 139 -49t133 -49z" />
    <glyph glyph-name="utilde" unicode="&#x169;" horiz-adv-x="1116" 
d="M915.5 952q12.5 0 20.5 -4v-891q-174 -80 -377 -80t-294 98.5t-91 274.5v598q8 4 20.5 4t20.5 -4v-579q0 -350 346 -351q178 0 334 64v866q8 4 20.5 4zM426 1266q-96 0 -131 -92q-23 0 -35 12q45 119 166 119q55 0 145.5 -46.5t135.5 -46.5q96 0 127 93q25 0 34 -13
q-41 -119 -161 -118q-57 0 -146.5 46t-134.5 46z" />
    <glyph glyph-name="Umacron" unicode="&#x16a;" horiz-adv-x="1368" 
d="M695 -20q-220 0 -358 146t-138 384v805q8 4 20 4t21 -4v-805q0 -217 123.5 -353.5t329.5 -136.5t320.5 136.5t114.5 353.5v805q8 4 20.5 4t20.5 -4v-805q0 -227 -127 -378.5t-347 -151.5zM438 1495q-4 0 -4 13t4 22h510q4 -6 4 -17.5t-4 -17.5h-510z" />
    <glyph glyph-name="umacron" unicode="&#x16b;" horiz-adv-x="1116" 
d="M915.5 952q12.5 0 20.5 -4v-891q-174 -80 -377 -80t-294 98.5t-91 274.5v598q8 4 20.5 4t20.5 -4v-579q0 -350 346 -351q178 0 334 64v866q8 4 20.5 4zM307 1184q-4 0 -4 13t4 22h510q4 -5 4 -17t-4 -18h-510z" />
    <glyph glyph-name="Uring" unicode="&#x16e;" horiz-adv-x="1368" 
d="M695 -20q-220 0 -358 146t-138 384v805q8 4 20 4t21 -4v-805q0 -217 123.5 -353.5t329.5 -136.5t320.5 136.5t114.5 353.5v805q8 4 20.5 4t20.5 -4v-805q0 -227 -127 -378.5t-347 -151.5zM697 1376q58 0 95 40t37 97.5t-36.5 97.5t-95 40t-97.5 -41t-39 -96.5t39 -96.5
t97 -41zM696.5 1337q-71.5 0 -124 51.5t-52.5 124t52.5 125t124 52.5t122.5 -52.5t51 -125.5t-51 -124t-122.5 -51z" />
    <glyph glyph-name="uring" unicode="&#x16f;" horiz-adv-x="1116" 
d="M915.5 952q12.5 0 20.5 -4v-891q-174 -80 -377 -80t-294 98.5t-91 274.5v598q8 4 20.5 4t20.5 -4v-579q0 -350 346 -351q178 0 334 64v866q8 4 20.5 4zM566 1374q-58 0 -97 -40t-39 -96t39 -97t97 -41t95 40t37 97t-37 97t-95 40zM565.5 1061q-71.5 0 -124 52t-52.5 125
t52.5 124t124 51t122.5 -51t51 -124t-51 -125t-122.5 -52z" />
    <glyph glyph-name="Uhungarumlaut" unicode="&#x170;" horiz-adv-x="1368" 
d="M695 -20q-220 0 -358 146t-138 384v805q8 4 20 4t21 -4v-805q0 -217 123.5 -353.5t329.5 -136.5t320.5 136.5t114.5 353.5v805q8 4 20.5 4t20.5 -4v-805q0 -227 -127 -378.5t-347 -151.5zM780 1374q-16 6 -22 23l225 289q20 -8 33 -31zM461 1374q-16 6 -23 23l226 289
q20 -8 34 -31z" />
    <glyph glyph-name="uhungarumlaut" unicode="&#x171;" horiz-adv-x="1116" 
d="M915.5 952q12.5 0 20.5 -4v-891q-174 -80 -377 -80t-294 98.5t-91 274.5v598q8 4 20.5 4t20.5 -4v-579q0 -350 346 -351q178 0 334 64v866q8 4 20.5 4zM651 1065q-18 4 -24 18l215 322q20 -4 37 -27zM350 1065q-18 4 -24 18l215 322q20 -4 37 -27z" />
    <glyph glyph-name="Uogonek" unicode="&#x172;" horiz-adv-x="1368" 
d="M1149 1319q12 0 20 -4v-805q0 -156 -62.5 -281t-174.5 -190q-172 -127 -172 -258q0 -49 32 -75t86 -25.5t101 38.5q16 -8 16 -28q-65 -47 -131 -47t-105.5 34.5t-39.5 102.5q0 106 123 219q-61 -20 -142 -20q-225 0 -363 146t-138 384v805q8 4 20 4t21 -4v-805
q0 -217 123.5 -353.5t329.5 -136.5t320.5 136.5t114.5 353.5v805q9 4 21 4z" />
    <glyph glyph-name="uogonek" unicode="&#x173;" horiz-adv-x="1116" 
d="M731 -212q0 -112 118 -112q54 0 101 39q16 -8 17 -28q-66 -47 -131.5 -47t-105.5 34.5t-40 102.5q0 121 152 243q-129 -43 -307.5 -43t-269.5 98.5t-91 274.5v598q8 4 20.5 4t20.5 -4v-579q0 -350 346 -351q178 0 334 64v866q8 4 20.5 4t20.5 -4v-891
q-92 -59 -148.5 -134t-56.5 -135z" />
    <glyph glyph-name="Wcircumflex" unicode="&#x174;" horiz-adv-x="1857" 
d="M1331.5 -8q-16.5 0 -24.5 4l-353 1102l-12 45l-385 -1147q-8 -4 -25.5 -4t-25.5 4q-231 508 -436 1321q10 2 24 2l21 -2q172 -723 415 -1284l388 1165q6 2 22 2t21 -2l366 -1130l10 -35q242 571 406 1284l6 2h14l19 -2q-172 -750 -426 -1321q-8 -4 -24.5 -4zM690 1382
q-18 8 -22 27l239 229q20 6 41 0l238 -229q-6 -16 -23 -27l-237 217z" />
    <glyph glyph-name="wcircumflex" unicode="&#x175;" horiz-adv-x="1429" 
d="M974 -8q-15 0 -24 4q-113 188 -229 528q-18 -82 -91 -248.5t-134 -279.5q-8 -4 -23.5 -4t-23.5 4q-98 147 -220.5 441t-167.5 511q10 2 23 2l16 -2q45 -209 165 -494.5t194 -400.5l12 -26q147 294 236 542q-72 211 -103 379q10 2 23 2l18 -2q39 -213 144.5 -497.5
t173.5 -397.5q6 -12 8 -17t4 -7q2 12 14 28q70 113 180.5 397.5t141.5 493.5l20 2h2l19 -2q-31 -209 -144.5 -499.5t-210.5 -452.5q-8 -4 -23 -4zM461 1098q-16 6 -25 24l242 260q18 6 37 0l239 -268q-6 -14 -26 -22l-234 251z" />
    <glyph glyph-name="Ycircumflex" unicode="&#x176;" horiz-adv-x="1132" 
d="M569.5 -4q-12.5 0 -20.5 4v565l-510 752q20 4 41 4h6l477 -698l8 -15l461 713h15q16 0 32 -4l-489 -750v-567q-8 -4 -20.5 -4zM334 1382q-18 8 -23 27l240 229q20 6 41 0l237 -229q-6 -16 -22 -27l-238 217z" />
    <glyph glyph-name="ycircumflex" unicode="&#x177;" horiz-adv-x="978" 
d="M893 950l20 -2q-53 -313 -248.5 -693t-461.5 -661q-23 6 -31 27q162 164 307 395q-113 162 -238.5 435.5t-170.5 496.5q10 2 24 2l21 -2q39 -201 155.5 -458t221.5 -422q4 -4 12 -17q2 6 10 19q115 193 219.5 431t136.5 447l21 2h2zM258 1098q-16 6 -25 24l242 260
q18 6 37 0l240 -268q-6 -14 -27 -22l-233 251z" />
    <glyph glyph-name="Ydieresis" unicode="&#x178;" horiz-adv-x="1132" 
d="M569.5 -4q-12.5 0 -20.5 4v565l-510 752q20 4 41 4h6l477 -698l8 -15l461 713h15q16 0 32 -4l-489 -750v-567q-8 -4 -20.5 -4zM781.5 1489q-21.5 0 -37 15.5t-15.5 36t15.5 35.5t36 15t35.5 -15t15 -35.5t-14 -36t-35.5 -15.5zM356.5 1489q-20.5 0 -36 15.5t-15.5 36
t15.5 35.5t36 15t36 -15t15.5 -35.5t-15.5 -36t-36 -15.5z" />
    <glyph glyph-name="Zacute" unicode="&#x179;" horiz-adv-x="1120" 
d="M1053 19.5q0 -13.5 -2 -19.5h-967q-10 10 -10 27.5t6 25.5l909 1223h-901q-6 12 -6 21t6 18h940q6 -18 6 -31.5t-10 -28.5l-879 -1183l-26 -33h932q2 -6 2 -19.5zM762 1602l-350 -193q-14 14 -15 29l342 202q17 -11 23 -38z" />
    <glyph glyph-name="zacute" unicode="&#x17a;" horiz-adv-x="940" 
d="M864 18.5q0 -10.5 -4 -18.5h-784v4q0 33 24 64l678 825l19 20h-703q-4 8 -4 18.5t4 18.5h758v-4q0 -29 -25 -59l-616 -752l-86 -98h735q4 -8 4 -18.5zM324 1096q-16 10 -19 24l301 260q18 -10 29 -34z" />
    <glyph glyph-name="Zdotaccent" unicode="&#x17b;" horiz-adv-x="1120" 
d="M1053 19.5q0 -13.5 -2 -19.5h-967q-10 10 -10 27.5t6 25.5l909 1223h-901q-6 12 -6 21t6 18h940q6 -18 6 -31.5t-10 -28.5l-879 -1183l-26 -33h932q2 -6 2 -19.5zM552.5 1493q-21.5 0 -37 15.5t-15.5 36t15 35.5t35.5 15t36 -15t15.5 -35.5t-14 -36t-35.5 -15.5z" />
    <glyph glyph-name="zdotaccent" unicode="&#x17c;" horiz-adv-x="940" 
d="M864 18.5q0 -10.5 -4 -18.5h-784v4q0 33 24 64l678 825l19 20h-703q-4 8 -4 18.5t4 18.5h758v-4q0 -29 -25 -59l-616 -752l-86 -98h735q4 -8 4 -18.5zM458.5 1198q-20.5 0 -35.5 15.5t-15 36t15 35.5t35.5 15t36 -15t15.5 -35.5t-15.5 -36t-36 -15.5z" />
    <glyph glyph-name="Zcaron" unicode="&#x17d;" horiz-adv-x="1120" 
d="M1053 19.5q0 -13.5 -2 -19.5h-967q-10 10 -10 27.5t6 25.5l909 1223h-901q-6 12 -6 21t6 18h940q6 -18 6 -31.5t-10 -28.5l-879 -1183l-26 -33h932q2 -6 2 -19.5zM571 1386q-20 -6 -41 0l-237 230q6 18 22 26l238 -217l235 217q16 -8 23 -26z" />
    <glyph glyph-name="zcaron" unicode="&#x17e;" horiz-adv-x="940" 
d="M864 18.5q0 -10.5 -4 -18.5h-784v4q0 33 24 64l678 825l19 20h-703q-4 8 -4 18.5t4 18.5h758v-4q0 -29 -25 -59l-616 -752l-86 -98h735q4 -8 4 -18.5zM475 1100q-18 -6 -37 0l-239 266q8 16 26 23l234 -250l233 243q18 -6 25 -24z" />
    <glyph glyph-name="uni01EA" unicode="&#x1ea;" horiz-adv-x="1476" 
d="M170 661q0 -285 152.5 -463t415.5 -178t416 177.5t153 463t-153 462.5t-417 177t-415.5 -177t-151.5 -462zM844 -209q0 -110 118 -110q54 0 101 38q16 -8 16 -28q-66 -47 -131.5 -47t-105 34.5t-39.5 102.5q0 113 135 229q-92 -31 -201 -30q-279 0 -444.5 191t-165.5 487
t166 489.5t445.5 193.5t445.5 -190t166 -492q0 -199 -80.5 -357.5t-225.5 -242.5q-90 -59 -145 -134t-55 -134z" />
    <glyph glyph-name="uni01EB" unicode="&#x1eb;" horiz-adv-x="1171" 
d="M158 478q0 -196 117.5 -325.5t310 -129.5t310.5 130t118 326.5t-118 329.5t-309 133t-310 -134t-119 -330zM639 -219q0 -49 31.5 -74.5t86 -25.5t101.5 38q16 -8 16 -28q-66 -47 -131.5 -47t-105 34.5t-39.5 102.5q0 106 125 221q-61 -20 -137 -20q-205 0 -338 139
t-133 358t135 361.5t338 142.5t336 -141.5t133 -360.5q0 -145 -66.5 -262t-179.5 -180q-172 -127 -172 -258z" />
    <glyph glyph-name="AEacute" unicode="&#x1fc;" horiz-adv-x="1591" 
d="M817 616v652l-393 -652h393zM1499 19.5q0 -7.5 -4 -19.5h-678v578h-418l-352 -582h-8q-23 0 -35 4l797 1315h663q4 -12 4 -19.5t-4 -19.5h-606v-660h545q4 -12 4 -19t-4 -19h-545v-539h637q4 -12 4 -19.5zM1128 1602l-350 -193q-14 14 -14 29l342 202q16 -11 22 -38z" />
    <glyph glyph-name="aeacute" unicode="&#x1fd;" horiz-adv-x="1634" 
d="M770 496h-293q-170 0 -251 -67t-82 -174.5t67.5 -171t191.5 -63.5t233 88q60 48 97 147t37 241zM813 535h668q0 186 -84 297.5t-231.5 111.5t-250 -111.5t-102.5 -297.5zM770 629q0 313 -316 313q-152 0 -292 -102q-16 8 -21 28q145 115 330 115q135 0 223 -69.5
t107 -219.5q37 139 139 214t223 75q170 0 265.5 -124t97.5 -359v-4h-715v-15q0 -236 99.5 -348.5t269.5 -112.5q72 0 133 21.5t85.5 38t71.5 55.5q16 -8 23 -31q-55 -43 -86 -62t-92.5 -39.5t-134.5 -20.5q-168 0 -268.5 92t-123.5 268q-25 -184 -139.5 -272t-251.5 -88
t-217 72.5t-80 203.5t99.5 204t277.5 73h293v94zM694 1096q-16 10 -18 24l301 260q18 -10 29 -34z" />
    <glyph glyph-name="Oslashacute" unicode="&#x1fe;" horiz-adv-x="1476" 
d="M1307 654.5q0 280.5 -138 449.5l-831 -924q154 -160 408.5 -160t407.5 177t153 457.5zM170 665.5q0 -280.5 143 -456.5l834 924q-156 168 -415 167.5t-410.5 -177.5t-151.5 -457.5zM1350 657.5q0 -291.5 -167 -484.5t-436.5 -193t-435.5 170l-149 -166q-20 6 -27 26
l152 168q-160 188 -160 482t166 487.5t440 193.5t441 -178l151 168q21 -4 27 -24l-154 -172q152 -186 152 -477.5zM948 1602l-350 -193q-14 14 -14 29l342 202q16 -11 22 -38z" />
    <glyph glyph-name="oslashacute" unicode="&#x1ff;" horiz-adv-x="1171" 
d="M1014 476.5q0 194.5 -113 326.5l-602 -674q117 -106 298.5 -106t299 129.5t117.5 324zM158 478q0 -196 114 -322l605 673q-119 113 -300 113t-300 -134t-119 -330zM1057 479.5q0 -213.5 -136.5 -355.5t-328.5 -142t-322 116l-129 -143q-23 8 -24 27l127 143
q-129 139 -129 356t135 359.5t330.5 142.5t324.5 -123l125 141q23 -4 27 -24l-127 -141q127 -143 127 -356.5zM453 1096q-16 10 -19 24l301 260q18 -10 29 -34z" />
    <glyph glyph-name="Scommaaccent" unicode="&#x218;" horiz-adv-x="1062" 
d="M544.5 -86q12.5 0 24.5 -4q16 -33 17 -100q0 -150 -92 -238q-10 4 -15 16q63 70 64 195q0 63 -21 125q10 6 22.5 6zM530 -27q-268 0 -432 160q2 23 27 31q143 -150 405 -150q178 0 277.5 87t99.5 230.5t-88 216.5t-284 122q-90 23 -146.5 43t-118.5 59
q-124 78 -124.5 230.5t105 243.5t284.5 91q250 0 387 -133q-10 -23 -29 -30q-139 123 -358 122q-162 0 -255.5 -76.5t-93.5 -207.5t95.5 -195.5t282 -109.5t285.5 -131.5t99 -245t-111.5 -258t-306.5 -99.5z" />
    <glyph glyph-name="scommaaccent" unicode="&#x219;" horiz-adv-x="894" 
d="M451.5 -86q13.5 0 25.5 -4q16 -33 17 -100q-1 -150 -93 -238q-10 4 -14 16q63 70 64 195q0 63 -21 125q8 6 21.5 6zM416.5 -14q-183.5 0 -318.5 112q4 23 25 33q129 -106 297 -106t249 63.5t81 163.5t-64.5 149.5t-236 83t-246 87t-74.5 165t92 179t252 67.5t289 -76
q-6 -25 -19 -35q-131 70 -274 70t-221 -55.5t-78 -150.5t65.5 -136t228 -76t245 -90t82.5 -179t-95.5 -196.5t-279 -72.5z" />
    <glyph glyph-name="uni021A" unicode="&#x21a;" horiz-adv-x="1097" 
d="M546 -86q13 0 25 -4q16 -33 17 -100q0 -150 -92 -238q-10 4 -15 16q63 70 64 195q0 63 -21 125q9 6 22 6zM1063 1296.5q0 -6.5 -4 -18.5h-492v-1278q-16 -4 -22 -4t-19 4v1278h-489q-4 12 -4 18t4 19h1022q4 -12 4 -18.5z" />
    <glyph glyph-name="uni021B" unicode="&#x21b;" horiz-adv-x="708" 
d="M460 -86q13 0 25 -4q16 -33 17 -100q0 -150 -92 -238q-10 4 -15 16q63 70 64 195q0 63 -21 125q9 6 22 6zM219 272v650h-168q-4 12 -4 19t4 15h168v265q8 4 20.5 4t20.5 -4v-265h389q4 -6 4 -17t-4 -17h-389v-627q0 -143 63.5 -207.5t150 -64.5t129 19t81.5 44
q16 -13 18 -33q-113 -72 -221 -71.5t-185 72t-77 218.5z" />
    <glyph glyph-name="circumflex" unicode="&#x2c6;" horiz-adv-x="614" 
d="M324 1382l239 -268q-6 -14 -26 -22l-234 251l-233 -245q-16 6 -25 24l242 260q19 6 37 0z" />
    <glyph glyph-name="caron" unicode="&#x2c7;" horiz-adv-x="610" 
d="M285 1100l-240 266q8 16 27 23l233 -250l234 243q18 -6 24 -24l-241 -258q-19 -6 -37 0z" />
    <glyph glyph-name="breve" unicode="&#x2d8;" horiz-adv-x="610" 
d="M305 1112q-92 0 -164.5 58.5t-89.5 170.5q14 8 33 9q16 -98 79.5 -148.5t140.5 -50.5t146.5 51t77.5 148q18 0 31 -7q-8 -111 -85 -171t-169 -60z" />
    <glyph glyph-name="dotaccent" unicode="&#x2d9;" horiz-adv-x="247" 
d="M126.5 1198q-21.5 0 -37 15.5t-15.5 36t15 35.5t35.5 15t36 -15t15.5 -35.5t-14 -36t-35.5 -15.5z" />
    <glyph glyph-name="ring" unicode="&#x2da;" horiz-adv-x="473" 
d="M239 1100q58 0 95 40t37 97t-37 97t-95 40t-97.5 -40t-39.5 -96t39.5 -97t97.5 -41zM237.5 1061q-71.5 0 -124 52t-52.5 125t52.5 124t124 51t123 -51t51.5 -124t-51.5 -125t-123 -52z" />
    <glyph glyph-name="ogonek" unicode="&#x2db;" horiz-adv-x="409" 
d="M123 -208q0 -114 118 -112q54 0 101 39q16 -8 16 -28q-66 -47 -132 -47t-104 34q-40 34 -40 103q0 143 201 280h45q-92 -59 -148 -134t-57 -135z" />
    <glyph glyph-name="tilde" unicode="&#x2dc;" horiz-adv-x="768" 
d="M236 1305q55 0 145 -46.5t135 -46.5q96 0 127 93q25 0 35 -13q-41 -119 -162 -118q-57 0 -146 46t-134 46q-97 0 -132 -92q-23 0 -34 12q45 119 166 119z" />
    <glyph glyph-name="hungarumlaut" unicode="&#x2dd;" horiz-adv-x="645" 
d="M367 1065q-18 4 -25 18l215 322q20 -4 37 -27zM66 1065q-18 4 -25 18l215 322q20 -4 37 -27z" />
    <glyph glyph-name="gravecomb" unicode="&#x300;" 
d="M-70 1096l-311 250q10 25 29 34l301 -260q-3 -14 -19 -24z" />
    <glyph glyph-name="acutecomb" unicode="&#x301;" 
d="M-362 1096q-16 10 -19 24l301 260q18 -10 29 -34z" />
    <glyph glyph-name="uni0302" unicode="&#x302;" 
d="M-287 1382l240 -268q-6 -14 -27 -22l-233 251l-234 -245q-16 6 -24 24l241 260q19 6 37 0z" />
    <glyph glyph-name="tildecomb" unicode="&#x303;" 
d="M-512 1305q55 0 145.5 -46.5t135.5 -46.5q96 0 127 93q27 0 34 -13q-41 -119 -161 -118q-57 0 -146.5 46t-134.5 46q-96 0 -131 -92q-23 0 -35 12q45 119 166 119z" />
    <glyph glyph-name="uni0304" unicode="&#x304;" 
d="M-575 1184q-4 0 -4.5 13t4.5 22h509q13 -19 0 -35h-509z" />
    <glyph glyph-name="uni0306" unicode="&#x306;" 
d="M-305 1112q-92 0 -165 58.5t-89 170.5q14 8 33 9q16 -98 79.5 -148.5t140.5 -50.5t146.5 51t77.5 148q18 0 31 -7q-8 -111 -85 -171t-169 -60z" />
    <glyph glyph-name="uni0307" unicode="&#x307;" 
d="M-122.5 1198q-20.5 0 -36 15.5t-15.5 36t15.5 35.5t36 15t35.5 -15t15 -35.5t-15 -36t-35.5 -15.5z" />
    <glyph glyph-name="uni0308" unicode="&#x308;" 
d="M-122.5 1184q-20.5 0 -36 15t-15.5 35.5t15.5 36t36 15.5t35.5 -15.5t15 -37t-15 -35.5t-35.5 -14zM-545.5 1184q-21.5 0 -37 15t-15.5 35.5t15.5 36t36 15.5t35.5 -15.5t15 -37t-14 -35.5t-35.5 -14z" />
    <glyph glyph-name="uni030A" unicode="&#x30a;" 
d="M-235 1100q58 0 95.5 40t37.5 97t-37 97t-95.5 40t-97.5 -40t-39 -96t39 -97t97 -41zM-235.5 1061q-71.5 0 -124 52t-52.5 125t52.5 124t124 51t123 -51t51.5 -124t-51.5 -125t-123 -52z" />
    <glyph glyph-name="uni030B" unicode="&#x30b;" 
d="M-268 1065q-18 4 -25 18l215 322q20 -4 37 -27zM-569 1065q-18 4 -25 18l215 322q20 -4 37 -27z" />
    <glyph glyph-name="uni030C" unicode="&#x30c;" 
d="M-326 1100l-239 266q8 16 26 23l234 -250l233 243q18 -6 25 -24l-242 -258q-19 -6 -37 0z" />
    <glyph glyph-name="uni0326" unicode="&#x326;" 
d="M-85 -86q13 0 26 -4q16 -33 16 -100q0 -150 -92 -238q-10 4 -15 16q63 70 64 195q0 63 -20 125q8 6 21 6z" />
    <glyph glyph-name="uni0327" unicode="&#x327;" 
d="M-29 -235.5q0 -73.5 -61.5 -112.5t-147 -39t-110.5 10q0 27 12 39q35 -10 102.5 -10t115.5 28.5t48 86t-46 83t-148 33.5l49 117h41l-35 -82q88 -12 134 -46t46 -107.5z" />
    <glyph glyph-name="uni0328" unicode="&#x328;" 
d="M-313 -208q-1 -112 117 -111q54 0 102 38q16 -8 16 -28q-66 -47 -131.5 -47t-105 34.5t-39.5 102.5q0 143 200 280h45q-92 -59 -148 -134t-56 -135z" />
    <glyph glyph-name="uni0335" unicode="&#x335;" 
d="M-512 960.5q0 12.5 2 16.5h449q2 -4 2 -16.5t-2 -18.5h-449q-2 6 -2 18.5z" />
    <glyph glyph-name="uni0336" unicode="&#x336;" 
d="M-1282 961.5q0 7.5 4 15.5h1206q4 -6 4 -17t-4 -18h-1206q-4 12 -4 19.5z" />
    <glyph glyph-name="uni0337" unicode="&#x337;" 
d="M-420 594q-16 10 -18 29l348 182q18 -8 18 -29z" />
    <glyph glyph-name="uni0338" unicode="&#x338;" 
d="M-1090 -51q-23 8 -24 26l913 1020q23 -4 27 -24z" />
    <glyph glyph-name="Wgrave" unicode="&#x1e80;" horiz-adv-x="1857" 
d="M1331.5 -8q-16.5 0 -24.5 4l-353 1102l-12 45l-385 -1147q-8 -4 -25.5 -4t-25.5 4q-231 508 -436 1321q10 2 24 2l21 -2q172 -723 415 -1284l388 1165q6 2 22 2t21 -2l366 -1130l10 -35q242 571 406 1284l6 2h14l19 -2q-172 -750 -426 -1321q-8 -4 -24.5 -4zM1083 1438
q0 -14 -14 -29l-350 193q6 27 22 38z" />
    <glyph glyph-name="wgrave" unicode="&#x1e81;" horiz-adv-x="1429" 
d="M974 -8q-15 0 -24 4q-113 188 -229 528q-18 -82 -91 -248.5t-134 -279.5q-8 -4 -23.5 -4t-23.5 4q-98 147 -220.5 441t-167.5 511q10 2 23 2l16 -2q45 -209 165 -494.5t194 -400.5l12 -26q147 294 236 542q-72 211 -103 379q10 2 23 2l18 -2q39 -213 144.5 -497.5
t173.5 -397.5q6 -12 8 -17t4 -7q2 12 14 28q70 113 180.5 397.5t141.5 493.5l20 2h2l19 -2q-31 -209 -144.5 -499.5t-210.5 -452.5q-8 -4 -23 -4zM831 1120q-2 -14 -18 -24l-311 250q10 25 28 34z" />
    <glyph glyph-name="Wacute" unicode="&#x1e82;" horiz-adv-x="1857" 
d="M1331.5 -8q-16.5 0 -24.5 4l-353 1102l-12 45l-385 -1147q-8 -4 -25.5 -4t-25.5 4q-231 508 -436 1321q10 2 24 2l21 -2q172 -723 415 -1284l388 1165q6 2 22 2t21 -2l366 -1130l10 -35q242 571 406 1284l6 2h14l19 -2q-172 -750 -426 -1321q-8 -4 -24.5 -4zM1137 1602
l-351 -193q-14 14 -14 29l342 202q17 -11 23 -38z" />
    <glyph glyph-name="wacute" unicode="&#x1e83;" horiz-adv-x="1429" 
d="M974 -8q-15 0 -24 4q-113 188 -229 528q-18 -82 -91 -248.5t-134 -279.5q-8 -4 -23.5 -4t-23.5 4q-98 147 -220.5 441t-167.5 511q10 2 23 2l16 -2q45 -209 165 -494.5t194 -400.5l12 -26q147 294 236 542q-72 211 -103 379q10 2 23 2l18 -2q39 -213 144.5 -497.5
t173.5 -397.5q6 -12 8 -17t4 -7q2 12 14 28q70 113 180.5 397.5t141.5 493.5l20 2h2l19 -2q-31 -209 -144.5 -499.5t-210.5 -452.5q-8 -4 -23 -4zM561 1096q-16 10 -18 24l301 260q18 -10 28 -34z" />
    <glyph glyph-name="Wdieresis" unicode="&#x1e84;" horiz-adv-x="1857" 
d="M1331.5 -8q-16.5 0 -24.5 4l-353 1102l-12 45l-385 -1147q-8 -4 -25.5 -4t-25.5 4q-231 508 -436 1321q10 2 24 2l21 -2q172 -723 415 -1284l388 1165q6 2 22 2t21 -2l366 -1130l10 -35q242 571 406 1284l6 2h14l19 -2q-172 -750 -426 -1321q-8 -4 -24.5 -4zM1138.5 1489
q-21.5 0 -37.5 15.5t-16 36t15.5 35.5t36 15t36 -15t15.5 -35.5t-14 -36t-35.5 -15.5zM712.5 1489q-20.5 0 -35.5 15.5t-15 36t15 35.5t35.5 15t36 -15t15.5 -35.5t-15.5 -36t-36 -15.5z" />
    <glyph glyph-name="wdieresis" unicode="&#x1e85;" horiz-adv-x="1429" 
d="M974 -8q-15 0 -24 4q-113 188 -229 528q-18 -82 -91 -248.5t-134 -279.5q-8 -4 -23.5 -4t-23.5 4q-98 147 -220.5 441t-167.5 511q10 2 23 2l16 -2q45 -209 165 -494.5t194 -400.5l12 -26q147 294 236 542q-72 211 -103 379q10 2 23 2l18 -2q39 -213 144.5 -497.5
t173.5 -397.5q6 -12 8 -17t4 -7q2 12 14 28q70 113 180.5 397.5t141.5 493.5l20 2h2l19 -2q-31 -209 -144.5 -499.5t-210.5 -452.5q-8 -4 -23 -4zM908.5 1184q-21.5 0 -37 15t-15.5 35.5t15.5 36t36 15.5t35.5 -15.5t15 -37t-14 -35.5t-35.5 -14zM483.5 1184q-20.5 0 -36 15
t-15.5 35.5t15.5 36t36 15.5t36 -15.5t15.5 -37t-15.5 -35.5t-36 -14z" />
    <glyph glyph-name="uni1E9E" unicode="&#x1e9e;" horiz-adv-x="1243" 
d="M222 -4q-12 0 -21 4v885q2 215 131 323t332 107h342q4 -11 4 -19t-4 -20q-195 -23 -289 -107t-94 -184q0 -99 48 -163q47 -64 199 -151t219 -165t67 -218t-97 -222q-96 -82 -246 -82q-190 0 -315 125q6 20 26 30q102 -117 289 -116q147 -1 224 73t77 189t-57 187
t-203 159q-146 86 -209 155q-63 70 -63 184t84 196t227 118l-229 -8q-193 0 -308 -98t-114 -297v-881q-8 -4 -20 -4z" />
    <glyph glyph-name="Ygrave" unicode="&#x1ef2;" horiz-adv-x="1132" 
d="M569.5 -4q-12.5 0 -20.5 4v565l-510 752q20 4 41 4h6l477 -698l8 -15l461 713h15q16 0 32 -4l-489 -750v-567q-8 -4 -20.5 -4zM727 1438q0 -14 -14 -29l-351 193q6 27 23 38z" />
    <glyph glyph-name="ygrave" unicode="&#x1ef3;" horiz-adv-x="978" 
d="M893 950l20 -2q-53 -313 -248.5 -693t-461.5 -661q-23 6 -31 27q162 164 307 395q-113 162 -238.5 435.5t-170.5 496.5q10 2 24 2l21 -2q39 -201 155.5 -458t221.5 -422q4 -4 12 -17q2 6 10 19q115 193 219.5 431t136.5 447l21 2h2zM629 1120q-2 -14 -19 -24l-311 250
q10 25 29 34z" />
    <glyph glyph-name="uni1EF8" unicode="&#x1ef8;" horiz-adv-x="1132" 
d="M569.5 -4q-12.5 0 -20.5 4v565l-510 752q20 4 41 4h6l477 -698l8 -15l461 713h15q16 0 32 -4l-489 -750v-567q-8 -4 -20.5 -4zM432 1556q-113 0 -149 -96q-23 0 -35 13q47 121 186 120q49 0 139.5 -49t133.5 -49q115 0 151 96q25 0 35 -12q-47 -121 -186 -121
q-55 0 -144.5 49t-130.5 49z" />
    <glyph glyph-name="uni1EF9" unicode="&#x1ef9;" horiz-adv-x="978" 
d="M893 950l20 -2q-53 -313 -248.5 -693t-461.5 -661q-23 6 -31 27q162 164 307 395q-113 162 -238.5 435.5t-170.5 496.5q10 2 24 2l21 -2q39 -201 155.5 -458t221.5 -422q4 -4 12 -17q2 6 10 19q115 193 219.5 431t136.5 447l21 2h2zM356 1266q-96 0 -131 -92
q-23 0 -35 12q45 119 166 119q55 0 145.5 -46.5t135.5 -46.5q96 0 127 93q27 0 35 -13q-41 -119 -162 -118q-57 0 -146.5 46t-134.5 46z" />
    <glyph glyph-name="endash" unicode="&#x2013;" horiz-adv-x="1185" 
d="M160 515q0 7 4 15h858q4 -6 4 -18t-4 -20h-858q-4 16 -4 23z" />
    <glyph glyph-name="emdash" unicode="&#x2014;" horiz-adv-x="2195" 
d="M160 517q0 7 4 15h1868q4 -6 4 -18t-4 -20h-1868q-4 16 -4 23z" />
    <glyph glyph-name="quoteleft" unicode="&#x2018;" horiz-adv-x="366" 
d="M178 999q-14 0 -20 5q-16 34 -16 110t27 144q28 68 67 108q10 -4 14 -14q-70 -80 -70 -213q0 -72 23 -133q-11 -7 -25 -7z" />
    <glyph glyph-name="quoteright" unicode="&#x2019;" horiz-adv-x="370" 
d="M201 1227q0 68 -21 135q8 4 22 4t21 -2q17 -39 17 -114q0 -76 -28 -144t-67 -107q-10 4 -14 17q70 78 70 211z" />
    <glyph glyph-name="quotesinglbase" unicode="&#x201a;" horiz-adv-x="374" 
d="M170 37q0 70 -20 133q6 6 18 6t25 -4q16 -32 16 -110q1 -78 -27 -146t-65 -106q-14 4 -17 14q70 80 70 213z" />
    <glyph glyph-name="quotedblleft" unicode="&#x201c;" horiz-adv-x="571" 
d="M383 999q-14 0 -21 5q-16 34 -16 110t28 144t66 108q10 -4 15 -14q-68 -78 -68 -213q0 -70 21 -133q-11 -7 -25 -7zM180 999q-14 0 -20 5q-16 34 -16 110t27 144q28 68 67 108q10 -4 14 -14q-70 -80 -70 -213q0 -72 23 -133q-11 -7 -25 -7z" />
    <glyph glyph-name="quotedblright" unicode="&#x201d;" horiz-adv-x="573" 
d="M406 1366q14 0 20 -2q16 -39 16 -109q0 -160 -92 -256q-12 4 -16 17q70 78 69 211q0 68 -20 135q9 4 23 4zM201 1227q0 68 -21 135q8 4 22 4t21 -2q17 -39 17 -114q0 -76 -28 -144t-67 -107q-10 4 -14 17q70 78 70 211z" />
    <glyph glyph-name="quotedblbase" unicode="&#x201e;" horiz-adv-x="577" 
d="M373 37q0 70 -21 133q6 6 18 6t25 -4q17 -32 17 -110t-28 -146t-65 -106q-14 4 -16 14q70 80 70 213zM170 37q0 70 -20 133q6 6 18 6t25 -4q16 -32 16 -110q-1 -78 -29 -146t-65 -106q-12 4 -15 14q70 80 70 213z" />
    <glyph glyph-name="dagger" unicode="&#x2020;" horiz-adv-x="1052" 
d="M922 1005q0 -11 -4 -18l-371 4v-1298q-7 -4 -19 -4t-20 4v1298l-373 -4q-4 11 -4 19t4 16l373 -4v450q4 4 19 4t20 -4v-450l371 4q4 -6 4 -17z" />
    <glyph glyph-name="daggerdbl" unicode="&#x2021;" horiz-adv-x="1052" 
d="M922 157q0 -11 -4 -18l-371 4v-450q-7 -4 -19 -4t-20 4v450l-373 -4q-4 11 -4 19t4 16l373 -4v821l-373 -4q-4 11 -4 19t4 16l373 -4v450q4 4 19 4t20 -4v-450l371 4q4 -6 4 -17t-4 -18l-371 4v-821l371 4q4 -6 4 -17z" />
    <glyph glyph-name="bullet" unicode="&#x2022;" horiz-adv-x="747" 
d="M374 373q-75 0 -127 53t-52 127t52 127t127 53t127 -53t52 -127t-52 -127t-127 -53z" />
    <glyph glyph-name="ellipsis" unicode="&#x2026;" horiz-adv-x="1073" 
d="M862 -18q-23 0 -40 16t-17 40t17 40t40 16t40 -16q18 -16 18 -40t-18 -40t-40 -16zM530 -18q-23 0 -40 16t-17 40t17 40t40 16t40 -16q18 -16 18 -40t-18 -40t-40 -16zM209 -18q-23 0 -40 16t-17 40t17 40t40 16t40 -16t17 -40t-17 -40t-40 -16z" />
    <glyph glyph-name="perthousand" unicode="&#x2030;" horiz-adv-x="2185" 
d="M1833 31q111 -1 172 71t61 176t-61 177q-61 71 -172 71t-172 -72t-61 -175q0 -104 60 -176q62 -72 173 -72zM1169 31q111 -1 172 71t61 176t-60 177q-62 71 -173 71t-172 -72t-61 -175q0 -104 61 -176t172 -72zM1833 -8q-121 0 -198 83t-76 204t77 203t197 83
q121 0 198 -83q77 -84 77 -204t-78 -203q-76 -83 -197 -83zM1168 -8q-122 0 -198 83t-75 204q0 121 76 203q75 82 197 83q122 0 199 -84q77 -85 77 -203t-77 -202t-199 -84zM357 637q110 0 171 72t62 176q0 104 -62 176t-171 72q-110 0 -172 -72t-62 -176t62 -176t172 -72z
M356 598q-122 0 -198 83t-76 204t77 204t197 83t198 -84q77 -82 77 -202t-77 -204t-198 -84zM293 -96l878 1356q25 10 50 0l-879 -1356q-29 -6 -49 0z" />
    <glyph glyph-name="guilsinglleft" unicode="&#x2039;" horiz-adv-x="532" 
d="M352 246l-246 278l246 287q12 -4 21 -20l-207 -269l209 -254q-5 -14 -23 -22z" />
    <glyph glyph-name="guilsinglright" unicode="&#x203a;" horiz-adv-x="530" 
d="M178 246q-14 8 -22 22l209 254l-207 269q8 16 20 20l246 -287z" />
    <glyph glyph-name="fraction" unicode="&#x2044;" horiz-adv-x="1069" 
d="M20 -98l984 1450q25 6 49 0l-983 -1450q-30 -6 -50 0z" />
    <glyph glyph-name="Euro" unicode="&#x20ac;" horiz-adv-x="1347" 
d="M836 -20q-232 0 -377 136t-189 363h-182q-4 11 -4 19t4 20h176q-10 76 -10 146t8 127h-141q-4 12 -4 19t4 19h147q43 233 194 373t373 139q222 0 388 -131q-6 -23 -23 -32q-88 63 -170 93t-194 29q-209 0 -347 -124q-137 -125 -178 -347h480q2 -6 2 -19t-2 -19h-486
q-8 -57 -8 -127t10 -146h451q2 -6 2 -19t-2 -20h-445q41 -211 174 -335t336 -124q242 1 398 138q23 -8 22 -33q-175 -145 -407 -145z" />
    <glyph glyph-name="trademark" unicode="&#x2122;" horiz-adv-x="1488" 
d="M604 1321q0 -6 -4 -18h-235v-672q-17 -4 -23 -4t-18 4v672h-254q-4 12 -4 18t4 18h530q4 -12 4 -18zM1278 1341q25 0 35 -4v-706q-9 -4 -21 -4t-20 4v618l-15 -39l-235 -526q-4 -2 -17 -2t-18 2l-264 526l-14 39v-618q-9 -4 -21 -4t-20 4v706q12 6 32 6h5l299 -600
l270 598h4z" />
    <glyph glyph-name="minus" unicode="&#x2212;" horiz-adv-x="1093" 
d="M164 481q0 6 4 19h758q4 -6 4 -18t-4 -19h-758q-4 12 -4 18z" />
    <glyph glyph-name="approxequal" unicode="&#x2248;" horiz-adv-x="1073" 
d="M367 340q73 0 183 -46t157 -46q127 0 165 92q25 0 37 -12q-51 -119 -202 -119q-61 0 -172 46t-168 46q-125 0 -166 -92q-25 0 -37 12q51 119 203 119zM367 707q73 -1 183 -47t157 -46q127 0 165 93q25 0 37 -13q-51 -119 -202 -119q-61 1 -172 47t-168 46
q-125 -1 -166 -93q-25 0 -37 13q51 119 203 119z" />
    <glyph glyph-name="notequal" unicode="&#x2260;" horiz-adv-x="1003" 
d="M840 321q0 -13 -2 -20h-392l-135 -235q-20 2 -28 18l125 217h-240q-4 11 -4 19t4 20h262l156 272h-418q-4 12 -4 20t4 19h440l154 269q20 0 31 -21l-144 -248h189q2 -6 2 -19t-2 -20h-211l-158 -272h369q2 -6 2 -19z" />
    <glyph glyph-name="dotlessj" unicode="&#xf6be;" horiz-adv-x="454" 
d="M10 -356q84 0 149 68t64 210v1030q9 4 21 4t20 -4v-1024q0 -162 -78 -244t-192 -81q-114 0 -181 68q-11 11 -14 12q4 23 23 34q35 -29 54 -41q50 -32 134 -32z" />
    <glyph glyph-name="uniF8FF" unicode="&#xf8ff;" horiz-adv-x="2971" 
d="M2253 31q8 0 8 6t-8 6h-15v-12h15zM2238 23v-19h-10v47h23q20 0 20 -14t-14 -14l12 -19h-12l-8 19h-11zM2212 27q0 -37 37 -37t37 37t-37 36q-37 1 -37 -36zM2200 27q0 47 49 47t49 -47t-49 -47t-49 47zM1448 223q0 47 -43 47t-43 -63q0 -29 10 -60q30 -1 53 23t23 53z
M1921 223h82q6 55 -35 56q-47 0 -47 -56zM2191 260q0 -43 -6 -72h-254q23 -36 98 -36t117 24v-153q-47 -33 -159 -33q-289 0 -289 250q0 122 66 190t185 68q118 0 180 -62t62 -176zM1501 498q76 0 120 -60t44 -172q0 -276 -281 -276q2 -31 2 -80h-243q0 291 20 577h160
q14 -86 14 -155q35 166 164 166zM877 487h213q20 -106 20 -277t-69 -242t-242 -70q-125 0 -181 34v170q49 -32 118 -32q136 1 136 57q-33 -23 -100 -23q-184 0 -184 170v27h-113l6 -133q12 -8 35 -8t33 10v-150q-39 -30 -135 -30t-133 35t-37 113t6 163h-37v164l240 59
l-2 -37h362v-243q0 -33 6 -44t25 -12q33 0 33 56v243zM2562 764q0 57 -45 57t-45 -57t45 -57t45 57zM799 764q0 57 -47 57t-47 -57t47 -57t47 57zM2519 1053q248 0 248 -255t-251 -255t-251 255t254 255zM1708 553q0 358 21 489h163q12 -90 13 -155q4 31 13 61t49 68
q39 37 113 37q74 1 108 -51t38 -166l6 -283h-233l4 190q0 59 -31 60q-37 0 -37 -60l7 -190h-234zM1012 813v-260h-170l-17 125q-24 -135 -153 -135q-188 0 -189 233q0 276 275 277q254 0 254 -240zM1032 854v162l244 61l2 -35h364q20 -131 21 -489h-242q0 188 6 301h-124
l6 -133q9 -8 33 -8t34 10v-152q-29 -31 -139 -30q-168 0 -168 135l8 178h-45zM449 553h-244q0 274 18 643h205q21 -410 21 -643zM1415 1195q0 52 36 89t89 37t90 -37t37 -90t-37 -89t-90 -36t-89 37t-36 89z" />
    <glyph glyph-name="A.ss01" horiz-adv-x="1173" 
d="M256 477h653q-147 403 -311 723l-25 53l-22 -53q-162 -332 -295 -723zM1079 -4h-8q-72 227 -147 442h-682q-57 -176 -138 -440h-8q-23 0 -35 4q231 772 496 1313q6 2 18.5 2t16.5 -2q276 -537 522 -1313q-12 -6 -35 -6z" />
    <glyph glyph-name="Aacute.ss01" horiz-adv-x="1173" 
d="M256 477h653q-147 403 -311 723l-25 53l-22 -53q-162 -332 -295 -723zM1079 -4h-8q-72 227 -147 442h-682q-57 -176 -138 -440h-8q-23 0 -35 4q231 772 496 1313q6 2 18.5 2t16.5 -2q276 -537 522 -1313q-12 -6 -35 -6zM784 1602l-350 -193q-14 14 -14 29l342 202
q16 -11 22 -38z" />
    <glyph glyph-name="Abreve.ss01" horiz-adv-x="1173" 
d="M256 477h653q-147 403 -311 723l-25 53l-22 -53q-162 -332 -295 -723zM1079 -4h-8q-72 227 -147 442h-682q-57 -176 -138 -440h-8q-23 0 -35 4q231 772 496 1313q6 2 18.5 2t16.5 -2q276 -537 522 -1313q-12 -6 -35 -6zM574 1430q-89 0 -161.5 54t-93.5 154q16 10 33 11
q20 -86 83 -133.5t136.5 -47.5t143 48.5t82.5 130.5q18 0 30 -7q-12 -98 -88 -154t-165 -56z" />
    <glyph glyph-name="Acircumflex.ss01" horiz-adv-x="1173" 
d="M256 477h653q-147 403 -311 723l-25 53l-22 -53q-162 -332 -295 -723zM1079 -4h-8q-72 227 -147 442h-682q-57 -176 -138 -440h-8q-23 0 -35 4q231 772 496 1313q6 2 18.5 2t16.5 -2q276 -537 522 -1313q-12 -6 -35 -6zM338 1382q-18 8 -23 27l240 229q20 6 41 0
l238 -229q-6 -16 -23 -27l-238 217z" />
    <glyph glyph-name="Adieresis.ss01" horiz-adv-x="1173" 
d="M256 477h653q-147 403 -311 723l-25 53l-22 -53q-162 -332 -295 -723zM1079 -4h-8q-72 227 -147 442h-682q-57 -176 -138 -440h-8q-23 0 -35 4q231 772 496 1313q6 2 18.5 2t16.5 -2q276 -537 522 -1313q-12 -6 -35 -6zM785.5 1489q-21.5 0 -37 15.5t-15.5 36t15.5 35.5
t36 15t36 -15t15.5 -35.5t-14.5 -36t-36 -15.5zM360.5 1489q-20.5 0 -36 15.5t-15.5 36t15.5 35.5t36 15t36 -15t15.5 -35.5t-15.5 -36t-36 -15.5z" />
    <glyph glyph-name="Agrave.ss01" horiz-adv-x="1173" 
d="M256 477h653q-147 403 -311 723l-25 53l-22 -53q-162 -332 -295 -723zM1079 -4h-8q-72 227 -147 442h-682q-57 -176 -138 -440h-8q-23 0 -35 4q231 772 496 1313q6 2 18.5 2t16.5 -2q276 -537 522 -1313q-12 -6 -35 -6zM731 1438q0 -14 -14 -29l-350 193q6 27 22 38z" />
    <glyph glyph-name="Amacron.ss01" horiz-adv-x="1173" 
d="M256 477h653q-147 403 -311 723l-25 53l-22 -53q-162 -332 -295 -723zM1079 -4h-8q-72 227 -147 442h-682q-57 -176 -138 -440h-8q-23 0 -35 4q231 772 496 1313q6 2 18.5 2t16.5 -2q276 -537 522 -1313q-12 -6 -35 -6zM317 1495q-4 0 -4 13t4 22h510q4 -6 4 -17.5
t-4 -17.5h-510z" />
    <glyph glyph-name="Aogonek.ss01" horiz-adv-x="1173" 
d="M256 477h653q-147 403 -311 723l-25 53l-22 -53q-162 -332 -295 -723zM1075 -356q-147 0 -147 137q0 104 141 221q-84 268 -145 436h-682q-57 -176 -138 -440h-8q-23 0 -35 4q231 772 496 1313q6 2 18.5 2t16.5 -2q276 -537 522 -1313q-145 -111 -145 -221
q0 -49 31.5 -74.5t84 -26t103.5 38.5q16 -8 16 -28q-66 -47 -129 -47z" />
    <glyph glyph-name="Aring.ss01" horiz-adv-x="1173" 
d="M256 477h653q-147 403 -311 723l-25 53l-22 -53q-162 -332 -295 -723zM1079 -4h-8q-72 227 -147 442h-682q-57 -176 -138 -440h-8q-23 0 -35 4q231 772 496 1313q6 2 18.5 2t16.5 -2q276 -537 522 -1313q-12 -6 -35 -6zM576 1651q-58 0 -97 -41t-39 -96.5t39 -96.5
t97 -41t95.5 40t37.5 97.5t-37.5 97.5t-95.5 40zM575.5 1337q-71.5 0 -124 51.5t-52.5 124t52.5 125t124 52.5t123 -52.5t51.5 -125.5t-51.5 -124t-123 -51z" />
    <glyph glyph-name="Atilde.ss01" horiz-adv-x="1173" 
d="M256 477h653q-147 403 -311 723l-25 53l-22 -53q-162 -332 -295 -723zM1079 -4h-8q-72 227 -147 442h-682q-57 -176 -138 -440h-8q-23 0 -35 4q231 772 496 1313q6 2 18.5 2t16.5 -2q276 -537 522 -1313q-12 -6 -35 -6zM436 1556q-113 0 -149 -96q-23 0 -35 13
q47 121 186 120q49 0 139.5 -49t133.5 -49q115 0 151 96q27 0 35 -12q-47 -121 -186 -121q-55 0 -144.5 49t-130.5 49z" />
    <glyph glyph-name="E.ss01" horiz-adv-x="1009" 
d="M127 339q0 157 95 248t233 115q-127 20 -203 99.5t-76 217.5t109.5 224t288.5 86t298 -86q-2 -16 -20 -31q-113 78 -278 78t-261 -78.5t-96 -201.5t94.5 -205t278.5 -82h160q4 -8 4 -21.5t-4 -17.5h-160q-201 0 -311.5 -98.5t-110.5 -242.5t106.5 -230t290.5 -86
q113 0 194 23.5t165 82.5q16 -10 22 -33q-158 -113 -371 -112.5t-330.5 97.5t-117.5 254z" />
    <glyph glyph-name="Eacute.ss01" horiz-adv-x="1009" 
d="M127 339q0 157 95 248t233 115q-127 20 -203 99.5t-76 217.5t109.5 224t288.5 86t298 -86q-2 -16 -20 -31q-113 78 -278 78t-261 -78.5t-96 -201.5t94.5 -205t278.5 -82h160q4 -8 4 -21.5t-4 -17.5h-160q-201 0 -311.5 -98.5t-110.5 -242.5t106.5 -230t290.5 -86
q113 0 194 23.5t165 82.5q16 -10 22 -33q-158 -113 -371 -112.5t-330.5 97.5t-117.5 254zM750 1602l-351 -193q-14 14 -14 29l342 202q17 -11 23 -38z" />
    <glyph glyph-name="Ecaron.ss01" horiz-adv-x="1009" 
d="M127 339q0 157 95 248t233 115q-127 20 -203 99.5t-76 217.5t109.5 224t288.5 86t298 -86q-2 -16 -20 -31q-113 78 -278 78t-261 -78.5t-96 -201.5t94.5 -205t278.5 -82h160q4 -8 4 -21.5t-4 -17.5h-160q-201 0 -311.5 -98.5t-110.5 -242.5t106.5 -230t290.5 -86
q113 0 194 23.5t165 82.5q16 -10 22 -33q-158 -113 -371 -112.5t-330.5 97.5t-117.5 254zM559 1386q-20 -6 -41 0l-237 230q6 18 22 26l238 -217l235 217q16 -8 23 -26z" />
    <glyph glyph-name="Ecircumflex.ss01" horiz-adv-x="1009" 
d="M127 339q0 157 95 248t233 115q-127 20 -203 99.5t-76 217.5t109.5 224t288.5 86t298 -86q-2 -16 -20 -31q-113 78 -278 78t-261 -78.5t-96 -201.5t94.5 -205t278.5 -82h160q4 -8 4 -21.5t-4 -17.5h-160q-201 0 -311.5 -98.5t-110.5 -242.5t106.5 -230t290.5 -86
q113 0 194 23.5t165 82.5q16 -10 22 -33q-158 -113 -371 -112.5t-330.5 97.5t-117.5 254zM303 1382q-16 8 -22 27l239 229q20 6 41 0l238 -229q-6 -16 -23 -27l-237 217z" />
    <glyph glyph-name="Edieresis.ss01" horiz-adv-x="1009" 
d="M127 339q0 157 95 248t233 115q-127 20 -203 99.5t-76 217.5t109.5 224t288.5 86t298 -86q-2 -16 -20 -31q-113 78 -278 78t-261 -78.5t-96 -201.5t94.5 -205t278.5 -82h160q4 -8 4 -21.5t-4 -17.5h-160q-201 0 -311.5 -98.5t-110.5 -242.5t106.5 -230t290.5 -86
q113 0 194 23.5t165 82.5q16 -10 22 -33q-158 -113 -371 -112.5t-330.5 97.5t-117.5 254zM749.5 1489q-20.5 0 -36 15.5t-15.5 36t15.5 35.5t36 15t36 -15t15.5 -35.5t-15.5 -36t-36 -15.5zM327.5 1489q-21.5 0 -37.5 15.5t-16 36t15.5 35.5t36 15t36 -15t15.5 -35.5
t-14 -36t-35.5 -15.5z" />
    <glyph glyph-name="Edotaccent.ss01" horiz-adv-x="1009" 
d="M127 339q0 157 95 248t233 115q-127 20 -203 99.5t-76 217.5t109.5 224t288.5 86t298 -86q-2 -16 -20 -31q-113 78 -278 78t-261 -78.5t-96 -201.5t94.5 -205t278.5 -82h160q4 -8 4 -21.5t-4 -17.5h-160q-201 0 -311.5 -98.5t-110.5 -242.5t106.5 -230t290.5 -86
q113 0 194 23.5t165 82.5q16 -10 22 -33q-158 -113 -371 -112.5t-330.5 97.5t-117.5 254zM540.5 1493q-21.5 0 -37.5 15.5t-16 36t15.5 35.5t36 15t36 -15t15.5 -35.5t-14 -36t-35.5 -15.5z" />
    <glyph glyph-name="Egrave.ss01" horiz-adv-x="1009" 
d="M127 339q0 157 95 248t233 115q-127 20 -203 99.5t-76 217.5t109.5 224t288.5 86t298 -86q-2 -16 -20 -31q-113 78 -278 78t-261 -78.5t-96 -201.5t94.5 -205t278.5 -82h160q4 -8 4 -21.5t-4 -17.5h-160q-201 0 -311.5 -98.5t-110.5 -242.5t106.5 -230t290.5 -86
q113 0 194 23.5t165 82.5q16 -10 22 -33q-158 -113 -371 -112.5t-330.5 97.5t-117.5 254zM696 1438q0 -14 -14 -29l-350 193q6 27 22 38z" />
    <glyph glyph-name="Emacron.ss01" horiz-adv-x="1009" 
d="M127 339q0 157 95 248t233 115q-127 20 -203 99.5t-76 217.5t109.5 224t288.5 86t298 -86q-2 -16 -20 -31q-113 78 -278 78t-261 -78.5t-96 -201.5t94.5 -205t278.5 -82h160q4 -8 4 -21.5t-4 -17.5h-160q-201 0 -311.5 -98.5t-110.5 -242.5t106.5 -230t290.5 -86
q113 0 194 23.5t165 82.5q16 -10 22 -33q-158 -113 -371 -112.5t-330.5 97.5t-117.5 254zM283 1495q-4 0 -4 13t4 22h510q4 -6 4 -17.5t-4 -17.5h-510z" />
    <glyph glyph-name="Eogonek.ss01" horiz-adv-x="1009" 
d="M761.5 -356q-65.5 0 -105.5 34.5t-40 102.5q0 113 134 227q-86 -20 -185 -20q-203 0 -320.5 97t-117.5 254t95 248t233 115q-127 20 -203 99.5t-76 217.5t109.5 224t288.5 86t298 -86q-2 -16 -20 -31q-113 78 -278 78t-261 -78.5t-96 -201.5t94.5 -205t278.5 -82h160
q4 -8 4 -21.5t-4 -17.5h-160q-201 0 -311.5 -98.5t-110.5 -242.5t106.5 -230t290.5 -86q113 0 194 23.5t165 82.5q16 -10 22 -33q-70 -47 -127 -69q-162 -123 -162 -250q0 -49 32 -74.5t86.5 -26t101.5 38.5q16 -8 16 -28q-66 -47 -131.5 -47z" />
    <glyph glyph-name="Q.ss02" horiz-adv-x="1476" 
d="M737 20q172 0 299 80l-178 211q10 16 27 23l182 -215q115 82 177.5 223t62.5 317q0 287 -153 464t-417 177t-415.5 -177t-151.5 -462t152.5 -463t414.5 -178zM1350 659q0 -180 -68 -329.5t-190 -239.5l159 -190q-4 -18 -26 -23l-162 193q-141 -90 -326 -90
q-279 0 -444.5 191t-165.5 487t166 490q165 194 445 193.5t446 -191t166 -491.5z" />
    <glyph glyph-name="a.ss01" horiz-adv-x="1126" 
d="M537 23q104 0 201.5 63.5t146.5 185.5v607q-109 63 -285 63t-308 -131t-132 -350t102.5 -328.5t274.5 -109.5zM926 205q0 -82 22.5 -117t79.5 -61q0 -20 -18 -33q-123 45 -125 201q-55 -104 -150.5 -158.5t-199.5 -54.5q-178 0 -298 114.5t-120 360.5t144.5 386
t332.5 140t332 -80v-698z" />
    <glyph glyph-name="aacute.ss01" horiz-adv-x="1126" 
d="M537 23q104 0 201.5 63.5t146.5 185.5v607q-109 63 -285 63t-308 -131t-132 -350t102.5 -328.5t274.5 -109.5zM926 205q0 -82 22.5 -117t79.5 -61q0 -20 -18 -33q-123 45 -125 201q-55 -104 -150.5 -158.5t-199.5 -54.5q-178 0 -298 114.5t-120 360.5t144.5 386
t332.5 140t332 -80v-698zM440 1096q-16 10 -18 24l301 260q18 -10 29 -34z" />
    <glyph glyph-name="abreve.ss01" horiz-adv-x="1126" 
d="M537 23q104 0 201.5 63.5t146.5 185.5v607q-109 63 -285 63t-308 -131t-132 -350t102.5 -328.5t274.5 -109.5zM926 205q0 -82 22.5 -117t79.5 -61q0 -20 -18 -33q-123 45 -125 201q-55 -104 -150.5 -158.5t-199.5 -54.5q-178 0 -298 114.5t-120 360.5t144.5 386
t332.5 140t332 -80v-698zM575.5 1112q-92.5 0 -165 58.5t-88.5 170.5q14 8 32 9q16 -98 80 -148.5t140 -50.5t146.5 51t78.5 148q18 0 30 -7q-8 -111 -84.5 -171t-169 -60z" />
    <glyph glyph-name="acircumflex.ss01" horiz-adv-x="1126" 
d="M537 23q104 0 201.5 63.5t146.5 185.5v607q-109 63 -285 63t-308 -131t-132 -350t102.5 -328.5t274.5 -109.5zM926 205q0 -82 22.5 -117t79.5 -61q0 -20 -18 -33q-123 45 -125 201q-55 -104 -150.5 -158.5t-199.5 -54.5q-178 0 -298 114.5t-120 360.5t144.5 386
t332.5 140t332 -80v-698zM340 1098q-16 6 -25 24l242 260q18 6 37 0l240 -268q-6 -14 -27 -22l-234 251z" />
    <glyph glyph-name="adieresis.ss01" horiz-adv-x="1126" 
d="M537 23q104 0 201.5 63.5t146.5 185.5v607q-109 63 -285 63t-308 -131t-132 -350t102.5 -328.5t274.5 -109.5zM926 205q0 -82 22.5 -117t79.5 -61q0 -20 -18 -33q-123 45 -125 201q-55 -104 -150.5 -158.5t-199.5 -54.5q-178 0 -298 114.5t-120 360.5t144.5 386
t332.5 140t332 -80v-698zM786.5 1184q-20.5 0 -36 15t-15.5 35.5t15.5 36t36 15.5t36 -15.5t15.5 -37t-15.5 -35.5t-36 -14zM363.5 1184q-21.5 0 -37 15t-15.5 35.5t15.5 36t36 15.5t36 -15.5t15.5 -37t-14.5 -35.5t-36 -14z" />
    <glyph glyph-name="agrave.ss01" horiz-adv-x="1126" 
d="M537 23q104 0 201.5 63.5t146.5 185.5v607q-109 63 -285 63t-308 -131t-132 -350t102.5 -328.5t274.5 -109.5zM926 205q0 -82 22.5 -117t79.5 -61q0 -20 -18 -33q-123 45 -125 201q-55 -104 -150.5 -158.5t-199.5 -54.5q-178 0 -298 114.5t-120 360.5t144.5 386
t332.5 140t332 -80v-698zM711 1120q-2 -14 -19 -24l-311 250q10 25 29 34z" />
    <glyph glyph-name="amacron.ss01" horiz-adv-x="1126" 
d="M537 23q104 0 201.5 63.5t146.5 185.5v607q-109 63 -285 63t-308 -131t-132 -350t102.5 -328.5t274.5 -109.5zM926 205q0 -82 22.5 -117t79.5 -61q0 -20 -18 -33q-123 45 -125 201q-55 -104 -150.5 -158.5t-199.5 -54.5q-178 0 -298 114.5t-120 360.5t144.5 386
t332.5 140t332 -80v-698zM319 1184q-4 0 -4 13t4 22h510q13 -19 0 -35h-510z" />
    <glyph glyph-name="aogonek.ss01" horiz-adv-x="1128" 
d="M520 23q238 0 365 229v627q-111 63 -286 63t-307 -131t-132 -349t99 -328t261 -111zM793 -206q0 -114 115 -114q52 0 104 39q16 -8 16 -28q-66 -47 -132 -47t-106 37q-38 37 -38 107t58 136q58 68 165 111q-84 35 -90 149q-127 -203 -367 -202q-168 0 -285 116t-117 360
q0 245 145 385t331 140t334 -80v-698q0 -74 24 -110t78 -36q6 -20 0 -36q-119 -43 -177 -107q-58 -62 -58 -122z" />
    <glyph glyph-name="aring.ss01" horiz-adv-x="1126" 
d="M537 23q104 0 201.5 63.5t146.5 185.5v607q-109 63 -285 63t-308 -131t-132 -350t102.5 -328.5t274.5 -109.5zM926 205q0 -82 22.5 -117t79.5 -61q0 -20 -18 -33q-123 45 -125 201q-55 -104 -150.5 -158.5t-199.5 -54.5q-178 0 -298 114.5t-120 360.5t144.5 386
t332.5 140t332 -80v-698zM579 1374q-58 0 -97.5 -40t-39.5 -96t39 -97t97.5 -41t95.5 40t37 97t-37 97t-95 40zM577.5 1061q-71.5 0 -124 52t-52.5 125t52.5 124t124 51t123 -51t51.5 -124t-51.5 -125t-123 -52z" />
    <glyph glyph-name="atilde.ss01" horiz-adv-x="1126" 
d="M537 23q104 0 201.5 63.5t146.5 185.5v607q-109 63 -285 63t-308 -131t-132 -350t102.5 -328.5t274.5 -109.5zM926 205q0 -82 22.5 -117t79.5 -61q0 -20 -18 -33q-123 45 -125 201q-55 -104 -150.5 -158.5t-199.5 -54.5q-178 0 -298 114.5t-120 360.5t144.5 386
t332.5 140t332 -80v-698zM438 1266q-96 0 -131 -92q-23 0 -35 12q45 119 166 119q55 0 145.5 -46.5t135.5 -46.5q96 0 127 93q25 0 35 -13q-41 -119 -162 -118q-57 0 -146.5 46t-134.5 46z" />
    <glyph glyph-name="e.ss01" horiz-adv-x="1024" 
d="M566 944q-142 0 -254.5 -99.5t-143.5 -266.5q180 -90 387 -91q82 0 146.5 17.5t112.5 68t48 140.5t-77 160.5t-219 70.5zM568.5 -18q-195.5 0 -324.5 125.5t-129 358t135 375t305 142.5t262 -78t92 -200q0 -198 -227 -244q-59 -12 -127 -12q-219 0 -393 90q-4 -45 -4 -72
q0 -207 113.5 -327t300 -120t309.5 119q16 -8 22 -30q-139 -127 -334.5 -127z" />
    <glyph glyph-name="eacute.ss01" horiz-adv-x="1024" 
d="M566 944q-142 0 -254.5 -99.5t-143.5 -266.5q180 -90 387 -91q82 0 146.5 17.5t112.5 68t48 140.5t-77 160.5t-219 70.5zM568.5 -18q-195.5 0 -324.5 125.5t-129 358t135 375t305 142.5t262 -78t92 -200q0 -198 -227 -244q-59 -12 -127 -12q-219 0 -393 90q-4 -45 -4 -72
q0 -207 113.5 -327t300 -120t309.5 119q16 -8 22 -30q-139 -127 -334.5 -127zM399 1096q-16 10 -18 24l301 260q18 -10 29 -34z" />
    <glyph glyph-name="ecaron.ss01" horiz-adv-x="1024" 
d="M566 944q-142 0 -254.5 -99.5t-143.5 -266.5q180 -90 387 -91q82 0 146.5 17.5t112.5 68t48 140.5t-77 160.5t-219 70.5zM568.5 -18q-195.5 0 -324.5 125.5t-129 358t135 375t305 142.5t262 -78t92 -200q0 -198 -227 -244q-59 -12 -127 -12q-219 0 -393 90q-4 -45 -4 -72
q0 -207 113.5 -327t300 -120t309.5 119q16 -8 22 -30q-139 -127 -334.5 -127zM551 1100q-18 -6 -37 0l-240 266q8 16 27 23l234 -250l233 243q18 -6 25 -24z" />
    <glyph glyph-name="ecircumflex.ss01" horiz-adv-x="1024" 
d="M566 944q-142 0 -254.5 -99.5t-143.5 -266.5q180 -90 387 -91q82 0 146.5 17.5t112.5 68t48 140.5t-77 160.5t-219 70.5zM568.5 -18q-195.5 0 -324.5 125.5t-129 358t135 375t305 142.5t262 -78t92 -200q0 -198 -227 -244q-59 -12 -127 -12q-219 0 -393 90q-4 -45 -4 -72
q0 -207 113.5 -327t300 -120t309.5 119q16 -8 22 -30q-139 -127 -334.5 -127zM299 1098q-16 6 -25 24l242 260q18 6 37 0l240 -268q-6 -14 -27 -22l-234 251z" />
    <glyph glyph-name="edieresis.ss01" horiz-adv-x="1024" 
d="M566 944q-142 0 -254.5 -99.5t-143.5 -266.5q180 -90 387 -91q82 0 146.5 17.5t112.5 68t48 140.5t-77 160.5t-219 70.5zM568.5 -18q-195.5 0 -324.5 125.5t-129 358t135 375t305 142.5t262 -78t92 -200q0 -198 -227 -244q-59 -12 -127 -12q-219 0 -393 90q-4 -45 -4 -72
q0 -207 113.5 -327t300 -120t309.5 119q16 -8 22 -30q-139 -127 -334.5 -127zM745.5 1184q-20.5 0 -36 15t-15.5 35.5t15.5 36t36 15.5t36 -15.5t15.5 -37t-15.5 -35.5t-36 -14zM323.5 1184q-21.5 0 -37.5 15t-16 35.5t15.5 36t36 15.5t36 -15.5t15.5 -37t-14 -35.5
t-35.5 -14z" />
    <glyph glyph-name="edotaccent.ss01" horiz-adv-x="1024" 
d="M566 944q-142 0 -254.5 -99.5t-143.5 -266.5q180 -90 387 -91q82 0 146.5 17.5t112.5 68t48 140.5t-77 160.5t-219 70.5zM568.5 -18q-195.5 0 -324.5 125.5t-129 358t135 375t305 142.5t262 -78t92 -200q0 -198 -227 -244q-59 -12 -127 -12q-219 0 -393 90q-4 -45 -4 -72
q0 -207 113.5 -327t300 -120t309.5 119q16 -8 22 -30q-139 -127 -334.5 -127zM536.5 1198q-21.5 0 -37.5 15.5t-16 36t15.5 35.5t36 15t36 -15t15.5 -35.5t-14 -36t-35.5 -15.5z" />
    <glyph glyph-name="egrave.ss01" horiz-adv-x="1024" 
d="M566 944q-142 0 -254.5 -99.5t-143.5 -266.5q180 -90 387 -91q82 0 146.5 17.5t112.5 68t48 140.5t-77 160.5t-219 70.5zM568.5 -18q-195.5 0 -324.5 125.5t-129 358t135 375t305 142.5t262 -78t92 -200q0 -198 -227 -244q-59 -12 -127 -12q-219 0 -393 90q-4 -45 -4 -72
q0 -207 113.5 -327t300 -120t309.5 119q16 -8 22 -30q-139 -127 -334.5 -127zM670 1120q-2 -14 -19 -24l-311 250q10 25 29 34z" />
    <glyph glyph-name="emacron.ss01" horiz-adv-x="1024" 
d="M566 944q-142 0 -254.5 -99.5t-143.5 -266.5q180 -90 387 -91q82 0 146.5 17.5t112.5 68t48 140.5t-77 160.5t-219 70.5zM568.5 -18q-195.5 0 -324.5 125.5t-129 358t135 375t305 142.5t262 -78t92 -200q0 -198 -227 -244q-59 -12 -127 -12q-219 0 -393 90q-4 -45 -4 -72
q0 -207 113.5 -327t300 -120t309.5 119q16 -8 22 -30q-139 -127 -334.5 -127zM279 1184q-4 0 -4.5 13t4.5 22h509q13 -19 0 -35h-509z" />
    <glyph glyph-name="eogonek.ss01" horiz-adv-x="1024" 
d="M566 944q-142 0 -254.5 -99.5t-143.5 -266.5q180 -90 387 -91q82 0 146.5 17.5t112.5 68t48 140.5t-77 160.5t-219 70.5zM643 -208q1 -112 119 -111q54 0 100 38q16 -8 17 -28q-66 -47 -131.5 -47t-105.5 34.5t-40 102.5q0 111 133 229q-76 -29 -172 -28
q-190 0 -319 125.5t-129 358t135 375t305 142.5t262 -78t92 -200q0 -198 -227 -244q-59 -12 -127 -12q-219 0 -393 90q-4 -45 -4 -72q0 -207 113.5 -327t300 -120t309.5 119q16 -8 22 -30q-31 -29 -61 -48h6q-92 -59 -148.5 -134t-56.5 -135z" />
    <glyph glyph-name="g.ss01" horiz-adv-x="1110" 
d="M266 -169q0 -189 258 -189q168 0 267.5 89t99.5 253v204q-105 -74 -207 -94q-231 -47 -324.5 -107.5t-93.5 -155.5zM160 522q0 -186 118.5 -290.5t295 -104.5t317.5 106v603q-125 106 -304.5 106t-303 -117t-123.5 -303zM597 983q196 0 335 -127v-872q0 -180 -114 -280
q-112 -100 -278 -101q-316 0 -317 223q0 94 68.5 156.5t228.5 107.5q-184 18 -293.5 131t-109.5 315.5t142 324.5t338 122z" />
    <glyph glyph-name="gbreve.ss01" horiz-adv-x="1110" 
d="M266 -169q0 -189 258 -189q168 0 267.5 89t99.5 253v204q-105 -74 -207 -94q-231 -47 -324.5 -107.5t-93.5 -155.5zM160 522q0 -186 118.5 -290.5t295 -104.5t317.5 106v603q-125 106 -304.5 106t-303 -117t-123.5 -303zM597 983q196 0 335 -127v-872q0 -180 -114 -280
q-112 -100 -278 -101q-316 0 -317 223q0 94 68.5 156.5t228.5 107.5q-184 18 -293.5 131t-109.5 315.5t142 324.5t338 122zM555 1112q-92 0 -165 58.5t-89 170.5q14 8 33 9q16 -98 79.5 -148.5t140.5 -50.5t146.5 51t77.5 148q18 0 31 -7q-8 -111 -85 -171t-169 -60z" />
    <glyph glyph-name="gcommaaccent.ss01" horiz-adv-x="1110" 
d="M266 -169q0 -189 258 -189q168 0 267.5 89t99.5 253v204q-105 -74 -207 -94q-231 -47 -324.5 -107.5t-93.5 -155.5zM160 522q0 -186 118.5 -290.5t295 -104.5t317.5 106v603q-125 106 -304.5 106t-303 -117t-123.5 -303zM597 983q196 0 335 -127v-872q0 -180 -114 -280
q-112 -100 -278 -101q-316 0 -317 223q0 94 68.5 156.5t228.5 107.5q-184 18 -293.5 131t-109.5 315.5t142 324.5t338 122zM556 1044q-13 0 -26 5q-16 33 -16 100q0 145 92 237q10 -4 15 -16q-63 -70 -64 -194q0 -63 21 -125q-9 -7 -22 -7z" />
    <glyph glyph-name="gdotaccent.ss01" horiz-adv-x="1110" 
d="M266 -169q0 -189 258 -189q168 0 267.5 89t99.5 253v204q-105 -74 -207 -94q-231 -47 -324.5 -107.5t-93.5 -155.5zM160 522q0 -186 118.5 -290.5t295 -104.5t317.5 106v603q-125 106 -304.5 106t-303 -117t-123.5 -303zM597 983q196 0 335 -127v-872q0 -180 -114 -280
q-112 -100 -278 -101q-316 0 -317 223q0 94 68.5 156.5t228.5 107.5q-184 18 -293.5 131t-109.5 315.5t142 324.5t338 122zM556.5 1198q-21.5 0 -37 15.5t-15.5 36t15.5 35.5t35.5 15t35.5 -15t15.5 -35.5t-14 -36t-35.5 -15.5z" />
    <glyph glyph-name="k.ss01" horiz-adv-x="1052" 
d="M932.5 -4q-18.5 0 -27.5 2l-321 362q-18 20 -19 56q164 37 247 102.5t83 179t-71.5 179t-210 65.5t-262.5 -105.5t-124 -277.5v-559q-8 -4 -20 -4t-21 4v1346q8 4 20.5 4t20.5 -4v-631q47 131 159 199.5t251.5 68.5t219 -77t79.5 -199q0 -240 -326 -316l353 -391
q-12 -4 -30.5 -4z" />
    <glyph glyph-name="kcommaaccent.ss01" horiz-adv-x="1052" 
d="M480 -86q13 0 26 -4q16 -33 16 -100q0 -150 -92 -238q-10 4 -14 16q63 70 63 195q0 63 -20 125q8 6 21 6zM932.5 -4q-18.5 0 -27.5 2l-321 362q-18 20 -19 56q164 37 247 102.5t83 179t-71.5 179t-210 65.5t-262.5 -105.5t-124 -277.5v-559q-8 -4 -20 -4t-21 4v1346
q8 4 20.5 4t20.5 -4v-631q47 131 159 199.5t251.5 68.5t219 -77t79.5 -199q0 -240 -326 -316l353 -391q-12 -4 -30.5 -4z" />
    <glyph glyph-name="l.ss01" horiz-adv-x="593" 
d="M178 193v1157q8 4 20.5 4t20.5 -4v-1164q0 -76 48 -117.5t112 -41.5q98 0 180 82q25 -10 27 -31q-58 -58 -89 -69q-159 -57 -259 28q-60 51 -60 156z" />
    <glyph glyph-name="lacute.ss01" horiz-adv-x="593" 
d="M178 193v1157q8 4 20.5 4t20.5 -4v-1164q0 -76 48 -117.5t112 -41.5q98 0 180 82q25 -10 27 -31q-58 -58 -89 -69q-159 -57 -259 28q-60 51 -60 156zM59 1409q-14 14 -14 29l342 202q16 -12 23 -38z" />
    <glyph glyph-name="lcaron.ss01" horiz-adv-x="593" 
d="M178 193v1157q8 4 20.5 4t20.5 -4v-1164q0 -76 48 -117.5t112 -41.5q98 0 180 82q25 -10 27 -31q-58 -58 -89 -69q-159 -57 -259 28q-60 51 -60 156zM406 1326.5q0 60.5 -21 119.5q10 6 23.5 6t25.5 -4q12 -31 12 -107q1 -165 -67 -251q-18 0 -23 14q23 35 36.5 98.5
t13.5 124z" />
    <glyph glyph-name="lcommaaccent.ss01" horiz-adv-x="593" 
d="M369.5 -86q13.5 0 25.5 -4q16 -33 17 -100q-1 -150 -93 -238q-10 4 -14 16q63 70 64 195q0 63 -21 125q8 6 21.5 6zM178 193v1157q8 4 20.5 4t20.5 -4v-1164q0 -76 48 -117.5t112 -41.5q98 0 180 82q25 -10 27 -31q-58 -58 -89 -69q-159 -57 -259 28q-60 51 -60 156z" />
    <glyph glyph-name="ldot.ss01" horiz-adv-x="534" 
d="M440.5 623q-22.5 0 -40 16t-17.5 40t17.5 40t40 16t40 -16.5t17.5 -40t-17.5 -39.5t-40 -16zM178 193v1157q8 4 20.5 4t20.5 -4v-1164q0 -76 48 -117.5t112 -41.5q98 0 180 82q25 -10 27 -31q-58 -58 -89 -69q-159 -57 -259 28q-60 51 -60 156z" />
    <glyph glyph-name="lslash.ss01" horiz-adv-x="593" 
d="M178 193v460l-145 -75q-16 10 -19 28l164 86v658q8 4 20.5 4t20.5 -4v-637l143 75q18 -8 19 -28l-162 -84v-490q0 -76 48 -117.5t112 -41.5q98 0 180 82q25 -10 27 -31q-58 -58 -89 -69q-159 -57 -259 28q-60 51 -60 156z" />
    <glyph glyph-name="y.ss01" horiz-adv-x="1120" 
d="M893 -16v163q-92 -53 -209 -75q-217 -33 -306 -95.5t-89 -151.5t63.5 -136t177.5 -47q164 0 263.5 91t99.5 251zM913.5 952q12.5 0 20.5 -4v-964q0 -182 -112.5 -281.5t-271.5 -99.5q-160 0 -232 58q-72 59 -72 155t64.5 156.5t219.5 97.5q-184 4 -271 99t-87 263v516
q8 4 20.5 4t20.5 -4v-497q0 -350 346 -351q178 0 334 97v751q8 4 20.5 4z" />
    <glyph glyph-name="yacute.ss01" horiz-adv-x="1120" 
d="M893 -16v163q-92 -53 -209 -75q-217 -33 -306 -95.5t-89 -151.5t63.5 -136t177.5 -47q164 0 263.5 91t99.5 251zM913.5 952q12.5 0 20.5 -4v-964q0 -182 -112.5 -281.5t-271.5 -99.5q-160 0 -232 58q-72 59 -72 155t64.5 156.5t219.5 97.5q-184 4 -271 99t-87 263v516
q8 4 20.5 4t20.5 -4v-497q0 -350 346 -351q178 0 334 97v751q8 4 20.5 4zM422 1096q-16 10 -19 24l302 260q18 -10 28 -34z" />
    <glyph glyph-name="ycircumflex.ss01" horiz-adv-x="1120" 
d="M893 -16v163q-92 -53 -209 -75q-217 -33 -306 -95.5t-89 -151.5t63.5 -136t177.5 -47q164 0 263.5 91t99.5 251zM913.5 952q12.5 0 20.5 -4v-964q0 -182 -112.5 -281.5t-271.5 -99.5q-160 0 -232 58q-72 59 -72 155t64.5 156.5t219.5 97.5q-184 4 -271 99t-87 263v516
q8 4 20.5 4t20.5 -4v-497q0 -350 346 -351q178 0 334 97v751q8 4 20.5 4zM322 1098q-16 6 -25 24l242 260q18 6 36 0l240 -268q-6 -14 -27 -22l-233 251z" />
    <glyph glyph-name="ydieresis.ss01" horiz-adv-x="1120" 
d="M893 -16v163q-92 -53 -209 -75q-217 -33 -306 -95.5t-89 -151.5t63.5 -136t177.5 -47q164 0 263.5 91t99.5 251zM913.5 952q12.5 0 20.5 -4v-964q0 -182 -112.5 -281.5t-271.5 -99.5t-231.5 58t-72.5 154.5t64.5 157t219.5 97.5q-184 4 -271 99t-87 263v516q8 4 20.5 4
t20.5 -4v-497q0 -350 346 -351q178 0 334 97v751q8 4 20.5 4zM769.5 1184q-21.5 0 -37 15t-15.5 35.5t15.5 36t35.5 15.5t35.5 -15.5t15.5 -37t-14 -35.5t-35.5 -14zM344.5 1184q-20.5 0 -36 15t-15.5 35.5t15.5 36t36 15.5t35.5 -15.5t15 -37t-15 -35.5t-35.5 -14z" />
    <glyph glyph-name="ygrave.ss01" horiz-adv-x="1120" 
d="M893 -16v163q-92 -53 -209 -75q-217 -33 -306 -95.5t-89 -151.5t63.5 -136t177.5 -47q164 0 263.5 91t99.5 251zM913.5 952q12.5 0 20.5 -4v-964q0 -182 -112.5 -281.5t-271.5 -99.5q-160 0 -232 58q-72 59 -72 155t64.5 156.5t219.5 97.5q-184 4 -271 99t-87 263v516
q8 4 20.5 4t20.5 -4v-497q0 -350 346 -351q178 0 334 97v751q8 4 20.5 4zM692 1120q-2 -14 -18 -24l-312 250q10 25 29 34z" />
    <glyph glyph-name="a.ss02" horiz-adv-x="1028" 
d="M788 451v38h-327q-158 0 -238 -65.5t-80 -172t68 -169t194 -62.5q127 0 245 90q62 46 100 135t38 206zM788 629q0 313 -326 313q-154 0 -292 -102q-16 8 -20 28q145 115 314 115t267 -84t98 -256v-438q0 -82 24 -119t93 -57q0 -25 -14 -35q-74 20 -109 61t-35 133v70
q-43 -139 -152.5 -207.5t-241 -68.5t-214 72.5t-82.5 201.5t98.5 201.5t264.5 72.5h327v99z" />
    <glyph glyph-name="aacute.ss02" horiz-adv-x="1028" 
d="M788 451v38h-327q-158 0 -238 -65.5t-80 -172t68 -169t194 -62.5q127 0 245 90q62 46 100 135t38 206zM788 629q0 313 -326 313q-154 0 -292 -102q-16 8 -20 28q145 115 314 115t267 -84t98 -256v-438q0 -82 24 -119t93 -57q0 -25 -14 -35q-74 20 -109 61t-35 133v70
q-43 -139 -152.5 -207.5t-241 -68.5t-214 72.5t-82.5 201.5t98.5 201.5t264.5 72.5h327v99zM348 1096q-16 10 -18 24l301 260q18 -10 28 -34z" />
    <glyph glyph-name="abreve.ss02" horiz-adv-x="1028" 
d="M788 451v38h-327q-158 0 -238 -65.5t-80 -172t68 -169t194 -62.5q127 0 245 90q62 46 100 135t38 206zM788 629q0 313 -326 313q-154 0 -292 -102q-16 8 -20 28q145 115 314 115t267 -84t98 -256v-438q0 -82 24 -119t93 -57q0 -25 -14 -35q-74 20 -109 61t-35 133v70
q-43 -139 -152.5 -207.5t-241 -68.5t-214 72.5t-82.5 201.5t98.5 201.5t264.5 72.5h327v99zM483 1112q-92 0 -164.5 58.5t-89.5 170.5q14 8 33 9q16 -98 80 -148.5t140.5 -50.5t146 51t78.5 148q18 0 30 -7q-8 -111 -85 -171t-169 -60z" />
    <glyph glyph-name="acircumflex.ss02" horiz-adv-x="1028" 
d="M788 451v38h-327q-158 0 -238 -65.5t-80 -172t68 -169t194 -62.5q127 0 245 90q62 46 100 135t38 206zM788 629q0 313 -326 313q-154 0 -292 -102q-16 8 -20 28q145 115 314 115t267 -84t98 -256v-438q0 -82 24 -119t93 -57q0 -25 -14 -35q-74 20 -109 61t-35 133v70
q-43 -139 -152.5 -207.5t-241 -68.5t-214 72.5t-82.5 201.5t98.5 201.5t264.5 72.5h327v99zM248 1098q-16 6 -25 24l242 260q18 6 37 0l239 -268q-6 -14 -26 -22l-234 251z" />
    <glyph glyph-name="adieresis.ss02" horiz-adv-x="1028" 
d="M788 451v38h-327q-158 0 -238 -65.5t-80 -172t68 -169t194 -62.5q127 0 245 90q62 46 100 135t38 206zM788 629q0 313 -326 313q-154 0 -292 -102q-16 8 -20 28q145 115 314 115t267 -84t98 -256v-438q0 -82 24 -119t93 -57q0 -25 -14 -35q-74 20 -109 61t-35 133v70
q-43 -139 -152.5 -207.5t-241 -68.5t-214 72.5t-82.5 201.5t98.5 201.5t264.5 72.5h327v99zM695.5 1184q-21.5 0 -37 15t-15.5 35.5t15.5 36t36 15.5t35.5 -15.5t15 -37t-14 -35.5t-35.5 -14zM270.5 1184q-20.5 0 -36 15t-15.5 35.5t15.5 36t36 15.5t36 -15.5t15.5 -37
t-15.5 -35.5t-36 -14z" />
    <glyph glyph-name="agrave.ss02" horiz-adv-x="1028" 
d="M788 451v38h-327q-158 0 -238 -65.5t-80 -172t68 -169t194 -62.5q127 0 245 90q62 46 100 135t38 206zM788 629q0 313 -326 313q-154 0 -292 -102q-16 8 -20 28q145 115 314 115t267 -84t98 -256v-438q0 -82 24 -119t93 -57q0 -25 -14 -35q-74 20 -109 61t-35 133v70
q-43 -139 -152.5 -207.5t-241 -68.5t-214 72.5t-82.5 201.5t98.5 201.5t264.5 72.5h327v99zM618 1120q-2 -14 -18 -24l-311 250q10 25 28 34z" />
    <glyph glyph-name="amacron.ss02" horiz-adv-x="1028" 
d="M788 451v38h-327q-158 0 -238 -65.5t-80 -172t68 -169t194 -62.5q127 0 245 90q62 46 100 135t38 206zM788 629q0 313 -326 313q-154 0 -292 -102q-16 8 -20 28q145 115 314 115t267 -84t98 -256v-438q0 -82 24 -119t93 -57q0 -25 -14 -35q-74 20 -109 61t-35 133v70
q-43 -139 -152.5 -207.5t-241 -68.5t-214 72.5t-82.5 201.5t98.5 201.5t264.5 72.5h327v99zM227 1184q-4 0 -4 13t4 22h510q4 -6 4 -17.5t-4 -17.5h-510z" />
    <glyph glyph-name="aogonek.ss02" horiz-adv-x="1024" 
d="M788 489h-327q-158 1 -238 -65t-80 -172t67 -170q67 -62 192 -62t247 90q61 46 101 135q39 89 38 206v38zM780 -356q-147 0 -147 137q0 76 59 138t176 95q-80 35 -80 174v72q-32 -96 -98 -162q-119 -118 -274 -117t-237 73q-81 73 -81 202t98 202t265 72h327v99
q0 161 -86 237t-204 76t-186 -24q-67 -24 -140 -80q-18 8 -22 30q48 34 82 54t102 40t143 21q156 0 254 -84t98 -256v-438q0 -98 22 -131t89 -43q2 -17 -4 -35q-129 -23 -196 -82t-66 -133q0 -49 32 -75t84 -26t103 39q16 -8 16 -28q-66 -47 -129 -47z" />
    <glyph glyph-name="aring.ss02" horiz-adv-x="1028" 
d="M788 451v38h-327q-158 0 -238 -65.5t-80 -172t68 -169t194 -62.5q127 0 245 90q62 46 100 135t38 206zM788 629q0 313 -326 313q-154 0 -292 -102q-16 8 -20 28q145 115 314 115t267 -84t98 -256v-438q0 -82 24 -119t93 -57q0 -25 -14 -35q-74 20 -109 61t-35 133v70
q-43 -139 -152.5 -207.5t-241 -68.5t-214 72.5t-82.5 201.5t98.5 201.5t264.5 72.5h327v99zM486 1374q-58 0 -97 -40t-39 -96t39 -97t97 -41t95 40t37 97t-37 97t-95 40zM485.5 1061q-71.5 0 -124 52t-52.5 125t52.5 124t124 51t122.5 -51t51 -124t-51 -125t-122.5 -52z" />
    <glyph glyph-name="atilde.ss02" horiz-adv-x="1028" 
d="M788 451v38h-327q-158 0 -238 -65.5t-80 -172t68 -169t194 -62.5q127 0 245 90q62 46 100 135t38 206zM788 629q0 313 -326 313q-154 0 -292 -102q-16 8 -20 28q145 115 314 115t267 -84t98 -256v-438q0 -82 24 -119t93 -57q0 -25 -14 -35q-74 20 -109 61t-35 133v70
q-43 -139 -152.5 -207.5t-241 -68.5t-214 72.5t-82.5 201.5t98.5 201.5t264.5 72.5h327v99zM346 1266q-96 0 -131 -92q-23 0 -35 12q45 119 166 119q55 0 145.5 -46.5t135.5 -46.5q96 0 127 93q25 0 34 -13q-41 -119 -161 -118q-57 0 -146.5 46t-134.5 46z" />
    <glyph glyph-name="e.ss02" horiz-adv-x="1048" 
d="M567 944q-170 0 -289.5 -131t-117.5 -334q0 -25 2 -35l739 224q-12 104 -106.5 190t-227.5 86zM117 480q0 230 134 366.5t304 136.5t277.5 -102.5t115.5 -237.5l-784 -237q23 -178 135.5 -282t290.5 -104t317 117q16 -8 23 -31q-158 -125 -357.5 -124.5t-327.5 134.5
t-128 364z" />
    <glyph glyph-name="eacute.ss02" horiz-adv-x="1048" 
d="M567 944q-170 0 -289.5 -131t-117.5 -334q0 -25 2 -35l739 224q-12 104 -106.5 190t-227.5 86zM117 480q0 230 134 366.5t304 136.5t277.5 -102.5t115.5 -237.5l-784 -237q23 -178 135.5 -282t290.5 -104t317 117q16 -8 23 -31q-158 -125 -357.5 -124.5t-327.5 134.5
t-128 364zM416 1096q-16 10 -19 24l301 260q18 -10 29 -34z" />
    <glyph glyph-name="ecaron.ss02" horiz-adv-x="1048" 
d="M567 944q-170 0 -289.5 -131t-117.5 -334q0 -25 2 -35l739 224q-12 104 -106.5 190t-227.5 86zM117 480q0 230 134 366.5t304 136.5t277.5 -102.5t115.5 -237.5l-784 -237q23 -178 135.5 -282t290.5 -104t317 117q16 -8 23 -31q-158 -125 -357.5 -124.5t-327.5 134.5
t-128 364zM567 1100q-18 -6 -37 0l-239 266q8 16 26 23l234 -250l233 243q18 -6 25 -24z" />
    <glyph glyph-name="ecircumflex.ss02" horiz-adv-x="1048" 
d="M567 944q-170 0 -289.5 -131t-117.5 -334q0 -25 2 -35l739 224q-12 104 -106.5 190t-227.5 86zM117 480q0 230 134 366.5t304 136.5t277.5 -102.5t115.5 -237.5l-784 -237q23 -178 135.5 -282t290.5 -104t317 117q16 -8 23 -31q-158 -125 -357.5 -124.5t-327.5 134.5
t-128 364zM315 1098q-16 6 -24 24l241 260q18 6 37 0l240 -268q-6 -14 -27 -22l-233 251z" />
    <glyph glyph-name="edieresis.ss02" horiz-adv-x="1048" 
d="M567 944q-170 0 -289.5 -131t-117.5 -334q0 -25 2 -35l739 224q-12 104 -106.5 190t-227.5 86zM117 480q0 230 134 366.5t304 136.5t277.5 -102.5t115.5 -237.5l-784 -237q23 -178 135.5 -282t290.5 -104t317 117q16 -8 23 -31q-158 -125 -357.5 -124.5t-327.5 134.5
t-128 364zM761.5 1184q-20.5 0 -35.5 15t-15 35.5t15 36t35.5 15.5t36 -15.5t15.5 -37t-15.5 -35.5t-36 -14zM339.5 1184q-21.5 0 -37 15t-15.5 35.5t15 36t35.5 15.5t36 -15.5t15.5 -37t-14 -35.5t-35.5 -14z" />
    <glyph glyph-name="edotaccent.ss02" horiz-adv-x="1048" 
d="M567 944q-170 0 -289.5 -131t-117.5 -334q0 -25 2 -35l739 224q-12 104 -106.5 190t-227.5 86zM117 480q0 230 134 366.5t304 136.5t277.5 -102.5t115.5 -237.5l-784 -237q23 -178 135.5 -282t290.5 -104t317 117q16 -8 23 -31q-158 -125 -357.5 -124.5t-327.5 134.5
t-128 364zM552.5 1198q-21.5 0 -37 15.5t-15.5 36t15 35.5t35.5 15t36 -15t15.5 -35.5t-14 -36t-35.5 -15.5z" />
    <glyph glyph-name="egrave.ss02" horiz-adv-x="1048" 
d="M567 944q-170 0 -289.5 -131t-117.5 -334q0 -25 2 -35l739 224q-12 104 -106.5 190t-227.5 86zM117 480q0 230 134 366.5t304 136.5t277.5 -102.5t115.5 -237.5l-784 -237q23 -178 135.5 -282t290.5 -104t317 117q16 -8 23 -31q-158 -125 -357.5 -124.5t-327.5 134.5
t-128 364zM686 1120q-2 -14 -18 -24l-312 250q10 25 29 34z" />
    <glyph glyph-name="emacron.ss02" horiz-adv-x="1048" 
d="M567 944q-170 0 -289.5 -131t-117.5 -334q0 -25 2 -35l739 224q-12 104 -106.5 190t-227.5 86zM117 480q0 230 134 366.5t304 136.5t277.5 -102.5t115.5 -237.5l-784 -237q23 -178 135.5 -282t290.5 -104t317 117q16 -8 23 -31q-158 -125 -357.5 -124.5t-327.5 134.5
t-128 364zM295 1184q-4 0 -4 13t4 22h510q4 -6 4 -17.5t-4 -17.5h-510z" />
    <glyph glyph-name="eogonek.ss02" horiz-adv-x="1048" 
d="M567 944q-170 0 -289.5 -131t-117.5 -334q0 -25 2 -35l739 224q-12 104 -106.5 190t-227.5 86zM777.5 -319q54.5 0 101.5 38q16 -8 16 -28q-66 -47 -131.5 -47t-105.5 34.5t-40 102.5q0 111 132 227q-80 -27 -172 -26q-205 0 -333 134t-128 364t134 366.5t304 136.5
t277.5 -102.5t115.5 -237.5l-784 -237q23 -178 135.5 -282t290.5 -104t317 117q16 -8 23 -31q-53 -41 -80 -55q-190 -131 -191 -270q0 -49 32 -74.5t86.5 -25.5z" />
    <glyph glyph-name="g.ss02" horiz-adv-x="989" 
d="M502 934q-147 0 -234.5 -80t-87.5 -210t85 -208t223 -78t220.5 72t84.5 209q2 78 -34 158t-114 137h-143zM505.5 322q-133.5 0 -218.5 49q-51 -41 -69.5 -72t-18.5 -78q0 -113 186 -112h207q295 0 295 -228q0 -131 -114 -204.5t-305 -73.5t-300 53q-37 18 -82 51
q6 23 27 37q39 -32 71 -50q89 -50 273 -50t286.5 61.5t102.5 175.5q0 188 -254 189h-213q-221 0 -221 151q0 94 100 168q-119 88 -119 245t100.5 247t262.5 90h164q96 0 150 22.5t87 79.5q23 -6 35 -24q-72 -109 -240 -115q135 -109 136 -295q0 -143 -97.5 -230t-231 -87z
" />
    <glyph glyph-name="gbreve.ss02" horiz-adv-x="989" 
d="M502 934q-147 0 -234.5 -80t-87.5 -210t85 -208t223 -78t220.5 72t84.5 209q2 78 -34 158t-114 137h-143zM505.5 322q-133.5 0 -218.5 49q-51 -41 -69.5 -72t-18.5 -78q0 -113 186 -112h207q295 0 295 -228q0 -131 -114 -204.5t-305 -73.5t-300 53q-37 18 -82 51
q6 23 27 37q39 -32 71 -50q89 -50 273 -50t286.5 61.5t102.5 175.5q0 188 -254 189h-213q-221 0 -221 151q0 94 100 168q-119 88 -119 245t100.5 247t262.5 90h164q96 0 150 22.5t87 79.5q23 -6 35 -24q-72 -109 -240 -115q135 -109 136 -295q0 -143 -97.5 -230t-231 -87z
M489.5 1112q-92.5 0 -165 58.5t-88.5 170.5q14 8 32 9q16 -98 80 -148.5t140.5 -50.5t146.5 51t78 148q18 0 30 -7q-8 -111 -84.5 -171t-169 -60z" />
    <glyph glyph-name="gcommaaccent.ss02" horiz-adv-x="989" 
d="M502 934q-147 0 -234.5 -80t-87.5 -210t85 -208t223 -78t220.5 72t84.5 209q2 78 -34 158t-114 137h-143zM505.5 322q-133.5 0 -218.5 49q-51 -41 -69.5 -72t-18.5 -78q0 -113 186 -112h207q295 0 295 -228q0 -131 -114 -204.5t-305 -73.5t-300 53q-37 18 -82 51
q6 23 27 37q39 -32 71 -50q89 -50 273 -50t286.5 61.5t102.5 175.5q0 188 -254 189h-213q-221 0 -221 151q0 94 100 168q-119 88 -119 245t100.5 247t262.5 90h164q96 0 150 22.5t87 79.5q23 -6 35 -24q-72 -109 -240 -115q135 -109 136 -295q0 -143 -97.5 -230t-231 -87z
M489 1044q-12 0 -24 5q-16 33 -16 100q0 145 92 237q10 -4 14 -16q-63 -70 -63 -194q0 -63 20 -125q-11 -7 -23 -7z" />
    <glyph glyph-name="gdotaccent.ss02" horiz-adv-x="989" 
d="M502 934q-147 0 -234.5 -80t-87.5 -210t85 -208t223 -78t220.5 72t84.5 209q2 78 -34 158t-114 137h-143zM505.5 322q-133.5 0 -218.5 49q-51 -41 -69.5 -72t-18.5 -78q0 -113 186 -112h207q295 0 295 -228q0 -131 -114 -204.5t-305 -73.5t-300 53q-37 18 -82 51
q6 23 27 37q39 -32 71 -50q89 -50 273 -50t286.5 61.5t102.5 175.5q0 188 -254 189h-213q-221 0 -221 151q0 94 100 168q-119 88 -119 245t100.5 247t262.5 90h164q96 0 150 22.5t87 79.5q23 -6 35 -24q-72 -109 -240 -115q135 -109 136 -295q0 -143 -97.5 -230t-231 -87z
M490.5 1198q-21.5 0 -37 15.5t-15.5 36t15.5 35.5t36 15t36 -15t15.5 -35.5t-14.5 -36t-36 -15.5z" />
    <glyph glyph-name="w.ss02" horiz-adv-x="1501" 
d="M1054 -8q-15 0 -24 4q-80 152 -166 390.5t-119 451.5q-35 -219 -116.5 -459t-161.5 -383q-8 -4 -23.5 -4t-23.5 4q-90 137 -189.5 425t-142.5 527q10 2 23 2l16 -2q47 -227 144.5 -510.5t158.5 -384.5l12 -26l13 26q63 115 152 389.5t120 493.5q4 2 25 2l20 -2
q23 -215 113 -487.5t157 -395.5l13 -24q8 16 10 24q70 104 172 390t133 505l21 2h2l18 -2q-29 -219 -134.5 -508.5t-199.5 -443.5q-8 -4 -23 -4z" />
    <glyph glyph-name="wacute.ss02" horiz-adv-x="1501" 
d="M1054 -8q-15 0 -24 4q-80 152 -166 390.5t-119 451.5q-35 -219 -116.5 -459t-161.5 -383q-8 -4 -23.5 -4t-23.5 4q-90 137 -189.5 425t-142.5 527q10 2 23 2l16 -2q47 -227 144.5 -510.5t158.5 -384.5l12 -26l13 26q63 115 152 389.5t120 493.5q4 2 25 2l20 -2
q23 -215 113 -487.5t157 -395.5l13 -24q8 16 10 24q70 104 172 390t133 505l21 2h2l18 -2q-29 -219 -134.5 -508.5t-199.5 -443.5q-8 -4 -23 -4zM614 1096q-16 10 -18 24l301 260q18 -10 29 -34z" />
    <glyph glyph-name="wcircumflex.ss02" horiz-adv-x="1501" 
d="M1054 -8q-15 0 -24 4q-80 152 -166 390.5t-119 451.5q-35 -219 -116.5 -459t-161.5 -383q-8 -4 -23.5 -4t-23.5 4q-90 137 -189.5 425t-142.5 527q10 2 23 2l16 -2q47 -227 144.5 -510.5t158.5 -384.5l12 -26l13 26q63 115 152 389.5t120 493.5q4 2 25 2l20 -2
q23 -215 113 -487.5t157 -395.5l13 -24q8 16 10 24q70 104 172 390t133 505l21 2h2l18 -2q-29 -219 -134.5 -508.5t-199.5 -443.5q-8 -4 -23 -4zM514 1098q-16 6 -25 24l242 260q18 6 37 0l240 -268q-6 -14 -27 -22l-233 251z" />
    <glyph glyph-name="wdieresis.ss02" horiz-adv-x="1501" 
d="M1054 -8q-15 0 -24 4q-80 152 -166 390.5t-119 451.5q-35 -219 -116.5 -459t-161.5 -383q-8 -4 -23.5 -4t-23.5 4q-90 137 -189.5 425t-142.5 527q10 2 23 2l16 -2q47 -227 144.5 -510.5t158.5 -384.5l12 -26l13 26q63 115 152 389.5t120 493.5q4 2 25 2l20 -2
q23 -215 113 -487.5t157 -395.5l13 -24q8 16 10 24q70 104 172 390t133 505l21 2h2l18 -2q-29 -219 -134.5 -508.5t-199.5 -443.5q-8 -4 -23 -4zM962.5 1184q-21.5 0 -37.5 15t-16 35.5t15.5 36t36 15.5t36 -15.5t15.5 -37t-14 -35.5t-35.5 -14zM536.5 1184q-20.5 0 -36 15
t-15.5 35.5t15.5 36t36 15.5t36 -15.5t15.5 -37t-15.5 -35.5t-36 -14z" />
    <glyph glyph-name="wgrave.ss02" horiz-adv-x="1501" 
d="M1054 -8q-15 0 -24 4q-80 152 -166 390.5t-119 451.5q-35 -219 -116.5 -459t-161.5 -383q-8 -4 -23.5 -4t-23.5 4q-90 137 -189.5 425t-142.5 527q10 2 23 2l16 -2q47 -227 144.5 -510.5t158.5 -384.5l12 -26l13 26q63 115 152 389.5t120 493.5q4 2 25 2l20 -2
q23 -215 113 -487.5t157 -395.5l13 -24q8 16 10 24q70 104 172 390t133 505l21 2h2l18 -2q-29 -219 -134.5 -508.5t-199.5 -443.5q-8 -4 -23 -4zM885 1120q-2 -14 -19 -24l-311 250q10 25 29 34z" />
    <glyph glyph-name="y.ss02" horiz-adv-x="1120" 
d="M913.5 952q12.5 0 20.5 -4v-944q0 -184 -105.5 -287.5t-279.5 -103.5q-236 0 -359 139q6 23 29 29q121 -129 330 -129q160 0 252 93t92 259v121q-155 -90 -347 -90t-283 98t-91 275v540q8 4 20.5 4t20.5 -4v-540q0 -332 346 -332q178 0 334 96v776q8 4 20.5 4z" />
    <glyph glyph-name="yacute.ss02" horiz-adv-x="1120" 
d="M913.5 952q12.5 0 20.5 -4v-944q0 -184 -105.5 -287.5t-279.5 -103.5q-236 0 -359 139q6 23 29 29q121 -129 330 -129q160 0 252 93t92 259v121q-155 -90 -347 -90t-283 98t-91 275v540q8 4 20.5 4t20.5 -4v-540q0 -332 346 -332q178 0 334 96v776q8 4 20.5 4zM422 1096
q-16 10 -19 24l302 260q18 -10 28 -34z" />
    <glyph glyph-name="ycircumflex.ss02" horiz-adv-x="1120" 
d="M913.5 952q12.5 0 20.5 -4v-944q0 -184 -105.5 -287.5t-279.5 -103.5q-236 0 -359 139q6 23 29 29q121 -129 330 -129q160 0 252 93t92 259v121q-155 -90 -347 -90t-283 98t-91 275v540q8 4 20.5 4t20.5 -4v-540q0 -332 346 -332q178 0 334 96v776q8 4 20.5 4zM322 1098
q-16 6 -25 24l242 260q18 6 36 0l240 -268q-6 -14 -27 -22l-233 251z" />
    <glyph glyph-name="ydieresis.ss02" horiz-adv-x="1120" 
d="M913.5 952q12.5 0 20.5 -4v-944q0 -184 -105.5 -287.5t-279.5 -103.5q-236 0 -359 139q6 23 29 29q121 -129 330 -129q160 0 252 93t92 259v121q-154 -90 -346.5 -90t-283.5 98t-91 275v540q8 4 20.5 4t20.5 -4v-540q0 -332 346 -332q178 0 334 96v776q8 4 20.5 4z
M769.5 1184q-21.5 0 -37 15t-15.5 35.5t15.5 36t35.5 15.5t35.5 -15.5t15.5 -37t-14 -35.5t-35.5 -14zM344.5 1184q-20.5 0 -36 15t-15.5 35.5t15.5 36t36 15.5t35.5 -15.5t15 -37t-15 -35.5t-35.5 -14z" />
    <glyph glyph-name="ygrave.ss02" horiz-adv-x="1120" 
d="M913.5 952q12.5 0 20.5 -4v-944q0 -184 -105.5 -287.5t-279.5 -103.5q-236 0 -359 139q6 23 29 29q121 -129 330 -129q160 0 252 93t92 259v121q-155 -90 -347 -90t-283 98t-91 275v540q8 4 20.5 4t20.5 -4v-540q0 -332 346 -332q178 0 334 96v776q8 4 20.5 4zM692 1120
q-2 -14 -18 -24l-312 250q10 25 29 34z" />
    <glyph glyph-name="a.ss03" horiz-adv-x="1003" 
d="M143 285q0 -264 330 -265q199 0 326 66v403h-373q-137 0 -210 -57t-73 -147zM799 629q0 313 -333 313q-157 0 -296 -102q-16 8 -20 28q145 115 316 115t272.5 -84t101.5 -256v-582q-147 -79 -348 -79q-394 1 -394 290q0 121 87 189.5t241 68.5h373v99z" />
    <glyph glyph-name="aacute.ss03" horiz-adv-x="1003" 
d="M143 285q0 -264 330 -265q199 0 326 66v403h-373q-137 0 -210 -57t-73 -147zM799 629q0 313 -333 313q-157 0 -296 -102q-16 8 -20 28q145 115 316 115t272.5 -84t101.5 -256v-582q-147 -79 -348 -79q-394 1 -394 290q0 121 87 189.5t241 68.5h373v99zM338 1096
q-16 10 -19 24l302 260q18 -10 28 -34z" />
    <glyph glyph-name="abreve.ss03" horiz-adv-x="1003" 
d="M143 285q0 -264 330 -265q199 0 326 66v403h-373q-137 0 -210 -57t-73 -147zM799 629q0 313 -333 313q-157 0 -296 -102q-16 8 -20 28q145 115 316 115t272.5 -84t101.5 -256v-582q-147 -79 -348 -79q-394 1 -394 290q0 121 87 189.5t241 68.5h373v99zM473 1112
q-92 0 -164.5 58.5t-89.5 170.5q14 8 33 9q16 -98 79.5 -148.5t140.5 -50.5t146.5 51t77.5 148q18 0 31 -7q-8 -111 -85 -171t-169 -60z" />
    <glyph glyph-name="acircumflex.ss03" horiz-adv-x="1003" 
d="M143 285q0 -264 330 -265q199 0 326 66v403h-373q-137 0 -210 -57t-73 -147zM799 629q0 313 -333 313q-157 0 -296 -102q-16 8 -20 28q145 115 316 115t272.5 -84t101.5 -256v-582q-147 -79 -348 -79q-394 1 -394 290q0 121 87 189.5t241 68.5h373v99zM238 1098
q-16 6 -25 24l242 260q18 6 37 0l239 -268q-6 -14 -26 -22l-234 251z" />
    <glyph glyph-name="adieresis.ss03" horiz-adv-x="1003" 
d="M143 285q0 -264 330 -265q199 0 326 66v403h-373q-137 0 -210 -57t-73 -147zM799 629q0 313 -333 313q-157 0 -296 -102q-16 8 -20 28q145 115 316 115t272.5 -84t101.5 -256v-582q-147 -79 -348 -79q-394 1 -394 290q0 121 87 189.5t241 68.5h373v99zM684.5 1184
q-20.5 0 -36 15t-15.5 35.5t15.5 36t36 15.5t35.5 -15.5t15 -37t-15 -35.5t-35.5 -14zM261.5 1184q-21.5 0 -37 15t-15.5 35.5t15.5 36t36 15.5t35.5 -15.5t15 -37t-14 -35.5t-35.5 -14z" />
    <glyph glyph-name="agrave.ss03" horiz-adv-x="1003" 
d="M143 285q0 -264 330 -265q199 0 326 66v403h-373q-137 0 -210 -57t-73 -147zM799 629q0 313 -333 313q-157 0 -296 -102q-16 8 -20 28q145 115 316 115t272.5 -84t101.5 -256v-582q-147 -79 -348 -79q-394 1 -394 290q0 121 87 189.5t241 68.5h373v99zM608 1120
q-2 -14 -18 -24l-311 250q10 25 28 34z" />
    <glyph glyph-name="amacron.ss03" horiz-adv-x="1003" 
d="M143 285q0 -264 330 -265q199 0 326 66v403h-373q-137 0 -210 -57t-73 -147zM799 629q0 313 -333 313q-157 0 -296 -102q-16 8 -20 28q145 115 316 115t272.5 -84t101.5 -256v-582q-147 -79 -348 -79q-394 1 -394 290q0 121 87 189.5t241 68.5h373v99zM217 1184
q-4 0 -4 13t4 22h510q4 -6 4 -17.5t-4 -17.5h-510z" />
    <glyph glyph-name="aogonek.ss03" horiz-adv-x="1003" 
d="M143 285q0 -264 330 -265q199 0 326 66v403h-373q-137 0 -210 -57t-73 -147zM799 629q0 313 -333 313q-157 0 -296 -102q-16 8 -20 28q145 115 316 115t272.5 -84t101.5 -256v-582q-92 -59 -148.5 -133.5t-56.5 -135t31.5 -86t86 -26t101.5 38.5q16 -8 16 -28
q-66 -47 -131.5 -47t-105 34.5t-39.5 102.5q0 117 145 239q-117 -39 -282.5 -38.5t-262 74t-96.5 205.5t87 200.5t241 68.5h373v99z" />
    <glyph glyph-name="aring.ss03" horiz-adv-x="1003" 
d="M143 285q0 -264 330 -265q199 0 326 66v403h-373q-137 0 -210 -57t-73 -147zM799 629q0 313 -333 313q-157 0 -296 -102q-16 8 -20 28q145 115 316 115t272.5 -84t101.5 -256v-582q-147 -79 -348 -79q-394 1 -394 290q0 121 87 189.5t241 68.5h373v99zM476 1374
q-58 0 -97 -40t-39 -96t39 -97t97 -41t95 40t37 97t-37 97t-95 40zM475 1061q-72 0 -124 52t-52 125t52 124t124 51t123 -51t51 -124t-51 -125t-123 -52z" />
    <glyph glyph-name="atilde.ss03" horiz-adv-x="1003" 
d="M143 285q0 -264 330 -265q199 0 326 66v403h-373q-137 0 -210 -57t-73 -147zM799 629q0 313 -333 313q-157 0 -296 -102q-16 8 -20 28q145 115 316 115t272.5 -84t101.5 -256v-582q-147 -79 -348 -79q-394 1 -394 290q0 121 87 189.5t241 68.5h373v99zM336 1266
q-96 0 -131 -92q-23 0 -35 12q45 119 166 119q55 0 145 -46.5t135 -46.5q96 0 127 93q27 0 35 -13q-41 -119 -162 -118q-57 0 -146 46t-134 46z" />
    <glyph glyph-name="e.ss03" horiz-adv-x="1030" 
d="M590 944q-172 0 -294 -118.5t-136 -311.5h461q113 0 181 49t68 147.5t-77.5 166t-202.5 67.5zM115 467.5q0 234.5 138 375t337 140.5q141 0 234.5 -74.5t93.5 -195.5t-84 -179.5t-213 -58.5h-463v-6q0 -209 111.5 -329t297 -120t318.5 115q16 -8 22 -31
q-152 -123 -345.5 -122.5t-320 126t-126.5 360z" />
    <glyph glyph-name="eacute.ss03" horiz-adv-x="1030" 
d="M590 944q-172 0 -294 -118.5t-136 -311.5h461q113 0 181 49t68 147.5t-77.5 166t-202.5 67.5zM115 467.5q0 234.5 138 375t337 140.5q141 0 234.5 -74.5t93.5 -195.5t-84 -179.5t-213 -58.5h-463v-6q0 -209 111.5 -329t297 -120t318.5 115q16 -8 22 -31
q-152 -123 -345.5 -122.5t-320 126t-126.5 360zM416 1096q-16 10 -19 24l301 260q18 -10 29 -34z" />
    <glyph glyph-name="ecaron.ss03" horiz-adv-x="1030" 
d="M590 944q-172 0 -294 -118.5t-136 -311.5h461q113 0 181 49t68 147.5t-77.5 166t-202.5 67.5zM115 467.5q0 234.5 138 375t337 140.5q141 0 234.5 -74.5t93.5 -195.5t-84 -179.5t-213 -58.5h-463v-6q0 -209 111.5 -329t297 -120t318.5 115q16 -8 22 -31
q-152 -123 -345.5 -122.5t-320 126t-126.5 360zM567 1100q-18 -6 -37 0l-239 266q8 16 26 23l234 -250l233 243q18 -6 25 -24z" />
    <glyph glyph-name="ecircumflex.ss03" horiz-adv-x="1030" 
d="M590 944q-172 0 -294 -118.5t-136 -311.5h461q113 0 181 49t68 147.5t-77.5 166t-202.5 67.5zM115 467.5q0 234.5 138 375t337 140.5q141 0 234.5 -74.5t93.5 -195.5t-84 -179.5t-213 -58.5h-463v-6q0 -209 111.5 -329t297 -120t318.5 115q16 -8 22 -31
q-152 -123 -345.5 -122.5t-320 126t-126.5 360zM315 1098q-16 6 -24 24l241 260q18 6 37 0l240 -268q-6 -14 -27 -22l-233 251z" />
    <glyph glyph-name="edieresis.ss03" horiz-adv-x="1030" 
d="M590 944q-172 0 -294 -118.5t-136 -311.5h461q113 0 181 49t68 147.5t-77.5 166t-202.5 67.5zM115 467.5q0 234.5 138 375t337 140.5q141 0 234.5 -74.5t93.5 -195.5t-84 -179.5t-213 -58.5h-463v-6q0 -209 111.5 -329t297 -120t318.5 115q16 -8 22 -31
q-152 -123 -345.5 -122.5t-320 126t-126.5 360zM761.5 1184q-20.5 0 -35.5 15t-15 35.5t15 36t35.5 15.5t36 -15.5t15.5 -37t-15.5 -35.5t-36 -14zM339.5 1184q-21.5 0 -37 15t-15.5 35.5t15 36t35.5 15.5t36 -15.5t15.5 -37t-14 -35.5t-35.5 -14z" />
    <glyph glyph-name="edotaccent.ss03" horiz-adv-x="1030" 
d="M590 944q-172 0 -294 -118.5t-136 -311.5h461q113 0 181 49t68 147.5t-77.5 166t-202.5 67.5zM115 467.5q0 234.5 138 375t337 140.5q141 0 234.5 -74.5t93.5 -195.5t-84 -179.5t-213 -58.5h-463v-6q0 -209 111.5 -329t297 -120t318.5 115q16 -8 22 -31
q-152 -123 -345.5 -122.5t-320 126t-126.5 360zM552.5 1198q-21.5 0 -37 15.5t-15.5 36t15 35.5t35.5 15t36 -15t15.5 -35.5t-14 -36t-35.5 -15.5z" />
    <glyph glyph-name="egrave.ss03" horiz-adv-x="1030" 
d="M590 944q-172 0 -294 -118.5t-136 -311.5h461q113 0 181 49t68 147.5t-77.5 166t-202.5 67.5zM115 467.5q0 234.5 138 375t337 140.5q141 0 234.5 -74.5t93.5 -195.5t-84 -179.5t-213 -58.5h-463v-6q0 -209 111.5 -329t297 -120t318.5 115q16 -8 22 -31
q-152 -123 -345.5 -122.5t-320 126t-126.5 360zM686 1120q-2 -14 -18 -24l-312 250q10 25 29 34z" />
    <glyph glyph-name="emacron.ss03" horiz-adv-x="1030" 
d="M590 944q-172 0 -294 -118.5t-136 -311.5h461q113 0 181 49t68 147.5t-77.5 166t-202.5 67.5zM115 467.5q0 234.5 138 375t337 140.5q141 0 234.5 -74.5t93.5 -195.5t-84 -179.5t-213 -58.5h-463v-6q0 -209 111.5 -329t297 -120t318.5 115q16 -8 22 -31
q-152 -123 -345.5 -122.5t-320 126t-126.5 360zM295 1184q-4 0 -4 13t4 22h510q4 -6 4 -17.5t-4 -17.5h-510z" />
    <glyph glyph-name="eogonek.ss03" horiz-adv-x="1030" 
d="M590 944q-172 0 -294 -118.5t-136 -311.5h461q113 0 181 49t68 147.5t-77.5 166t-202.5 67.5zM643 -217q0 -49 32 -74.5t86.5 -25.5t100.5 38q16 -8 17 -28q-66 -47 -131.5 -47t-105.5 34.5t-40 102.5q0 106 127 223q-80 -25 -166 -24q-195 0 -321.5 125.5t-126.5 360
t138 375t337 140.5q141 0 234.5 -74.5t93.5 -195.5t-84 -179.5t-213 -58.5h-463v-6q0 -209 111.5 -329t296.5 -120t319 115q16 -8 22 -31q-41 -34 -84 -57q-180 -127 -180 -264z" />
    <glyph glyph-name="g.ss03" horiz-adv-x="1032" 
d="M502 930q-162 0 -260.5 -94.5t-98.5 -241t89.5 -236.5t239.5 -90t241.5 85t93.5 247q4 86 -35 176t-123 154h-147zM850 600q0 -170 -109 -272q166 -123 166 -311.5t-129 -297t-305 -108.5q-221 0 -358 147q10 25 28 31q115 -139 330 -139q166 0 277.5 101.5t113.5 268
t-157 279.5q-98 -70 -230 -70q-178 0 -276.5 104.5t-98.5 264.5t113 265.5t287 105.5h168q100 0 154.5 22.5t88.5 81.5q23 -6 35 -24q-49 -68 -101 -92.5t-142 -26.5q145 -125 145 -330z" />
    <glyph glyph-name="gbreve.ss03" horiz-adv-x="1032" 
d="M502 930q-162 0 -260.5 -94.5t-98.5 -241t89.5 -236.5t239.5 -90t241.5 85t93.5 247q4 86 -35 176t-123 154h-147zM850 600q0 -170 -109 -272q166 -123 166 -311.5t-129 -297t-305 -108.5q-221 0 -358 147q10 25 28 31q115 -139 330 -139q166 0 277.5 101.5t113.5 268
t-157 279.5q-98 -70 -230 -70q-178 0 -276.5 104.5t-98.5 264.5t113 265.5t287 105.5h168q100 0 154.5 22.5t88.5 81.5q23 -6 35 -24q-49 -68 -101 -92.5t-142 -26.5q145 -125 145 -330zM473 1112q-92 0 -164.5 58.5t-89.5 170.5q14 8 33 9q16 -98 79.5 -148.5t140.5 -50.5
t146.5 51t77.5 148q18 0 31 -7q-8 -111 -85 -171t-169 -60z" />
    <glyph glyph-name="gcommaaccent.ss03" horiz-adv-x="1032" 
d="M502 930q-162 0 -260.5 -94.5t-98.5 -241t89.5 -236.5t239.5 -90t241.5 85t93.5 247q4 86 -35 176t-123 154h-147zM850 600q0 -170 -109 -272q166 -123 166 -311.5t-129 -297t-305 -108.5q-221 0 -358 147q10 25 28 31q115 -139 330 -139q166 0 277.5 101.5t113.5 268
t-157 279.5q-98 -70 -230 -70q-178 0 -276.5 104.5t-98.5 264.5t113 265.5t287 105.5h168q100 0 154.5 22.5t88.5 81.5q23 -6 35 -24q-49 -68 -101 -92.5t-142 -26.5q145 -125 145 -330zM473 1044q-12 0 -24 5q-16 33 -17 100q0 145 92 237q10 -4 15 -16q-63 -70 -64 -194
q0 -63 21 -125q-11 -7 -23 -7z" />
    <glyph glyph-name="gdotaccent.ss03" horiz-adv-x="1032" 
d="M502 930q-162 0 -260.5 -94.5t-98.5 -241t89.5 -236.5t239.5 -90t241.5 85t93.5 247q4 86 -35 176t-123 154h-147zM850 600q0 -170 -109 -272q166 -123 166 -311.5t-129 -297t-305 -108.5q-221 0 -358 147q10 25 28 31q115 -139 330 -139q166 0 277.5 101.5t113.5 268
t-157 279.5q-98 -70 -230 -70q-178 0 -276.5 104.5t-98.5 264.5t113 265.5t287 105.5h168q100 0 154.5 22.5t88.5 81.5q23 -6 35 -24q-49 -68 -101 -92.5t-142 -26.5q145 -125 145 -330zM474.5 1198q-21.5 0 -37 15.5t-15.5 36t15.5 35.5t36 15t35.5 -15t15 -35.5t-14 -36
t-35.5 -15.5z" />
    <glyph glyph-name="g.ss04" horiz-adv-x="995" 
d="M795 635q0 178 -146 295h-147q-150 0 -239 -83t-89 -216t85 -212t225 -79t225.5 80t85.5 215zM838 627q0 -147 -98.5 -236.5t-252.5 -89.5h-118q-82 0 -125 -47t-43 -102q0 -152 174 -152h475q4 -8 4 -19t-4 -20h-481q-101 0 -155 51q-54 50 -54 128q0 163 184 192
q-102 33 -156.5 108.5t-54.5 186.5q0 156 102.5 249t266.5 93h168q100 0 154.5 22.5t88.5 81.5q23 -6 35 -24q-74 -113 -243 -119q133 -119 133 -303z" />
    <glyph glyph-name="gbreve.ss04" horiz-adv-x="995" 
d="M795 635q0 178 -146 295h-147q-150 0 -239 -83t-89 -216t85 -212t225 -79t225.5 80t85.5 215zM838 627q0 -147 -98.5 -236.5t-252.5 -89.5h-118q-82 0 -125 -47t-43 -102q0 -152 174 -152h475q4 -8 4 -19t-4 -20h-481q-101 0 -155 51q-54 50 -54 128q0 163 184 192
q-102 33 -156.5 108.5t-54.5 186.5q0 156 102.5 249t266.5 93h168q100 0 154.5 22.5t88.5 81.5q23 -6 35 -24q-74 -113 -243 -119q133 -119 133 -303zM493.5 1112q-92.5 0 -165 58.5t-88.5 170.5q14 8 32 9q16 -98 80 -148.5t141 -50.5t146.5 51t77.5 148q18 0 31 -7
q-8 -111 -85 -171t-169.5 -60z" />
    <glyph glyph-name="gcommaaccent.ss04" horiz-adv-x="995" 
d="M795 635q0 178 -146 295h-147q-150 0 -239 -83t-89 -216t85 -212t225 -79t225.5 80t85.5 215zM838 627q0 -147 -98.5 -236.5t-252.5 -89.5h-118q-82 0 -125 -47t-43 -102q0 -152 174 -152h475q4 -8 4 -19t-4 -20h-481q-101 0 -155 51q-54 50 -54 128q0 163 184 192
q-102 33 -156.5 108.5t-54.5 186.5q0 156 102.5 249t266.5 93h168q100 0 154.5 22.5t88.5 81.5q23 -6 35 -24q-74 -113 -243 -119q133 -119 133 -303zM494 1044q-13 0 -25 5q-16 33 -16 100q0 145 92 237q10 -4 14 -16q-63 -70 -63 -194q0 -63 20 -125q-9 -7 -22 -7z" />
    <glyph glyph-name="gdotaccent.ss04" horiz-adv-x="995" 
d="M795 635q0 178 -146 295h-147q-150 0 -239 -83t-89 -216t85 -212t225 -79t225.5 80t85.5 215zM838 627q0 -147 -98.5 -236.5t-252.5 -89.5h-118q-82 0 -125 -47t-43 -102q0 -152 174 -152h475q4 -8 4 -19t-4 -20h-481q-101 0 -155 51q-54 50 -54 128q0 163 184 192
q-102 33 -156.5 108.5t-54.5 186.5q0 156 102.5 249t266.5 93h168q100 0 154.5 22.5t88.5 81.5q23 -6 35 -24q-74 -113 -243 -119q133 -119 133 -303zM495.5 1198q-21.5 0 -37.5 15.5t-16 36t15.5 35.5t36 15t36 -15t15.5 -35.5t-14 -36t-35.5 -15.5z" />
    <glyph glyph-name="zero.osf" horiz-adv-x="1220" 
d="M610 23q219 0 329 142t110 385t-110 386t-329 143q-218 0 -328 -143t-110 -386t110 -385t328 -142zM611 -18q-232 0 -356 154t-124 416q0 261 123 415q123 153 356 153t357 -153q123 -154 123 -415t-123 -416q-124 -154 -356 -154z" />
    <glyph glyph-name="one.osf" horiz-adv-x="630" 
d="M401 1106q12 0 21 -4v-1102q-8 -4 -20 -4t-21 4v1059l-303 -162q-16 16 -19 37l322 168q8 4 20 4z" />
    <glyph glyph-name="two.osf" horiz-adv-x="989" 
d="M909 20q0 -8 -4 -20h-786q-8 16 -8 40t30 48q367 272 502 418t135 282q0 134 -83 214t-228 81q-98 0 -187 -45t-143 -108q-18 6 -26 24q55 70 150 119t206 49q160 0 256 -87t96 -249t-181 -341q-146 -143 -303 -263q-156 -120 -165 -127l-18 -14h753q4 -13 4 -21z" />
    <glyph glyph-name="three.osf" horiz-adv-x="989" 
d="M868 198q0 -154 -110 -255q-110 -102 -293 -103q-225 0 -367 127q6 20 25 33q78 -66 155 -92t187 -27q168 0 265 85q97 84 97 228t-106 226t-320 82q-4 8 -4 20t4 21q174 0 266 81q91 82 91 198t-80 187t-205 70q-199 0 -326 -139q-20 6 -26 23q133 158 352 157
q141 0 233 -79t93 -204q0 -125 -74 -209t-201 -104q150 -16 247 -94t97 -232z" />
    <glyph glyph-name="four.osf" horiz-adv-x="1028" 
d="M735 199v825l-618 -825h618zM940 179q0 -7 -4 -19h-160v-322q-12 -4 -20 -4t-21 4v322h-655q-8 26 -8 36t12 29l651 871q13 4 21 4t20 -4v-897h160q4 -13 4 -20z" />
    <glyph glyph-name="five.osf" horiz-adv-x="976" 
d="M436 -162q-110 0 -190 33t-123 74q6 20 27 30q94 -98 277 -98t287 89q103 89 103 259t-117 253t-397 83h-135v526h629q4 -12 4 -20t-4 -20h-588v-445h94q295 0 425 -91t130 -279t-117 -292q-117 -102 -305 -102z" />
    <glyph glyph-name="six.osf" horiz-adv-x="1038" 
d="M162 453q0 -207 104 -326t265 -119q160 0 259 96t99 264t-92 250q-92 80 -224 80q-242 0 -411 -213v-32zM573 737q150 0 253 -90q104 -90 104 -274t-114 -294t-288 -110t-290 131q-117 131 -117 337q0 552 488 805q130 67 270 93q8 -10 8 -41q-226 -33 -444 -205
q-111 -87 -187 -231t-90 -319q167 198 407 198z" />
    <glyph glyph-name="seven.osf" horiz-adv-x="952" 
d="M885 1064q0 -17 -39 -87l-600 -1122q-25 6 -35 20l629 1169h-752q-4 12 -4 20t4 21h793q4 -4 4 -21z" />
    <glyph glyph-name="eight.osf" horiz-adv-x="1019" 
d="M510 20q148 0 246 72t98 204t-86 210t-256 158q-162 -66 -254 -154t-92 -220t98 -201t246 -69zM815 1051q0 113 -85 185t-218 73q-133 0 -222 -79t-89 -200t93 -190q93 -70 218 -131q8 -4 10 -7q152 72 222 154t71 195zM893 299q0 -154 -110 -237q-111 -82 -277 -82
t-274 78t-108 226t93 239q92 91 256 159q-157 78 -235 153t-78 203t99 222q99 92 252 92t249 -85t96 -218q0 -228 -295 -363q78 -38 124 -66q140 -84 182 -183q26 -60 26 -138z" />
    <glyph glyph-name="nine.osf" horiz-adv-x="1021" 
d="M489 385q195 0 363 147v13q0 254 -101 395t-261 141t-254 -96q-96 -96 -96 -262t102 -252t247 -86zM502 346q-176 0 -290 96t-114 278t110 290q110 110 286 110q175 0 287 -154t112 -421q0 -326 -176 -505t-504 -200q-6 18 -6 26t2 11q295 20 461 172t180 436
q-172 -139 -348 -139z" />
    <glyph glyph-name="zero.tf" horiz-adv-x="1085" 
d="M543 23q201 -1 298 167t97 476t-97 478q-97 169 -298 169t-298 -169t-97 -477t96 -476q98 -168 299 -168zM543 -18q-215 0 -326 180t-111 507t111 506t326 179t325 -179t111 -506q-1 -327 -111 -507t-325 -180z" />
    <glyph glyph-name="one.tf" horiz-adv-x="1085" 
d="M946 18q0 -6 -4 -18h-704q-4 12 -5 18q0 6 5 19h356v1233l-371 -195q-16 14 -20 37l391 203q8 4 20 4t21 -4v-1278h307q4 -13 4 -19z" />
    <glyph glyph-name="two.tf" horiz-adv-x="1085" 
d="M977 20q0 -8 -4 -20h-819q-8 16 -8 34t30 54q422 436 541 593t119 307t-90 238t-252 89q-104 0 -196 -43t-151 -109q-18 6 -26 25q145 166 373 166q172 0 277 -96t106 -267q0 -125 -80 -265q-58 -99 -236 -289q-57 -60 -172 -181l-203 -215h787q4 -13 4 -21z" />
    <glyph glyph-name="three.tf" horiz-adv-x="1085" 
d="M506 -18q-231 0 -359 116q6 23 25 35q70 -55 144 -83t190 -27q162 0 276 93t113 275q0 367 -487 373h-31q-2 4 -2 16t16 29l451 465h-701q-4 12 -4 20t4 21h750v-4q0 -43 -29 -74l-428 -436q502 -6 502 -410q0 -199 -128 -304t-302 -105z" />
    <glyph glyph-name="four.tf" horiz-adv-x="1085" 
d="M979 419q0 -7 -4 -20h-180v-399q-13 -4 -21 -4t-20 4v399h-629q-27 47 4 107l446 852q20 0 37 -17l-448 -845q-16 -31 -6 -58h596v326q12 4 20 4t21 -4v-326h180q4 -12 4 -19z" />
    <glyph glyph-name="five.tf" horiz-adv-x="1085" 
d="M936 397q0 -199 -120 -313t-320 -113q-199 0 -332 107q6 23 26 33q110 -101 300 -101t298 100t107 282q0 182 -99 282t-290 100q-88 0 -180 -34t-104 -34t-21 5v604h680q4 -13 4 -21t-4 -20h-639v-526q129 68 278 67q192 1 304 -109t112 -309z" />
    <glyph glyph-name="six.tf" horiz-adv-x="1085" 
d="M180 446q0 -202 106 -320t270 -118q165 0 267 97q103 97 103 273t-104 263q-104 88 -253 88q-219 0 -385 -203q-4 -49 -4 -80zM569 768q166 0 282 -97t116 -287t-117 -303q-117 -112 -296 -112t-297 130q-118 131 -118 331t66 360q115 279 408 440q126 69 261 95
q8 -10 9 -41q-214 -34 -416 -197q-102 -82 -178 -214t-99 -291q166 186 379 186z" />
    <glyph glyph-name="seven.tf" horiz-adv-x="1085" 
d="M985 1292q0 -18 -39 -88l-657 -1229q-27 4 -35 21l684 1276h-823q-4 12 -4 20t4 21h866q4 -3 4 -21z" />
    <glyph glyph-name="eight.tf" horiz-adv-x="1085" 
d="M186 294q0 -134 102 -204t256 -70q155 0 255 74t100 207t-87 214t-251 153l-110 47q-97 -59 -181 -173t-84 -248zM864 1038q0 121 -87 196t-226 75t-231 -80t-93 -213q0 -133 131 -209q61 -36 207 -98l70 -31q229 154 229 360zM938 307q0 -160 -112 -244
q-112 -83 -286 -83t-284 80q-111 80 -111 243q0 131 83 245t186 183q-119 57 -173 123q-55 66 -55 190t102 216t262 92q159 0 257 -87t98 -227q0 -211 -231 -381q124 -63 194 -144t70 -206z" />
    <glyph glyph-name="nine.tf" horiz-adv-x="1085" 
d="M516 586q207 0 381 123v12q0 283 -102 439q-103 156 -269 155q-166 1 -269 -99t-103 -274t105 -265t257 -91zM530 1354q184 0 296 -167t112 -466q0 -383 -187 -566t-507 -184q-4 9 -4 21t4 20q248 0 433 133q95 70 152 202t66 315q-173 -115 -361 -115t-305 100
q-117 99 -117 289t117 304t301 114z" />
    <glyph glyph-name="currency.osf" horiz-adv-x="1206" 
d="M180 520q0 -176 124 -299t299 -123t299 123t124 299t-124 300t-299 124t-299 -124t-124 -300zM1065 521q0 -179 -123 -312l115 -117q-6 -16 -27 -26l-115 114q-133 -123 -312 -123t-310 121l-115 -112q-16 10 -26 26l112 113q-123 135 -123 314t121 315l-119 118
q10 20 27 27l119 -119q135 125 315 125t316 -125l116 117l27 -27l-119 -119q121 -131 121 -310z" />
    <glyph glyph-name="dollar.osf" horiz-adv-x="923" 
d="M498 68q139 12 211 78q71 66 71 170q0 102 -62 158t-220 79v-485zM457 602v451q-133 -3 -212 -63t-79 -168t76 -156t213 -64h2zM823 319q0 -127 -86 -203t-239 -89v-220q-8 -4 -20 -4t-21 4v218h-11q-104 1 -199 35t-157 85q4 27 27 35q133 -115 329 -114h11v493h-2
q-162 17 -247 77t-85 185t94 198t240 77v219q8 4 20 4t21 -4v-219q164 -6 295 -90q-6 -27 -23 -37q-135 80 -272 84v-457q164 -20 244 -85t81 -192z" />
    <glyph glyph-name="sterling.osf" horiz-adv-x="1046" 
d="M944 20q0 -14 -4 -20h-774q0 86 46 204t46 194t-6 114h-150q-2 6 -2 19t2 20h144q-2 12 -16 74t-15 133q0 150 108 250t290 100t307 -111q-2 -20 -27 -30q-119 100 -284 100t-259 -90t-94 -217q0 -64 14 -124q14 -61 19 -85h430q4 -11 4 -19t-4 -20h-424q4 -53 4 -96
q0 -104 -46 -219t-46 -156h733q4 -7 4 -21z" />
    <glyph glyph-name="yen.osf" horiz-adv-x="1077" 
d="M565 430v-176h289q2 -6 2 -19t-2 -20h-289v-215q-8 -4 -20 -4t-21 4v215h-291q-4 11 -4 19t4 20h291v176h-291q-4 12 -4 18t4 21h267l-418 612q20 4 41 4h6l410 -600l8 -14l397 614h14q16 0 33 -4l-399 -612h262q2 -8 2 -20t-2 -19h-289z" />
    <glyph glyph-name="ampersand.ss02" horiz-adv-x="1269" 
d="M516 23q123 0 215 52t139 146l-327 359q-31 36 -117 122q-268 -98 -268 -346q0 -141 97 -237t261 -96zM956 698v-278q0 -102 -38 -193l208 -227q-8 -4 -25 -4t-28 4l-174 190q-57 -98 -159 -153t-224 -55q-176 0 -289 105t-113 255q1 282 281 393q-77 79 -111 141
t-34 142q0 131 87 213t249 82t270 -103q-10 -23 -29 -30q-103 92 -245 92t-216 -69t-75 -176q0 -107 88 -211q29 -34 47 -53t63 -67t70 -75l328 -359q27 68 26 158v317h279q10 -20 0 -39h-236z" />
    <glyph glyph-name="caroncomb.alt" 
d="M-100 1326.5q0 60.5 -21 119.5q8 6 22.5 6t26.5 -4q12 -31 13 -107q0 -165 -68 -251q-18 0 -23 14q23 35 36.5 98.5t13.5 124z" />
    <glyph glyph-name="gravecomb.case" 
d="M-76 1409l-350 193q6 27 23 38l342 -202q-1 -15 -15 -29z" />
    <glyph glyph-name="acutecomb.case" 
d="M-412 1409q-14 14 -14 29l342 202q16 -12 23 -38z" />
    <glyph glyph-name="tildecomb.case" 
d="M-246 1495q115 0 152 96q25 0 35 -12q-47 -121 -187 -121q-55 0 -144 49t-130 49q-113 0 -150 -96q-23 0 -35 13q47 121 187 120q49 0 139 -49t133 -49z" />
    <glyph glyph-name="acute.case" horiz-adv-x="487" 
d="M76 1409q-14 14 -15 29l342 202q16 -12 23 -38z" />
    <glyph glyph-name="breve.case" horiz-adv-x="610" 
d="M306 1430q-89 0 -161.5 54t-93.5 154q16 10 33 11q20 -86 82.5 -133.5t136.5 -47.5t143.5 48.5t81.5 130.5q18 0 31 -7q-12 -98 -88 -154t-165 -56z" />
    <glyph glyph-name="caron.case" horiz-adv-x="608" 
d="M283 1386l-238 230q6 18 23 26l237 -217l236 217q16 -8 22 -26l-239 -230q-21 -6 -41 0z" />
    <glyph glyph-name="circumflex.case" horiz-adv-x="608" 
d="M68 1382q-18 8 -23 27l240 229q20 6 41 0l237 -229q-6 -16 -22 -27l-238 217z" />
    <glyph glyph-name="dieresis.case" horiz-adv-x="669" 
d="M548.5 1489q-21.5 0 -37 15.5t-15.5 36t15 35.5t35.5 15t36 -15t15.5 -35.5t-14 -36t-35.5 -15.5zM122.5 1489q-20.5 0 -35.5 15.5t-15 36t15 35.5t35.5 15t36 -15t15.5 -35.5t-15.5 -36t-36 -15.5z" />
    <glyph glyph-name="dotaccent.case" horiz-adv-x="249" 
d="M126.5 1493q-21.5 0 -37 15.5t-15.5 36t15 35.5t35.5 15t36 -15t15.5 -35.5t-14 -36t-35.5 -15.5z" />
    <glyph glyph-name="grave.case" horiz-adv-x="487" 
d="M412 1409l-351 193q6 27 23 38l342 -202q0 -15 -14 -29z" />
    <glyph glyph-name="hungarumlaut.case" horiz-adv-x="702" 
d="M406 1374q-16 6 -23 23l225 289q20 -8 33 -31zM86 1374q-16 6 -23 23l226 289q20 -8 35 -31z" />
    <glyph glyph-name="macron.case" horiz-adv-x="641" 
d="M66 1495q-4 0 -4.5 13t4.5 22h509q13 -19 0 -35h-509z" />
    <glyph glyph-name="ring.case" horiz-adv-x="473" 
d="M239 1376q58 0 95 40t37 97.5t-37 97.5t-95 40t-97.5 -41t-39.5 -96.5t39.5 -96.5t97.5 -41zM237.5 1337q-71.5 0 -124 51.5t-52.5 124t52.5 125t124 52.5t123 -52.5t51.5 -125.5t-51.5 -124t-123 -51z" />
    <glyph glyph-name="tilde.case" horiz-adv-x="765" 
d="M518 1495q115 0 152 96q27 0 35 -12q-47 -121 -187 -121q-55 0 -144 49t-130 49q-113 0 -150 -96q-23 0 -35 13q47 121 187 120q49 0 139 -49t133 -49z" />
    <glyph glyph-name="IJacute" horiz-adv-x="983" 
d="M780 293q0 -162 -84 -244t-206 -82q-121 0 -207 76q6 23 26 31q87 -66 187 -66t172 67t71 212v1028q9 4 21 4t20 -4v-1022zM219 254q-12 0 -20 4v1061q8 4 20 4t21 -4v-1061q-9 -4 -21 -4zM575 1409q-14 14 -14 29l342 202q16 -12 23 -38zM80 1409q-14 14 -14 29l342 202
q16 -12 22 -38z" />
    <glyph glyph-name="ijacute" horiz-adv-x="907" 
d="M464 -356q84 0 148 68t64 210v1030q8 4 20 4t21 -4v-1024q0 -162 -78 -244t-190 -81q-111 0 -183 68q-12 11 -14 12q4 23 22 34q34 -29 54 -41q52 -32 136 -32zM211 -4q-12 0 -21 4v958q23 11 41 0v-958q-8 -4 -20 -4zM553 1090q-16 10 -18 24l301 260q18 -10 28 -35z
M96 1090q-16 10 -18 24l301 260q18 -10 29 -35z" />
    <glyph glyph-name="slashlong" horiz-adv-x="1167" 
d="M139 -51q-23 8 -24 26l913 1020q23 -4 27 -24z" />
    <glyph glyph-name="slashshort" horiz-adv-x="509" 
d="M90 594q-16 10 -18 29l348 182q18 -8 18 -29z" />
    <glyph glyph-name="stroke" horiz-adv-x="581" 
d="M70 960q0 12 2 17h448q2 -4 2 -16t-2 -19h-448q-2 6 -2 18z" />
    <glyph glyph-name="caronalt" horiz-adv-x="200" 
d="M100 1326q0 61 -20 120q10 6 24 6t25 -4q12 -31 12 -107q1 -165 -67 -251q-18 0 -23 14q49 75 49 222z" />
    <glyph glyph-name="slashlong.case" horiz-adv-x="1257" 
d="M47 -16q-20 6 -27 26l1190 1321q20 -4 27 -24z" />
    <glyph glyph-name="slashshort.case" horiz-adv-x="509" 
d="M90 594q-18 8 -18 29l444 229q18 -8 19 -31z" />
    <glyph glyph-name="i.loclTRK" horiz-adv-x="421" 
d="M211 -4q-12 0 -21 4v958q23 11 41 0v-958q-8 -4 -20 -4zM212.5 1198q-21.5 0 -37 15.5t-15.5 36t15 35.5t35.5 15t36 -15t15.5 -35.5t-14 -36t-35.5 -15.5z" />
    <glyph glyph-name="uni1EF9.ss01" horiz-adv-x="1120" 
d="M893 -16v163q-92 -53 -209 -75q-217 -33 -306 -95.5t-89 -151.5t63.5 -136t177.5 -47q164 0 263.5 91t99.5 251zM913.5 952q12.5 0 20.5 -4v-964q0 -182 -112.5 -281.5t-271.5 -99.5q-160 0 -232 58q-72 59 -72 155t64.5 156.5t219.5 97.5q-184 4 -271 99t-87 263v516
q8 4 20.5 4t20.5 -4v-497q0 -350 346 -351q178 0 334 97v751q8 4 20.5 4zM420 1266q-96 0 -131 -92q-23 0 -35 12q45 119 166 119q55 0 145 -46.5t135 -46.5q96 0 127 93q25 0 35 -13q-41 -119 -162 -118q-57 0 -146 46t-134 46z" />
    <glyph glyph-name="uni1EF9.ss02" horiz-adv-x="1120" 
d="M913.5 952q12.5 0 20.5 -4v-944q0 -184 -105.5 -287.5t-279.5 -103.5q-236 0 -359 139q6 23 29 29q121 -129 330 -129q160 0 252 93t92 259v121q-155 -90 -347 -90t-283 98t-91 275v540q8 4 20.5 4t20.5 -4v-540q0 -332 346 -332q178 0 334 96v776q8 4 20.5 4zM420 1266
q-96 0 -131 -92q-23 0 -35 12q45 119 166 119q55 0 145 -46.5t135 -46.5q96 0 127 93q25 0 35 -13q-41 -119 -162 -118q-57 0 -146 46t-134 46z" />
    <glyph glyph-name="cent.osf" horiz-adv-x="1015" 
d="M162 508q0 -192 100 -304q100 -114 273 -126v872q-169 -14 -271 -132t-102 -310zM535 1214h38v-223h5q182 0 315 -102q-6 -23 -27 -33q-115 96 -288 96h-5v-876h5q180 0 309 102q18 -13 22 -33q-150 -109 -331 -108h-5v-209q-6 -2 -19 -2t-19 2v211q-184 12 -301 133
q-116 121 -116 339t120 341q119 123 297 137v225z" />
    <glyph glyph-name="Euro.osf" horiz-adv-x="1169" 
d="M724 -18q-196 0 -327 120t-164 320h-149q-2 6 -2 19t2 20h143q-4 57 -4 95t6 85h-118q-2 5 -2 19t2 20h122q35 200 169 320t318 120t316 -92q-6 -20 -20 -33q-129 90 -281 86q-184 0 -306 -106t-155 -295h437q4 -12 4 -19t-4 -20h-441q-6 -43 -6 -83t4 -97h416
q4 -11 4 -19t-4 -20h-410q31 -182 150 -291t301 -108q192 -6 311 100q18 -14 19 -35q-135 -106 -331 -106z" />
    <glyph glyph-name="uni0308.case" 
d="M-122.5 1489q-20.5 0 -36 15.5t-15.5 36t15.5 35.5t36 15t35.5 -15t15 -35.5t-15 -36t-35.5 -15.5zM-545.5 1489q-21.5 0 -37 15.5t-15.5 36t15.5 35.5t36 15t35.5 -15t15 -35.5t-14 -36t-35.5 -15.5z" />
    <glyph glyph-name="uni0307.case" 
d="M-122.5 1493q-20.5 0 -36 15.5t-15.5 36t15.5 35.5t36 15t35.5 -15t15 -35.5t-15 -36t-35.5 -15.5z" />
    <glyph glyph-name="uni030B.case" 
d="M-299 1374q-16 6 -23 23l226 289q20 -8 33 -31zM-618 1374q-16 6 -23 23l225 289q20 -8 35 -31z" />
    <glyph glyph-name="uni0302.case" 
d="M-543 1382q-18 8 -22 27l239 229q20 6 41 0l238 -229q-6 -16 -23 -27l-237 217z" />
    <glyph glyph-name="uni030C.case" 
d="M-326 1386l-237 230q6 18 22 26l238 -217l235 217q16 -8 23 -26l-240 -230q-21 -6 -41 0z" />
    <glyph glyph-name="uni0306.case" 
d="M-304 1430q-89 0 -162 54t-93 154q16 10 33 11q20 -86 82.5 -133.5t136.5 -47.5t143.5 48.5t81.5 130.5q18 0 31 -7q-12 -98 -88 -154t-165 -56z" />
    <glyph glyph-name="uni030A.case" 
d="M-235 1376q58 0 95.5 40t37.5 97.5t-37 97.5t-95.5 40t-97.5 -41t-39 -96.5t39 -96.5t97 -41zM-235.5 1337q-71.5 0 -124 51.5t-52.5 124t52.5 125t124 52.5t123 -52.5t51.5 -125.5t-51.5 -124t-123 -51z" />
    <glyph glyph-name="uni0304.case" 
d="M-575 1495q-4 0 -4.5 13t4.5 22h509q13 -19 0 -35h-509z" />
    <glyph glyph-name="uni0337.case" 
d="M-420 594q-18 8 -18 29l444 229q18 -8 19 -31z" />
    <glyph glyph-name="uni0338.case" 
d="M-1210 -16q-20 6 -27 26l1190 1321q20 -4 27 -24z" />
    </font>
</defs>
</svg>
