<?xml version="1.0" standalone="no"?>
<!DOCTYPE svg PUBLIC "-//W3C//DTD SVG 1.1//EN" "http://www.w3.org/Graphics/SVG/1.1/DTD/svg11.dtd" >
<svg xmlns="http://www.w3.org/2000/svg">
<metadata>
Created by FontPrep 20130207 at Tue Aug  2 15:13:11 2016
 By Tina Muller
Copyright (c) 2016 by LatinoType. All rights reserved.
</metadata>
<defs>
<font id="0c6dc3d39c80d5bd5b174b2a22202a89" horiz-adv-x='1024' >
  <font-face 
    font-family="Branding-Black"
    font-weight="900"
    font-stretch="normal"
    units-per-em="2048"
    panose-1="0 0 10 0 0 0 0 0 0 0"
    ascent="1577"
    descent="-471"
    x-height="963"
    cap-height="1325"
    bbox="-1564.51 -526 2767 1890"
    underline-thickness="102"
    underline-position="-102"
    unicode-range="U+0020-FB02"
  />
<missing-glyph horiz-adv-x="782" 
d="M389 184l-344 346l344 344l346 -344z" />
    <glyph glyph-name="fi" unicode="fi" horiz-adv-x="1247" 
d="M1159 926v-926q-80 -14 -178 -14t-190 14v678l-248 2v-680q-81 -14 -179 -14t-190 14v680h-123q-10 62 -10 120t10 126h125q14 218 146 330t344 112q211 0 344 -82q-6 -74 -39 -148t-70 -106q-92 43 -190 43q-168 0 -168 -149h616z" />
    <glyph glyph-name="fl" unicode="fl" horiz-adv-x="1288" 
d="M748 1368q256 0 450 -76v-1292q-80 -14 -180 -14t-193 14v1059q-55 6 -123 6q-140 0 -155 -125h162q16 -70 16 -142t-16 -139h-164v-659q-80 -14 -178 -14t-191 14v659h-119q-14 55 -14 137t14 144h121q33 428 570 428z" />
    <glyph glyph-name=".notdef" horiz-adv-x="782" 
d="M389 184l-344 346l344 344l346 -344z" />
    <glyph glyph-name=".null" 
 />
    <glyph glyph-name="nonmarkingreturn" horiz-adv-x="681" 
 />
    <glyph glyph-name="space" unicode=" " horiz-adv-x="385" 
 />
    <glyph glyph-name="exclam" unicode="!" horiz-adv-x="557" 
d="M477 125q1 -81 -59 -141t-141 -60t-140 60t-59 141q0 82 59 140q59 59 140 59t141 -58t59 -141zM278 436q-57 0 -106 15q-82 543 -82 852q170 81 379 2q0 -311 -82 -850q-52 -19 -109 -19z" />
    <glyph glyph-name="quotedbl" unicode="&#x22;" horiz-adv-x="733" 
d="M545 870q-23 0 -84 7l-64 481q63 20 135 20t144 -20l-64 -479q-44 -9 -67 -9zM208 870q-22 0 -89 7l-62 481q63 20 135 20t142 -20l-64 -479q-40 -9 -62 -9z" />
    <glyph glyph-name="numbersign" unicode="#" horiz-adv-x="1427" 
d="M793 475l69 209h-225l-70 -209h226zM1278 684h-137l-70 -209h176q-6 -145 -98 -278h-170l-96 -293q-158 -25 -279 0l96 293h-225l-96 -293q-156 -25 -279 0l97 293h-148q6 162 98 278h142l69 209h-180q6 162 98 279h175l98 297q139 18 278 0l-98 -297h225l99 297
q137 18 278 0l-98 -297h143q-10 -150 -98 -279z" />
    <glyph glyph-name="dollar" unicode="$" horiz-adv-x="1032" 
d="M981 461q0 -346 -313 -414v-180q-156 -35 -301 0v174q-217 29 -344 131q4 82 47 154t108 106q141 -102 334 -102q152 0 152 84q0 40 -41 62t-194 40t-258 106t-107 239q-2 153 78 251q81 98 225 135v207q75 16 153 16t148 -16v-194q174 -20 280 -93q-14 -174 -108 -268
q-131 72 -322 72q-137 0 -137 -68q0 -37 40 -56q41 -19 209 -43t260 -106t91 -237z" />
    <glyph glyph-name="percent" unicode="%" horiz-adv-x="1589" 
d="M1085 279q0 -136 118 -136t118 136q0 59 -30 97t-88 38t-88 -38t-30 -97zM1538 278q0 -142 -89 -232t-246 -89q-157 0 -246 89q-89 90 -89 232t89 230t246 88t246 -88t89 -230zM266 1008q0 -60 30 -98t88 -38t88 37t30 99t-30 98q-30 37 -88 37t-88 -37t-30 -98z
M719 1008q0 -140 -89 -230t-246 -90t-246 89t-89 231t89 229q89 88 246 88t246 -88t89 -229zM197 -96l927 1431q117 20 234 0l-928 -1431q-116 -14 -233 0z" />
    <glyph glyph-name="ampersand" unicode="&#x26;" horiz-adv-x="1290" 
d="M748 545h-127q-162 -2 -162 -127q0 -55 39 -89t114 -34t136 18v232zM1270 689q0 -83 -27 -144h-168v-436q-160 -139 -473 -140q-198 0 -358 84q-82 43 -131 125t-50 193q0 238 207 327q-152 100 -152 274t123 275q122 102 332 103q268 0 406 -115q-2 -80 -44 -154
t-104 -114q-115 55 -197 55q-154 0 -153 -102q0 -53 35 -77t113 -26h612q29 -45 29 -128z" />
    <glyph glyph-name="quotesingle" unicode="'" horiz-adv-x="389" 
d="M203 870q-23 0 -84 7l-64 481q63 20 135 20t144 -20l-64 -479q-44 -9 -67 -9z" />
    <glyph glyph-name="parenleft" unicode="(" horiz-adv-x="598" 
d="M379 518q0 -455 182 -842q-106 -94 -256 -94q-246 426 -248 936q2 510 248 936q57 6 142 -24t114 -70q-182 -387 -182 -842z" />
    <glyph glyph-name="parenright" unicode=")" horiz-adv-x="600" 
d="M225 516q0 440 -188 838q41 49 118 78t142 24q244 -430 244 -939t-246 -935q-147 0 -254 94q184 400 184 840z" />
    <glyph glyph-name="asterisk" unicode="*" horiz-adv-x="802" 
d="M565 1137v-15l168 -69q-16 -143 -149 -209l-119 139l-14 -6l-17 -180q-137 -31 -244 77l97 160l-8 13l-185 -43q-72 123 0 256l189 -46l6 9l-101 163q96 106 246 80l15 -188q12 -4 14 -4l123 141q131 -55 151 -207z" />
    <glyph glyph-name="plus" unicode="+" horiz-adv-x="1015" 
d="M621 373v-330q-113 -27 -226 0v330h-329q-27 113 0 225h329v330q113 27 226 0v-330h329q27 -113 0 -225h-329z" />
    <glyph glyph-name="comma" unicode="," horiz-adv-x="481" 
d="M234 252q98 0 147 -25q25 -49 25 -174t-69 -251t-161 -195q-39 1 -82 23t-59 53q65 145 65 293t-39 233q75 43 173 43z" />
    <glyph glyph-name="hyphen" unicode="-" horiz-adv-x="759" 
d="M113 389q-21 49 -21 123t21 135h536q35 -135 0 -258h-536z" />
    <glyph glyph-name="period" unicode="." horiz-adv-x="546" 
d="M496 180q0 -90 -66 -156t-157 -67q-91 0 -157 67q-66 66 -65 156q0 90 66 156q67 66 157 66t156 -66t66 -156z" />
    <glyph glyph-name="slash" unicode="/" horiz-adv-x="1218" 
d="M184 -389q-68 0 -143 10l838 1741q75 10 143 10t156 -10l-838 -1741q-88 -10 -156 -10z" />
    <glyph glyph-name="zero" unicode="0" horiz-adv-x="1351" 
d="M676 285q229 0 229 372t-229 371q-229 0 -229 -372t229 -371zM676 1366q294 0 452 -200t158 -504t-160 -500q-160 -195 -453 -195q-294 0 -451 194q-156 194 -156 505q0 312 158 506t452 194z" />
    <glyph glyph-name="one" unicode="1" horiz-adv-x="903" 
d="M608 1356q84 0 160 -15v-1341q-98 -16 -184 -16t-185 16v944l-268 -98q-53 53 -90 136t-37 175l457 184q63 15 147 15z" />
    <glyph glyph-name="two" unicode="2" horiz-adv-x="1171" 
d="M670 907q0 105 -117 105t-258 -127q-176 49 -250 223q168 258 522 258q217 0 353 -119t135 -329q0 -262 -393 -556l-66 -43l80 9l420 2q26 -64 26 -164t-26 -166h-1020q-16 70 -17 125q0 127 103 225q344 316 426 408t82 149z" />
    <glyph glyph-name="three" unicode="3" horiz-adv-x="1169" 
d="M1102 471q0 -260 -161 -386t-406 -126q-172 0 -299 59t-197 138q53 176 227 270q129 -137 269 -137q84 0 134 43t50 127q0 162 -227 162h-191q-6 23 -6 36q0 45 35 84l223 269h-453q-44 172 0 321h965q16 -158 -66 -250l-213 -233q124 -23 220 -114t96 -263z" />
    <glyph glyph-name="four" unicode="4" horiz-adv-x="1220" 
d="M1194 363q0 -83 -16 -170h-172v-193q-88 -16 -168 -16t-179 16v193h-577q-109 152 -10 391l323 796q197 -8 363 -104l-275 -692q-14 -35 -14 -64h190v305q190 31 347 0v-305h174q14 -74 14 -157z" />
    <glyph glyph-name="five" unicode="5" horiz-adv-x="1157" 
d="M594 877q510 -1 510 -443q0 -218 -152 -346t-436 -127q-160 0 -280 43t-177 94q35 193 168 289q129 -100 313 -100t183 149q0 135 -180 135q-78 0 -235 -28t-193 4v784h891q16 -88 16 -168t-14 -151h-566v-150q72 14 152 15z" />
    <glyph glyph-name="six" unicode="6" horiz-adv-x="1198" 
d="M618 268q186 0 187 160q0 160 -184 160q-104 0 -197 -56v-43q0 -105 53 -163t141 -58zM729 868q197 0 311 -110t115 -322q0 -214 -150 -345q-151 -130 -409 -130q-258 1 -396 149t-139 400q0 369 246 603t608 288q92 -86 101 -336q-182 -19 -316 -75t-206 -185
q104 63 235 63z" />
    <glyph glyph-name="seven" unicode="7" horiz-adv-x="1069" 
d="M31 1151q0 90 14 164h985q16 -35 17 -96q0 -129 -50 -222l-540 -1071q-89 8 -181 46t-133 89l494 930h-592q-14 70 -14 160z" />
    <glyph glyph-name="eight" unicode="8" horiz-adv-x="1218" 
d="M618 231q172 0 173 105q-1 53 -45 85t-129 68t-109 50q-76 -86 -76 -181q0 -59 52 -93t134 -34zM610 1098q-70 0 -112 -30t-43 -67q1 -37 27 -65q44 -47 202 -113q88 78 88 160q0 57 -46 86t-116 29zM1151 383q0 -145 -80 -243q-145 -178 -471 -179q-233 0 -384 91
q-150 91 -150 283t190 347q-154 117 -157 289q-3 171 132 283t369 112t376 -100q140 -100 140 -274t-162 -298q197 -129 197 -311z" />
    <glyph glyph-name="nine" unicode="9" horiz-adv-x="1208" 
d="M397 885q0 -70 46 -110q45 -40 141 -40t186 45q-14 119 -65 186q-51 68 -131 68t-128 -40q-49 -40 -49 -109zM571 1366q285 0 427 -181t143 -485q0 -369 -220 -557t-692 -186q-49 82 -49 213q0 41 8 102q253 4 355 35t144 76t65 117q-86 -72 -238 -72q-217 0 -345 117
t-128 334q1 217 153 352t377 135z" />
    <glyph glyph-name="colon" unicode=":" horiz-adv-x="589" 
d="M296 -55q-91 1 -157 67t-65 156q0 90 65 156q66 66 157 66t157 -66q65 -66 65 -156t-65 -157q-66 -66 -157 -66zM296 569q-91 0 -157 67t-65 157q0 89 66 155t156 66q91 0 157 -66q65 -66 65 -156t-66 -156q-66 -67 -156 -67z" />
    <glyph glyph-name="semicolon" unicode=";" horiz-adv-x="573" 
d="M158 -24q0 148 -39 233q76 43 173 43t146 -25q25 -49 25 -174t-69 -251t-161 -195q-39 1 -81 23t-60 53q66 145 66 293zM61 801q0 89 66 155t157 66q90 0 156 -66t66 -156t-66 -156t-156 -66q-91 0 -157 66t-66 157z" />
    <glyph glyph-name="less" unicode="&#x3c;" horiz-adv-x="1167" 
d="M1092 256q4 -170 -95 -285l-923 332q-43 195 -2 375l925 301q92 -129 93 -313l-695 -154l-102 -27z" />
    <glyph glyph-name="equal" unicode="=" horiz-adv-x="1103" 
d="M109 158q-10 61 -11 112q0 51 11 113h882q26 -117 0 -225h-882zM109 565q-19 117 0 226h882q25 -117 0 -226h-882z" />
    <glyph glyph-name="greater" unicode="&#x3e;" horiz-adv-x="1167" 
d="M1114 494q0 -102 -20 -191l-922 -332q-102 119 -96 285l798 229l-102 27l-694 154q0 186 94 313l924 -301q18 -82 18 -184z" />
    <glyph glyph-name="question" unicode="?" horiz-adv-x="888" 
d="M565 125q0 -81 -59 -141t-140 -60q-80 0 -140 60t-60 141q0 82 59 140q59 59 141 59t140 -58q59 -58 59 -141zM368 360q-52 0 -94 9q-63 229 -63 356h6q131 0 196 48t65 117q0 68 -41 106q-39 38 -115 38t-150 -37q-106 94 -123 273q127 78 325 78t330 -109t132 -309
q0 -156 -92 -264t-252 -158q-23 -102 -33 -137q-39 -11 -91 -11z" />
    <glyph glyph-name="at" unicode="@" horiz-adv-x="1869" 
d="M772 550q0 -79 42 -125t102 -46t106 31v303q-47 10 -80 10q-74 0 -122 -47t-48 -126zM948 1362q381 0 619 -212t237 -595q0 -199 -85 -333q-93 -150 -308 -150q-111 0 -169 30t-132 103q-94 -80 -262 -80t-275 111q-106 110 -106 304t133 318t349 123q216 0 376 -80v-475
q0 -100 98 -100q105 0 105 228t-159 389t-420 161t-435 -146t-174 -436q0 -240 165 -387t353 -147q139 0 268 55q29 -20 60 -97t31 -141q-147 -71 -361 -71t-391 87q-178 87 -292 268t-114 405t74 389q135 300 483 424q158 55 332 55z" />
    <glyph glyph-name="A" unicode="A" horiz-adv-x="1310" 
d="M532 516h236l-78 211l-41 131l-39 -131zM159.5 -8q-106.5 0 -179.5 22l493 1301q74 12 184.5 12t184.5 -12l483 -1301q-209 -38 -369 -14l-77 211h-461l-78 -211q-74 -8 -180.5 -8z" />
    <glyph glyph-name="B" unicode="B" horiz-adv-x="1206" 
d="M621 248q164 0 163 137q0 133 -170 133h-133v-266q91 -4 140 -4zM590 1044q-31 0 -109 -4v-241h117q145 0 145 127q1 118 -153 118zM1161 358q0 -401 -590 -401q-248 0 -458 43v1292q211 43 450 43q543 0 543 -389q0 -213 -170 -287q225 -84 225 -301z" />
    <glyph glyph-name="C" unicode="C" horiz-adv-x="1202" 
d="M725 -39q-303 0 -488.5 191.5t-185.5 503.5t193.5 508t509.5 196q248 0 409 -129q-14 -84 -68.5 -165t-129.5 -124q-92 66 -199 66q-150 0 -231.5 -92.5t-81.5 -256.5t82.5 -258t223 -94t232.5 86q166 -100 201 -299q-164 -133 -467 -133z" />
    <glyph glyph-name="D" unicode="D" horiz-adv-x="1378" 
d="M592 319q152 0 240 93.5t88 251.5t-88.5 246.5t-239.5 88.5q-70 0 -109 -2v-675q35 -3 109 -3zM571 1346q358 0 557 -182q199 -180 199 -500t-206 -505.5t-550 -185.5q-258 0 -456 27v1311q182 35 456 35z" />
    <glyph glyph-name="E" unicode="E" horiz-adv-x="1105" 
d="M1044 164q0 -90 -16 -164h-913v1315h895q16 -72 16 -162t-16 -164h-527v-162h467q37 -165 0 -321h-467v-180h545q16 -72 16 -162z" />
    <glyph glyph-name="F" unicode="F" horiz-adv-x="1062" 
d="M483 983v-238h459q16 -72 16 -162.5t-16 -162.5h-459v-420q-98 -16 -184 -16t-184 16v1315h882q16 -72 16 -164t-16 -168h-514z" />
    <glyph glyph-name="G" unicode="G" horiz-adv-x="1314" 
d="M1057 674q86 0 184 -17v-591q-209 -104 -481 -105q-332 0 -520.5 187.5t-188.5 501.5t197.5 512t523.5 198q258 0 436 -113q-14 -92 -68.5 -178t-131.5 -129q-102 68 -247 68t-226.5 -92.5t-81.5 -256.5t82.5 -258t224.5 -94q63 0 112 6v344q99 17 185 17z" />
    <glyph glyph-name="H" unicode="H" horiz-adv-x="1394" 
d="M1090 1325q98 0 190 -14v-1311q-80 -14 -178 -14t-191 14v492h-428v-492q-80 -14 -178 -14t-190 14v1311q80 14 178 14t190 -14v-482h428v482q81 14 179 14z" />
    <glyph glyph-name="I" unicode="I" horiz-adv-x="598" 
d="M305 -14q-98 0 -190 14v1311q80 14 178 14t190 -14v-1311q-80 -14 -178 -14z" />
    <glyph glyph-name="J" unicode="J" horiz-adv-x="884" 
d="M325 -66q-216 0 -325 101q0 96 46 180t118 125q60 -59 126 -59q122 0 122 104v926q80 14 178 14t190 -14v-916q0 -201 -119.5 -331t-335.5 -130z" />
    <glyph glyph-name="K" unicode="K" horiz-adv-x="1339" 
d="M1138.5 -4q-130.5 0 -229.5 4l-360 457q-33 -27 -66 -47v-410q-80 -14 -178 -14t-190 14v1311q80 14 178 14t190 -14v-484q125 106 215 218t185 274q86 6 203.5 6t230.5 -12q-203 -353 -479 -617l546 -684q-115 -16 -245.5 -16z" />
    <glyph glyph-name="L" unicode="L" horiz-adv-x="1038" 
d="M115 0v1315q98 16 184 16t184 -16v-983h514q37 -176 0 -332h-882z" />
    <glyph glyph-name="M" unicode="M" horiz-adv-x="1646" 
d="M1347.5 1325q96.5 0 184.5 -14v-1311q-84 -14 -163 -14t-173 14v561l8 187l-59 -185l-162 -459q-72 -10 -151 -10t-154 10l-176 459l-58 162l9 -164v-561q-84 -14 -165 -14t-173 14v1311q81 14 185 14t206 -14l311 -744l25 -65l20 65l283 744q106 14 202.5 14z" />
    <glyph glyph-name="N" unicode="N" horiz-adv-x="1415" 
d="M1117 1325q91 0 183 -14v-1307q-168 -31 -358 -16l-422 641l-47 84l10 -105v-608q-111 -14 -177 -14t-191 14v1305q145 41 358 18l422 -668l47 -84l-10 105v635q94 14 185 14z" />
    <glyph glyph-name="O" unicode="O" horiz-adv-x="1507" 
d="M753.5 309q139.5 0 221.5 94.5t82 258t-82 257t-221.5 93.5t-221 -93.5t-81.5 -257.5t81.5 -258t221 -94zM753 -39q-310 0 -507 190.5t-197 505.5t197.5 509t508 194t507 -190.5t196.5 -506t-197.5 -509t-507.5 -193.5z" />
    <glyph glyph-name="P" unicode="P" horiz-adv-x="1226" 
d="M592 682q117 0 172 52t55 138q0 174 -229 175q-72 0 -107 -3v-362h109zM571 1354q625 0 625 -477q0 -250 -164 -381t-440 -131h-109v-365q-80 -14 -178 -14t-190 14v1311q214 43 456 43z" />
    <glyph glyph-name="Q" unicode="Q" horiz-adv-x="1507" 
d="M451 661q0 -164 81.5 -258t221 -94t221.5 94.5t82 258t-82 257t-221.5 93.5t-221 -93.5t-81.5 -257.5zM49 659.5q0 313.5 197.5 507t508 193.5t507 -190.5t196.5 -525t-248 -533.5q221 -106 281 -293q-90 -102 -320 -168q-59 135 -169.5 223t-260.5 88
q-307 4 -499.5 194.5t-192.5 504z" />
    <glyph glyph-name="R" unicode="R" horiz-adv-x="1263" 
d="M483 725h133q88 0 132.5 43t44.5 113t-45.5 109.5t-112 39.5t-152.5 -4v-301zM483 426v-426q-80 -14 -178 -14t-190 14v1294q219 43 463 43q592 0 591 -434q0 -268 -215 -393l299 -496q-104 -29 -323 -28q-55 0 -80 2l-250 438h-117z" />
    <glyph glyph-name="S" unicode="S" horiz-adv-x="1169" 
d="M586 -33q-354 0 -547 158q6 96 49 177t111 120q162 -117 395 -117q162 0 162 66q0 41 -43 64.5t-227 69.5t-293 135q-109 88 -111 282t145.5 311t393.5 117q162 0 284.5 -41t190.5 -97q-6 -92 -49 -174t-117 -125q-137 98 -338 99q-154 0 -154 -66q0 -37 42 -57.5
t228 -65.5t293 -137t111 -254q6 -223 -134 -344t-392 -121z" />
    <glyph glyph-name="T" unicode="T" horiz-adv-x="1155" 
d="M1133 1153q0 -90 -17 -164h-354v-989q-98 -16 -184 -16t-185 16v989h-354q-16 72 -16 163t16 163h1077q17 -72 17 -162z" />
    <glyph glyph-name="U" unicode="U" horiz-adv-x="1370" 
d="M681 -39q-267 0 -424 146.5t-157 422.5v781q80 14 178.5 14t190.5 -14v-772q0 -115 59.5 -175.5t162.5 -60.5t161.5 60.5t58.5 175.5v772q78 14 173 14t188 -14v-766q0 -272 -162 -428t-429 -156z" />
    <glyph glyph-name="V" unicode="V" horiz-adv-x="1294" 
d="M997 1327q219 0 293 -24q-129 -655 -448 -1299q-74 -14 -189 -14t-202 14q-307 629 -451 1299q183 33 406 20q82 -442 260 -969q154 477 241 969q45 4 90 4z" />
    <glyph glyph-name="W" unicode="W" horiz-adv-x="2013" 
d="M1708 1327q221 0 295 -24q-178 -815 -377 -1299q-76 -14 -192.5 -14t-204.5 14l-195 649l-24 117l-21 -117l-186 -649q-72 -14 -194 -14t-216 14q-258 604 -381 1299q192 34 408 20q51 -449 192 -924l31 154l184 688q102 16 189.5 16t189.5 -16l193 -688l37 -164
q135 489 188 934q37 4 84 4z" />
    <glyph glyph-name="X" unicode="X" horiz-adv-x="1306" 
d="M1084.5 -14q-101.5 0 -191.5 12l-250 408l-235 -408q-86 -12 -203 -12t-221 20l426 660l-414 641q219 39 446 14l230 -406l209 406q61 10 156 10t261 -22l-395 -660l426 -643q-143 -20 -244.5 -20z" />
    <glyph glyph-name="Y" unicode="Y" horiz-adv-x="1300" 
d="M653 -14q-98 0 -190 14v492l-486 815q213 39 437 14l198 -365l52 -114l51 114l200 365q155 25 400 -12l-484 -836v-473q-80 -14 -178 -14z" />
    <glyph glyph-name="Z" unicode="Z" horiz-adv-x="1202" 
d="M1161 165q0 -77 -16 -165h-1082q-14 29 -14 84q0 94 72 195l493 708l-548 -2q-32 171 0 330h1062q14 -37 15 -84q0 -94 -72 -195l-436 -626l-66 -80h576q16 -88 16 -165z" />
    <glyph glyph-name="bracketleft" unicode="[" horiz-adv-x="663" 
d="M414 -164h200q27 -125 0 -250h-489v1864h489q14 -37 14 -125t-14 -125h-200v-1364z" />
    <glyph glyph-name="backslash" unicode="\" horiz-adv-x="1224" 
d="M1040 -389q-68 0 -155 10l-844 1741q88 10 156 10t143 -10l844 -1741q-76 -10 -144 -10z" />
    <glyph glyph-name="bracketright" unicode="]" horiz-adv-x="663" 
d="M537 1450v-1864h-490q-14 37 -14 125t14 125h201v1364h-201q-27 125 0 250h490z" />
    <glyph glyph-name="asciicircum" unicode="^" horiz-adv-x="1263" 
d="M344 561q-174 41 -283 164l406 702q166 31 332 0l403 -702q-96 -123 -280 -164l-289 496z" />
    <glyph glyph-name="underscore" unicode="_" horiz-adv-x="909" 
d="M0 -169q0 67 20 120h873q16 -55 16 -115t-16 -115h-873q-20 43 -20 110z" />
    <glyph glyph-name="grave" unicode="`" horiz-adv-x="679" 
d="M530 1051l-479 223q33 197 189 278l395 -352q-25 -96 -105 -149z" />
    <glyph glyph-name="a" unicode="a" horiz-adv-x="1083" 
d="M406 301q0 -94 143 -94q41 0 104 14v152q-55 12 -123 12q-124 0 -124 -84zM522 -35q-482 0 -483 316q0 158 118.5 237.5t317.5 75.5q102 -4 178 -21v27q0 106 -163 106.5t-271 -81.5q-127 74 -149 231q57 51 173.5 99.5t270.5 48.5q504 0 504 -449v-492
q-254 -98 -496 -98z" />
    <glyph glyph-name="b" unicode="b" horiz-adv-x="1179" 
d="M580 270q78 0 132 58t54 153t-54 153t-151 58q-53 0 -106 -12v-395q47 -15 125 -15zM582 1004q248 0 400 -132t153 -380q0 -248 -160 -388q-159 -140 -431 -141q-272 0 -458 96v1287q86 14 184 14t185 -14v-357q51 15 127 15z" />
    <glyph glyph-name="c" unicode="c" horiz-adv-x="962" 
d="M594 -37q-260 0 -404.5 136.5t-144.5 380.5t150.5 387t388.5 143q106 0 201.5 -32t142.5 -73q-14 -74 -65.5 -145.5t-119.5 -112.5q-61 61 -147 61t-134 -59t-48 -159.5t47 -163t141 -62.5t162 66q137 -68 182 -242q-145 -125 -352 -125z" />
    <glyph glyph-name="d" unicode="d" horiz-adv-x="1179" 
d="M623 270q49 0 102 13v395q-39 16 -115 16t-136 -57t-60 -151.5t58.5 -155t150.5 -60.5zM909.5 1360q98.5 0 184.5 -14v-1287q-200 -96 -472 -96t-424.5 134t-152.5 377t158.5 386.5t396.5 143.5q63 0 125 -11v353q86 14 184.5 14z" />
    <glyph glyph-name="e" unicode="e" horiz-adv-x="1097" 
d="M705 588q0 135 -132 145q-132 0 -155 -145h287zM564 1004q222 0 352.5 -123t127.5 -332q0 -92 -10 -152h-614q12 -82 59 -114.5t161 -32.5t273 98q109 -92 119 -250q-182 -135 -437 -135t-402.5 135t-147.5 372.5t148.5 385.5t370.5 148z" />
    <glyph glyph-name="f" unicode="f" horiz-adv-x="778" 
d="M612 1368q180 0 289 -59q-2 -72 -42 -148t-89 -112q-43 25 -106 24q-115 0 -115 -117v-6h196q34 -155 0 -301h-196v-649q-80 -14 -178 -14t-191 14v649h-123q-14 57 -14 145t14 156h125q14 202 132 310t298 108z" />
    <glyph glyph-name="g" unicode="g" horiz-adv-x="1163" 
d="M593.5 305q69.5 0 117.5 12v373q-151 50 -242 -36q-57 -54 -57 -146t56 -147.5t125.5 -55.5zM600 1010q287 0 479 -148v-788q0 -254 -146.5 -374t-387.5 -120q-328 0 -504 189q8 76 59.5 139t132.5 90q117 -133 297 -133t181 131v31q-59 -12 -138 -13q-229 0 -379.5 124
t-150.5 361.5t160.5 374t396.5 136.5z" />
    <glyph glyph-name="h" unicode="h" horiz-adv-x="1163" 
d="M633 1010q213 0 332.5 -104.5t119.5 -276.5v-629q-86 -14 -184 -14t-184 14v541q0 139 -133 139q-70 0 -127 -31v-649q-80 -14 -178.5 -14t-190.5 14v1339q177 31 369 0v-358q82 29 176 29z" />
    <glyph glyph-name="i" unicode="i" horiz-adv-x="544" 
d="M274 -14q-98 0 -186 14v975q84 14 182 14t187 -14v-975q-85 -14 -183 -14zM273 1081q-89 0 -151.5 63.5t-62.5 150.5t62.5 149.5t150.5 62.5t152.5 -62.5t64.5 -149.5t-63.5 -150.5t-152.5 -63.5z" />
    <glyph glyph-name="j" unicode="j" horiz-adv-x="561" 
d="M67.5 -410q-178.5 0 -272.5 74q0 68 40 143.5t102 114.5q39 -28 81 -28q86 1 86 114v967q80 14 178.5 14t190.5 -14v-948q0 -207 -113.5 -322t-292 -115zM286 1081q-89 0 -151.5 63.5t-62.5 150.5t62.5 149.5t150.5 62.5t152.5 -62.5t64.5 -149.5t-63.5 -150.5
t-152.5 -63.5z" />
    <glyph glyph-name="k" unicode="k" horiz-adv-x="1181" 
d="M278.5 -14q-98.5 0 -190.5 14v1339q177 31 369 0v-757q201 154 303 383q66 6 189.5 6t207.5 -15q-86 -272 -328 -491l388 -457q-117 -25 -266 -24.5t-206 8.5l-288 346v-338q-80 -14 -178.5 -14z" />
    <glyph glyph-name="l" unicode="l" horiz-adv-x="550" 
d="M281 -14q-100 0 -193 14v1339q179 31 373 0v-1339q-80 -14 -180 -14z" />
    <glyph glyph-name="m" unicode="m" horiz-adv-x="1787" 
d="M1237 1010q237 0 355 -106t118 -296v-608q-86 -14 -184 -14t-185 14v541q0 139 -135 139q-66 0 -123 -31l-6 4q2 -14 2 -45v-608q-86 -14 -184 -14t-184 14v541q0 139 -136 139q-66 0 -122 -31v-649q-87 -14 -185 -14t-184 14v844q70 57 207 111q137 55 327 55t306 -78
q147 78 313 78z" />
    <glyph glyph-name="n" unicode="n" horiz-adv-x="1161" 
d="M598 1010q244 0 364.5 -113t120.5 -311v-586q-86 -14 -184 -14t-184 14v539q0 141 -142 141q-72 0 -120 -29v-651q-86 -14 -184.5 -14t-184.5 14v844q70 61 203 113.5t311 52.5z" />
    <glyph glyph-name="o" unicode="o" horiz-adv-x="1185" 
d="M594 264q86 0 132 59.5t46 162.5t-46 163t-132 60t-133 -59.5t-47 -163t47 -163t133 -59.5zM593 -37q-245 0 -396.5 138.5t-151.5 381t153.5 385t396.5 142.5t394.5 -140.5t151.5 -381.5t-151.5 -383t-396.5 -142z" />
    <glyph glyph-name="p" unicode="p" horiz-adv-x="1175" 
d="M762 480q0 98 -58 150t-157 52q-51 0 -94 -14v-377q34 -12 114 -13t138 52q57 53 57 150zM560 1004q268 0 420 -130t150 -377q0 -246 -158 -391t-390 -145q-68 0 -129 10v-346q-87 -14 -185 -14t-184 14v1227q208 152 476 152z" />
    <glyph glyph-name="q" unicode="q" horiz-adv-x="1175" 
d="M621 279q51 0 102 10v383q-47 16 -121 16t-132 -54t-58 -152t60 -150q60 -53 149 -53zM614 1004q291 0 478 -142v-1237q-86 -14 -184 -14t-185 14v346q-47 -8 -123 -8q-242 0 -400 130t-157 379q1 248 165 390t406 142z" />
    <glyph glyph-name="r" unicode="r" horiz-adv-x="770" 
d="M538 1008q159 0 232 -27q-10 -201 -106 -317q-43 12 -105 12t-106 -21v-655q-86 -14 -184.5 -14t-184.5 14v850q63 59 179 108.5t275 49.5z" />
    <glyph glyph-name="s" unicode="s" horiz-adv-x="1001" 
d="M494 -39q-152 0 -272 38t-183 87q20 172 131 244q168 -100 340 -101q74 0 74 47q0 27 -37 42.5t-131.5 37.5t-140.5 40t-99 52q-106 67 -106 225.5t127 244.5t317 86q268 0 422 -91q-23 -180 -121 -249q-131 70 -264.5 69.5t-132.5 -45.5q0 -27 33.5 -38t132 -30.5
t151.5 -37.5q53 -20 107 -54q110 -69 110 -228t-118.5 -249t-339.5 -90z" />
    <glyph glyph-name="t" unicode="t" horiz-adv-x="954" 
d="M613.5 -33q-189.5 0 -303 82t-113.5 254v350h-164q-26 157 0 303h164v254q203 31 368 0v-254h320q16 -76 16 -148.5t-16 -154.5h-320v-256q0 -119 119 -118q58 0 115 51q51 -31 96 -104.5t53 -147.5q-145 -111 -334.5 -111z" />
    <glyph glyph-name="u" unicode="u" horiz-adv-x="1157" 
d="M886.5 977q98.5 0 184.5 -14v-879q-59 -41 -196.5 -81t-303.5 -40q-494 0 -493 402v598q86 14 184 14t184 -14v-531q0 -82 32 -117.5t109 -35.5t115 24v660q86 14 184.5 14z" />
    <glyph glyph-name="v" unicode="v" horiz-adv-x="1097" 
d="M884 981q95 0 210 -29q-78 -332 -150 -536t-207 -416q-82 -16 -183 -16t-185 16q-147 215 -225 429q-77 214 -136 523q104 29 214 29t190 -8q51 -369 131 -621q6 -23 14 -71q4 41 12 71q76 221 133 621q87 8 182 8z" />
    <glyph glyph-name="w" unicode="w" horiz-adv-x="1613" 
d="M1402.5 981q96.5 0 205.5 -29q-70 -324 -139.5 -530.5t-194.5 -421.5q-80 -16 -179 -16t-180 16q-59 96 -116 225q-35 -129 -80 -225q-80 -16 -180 -16t-181 16q-145 213 -216.5 423t-131.5 529q104 29 217 29t191 -8q53 -442 129 -666q8 -25 12 -57q4 33 34.5 130
t59.5 277q-37 135 -63 295q100 29 203.5 29t177.5 -8q45 -397 110 -666q8 -33 13 -71q10 59 14 71q51 184 113 666q85 8 181.5 8z" />
    <glyph glyph-name="x" unicode="x" horiz-adv-x="1134" 
d="M954 -12q-158 0 -225 8l-172 254l-154 -254q-82 -8 -203 -8t-202 16l342 479l-338 467q74 33 289 33q70 0 117 -6l163 -262l160 262q61 6 125 6q197 0 272 -33l-342 -471l359 -475q-33 -16 -191 -16z" />
    <glyph glyph-name="y" unicode="y" horiz-adv-x="1114" 
d="M892 981q89 0 204 -29q-37 -473 -237 -832.5t-550 -565.5q-78 29 -133 101.5t-78 158.5q188 127 269 223q-145 219 -221 422t-134 493q111 29 222.5 29t189.5 -8q39 -344 139 -608q16 -39 23 -74q6 49 16 74q88 236 111 608q90 8 179 8z" />
    <glyph glyph-name="z" unicode="z" horiz-adv-x="995" 
d="M45 70q0 96 55 161l381 439h-405q-23 63 -23 144t23 149h839q12 -27 13 -70q0 -111 -51 -182l-277 -353l-61 -65h395q49 -135 0 -293h-877q-12 31 -12 70z" />
    <glyph glyph-name="braceleft" unicode="{" horiz-adv-x="763" 
d="M647 -164h72q25 -125 0 -250h-203q-150 0 -222 92t-73 238v336q0 125 -127 125h-71q-27 71 -27 161t27 142h112q86 0 86 104v336q0 146 73 238t222 92h203q25 -125 0 -250h-72q-127 0 -127 -80v-377q0 -150 -131 -225q131 -76 131 -225v-377q0 -80 127 -80z" />
    <glyph glyph-name="bar" unicode="|" horiz-adv-x="479" 
d="M125 -381v1843q121 35 229 0v-1843q-46 -20 -112 -19t-117 19z" />
    <glyph glyph-name="braceright" unicode="}" horiz-adv-x="763" 
d="M768 538q0 -90 -27 -161h-71q-127 0 -127 -125v-336q0 -146 -73 -238t-222 -92h-203q-25 125 0 250h72q127 0 127 80v377q0 150 131 225q-131 76 -131 225v377q0 80 -127 80h-72q-25 125 0 250h203q150 0 222 -92t73 -238v-336q0 -104 86 -104h112q27 -52 27 -142z" />
    <glyph glyph-name="asciitilde" unicode="~" horiz-adv-x="1134" 
d="M403 666q74 0 171 -38q98 -38 132 -38t64 24t41 62q156 0 256 -84q-23 -127 -116 -202t-210 -75q-78 0 -176 37t-129 37q-73 0 -112 -98q-158 0 -258 84q31 135 122 213q92 78 215 78z" />
    <glyph glyph-name="uni00A0" unicode="&#xa0;" horiz-adv-x="385" 
 />
    <glyph glyph-name="exclamdown" unicode="&#xa1;" horiz-adv-x="538" 
d="M274 -350q-100 0 -196 39q0 322 84 848q51 18 101 18t112 -14q84 -530 84 -852q-85 -39 -185 -39zM70 866q0 82 59 142t140 59q81 0 141 -59q60 -60 59 -142q1 -82 -59 -141t-141 -59t-140 59t-59 141z" />
    <glyph glyph-name="cent" unicode="&#xa2;" horiz-adv-x="1036" 
d="M560 1341q78 0 151 -16v-192q172 -35 272 -160q-25 -63 -88 -119t-145 -90q-52 80 -144 80t-137 -56t-45 -149q0 -95 46 -153t138 -58t172 86q156 -70 201 -229q-111 -119 -270 -148v-196q-156 -35 -301 0v209q-166 42 -260 168t-94 314t94 316q94 127 260 174v203
q72 16 150 16z" />
    <glyph glyph-name="sterling" unicode="&#xa3;" horiz-adv-x="1214" 
d="M1149 170q0 -78 -16 -170h-1004q0 113 50 256t50 254v14h-153q-20 53 -20 121t20 121h125q-10 61 -11 129q0 189 151 327t395 138t405 -117q-29 -209 -168 -305q-91 66 -201 66q-214 0 -213 -164q0 -33 4 -74h246q20 -53 20 -121t-20 -121h-211v-20q0 -66 -29 -164h564
q16 -92 16 -170z" />
    <glyph glyph-name="currency" unicode="&#xa4;" horiz-adv-x="1282" 
d="M467 666q0 -76 51 -128t122 -52t124 52q53 54 53 129t-52 126t-124 51t-123 -51t-51 -127zM1171 665q0 -142 -69 -264l106 -106q-33 -68 -90 -125t-123 -88l-112 113q-109 -59 -242 -59t-242 59l-112 -113q-147 70 -213 213l108 108q-70 121 -70 263t70 264l-108 108
q27 62 84 120t129 93l114 -114q111 57 240 57t240 -57l114 114q139 -63 213 -213l-108 -108q71 -123 71 -265z" />
    <glyph glyph-name="yen" unicode="&#xa5;" horiz-adv-x="1413" 
d="M891 504v-107h256q8 -33 8 -75t-8 -74h-256v-248q-80 -14 -178 -14t-191 14v248h-256q-8 49 -8 75t8 74h256v107h-256q-8 49 -8 75t8 74h203l-432 654q213 39 436 14l199 -326l51 -102l51 102l201 326q61 10 155 10t244 -22l-420 -656h193q8 -33 8 -75t-8 -74h-256z" />
    <glyph glyph-name="brokenbar" unicode="&#xa6;" horiz-adv-x="471" 
d="M121 -381v725q117 33 229 0v-725q-46 -20 -112 -19t-117 19zM121 698v766q117 33 229 0v-766q-46 -20 -112 -19t-117 19z" />
    <glyph glyph-name="section" unicode="&#xa7;" horiz-adv-x="1245" 
d="M610 -285q-307 0 -475 187q15 90 75 163t148 105q106 -111 246 -111q98 1 166 63t68 163q0 133 -103 225l-176 158q68 174 211 225l207 -182q213 -185 213 -435t-167 -406t-413 -155zM55 819q0 250 167 406t413 155q289 0 475 -186q-12 -90 -72 -163t-151 -105
q-106 111 -238 110q-100 0 -171 -62t-70 -161q0 -135 102 -227l176 -156q-68 -176 -211 -227l-207 184q-213 182 -213 432z" />
    <glyph glyph-name="dieresis" unicode="&#xa8;" horiz-adv-x="925" 
d="M708 1102q-73 0 -125.5 52t-52.5 125t52.5 124t125.5 51t125 -51t52 -124t-52 -125t-125 -52zM218 1102q-73 0 -125 52t-52 125t52 124t125 51t125 -51t52 -124t-52 -125t-125 -52z" />
    <glyph glyph-name="copyright" unicode="&#xa9;" horiz-adv-x="1579" 
d="M808 197q-196 1 -314 113t-119 314q0 202 126 320t324 119q84 0 161 -27t116 -59q-10 -59 -52 -119t-98 -94q-53 49 -125 49q-147 0 -147 -183t145 -184q88 0 144 58q113 -57 151 -201q-116 -106 -312 -106zM260 632q0 -246 153 -400t378 -154t377 154t151 401
q0 245 -152 399q-151 154 -377 154t-378 -154t-152 -400zM792 -115q-318 0 -526 210q-207 210 -207 536q0 327 207 537q208 210 526 210t523 -211t205 -535t-205 -536q-205 -211 -523 -211z" />
    <glyph glyph-name="ordfeminine" unicode="&#xaa;" horiz-adv-x="811" 
d="M330 909q0 -59 76 -59q18 0 59 8v105q-27 6 -59 6q-76 -1 -76 -60zM410 1382q326 0 325 -299v-327q-178 -66 -368 -66q-311 0 -312 213q0 101 82 155t219 50q59 0 109 -12v16q1 72 -105 72t-184 -56q-86 49 -100 156q125 98 334 98z" />
    <glyph glyph-name="guillemotleft" unicode="&#xab;" horiz-adv-x="993" 
d="M793 133l-344 383l331 383q94 -14 138 -82l-148 -297l150 -307q-39 -68 -127 -80zM389 133l-344 383l332 383q94 -14 137 -82l-147 -297l149 -307q-39 -68 -127 -80z" />
    <glyph glyph-name="registered" unicode="&#xae;" horiz-adv-x="1579" 
d="M793 911q111 0 110 86q0 82 -110 82q-39 0 -125 -4v-160q41 -4 125 -4zM1128 993q0 -164 -153 -237l182 -314q-57 -10 -126 -10t-95 2l-164 283q-35 0 -104 4v-283q-26 -6 -92 -6t-113 6v805q139 29 318 29t263 -74t84 -205zM792 289q234 0 383 154q148 155 148 399
t-148 398t-383 153q-235 0 -383 -154q-149 -153 -149 -397t148 -398q150 -154 384 -155zM59 842q1 326 213 538t520 213q308 0 518 -213q210 -212 210 -538t-210 -538t-518 -212t-521 212q-212 212 -212 538z" />
    <glyph glyph-name="macron" unicode="&#xaf;" horiz-adv-x="806" 
d="M41 1304q0 77 20 140h689q16 -70 16 -139.5t-16 -130.5h-689q-20 53 -20 130z" />
    <glyph glyph-name="degree" unicode="&#xb0;" horiz-adv-x="708" 
d="M353 981q48 0 84 36t36 85t-36 84t-85 35t-84 -35t-35 -84t36 -85t84 -36zM352 791q-129 0 -220 90t-91 220t91 221t220 91t221 -91q93 -91 93 -220t-92 -220t-222 -91z" />
    <glyph glyph-name="plusminus" unicode="&#xb1;" horiz-adv-x="1060" 
d="M88 135h885q27 -111 0 -225h-885q-27 112 0 225zM418 516h-330q-27 113 0 225h330v269q113 27 225 0v-269h330q27 -113 0 -225h-330v-268q-113 -27 -225 0v268z" />
    <glyph glyph-name="acute" unicode="&#xb4;" horiz-adv-x="679" 
d="M150 1051q-76 53 -105 157l395 344q156 -82 189 -278z" />
    <glyph glyph-name="paragraph" unicode="&#xb6;" horiz-adv-x="1341" 
d="M535 270q86 0 163 -16v-641q-61 -21 -161 -21t-170 21v641q82 16 168 16zM426 868q0 -84 55 -135t182 -51t199 2v354q-90 8 -207 9q-229 0 -229 -179zM49 860q0 234 160 364t461 130t520 -43v-1698q-80 -14 -168 -14t-160 14v754q-72 -2 -209 -2q-274 0 -439 130
t-165 365z" />
    <glyph glyph-name="periodcentered" unicode="&#xb7;" horiz-adv-x="493" 
d="M244 516q-76 0 -131 56t-55 132t54 131q56 54 133 54t132 -54t55 -131q0 -76 -56 -132t-132 -56z" />
    <glyph glyph-name="cedilla" unicode="&#xb8;" horiz-adv-x="546" 
d="M246.5 -477q-91.5 0 -159 18.5t-97.5 44.5q-6 102 71 162q41 -29 104 -29t62 60q0 66 -131 69l66 175h190l-35 -97q188 -31 189 -174q0 -121 -84 -175t-175.5 -54z" />
    <glyph glyph-name="ordmasculine" unicode="&#xba;" horiz-adv-x="837" 
d="M320 1036q0 -138 98 -137q98 0 98 137t-96 138q-100 0 -100 -138zM419 690q-167 0 -271 91q-103 91 -103 253q1 162 105 256t270 94t269 -93t103 -253t-102 -254q-104 -94 -271 -94z" />
    <glyph glyph-name="guillemotright" unicode="&#xbb;" horiz-adv-x="993" 
d="M616 133q-94 14 -137 82l150 297l-152 307q39 68 127 80l344 -381zM213 133q-94 14 -137 82l149 297l-151 307q39 68 127 80l344 -381z" />
    <glyph glyph-name="onequarter" unicode="&#xbc;" horiz-adv-x="1699" 
d="M1649 207q0 -55 -11 -117h-84v-96q-66 -10 -122 -10t-127 10v96h-379q-68 98 -6 238l223 501q133 -2 241 -75l-165 -406q-8 -16 -9 -39h95v146q57 8 128 8t121 -8v-146h86q9 -47 9 -102zM407 529q-71 0 -126 8v540l-160 -57q-76 80 -76 205q182 72 279 102t217 6v-796
q-63 -8 -134 -8zM1165 1403q121 18 246 0l-971 -1499q-135 -25 -245 0z" />
    <glyph glyph-name="onehalf" unicode="&#xbd;" horiz-adv-x="1703" 
d="M1642 113q0 -65 -14 -113h-639q-10 35 -10 74q0 74 52 124t157 146t119 125q14 28 14 49q-1 57 -63 57t-121 -77q-121 25 -181 110q111 201 336 201q138 0 226 -72t88 -196q0 -154 -217 -310l-48 -24l72 8h215q14 -37 14 -102zM409 529q-73 0 -128 8v540l-160 -57
q-76 80 -76 205q182 72 281 103t219 5v-796q-63 -8 -136 -8zM1165 1403q121 18 246 0l-971 -1499q-135 -25 -245 0z" />
    <glyph glyph-name="threequarters" unicode="&#xbe;" horiz-adv-x="1748" 
d="M1700 207q0 -55 -10 -117h-84v-96q-66 -10 -122 -10t-128 10v96h-379q-68 98 -6 238l223 501q135 -2 242 -61l-162 -420q-8 -16 -8 -39h90v146q57 8 128 8t122 -8v-146h86q8 -47 8 -102zM727 809q0 -158 -104 -234q-105 -75 -279 -75t-283 118q31 106 138 164
q78 -63 153 -63q100 0 101 92q0 86 -117 86h-109q-6 8 -6 33t23 47l127 139h-279q-24 125 0 215h623q8 -92 -41 -151l-139 -146q76 -12 134 -68t58 -157zM1229 1403q119 18 246 0l-971 -1499q-135 -25 -246 0z" />
    <glyph glyph-name="questiondown" unicode="&#xbf;" horiz-adv-x="880" 
d="M510 -354q-198 0 -330 110q-131 110 -131 307q0 156 92 265t250 157q6 29 35 138q47 10 94 10t88 -8q63 -217 64 -357h-6q-129 0 -194 -48q-64 -48 -64 -117t40 -107t110 -37q71 0 155 35q106 -96 123 -270q-128 -78 -326 -78zM516 668q-82 0 -140 59t-59 141t59 142
t141 59q81 0 140 -59q59 -60 59 -142t-58 -141q-60 -59 -142 -59z" />
    <glyph glyph-name="Agrave" unicode="&#xc0;" horiz-adv-x="1310" 
d="M532 516h236l-78 211l-41 131l-39 -131zM159.5 -8q-106.5 0 -179.5 22l493 1301q74 12 184.5 12t184.5 -12l483 -1301q-209 -38 -369 -14l-77 211h-461l-78 -211q-74 -8 -180.5 -8zM934 1546q-10 -92 -74 -149l-534 159q4 199 143 302z" />
    <glyph glyph-name="Aacute" unicode="&#xc1;" horiz-adv-x="1310" 
d="M532 516h236l-78 211l-41 131l-39 -131zM159.5 -8q-106.5 0 -179.5 22l493 1301q74 12 184.5 12t184.5 -12l483 -1301q-209 -38 -369 -14l-77 211h-461l-78 -211q-74 -8 -180.5 -8zM434 1397q-66 57 -76 149l467 312q141 -106 142 -302z" />
    <glyph glyph-name="Acircumflex" unicode="&#xc2;" horiz-adv-x="1310" 
d="M532 516h236l-78 211l-41 131l-39 -131zM159.5 -8q-106.5 0 -179.5 22l493 1301q74 12 184.5 12t184.5 -12l483 -1301q-209 -38 -369 -14l-77 211h-461l-78 -211q-74 -8 -180.5 -8zM381 1425q-90 43 -111 156l291 238q94 20 191 0l295 -228q-16 -113 -111 -166l-287 162z
" />
    <glyph glyph-name="Atilde" unicode="&#xc3;" horiz-adv-x="1310" 
d="M532 516h236l-78 211l-41 131l-39 -131zM159.5 -8q-106.5 0 -179.5 22l493 1301q74 12 184.5 12t184.5 -12l483 -1301q-209 -38 -369 -14l-77 211h-461l-78 -211q-74 -8 -180.5 -8zM786 1712q66 0 91 92q147 0 241 -84q-20 -131 -104 -207.5t-193 -76.5q-74 0 -170 36.5
t-125 36.5q-76 0 -96 -90q-59 0 -133 21.5t-109 62.5q20 133 105.5 209t202.5 76q70 0 165 -38t125 -38z" />
    <glyph glyph-name="Adieresis" unicode="&#xc4;" horiz-adv-x="1310" 
d="M532 516h236l-78 211l-41 131l-39 -131zM159.5 -8q-106.5 0 -179.5 22l493 1301q74 12 184.5 12t184.5 -12l483 -1301q-209 -38 -369 -14l-77 211h-461l-78 -211q-74 -8 -180.5 -8zM914 1450q-73 0 -125 52t-52 125t52.5 124t125 51t125 -51t52.5 -124t-52.5 -125
t-125.5 -52zM392 1450q-73 0 -125 52t-52 125t52 124t125 51t125 -51t52 -124t-52 -125t-125 -52z" />
    <glyph glyph-name="Aring" unicode="&#xc5;" horiz-adv-x="1310" 
d="M532 516h236l-78 211l-41 131l-39 -131zM159.5 -8q-106.5 0 -179.5 22l493 1301q74 12 184.5 12t184.5 -12l483 -1301q-209 -38 -369 -14l-77 211h-461l-78 -211q-74 -8 -180.5 -8zM655 1708q-35 0 -59.5 -25.5t-24.5 -60.5t25 -59.5t59.5 -24.5t58 24.5t23.5 60.5
t-23.5 60.5t-58.5 24.5zM654 1354q-110 0 -188.5 78.5t-78.5 190.5t79 189.5t189.5 77.5t188.5 -78.5t78 -189.5t-79 -189.5t-189 -78.5z" />
    <glyph glyph-name="AE" unicode="&#xc6;" horiz-adv-x="1878" 
d="M934 696v240l4 119l-59 -119l-142 -240h197zM932 0v406h-365l-237 -406q-76 -8 -187.5 -8t-185.5 22l743 1303l1082 -2q16 -72 16 -162t-16 -164h-482v-231h422q16 -63 16.5 -144.5t-16.5 -146.5h-422v-141h500q37 -166 0 -326h-868z" />
    <glyph glyph-name="Ccedilla" unicode="&#xc7;" horiz-adv-x="1202" 
d="M993 -248q0 -121 -84 -175t-175 -54t-158.5 18.5t-98.5 44.5q-6 102 72 162q41 -29 94 -29q72 0 72 60q0 66 -131 69l45 119q-270 35 -424 220.5t-154 483t193.5 493.5t509.5 196q248 0 409 -129q-14 -84 -68.5 -165t-129.5 -124q-92 66 -199 66q-150 0 -231.5 -92.5
t-81.5 -256.5t82.5 -258t223 -94t232.5 86q166 -100 201 -299q-137 -113 -373 -131l-14 -37q188 -31 188 -174z" />
    <glyph glyph-name="Egrave" unicode="&#xc8;" horiz-adv-x="1105" 
d="M1044 164q0 -90 -16 -164h-913v1315h895q16 -72 16 -162t-16 -164h-527v-162h467q37 -165 0 -321h-467v-180h545q16 -72 16 -162zM862 1546q-10 -92 -74 -149l-534 159q4 199 143 302z" />
    <glyph glyph-name="Eacute" unicode="&#xc9;" horiz-adv-x="1105" 
d="M1044 164q0 -90 -16 -164h-913v1315h895q16 -72 16 -162t-16 -164h-527v-162h467q37 -165 0 -321h-467v-180h545q16 -72 16 -162zM362 1397q-66 57 -75 149l467 312q141 -106 141 -302z" />
    <glyph glyph-name="Ecircumflex" unicode="&#xca;" horiz-adv-x="1105" 
d="M1044 164q0 -90 -16 -164h-913v1315h895q16 -72 16 -162t-16 -164h-527v-162h467q37 -165 0 -321h-467v-180h545q16 -72 16 -162zM309 1425q-90 43 -110 156l290 238q96 20 191 0l295 -228q-16 -113 -111 -166l-286 162z" />
    <glyph glyph-name="Edieresis" unicode="&#xcb;" horiz-adv-x="1105" 
d="M1044 164q0 -90 -16 -164h-913v1315h895q16 -72 16 -162t-16 -164h-527v-162h467q37 -165 0 -321h-467v-180h545q16 -72 16 -162zM843 1450q-73 0 -125 52t-52 125t52 124t125 51t125 -51t52 -124t-52 -125t-125 -52zM320 1450q-73 0 -125 52t-52 125t52.5 124t125 51
t125 -51t52.5 -124t-52.5 -125t-125.5 -52z" />
    <glyph glyph-name="Igrave" unicode="&#xcc;" horiz-adv-x="598" 
d="M305 -14q-98 0 -190 14v1311q80 14 178 14t190 -14v-1311q-80 -14 -178 -14zM512 1389l-555 167q4 197 143 302l488 -320q-13 -92 -76 -149z" />
    <glyph glyph-name="Iacute" unicode="&#xcd;" horiz-adv-x="598" 
d="M305 -14q-98 0 -190 14v1311q80 14 178 14t190 -14v-1311q-80 -14 -178 -14zM59 1389q-63 57 -75 149l487 320q139 -104 143 -302z" />
    <glyph glyph-name="Icircumflex" unicode="&#xce;" horiz-adv-x="598" 
d="M305 -14q-98 0 -190 14v1311q80 14 178 14t190 -14v-1311q-80 -14 -178 -14zM391 1821l254 -258q-45 -102 -139 -144l-211 162l-195 -156q-117 41 -141 131l248 265q92 18 184 0z" />
    <glyph glyph-name="Idieresis" unicode="&#xcf;" horiz-adv-x="598" 
d="M305 -14q-98 0 -190 14v1311q80 14 178 14t190 -14v-1311q-80 -14 -178 -14zM499 1434q-73 0 -125 52t-52 125t52 124t125 51t125 -51.5t52 -124t-52 -124.5t-125 -52zM99 1434q-73 0 -125 52t-52 125t52.5 124t125 51t124.5 -51.5t52 -124t-52 -124.5t-125 -52z" />
    <glyph glyph-name="Eth" unicode="&#xd0;" horiz-adv-x="1378" 
d="M592 319q152 0 240 93.5t88 251.5t-88.5 246.5t-239.5 88.5q-70 0 -109 -2v-209h187q14 -66 14 -121.5t-14 -117.5h-187v-227q35 -3 109 -3zM571 1346q358 0 557 -181.5t199 -501t-206 -505t-550 -185.5q-258 0 -456 27v549h-133q-41 112 0 239h133v523q182 35 456 35z
" />
    <glyph glyph-name="Ntilde" unicode="&#xd1;" horiz-adv-x="1415" 
d="M1117 1325q91 0 183 -14v-1307q-168 -31 -358 -16l-422 641l-47 84l10 -105v-608q-111 -14 -177 -14t-191 14v1305q145 41 358 18l422 -668l47 -84l-10 105v635q94 14 185 14zM565 1788q70 0 165 -38t127 -38t55.5 25.5t33.5 66.5q147 0 242 -84q-20 -131 -104.5 -207.5
t-175.5 -76.5t-187 36.5t-125 36.5q-76 0 -96 -90q-59 0 -133 21.5t-109 62.5q20 133 105.5 209t201.5 76z" />
    <glyph glyph-name="Ograve" unicode="&#xd2;" horiz-adv-x="1507" 
d="M753.5 309q139.5 0 221.5 94.5t82 258t-82 257t-221.5 93.5t-221 -93.5t-81.5 -257.5t81.5 -258t221 -94zM753 -39q-310 0 -507 190.5t-197 505.5t197.5 509t508 194t507 -190.5t196.5 -506t-197.5 -509t-507.5 -193.5zM977 1397l-535 159q4 199 144 302l465 -312
q-11 -92 -74 -149z" />
    <glyph glyph-name="Oacute" unicode="&#xd3;" horiz-adv-x="1507" 
d="M753.5 309q139.5 0 221.5 94.5t82 258t-82 257t-221.5 93.5t-221 -93.5t-81.5 -257.5t81.5 -258t221 -94zM753 -39q-310 0 -507 190.5t-197 505.5t197.5 509t508 194t507 -190.5t196.5 -506t-197.5 -509t-507.5 -193.5zM551 1397q-66 57 -76 149l467 312
q141 -106 141 -302z" />
    <glyph glyph-name="Ocircumflex" unicode="&#xd4;" horiz-adv-x="1507" 
d="M753.5 309q139.5 0 221.5 94.5t82 258t-82 257t-221.5 93.5t-221 -93.5t-81.5 -257.5t81.5 -258t221 -94zM753 -39q-310 0 -507 190.5t-197 505.5t197.5 509t508 194t507 -190.5t196.5 -506t-197.5 -509t-507.5 -193.5zM498 1425q-90 43 -111 156l291 238q96 20 190 0
l295 -228q-16 -113 -110 -166l-287 162z" />
    <glyph glyph-name="Otilde" unicode="&#xd5;" horiz-adv-x="1507" 
d="M753.5 309q139.5 0 221.5 94.5t82 258t-82 257t-221.5 93.5t-221 -93.5t-81.5 -257.5t81.5 -258t221 -94zM753 -39q-310 0 -507 190.5t-197 505.5t197.5 509t508 194t507 -190.5t196.5 -506t-197.5 -509t-507.5 -193.5zM612 1788q70 0 165 -38t127 -38t55.5 25.5
t33.5 66.5q147 0 242 -84q-20 -131 -104 -207.5t-193 -76.5q-74 0 -170 36.5t-125 36.5q-76 0 -96 -90q-59 0 -133 21.5t-109 62.5q20 133 105.5 209t201.5 76z" />
    <glyph glyph-name="Odieresis" unicode="&#xd6;" horiz-adv-x="1507" 
d="M753.5 309q139.5 0 221.5 94.5t82 258t-82 257t-221.5 93.5t-221 -93.5t-81.5 -257.5t81.5 -258t221 -94zM753 -39q-310 0 -507 190.5t-197 505.5t197.5 509t508 194t507 -190.5t196.5 -506t-197.5 -509t-507.5 -193.5zM1031 1450q-73 0 -125 52t-52 125t52 124t125 51
t125 -51t52 -124t-52 -125t-125 -52zM509 1450q-73 0 -125 52t-52 125t52 124t125 51t125 -51t52 -124t-52 -125t-125 -52z" />
    <glyph glyph-name="multiply" unicode="&#xd7;" horiz-adv-x="921" 
d="M852 719l-234 -234l234 -233q-57 -96 -160 -158l-231 234l-234 -234q-102 61 -159 158l233 233l-233 234q66 102 159 158l234 -232l231 232q94 -56 160 -158z" />
    <glyph glyph-name="Oslash" unicode="&#xd8;" horiz-adv-x="1507" 
d="M753.5 309q139.5 0 221.5 94.5t82 258t-82 257t-221.5 93.5t-221 -93.5t-81.5 -257.5t81.5 -258t221 -94zM1458 659q0 -311 -197.5 -504.5t-506.5 -193.5q-190 0 -346 76l-175 -191q-186 59 -251 242l168 184q-100 168 -101 387q0 313 197.5 507t507.5 194q176 0 323 -66
l156 176q180 -67 252 -237l-144 -160q117 -170 117 -414z" />
    <glyph glyph-name="Ugrave" unicode="&#xd9;" horiz-adv-x="1370" 
d="M681 -39q-267 0 -424 146.5t-157 422.5v781q80 14 178.5 14t190.5 -14v-772q0 -115 59.5 -175.5t162.5 -60.5t161.5 60.5t58.5 175.5v772q78 14 173 14t188 -14v-766q0 -272 -162 -428t-429 -156zM895 1397l-535 159q4 199 144 302l465 -312q-11 -92 -74 -149z" />
    <glyph glyph-name="Uacute" unicode="&#xda;" horiz-adv-x="1370" 
d="M681 -39q-267 0 -424 146.5t-157 422.5v781q80 14 178.5 14t190.5 -14v-772q0 -115 59.5 -175.5t162.5 -60.5t161.5 60.5t58.5 175.5v772q78 14 173 14t188 -14v-766q0 -272 -162 -428t-429 -156zM469 1397q-66 57 -76 149l467 312q141 -106 141 -302z" />
    <glyph glyph-name="Ucircumflex" unicode="&#xdb;" horiz-adv-x="1370" 
d="M681 -39q-267 0 -424 146.5t-157 422.5v781q80 14 178.5 14t190.5 -14v-772q0 -115 59.5 -175.5t162.5 -60.5t161.5 60.5t58.5 175.5v772q78 14 173 14t188 -14v-766q0 -272 -162 -428t-429 -156zM416 1425q-90 43 -111 156l291 238q96 20 190 0l295 -228
q-16 -113 -110 -166l-287 162z" />
    <glyph glyph-name="Udieresis" unicode="&#xdc;" horiz-adv-x="1370" 
d="M681 -39q-267 0 -424 146.5t-157 422.5v781q80 14 178.5 14t190.5 -14v-772q0 -115 59.5 -175.5t162.5 -60.5t161.5 60.5t58.5 175.5v772q78 14 173 14t188 -14v-766q0 -272 -162 -428t-429 -156zM949 1450q-73 0 -125 52t-52 125t52.5 124t125 51t124.5 -51t52 -124
t-52 -125t-125 -52zM427 1450q-73 0 -125 52t-52 125t52 124t125 51t125 -51t52 -124t-52 -125t-125 -52z" />
    <glyph glyph-name="Yacute" unicode="&#xdd;" horiz-adv-x="1300" 
d="M653 -14q-98 0 -190 14v492l-486 815q213 39 437 14l198 -365l52 -114l51 114l200 365q155 25 400 -12l-484 -836v-473q-80 -14 -178 -14zM438 1397q-66 57 -76 149l467 312q141 -106 142 -302z" />
    <glyph glyph-name="Thorn" unicode="&#xde;" horiz-adv-x="1169" 
d="M569 496q195 0 195 170q0 72 -51 112.5t-146 40.5q-18 0 -84 -4v-319h86zM549 1126q592 0 592 -456q0 -240 -158 -366t-414 -126q-55 0 -86 2v-180q-80 -14 -178 -14t-190 14v1311q80 14 178 14t190 -14v-187q23 2 66 2z" />
    <glyph glyph-name="germandbls" unicode="&#xdf;" horiz-adv-x="1353" 
d="M926 692q0 -27 26 -42t120 -38q95 -24 165 -96t70 -218q1 -146 -101 -242q-102 -95 -303 -95q-127 0 -229 39t-154 88q25 160 142 229q123 -79 205 -79t81 53q0 31 -20 44t-80 36t-85 33q-26 10 -71 38q-44 29 -66 59q-57 79 -58 208q0 128 100 207t225 79h2q0 51 -52 99
t-156 47q-104 0 -164 -68t-62 -194v-879q-80 -14 -180 -14t-193 14v911q2 242 173 386q171 145 431 145t414 -132t156 -366q-8 -168 -54 -239q-100 31 -191 31t-91 -44z" />
    <glyph glyph-name="agrave" unicode="&#xe0;" horiz-adv-x="1083" 
d="M406 301q0 -94 143 -94q41 0 104 14v152q-55 12 -123 12q-124 0 -124 -84zM522 -35q-482 0 -483 316q0 158 118.5 237.5t317.5 75.5q102 -4 178 -21v27q0 106 -163 106.5t-271 -81.5q-127 74 -149 231q57 51 173.5 99.5t270.5 48.5q504 0 504 -449v-492
q-254 -98 -496 -98zM791 1200q-25 -96 -105 -149l-479 223q33 197 188 278z" />
    <glyph glyph-name="aacute" unicode="&#xe1;" horiz-adv-x="1083" 
d="M406 301q0 -94 143 -94q41 0 104 14v152q-55 12 -123 12q-124 0 -124 -84zM522 -35q-482 0 -483 316q0 158 118.5 237.5t317.5 75.5q102 -4 178 -21v27q0 106 -163 106.5t-271 -81.5q-127 74 -149 231q57 51 173.5 99.5t270.5 48.5q504 0 504 -449v-492
q-254 -98 -496 -98zM346 1051q-76 53 -104 157l395 344q156 -82 188 -278z" />
    <glyph glyph-name="acircumflex" unicode="&#xe2;" horiz-adv-x="1083" 
d="M406 301q0 -94 143 -94q41 0 104 14v152q-55 12 -123 12q-124 0 -124 -84zM522 -35q-482 0 -483 316q0 158 118.5 237.5t317.5 75.5q102 -4 178 -21v27q0 106 -163 106.5t-271 -81.5q-127 74 -149 231q57 51 173.5 99.5t270.5 48.5q504 0 504 -449v-492
q-254 -98 -496 -98zM268 1065q-49 18 -85 56t-46 83l285 307q96 23 194 0l271 -292q-25 -104 -133 -154l-242 186z" />
    <glyph glyph-name="atilde" unicode="&#xe3;" horiz-adv-x="1083" 
d="M406 301q0 -94 143 -94q41 0 104 14v152q-55 12 -123 12q-124 0 -124 -84zM522 -35q-482 0 -483 316q0 158 118.5 237.5t317.5 75.5q102 -4 178 -21v27q0 106 -163 106.5t-271 -81.5q-127 74 -149 231q57 51 173.5 99.5t270.5 48.5q504 0 504 -449v-492
q-254 -98 -496 -98zM381 1487q59 0 141 -38t112 -38t53.5 23.5t33.5 62.5q147 0 242 -84q-20 -129 -104.5 -203.5t-192.5 -74.5q-63 0 -146.5 36.5t-107.5 36.5q-77 0 -97 -96q-59 0 -132.5 21.5t-108.5 62.5q20 135 105 213t202 78z" />
    <glyph glyph-name="adieresis" unicode="&#xe4;" horiz-adv-x="1083" 
d="M406 301q0 -94 143 -94q41 0 104 14v152q-55 12 -123 12q-124 0 -124 -84zM522 -35q-482 0 -483 316q0 158 118.5 237.5t317.5 75.5q102 -4 178 -21v27q0 106 -163 106.5t-271 -81.5q-127 74 -149 231q57 51 173.5 99.5t270.5 48.5q504 0 504 -449v-492
q-254 -98 -496 -98zM763 1102q-73 0 -125 52t-52 125t52 124t125 51t125 -51t52 -124t-52 -125t-125 -52zM273 1102q-73 0 -125 52t-52 125t52.5 124t125 51t125 -51t52.5 -124t-52.5 -125t-125.5 -52z" />
    <glyph glyph-name="aring" unicode="&#xe5;" horiz-adv-x="1083" 
d="M406 301q0 -94 143 -94q41 0 104 14v152q-55 12 -123 12q-124 0 -124 -84zM522 -35q-482 0 -483 316q0 158 118.5 237.5t317.5 75.5q102 -4 178 -21v27q0 106 -163 106.5t-271 -81.5q-127 74 -149 231q57 51 173.5 99.5t270.5 48.5q504 0 504 -449v-492
q-254 -98 -496 -98zM520 1395q-35 0 -59.5 -26t-24.5 -60.5t24.5 -59t59.5 -24.5t58.5 24.5t23.5 60.5t-23.5 60.5t-58.5 24.5zM519 1040q-112 0 -191.5 79t-79.5 191t80 189.5t191.5 77.5t191.5 -79t80 -189.5t-80 -189.5t-192 -79z" />
    <glyph glyph-name="ae" unicode="&#xe6;" horiz-adv-x="1640" 
d="M494 219q133 0 133 168h-117q-51 0 -82 -22.5t-31 -61.5q1 -84 97 -84zM1241 594q0 131 -115 131q-55 0 -89 -37t-36 -94h240zM1012 383q0 -127 204 -127q96 0 250 86q109 -92 119 -250q-188 -129 -420 -129q-272 0 -381 195q-121 -193 -387 -193q-152 0 -253 80
t-101 236t116.5 237.5t293.5 79.5l174 -2v6q0 104 -164 104.5t-277 -67.5q-113 100 -118 248q55 41 164.5 79t254.5 38q246 0 340 -158q49 78 138.5 118t193.5 40q193 0 308.5 -123t113.5 -332q0 -109 -10 -164h-559v-2z" />
    <glyph glyph-name="ccedilla" unicode="&#xe7;" horiz-adv-x="962" 
d="M811 -248q0 -121 -84 -175q-83 -54 -175 -54q-181 0 -257 63q-6 102 72 162q41 -29 94 -29q72 0 71 60q0 66 -131 69l48 127q-193 35 -298.5 166t-105.5 357.5t150.5 369t388.5 142.5q106 0 201.5 -32t142.5 -73q-14 -74 -65.5 -145.5t-119.5 -112.5q-61 61 -147 61.5
t-134 -59t-48 -160t47 -163t141 -62.5t162 66q137 -68 182 -242q-133 -113 -309 -123l-14 -39q188 -31 188 -174z" />
    <glyph glyph-name="egrave" unicode="&#xe8;" horiz-adv-x="1097" 
d="M705 588q0 135 -132 145q-132 0 -155 -145h287zM564 1004q222 0 352.5 -123t127.5 -332q0 -92 -10 -152h-614q12 -82 59 -114.5t161 -32.5t273 98q109 -92 119 -250q-182 -135 -437 -135t-402.5 135t-147.5 372.5t148.5 385.5t370.5 148zM829 1200q-25 -96 -104 -149
l-479 223q33 197 188 278z" />
    <glyph glyph-name="eacute" unicode="&#xe9;" horiz-adv-x="1097" 
d="M705 588q0 135 -132 145q-132 0 -155 -145h287zM564 1004q222 0 352.5 -123t127.5 -332q0 -92 -10 -152h-614q12 -82 59 -114.5t161 -32.5t273 98q109 -92 119 -250q-182 -135 -437 -135t-402.5 135t-147.5 372.5t148.5 385.5t370.5 148zM385 1051q-76 53 -104 157
l395 344q156 -82 188 -278z" />
    <glyph glyph-name="ecircumflex" unicode="&#xea;" horiz-adv-x="1097" 
d="M705 588q0 135 -132 145q-132 0 -155 -145h287zM564 1004q222 0 352.5 -123t127.5 -332q0 -92 -10 -152h-614q12 -82 59 -114.5t161 -32.5t273 98q109 -92 119 -250q-182 -135 -437 -135t-402.5 135t-147.5 372.5t148.5 385.5t370.5 148zM307 1065q-49 18 -85 56t-46 83
l285 307q96 23 194 0l271 -292q-25 -104 -133 -154l-242 186z" />
    <glyph glyph-name="edieresis" unicode="&#xeb;" horiz-adv-x="1097" 
d="M705 588q0 135 -132 145q-132 0 -155 -145h287zM564 1004q222 0 352.5 -123t127.5 -332q0 -92 -10 -152h-614q12 -82 59 -114.5t161 -32.5t273 98q109 -92 119 -250q-182 -135 -437 -135t-402.5 135t-147.5 372.5t148.5 385.5t370.5 148zM802 1102q-73 0 -125 52t-52 125
t52 124t125 51t125 -51t52 -124t-52 -125t-125 -52zM312 1102q-73 0 -125 52t-52 125t52.5 124t125 51t124.5 -51t52 -124t-52 -125t-125 -52z" />
    <glyph glyph-name="igrave" unicode="&#xec;" horiz-adv-x="544" 
d="M274 -14q-98 0 -186 14v975q84 14 182 14t187 -14v-975q-85 -14 -183 -14zM465 1051l-479 223q33 197 188 278l389 -362q-24 -92 -98 -139z" />
    <glyph glyph-name="iacute" unicode="&#xed;" horiz-adv-x="546" 
d="M274 -14q-98 0 -186 14v975q84 14 182 14t187 -14v-975q-85 -14 -183 -14zM123 1034q-76 41 -111 131l357 396q160 -70 213 -263z" />
    <glyph glyph-name="icircumflex" unicode="&#xee;" horiz-adv-x="544" 
d="M274 -14q-98 0 -186 14v975q84 14 182 14t187 -14v-975q-85 -14 -183 -14zM338 1511l270 -297q-25 -98 -139 -143l-201 146l-198 -146q-109 43 -131 141l270 299q66 12 129 0z" />
    <glyph glyph-name="idieresis" unicode="&#xef;" horiz-adv-x="546" 
d="M274 -14q-98 0 -186 14v975q84 14 182 14t187 -14v-975q-85 -14 -183 -14zM476 1102q-73 0 -125 52t-52 125t52 124t125 51t125 -51t52 -124t-52 -125t-125 -52zM69 1102q-73 0 -125.5 52t-52.5 125t52.5 124t125.5 51t125 -51t52 -124t-52 -125t-125 -52z" />
    <glyph glyph-name="eth" unicode="&#xf0;" horiz-adv-x="1114" 
d="M552 264q70 0 106 46t36 128t-37 128t-105 46t-105 -47q-35 -47 -35 -127t36 -127t104 -47zM1063 479q0 -242 -136 -379q-135 -137 -369 -137t-375 123q-140 123 -140 337t140 339t366 125q39 0 94 -10q-72 88 -190 141l-105 -131q-41 12 -76 47q-35 29 -57 67l57 72
q-47 10 -145 23q-25 209 88 301q145 -18 268 -62l92 115q37 -16 72 -43q41 -41 62 -72l-60 -73q414 -240 414 -783z" />
    <glyph glyph-name="ntilde" unicode="&#xf1;" horiz-adv-x="1161" 
d="M598 1010q244 0 364.5 -113t120.5 -311v-586q-86 -14 -184 -14t-184 14v539q0 141 -142 141q-72 0 -120 -29v-651q-86 -14 -184.5 -14t-184.5 14v844q70 61 203 113.5t311 52.5zM436 1487q59 0 141 -38t112 -38t53.5 23.5t33.5 62.5q147 0 242 -84
q-20 -129 -104.5 -203.5t-192.5 -74.5q-63 0 -146 36.5t-108 36.5q-76 0 -96 -96q-59 0 -133 21.5t-109 62.5q20 135 105 213t202 78z" />
    <glyph glyph-name="ograve" unicode="&#xf2;" horiz-adv-x="1185" 
d="M594 264q86 0 132 59.5t46 162.5t-46 163t-132 60t-133 -59.5t-47 -163t47 -163t133 -59.5zM593 -37q-245 0 -396.5 138.5t-151.5 381t153.5 385t396.5 142.5t394.5 -140.5t151.5 -381.5t-151.5 -383t-396.5 -142zM762 1051l-479 223q33 197 188 278l395 -352
q-24 -96 -104 -149z" />
    <glyph glyph-name="oacute" unicode="&#xf3;" horiz-adv-x="1185" 
d="M594 264q86 0 132 59.5t46 162.5t-46 163t-132 60t-133 -59.5t-47 -163t47 -163t133 -59.5zM593 -37q-245 0 -396.5 138.5t-151.5 381t153.5 385t396.5 142.5t394.5 -140.5t151.5 -381.5t-151.5 -383t-396.5 -142zM422 1051q-76 53 -105 157l396 344q156 -82 188 -278z
" />
    <glyph glyph-name="ocircumflex" unicode="&#xf4;" horiz-adv-x="1185" 
d="M594 264q86 0 132 59.5t46 162.5t-46 163t-132 60t-133 -59.5t-47 -163t47 -163t133 -59.5zM593 -37q-245 0 -396.5 138.5t-151.5 381t153.5 385t396.5 142.5t394.5 -140.5t151.5 -381.5t-151.5 -383t-396.5 -142zM692 1511l271 -292q-25 -104 -134 -154l-241 186
l-244 -186q-49 18 -85 56t-46 83l285 307q96 23 194 0z" />
    <glyph glyph-name="otilde" unicode="&#xf5;" horiz-adv-x="1185" 
d="M594 264q86 0 132 59.5t46 162.5t-46 163t-132 60t-133 -59.5t-47 -163t47 -163t133 -59.5zM593 -37q-245 0 -396.5 138.5t-151.5 381t153.5 385t396.5 142.5t394.5 -140.5t151.5 -381.5t-151.5 -383t-396.5 -142zM707 1411q66 0 90 86q147 0 241 -84
q-20 -129 -104 -203.5t-193 -74.5q-63 0 -146 36.5t-108 36.5q-76 0 -96 -96q-59 0 -133 21.5t-108 62.5q20 135 105 213t202 78q59 0 141 -38t109 -38z" />
    <glyph glyph-name="odieresis" unicode="&#xf6;" horiz-adv-x="1185" 
d="M594 264q86 0 132 59.5t46 162.5t-46 163t-132 60t-133 -59.5t-47 -163t47 -163t133 -59.5zM593 -37q-245 0 -396.5 138.5t-151.5 381t153.5 385t396.5 142.5t394.5 -140.5t151.5 -381.5t-151.5 -383t-396.5 -142zM839 1102q-73 0 -125 52t-52 125t52 124t125 51t125 -51
t52 -124t-52 -125t-125 -52zM349 1102q-73 0 -125 52t-52 125t52 124t125 51t125 -51t52 -124t-52 -125t-125 -52z" />
    <glyph glyph-name="divide" unicode="&#xf7;" horiz-adv-x="989" 
d="M493 -8q-75 0 -128 53t-54 127t53 127t129 53t128 -53t53 -127t-53 -127t-128 -53zM51 492q0 50 12 100h861q12 -49 12 -99t-12 -104h-861q-12 53 -12 103zM493 635q-75 0 -128 53t-53 127t52 127q54 53 129 53t128 -53t53 -127t-53 -127t-128 -53z" />
    <glyph glyph-name="oslash" unicode="&#xf8;" horiz-adv-x="1185" 
d="M594 264q86 0 132 59.5t46 162.5t-46 163t-132 60t-133 -59.5t-47 -163t47 -163t133 -59.5zM1141 485q0 -238 -151.5 -380t-395.5 -142q-131 0 -242 41l-104 -117q-156 51 -211 201l88 98q-80 125 -80 299q0 240 153.5 382.5t395.5 142.5q129 0 235 -41l103 112
q158 -50 211 -200l-84 -93q82 -127 82 -303z" />
    <glyph glyph-name="ugrave" unicode="&#xf9;" horiz-adv-x="1157" 
d="M886.5 977q98.5 0 184.5 -14v-879q-59 -41 -196.5 -81t-303.5 -40q-494 0 -493 402v598q86 14 184 14t184 -14v-531q0 -82 32 -117.5t109 -35.5t115 24v660q86 14 184.5 14zM850 1200q-25 -96 -105 -149l-479 223q33 197 189 278z" />
    <glyph glyph-name="uacute" unicode="&#xfa;" horiz-adv-x="1157" 
d="M886.5 977q98.5 0 184.5 -14v-879q-59 -41 -196.5 -81t-303.5 -40q-494 0 -493 402v598q86 14 184 14t184 -14v-531q0 -82 32 -117.5t109 -35.5t115 24v660q86 14 184.5 14zM406 1051q-76 53 -105 157l395 344q156 -82 189 -278z" />
    <glyph glyph-name="ucircumflex" unicode="&#xfb;" horiz-adv-x="1157" 
d="M886.5 977q98.5 0 184.5 -14v-879q-59 -41 -196.5 -81t-303.5 -40q-494 0 -493 402v598q86 14 184 14t184 -14v-531q0 -82 32 -117.5t109 -35.5t115 24v660q86 14 184.5 14zM328 1065q-49 18 -85 56t-46 83l284 307q96 23 195 0l270 -292q-25 -104 -133 -154l-242 186z
" />
    <glyph glyph-name="udieresis" unicode="&#xfc;" horiz-adv-x="1157" 
d="M886.5 977q98.5 0 184.5 -14v-879q-59 -41 -196.5 -81t-303.5 -40q-494 0 -493 402v598q86 14 184 14t184 -14v-531q0 -82 32 -117.5t109 -35.5t115 24v660q86 14 184.5 14zM822 1102q-73 0 -125 52t-52 125t52.5 124t125 51t124.5 -51t52 -124t-52 -125t-125 -52z
M333 1102q-73 0 -125 52t-52 125t52 124t125 51t125 -51t52 -124t-52 -125t-125 -52z" />
    <glyph glyph-name="yacute" unicode="&#xfd;" horiz-adv-x="1114" 
d="M892 981q89 0 204 -29q-37 -473 -237 -832.5t-550 -565.5q-78 29 -133 101.5t-78 158.5q188 127 269 223q-145 219 -221 422t-134 493q111 29 222.5 29t189.5 -8q39 -344 139 -608q16 -39 23 -74q6 49 16 74q88 236 111 608q90 8 179 8zM403 1051q-76 53 -104 157
l395 344q156 -82 189 -278z" />
    <glyph glyph-name="thorn" unicode="&#xfe;" horiz-adv-x="1177" 
d="M766 478q0 94 -58 146t-159 52q-45 0 -92 -12v-373q34 -12 114 -13t138 52q57 53 57 148zM584 1004q248 0 400 -130t151 -377q0 -246 -158 -391t-391 -145q-68 0 -129 10v-346q-87 -14 -185 -14t-184 14v1714q177 31 369 0v-346q66 11 127 11z" />
    <glyph glyph-name="ydieresis" unicode="&#xff;" horiz-adv-x="1114" 
d="M892 981q89 0 204 -29q-37 -473 -237 -832.5t-550 -565.5q-78 29 -133 101.5t-78 158.5q188 127 269 223q-145 219 -221 422t-134 493q111 29 222.5 29t189.5 -8q39 -344 139 -608q16 -39 23 -74q6 49 16 74q88 236 111 608q90 8 179 8zM820 1102q-73 0 -125 52t-52 125
t52.5 124t125 51t124.5 -51t52 -124t-52 -125t-125 -52zM331 1102q-73 0 -125 52t-52 125t52 124t125 51t125 -51t52 -124t-52 -125t-125 -52z" />
    <glyph glyph-name="Amacron" unicode="&#x100;" horiz-adv-x="1310" 
d="M532 516h236l-78 211l-41 131l-39 -131zM159.5 -8q-106.5 0 -179.5 22l493 1301q74 12 184.5 12t184.5 -12l483 -1301q-209 -38 -369 -14l-77 211h-461l-78 -211q-74 -8 -180.5 -8zM291 1605.5q0 67.5 20 123.5h688q16 -59 16 -121t-16 -117h-688q-20 47 -20 114.5z" />
    <glyph glyph-name="amacron" unicode="&#x101;" horiz-adv-x="1083" 
d="M406 301q0 -94 143 -94q41 0 104 14v152q-55 12 -123 12q-124 0 -124 -84zM522 -35q-482 0 -483 316q0 158 118.5 237.5t317.5 75.5q102 -4 178 -21v27q0 106 -163 106.5t-271 -81.5q-127 74 -149 231q57 51 173.5 99.5t270.5 48.5q504 0 504 -449v-492
q-254 -98 -496 -98zM154 1304q0 77 20 140h688q16 -70 16 -139.5t-16 -130.5h-688q-20 53 -20 130z" />
    <glyph glyph-name="Abreve" unicode="&#x102;" horiz-adv-x="1310" 
d="M532 516h236l-78 211l-41 131l-39 -131zM159.5 -8q-106.5 0 -179.5 22l493 1301q74 12 184.5 12t184.5 -12l483 -1301q-209 -38 -369 -14l-77 211h-461l-78 -211q-74 -8 -180.5 -8zM657 1415q-185 0 -294 105.5t-109 251.5q86 39 207 28q41 -133 205 -133q66 0 121 31
t69 102q119 14 199 -28q0 -143 -106.5 -250t-291.5 -107z" />
    <glyph glyph-name="abreve" unicode="&#x103;" horiz-adv-x="1083" 
d="M406 301q0 -94 143 -94q41 0 104 14v152q-55 12 -123 12q-124 0 -124 -84zM522 -35q-482 0 -483 316q0 158 118.5 237.5t317.5 75.5q102 -4 178 -21v27q0 106 -163 106.5t-271 -81.5q-127 74 -149 231q57 51 173.5 99.5t270.5 48.5q504 0 504 -449v-492
q-254 -98 -496 -98zM520.5 1079q-191.5 0 -304 115t-112.5 258q102 41 236 29q20 -78 75.5 -115t115 -37t114.5 39t68 113q139 14 225 -33q0 -141 -113 -255t-304.5 -114z" />
    <glyph glyph-name="Aogonek" unicode="&#x104;" horiz-adv-x="1310" 
d="M532 516h236l-78 211l-41 131l-39 -131zM1053 -145q0 -74 84 -74q39 0 92 41q113 -68 112 -180q-100 -104 -272 -105q-115 0 -188.5 59.5t-73.5 151.5t47 156.5t102 95.5l-77 211h-461l-78 -211q-74 -8 -180.5 -8t-179.5 22l493 1301q74 12 184.5 12t184.5 -12l483 -1301
l-33 -6q-240 -41 -239 -153z" />
    <glyph glyph-name="aogonek" unicode="&#x105;" horiz-adv-x="1083" 
d="M406 301q0 -94 143 -94q41 0 104 14v152q-55 12 -123 12q-124 0 -124 -84zM807 -134q1 -73 65 -73q28 0 68 25q113 -68 113 -180q-88 -88 -223.5 -88.5t-202 56t-66.5 162t127 209.5q-94 -12 -196 -12q-213 0 -333 79t-120 237t118.5 237.5t317.5 75.5q102 -4 178 -21v27
q0 106 -163 106.5t-271 -81.5q-127 74 -149 231q57 51 173.5 99.5t270.5 48.5q504 0 504 -449v-492q-94 -37 -152.5 -97t-58.5 -100z" />
    <glyph glyph-name="Cacute" unicode="&#x106;" horiz-adv-x="1202" 
d="M725 -39q-303 0 -488.5 191.5t-185.5 503.5t193.5 508t509.5 196q248 0 409 -129q-14 -84 -68.5 -165t-129.5 -124q-92 66 -199 66q-150 0 -231.5 -92.5t-81.5 -256.5t82.5 -258t223 -94t232.5 86q166 -100 201 -299q-164 -133 -467 -133zM479 1397q-66 57 -76 149
l467 312q141 -106 142 -302z" />
    <glyph glyph-name="cacute" unicode="&#x107;" horiz-adv-x="962" 
d="M594 -37q-260 0 -404.5 136.5t-144.5 380.5t150.5 387t388.5 143q106 0 201.5 -32t142.5 -73q-14 -74 -65.5 -145.5t-119.5 -112.5q-61 61 -147 61t-134 -59t-48 -159.5t47 -163t141 -62.5t162 66q137 -68 182 -242q-145 -125 -352 -125zM381 1051q-76 53 -105 157
l396 344q156 -82 188 -278z" />
    <glyph glyph-name="Cdotaccent" unicode="&#x10a;" horiz-adv-x="1202" 
d="M725 -39q-303 0 -488.5 191.5t-185.5 503.5t193.5 508t509.5 196q248 0 409 -129q-14 -84 -68.5 -165t-129.5 -124q-92 66 -199 66q-150 0 -231.5 -92.5t-81.5 -256.5t82.5 -258t223 -94t232.5 86q166 -100 201 -299q-164 -133 -467 -133zM697 1409q-89 0 -151.5 62.5
t-62.5 149.5t62.5 149.5t150.5 62.5t152.5 -62.5t64.5 -149.5t-63.5 -149.5t-152.5 -62.5z" />
    <glyph glyph-name="cdotaccent" unicode="&#x10b;" horiz-adv-x="962" 
d="M594 -37q-260 0 -404.5 136.5t-144.5 381t150.5 387t388.5 142.5q106 0 201.5 -32t142.5 -73q-14 -74 -65.5 -145.5t-119.5 -112.5q-61 61 -147 61.5t-134 -59t-48 -160t47 -163t141 -62.5t162 66q137 -68 182 -242q-145 -125 -352 -125zM554 1081q-89 0 -151.5 63.5
t-62.5 150.5t62.5 149.5t150.5 62.5t152.5 -62.5t64.5 -149.5t-63.5 -150.5t-152.5 -63.5z" />
    <glyph glyph-name="Ccaron" unicode="&#x10c;" horiz-adv-x="1202" 
d="M725 -39q-303 0 -488.5 191.5t-185.5 503.5t193.5 508t509.5 196q248 0 409 -129q-14 -84 -68.5 -165t-129.5 -124q-92 66 -199 66q-150 0 -231.5 -92.5t-81.5 -256.5t82.5 -258t223 -94t232.5 86q166 -100 201 -299q-164 -133 -467 -133zM608 1436l-295 237
q20 106 111 158l287 -162l268 162q88 -43 108 -148l-288 -247q-95 -23 -191 0z" />
    <glyph glyph-name="ccaron" unicode="&#x10d;" horiz-adv-x="962" 
d="M594 -37q-260 0 -404.5 136.5t-144.5 380.5t150.5 387t388.5 143q106 0 201.5 -32t142.5 -73q-14 -74 -65.5 -145.5t-119.5 -112.5q-61 61 -147 61t-134 -59t-48 -159.5t47 -163t141 -62.5t162 66q137 -68 182 -242q-145 -125 -352 -125zM444 1083l-270 293
q25 104 133 154l242 -187l244 187q49 -18 84.5 -56t46.5 -83l-285 -308q-97 -23 -195 0z" />
    <glyph glyph-name="Dcaron" unicode="&#x10e;" horiz-adv-x="1378" 
d="M592 319q152 0 240 93.5t88 251.5t-88.5 246.5t-239.5 88.5q-70 0 -109 -2v-675q35 -3 109 -3zM571 1346q358 0 557 -182q199 -180 199 -500t-206 -505.5t-550 -185.5q-258 0 -456 27v1311q182 35 456 35zM737 1436q-94 -23 -190 0l-295 237q20 106 110 158l287 -162
l269 162q88 -43 108 -148z" />
    <glyph glyph-name="dcaron" unicode="&#x10f;" horiz-adv-x="1179" 
d="M623 270q49 0 102 13v395q-39 16 -114.5 16t-136 -57t-60.5 -151.5t58.5 -155t150.5 -60.5zM909.5 1360q98.5 0 184.5 -14v-1287q-201 -96 -472.5 -96t-424 134t-152.5 377t158.5 386.5t396.5 143.5q63 0 125 -11v353q86 14 184.5 14zM1511 1380q0 -123 -54 -235.5
t-138 -171.5q-33 0 -73 20.5t-58 50.5q55 115 55 244t-33 213q63 33 148.5 33t140.5 -31q12 -61 12 -123z" />
    <glyph glyph-name="Dcroat" unicode="&#x110;" horiz-adv-x="1378" 
d="M592 319q152 0 240 93.5t88 251.5t-88.5 246.5t-239.5 88.5q-70 0 -109 -2v-209h187q14 -66 14 -121.5t-14 -117.5h-187v-227q35 -3 109 -3zM571 1346q358 0 557 -181.5t199 -501t-206 -505t-550 -185.5q-258 0 -456 27v549h-133q-41 112 0 239h133v523q182 35 456 35z
" />
    <glyph glyph-name="dcroat" unicode="&#x111;" horiz-adv-x="1179" 
d="M623 270q49 0 102 13v395q-39 16 -114.5 16t-136 -57t-60.5 -151.5t58.5 -155t150.5 -60.5zM1270 1187q0 -48 -15 -100h-161v-1028q-201 -96 -472.5 -96t-424 134t-152.5 377t158.5 386.5t396.5 143.5q63 0 125 -11v94h-158q-18 39 -18 95.5t18 105.5h158v58
q86 14 184.5 14t184.5 -14v-58h161q15 -53 15 -101z" />
    <glyph glyph-name="Emacron" unicode="&#x112;" horiz-adv-x="1105" 
d="M1044 164q0 -90 -16 -164h-913v1315h895q16 -72 16 -162t-16 -164h-527v-162h467q37 -165 0 -321h-467v-180h545q16 -72 16 -162zM944 1608q0 -62 -16 -117h-688q-20 47 -20.5 114.5t20.5 123.5h688q16 -59 16 -121z" />
    <glyph glyph-name="emacron" unicode="&#x113;" horiz-adv-x="1097" 
d="M705 588q0 135 -132 145q-132 0 -155 -145h287zM564 1004q222 0 352.5 -123t127.5 -332q0 -92 -10 -152h-614q12 -82 59 -114.5t161 -32.5t273 98q109 -92 119 -250q-182 -135 -437 -135t-402.5 135t-147.5 372.5t148.5 385.5t370.5 148zM193 1304q0 77 20 140h688
q16 -70 16 -139.5t-16 -130.5h-688q-20 53 -20 130z" />
    <glyph glyph-name="Edotaccent" unicode="&#x116;" horiz-adv-x="1105" 
d="M1044 164q0 -90 -16 -164h-913v1315h895q16 -72 16 -162t-16 -164h-527v-162h467q37 -165 0 -321h-467v-180h545q16 -72 16 -162zM581 1409q-89 0 -151.5 62.5t-62.5 149.5t62.5 149.5t150.5 62.5t152.5 -62.5t64.5 -149.5t-63.5 -149.5t-152.5 -62.5z" />
    <glyph glyph-name="edotaccent" unicode="&#x117;" horiz-adv-x="1097" 
d="M705 588q0 135 -132 145q-132 0 -155 -145h287zM564 1004q222 0 352.5 -123t127.5 -332q0 -92 -10 -152h-614q12 -82 59 -114.5t161 -32.5t273 98q109 -92 119 -250q-182 -135 -437 -135t-402.5 135t-147.5 372.5t148.5 385.5t370.5 148zM558 1081q-89 0 -151.5 63.5
t-62.5 150.5t62.5 149.5t150.5 62.5t152.5 -62.5t64.5 -149.5t-63.5 -150.5t-152.5 -63.5z" />
    <glyph glyph-name="Eogonek" unicode="&#x118;" horiz-adv-x="1105" 
d="M1028 0q-139 -74 -139 -146.5t84 -72.5q39 0 92 41q113 -70 113 -180q-100 -104 -273 -105q-115 0 -188.5 59.5t-73.5 151.5t47 156.5t103 95.5h-678v1315h895q16 -72 16 -162t-16 -164h-527v-162h467q37 -165 0 -321h-467v-180h545q16 -72 16 -162t-16 -164z" />
    <glyph glyph-name="eogonek" unicode="&#x119;" horiz-adv-x="1097" 
d="M705 588q0 135 -132 145q-132 0 -155 -145h287zM564 1004q222 0 352.5 -123t127.5 -332q0 -92 -10 -152h-614q12 -82 59 -114.5t161 -32.5t273 98q109 -92 119 -250q-8 -6 -51 -35h2q0 -2 -4 -2t-20.5 -11t-55.5 -25q-59 -37 -95 -84t-36 -81t18.5 -50.5t46.5 -16.5
t68 25q113 -68 113 -180q-88 -88 -223.5 -88.5t-202 56t-66.5 156.5t113 203q-20 -2 -59 -2q-240 0 -387.5 135t-147.5 372.5t148.5 385.5t370.5 148z" />
    <glyph glyph-name="Ecaron" unicode="&#x11a;" horiz-adv-x="1105" 
d="M1044 164q0 -90 -16 -164h-913v1315h895q16 -72 16 -162t-16 -164h-527v-162h467q37 -165 0 -321h-467v-180h545q16 -72 16 -162zM682 1436q-96 -23 -190 0l-295 237q20 106 110 158l287 -162l268 162q88 -43 109 -148z" />
    <glyph glyph-name="ecaron" unicode="&#x11b;" horiz-adv-x="1097" 
d="M705 588q0 135 -132 145q-132 0 -155 -145h287zM564 1004q222 0 352.5 -123t127.5 -332q0 -92 -10 -152h-614q12 -82 59 -114.5t161 -32.5t273 98q109 -92 119 -250q-182 -135 -437 -135t-402.5 135t-147.5 372.5t148.5 385.5t370.5 148zM643 1083q-96 -23 -194 0
l-271 293q25 104 133 154l242 -187l244 187q49 -18 85 -56t46 -83z" />
    <glyph glyph-name="Gbreve" unicode="&#x11e;" horiz-adv-x="1314" 
d="M1057 674q86 0 184 -17v-591q-209 -104 -481 -105q-332 0 -520.5 187.5t-188.5 501.5t197.5 512t523.5 198q258 0 436 -113q-14 -92 -68.5 -178t-131.5 -129q-102 68 -247 68t-226.5 -92.5t-81.5 -256.5t82.5 -258t224.5 -94q63 0 112 6v344q99 17 185 17zM769 1415
q-185 0 -293.5 105.5t-108.5 251.5q86 39 206 28q41 -133 205 -133q66 0 121 31t70 102q119 14 198 -28q0 -143 -106.5 -250t-291.5 -107z" />
    <glyph glyph-name="gbreve" unicode="&#x11f;" horiz-adv-x="1163" 
d="M593.5 305q69.5 0 117.5 12v373q-151 50 -242 -36q-57 -54 -57 -146t56 -147.5t125.5 -55.5zM600 1010q287 0 479 -148v-788q0 -254 -146.5 -374t-387.5 -120q-328 0 -504 189q8 76 59.5 139t132.5 90q117 -133 297 -133t181 131v31q-59 -12 -138 -13q-229 0 -379.5 124
t-150.5 361.5t160.5 374t396.5 136.5zM590.5 1079q-191.5 0 -304 115t-112.5 258q102 41 236 29q20 -78 75.5 -115t114.5 -37t114.5 39t67.5 113q139 14 226 -33q0 -141 -113 -255t-304.5 -114z" />
    <glyph glyph-name="Gdotaccent" unicode="&#x120;" horiz-adv-x="1314" 
d="M1057 674q86 0 184 -17v-591q-209 -104 -481 -105q-332 0 -520.5 187.5t-188.5 501.5t197.5 512t523.5 198q258 0 436 -113q-14 -92 -68.5 -178t-131.5 -129q-102 68 -247 68t-226.5 -92.5t-81.5 -256.5t82.5 -258t224.5 -94q63 0 112 6v344q99 17 185 17zM765 1409
q-89 0 -151.5 62.5t-62.5 149.5t62.5 149.5t150.5 62.5t152.5 -62.5t64.5 -149.5t-63.5 -149.5t-152.5 -62.5z" />
    <glyph glyph-name="gdotaccent" unicode="&#x121;" horiz-adv-x="1163" 
d="M593.5 305q69.5 0 117.5 12v373q-151 50 -242 -36q-57 -54 -57 -146t56 -147.5t125.5 -55.5zM600 1010q287 0 479 -148v-788q0 -254 -146.5 -374t-387.5 -120q-328 0 -504 189q8 76 59.5 139t132.5 90q117 -133 297 -133t181 131v31q-59 -12 -138 -13q-229 0 -379.5 124
t-150.5 361.5t160.5 374t396.5 136.5zM589 1081q-89 0 -151.5 63.5t-62.5 150.5t62.5 149.5t150.5 62.5t152.5 -62.5t64.5 -149.5t-63.5 -150.5t-152.5 -63.5z" />
    <glyph glyph-name="Gcommaaccent" unicode="&#x122;" horiz-adv-x="1314" 
d="M774 -82q86 0 139 -27q4 -41 5 -63q0 -109 -46.5 -204t-128.5 -150q-92 0 -139 69q43 109 43 194.5t-22 151.5q63 29 149 29zM1057 674q86 0 184 -17v-591q-209 -104 -481 -105q-332 0 -520.5 187.5t-188.5 501.5t197.5 512t523.5 198q258 0 436 -113q-14 -92 -68.5 -178
t-131.5 -129q-102 68 -247 68t-226.5 -92.5t-81.5 -256.5t82.5 -258t224.5 -94q63 0 112 6v344q99 17 185 17z" />
    <glyph glyph-name="gcommaaccent" unicode="&#x123;" horiz-adv-x="1163" 
d="M593.5 305q69.5 0 117.5 12v373q-151 50 -242 -36q-57 -54 -57 -146t56 -147.5t125.5 -55.5zM600 1010q287 0 479 -148v-788q0 -254 -146.5 -374t-387.5 -120q-328 0 -504 189q8 76 59.5 139t132.5 90q117 -133 297 -133t181 131v31q-59 -12 -138 -13q-229 0 -379.5 124
t-150.5 361.5t160.5 374t396.5 136.5zM580 1049q-86 0 -140 26q-4 41 -4 64q0 109 46 204t128 150q92 0 140 -70q-43 -109 -43 -194.5t22 -151.5q-63 -28 -149 -28z" />
    <glyph glyph-name="Hbar" unicode="&#x126;" horiz-adv-x="1394" 
d="M911 829v113h-428v-113h428zM1464 1048.5q0 -57.5 -16 -106.5h-168v-942q-80 -14 -178 -14t-191 14v492h-428v-492q-80 -14 -178 -14t-190 14v942h-154q-20 44 -20 106t20 111h154v152q80 14 178 14t190 -14v-152h428v152q81 14 179 14t190 -14v-152h168
q16 -53 16 -110.5z" />
    <glyph glyph-name="hbar" unicode="&#x127;" horiz-adv-x="1163" 
d="M633 1010q213 0 332.5 -104.5t119.5 -276.5v-629q-86 -14 -184 -14t-184 14v541q0 139 -133 139q-70 0 -127 -31v-649q-80 -14 -178.5 -14t-190.5 14v1087h-141q-18 39 -18.5 95.5t18.5 105.5h141v51q177 31 369 0v-51h178q14 -53 14 -101t-14 -100h-178v-106
q82 29 176 29z" />
    <glyph glyph-name="Itilde" unicode="&#x128;" horiz-adv-x="598" 
d="M305 -14q-98 0 -190 14v1311q80 14 178 14t190 -14v-1311q-80 -14 -178 -14zM448 1409q-84 0 -161.5 37t-96.5 37q-66 0 -65 -64q-72 -14 -137.5 6.5t-104.5 57.5q18 133 94 212t173 79q66 0 141.5 -38t95.5 -38q61 0 62 65q135 31 241 -63q-20 -137 -89 -214t-153 -77z
" />
    <glyph glyph-name="itilde" unicode="&#x129;" horiz-adv-x="544" 
d="M274 -14q-98 0 -186 14v975q84 14 182 14t187 -14v-975q-85 -14 -183 -14zM416 1139q-59 0 -125 28.5t-92 28.5q-66 0 -66 -63q-78 -12 -142.5 7t-99.5 56q4 123 86 198.5t181 75.5q57 0 121.5 -29.5t89.5 -29.5q61 0 61 66q156 23 242 -64q-4 -125 -79 -199.5
t-177 -74.5z" />
    <glyph glyph-name="Imacron" unicode="&#x12a;" horiz-adv-x="598" 
d="M305 -14q-98 0 -190 14v1311q80 14 178 14t190 -14v-1311q-80 -14 -178 -14zM-8 1605q0 81 16 140h586q14 -76 14 -139.5t-14 -130.5h-586q-16 49 -16 130z" />
    <glyph glyph-name="imacron" unicode="&#x12b;" horiz-adv-x="544" 
d="M274 -14q-98 0 -186 14v975q84 14 182 14t187 -14v-975q-85 -14 -183 -14zM-18 1304q0 81 16 140h549q14 -76 14 -139.5t-14 -130.5h-549q-16 49 -16 130z" />
    <glyph glyph-name="Iogonek" unicode="&#x12e;" horiz-adv-x="598" 
d="M244 -147q0 -72 84 -72q39 0 92 41q113 -68 112 -180q-100 -104 -272 -105q-115 0 -188.5 59.5t-73.5 161.5q0 139 117 242v1311q80 14 178 14t190 -14v-1311l-34 -6q-205 -33 -205 -141z" />
    <glyph glyph-name="iogonek" unicode="&#x12f;" horiz-adv-x="544" 
d="M223 -483q-113 0 -187.5 63.5t-74.5 155.5t38 159.5t89 104.5v975q84 14 182 14t187 -14v-975q-242 -45 -242 -164q0 -76 82 -76q45 0 106 41q113 -68 113 -180q-109 -104 -293 -104zM296 1081q-89 0 -151.5 63.5t-62.5 150.5t62.5 149.5t150.5 62.5t152.5 -62.5
t64.5 -149.5t-63.5 -150.5t-152.5 -63.5z" />
    <glyph glyph-name="Idotaccent" unicode="&#x130;" horiz-adv-x="598" 
d="M305 -14q-98 0 -190 14v1311q80 14 178 14t190 -14v-1311q-80 -14 -178 -14zM298 1409q-89 0 -151.5 62.5t-62.5 149.5t62.5 149.5t150.5 62.5t152.5 -62.5t64.5 -149.5t-63.5 -149.5t-152.5 -62.5z" />
    <glyph glyph-name="dotlessi" unicode="&#x131;" horiz-adv-x="544" 
d="M274 -14q-98 0 -186 14v975q84 14 182 14t187 -14v-975q-85 -14 -183 -14z" />
    <glyph glyph-name="IJ" unicode="&#x132;" horiz-adv-x="1218" 
d="M658 -86q-216 0 -324 100q0 96 46 180t118 125q60 -59 126 -59q124 0 121 105v946q81 14 179 14t190 -14v-936q0 -201 -120 -331t-336 -130zM291 375q-98 0 -191 14v922q80 14 178 14t191 -14v-922q-80 -14 -178 -14z" />
    <glyph glyph-name="ij" unicode="&#x133;" horiz-adv-x="1105" 
d="M612.5 -410q-178.5 0 -272.5 74q0 68 40 143.5t101 114.5q39 -28 82 -28q86 1 86 114v967q80 14 178 14t191 -14v-948q0 -207 -113.5 -322t-292 -115zM274 -14q-98 0 -186 14v975q84 14 182 14t187 -14v-975q-85 -14 -183 -14zM830 1081q-89 0 -151.5 63.5t-62.5 150.5
t62.5 149.5t151 62.5t153 -62.5t64.5 -149.5t-64 -150.5t-153 -63.5zM273 1081q-89 0 -151.5 63.5t-62.5 150.5t62.5 149.5t150.5 62.5t152.5 -62.5t64.5 -149.5t-63.5 -150.5t-152.5 -63.5z" />
    <glyph glyph-name="Kcommaaccent" unicode="&#x136;" horiz-adv-x="1339" 
d="M655 -82q86 0 140 -27q4 -41 4 -63q0 -109 -46 -204t-128 -150q-92 0 -140 69q43 109 43 194.5t-22 151.5q63 29 149 29zM1138.5 -4q-130.5 0 -229.5 4l-360 457q-33 -27 -66 -47v-410q-80 -14 -178 -14t-190 14v1311q80 14 178 14t190 -14v-484q125 106 215 218t185 274
q86 6 203.5 6t230.5 -12q-203 -353 -479 -617l546 -684q-115 -16 -245.5 -16z" />
    <glyph glyph-name="kcommaaccent" unicode="&#x137;" horiz-adv-x="1181" 
d="M567 -82q86 0 140 -27q4 -41 4 -63q0 -109 -46.5 -204t-127.5 -150q-92 0 -140 69q43 109 43 194.5t-22 151.5q63 29 149 29zM278.5 -14q-98.5 0 -190.5 14v1339q177 31 369 0v-757q201 154 303 383q66 6 189.5 6t207.5 -15q-86 -272 -328 -491l388 -457
q-117 -25 -266 -24.5t-206 8.5l-288 346v-338q-80 -14 -178.5 -14z" />
    <glyph glyph-name="kgreenlandic" unicode="&#x138;" horiz-adv-x="1189" 
d="M278 -14q-98 0 -190 14v961q80 14 178 14t191 -14v-394q172 139 280 398q66 6 190 6t208 -15q-84 -264 -295 -483l387 -465q-117 -24 -261 -24t-200 8l-309 379v-371q-81 -14 -179 -14z" />
    <glyph glyph-name="Lacute" unicode="&#x139;" horiz-adv-x="1038" 
d="M115 0v1315q98 16 184 16t184 -16v-983h514q37 -176 0 -332h-882zM152 1397q-66 57 -76 149l467 312q141 -106 141 -302z" />
    <glyph glyph-name="lacute" unicode="&#x13a;" horiz-adv-x="550" 
d="M281 -14q-100 0 -193 14v1339q179 31 373 0v-1339q-80 -14 -180 -14zM55 1397q-66 57 -75 149l466 312q141 -106 142 -302z" />
    <glyph glyph-name="Lcommaaccent" unicode="&#x13b;" horiz-adv-x="1038" 
d="M563 -82q86 0 139 -27q4 -41 5 -63q0 -109 -46.5 -204t-128.5 -150q-92 0 -139 69q43 109 43 194.5t-22 151.5q63 29 149 29zM115 0v1315q98 16 184 16t184 -16v-983h514q37 -176 0 -332h-882z" />
    <glyph glyph-name="lcommaaccent" unicode="&#x13c;" horiz-adv-x="550" 
d="M147 -262.5q0 85.5 -22 151.5q63 29 149 29t140 -27q4 -41 4 -63q0 -109 -46 -204t-128 -150q-92 0 -140 69q43 109 43 194.5zM281 -14q-100 0 -193 14v1339q179 31 373 0v-1339q-80 -14 -180 -14z" />
    <glyph glyph-name="Lcaron" unicode="&#x13d;" horiz-adv-x="1038" 
d="M115 0v1315q98 16 184 16t184 -16v-983h514q37 -176 0 -332h-882zM820 1534q85 0 141 -31q12 -61 12 -123q0 -123 -54.5 -235.5t-138.5 -171.5q-33 0 -72.5 20.5t-58.5 50.5q55 115 55.5 244t-32.5 213q63 33 148 33z" />
    <glyph glyph-name="lcaron" unicode="&#x13e;" horiz-adv-x="550" 
d="M281 -14q-100 0 -193 14v1339q179 31 373 0v-1339q-80 -14 -180 -14zM598 1288q0 129 -33 213q63 33 148.5 33t140.5 -31q12 -61 12 -123q0 -123 -54 -235.5t-138 -171.5q-33 0 -73 20.5t-58 50.5q55 115 55 244z" />
    <glyph glyph-name="Ldot" unicode="&#x13f;" horiz-adv-x="1048" 
d="M814 535q-77 0 -132 56t-55 132t55 130t132 54t132 -54t55 -131t-55 -132t-132 -55zM115 0v1315q98 16 184 16t184 -16v-983h514q37 -176 0 -332h-882z" />
    <glyph glyph-name="ldot" unicode="&#x140;" horiz-adv-x="849" 
d="M699 481q-77 0 -132 56.5t-55 132t55.5 130t132 54.5t132 -54.5t55.5 -131t-55.5 -132t-132.5 -55.5zM281 -14q-100 0 -193 14v1339q179 31 373 0v-1339q-80 -14 -180 -14z" />
    <glyph glyph-name="Lslash" unicode="&#x141;" horiz-adv-x="1038" 
d="M115 0v440l-88 -47q-39 29 -67 85.5t-32 107.5l187 100v629q98 16 184 16t184 -16v-428l117 63q80 -86 92 -196l-209 -113v-309h514q37 -176 0 -332h-882z" />
    <glyph glyph-name="lslash" unicode="&#x142;" horiz-adv-x="550" 
d="M281 -14q-100 0 -193 14v469l-90 -47q-39 29 -66.5 85t-31.5 107l188 101v624q179 31 373 0v-428l90 47q80 -85 92 -196l-182 -96v-666q-80 -14 -180 -14z" />
    <glyph glyph-name="Nacute" unicode="&#x143;" horiz-adv-x="1415" 
d="M1117 1325q91 0 183 -14v-1307q-168 -31 -358 -16l-422 641l-47 84l10 -105v-608q-111 -14 -177 -14t-191 14v1305q145 41 358 18l422 -668l47 -84l-10 105v635q94 14 185 14zM504 1397q-66 57 -76 149l467 312q141 -106 141 -302z" />
    <glyph glyph-name="nacute" unicode="&#x144;" horiz-adv-x="1161" 
d="M598 1010q244 0 364.5 -113t120.5 -311v-586q-86 -14 -184 -14t-184 14v539q0 141 -142 141q-72 0 -120 -29v-651q-86 -14 -184.5 -14t-184.5 14v844q70 61 203 113.5t311 52.5zM401 1051q-76 53 -104 157l395 344q156 -82 189 -278z" />
    <glyph glyph-name="Ncommaaccent" unicode="&#x145;" horiz-adv-x="1415" 
d="M735 -82q86 0 139 -27q4 -41 5 -63q0 -109 -46.5 -204t-127.5 -150q-92 0 -140 69q43 109 43 194.5t-22 151.5q63 29 149 29zM1117 1325q91 0 183 -14v-1307q-168 -31 -358 -16l-422 641l-47 84l10 -105v-608q-111 -14 -177 -14t-191 14v1305q145 41 358 18l422 -668
l47 -84l-10 105v635q94 14 185 14z" />
    <glyph glyph-name="ncommaaccent" unicode="&#x146;" horiz-adv-x="1161" 
d="M588 -82q86 0 139 -27q4 -41 4 -63q0 -109 -46 -204t-128 -150q-92 0 -139 69q43 109 43 194.5t-23 151.5q64 29 150 29zM598 1010q244 0 364.5 -113t120.5 -311v-586q-86 -14 -184 -14t-184 14v539q0 141 -142 141q-72 0 -120 -29v-651q-86 -14 -184.5 -14t-184.5 14
v844q70 61 203 113.5t311 52.5z" />
    <glyph glyph-name="Ncaron" unicode="&#x147;" horiz-adv-x="1415" 
d="M1117 1325q91 0 183 -14v-1307q-168 -31 -358 -16l-422 641l-47 84l10 -105v-608q-111 -14 -177 -14t-191 14v1305q145 41 358 18l422 -668l47 -84l-10 105v635q94 14 185 14zM823 1436q-94 -23 -190 0l-295 237q20 106 111 158l286 -162l269 162q88 -43 108 -148z" />
    <glyph glyph-name="ncaron" unicode="&#x148;" horiz-adv-x="1161" 
d="M598 1010q244 0 364.5 -113t120.5 -311v-586q-86 -14 -184 -14t-184 14v539q0 141 -142 141q-72 0 -120 -29v-651q-86 -14 -184.5 -14t-184.5 14v844q70 61 203 113.5t311 52.5zM659 1083q-96 -23 -194 0l-270 293q25 104 133 154l241 -187l244 187q49 -18 85 -56t46 -83
z" />
    <glyph glyph-name="napostrophe" unicode="&#x149;" horiz-adv-x="1161" 
d="M598 1010q244 0 364.5 -113t120.5 -311v-586q-86 -14 -184 -14t-184 14v539q0 141 -142 141q-72 0 -120 -29v-651q-86 -14 -184.5 -14t-184.5 14v844q70 61 203 113.5t311 52.5zM205 1256.5q0 -99.5 -56.5 -214t-138.5 -180.5q-39 2 -77.5 21.5t-55.5 52.5
q59 125 59.5 252.5t-40.5 210.5q66 37 156.5 36.5t129.5 -18.5q23 -61 23 -160.5z" />
    <glyph glyph-name="Eng" unicode="&#x14a;" horiz-adv-x="1415" 
d="M1117 1325q91 0 183 -14v-1319q0 -201 -119.5 -331t-333.5 -130t-327 100q0 96 46 180.5t118 125.5q64 -59 128 -59q120 -1 120 104v22l-412 625l-47 84l10 -105v-608q-111 -14 -177 -14t-191 14v1305q145 41 358 18l422 -668l47 -84l-10 105v635q94 14 185 14z" />
    <glyph glyph-name="eng" unicode="&#x14b;" horiz-adv-x="1161" 
d="M598 1010q244 0 365 -113t120 -311v-621q1 -190 -121 -304t-310 -114t-294 95q0 66 40 138t102 109q49 -41 108 -41q106 0 107 150v541q0 141 -142 141q-72 0 -120 -29v-651q-87 -14 -185 -14t-184 14v844q70 62 203 114t311 52z" />
    <glyph glyph-name="Omacron" unicode="&#x14c;" horiz-adv-x="1507" 
d="M753.5 309q139.5 0 221.5 94.5t82 258t-82 257t-221.5 93.5t-221 -93.5t-81.5 -257.5t81.5 -258t221 -94zM753 -39q-310 0 -507 190.5t-197 505.5t197.5 509t508 194t507 -190.5t196.5 -506t-197.5 -509t-507.5 -193.5zM408 1605.5q0 67.5 20 123.5h688q34 -127 0 -238
h-688q-20 47 -20 114.5z" />
    <glyph glyph-name="omacron" unicode="&#x14d;" horiz-adv-x="1185" 
d="M594 264q86 0 132 59.5t46 162.5t-46 163t-132 60t-133 -59.5t-47 -163t47 -163t133 -59.5zM593 -37q-245 0 -396.5 138.5t-151.5 381t153.5 385t396.5 142.5t394.5 -140.5t151.5 -381.5t-151.5 -383t-396.5 -142zM954 1304.5q0 -69.5 -16 -130.5h-688q-20 53 -20.5 130
t20.5 140h688q16 -70 16 -139.5z" />
    <glyph glyph-name="Ohungarumlaut" unicode="&#x150;" horiz-adv-x="1507" 
d="M753.5 309q139.5 0 221.5 94.5t82 258t-82 257t-221.5 93.5t-221 -93.5t-81.5 -257.5t81.5 -258t221 -94zM753 -39q-310 0 -507 190.5t-197 505.5t197.5 509t508 194t507 -190.5t196.5 -506t-197.5 -509t-507.5 -193.5zM936 1346q-84 27 -131 108l233 354
q162 -27 213 -174zM508 1346q-80 25 -131 108l233 354q162 -25 213 -174z" />
    <glyph glyph-name="ohungarumlaut" unicode="&#x151;" horiz-adv-x="1185" 
d="M594 264q86 0 132 59.5t46 162.5t-46 163t-132 60t-133 -59.5t-47 -163t47 -163t133 -59.5zM593 -37q-245 0 -396.5 138.5t-151.5 381t153.5 385t396.5 142.5t394.5 -140.5t151.5 -381.5t-151.5 -383t-396.5 -142zM700 1059q-78 31 -122 115l264 389q76 -18 128 -68.5
t70 -120.5zM317 1061q-82 29 -129 110l250 396q162 -29 209 -178z" />
    <glyph glyph-name="OE" unicode="&#x152;" horiz-adv-x="1777" 
d="M451 660q0 -157 81.5 -247.5t221.5 -90.5q51 0 86 8v657q-41 6 -86 6q-139 0 -221 -88t-82 -245zM1714 164q0 -90 -16 -164h-742q-121 -27 -219 -27q-299 0 -493.5 188.5t-194.5 495.5t197.5 495.5t507.5 188.5q113 0 227 -26h698q37 -166 0 -326h-471v-162h412
q16 -72 16 -160.5t-16 -160.5h-412v-180h490q16 -72 16 -162z" />
    <glyph glyph-name="oe" unicode="&#x153;" horiz-adv-x="1785" 
d="M578 264q81 0 127.5 59.5t46.5 162.5t-46.5 163t-127.5 60t-122.5 -59.5t-41.5 -163t41.5 -163t122.5 -59.5zM1393 596q0 57 -32 93t-99 36q-113 0 -136 -129h267zM1271 1004q204 0 334 -123t128 -332q0 -106 -11 -170h-589q16 -66 63 -94.5t145.5 -28.5t260.5 92
q109 -92 118 -250q-182 -135 -452 -135q-213 0 -340 131q-137 -131 -364 -131t-373 138.5t-146 381t147.5 385t378.5 142.5t367 -140q129 134 333 134z" />
    <glyph glyph-name="Racute" unicode="&#x154;" horiz-adv-x="1263" 
d="M483 725h133q88 0 132.5 43t44.5 113t-45.5 109.5t-112 39.5t-152.5 -4v-301zM483 426v-426q-80 -14 -178 -14t-190 14v1294q219 43 463 43q592 0 591 -434q0 -268 -215 -393l299 -496q-104 -29 -323 -28q-55 0 -80 2l-250 438h-117zM373 1397q-66 57 -76 149l467 312
q141 -106 141 -302z" />
    <glyph glyph-name="racute" unicode="&#x155;" horiz-adv-x="770" 
d="M538 1008q159 0 232 -27q-10 -201 -106 -317q-43 12 -105 12t-106 -21v-655q-86 -14 -184.5 -14t-184.5 14v850q63 59 179 108.5t275 49.5zM285 1051q-76 53 -105 157l395 344q156 -82 189 -278z" />
    <glyph glyph-name="Rcommaaccent" unicode="&#x156;" horiz-adv-x="1263" 
d="M703 -82q86 0 139 -27q4 -41 4 -63q0 -109 -46 -204t-128 -150q-92 0 -140 69q43 109 43 194.5t-22 151.5q64 29 150 29zM483 725h133q88 0 132.5 43t44.5 113t-45.5 109.5t-112 39.5t-152.5 -4v-301zM483 426v-426q-80 -14 -178 -14t-190 14v1294q219 43 463 43
q592 0 591 -434q0 -268 -215 -393l299 -496q-104 -29 -323 -28q-55 0 -80 2l-250 438h-117z" />
    <glyph glyph-name="rcommaaccent" unicode="&#x157;" horiz-adv-x="770" 
d="M277 -82q86 0 139 -27q4 -41 4 -63q0 -109 -46 -204t-128 -150q-92 0 -140 69q75 191 21 346q64 29 150 29zM538 1008q159 0 232 -27q-10 -201 -106 -317q-43 12 -105 12t-106 -21v-655q-86 -14 -184.5 -14t-184.5 14v850q63 59 179 108.5t275 49.5z" />
    <glyph glyph-name="Rcaron" unicode="&#x158;" horiz-adv-x="1263" 
d="M483 725h133q88 0 132.5 43t44.5 113t-45.5 109.5t-112 39.5t-152.5 -4v-301zM483 426v-426q-80 -14 -178 -14t-190 14v1294q219 43 463 43q592 0 591 -434q0 -268 -215 -393l299 -496q-104 -29 -323 -28q-55 0 -80 2l-250 438h-117zM692 1436q-94 -23 -190 0l-295 237
q20 106 110 158l287 -162l268 162q88 -43 109 -148z" />
    <glyph glyph-name="rcaron" unicode="&#x159;" horiz-adv-x="770" 
d="M538 1008q159 0 232 -27q-10 -201 -106 -317q-43 12 -105 12t-106 -21v-655q-86 -14 -184.5 -14t-184.5 14v850q63 59 179 108.5t275 49.5zM543 1083q-96 -23 -195 0l-270 293q25 104 133 154l242 -187l243 187q49 -18 85 -56t46 -83z" />
    <glyph glyph-name="Sacute" unicode="&#x15a;" horiz-adv-x="1169" 
d="M586 -33q-354 0 -547 158q6 96 49 177t111 120q162 -117 395 -117q162 0 162 66q0 41 -43 64.5t-227 69.5t-293 135q-109 88 -111 282t145.5 311t393.5 117q162 0 284.5 -41t190.5 -97q-6 -92 -49 -174t-117 -125q-137 98 -338 99q-154 0 -154 -66q0 -37 42 -57.5
t228 -65.5t293 -137t111 -254q6 -223 -134 -344t-392 -121zM383 1397q-66 57 -76 149l467 312q141 -106 141 -302z" />
    <glyph glyph-name="sacute" unicode="&#x15b;" horiz-adv-x="1001" 
d="M494 -39q-152 0 -272 38t-183 87q20 172 131 244q168 -100 340 -101q74 0 74 47q0 27 -37 42.5t-131.5 37.5t-140.5 40t-99 52q-106 67 -106 225.5t127 244.5t317 86q268 0 422 -91q-23 -180 -121 -249q-131 70 -264.5 69.5t-132.5 -45.5q0 -27 33.5 -38t132 -30.5
t151.5 -37.5q53 -20 107 -54q110 -69 110 -228t-118.5 -249t-339.5 -90zM342 1051q-76 53 -104 157l395 344q156 -82 188 -278z" />
    <glyph glyph-name="Scedilla" unicode="&#x15e;" horiz-adv-x="1169" 
d="M864 -248q0 -121 -84 -175t-175 -54t-158.5 18.5t-98.5 44.5q-6 102 72 162q41 -29 94 -29q72 0 72 60q0 66 -131 69l45 121q-297 20 -461 156q6 96 49 177t111 120q162 -117 395 -117q162 0 162 66q0 41 -43 64.5t-226.5 69.5t-293 135t-111.5 282.5t145.5 310.5
t393.5 117q162 0 284.5 -41t190.5 -97q-6 -92 -49 -174t-117 -125q-137 98 -338 99q-154 0 -154 -66q0 -37 42 -57.5t228.5 -65.5t293 -137t110.5 -254q6 -199 -105.5 -316.5t-314.5 -142.5l-16 -47q188 -31 188 -174z" />
    <glyph glyph-name="scedilla" unicode="&#x15f;" horiz-adv-x="1001" 
d="M780 -248q0 -121 -84 -175t-175 -54t-158.5 18.5t-98.5 44.5q-6 102 72 162q41 -29 94 -29q72 0 72 60q0 66 -131 69l43 115q-242 18 -375 123q20 172 131 244q168 -100 340 -101q74 0 74 47q0 27 -37 42.5t-131.5 37.5t-140.5 40t-99 52q-106 67 -106 225.5t127 244.5
t317 86q268 0 422 -91q-23 -180 -121 -249q-131 70 -264.5 69.5t-132.5 -45.5q0 -27 33.5 -38t132 -30.5t151.5 -37.5q53 -20 107 -54q110 -69 110 -216.5t-89 -234.5t-257 -110l-14 -41q188 -31 188 -174z" />
    <glyph glyph-name="Scaron" unicode="&#x160;" horiz-adv-x="1169" 
d="M586 -33q-354 0 -547 158q6 96 49 177t111 120q162 -117 395 -117q162 0 162 66q0 41 -43 64.5t-227 69.5t-293 135q-109 88 -111 282t145.5 311t393.5 117q162 0 284.5 -41t190.5 -97q-6 -92 -49 -174t-117 -125q-137 98 -338 99q-154 0 -154 -66q0 -37 42 -57.5
t228 -65.5t293 -137t111 -254q6 -223 -134 -344t-392 -121zM512 1436l-295 237q20 106 111 158l286 -162l269 162q88 -43 108 -148l-289 -247q-96 -23 -190 0z" />
    <glyph glyph-name="scaron" unicode="&#x161;" horiz-adv-x="1001" 
d="M494 -39q-152 0 -272 38t-183 87q20 172 131 244q168 -100 340 -101q74 0 74 47q0 27 -37 42.5t-131.5 37.5t-140.5 40t-99 52q-106 67 -106 225.5t127 244.5t317 86q268 0 422 -91q-23 -180 -121 -249q-131 70 -264.5 69.5t-132.5 -45.5q0 -27 33.5 -38t132 -30.5
t151.5 -37.5q53 -20 107 -54q110 -69 110 -228t-118.5 -249t-339.5 -90zM406 1083l-271 293q25 104 133 154l242 -187l244 187q49 -18 84.5 -56t46.5 -83l-285 -308q-96 -23 -194 0z" />
    <glyph glyph-name="uni0162" unicode="&#x162;" horiz-adv-x="1155" 
d="M576.5 -477q-91.5 0 -159 18.5t-98.5 44.5q-6 102 72 162q41 -29 94 -29q72 0 72 60q0 66 -131 69l53 140l-86 12v989h-354q-16 72 -16 163t16 163h1077q37 -166 0 -326h-354v-989q-45 -8 -92 -12l-23 -62q188 -31 189 -174q0 -121 -84 -175t-175.5 -54z" />
    <glyph glyph-name="uni0163" unicode="&#x163;" horiz-adv-x="954" 
d="M817 -248q0 -121 -84 -175t-175 -54t-158.5 18.5t-98.5 44.5q-6 102 72 162q41 -29 94 -29q72 0 72 60q0 66 -131 69l51 136q-262 61 -262 319v350h-164q-26 157 0 303h164v254q203 31 368 0v-254h320q16 -76 16 -148.5t-16 -154.5h-320v-256q0 -119 119 -118
q57 0 115 51q51 -31 96 -104.5t53 -147.5q-133 -102 -305 -111l-14 -41q188 -31 188 -174z" />
    <glyph glyph-name="Tcaron" unicode="&#x164;" horiz-adv-x="1155" 
d="M1133 1153q0 -90 -17 -164h-354v-989q-98 -16 -184 -16t-185 16v989h-354q-16 72 -16 163t16 163h1077q17 -72 17 -162zM678 1436q-96 -23 -191 0l-294 237q20 106 110 158l287 -162l268 162q88 -43 109 -148z" />
    <glyph glyph-name="tcaron" unicode="&#x165;" horiz-adv-x="954" 
d="M613.5 -33q-189.5 0 -303 82t-113.5 254v350h-164q-26 157 0 303h164v254q203 31 368 0v-254h320q16 -76 16 -148.5t-16 -154.5h-320v-256q0 -119 119 -118q58 0 115 51q51 -31 96 -104.5t53 -147.5q-145 -111 -334.5 -111zM745 1286q0 129 -32 213q63 33 148 33t140 -31
q12 -61 12.5 -153.5t-54 -205t-138.5 -171.5q-33 0 -72.5 20.5t-58.5 50.5q55 115 55 244z" />
    <glyph glyph-name="Tbar" unicode="&#x166;" horiz-adv-x="1155" 
d="M762 989v-241h162q14 -66 14 -122t-14 -118h-162v-508q-98 -16 -184 -16t-185 16v508h-157q-41 111 0 240h157v241h-354q-16 72 -16 163t16 163h1077q16 -72 16 -162t-16 -164h-354z" />
    <glyph glyph-name="tbar" unicode="&#x167;" horiz-adv-x="954" 
d="M613.5 -33q-189.5 0 -303 82t-113.5 254v80h-144q-18 39 -18 95t18 106h144v69h-164q-26 157 0 303h164v254q203 31 368 0v-254h320q16 -76 16 -148.5t-16 -154.5h-320v-69h176q28 -106 0 -201h-176q6 -104 119 -104q58 0 115 51q51 -31 96 -104.5t53 -147.5
q-145 -111 -334.5 -111z" />
    <glyph glyph-name="Utilde" unicode="&#x168;" horiz-adv-x="1370" 
d="M681 -39q-267 0 -424 146.5t-157 422.5v781q80 14 178.5 14t190.5 -14v-772q0 -115 59.5 -175.5t162.5 -60.5t161.5 60.5t58.5 175.5v772q78 14 173 14t188 -14v-766q0 -272 -162 -428t-429 -156zM530 1788q70 0 165.5 -38t127 -38t55 25.5t33.5 66.5q147 0 242 -84
q-20 -131 -104 -207.5t-193 -76.5q-74 0 -170 36.5t-125 36.5q-76 0 -96 -90q-59 0 -133 21.5t-109 62.5q20 133 105.5 209t201.5 76z" />
    <glyph glyph-name="utilde" unicode="&#x169;" horiz-adv-x="1157" 
d="M886.5 977q98.5 0 184.5 -14v-879q-59 -41 -196.5 -81t-303.5 -40q-494 0 -493 402v598q86 14 184 14t184 -14v-531q0 -82 32 -117.5t109 -35.5t115 24v660q86 14 184.5 14zM440 1487q59 0 141.5 -38t112 -38t53 23.5t33.5 62.5q147 0 242 -84q-20 -129 -104 -203.5
t-193 -74.5q-63 0 -146 36.5t-108 36.5q-76 0 -96 -96q-59 0 -133 21.5t-109 62.5q20 135 105.5 213t201.5 78z" />
    <glyph glyph-name="Umacron" unicode="&#x16a;" horiz-adv-x="1370" 
d="M681 -39q-267 0 -424 146.5t-157 422.5v781q80 14 178.5 14t190.5 -14v-772q0 -115 59.5 -175.5t162.5 -60.5t161.5 60.5t58.5 175.5v772q78 14 173 14t188 -14v-766q0 -272 -162 -428t-429 -156zM326 1605.5q0 67.5 20 123.5h688q34 -127 0 -238h-688q-20 47 -20 114.5z
" />
    <glyph glyph-name="umacron" unicode="&#x16b;" horiz-adv-x="1157" 
d="M886.5 977q98.5 0 184.5 -14v-879q-59 -41 -196.5 -81t-303.5 -40q-494 0 -493 402v598q86 14 184 14t184 -14v-531q0 -82 32 -117.5t109 -35.5t115 24v660q86 14 184.5 14zM213 1304q0 77 20 140h689q16 -70 16 -139.5t-16 -130.5h-689q-20 53 -20 130z" />
    <glyph glyph-name="Uring" unicode="&#x16e;" horiz-adv-x="1370" 
d="M681 -39q-267 0 -424 146.5t-157 422.5v781q80 14 178.5 14t190.5 -14v-772q0 -115 59.5 -175.5t162.5 -60.5t161.5 60.5t58.5 175.5v772q78 14 173 14t188 -14v-766q0 -272 -162 -428t-429 -156zM690 1538q35 0 58.5 24.5t23.5 60.5t-23.5 60.5t-58.5 24.5t-59.5 -25.5
t-24.5 -60.5t24.5 -59.5t59.5 -24.5zM689 1354q-110 0 -188.5 78.5t-78.5 190.5t79 189.5t188.5 77.5t188 -78.5t78.5 -189.5t-78.5 -189.5t-188.5 -78.5z" />
    <glyph glyph-name="uring" unicode="&#x16f;" horiz-adv-x="1157" 
d="M886.5 977q98.5 0 184.5 -14v-879q-59 -41 -196.5 -81t-303.5 -40q-494 0 -493 402v598q86 14 184 14t184 -14v-531q0 -82 32 -117.5t109 -35.5t115 24v660q86 14 184.5 14zM580 1395q-35 0 -59.5 -26t-24.5 -60.5t24.5 -59t59.5 -24.5t58.5 24.5t23.5 60.5t-23.5 60.5
t-58.5 24.5zM579 1040q-112 0 -192 79t-80 191t80 189.5t192 77.5t191.5 -79t79.5 -189.5t-79.5 -189.5t-191.5 -79z" />
    <glyph glyph-name="Uhungarumlaut" unicode="&#x170;" horiz-adv-x="1370" 
d="M681 -39q-267 0 -424 146.5t-157 422.5v781q80 14 178.5 14t190.5 -14v-772q0 -115 59.5 -175.5t162.5 -60.5t161.5 60.5t58.5 175.5v772q78 14 173 14t188 -14v-766q0 -272 -162 -428t-429 -156zM854 1346q-84 27 -131 108l233 354q162 -27 213 -174zM426 1346
q-80 25 -131 108l233 354q162 -25 213 -174z" />
    <glyph glyph-name="uhungarumlaut" unicode="&#x171;" horiz-adv-x="1157" 
d="M886.5 977q98.5 0 184.5 -14v-879q-59 -41 -196.5 -81t-303.5 -40q-494 0 -493 402v598q86 14 184 14t184 -14v-531q0 -82 32 -117.5t109 -35.5t115 24v660q86 14 184.5 14zM684 1059q-78 31 -123 115l264 389q76 -18 128.5 -68.5t70.5 -120.5zM301 1061q-82 29 -129 110
l250 396q162 -29 209 -178z" />
    <glyph glyph-name="Uogonek" unicode="&#x172;" horiz-adv-x="1370" 
d="M1084 1325q95 0 188 -14v-766q0 -203 -92.5 -343.5t-253.5 -199.5q-98 -74 -99 -145q0 -31 18.5 -47.5t46.5 -16.5t69 25q113 -68 112 -180q-88 -88 -223 -88.5t-201.5 56t-66.5 156.5t108 199h-2q-274 0 -431 146.5t-157 422.5v781q80 14 178.5 14t190.5 -14v-772
q0 -115 59.5 -175.5t162.5 -60.5t161.5 60.5t58.5 175.5v772q78 14 173 14z" />
    <glyph glyph-name="uogonek" unicode="&#x173;" horiz-adv-x="1157" 
d="M823 -137q0 -37 18.5 -53.5t46.5 -16.5t68 25q113 -68 113 -180q-88 -88 -223.5 -88.5t-201.5 56t-66 158.5t116 205q-59 -6 -123 -6q-494 0 -493 402v598q86 14 184 14t184 -14v-531q0 -82 32 -117.5t109 -35.5t115 24v660q86 14 184.5 14t184.5 -14v-879
q-35 -22 -90 -45q-72 -39 -115 -89t-43 -87z" />
    <glyph glyph-name="Wcircumflex" unicode="&#x174;" horiz-adv-x="2013" 
d="M1708 1327q221 0 295 -24q-178 -815 -377 -1299q-76 -14 -192.5 -14t-204.5 14l-195 649l-24 117l-21 -117l-186 -649q-72 -14 -194 -14t-216 14q-258 604 -381 1299q192 34 408 20q51 -449 192 -924l31 154l184 688q102 16 189.5 16t189.5 -16l193 -688l37 -164
q135 489 188 934q37 4 84 4zM739 1425q-90 43 -110 156l291 238q96 20 190 0l295 -228q-16 -113 -111 -166l-286 162z" />
    <glyph glyph-name="wcircumflex" unicode="&#x175;" horiz-adv-x="1613" 
d="M1402.5 981q96.5 0 205.5 -29q-70 -324 -139.5 -530.5t-194.5 -421.5q-80 -16 -179 -16t-180 16q-59 96 -116 225q-35 -129 -80 -225q-80 -16 -180 -16t-181 16q-145 213 -216.5 423t-131.5 529q104 29 217 29t191 -8q53 -442 129 -666q8 -25 12 -57q4 33 34.5 130
t59.5 277q-37 135 -63 295q100 29 203.5 29t177.5 -8q45 -397 110 -666q8 -33 13 -71q10 59 14 71q51 184 113 666q85 8 181.5 8zM553 1065q-49 18 -85 56t-46 83l285 307q96 23 194 0l270 -292q-25 -104 -133 -154l-241 186z" />
    <glyph glyph-name="Ycircumflex" unicode="&#x176;" horiz-adv-x="1300" 
d="M653 -14q-98 0 -190 14v492l-486 815q213 39 437 14l198 -365l52 -114l51 114l200 365q155 25 400 -12l-484 -836v-473q-80 -14 -178 -14zM385 1425q-90 43 -111 156l291 238q94 20 191 0l295 -228q-16 -113 -111 -166l-287 162z" />
    <glyph glyph-name="ycircumflex" unicode="&#x177;" horiz-adv-x="1114" 
d="M892 981q89 0 204 -29q-37 -473 -237 -832.5t-550 -565.5q-78 29 -133 101.5t-78 158.5q188 127 269 223q-145 219 -221 422t-134 493q111 29 222.5 29t189.5 -8q39 -344 139 -608q16 -39 23 -74q6 49 16 74q88 236 111 608q90 8 179 8zM326 1065q-49 18 -85 56t-46 83
l284 307q96 23 195 0l270 -292q-25 -104 -133 -154l-242 186z" />
    <glyph glyph-name="Ydieresis" unicode="&#x178;" horiz-adv-x="1300" 
d="M653 -14q-98 0 -190 14v492l-486 815q213 39 437 14l198 -365l52 -114l51 114l200 365q155 25 400 -12l-484 -836v-473q-80 -14 -178 -14zM919 1450q-73 0 -125.5 52t-52.5 125t52.5 124t125.5 51t125 -51t52 -124t-52 -125t-125 -52zM396 1450q-73 0 -125 52t-52 125
t52.5 124t125 51t124.5 -51t52 -124t-52 -125t-125 -52z" />
    <glyph glyph-name="Zacute" unicode="&#x179;" horiz-adv-x="1202" 
d="M1161 165q0 -77 -16 -165h-1082q-14 29 -14 84q0 94 72 195l493 708l-548 -2q-32 171 0 330h1062q14 -37 15 -84q0 -94 -72 -195l-436 -626l-66 -80h576q16 -88 16 -165zM379 1397q-66 57 -76 149l467 312q141 -106 141 -302z" />
    <glyph glyph-name="zacute" unicode="&#x17a;" horiz-adv-x="995" 
d="M45 70q0 96 55 161l381 439h-405q-23 63 -23 144t23 149h839q12 -27 13 -70q0 -111 -51 -182l-277 -353l-61 -65h395q49 -135 0 -293h-877q-12 31 -12 70zM315 1051q-76 53 -104 157l395 344q156 -82 189 -278z" />
    <glyph glyph-name="Zdotaccent" unicode="&#x17b;" horiz-adv-x="1202" 
d="M1161 165q0 -77 -16 -165h-1082q-14 29 -14 84q0 94 72 195l493 708l-548 -2q-32 171 0 330h1062q14 -37 15 -84q0 -94 -72 -195l-436 -626l-66 -80h576q16 -88 16 -165zM597 1409q-89 0 -151.5 62.5t-62.5 149.5t62.5 149.5t150.5 62.5t152.5 -62.5t64.5 -149.5
t-63.5 -149.5t-152.5 -62.5z" />
    <glyph glyph-name="zdotaccent" unicode="&#x17c;" horiz-adv-x="995" 
d="M45 70q0 96 55 161l381 439h-405q-23 63 -23 144t23 149h839q12 -27 13 -70q0 -111 -51 -182l-277 -353l-61 -65h395q49 -135 0 -293h-877q-12 31 -12 70zM488 1081q-89 0 -151.5 63.5t-62.5 150.5t62.5 149.5t150.5 62.5t153 -62.5t65 -149.5t-64 -150.5t-153 -63.5z
" />
    <glyph glyph-name="Zcaron" unicode="&#x17d;" horiz-adv-x="1202" 
d="M1161 165q0 -77 -16 -165h-1082q-14 29 -14 84q0 94 72 195l493 708l-548 -2q-32 171 0 330h1062q14 -37 15 -84q0 -94 -72 -195l-436 -626l-66 -80h576q16 -88 16 -165zM698 1436q-96 -23 -190 0l-295 237q20 106 111 158l286 -162l269 162q88 -43 108 -148z" />
    <glyph glyph-name="zcaron" unicode="&#x17e;" horiz-adv-x="995" 
d="M45 70q0 96 55 161l381 439h-405q-23 63 -23 144t23 149h839q12 -27 13 -70q0 -111 -51 -182l-277 -353l-61 -65h395q49 -135 0 -293h-877q-12 31 -12 70zM573 1083q-96 -23 -194 0l-270 293q25 104 133 154l241 -187l244 187q49 -18 85 -56t46 -83z" />
    <glyph glyph-name="uni01EA" unicode="&#x1ea;" horiz-adv-x="1507" 
d="M451 661q0 -164 81.5 -258t221 -94t221.5 94.5t82 258t-82 257t-221.5 93.5t-221 -93.5t-81.5 -257.5zM986 -207q28 0 69 25q113 -68 112 -180q-88 -88 -223 -88.5t-201.5 56t-66.5 156.5t108 199h-30q-311 0 -508 190.5t-197 505.5t197.5 509t508 194t507 -190.5
t196.5 -510.5q0 -233 -114.5 -404t-313.5 -247q-109 -74 -108 -151q0 -31 18 -47.5t46 -16.5z" />
    <glyph glyph-name="uni01EB" unicode="&#x1eb;" horiz-adv-x="1185" 
d="M414 486q0 -103 47 -162.5t133 -59.5t132 59.5t46 162.5t-46 163t-132 60t-133 -60t-47 -163zM719 -143q0 -31 18.5 -47.5t46 -16.5t68.5 25q113 -68 113 -180q-88 -88 -223.5 -88.5t-202 56t-66.5 158.5t111 199q-242 4 -390.5 141.5t-148.5 379t153.5 384t396.5 142.5
t394.5 -140.5t151.5 -384.5q0 -178 -87 -304t-239 -181q-96 -74 -96 -143z" />
    <glyph glyph-name="AEacute" unicode="&#x1fc;" horiz-adv-x="1878" 
d="M934 696v240l4 119l-59 -119l-142 -240h197zM932 0v406h-365l-237 -406q-76 -8 -187.5 -8t-185.5 22l743 1303l1082 -2q16 -72 16 -162t-16 -164h-482v-231h422q16 -63 16.5 -144.5t-16.5 -146.5h-422v-141h500q37 -166 0 -326h-868zM827 1397q-66 57 -75 149l467 312
q141 -106 141 -302z" />
    <glyph glyph-name="aeacute" unicode="&#x1fd;" horiz-adv-x="1640" 
d="M494 219q133 0 133 168h-117q-51 0 -82 -22.5t-31 -61.5q1 -84 97 -84zM1241 594q0 131 -115 131q-55 0 -89 -37t-36 -94h240zM1012 383q0 -127 204 -127q96 0 250 86q109 -92 119 -250q-188 -129 -420 -129q-272 0 -381 195q-121 -193 -387 -193q-152 0 -253 80
t-101 236t116.5 237.5t293.5 79.5l174 -2v6q0 104 -164 104.5t-277 -67.5q-113 100 -118 248q55 41 164.5 79t254.5 38q246 0 340 -158q49 78 138.5 118t193.5 40q193 0 308.5 -123t113.5 -332q0 -109 -10 -164h-559v-2zM637 1051q-76 53 -105 157l396 344q156 -82 188 -278
z" />
    <glyph glyph-name="Oslashacute" unicode="&#x1fe;" horiz-adv-x="1507" 
d="M753.5 309q139.5 0 221.5 94.5t82 258t-82 257t-221.5 93.5t-221 -93.5t-81.5 -257.5t81.5 -258t221 -94zM1458 659q0 -311 -197.5 -504.5t-506.5 -193.5q-190 0 -346 76l-175 -191q-186 59 -251 242l168 184q-100 168 -101 387q0 313 197.5 507t507.5 194q176 0 323 -66
l156 176q180 -67 252 -237l-144 -160q117 -170 117 -414zM551 1397q-66 57 -76 149l467 312q141 -106 141 -302z" />
    <glyph glyph-name="oslashacute" unicode="&#x1ff;" horiz-adv-x="1185" 
d="M594 264q86 0 132 59.5t46 162.5t-46 163t-132 60t-133 -59.5t-47 -163t47 -163t133 -59.5zM1141 485q0 -238 -151.5 -380t-395.5 -142q-131 0 -242 41l-104 -117q-156 51 -211 201l88 98q-80 125 -80 299q0 240 153.5 382.5t395.5 142.5q129 0 235 -41l103 112
q158 -50 211 -200l-84 -93q82 -127 82 -303zM422 1051q-76 53 -105 157l396 344q156 -82 188 -278z" />
    <glyph glyph-name="Scommaaccent" unicode="&#x218;" horiz-adv-x="1169" 
d="M487 -262.5q0 85.5 -22 151.5q63 29 149 29t140 -27q4 -41 4 -63q0 -109 -46 -204t-128 -150q-92 0 -140 69q43 109 43 194.5zM586 -33q-354 0 -547 158q6 96 49 177t111 120q162 -117 395 -117q162 0 162 66q0 41 -43 64.5t-226.5 69.5t-293 135t-111.5 282.5
t145.5 310.5t393.5 117q162 0 284.5 -41t190.5 -97q-6 -92 -49 -174t-117 -125q-137 98 -338 99q-154 0 -154 -66q0 -37 42 -57.5t228.5 -65.5t293 -137t110.5 -254q6 -223 -134 -344t-392 -121z" />
    <glyph glyph-name="scommaaccent" unicode="&#x219;" horiz-adv-x="1001" 
d="M403 -262.5q0 85.5 -22 151.5q63 29 149 29t140 -27q4 -41 4 -63q0 -109 -46 -204t-128 -150q-92 0 -140 69q43 109 43 194.5zM494 -39q-152 0 -272 38t-183 87q20 172 131 244q168 -100 340 -101q74 0 74 47q0 27 -37 42.5t-131.5 37.5t-140.5 40t-99 52
q-106 67 -106 225.5t127 244.5t317 86q268 0 422 -91q-23 -180 -121 -249q-131 70 -264.5 69.5t-132.5 -45.5q0 -27 33.5 -38t132 -30.5t151.5 -37.5q53 -20 107 -54q110 -69 110 -228t-118.5 -249t-339.5 -90z" />
    <glyph glyph-name="uni021A" unicode="&#x21a;" horiz-adv-x="1155" 
d="M586 -82q86 0 139 -27q4 -41 4 -63q0 -109 -46 -204t-128 -150q-92 0 -139 69q43 109 43 194.5t-23 151.5q64 29 150 29zM1133 1153q0 -90 -17 -164h-354v-989q-98 -16 -184 -16t-185 16v989h-354q-16 72 -16 163t16 163h1077q17 -72 17 -162z" />
    <glyph glyph-name="uni021B" unicode="&#x21b;" horiz-adv-x="954" 
d="M567 -82q86 0 140 -27q4 -41 4 -63q0 -109 -46.5 -204t-127.5 -150q-92 0 -140 69q43 109 43 194.5t-22 151.5q63 29 149 29zM613.5 -33q-189.5 0 -303 82t-113.5 254v350h-164q-26 157 0 303h164v254q203 31 368 0v-254h320q16 -76 16 -148.5t-16 -154.5h-320v-256
q0 -119 119 -118q57 0 115 51q51 -31 96 -104.5t53 -147.5q-145 -111 -334.5 -111z" />
    <glyph glyph-name="circumflex" unicode="&#x2c6;" horiz-adv-x="899" 
d="M549 1511l270 -292q-25 -104 -133 -154l-242 186l-243 -186q-49 18 -85 56t-46 83l284 307q97 23 195 0z" />
    <glyph glyph-name="caron" unicode="&#x2c7;" horiz-adv-x="888" 
d="M340 1083l-270 293q25 104 133 154l241 -187l244 187q49 -18 85 -56t46 -83l-284 -308q-97 -23 -195 0z" />
    <glyph glyph-name="breve" unicode="&#x2d8;" horiz-adv-x="944" 
d="M473.5 1079q-191.5 0 -304 115t-112.5 258q102 41 236 29q20 -78 75.5 -115t115 -37t114.5 39t68 113q139 14 225 -33q0 -141 -113 -255t-304.5 -114z" />
    <glyph glyph-name="dotaccent" unicode="&#x2d9;" horiz-adv-x="634" 
d="M316 1081q-89 0 -151.5 63.5t-62.5 150.5t62.5 149.5t150.5 62.5t152.5 -62.5t64.5 -149.5t-63.5 -150.5t-152.5 -63.5z" />
    <glyph glyph-name="ring" unicode="&#x2da;" horiz-adv-x="616" 
d="M309 1225q35 0 58.5 24.5t23.5 60.5t-23.5 60.5t-58.5 24.5t-59.5 -26t-24.5 -60.5t24.5 -59t59.5 -24.5zM308 1040q-112 0 -191.5 79t-79.5 191t80 189.5t191.5 77.5t191.5 -79t80 -189.5t-80 -189.5t-192 -79z" />
    <glyph glyph-name="ogonek" unicode="&#x2db;" horiz-adv-x="573" 
d="M236 -451q-136 1 -202 57t-67 151q0 95 79 175t181 131h197q-94 -37 -152 -97t-59 -100q0 -71 61 -73q31 0 72 25q113 -68 113 -180q-87 -89 -223 -89z" />
    <glyph glyph-name="tilde" unicode="&#x2dc;" horiz-adv-x="983" 
d="M354 1487q59 0 141.5 -38t112 -38t53 23.5t33.5 62.5q147 0 242 -84q-20 -129 -104 -203.5t-193 -74.5q-63 0 -146 36.5t-108 36.5q-76 0 -96 -96q-59 0 -133 21.5t-109 62.5q20 135 105.5 213t201.5 78z" />
    <glyph glyph-name="hungarumlaut" unicode="&#x2dd;" horiz-adv-x="841" 
d="M514 1059q-78 31 -123 115l264 389q76 -18 128.5 -68.5t70.5 -120.5zM131 1061q-82 29 -129 110l250 396q162 -29 209 -178z" />
    <glyph glyph-name="gravecomb" unicode="&#x300;" 
d="M-150 1051l-479 223q33 197 189 278l395 -352q-25 -96 -105 -149z" />
    <glyph glyph-name="acutecomb" unicode="&#x301;" 
d="M-492 1051q-76 53 -104 157l395 344q156 -82 189 -278z" />
    <glyph glyph-name="uni0302" unicode="&#x302;" 
d="M-352 1511l270 -292q-25 -104 -133 -154l-242 186l-243 -186q-49 18 -85 56t-46 83l284 307q97 23 195 0z" />
    <glyph glyph-name="tildecomb" unicode="&#x303;" 
d="M-629 1487q59 0 141 -38t112 -38t53.5 23.5t33.5 62.5q147 0 242 -84q-20 -129 -104.5 -203.5t-192.5 -74.5q-63 0 -146 36.5t-108 36.5q-76 0 -96 -96q-59 0 -133 21.5t-109 62.5q20 135 105.5 213t201.5 78z" />
    <glyph glyph-name="uni0304" unicode="&#x304;" 
d="M-41 1304.5q0 -69.5 -16 -130.5h-688q-20 53 -20.5 130t20.5 140h688q16 -70 16 -139.5z" />
    <glyph glyph-name="uni0306" unicode="&#x306;" 
d="M-470.5 1079q-191.5 0 -304 115t-112.5 258q102 41 236 29q20 -78 75.5 -115t115 -37t114.5 39t67 113q139 14 226 -33q0 -141 -113 -255t-304.5 -114z" />
    <glyph glyph-name="uni0307" unicode="&#x307;" 
d="M-316 1081q-89 0 -151.5 63.5t-62.5 150.5t62 149.5t150.5 62.5t153 -62.5t64.5 -149.5t-63.5 -150.5t-152.5 -63.5z" />
    <glyph glyph-name="uni0308" unicode="&#x308;" 
d="M-218 1102q-73 0 -125 52t-52 125t52 124t125 51t125 -51t52 -124t-52 -125t-125 -52zM-708 1102q-73 0 -125 52t-52 125t52.5 124t125 51t125 -51t52.5 -124t-52.5 -125t-125.5 -52z" />
    <glyph glyph-name="uni030A" unicode="&#x30a;" 
d="M-287 1225q35 0 58.5 24.5t23.5 60.5t-23.5 60.5t-58.5 24.5t-59.5 -26t-24.5 -60.5t24.5 -59t59.5 -24.5zM-288 1040q-112 0 -191.5 79t-79.5 191t80 189.5t191.5 77.5t191.5 -79t80 -189.5t-80 -189.5t-192 -79z" />
    <glyph glyph-name="uni030B" unicode="&#x30b;" 
d="M-399 1059q-78 31 -123 115l264 389q76 -18 128 -68.5t71 -120.5zM-782 1061q-82 29 -129 110l249 396q162 -29 209 -178z" />
    <glyph glyph-name="uni030C" unicode="&#x30c;" 
d="M-559 1083l-270 293q25 104 133 154l241 -187l244 187q49 -18 85 -56t46 -83l-285 -308q-96 -23 -194 0z" />
    <glyph glyph-name="uni0326" unicode="&#x326;" 
d="M-360 -262.5q0 85.5 -23 151.5q63 29 149.5 29t139.5 -27q4 -41 4 -63q0 -109 -46 -204t-128 -150q-92 0 -139 69q43 109 43 194.5z" />
    <glyph glyph-name="uni0327" unicode="&#x327;" 
d="M-76 -248q0 -121 -84 -175t-175 -54t-158.5 18.5t-98.5 44.5q-6 102 72 162q41 -29 94 -29q72 0 72 60q0 66 -131 69l65 175h191l-35 -97q188 -31 188 -174z" />
    <glyph glyph-name="uni0328" unicode="&#x328;" 
d="M-397 -134q1 -73 65 -73q28 0 68 25q113 -68 112 -180q-87 -89 -222.5 -89t-202 56.5t-66.5 151.5t79 175t181 131h197q-94 -37 -152.5 -97t-58.5 -100z" />
    <glyph glyph-name="uni0335" unicode="&#x335;" 
d="M-784 1026q0 55 18 104h688q28 -107 0 -200h-688q-18 41 -18 96z" />
    <glyph glyph-name="uni0336" unicode="&#x336;" 
d="M-41 966.5q0 -57.5 -16 -106.5h-1487q-20 43 -20.5 105.5t20.5 111.5h1487q16 -53 16 -110.5z" />
    <glyph glyph-name="uni0337" unicode="&#x337;" 
d="M-700 506q-39 29 -67 85t-32 107l652 344q80 -86 92 -196z" />
    <glyph glyph-name="uni0338" unicode="&#x338;" 
d="M-1032 -76q-82 29 -111 111l899 993q80 -29 111 -102z" />
    <glyph glyph-name="Wgrave" unicode="&#x1e80;" horiz-adv-x="2013" 
d="M1708 1327q221 0 295 -24q-178 -815 -377 -1299q-76 -14 -192.5 -14t-204.5 14l-195 649l-24 117l-21 -117l-186 -649q-72 -14 -194 -14t-216 14q-258 604 -381 1299q192 34 408 20q51 -449 192 -924l31 154l184 688q102 16 189.5 16t189.5 -16l193 -688l37 -164
q135 489 188 934q37 4 84 4zM1292 1546q-10 -92 -73 -149l-535 159q4 199 143 302z" />
    <glyph glyph-name="wgrave" unicode="&#x1e81;" horiz-adv-x="1613" 
d="M1402.5 981q96.5 0 205.5 -29q-70 -324 -139.5 -530.5t-194.5 -421.5q-80 -16 -179 -16t-180 16q-59 96 -116 225q-35 -129 -80 -225q-80 -16 -180 -16t-181 16q-145 213 -216.5 423t-131.5 529q104 29 217 29t191 -8q53 -442 129 -666q8 -25 12 -57q4 33 34.5 130
t59.5 277q-37 135 -63 295q100 29 203.5 29t177.5 -8q45 -397 110 -666q8 -33 13 -71q10 59 14 71q51 184 113 666q85 8 181.5 8zM1075 1200q-25 -96 -104 -149l-479 223q33 197 188 278z" />
    <glyph glyph-name="Wacute" unicode="&#x1e82;" horiz-adv-x="2013" 
d="M1708 1327q221 0 295 -24q-178 -815 -377 -1299q-76 -14 -192.5 -14t-204.5 14l-195 649l-24 117l-21 -117l-186 -649q-72 -14 -194 -14t-216 14q-258 604 -381 1299q192 34 408 20q51 -449 192 -924l31 154l184 688q102 16 189.5 16t189.5 -16l193 -688l37 -164
q135 489 188 934q37 4 84 4zM793 1397q-66 57 -76 149l467 312q141 -106 141 -302z" />
    <glyph glyph-name="wacute" unicode="&#x1e83;" horiz-adv-x="1613" 
d="M1402.5 981q96.5 0 205.5 -29q-70 -324 -139.5 -530.5t-194.5 -421.5q-80 -16 -179 -16t-180 16q-59 96 -116 225q-35 -129 -80 -225q-80 -16 -180 -16t-181 16q-145 213 -216.5 423t-131.5 529q104 29 217 29t191 -8q53 -442 129 -666q8 -25 12 -57q4 33 34.5 130
t59.5 277q-37 135 -63 295q100 29 203.5 29t177.5 -8q45 -397 110 -666q8 -33 13 -71q10 59 14 71q51 184 113 666q85 8 181.5 8zM631 1051q-76 53 -105 157l396 344q156 -82 188 -278z" />
    <glyph glyph-name="Wdieresis" unicode="&#x1e84;" horiz-adv-x="2013" 
d="M1708 1327q221 0 295 -24q-178 -815 -377 -1299q-76 -14 -192.5 -14t-204.5 14l-195 649l-24 117l-21 -117l-186 -649q-72 -14 -194 -14t-216 14q-258 604 -381 1299q192 34 408 20q51 -449 192 -924l31 154l184 688q102 16 189.5 16t189.5 -16l193 -688l37 -164
q135 489 188 934q37 4 84 4zM1273 1450q-73 0 -125 52t-52 125t52 124t125 51t125 -51t52 -124t-52 -125t-125 -52zM751 1450q-73 0 -125.5 52t-52.5 125t52.5 124t125.5 51t125 -51t52 -124t-52 -125t-125 -52z" />
    <glyph glyph-name="wdieresis" unicode="&#x1e85;" horiz-adv-x="1613" 
d="M1402.5 981q96.5 0 205.5 -29q-70 -324 -139.5 -530.5t-194.5 -421.5q-80 -16 -179 -16t-180 16q-59 96 -116 225q-35 -129 -80 -225q-80 -16 -180 -16t-181 16q-145 213 -216.5 423t-131.5 529q104 29 217 29t191 -8q53 -442 129 -666q8 -25 12 -57q4 33 34.5 130
t59.5 277q-37 135 -63 295q100 29 203.5 29t177.5 -8q45 -397 110 -666q8 -33 13 -71q10 59 14 71q51 184 113 666q85 8 181.5 8zM1048 1102q-73 0 -125.5 52t-52.5 125t52.5 124t125.5 51t125 -51t52 -124t-52 -125t-125 -52zM558 1102q-73 0 -125 52t-52 125t52 124
t125 51t125 -51t52 -124t-52 -125t-125 -52z" />
    <glyph glyph-name="uni1E9E" unicode="&#x1e9e;" horiz-adv-x="1433" 
d="M1202 971q-156 0 -154 -75q0 -36 18 -58q16 -22 77 -70q71 -51 97 -74q108 -94 133 -185q17 -60 18 -142q0 -182 -123 -291t-314 -109q-128 0 -240 42t-159 93q6 90 52 169t120 124q109 -96 223 -96q70 0 70 53q0 31 -23 54t-132 96t-161 136t-53 148q0 127 82 199
q-70 -6 -149 -6q-111 0 -111 -107v-872q-80 -14 -178 -14t-191 14v862q0 197 120 325t335 128h643q33 -177 0 -344z" />
    <glyph glyph-name="Ygrave" unicode="&#x1ef2;" horiz-adv-x="1300" 
d="M653 -14q-98 0 -190 14v492l-486 815q213 39 437 14l198 -365l52 -114l51 114l200 365q155 25 400 -12l-484 -836v-473q-80 -14 -178 -14zM938 1546q-10 -92 -74 -149l-534 159q4 199 143 302z" />
    <glyph glyph-name="ygrave" unicode="&#x1ef3;" horiz-adv-x="1114" 
d="M892 981q89 0 204 -29q-37 -473 -237 -832.5t-550 -565.5q-78 29 -133 101.5t-78 158.5q188 127 269 223q-145 219 -221 422t-134 493q111 29 222.5 29t189.5 -8q39 -344 139 -608q16 -39 23 -74q6 49 16 74q88 236 111 608q90 8 179 8zM848 1200q-25 -96 -105 -149
l-479 223q33 197 189 278z" />
    <glyph glyph-name="uni1EF8" unicode="&#x1ef8;" horiz-adv-x="1300" 
d="M653 -14q-98 0 -190 14v492l-486 815q213 39 437 14l198 -365l52 -114l51 114l200 365q155 25 400 -12l-484 -836v-473q-80 -14 -178 -14zM791 1712q65 0 90 92q147 0 241 -84q-20 -131 -104 -207.5t-193 -76.5q-74 0 -170 36.5t-125 36.5q-76 0 -96 -90q-59 0 -133 21.5
t-108 62.5q20 133 105 209t202 76q70 0 165 -38t126 -38z" />
    <glyph glyph-name="uni1EF9" unicode="&#x1ef9;" horiz-adv-x="1114" 
d="M892 981q89 0 204 -29q-37 -473 -237 -832.5t-550 -565.5q-78 29 -133 101.5t-78 158.5q188 127 269 223q-145 219 -221 422t-134 493q111 29 222.5 29t189.5 -8q39 -344 139 -608q16 -39 23 -74q6 49 16 74q88 236 111 608q90 8 179 8zM438 1487q59 0 141.5 -38t112 -38
t53 23.5t33.5 62.5q147 0 242 -84q-20 -129 -104.5 -203.5t-192.5 -74.5q-63 0 -146 36.5t-108 36.5q-76 0 -96 -96q-59 0 -133 21.5t-109 62.5q20 135 105.5 213t201.5 78z" />
    <glyph glyph-name="endash" unicode="&#x2013;" horiz-adv-x="1128" 
d="M1034 518q0 -60 -16 -115h-905q-21 43 -21 110t21 120h905q16 -55 16 -115z" />
    <glyph glyph-name="emdash" unicode="&#x2014;" horiz-adv-x="2156" 
d="M2060 516q0 -62 -16 -117h-1929q-20 47 -21 115q0 68 21 123h1929q16 -59 16 -121z" />
    <glyph glyph-name="quoteleft" unicode="&#x2018;" horiz-adv-x="442" 
d="M214 862q-87 0 -134 19q-23 61 -23 161q1 100 57 214q56 116 136 180q96 -4 135 -74q-59 -125 -59 -253t41 -210q-66 -37 -153 -37z" />
    <glyph glyph-name="quoteright" unicode="&#x2019;" horiz-adv-x="428" 
d="M228 1436q92 0 130 -19q23 -61 23 -161q-1 -100 -57 -214t-138 -180q-40 2 -78 22t-55 52q59 124 59 252t-40 211q64 37 156 37z" />
    <glyph glyph-name="quotesinglbase" unicode="&#x201a;" horiz-adv-x="446" 
d="M102 32q0 128 -41 210q63 37 156 37t131 -19q23 -60 23 -160q-1 -100 -57 -216t-138 -179q-39 1 -78 21t-55 53q59 125 59 253z" />
    <glyph glyph-name="quotedblleft" unicode="&#x201c;" horiz-adv-x="827" 
d="M599 862q-87 0 -134 19q-23 61 -23 161t56 214q56 116 137 180q96 -4 135 -74q-59 -125 -59 -253t41 -210q-66 -37 -153 -37zM214 862q-87 0 -134 19q-23 61 -23 161q1 100 57 214q56 116 136 180q96 -4 135 -74q-59 -125 -59 -253t41 -210q-66 -37 -153 -37z" />
    <glyph glyph-name="quotedblright" unicode="&#x201d;" horiz-adv-x="813" 
d="M612 1436q92 0 131 -19q23 -61 23 -161t-56 -214t-139 -180q-39 2 -77 22t-56 52q60 124 60 252t-41 211q63 37 155 37zM228 1436q92 0 130 -19q23 -61 23 -161q-1 -100 -57 -214t-138 -180q-40 2 -78 22t-55 52q59 124 59 252t-40 211q64 37 156 37z" />
    <glyph glyph-name="quotedblbase" unicode="&#x201e;" horiz-adv-x="831" 
d="M487 32q0 128 -41 210q63 37 156 37t131 -19q23 -60 23 -160t-56 -216t-139 -179q-39 1 -78 21t-55 53q59 125 59 253zM102 32q0 128 -41 210q63 37 156 37t131 -19q23 -60 23 -160q-1 -100 -57 -216t-138 -179q-39 1 -78 21t-55 53q59 125 59 253z" />
    <glyph glyph-name="dagger" unicode="&#x2020;" horiz-adv-x="1064" 
d="M995 1018q0 -72 -18 -174l-289 26v-1228q-61 -18 -152 -18t-159 18v1228l-289 -26q-18 96 -18 164t18 163l289 -26v340q78 16 157 16t154 -16v-340l289 26q18 -81 18 -153z" />
    <glyph glyph-name="daggerdbl" unicode="&#x2021;" horiz-adv-x="1064" 
d="M995 126q0 -72 -18 -175l-289 26v-335q-61 -18 -152 -18t-159 18v335l-289 -26q-18 96 -18 164t18 164l289 -27v618l-289 -26q-18 96 -18 164t18 163l289 -26v340q78 16 157 16t154 -16v-340l289 26q18 -82 18 -153t-18 -174l-289 26v-618l289 27q18 -81 18 -153z" />
    <glyph glyph-name="bullet" unicode="&#x2022;" horiz-adv-x="708" 
d="M354 309q-100 0 -173 73t-73 174t72 174t174 73t174 -73t72 -174t-73 -174t-173 -73z" />
    <glyph glyph-name="ellipsis" unicode="&#x2026;" horiz-adv-x="1310" 
d="M1071 -43q-74 0 -128 54t-54 128t53 128q53 55 128 55t129 -54t54 -128q0 -75 -54 -129t-128 -54zM654 -43q-75 0 -129 54t-54 129t54 128q54 54 129 54t128 -54q54 -54 54 -128q0 -75 -54 -129t-128 -54zM239 -43q-75 0 -129 54t-54 129t54 128q54 54 129 54t128 -54
t53 -128q0 -75 -53 -129t-128 -54z" />
    <glyph glyph-name="perthousand" unicode="&#x2030;" horiz-adv-x="2363" 
d="M1853 279q0 -136 118 -136t118 136q0 59 -30 97t-88 38t-88 -38t-30 -97zM1118 279q0 -136 118 -136t118 136q0 59 -30 97t-88 38t-88 -38t-30 -97zM2306 278q0 -142 -89 -232t-246 -89q-157 0 -246 89q-89 90 -89 232t89 230t246 88t246 -88t89 -230zM1571 278
q0 -142 -89 -232t-246 -89q-157 0 -246 89q-89 90 -89 232t89 230t246 88t246 -88t89 -230zM266 1008q0 -60 30 -98t88 -38t88 37t30 99t-30 98q-30 37 -88 37t-88 -37t-30 -98zM719 1008q0 -140 -89 -230t-246 -90t-246 89t-89 231t89 229q89 88 246 88t246 -88t89 -229z
M197 -96l927 1431q117 20 234 0l-928 -1431q-116 -14 -233 0z" />
    <glyph glyph-name="guilsinglleft" unicode="&#x2039;" horiz-adv-x="589" 
d="M389 133l-344 383l332 383q94 -14 137 -82l-147 -297l149 -307q-39 -68 -127 -80z" />
    <glyph glyph-name="guilsinglright" unicode="&#x203a;" horiz-adv-x="591" 
d="M213 133q-94 14 -137 82l149 297l-151 307q39 68 127 80l344 -381z" />
    <glyph glyph-name="fraction" unicode="&#x2044;" horiz-adv-x="1157" 
d="M-14 -96l970 1499q129 18 261 0l-971 -1499q-137 -20 -260 0z" />
    <glyph glyph-name="Euro" unicode="&#x20ac;" horiz-adv-x="1320" 
d="M857 -33q-253 0 -411 129t-208 355h-179q-8 33 -8 75t8 74h158q-2 20 -2 60t2 55h-123q-8 33 -8 75t8 74h144q51 228 215 362t396 134t388 -115q-12 -90 -63 -176t-125 -129q-74 68 -179 68q-164 0 -221 -144h258q8 -49 8 -75t-8 -74h-289q-2 -16 -2 -55t2 -60h254
q13 -80 0 -149h-217q61 -137 209 -138q123 0 199 72q166 -100 201 -297q-154 -121 -407 -121z" />
    <glyph glyph-name="trademark" unicode="&#x2122;" horiz-adv-x="1673" 
d="M678 1256q0 -62 -8 -111h-178v-518q-82 -9 -123 -9t-127 9v518h-176q-10 43 -10 111t10 112h604q8 -50 8 -112zM1424 1374q68 0 135 -8v-739q-63 -6 -113 -6t-119 6v215l16 104l-114 -260q-49 -6 -84 -6t-88 6l-80 156l-39 88l12 -88v-215q-57 -6 -108 -6t-123 6v739
q74 8 139 8t123 -8l154 -336l14 -49l12 49l137 336q58 8 126 8z" />
    <glyph glyph-name="minus" unicode="&#x2212;" horiz-adv-x="1105" 
d="M111 377q-12 53 -13 112q0 59 13 113h884q26 -117 0 -225h-884z" />
    <glyph glyph-name="approxequal" unicode="&#x2248;" horiz-adv-x="1036" 
d="M354 414q78 0 178 -41t159 -41t120 82q39 -10 81 -46t62 -85q-47 -87 -123 -135q-75 -48 -153 -48t-181 41t-143 41q-78 0 -127 -80q-43 12 -85 50t-60 79q45 83 119 133q75 50 153 50zM354 817q78 0 178 -41t159 -41t120 82q39 -8 81 -44t62 -87q-47 -86 -123 -134
q-75 -48 -153 -48t-181 41t-143 41q-82 0 -129 -80q-43 12 -85 49t-58 80q45 84 119 133q75 49 153 49z" />
    <glyph glyph-name="notequal" unicode="&#x2260;" horiz-adv-x="1103" 
d="M590 383h401q26 -117 0 -225h-534l-152 -252q-88 12 -129 88l98 164h-165q-10 61 -11 112q0 51 11 113h303l108 182h-411q-19 117 0 226h548l129 215q84 -12 129 -80l-79 -135h155q25 -117 0 -226h-291z" />
    <glyph glyph-name="dotlessj" unicode="&#xf6be;" horiz-adv-x="561" 
d="M473 27q1 -207 -113 -322t-292 -115t-273 74q0 68 40 144t102 114q39 -28 81 -28q87 1 86 114v967q80 14 178 14t191 -14v-948z" />
    <glyph glyph-name="uniF8FF" unicode="&#xf8ff;" horiz-adv-x="2971" 
d="M2253 31q8 0 8 6t-8 6h-15v-12h15zM2238 23v-19h-10v47h23q20 0 20 -14t-14 -14l12 -19h-12l-8 19h-11zM2212 27q0 -37 37 -37t37 37t-37 36q-37 1 -37 -36zM2200 27q0 47 49 47t49 -47t-49 -47t-49 47zM1448 223q0 47 -43 47t-43 -63q0 -29 10 -60q30 -1 53 23t23 53z
M1921 223h82q6 55 -35 56q-47 0 -47 -56zM2191 260q0 -43 -6 -72h-254q23 -36 98 -36t117 24v-153q-47 -33 -159 -33q-289 0 -289 250q0 122 66 190t185 68q118 0 180 -62t62 -176zM1501 498q76 0 120 -60t44 -172q0 -276 -281 -276q2 -31 2 -80h-243q0 291 20 577h160
q14 -86 14 -155q35 166 164 166zM877 487h213q20 -106 20 -277t-69 -242t-242 -70q-125 0 -181 34v170q49 -32 118 -32q136 1 136 57q-33 -23 -100 -23q-184 0 -184 170v27h-113l6 -133q12 -8 35 -8t33 10v-150q-39 -30 -135 -30t-133 35t-37 113t6 163h-37v164l240 59
l-2 -37h362v-243q0 -33 6 -44t25 -12q33 0 33 56v243zM2562 764q0 57 -45 57t-45 -57t45 -57t45 57zM799 764q0 57 -47 57t-47 -57t47 -57t47 57zM2519 1053q248 0 248 -255t-251 -255t-251 255t254 255zM1708 553q0 358 21 489h163q12 -90 13 -155q4 31 13 61t49 68
q39 37 113 37q74 1 108 -51t38 -166l6 -283h-233l4 190q0 59 -31 60q-37 0 -37 -60l7 -190h-234zM1012 813v-260h-170l-17 125q-24 -135 -153 -135q-188 0 -189 233q0 276 275 277q254 0 254 -240zM1032 854v162l244 61l2 -35h364q20 -131 21 -489h-242q0 188 6 301h-124
l6 -133q9 -8 33 -8t34 10v-152q-29 -31 -139 -30q-168 0 -168 135l8 178h-45zM449 553h-244q0 274 18 643h205q21 -410 21 -643zM1415 1195q0 52 36 89t89 37t90 -37t37 -90t-37 -89t-90 -36t-89 37t-36 89z" />
    <glyph glyph-name="A.ss01" horiz-adv-x="1296" 
d="M502 516h291q-43 141 -109 320l-31 75l-30 -75q-62 -144 -121 -320zM175.5 -8q-106.5 0 -179.5 22q168 674 473 1301q74 12 184.5 12t184.5 -12q287 -614 462 -1301q-209 -38 -368 -14q-16 72 -53 211h-469q-10 -39 -27.5 -110.5t-26.5 -100.5q-74 -8 -180.5 -8z" />
    <glyph glyph-name="Aacute.ss01" horiz-adv-x="1296" 
d="M502 516h291q-43 141 -109 320l-31 75l-30 -75q-62 -144 -121 -320zM175.5 -8q-106.5 0 -179.5 22q168 674 473 1301q74 12 184.5 12t184.5 -12q287 -614 462 -1301q-209 -38 -368 -14q-16 72 -53 211h-469q-10 -39 -27.5 -110.5t-26.5 -100.5q-74 -8 -180.5 -8z
M430 1397q-66 57 -76 149l467 312q141 -106 142 -302z" />
    <glyph glyph-name="Abreve.ss01" horiz-adv-x="1296" 
d="M502 516h291q-43 141 -109 320l-31 75l-30 -75q-62 -144 -121 -320zM175.5 -8q-106.5 0 -179.5 22q168 674 473 1301q74 12 184.5 12t184.5 -12q287 -614 462 -1301q-209 -38 -368 -14q-16 72 -53 211h-469q-10 -39 -27.5 -110.5t-26.5 -100.5q-74 -8 -180.5 -8z
M652 1415q-185 0 -293.5 105.5t-108.5 251.5q86 39 207 28q41 -133 205 -133q66 0 121 31t69 102q119 14 199 -28q0 -143 -107 -250t-292 -107z" />
    <glyph glyph-name="Acircumflex.ss01" horiz-adv-x="1296" 
d="M502 516h291q-43 141 -109 320l-31 75l-30 -75q-62 -144 -121 -320zM175.5 -8q-106.5 0 -179.5 22q168 674 473 1301q74 12 184.5 12t184.5 -12q287 -614 462 -1301q-209 -38 -368 -14q-16 72 -53 211h-469q-10 -39 -27.5 -110.5t-26.5 -100.5q-74 -8 -180.5 -8z
M377 1425q-90 43 -111 156l291 238q94 20 191 0l294 -228q-16 -113 -110 -166l-287 162z" />
    <glyph glyph-name="Adieresis.ss01" horiz-adv-x="1296" 
d="M502 516h291q-43 141 -109 320l-31 75l-30 -75q-62 -144 -121 -320zM175.5 -8q-106.5 0 -179.5 22q168 674 473 1301q74 12 184.5 12t184.5 -12q287 -614 462 -1301q-209 -38 -368 -14q-16 72 -53 211h-469q-10 -39 -27.5 -110.5t-26.5 -100.5q-74 -8 -180.5 -8z
M910 1450q-73 0 -125 52t-52 125t52.5 124t125 51t124.5 -51t52 -124t-52 -125t-125 -52zM388 1450q-73 0 -125 52t-52 125t52 124t125 51t125 -51t52 -124t-52 -125t-125 -52z" />
    <glyph glyph-name="Agrave.ss01" horiz-adv-x="1296" 
d="M502 516h291q-43 141 -109 320l-31 75l-30 -75q-62 -144 -121 -320zM175.5 -8q-106.5 0 -179.5 22q168 674 473 1301q74 12 184.5 12t184.5 -12q287 -614 462 -1301q-209 -38 -368 -14q-16 72 -53 211h-469q-10 -39 -27.5 -110.5t-26.5 -100.5q-74 -8 -180.5 -8z
M930 1546q-10 -92 -74 -149l-534 159q4 199 143 302z" />
    <glyph glyph-name="Amacron.ss01" horiz-adv-x="1296" 
d="M502 516h291q-43 141 -109 320l-31 75l-30 -75q-62 -144 -121 -320zM175.5 -8q-106.5 0 -179.5 22q168 674 473 1301q74 12 184.5 12t184.5 -12q287 -614 462 -1301q-209 -38 -368 -14q-16 72 -53 211h-469q-10 -39 -27.5 -110.5t-26.5 -100.5q-74 -8 -180.5 -8z
M287 1605.5q0 67.5 20 123.5h688q16 -59 16 -121t-16 -117h-688q-20 47 -20 114.5z" />
    <glyph glyph-name="Aogonek.ss01" horiz-adv-x="1296" 
d="M502 516h291q-43 141 -109 320l-31 75l-30 -75q-62 -144 -121 -320zM1028 -145q0 -74 84 -74q39 0 92 41q113 -68 113 -180q-100 -104 -273 -105q-115 0 -188.5 59.5t-73.5 151.5t47.5 156.5t102.5 95.5q-16 72 -53 211h-469q-10 -39 -27.5 -110.5t-26.5 -100.5
q-74 -8 -180.5 -8t-179.5 22q168 674 473 1301q74 12 184 12t185 -12q287 -614 462 -1301l-32 -6q-240 -41 -240 -153z" />
    <glyph glyph-name="Aring.ss01" horiz-adv-x="1296" 
d="M502 516h291q-43 141 -109 320l-31 75l-30 -75q-62 -144 -121 -320zM175.5 -8q-106.5 0 -179.5 22q168 674 473 1301q74 12 184.5 12t184.5 -12q287 -614 462 -1301q-209 -38 -368 -14q-16 72 -53 211h-469q-10 -39 -27.5 -110.5t-26.5 -100.5q-74 -8 -180.5 -8z
M651 1708q-35 0 -59.5 -25.5t-24.5 -60.5t24.5 -59.5t59.5 -24.5t58.5 24.5t23.5 60.5t-23.5 60.5t-58.5 24.5zM650 1354q-110 0 -188.5 78.5t-78.5 190.5t79 189.5t189.5 77.5t188.5 -78.5t78 -189.5t-79 -189.5t-189 -78.5z" />
    <glyph glyph-name="Atilde.ss01" horiz-adv-x="1296" 
d="M502 516h291q-43 141 -109 320l-31 75l-30 -75q-62 -144 -121 -320zM175.5 -8q-106.5 0 -179.5 22q168 674 473 1301q74 12 184.5 12t184.5 -12q287 -614 462 -1301q-209 -38 -368 -14q-16 72 -53 211h-469q-10 -39 -27.5 -110.5t-26.5 -100.5q-74 -8 -180.5 -8z
M492 1788q70 0 165 -38t126.5 -38t55 25.5t33.5 66.5q147 0 242 -84q-20 -131 -104 -207.5t-193 -76.5q-74 0 -170 36.5t-125 36.5q-76 0 -96 -90q-59 0 -133 21.5t-109 62.5q20 133 105.5 209t202.5 76z" />
    <glyph glyph-name="E.ss01" horiz-adv-x="1056" 
d="M51 371q0 236 207 325q-152 100 -152 274.5t122 277t333 102.5q283 0 426 -115q-2 -80 -44 -153.5t-103 -114.5q-125 55 -240 55q-59 0 -95 -26.5t-36 -78.5t43 -76t143 -26h111q29 -45 29 -128t-27 -144h-111q-117 -2 -164 -34t-47 -90t39 -91t117 -33t138 19.5
t132 68.5q68 -35 115 -108.5t66 -165.5q-154 -139 -459 -140q-200 0 -362 84q-82 43 -131.5 125t-49.5 193z" />
    <glyph glyph-name="Eacute.ss01" horiz-adv-x="1056" 
d="M51 371q0 236 207 325q-152 100 -152 274.5t122 277t333 102.5q283 0 426 -115q-2 -80 -44 -153.5t-103 -114.5q-125 55 -240 55q-59 0 -95 -26.5t-36 -78.5t43 -76t143 -26h111q29 -45 29 -128t-27 -144h-111q-117 -2 -164 -34t-47 -90t39 -91t117 -33t138 19.5
t132 68.5q68 -35 115 -108.5t66 -165.5q-154 -139 -459 -140q-200 0 -362 84q-82 43 -131.5 125t-49.5 193zM346 1397q-66 57 -76 149l467 312q141 -106 142 -302z" />
    <glyph glyph-name="Ecaron.ss01" horiz-adv-x="1056" 
d="M51 371q0 236 207 325q-152 100 -152 274.5t122 277t333 102.5q283 0 426 -115q-2 -80 -44 -153.5t-103 -114.5q-125 55 -240 55q-59 0 -95 -26.5t-36 -78.5t43 -76t143 -26h111q29 -45 29 -128t-27 -144h-111q-117 -2 -164 -34t-47 -90t39 -91t117 -33t138 19.5
t132 68.5q68 -35 115 -108.5t66 -165.5q-154 -139 -459 -140q-200 0 -362 84q-82 43 -131.5 125t-49.5 193zM666 1436q-96 -23 -191 0l-295 237q20 106 111 158l287 -162l268 162q88 -43 108 -148z" />
    <glyph glyph-name="Ecircumflex.ss01" horiz-adv-x="1056" 
d="M51 371q0 236 207 325q-152 100 -152 274.5t122 277t333 102.5q283 0 426 -115q-2 -80 -44 -153.5t-103 -114.5q-125 55 -240 55q-59 0 -95 -26.5t-36 -78.5t43 -76t143 -26h111q29 -45 29 -128t-27 -144h-111q-117 -2 -164 -34t-47 -90t39 -91t117 -33t138 19.5
t132 68.5q68 -35 115 -108.5t66 -165.5q-154 -139 -459 -140q-200 0 -362 84q-82 43 -131.5 125t-49.5 193zM293 1425q-90 43 -111 156l291 238q96 20 191 0l294 -228q-16 -113 -110 -166l-287 162z" />
    <glyph glyph-name="Edieresis.ss01" horiz-adv-x="1056" 
d="M51 371q0 236 207 325q-152 100 -152 274.5t122 277t333 102.5q283 0 426 -115q-2 -80 -44 -153.5t-103 -114.5q-125 55 -240 55q-59 0 -95 -26.5t-36 -78.5t43 -76t143 -26h111q29 -45 29 -128t-27 -144h-111q-117 -2 -164 -34t-47 -90t39 -91t117 -33t138 19.5
t132 68.5q68 -35 115 -108.5t66 -165.5q-154 -139 -459 -140q-200 0 -362 84q-82 43 -131.5 125t-49.5 193zM826 1450q-73 0 -125 52t-52 125t52.5 124t125 51t125 -51t52.5 -124t-52.5 -125t-125.5 -52zM304 1450q-73 0 -125 52t-52 125t52 124t125 51t125 -51t52 -124
t-52 -125t-125 -52z" />
    <glyph glyph-name="Edotaccent.ss01" horiz-adv-x="1056" 
d="M51 371q0 236 207 325q-152 100 -152 274.5t122 277t333 102.5q283 0 426 -115q-2 -80 -44 -153.5t-103 -114.5q-125 55 -240 55q-59 0 -95 -26.5t-36 -78.5t43 -76t143 -26h111q29 -45 29 -128t-27 -144h-111q-117 -2 -164 -34t-47 -90t39 -91t117 -33t138 19.5
t132 68.5q68 -35 115 -108.5t66 -165.5q-154 -139 -459 -140q-200 0 -362 84q-82 43 -131.5 125t-49.5 193zM564 1409q-89 0 -151.5 62.5t-62.5 149.5t62.5 149.5t150.5 62.5t152.5 -62.5t64.5 -149.5t-63.5 -149.5t-152.5 -62.5z" />
    <glyph glyph-name="Egrave.ss01" horiz-adv-x="1056" 
d="M51 371q0 236 207 325q-152 100 -152 274.5t122 277t333 102.5q283 0 426 -115q-2 -80 -44 -153.5t-103 -114.5q-125 55 -240 55q-59 0 -95 -26.5t-36 -78.5t43 -76t143 -26h111q29 -45 29 -128t-27 -144h-111q-117 -2 -164 -34t-47 -90t39 -91t117 -33t138 19.5
t132 68.5q68 -35 115 -108.5t66 -165.5q-154 -139 -459 -140q-200 0 -362 84q-82 43 -131.5 125t-49.5 193zM846 1546q-10 -92 -74 -149l-534 159q4 199 143 302z" />
    <glyph glyph-name="Emacron.ss01" horiz-adv-x="1056" 
d="M51 371q0 236 207 325q-152 100 -152 274.5t122 277t333 102.5q283 0 426 -115q-2 -80 -44 -153.5t-103 -114.5q-125 55 -240 55q-59 0 -95 -26.5t-36 -78.5t43 -76t143 -26h111q29 -45 29 -128t-27 -144h-111q-117 -2 -164 -34t-47 -90t39 -91t117 -33t138 19.5
t132 68.5q68 -35 115 -108.5t66 -165.5q-154 -139 -459 -140q-200 0 -362 84q-82 43 -131.5 125t-49.5 193zM203 1605.5q0 67.5 20 123.5h688q16 -59 16 -121t-16 -117h-688q-20 47 -20 114.5z" />
    <glyph glyph-name="Eogonek.ss01" horiz-adv-x="1056" 
d="M532 -236q0 102 119 207q-18 -2 -86.5 -2t-159 20.5t-173 63.5t-132 125t-49.5 193q0 236 207 325q-152 100 -152 274.5t122 277t333 102.5q283 0 426 -115q-2 -80 -44 -153.5t-103 -114.5q-125 55 -240 55q-59 0 -95 -26.5t-36 -78.5t43 -76t143 -26h111q29 -45 29 -128
t-27 -144h-111q-117 -2 -164 -34t-47 -90t39 -91t117 -33t138.5 19.5t131.5 68.5q68 -35 115 -108.5t66 -165.5q-57 -55 -150 -89q-125 -80 -125 -163q0 -31 18.5 -47.5t46 -16.5t68.5 25q113 -68 113 -180q-88 -88 -223.5 -88.5t-202 56t-66.5 158.5z" />
    <glyph glyph-name="Q.ss02" horiz-adv-x="1474" 
d="M451 661q0 -164 81.5 -258t221 -94t221.5 94.5t82 258t-82 257t-221.5 93.5t-221 -93.5t-81.5 -257.5zM1458 660q0 -318 -207 -515l133 -204q-109 -160 -319 -193l-147 229q-82 -16 -164 -16q-311 0 -508 190.5t-197 505.5t197.5 509t508 194t507 -191t196.5 -509z" />
    <glyph glyph-name="a.ss01" horiz-adv-x="1216" 
d="M414 477q0 -96 51 -150.5t127 -54.5t127 37v369q-51 12 -98 12q-90 0 -148.5 -58.5t-58.5 -154.5zM518 -37q-215 0 -344 134t-129 369t161 386.5t421 151.5t460 -97l-2 -522q0 -66 19.5 -97.5t75.5 -51.5q-14 -182 -136 -281q-147 14 -225 106q-125 -98 -301 -98z" />
    <glyph glyph-name="aacute.ss01" horiz-adv-x="1216" 
d="M414 477q0 -96 51 -150.5t127 -54.5t127 37v369q-51 12 -98 12q-90 0 -148.5 -58.5t-58.5 -154.5zM518 -37q-215 0 -344 134t-129 369t161 386.5t421 151.5t460 -97l-2 -522q0 -66 19.5 -97.5t75.5 -51.5q-14 -182 -136 -281q-147 14 -225 106q-125 -98 -301 -98z
M426 1051q-76 53 -104 157l395 344q156 -82 188 -278z" />
    <glyph glyph-name="abreve.ss01" horiz-adv-x="1216" 
d="M414 477q0 -96 51 -150.5t127 -54.5t127 37v369q-51 12 -98 12q-90 0 -148.5 -58.5t-58.5 -154.5zM518 -37q-215 0 -344 134t-129 369t161 386.5t421 151.5t460 -97l-2 -522q0 -66 19.5 -97.5t75.5 -51.5q-14 -182 -136 -281q-147 14 -225 106q-125 -98 -301 -98z
M600.5 1079q-191.5 0 -304 115t-112.5 258q102 41 236 29q20 -78 75.5 -115t115 -37t114.5 39t68 113q139 14 225 -33q0 -141 -113 -255t-304.5 -114z" />
    <glyph glyph-name="acircumflex.ss01" horiz-adv-x="1216" 
d="M414 477q0 -96 51 -150.5t127 -54.5t127 37v369q-51 12 -98 12q-90 0 -148.5 -58.5t-58.5 -154.5zM518 -37q-215 0 -344 134t-129 369t161 386.5t421 151.5t460 -97l-2 -522q0 -66 19.5 -97.5t75.5 -51.5q-14 -182 -136 -281q-147 14 -225 106q-125 -98 -301 -98z
M348 1065q-49 18 -85 56t-46 83l285 307q96 23 194 0l271 -292q-25 -104 -133 -154l-242 186z" />
    <glyph glyph-name="adieresis.ss01" horiz-adv-x="1216" 
d="M414 477q0 -96 51 -150.5t127 -54.5t127 37v369q-51 12 -98 12q-90 0 -148.5 -58.5t-58.5 -154.5zM518 -37q-215 0 -344 134t-129 369t161 386.5t421 151.5t460 -97l-2 -522q0 -66 19.5 -97.5t75.5 -51.5q-14 -182 -136 -281q-147 14 -225 106q-125 -98 -301 -98z
M843 1102q-73 0 -125 52t-52 125t52 124t125 51t125 -51t52 -124t-52 -125t-125 -52zM353 1102q-73 0 -125 52t-52 125t52.5 124t125 51t124.5 -51t52 -124t-52 -125t-125 -52z" />
    <glyph glyph-name="agrave.ss01" horiz-adv-x="1216" 
d="M414 477q0 -96 51 -150.5t127 -54.5t127 37v369q-51 12 -98 12q-90 0 -148.5 -58.5t-58.5 -154.5zM518 -37q-215 0 -344 134t-129 369t161 386.5t421 151.5t460 -97l-2 -522q0 -66 19.5 -97.5t75.5 -51.5q-14 -182 -136 -281q-147 14 -225 106q-125 -98 -301 -98z
M870 1200q-25 -96 -104 -149l-479 223q33 197 188 278z" />
    <glyph glyph-name="amacron.ss01" horiz-adv-x="1216" 
d="M414 477q0 -96 51 -150.5t127 -54.5t127 37v369q-51 12 -98 12q-90 0 -148.5 -58.5t-58.5 -154.5zM518 -37q-215 0 -344 134t-129 369t161 386.5t421 151.5t460 -97l-2 -522q0 -66 19.5 -97.5t75.5 -51.5q-14 -182 -136 -281q-147 14 -225 106q-125 -98 -301 -98z
M958 1304.5q0 -69.5 -16 -130.5h-688q-20 53 -20.5 130t20.5 140h688q16 -70 16 -139.5z" />
    <glyph glyph-name="aogonek.ss01" horiz-adv-x="1224" 
d="M599 696q-75 0 -130 -58t-55 -158q0 -99 47 -153q47 -55 129 -55t135 37v373q-51 14 -126 14zM936 -451q-100 -1 -169 57t-69 146q0 152 176 268q-27 14 -47 39q-71 -55 -143 -75t-186 -21q-201 0 -327 136q-126 137 -126 371t159 384q160 150 424 150t466 -97v-557
q0 -78 96 -94q-10 -180 -72 -272q-92 -14 -133 -52t-41 -73q0 -66 57 -66q35 0 76 25q100 -59 113 -183q-94 -86 -254 -86z" />
    <glyph glyph-name="aring.ss01" horiz-adv-x="1216" 
d="M414 477q0 -96 51 -150.5t127 -54.5t127 37v369q-51 12 -98 12q-90 0 -148.5 -58.5t-58.5 -154.5zM518 -37q-215 0 -344 134t-129 369t161 386.5t421 151.5t460 -97l-2 -522q0 -66 19.5 -97.5t75.5 -51.5q-14 -182 -136 -281q-147 14 -225 106q-125 -98 -301 -98z
M600 1395q-35 0 -59.5 -26t-24.5 -60.5t24.5 -59t59.5 -24.5t58.5 24.5t23.5 60.5t-23.5 60.5t-58.5 24.5zM599 1040q-112 0 -191.5 79t-79.5 191t79.5 189.5t191.5 77.5t191.5 -79t79.5 -189.5t-79.5 -189.5t-191.5 -79z" />
    <glyph glyph-name="atilde.ss01" horiz-adv-x="1216" 
d="M414 477q0 -96 51 -150.5t127 -54.5t127 37v369q-51 12 -98 12q-90 0 -148.5 -58.5t-58.5 -154.5zM518 -37q-215 0 -344 134t-129 369t161 386.5t421 151.5t460 -97l-2 -522q0 -66 19.5 -97.5t75.5 -51.5q-14 -182 -136 -281q-147 14 -225 106q-125 -98 -301 -98z
M461 1487q59 0 141 -38t112 -38t53.5 23.5t33.5 62.5q147 0 241 -84q-20 -129 -104 -203.5t-193 -74.5q-63 0 -146 36.5t-107 36.5q-77 0 -97 -96q-59 0 -133 21.5t-108 62.5q20 135 105 213t202 78z" />
    <glyph glyph-name="e.ss01" horiz-adv-x="1085" 
d="M573 731q-133 0 -155 -156q61 -12 147 -12q113 0 113 86q0 35 -29 58.5t-76 23.5zM565 -37q-229 0 -374.5 133t-145.5 371.5t150.5 387.5t373 149t341 -96.5t118.5 -241.5q0 -305 -448 -306q-82 0 -154 13q16 -68 65.5 -95.5t154.5 -27.5t267 98q109 -92 119 -250
q-182 -135 -467 -135z" />
    <glyph glyph-name="eacute.ss01" horiz-adv-x="1085" 
d="M573 731q-133 0 -155 -156q61 -12 147 -12q113 0 113 86q0 35 -29 58.5t-76 23.5zM565 -37q-229 0 -374.5 133t-145.5 371.5t150.5 387.5t373 149t341 -96.5t118.5 -241.5q0 -305 -448 -306q-82 0 -154 13q16 -68 65.5 -95.5t154.5 -27.5t267 98q109 -92 119 -250
q-182 -135 -467 -135zM381 1051q-76 53 -105 157l396 344q156 -82 188 -278z" />
    <glyph glyph-name="ecaron.ss01" horiz-adv-x="1085" 
d="M573 731q-133 0 -155 -156q61 -12 147 -12q113 0 113 86q0 35 -29 58.5t-76 23.5zM565 -37q-229 0 -374.5 133t-145.5 371.5t150.5 387.5t373 149t341 -96.5t118.5 -241.5q0 -305 -448 -306q-82 0 -154 13q16 -68 65.5 -95.5t154.5 -27.5t267 98q109 -92 119 -250
q-182 -135 -467 -135zM639 1083q-96 -23 -195 0l-270 293q25 104 133 154l242 -187l244 187q49 -18 84.5 -56t46.5 -83z" />
    <glyph glyph-name="ecircumflex.ss01" horiz-adv-x="1085" 
d="M573 731q-133 0 -155 -156q61 -12 147 -12q113 0 113 86q0 35 -29 58.5t-76 23.5zM565 -37q-229 0 -374.5 133t-145.5 371.5t150.5 387.5t373 149t341 -96.5t118.5 -241.5q0 -305 -448 -306q-82 0 -154 13q16 -68 65.5 -95.5t154.5 -27.5t267 98q109 -92 119 -250
q-182 -135 -467 -135zM303 1065q-49 18 -85 56t-46 83l285 307q96 23 194 0l271 -292q-25 -104 -134 -154l-241 186z" />
    <glyph glyph-name="edieresis.ss01" horiz-adv-x="1085" 
d="M573 731q-133 0 -155 -156q61 -12 147 -12q113 0 113 86q0 35 -29 58.5t-76 23.5zM565 -37q-229 0 -374.5 133t-145.5 371.5t150.5 387.5t373 149t341 -96.5t118.5 -241.5q0 -305 -448 -306q-82 0 -154 13q16 -68 65.5 -95.5t154.5 -27.5t267 98q109 -92 119 -250
q-182 -135 -467 -135zM798 1102q-73 0 -125 52t-52 125t52 124t125 51t125 -51t52 -124t-52 -125t-125 -52zM308 1102q-73 0 -125 52t-52 125t52.5 124t125 51t124.5 -51t52 -124t-52 -125t-125 -52z" />
    <glyph glyph-name="edotaccent.ss01" horiz-adv-x="1085" 
d="M573 731q-133 0 -155 -156q61 -12 147 -12q113 0 113 86q0 35 -29 58.5t-76 23.5zM565 -37q-229 0 -374.5 133t-145.5 371.5t150.5 387.5t373 149t341 -96.5t118.5 -241.5q0 -305 -448 -306q-82 0 -154 13q16 -68 65.5 -95.5t154.5 -27.5t267 98q109 -92 119 -250
q-182 -135 -467 -135zM554 1081q-89 0 -151.5 63.5t-62.5 150.5t62.5 149.5t150.5 62.5t152.5 -62.5t64.5 -149.5t-63.5 -150.5t-152.5 -63.5z" />
    <glyph glyph-name="egrave.ss01" horiz-adv-x="1085" 
d="M573 731q-133 0 -155 -156q61 -12 147 -12q113 0 113 86q0 35 -29 58.5t-76 23.5zM565 -37q-229 0 -374.5 133t-145.5 371.5t150.5 387.5t373 149t341 -96.5t118.5 -241.5q0 -305 -448 -306q-82 0 -154 13q16 -68 65.5 -95.5t154.5 -27.5t267 98q109 -92 119 -250
q-182 -135 -467 -135zM825 1200q-25 -96 -104 -149l-479 223q33 197 188 278z" />
    <glyph glyph-name="emacron.ss01" horiz-adv-x="1085" 
d="M573 731q-133 0 -155 -156q61 -12 147 -12q113 0 113 86q0 35 -29 58.5t-76 23.5zM565 -37q-229 0 -374.5 133t-145.5 371.5t150.5 387.5t373 149t341 -96.5t118.5 -241.5q0 -305 -448 -306q-82 0 -154 13q16 -68 65.5 -95.5t154.5 -27.5t267 98q109 -92 119 -250
q-182 -135 -467 -135zM913 1304.5q0 -69.5 -16 -130.5h-688q-20 53 -20.5 130t20.5 140h688q16 -70 16 -139.5z" />
    <glyph glyph-name="eogonek.ss01" horiz-adv-x="1085" 
d="M573 731q-133 0 -155 -156q61 -12 147 -12q113 0 113 86q0 35 -29 58.5t-76 23.5zM522 -236q0 102 113 201q-23 -2 -70 -2q-229 0 -374.5 133t-145.5 371.5t150.5 387.5t373 149t341 -96.5t118.5 -241.5q0 -305 -448 -306q-82 0 -154 13q16 -68 65.5 -95.5t155 -27.5
t266.5 98q109 -92 119 -250q-70 -51 -139 -78q-57 -37 -91 -81.5t-34 -78.5t18.5 -50.5t46 -16.5t68.5 25q113 -68 113 -180q-88 -88 -223.5 -88.5t-202 56t-66.5 158.5z" />
    <glyph glyph-name="g.ss01" horiz-adv-x="1144" 
d="M535 -174q158 0 157 170v70q-25 -4 -74 -9q-193 -14 -192 -129q0 -49 31 -75.5t78 -26.5zM579.5 709q-63.5 0 -114.5 -48.5t-51 -131.5t50 -133t116.5 -50t111.5 12v334q-49 17 -112.5 17zM586 1010q283 0 475 -148v-809q0 -240 -147.5 -356.5t-387.5 -116.5
q-180 0 -302 75t-122 223t183 235q-240 117 -240 399q0 236 157 367t384 131z" />
    <glyph glyph-name="gbreve.ss01" horiz-adv-x="1144" 
d="M535 -174q158 0 157 170v70q-25 -4 -74 -9q-193 -14 -192 -129q0 -49 31 -75.5t78 -26.5zM579.5 709q-63.5 0 -114.5 -48.5t-51 -131.5t50 -133t116.5 -50t111.5 12v334q-49 17 -112.5 17zM586 1010q283 0 475 -148v-809q0 -240 -147.5 -356.5t-387.5 -116.5
q-180 0 -302 75t-122 223t183 235q-240 117 -240 399q0 236 157 367t384 131zM572.5 1079q-191.5 0 -304 115t-112.5 258q102 41 235 29q20 -78 75.5 -115t115 -37t115 39t67.5 113q139 14 225 -33q0 -141 -112.5 -255t-304 -114z" />
    <glyph glyph-name="gcommaaccent.ss01" horiz-adv-x="1144" 
d="M535 -174q158 0 157 170v70q-25 -4 -74 -9q-193 -14 -192 -129q0 -49 31 -75.5t78 -26.5zM579.5 709q-63.5 0 -114.5 -48.5t-51 -131.5t50 -133t116.5 -50t111.5 12v334q-49 17 -112.5 17zM586 1010q283 0 475 -148v-809q0 -240 -147.5 -356.5t-387.5 -116.5
q-180 0 -302 75t-122 223t183 235q-240 117 -240 399q0 236 157 367t384 131zM561 1049q-86 0 -139 26q-4 41 -4 64q0 109 46 204t128 150q92 0 139 -70q-43 -109 -43 -194.5t23 -151.5q-64 -28 -150 -28z" />
    <glyph glyph-name="gdotaccent.ss01" horiz-adv-x="1144" 
d="M535 -174q158 0 157 170v70q-25 -4 -74 -9q-193 -14 -192 -129q0 -49 31 -75.5t78 -26.5zM579.5 709q-63.5 0 -114.5 -48.5t-51 -131.5t50 -133t116.5 -50t111.5 12v334q-49 17 -112.5 17zM586 1010q283 0 475 -148v-809q0 -240 -147.5 -356.5t-387.5 -116.5
q-180 0 -302 75t-122 223t183 235q-240 117 -240 399q0 236 157 367t384 131zM570 1081q-89 0 -151.5 63.5t-62.5 150.5t62.5 149.5t150.5 62.5t152.5 -62.5t64.5 -149.5t-63.5 -150.5t-152.5 -63.5z" />
    <glyph glyph-name="k.ss01" horiz-adv-x="1210" 
d="M776 555q0 49 -34.5 83t-107.5 34t-125 -53.5t-52 -141.5v-477q-80 -14 -178.5 -14t-190.5 14v1339q177 31 369 0v-426q121 88 287.5 88t279.5 -90t113 -252q0 -208 -162 -321l219 -326q-90 -29 -230 -28.5t-194 6.5l-197 315q-20 31 -20 90q223 12 223 160z" />
    <glyph glyph-name="kcommaaccent.ss01" horiz-adv-x="1210" 
d="M580 -82q86 0 139 -27q4 -41 4 -63q0 -109 -46 -204t-128 -150q-92 0 -139 69q43 109 43 194.5t-23 151.5q64 29 150 29zM776 555q0 49 -34.5 83t-107.5 34t-125 -53.5t-52 -141.5v-477q-80 -14 -178.5 -14t-190.5 14v1339q177 31 369 0v-426q121 88 287.5 88t279.5 -90
t113 -252q0 -208 -162 -321l219 -326q-90 -29 -230 -28.5t-194 6.5l-197 315q-20 31 -20 90q223 12 223 160z" />
    <glyph glyph-name="l.ss01" horiz-adv-x="694" 
d="M438 -33q-356 0 -356 373v999q203 31 369 0v-948q0 -96 69 -96q43 0 76 20q90 -92 102 -276q-104 -72 -260 -72z" />
    <glyph glyph-name="lacute.ss01" horiz-adv-x="694" 
d="M438 -33q-356 0 -356 373v999q203 31 369 0v-948q0 -96 69 -96q43 0 76 20q90 -92 102 -276q-104 -72 -260 -72zM39 1397q-66 57 -76 149l467 312q141 -106 141 -302z" />
    <glyph glyph-name="lcaron.ss01" horiz-adv-x="694" 
d="M438 -33q-356 0 -356 373v999q203 31 369 0v-948q0 -96 69 -96q43 0 76 20q90 -92 102 -276q-104 -72 -260 -72zM600 1288q0 129 -33 213q63 33 148.5 33t140.5 -31q12 -61 12 -123q0 -123 -54 -235.5t-138 -171.5q-33 0 -73 20.5t-58 50.5q55 115 55 244z" />
    <glyph glyph-name="lcommaaccent.ss01" horiz-adv-x="694" 
d="M324 -262.5q0 85.5 -23 151.5q63 29 149.5 29t139.5 -27q4 -41 4 -63q0 -109 -46 -204t-128 -150q-92 0 -139 69q43 109 43 194.5zM438 -33q-356 0 -356 373v999q203 31 369 0v-948q0 -96 69 -96q43 0 76 20q90 -92 102 -276q-104 -72 -260 -72z" />
    <glyph glyph-name="ldot.ss01" horiz-adv-x="804" 
d="M669 512q-77 0 -132.5 56.5t-55.5 132t55.5 130t132.5 54.5t132 -54.5t55 -131.5t-55 -132t-132 -55zM438 -33q-356 0 -356 373v999q203 31 369 0v-948q0 -96 69 -96q43 0 76 20q90 -92 102 -276q-104 -72 -260 -72z" />
    <glyph glyph-name="lslash.ss01" horiz-adv-x="694" 
d="M438 -33q-356 0 -356 373v162l-100 -53q-39 29 -67 85t-32 107l199 104v594q203 31 369 0v-399l84 45q80 -86 92 -197l-176 -92v-305q0 -96 69 -96q43 0 76 20q90 -92 102 -276q-104 -72 -260 -72z" />
    <glyph glyph-name="y.ss01" horiz-adv-x="1159" 
d="M702 -4v67l-59 -6q-207 -14 -207 -131q0 -49 31 -74.5t78 -25.5q157 0 157 170zM886.5 977q98.5 0 184.5 -14v-910q0 -238 -152.5 -355.5t-364.5 -117.5t-328.5 74t-116.5 226t170 235q-109 39 -155 108.5t-46 192.5v547q86 14 184 14t184 -14v-445q0 -82 32 -117.5
t109 -35.5t115 24v574q86 14 184.5 14z" />
    <glyph glyph-name="yacute.ss01" horiz-adv-x="1159" 
d="M702 -4v67l-59 -6q-207 -14 -207 -131q0 -49 31 -74.5t78 -25.5q157 0 157 170zM886.5 977q98.5 0 184.5 -14v-910q0 -238 -152.5 -355.5t-364.5 -117.5t-328.5 74t-116.5 226t170 235q-109 39 -155 108.5t-46 192.5v547q86 14 184 14t184 -14v-445q0 -82 32 -117.5
t109 -35.5t115 24v574q86 14 184.5 14zM408 1051q-76 53 -105 157l395 344q156 -82 189 -278z" />
    <glyph glyph-name="ycircumflex.ss01" horiz-adv-x="1159" 
d="M702 -4v67l-59 -6q-207 -14 -207 -131q0 -49 31 -74.5t78 -25.5q157 0 157 170zM886.5 977q98.5 0 184.5 -14v-910q0 -238 -152.5 -355.5t-364.5 -117.5t-328.5 74t-116.5 226t170 235q-109 39 -155 108.5t-46 192.5v547q86 14 184 14t184 -14v-445q0 -82 32 -117.5
t109 -35.5t115 24v574q86 14 184.5 14zM330 1065q-49 18 -85 56t-46 83l284 307q96 23 195 0l270 -292q-25 -104 -133 -154l-242 186z" />
    <glyph glyph-name="ydieresis.ss01" horiz-adv-x="1159" 
d="M702 -4v67l-59 -6q-207 -14 -207 -131q0 -49 31 -74.5t78 -25.5q157 0 157 170zM886.5 977q98.5 0 184.5 -14v-910q0 -238 -152.5 -355.5t-364.5 -117.5t-328.5 74t-116.5 226.5t170 234.5q-109 39 -155 108.5t-46 192.5v547q86 14 184 14t184 -14v-445q0 -82 32 -117.5
t109 -35.5t115 24v574q86 14 184.5 14zM824 1102q-73 0 -125 52t-52 125t52.5 124t125 51t124.5 -51t52 -124t-52 -125t-125 -52zM335 1102q-73 0 -125 52t-52 125t52 124t125 51t125 -51t52 -124t-52 -125t-125 -52z" />
    <glyph glyph-name="ygrave.ss01" horiz-adv-x="1159" 
d="M702 -4v67l-59 -6q-207 -14 -207 -131q0 -49 31 -74.5t78 -25.5q157 0 157 170zM886.5 977q98.5 0 184.5 -14v-910q0 -238 -152.5 -355.5t-364.5 -117.5t-328.5 74t-116.5 226t170 235q-109 39 -155 108.5t-46 192.5v547q86 14 184 14t184 -14v-445q0 -82 32 -117.5
t109 -35.5t115 24v574q86 14 184.5 14zM852 1200q-25 -96 -104 -149l-480 223q33 197 189 278z" />
    <glyph glyph-name="a.ss02" horiz-adv-x="1142" 
d="M504 207q150 0 149 178h-121q-127 0 -126 -90q0 -41 25.5 -64.5t72.5 -23.5zM397 -41q-147 0 -252.5 78t-105.5 231.5t122 234.5t333 79l159 -2v20q0 106 -159 107q-80 0 -157 -26t-118 -56q-127 74 -149 231q63 51 187 99.5t290 48.5q475 0 475 -449v-229q0 -81 96 -95
q10 -170 -76 -270q-123 0 -189.5 22.5t-111.5 100.5h-24q-113 -125 -320 -125z" />
    <glyph glyph-name="aacute.ss02" horiz-adv-x="1142" 
d="M504 207q150 0 149 178h-121q-127 0 -126 -90q0 -41 25.5 -64.5t72.5 -23.5zM397 -41q-147 0 -252.5 78t-105.5 231.5t122 234.5t333 79l159 -2v20q0 106 -159 107q-80 0 -157 -26t-118 -56q-127 74 -149 231q63 51 187 99.5t290 48.5q475 0 475 -449v-229q0 -81 96 -95
q10 -170 -76 -270q-123 0 -189.5 22.5t-111.5 100.5h-24q-113 -125 -320 -125zM350 1051q-76 53 -104 157l395 344q156 -82 188 -278z" />
    <glyph glyph-name="abreve.ss02" horiz-adv-x="1142" 
d="M504 207q150 0 149 178h-121q-127 0 -126 -90q0 -41 25.5 -64.5t72.5 -23.5zM397 -41q-147 0 -252.5 78t-105.5 231.5t122 234.5t333 79l159 -2v20q0 106 -159 107q-80 0 -157 -26t-118 -56q-127 74 -149 231q63 51 187 99.5t290 48.5q475 0 475 -449v-229q0 -81 96 -95
q10 -170 -76 -270q-123 0 -189.5 22.5t-111.5 100.5h-24q-113 -125 -320 -125zM524.5 1079q-191.5 0 -303.5 115t-112 258q102 41 235 29q20 -78 75.5 -115t115 -37t115 39t67.5 113q139 14 225 -33q0 -141 -113 -255t-304.5 -114z" />
    <glyph glyph-name="acircumflex.ss02" horiz-adv-x="1142" 
d="M504 207q150 0 149 178h-121q-127 0 -126 -90q0 -41 25.5 -64.5t72.5 -23.5zM397 -41q-147 0 -252.5 78t-105.5 231.5t122 234.5t333 79l159 -2v20q0 106 -159 107q-80 0 -157 -26t-118 -56q-127 74 -149 231q63 51 187 99.5t290 48.5q475 0 475 -449v-229q0 -81 96 -95
q10 -170 -76 -270q-123 0 -189.5 22.5t-111.5 100.5h-24q-113 -125 -320 -125zM272 1065q-49 18 -84.5 56t-46.5 83l285 307q96 23 195 0l270 -292q-25 -104 -133 -154l-242 186z" />
    <glyph glyph-name="adieresis.ss02" horiz-adv-x="1142" 
d="M504 207q150 0 149 178h-121q-127 0 -126 -90q0 -41 25.5 -64.5t72.5 -23.5zM397 -41q-147 0 -252.5 78t-105.5 231.5t122 234.5t333 79l159 -2v20q0 106 -159 107q-80 0 -157 -26t-118 -56q-127 74 -149 231q63 51 187 99.5t290 48.5q475 0 475 -449v-229q0 -81 96 -95
q10 -170 -76 -270q-123 0 -189.5 22.5t-111.5 100.5h-24q-113 -125 -320 -125zM767 1102q-73 0 -125 52t-52 125t52 124t125 51t125 -51t52 -124t-52 -125t-125 -52zM277 1102q-73 0 -125 52t-52 125t52.5 124t125 51t125 -51t52.5 -124t-52.5 -125t-125.5 -52z" />
    <glyph glyph-name="agrave.ss02" horiz-adv-x="1142" 
d="M504 207q150 0 149 178h-121q-127 0 -126 -90q0 -41 25.5 -64.5t72.5 -23.5zM397 -41q-147 0 -252.5 78t-105.5 231.5t122 234.5t333 79l159 -2v20q0 106 -159 107q-80 0 -157 -26t-118 -56q-127 74 -149 231q63 51 187 99.5t290 48.5q475 0 475 -449v-229q0 -81 96 -95
q10 -170 -76 -270q-123 0 -189.5 22.5t-111.5 100.5h-24q-113 -125 -320 -125zM795 1200q-25 -96 -105 -149l-479 223q33 197 188 278z" />
    <glyph glyph-name="amacron.ss02" horiz-adv-x="1142" 
d="M504 207q150 0 149 178h-121q-127 0 -126 -90q0 -41 25.5 -64.5t72.5 -23.5zM397 -41q-147 0 -252.5 78t-105.5 231.5t122 234.5t333 79l159 -2v20q0 106 -159 107q-80 0 -157 -26t-118 -56q-127 74 -149 231q63 51 187 99.5t290 48.5q475 0 475 -449v-229q0 -81 96 -95
q10 -170 -76 -270q-123 0 -189.5 22.5t-111.5 100.5h-24q-113 -125 -320 -125zM158 1304q0 77 20 140h688q16 -70 16 -139.5t-16 -130.5h-688q-20 53 -20 130z" />
    <glyph glyph-name="aogonek.ss02" horiz-adv-x="1144" 
d="M502 207q150 0 149 178h-121q-127 0 -127 -90q0 -41 26 -65t73 -23zM874 -451q-100 -1 -168 57t-69 146q0 154 182 256q-49 29 -80 80h-12q-117 -129 -295 -129t-287 78q-109 79 -109 233t120 234q119 80 317 76h178v20q0 106 -159 107q-80 0 -157 -26t-118 -56
q-127 74 -149 231q63 51 187 99t290 49q475 0 475 -449v-225q0 -80 96 -94q18 -156 -47 -271q-98 -12 -142 -46t-44 -66q0 -59 57 -60q35 0 76 25q100 -59 112 -183q-94 -86 -254 -86z" />
    <glyph glyph-name="aring.ss02" horiz-adv-x="1142" 
d="M504 207q150 0 149 178h-121q-127 0 -126 -90q0 -41 25.5 -64.5t72.5 -23.5zM397 -41q-147 0 -252.5 78t-105.5 231.5t122 234.5t333 79l159 -2v20q0 106 -159 107q-80 0 -157 -26t-118 -56q-127 74 -149 231q63 51 187 99.5t290 48.5q475 0 475 -449v-229q0 -81 96 -95
q10 -170 -76 -270q-123 0 -189.5 22.5t-111.5 100.5h-24q-113 -125 -320 -125zM524 1395q-35 0 -59.5 -26t-24.5 -60.5t24.5 -59t59.5 -24.5t58.5 24.5t23.5 60.5t-23.5 60.5t-58.5 24.5zM523 1040q-112 0 -191.5 79t-79.5 191t80 189.5t191.5 77.5t191.5 -79t80 -189.5
t-80 -189.5t-192 -79z" />
    <glyph glyph-name="atilde.ss02" horiz-adv-x="1142" 
d="M504 207q150 0 149 178h-121q-127 0 -126 -90q0 -41 25.5 -64.5t72.5 -23.5zM397 -41q-147 0 -252.5 78t-105.5 231.5t122 234.5t333 79l159 -2v20q0 106 -159 107q-80 0 -157 -26t-118 -56q-127 74 -149 231q63 51 187 99.5t290 48.5q475 0 475 -449v-229q0 -81 96 -95
q10 -170 -76 -270q-123 0 -189.5 22.5t-111.5 100.5h-24q-113 -125 -320 -125zM385 1487q59 0 141 -38t112 -38t53.5 23.5t33.5 62.5q147 0 242 -84q-20 -129 -104.5 -203.5t-192.5 -74.5q-63 0 -146.5 36.5t-107.5 36.5q-77 0 -97 -96q-59 0 -132.5 21.5t-108.5 62.5
q20 135 105 213t202 78z" />
    <glyph glyph-name="e.ss02" horiz-adv-x="1093" 
d="M565 725q-141 0 -153 -190l280 90q-16 100 -127 100zM597 -37q-255 0 -403.5 136.5t-148.5 372.5t148.5 384t377.5 148q133 0 233 -48t150 -124q98 -148 97 -322l-609 -186q49 -84 180.5 -84t295.5 106q106 -94 116 -248q-182 -135 -437 -135z" />
    <glyph glyph-name="eacute.ss02" horiz-adv-x="1093" 
d="M565 725q-141 0 -153 -190l280 90q-16 100 -127 100zM597 -37q-255 0 -403.5 136.5t-148.5 372.5t148.5 384t377.5 148q133 0 233 -48t150 -124q98 -148 97 -322l-609 -186q49 -84 180.5 -84t295.5 106q106 -94 116 -248q-182 -135 -437 -135zM377 1051q-76 53 -105 157
l396 344q156 -82 188 -278z" />
    <glyph glyph-name="ecaron.ss02" horiz-adv-x="1093" 
d="M565 725q-141 0 -153 -190l280 90q-16 100 -127 100zM597 -37q-255 0 -403.5 136.5t-148.5 372.5t148.5 384t377.5 148q133 0 233 -48t150 -124q98 -148 97 -322l-609 -186q49 -84 180.5 -84t295.5 106q106 -94 116 -248q-182 -135 -437 -135zM635 1083q-96 -23 -195 0
l-270 293q25 104 133 154l242 -187l243 187q49 -18 85 -56t47 -83z" />
    <glyph glyph-name="ecircumflex.ss02" horiz-adv-x="1093" 
d="M565 725q-141 0 -153 -190l280 90q-16 100 -127 100zM597 -37q-255 0 -403.5 136.5t-148.5 372.5t148.5 384t377.5 148q133 0 233 -48t150 -124q98 -148 97 -322l-609 -186q49 -84 180.5 -84t295.5 106q106 -94 116 -248q-182 -135 -437 -135zM299 1065q-49 18 -85 56
t-46 83l285 307q96 23 194 0l271 -292q-25 -104 -134 -154l-241 186z" />
    <glyph glyph-name="edieresis.ss02" horiz-adv-x="1093" 
d="M565 725q-141 0 -153 -190l280 90q-16 100 -127 100zM597 -37q-255 0 -403.5 136.5t-148.5 372.5t148.5 384t377.5 148q133 0 233 -48t150 -124q98 -148 97 -322l-609 -186q49 -84 180.5 -84t295.5 106q106 -94 116 -248q-182 -135 -437 -135zM794 1102q-73 0 -125.5 52
t-52.5 125t52.5 124t125.5 51t125 -51t52 -124t-52 -125t-125 -52zM304 1102q-73 0 -125 52t-52 125t52 124t125 51t125 -51t52 -124t-52 -125t-125 -52z" />
    <glyph glyph-name="edotaccent.ss02" horiz-adv-x="1093" 
d="M565 725q-141 0 -153 -190l280 90q-16 100 -127 100zM597 -37q-255 0 -403.5 136.5t-148.5 372.5t148.5 384t377.5 148q133 0 233 -48t150 -124q98 -148 97 -322l-609 -186q49 -84 180.5 -84t295.5 106q106 -94 116 -248q-182 -135 -437 -135zM550 1081
q-89 0 -151.5 63.5t-62.5 150.5t62.5 149.5t150.5 62.5t152.5 -62.5t64.5 -149.5t-63.5 -150.5t-152.5 -63.5z" />
    <glyph glyph-name="egrave.ss02" horiz-adv-x="1093" 
d="M565 725q-141 0 -153 -190l280 90q-16 100 -127 100zM597 -37q-255 0 -403.5 136.5t-148.5 372.5t148.5 384t377.5 148q133 0 233 -48t150 -124q98 -148 97 -322l-609 -186q49 -84 180.5 -84t295.5 106q106 -94 116 -248q-182 -135 -437 -135zM821 1200
q-25 -96 -104 -149l-479 223q33 197 188 278z" />
    <glyph glyph-name="emacron.ss02" horiz-adv-x="1093" 
d="M565 725q-141 0 -153 -190l280 90q-16 100 -127 100zM597 -37q-255 0 -403.5 136.5t-148.5 372.5t148.5 384t377.5 148q133 0 233 -48t150 -124q98 -148 97 -322l-609 -186q49 -84 180.5 -84t295.5 106q106 -94 116 -248q-182 -135 -437 -135zM909 1304.5
q0 -69.5 -16 -130.5h-688q-20 53 -20.5 130t20.5 140h688q16 -70 16 -139.5z" />
    <glyph glyph-name="eogonek.ss02" horiz-adv-x="1093" 
d="M565 725q-141 0 -153 -190l280 90q-16 100 -127 100zM770 -140q0 -34 18.5 -50.5t46 -16.5t68.5 25q113 -68 113 -180q-88 -88 -223.5 -88.5t-202 56t-66.5 156.5t113 203q-18 -2 -57 -2q-238 0 -386.5 136.5t-148.5 372.5t148.5 384t377.5 148q133 0 233 -48t150 -124
q98 -148 97 -322l-609 -186q49 -84 180.5 -84t295.5 106q106 -94 116 -248q-69 -49 -141 -80q-57 -37 -90 -80.5t-33 -77.5z" />
    <glyph glyph-name="g.ss02" horiz-adv-x="1130" 
d="M561 733q-154 0 -153 -112q0 -109 139 -109q70 0 113 32t45 87q4 55 -13 102h-131zM1038 610q0 -170 -135 -264t-356 -94q-104 0 -176 14q-12 -12 -13 -26q0 -59 91 -60h247q354 0 355 -264q0 -160 -134.5 -256t-346 -96t-342 31.5t-185.5 70.5q18 156 119 238
q143 -92 383 -92q158 0 157 57q0 25 -25.5 34t-96.5 9h-142q-358 0 -358 217q0 129 119 203q-141 90 -141.5 274t129.5 287.5t360 103.5h155q86 0 133.5 23.5t77.5 83.5q150 -33 224 -127q-47 -113 -154 -182q55 -78 55 -185z" />
    <glyph glyph-name="gbreve.ss02" horiz-adv-x="1130" 
d="M561 733q-154 0 -153 -112q0 -109 139 -109q70 0 113 32t45 87q4 55 -13 102h-131zM1038 610q0 -170 -135 -264t-356 -94q-104 0 -176 14q-12 -12 -13 -26q0 -59 91 -60h247q354 0 355 -264q0 -160 -134.5 -256t-346 -96t-342 31.5t-185.5 70.5q18 156 119 238
q143 -92 383 -92q158 0 157 57q0 25 -25.5 34t-96.5 9h-142q-358 0 -358 217q0 129 119 203q-141 90 -141.5 274t129.5 287.5t360 103.5h155q86 0 133.5 23.5t77.5 83.5q150 -33 224 -127q-47 -113 -154 -182q55 -78 55 -185zM565.5 1079q-191.5 0 -303.5 115t-112 258
q102 41 235 29q20 -78 75.5 -115t115 -37t114.5 39t68 113q139 14 225 -33q0 -141 -113 -255t-304.5 -114z" />
    <glyph glyph-name="gcommaaccent.ss02" horiz-adv-x="1130" 
d="M561 733q-154 0 -153 -112q0 -109 139 -109q70 0 113 32t45 87q4 55 -13 102h-131zM1038 610q0 -170 -135 -264t-356 -94q-104 0 -176 14q-12 -12 -13 -26q0 -59 91 -60h247q354 0 355 -264q0 -160 -134.5 -256t-346 -96t-342 31.5t-185.5 70.5q18 156 119 238
q143 -92 383 -92q158 0 157 57q0 25 -25.5 34t-96.5 9h-142q-358 0 -358 217q0 129 119 203q-141 90 -141.5 274t129.5 287.5t360 103.5h155q86 0 133.5 23.5t77.5 83.5q150 -33 224 -127q-47 -113 -154 -182q55 -78 55 -185zM555 1049q-86 0 -139 26q-4 41 -4 64
q0 109 46 204t128 150q92 0 139 -70q-43 -109 -43 -194.5t23 -151.5q-64 -28 -150 -28z" />
    <glyph glyph-name="gdotaccent.ss02" horiz-adv-x="1130" 
d="M561 733q-154 0 -153 -112q0 -109 139 -109q70 0 113 32t45 87q4 55 -13 102h-131zM1038 610q0 -170 -135 -264t-356 -94q-104 0 -176 14q-12 -12 -13 -26q0 -59 91 -60h247q354 0 355 -264q0 -160 -134.5 -256t-346 -96t-342 31.5t-185.5 70.5q18 156 119 238
q143 -92 383 -92q158 0 157 57q0 25 -25.5 34t-96.5 9h-142q-358 0 -358 217q0 129 119 203q-141 90 -141.5 274t129.5 287.5t360 103.5h155q86 0 133.5 23.5t77.5 83.5q150 -33 224 -127q-47 -113 -154 -182q55 -78 55 -185zM564 1081q-89 0 -151.5 63.5t-62.5 150.5
t62.5 149.5t150.5 62.5t152.5 -62.5t64.5 -149.5t-63.5 -150.5t-152.5 -63.5z" />
    <glyph glyph-name="w.ss02" horiz-adv-x="1607" 
d="M1391.5 981q97.5 0 207.5 -29q-66 -322 -133 -529.5t-188 -422.5q-80 -16 -178.5 -16t-177.5 16q-84 160 -119 311q-35 -158 -115 -311q-80 -16 -178 -16t-178 16q-121 213 -187.5 419t-136.5 533q111 29 210.5 29t184.5 -8q63 -463 119 -639q8 -25 17 -66q2 18 10 66
q61 258 88 633q53 14 171 14t167 -14q16 -197 49 -377t51 -236.5t21 -83.5q10 47 14 60q51 201 98 643q86 8 183.5 8z" />
    <glyph glyph-name="wacute.ss02" horiz-adv-x="1607" 
d="M1391.5 981q97.5 0 207.5 -29q-66 -322 -133 -529.5t-188 -422.5q-80 -16 -178.5 -16t-177.5 16q-84 160 -119 311q-35 -158 -115 -311q-80 -16 -178 -16t-178 16q-121 213 -187.5 419t-136.5 533q111 29 210.5 29t184.5 -8q63 -463 119 -639q8 -25 17 -66q2 18 10 66
q61 258 88 633q53 14 171 14t167 -14q16 -197 49 -377t51 -236.5t21 -83.5q10 47 14 60q51 201 98 643q86 8 183.5 8zM627 1051q-76 53 -105 157l396 344q156 -82 188 -278z" />
    <glyph glyph-name="wcircumflex.ss02" horiz-adv-x="1607" 
d="M1391.5 981q97.5 0 207.5 -29q-66 -322 -133 -529.5t-188 -422.5q-80 -16 -178.5 -16t-177.5 16q-84 160 -119 311q-35 -158 -115 -311q-80 -16 -178 -16t-178 16q-121 213 -187.5 419t-136.5 533q111 29 210.5 29t184.5 -8q63 -463 119 -639q8 -25 17 -66q2 18 10 66
q61 258 88 633q53 14 171 14t167 -14q16 -197 49 -377t51 -236.5t21 -83.5q10 47 14 60q51 201 98 643q86 8 183.5 8zM549 1065q-49 18 -85 56t-46 83l284 307q96 23 195 0l270 -292q-25 -104 -133 -154l-241 186z" />
    <glyph glyph-name="wdieresis.ss02" horiz-adv-x="1607" 
d="M1391.5 981q97.5 0 207.5 -29q-66 -322 -133 -529.5t-188 -422.5q-80 -16 -178.5 -16t-177.5 16q-84 160 -119 311q-35 -158 -115 -311q-80 -16 -178 -16t-178 16q-121 213 -187.5 419t-136.5 533q111 29 210.5 29t184.5 -8q63 -463 119 -639q8 -25 17 -66q2 18 10 66
q61 258 88 633q53 14 171 14t167 -14q16 -197 49 -377t51 -236.5t21 -83.5q10 47 14 60q51 201 98 643q86 8 183.5 8zM1043 1102q-73 0 -125 52t-52 125t52.5 124t125 51t125 -51t52.5 -124t-52.5 -125t-125.5 -52zM554 1102q-73 0 -125 52t-52 125t52 124t125 51t125 -51
t52 -124t-52 -125t-125 -52z" />
    <glyph glyph-name="wgrave.ss02" horiz-adv-x="1607" 
d="M1391.5 981q97.5 0 207.5 -29q-66 -322 -133 -529.5t-188 -422.5q-80 -16 -178.5 -16t-177.5 16q-84 160 -119 311q-35 -158 -115 -311q-80 -16 -178 -16t-178 16q-121 213 -187.5 419t-136.5 533q111 29 210.5 29t184.5 -8q63 -463 119 -639q8 -25 17 -66q2 18 10 66
q61 258 88 633q53 14 171 14t167 -14q16 -197 49 -377t51 -236.5t21 -83.5q10 47 14 60q51 201 98 643q86 8 183.5 8zM1071 1200q-25 -96 -104 -149l-480 223q33 197 189 278z" />
    <glyph glyph-name="y.ss02" horiz-adv-x="1159" 
d="M886.5 977q98.5 0 184.5 -14v-889q0 -254 -146.5 -374t-387.5 -120q-328 0 -504 189q8 76 59 139t133 90q119 -131 298 -131t179 129v74q-72 -18 -151 -19q-473 0 -473 402v510q86 14 184 14t184 -14v-443q0 -82 32 -117.5t109 -35.5t115 24v572q86 14 184.5 14z" />
    <glyph glyph-name="yacute.ss02" horiz-adv-x="1159" 
d="M886.5 977q98.5 0 184.5 -14v-889q0 -254 -146.5 -374t-387.5 -120q-328 0 -504 189q8 76 59 139t133 90q119 -131 298 -131t179 129v74q-72 -18 -151 -19q-473 0 -473 402v510q86 14 184 14t184 -14v-443q0 -82 32 -117.5t109 -35.5t115 24v572q86 14 184.5 14z
M406 1051q-76 53 -105 157l395 344q156 -82 189 -278z" />
    <glyph glyph-name="ycircumflex.ss02" horiz-adv-x="1159" 
d="M886.5 977q98.5 0 184.5 -14v-889q0 -254 -146.5 -374t-387.5 -120q-328 0 -504 189q8 76 59 139t133 90q119 -131 298 -131t179 129v74q-72 -18 -151 -19q-473 0 -473 402v510q86 14 184 14t184 -14v-443q0 -82 32 -117.5t109 -35.5t115 24v572q86 14 184.5 14z
M328 1065q-49 18 -85 56t-46 83l284 307q96 23 195 0l270 -292q-25 -104 -133 -154l-242 186z" />
    <glyph glyph-name="ydieresis.ss02" horiz-adv-x="1159" 
d="M886.5 977q98.5 0 184.5 -14v-889q0 -254 -146.5 -374t-387.5 -120q-328 0 -504 189q8 76 59 139t133 90q119 -131 298 -131t179 129v74q-72 -18 -151 -19q-473 0 -473 402v510q86 14 184 14t184 -14v-443q0 -82 32 -117.5t109 -35.5t115 24v572q86 14 184.5 14z
M822 1102q-73 0 -125 52t-52 125t52.5 124t125 51t124.5 -51t52 -124t-52 -125t-125 -52zM333 1102q-73 0 -125 52t-52 125t52 124t125 51t125 -51t52 -124t-52 -125t-125 -52z" />
    <glyph glyph-name="ygrave.ss02" horiz-adv-x="1159" 
d="M886.5 977q98.5 0 184.5 -14v-889q0 -254 -146.5 -374t-387.5 -120q-328 0 -504 189q8 76 59 139t133 90q119 -131 298 -131t179 129v74q-72 -18 -151 -19q-473 0 -473 402v510q86 14 184 14t184 -14v-443q0 -82 32 -117.5t109 -35.5t115 24v572q86 14 184.5 14z
M850 1200q-25 -96 -105 -149l-479 223q33 197 189 278z" />
    <glyph glyph-name="a.ss03" horiz-adv-x="1081" 
d="M403 293q0 -86 138 -86q49 0 110 16v148h-137q-111 0 -111 -78zM512 1004q504 0 504 -449v-492q-246 -98 -490 -98q-490 0 -489 309q0 152 118.5 231t317.5 75h178v20q0 106 -163 106.5t-271 -81.5q-127 74 -149 231q57 51 173.5 99.5t270.5 48.5z" />
    <glyph glyph-name="aacute.ss03" horiz-adv-x="1081" 
d="M403 293q0 -86 138 -86q49 0 110 16v148h-137q-111 0 -111 -78zM512 1004q504 0 504 -449v-492q-246 -98 -490 -98q-490 0 -489 309q0 152 118.5 231t317.5 75h178v20q0 106 -163 106.5t-271 -81.5q-127 74 -149 231q57 51 173.5 99.5t270.5 48.5zM352 1051
q-76 53 -104 157l395 344q156 -82 188 -278z" />
    <glyph glyph-name="abreve.ss03" horiz-adv-x="1081" 
d="M403 293q0 -86 138 -86q49 0 110 16v148h-137q-111 0 -111 -78zM512 1004q504 0 504 -449v-492q-246 -98 -490 -98q-490 0 -489 309q0 152 118.5 231t317.5 75h178v20q0 106 -163 106.5t-271 -81.5q-127 74 -149 231q57 51 173.5 99.5t270.5 48.5zM526.5 1079
q-191.5 0 -303.5 115t-112 258q102 41 235 29q20 -78 75.5 -115t115 -37t115 39t67.5 113q139 14 225 -33q0 -141 -113 -255t-304.5 -114z" />
    <glyph glyph-name="acircumflex.ss03" horiz-adv-x="1081" 
d="M403 293q0 -86 138 -86q49 0 110 16v148h-137q-111 0 -111 -78zM512 1004q504 0 504 -449v-492q-246 -98 -490 -98q-490 0 -489 309q0 152 118.5 231t317.5 75h178v20q0 106 -163 106.5t-271 -81.5q-127 74 -149 231q57 51 173.5 99.5t270.5 48.5zM274 1065
q-49 18 -84.5 56t-46.5 83l285 307q96 23 195 0l270 -292q-25 -104 -133 -154l-242 186z" />
    <glyph glyph-name="adieresis.ss03" horiz-adv-x="1081" 
d="M403 293q0 -86 138 -86q49 0 110 16v148h-137q-111 0 -111 -78zM512 1004q504 0 504 -449v-492q-246 -98 -490 -98q-490 0 -489 309q0 152 118.5 231t317.5 75h178v20q0 106 -163 106.5t-271 -81.5q-127 74 -149 231q57 51 173.5 99.5t270.5 48.5zM769 1102
q-73 0 -125 52t-52 125t52 124t125 51t125 -51t52 -124t-52 -125t-125 -52zM280 1102q-73 0 -125.5 52t-52.5 125t52.5 124t125.5 51t125 -51t52 -124t-52 -125t-125 -52z" />
    <glyph glyph-name="agrave.ss03" horiz-adv-x="1081" 
d="M403 293q0 -86 138 -86q49 0 110 16v148h-137q-111 0 -111 -78zM512 1004q504 0 504 -449v-492q-246 -98 -490 -98q-490 0 -489 309q0 152 118.5 231t317.5 75h178v20q0 106 -163 106.5t-271 -81.5q-127 74 -149 231q57 51 173.5 99.5t270.5 48.5zM797 1200
q-25 -96 -105 -149l-479 223q33 197 188 278z" />
    <glyph glyph-name="amacron.ss03" horiz-adv-x="1081" 
d="M403 293q0 -86 138 -86q49 0 110 16v148h-137q-111 0 -111 -78zM512 1004q504 0 504 -449v-492q-246 -98 -490 -98q-490 0 -489 309q0 152 118.5 231t317.5 75h178v20q0 106 -163 106.5t-271 -81.5q-127 74 -149 231q57 51 173.5 99.5t270.5 48.5zM160 1304q0 77 20 140
h688q16 -70 16 -139.5t-16 -130.5h-688q-20 53 -20 130z" />
    <glyph glyph-name="aogonek.ss03" horiz-adv-x="1081" 
d="M403 293q0 -86 138 -86q49 0 110 16v148h-137q-111 0 -111 -78zM805 -134q1 -73 65 -73q28 0 68 25q113 -68 113 -180q-88 -88 -223.5 -88.5t-202 56t-66.5 161t125 210.5q-90 -12 -188 -12q-213 0 -336 76t-123 230.5t118.5 233.5t317.5 75h178v20q0 106 -163 106.5
t-271 -81.5q-127 74 -149 231q57 51 173.5 99.5t270.5 48.5q504 0 504 -449v-492l-2 -2h-4q-92 -37 -148.5 -96t-56.5 -99z" />
    <glyph glyph-name="aring.ss03" horiz-adv-x="1081" 
d="M403 293q0 -86 138 -86q49 0 110 16v148h-137q-111 0 -111 -78zM512 1004q504 0 504 -449v-492q-246 -98 -490 -98q-490 0 -489 309q0 152 118.5 231t317.5 75h178v20q0 106 -163 106.5t-271 -81.5q-127 74 -149 231q57 51 173.5 99.5t270.5 48.5zM526 1395
q-35 0 -59.5 -26t-24.5 -60.5t25 -59t59.5 -24.5t58 24.5t23.5 60.5t-23.5 60.5t-58.5 24.5zM525 1040q-112 0 -191.5 79t-79.5 191t80 189.5t191.5 77.5t191.5 -79t80 -189.5t-80 -189.5t-192 -79z" />
    <glyph glyph-name="atilde.ss03" horiz-adv-x="1081" 
d="M403 293q0 -86 138 -86q49 0 110 16v148h-137q-111 0 -111 -78zM512 1004q504 0 504 -449v-492q-246 -98 -490 -98q-490 0 -489 309q0 152 118.5 231t317.5 75h178v20q0 106 -163 106.5t-271 -81.5q-127 74 -149 231q57 51 173.5 99.5t270.5 48.5zM387 1487q59 0 141 -38
t112 -38t53.5 23.5t33.5 62.5q147 0 242 -84q-20 -129 -104.5 -203.5t-192.5 -74.5q-63 0 -146.5 36.5t-107.5 36.5q-76 0 -96 -96q-59 0 -133 21.5t-109 62.5q20 135 105 213t202 78z" />
    <glyph glyph-name="e.ss03" horiz-adv-x="1087" 
d="M586 596q80 0 80 59q0 33 -26 51.5t-67 18.5q-127 0 -153 -129h166zM661.5 256q124.5 0 247.5 78q113 -90 123 -246q-178 -125 -435 -125t-404.5 135t-147.5 372.5t153.5 385.5t393.5 148q199 0 323.5 -100.5t121.5 -247t-90 -206t-265 -61.5l-260 -2q14 -74 64.5 -102.5
t175 -28.5z" />
    <glyph glyph-name="eacute.ss03" horiz-adv-x="1087" 
d="M586 596q80 0 80 59q0 33 -26 51.5t-67 18.5q-127 0 -153 -129h166zM661.5 256q124.5 0 247.5 78q113 -90 123 -246q-178 -125 -435 -125t-404.5 135t-147.5 372.5t153.5 385.5t393.5 148q199 0 323.5 -100.5t121.5 -247t-90 -206t-265 -61.5l-260 -2q14 -74 64.5 -102.5
t175 -28.5zM387 1051q-76 53 -104 157l395 344q156 -82 188 -278z" />
    <glyph glyph-name="ecaron.ss03" horiz-adv-x="1087" 
d="M586 596q80 0 80 59q0 33 -26 51.5t-67 18.5q-127 0 -153 -129h166zM661.5 256q124.5 0 247.5 78q113 -90 123 -246q-178 -125 -435 -125t-404.5 135t-147.5 372.5t153.5 385.5t393.5 148q199 0 323.5 -100.5t121.5 -247t-90 -206t-265 -61.5l-260 -2q14 -74 64.5 -102.5
t175 -28.5zM645 1083q-96 -23 -194 0l-271 293q25 104 133 154l242 -187l244 187q49 -18 85 -56t46 -83z" />
    <glyph glyph-name="ecircumflex.ss03" horiz-adv-x="1087" 
d="M586 596q80 0 80 59q0 33 -26 51.5t-67 18.5q-127 0 -153 -129h166zM661.5 256q124.5 0 247.5 78q113 -90 123 -246q-178 -125 -435 -125t-404.5 135t-147.5 372.5t153.5 385.5t393.5 148q199 0 323.5 -100.5t121.5 -247t-90 -206t-265 -61.5l-260 -2q14 -74 64.5 -102.5
t175 -28.5zM309 1065q-49 18 -85 56t-46 83l285 307q96 23 194 0l271 -292q-25 -104 -133 -154l-242 186z" />
    <glyph glyph-name="edieresis.ss03" horiz-adv-x="1087" 
d="M586 596q80 0 80 59q0 33 -26 51.5t-67 18.5q-127 0 -153 -129h166zM661.5 256q124.5 0 247.5 78q113 -90 123 -246q-178 -125 -435 -125t-404.5 135t-147.5 372.5t153.5 385.5t393.5 148q199 0 323.5 -100.5t121.5 -247t-90 -206t-265 -61.5l-260 -2q14 -74 64.5 -102.5
t175 -28.5zM804 1102q-73 0 -125 52t-52 125t52 124t125 51t125 -51t52 -124t-52 -125t-125 -52zM314 1102q-73 0 -125 52t-52 125t52.5 124t125 51t125 -51t52.5 -124t-52.5 -125t-125.5 -52z" />
    <glyph glyph-name="edotaccent.ss03" horiz-adv-x="1087" 
d="M586 596q80 0 80 59q0 33 -26 51.5t-67 18.5q-127 0 -153 -129h166zM661.5 256q124.5 0 247.5 78q113 -90 123 -246q-178 -125 -435 -125t-404.5 135t-147.5 372.5t153.5 385.5t393.5 148q199 0 323.5 -100.5t121.5 -247t-90 -206t-265 -61.5l-260 -2q14 -74 64.5 -102.5
t175 -28.5zM560 1081q-89 0 -151.5 63.5t-62.5 150.5t62.5 149.5t150.5 62.5t152.5 -62.5t64.5 -149.5t-63.5 -150.5t-152.5 -63.5z" />
    <glyph glyph-name="egrave.ss03" horiz-adv-x="1087" 
d="M586 596q80 0 80 59q0 33 -26 51.5t-67 18.5q-127 0 -153 -129h166zM661.5 256q124.5 0 247.5 78q113 -90 123 -246q-178 -125 -435 -125t-404.5 135t-147.5 372.5t153.5 385.5t393.5 148q199 0 323.5 -100.5t121.5 -247t-90 -206t-265 -61.5l-260 -2q14 -74 64.5 -102.5
t175 -28.5zM831 1200q-25 -96 -104 -149l-479 223q33 197 188 278z" />
    <glyph glyph-name="emacron.ss03" horiz-adv-x="1087" 
d="M586 596q80 0 80 59q0 33 -26 51.5t-67 18.5q-127 0 -153 -129h166zM661.5 256q124.5 0 247.5 78q113 -90 123 -246q-178 -125 -435 -125t-404.5 135t-147.5 372.5t153.5 385.5t393.5 148q199 0 323.5 -100.5t121.5 -247t-90 -206t-265 -61.5l-260 -2q14 -74 64.5 -102.5
t175 -28.5zM195 1304q0 77 20 140h688q16 -70 16 -139.5t-16 -130.5h-688q-20 53 -20 130z" />
    <glyph glyph-name="eogonek.ss03" horiz-adv-x="1087" 
d="M586 596q80 0 80 59q0 33 -26 51.5t-67 18.5q-127 0 -153 -129h166zM661.5 256q124.5 0 247.5 78q113 -90 123 -246q-55 -39 -133 -72q-121 -81 -121 -159q0 -31 18.5 -47.5t46.5 -16.5t68 25q113 -68 113 -180q-88 -88 -223.5 -88.5t-202 56t-66.5 156.5t113 203
q-20 -2 -65 -2q-240 0 -387.5 135t-147.5 372.5t153.5 385.5t393.5 148q199 0 323.5 -100.5t121.5 -247t-90 -206t-265 -61.5l-260 -2q14 -74 64.5 -102.5t175 -28.5z" />
    <glyph glyph-name="g.ss03" horiz-adv-x="1132" 
d="M537 420q72 0 114.5 39t45.5 117.5t-27 146.5h-131q-74 0 -117 -40t-43 -111.5t43 -111.5t115 -40zM1055 27q0 -219 -142.5 -335t-367.5 -116q-326 0 -500 201q8 78 63.5 144.5t143.5 94.5q121 -150 291 -149q80 0 125 44t45 115t-62 121q-43 -8 -102 -8q-254 0 -382 113
t-128 313.5t145.5 321.5t364.5 121h139q66 0 110 28.5t85 100.5q162 -39 239 -150q-47 -121 -149 -194q74 -106 65 -228q-6 -150 -96 -256q113 -115 113 -282z" />
    <glyph glyph-name="gbreve.ss03" horiz-adv-x="1132" 
d="M537 420q72 0 114.5 39t45.5 117.5t-27 146.5h-131q-74 0 -117 -40t-43 -111.5t43 -111.5t115 -40zM1055 27q0 -219 -142.5 -335t-367.5 -116q-326 0 -500 201q8 78 63.5 144.5t143.5 94.5q121 -150 291 -149q80 0 125 44t45 115t-62 121q-43 -8 -102 -8q-254 0 -382 113
t-128 313.5t145.5 321.5t364.5 121h139q66 0 110 28.5t85 100.5q162 -39 239 -150q-47 -121 -149 -194q74 -106 65 -228q-6 -150 -96 -256q113 -115 113 -282zM551.5 1079q-191.5 0 -304 115t-112.5 258q102 41 236 29q20 -78 75.5 -115t115 -37t114.5 39t67 113
q139 14 226 -33q0 -141 -113 -255t-304.5 -114z" />
    <glyph glyph-name="gcommaaccent.ss03" horiz-adv-x="1132" 
d="M537 420q72 0 114.5 39t45.5 117.5t-27 146.5h-131q-74 0 -117 -40t-43 -111.5t43 -111.5t115 -40zM1055 27q0 -219 -142.5 -335t-367.5 -116q-326 0 -500 201q8 78 63.5 144.5t143.5 94.5q121 -150 291 -149q80 0 125 44t45 115t-62 121q-43 -8 -102 -8q-254 0 -382 113
t-128 313.5t145.5 321.5t364.5 121h139q66 0 110 28.5t85 100.5q162 -39 239 -150q-47 -121 -149 -194q74 -106 65 -228q-6 -150 -96 -256q113 -115 113 -282zM541 1049q-86 0 -140 26q-4 41 -4 64q0 109 46 204t128 150q92 0 140 -70q-43 -109 -43 -194.5t22 -151.5
q-63 -28 -149 -28z" />
    <glyph glyph-name="gdotaccent.ss03" horiz-adv-x="1132" 
d="M537 420q72 0 114.5 39t45.5 117.5t-27 146.5h-131q-74 0 -117 -40t-43 -111.5t43 -111.5t115 -40zM1055 27q0 -219 -142.5 -335t-367.5 -116q-326 0 -500 201q8 78 63.5 144.5t143.5 94.5q121 -150 291 -149q80 0 125 44t45 115t-62 121q-43 -8 -102 -8q-254 0 -382 113
t-128 313.5t145.5 321.5t364.5 121h139q66 0 110 28.5t85 100.5q162 -39 239 -150q-47 -121 -149 -194q74 -106 65 -228q-6 -150 -96 -256q113 -115 113 -282zM550 1081q-89 0 -151.5 63.5t-62.5 150.5t62.5 149.5t150.5 62.5t152.5 -62.5t64.5 -149.5t-63.5 -150.5
t-152.5 -63.5z" />
    <glyph glyph-name="g.ss04" horiz-adv-x="1138" 
d="M541 455q70 0 112.5 32.5t44.5 85.5q0 80 -10 123h-133q-70 0 -112 -32.5t-42 -92.5q1 -116 140 -116zM541 174h-95q-43 0 -64.5 -22.5t-21.5 -51t21.5 -51t64.5 -22.5h562q16 -78 16 -145.5t-16 -143.5h-566q-176 0 -280.5 63.5t-104.5 229.5t154 243
q-139 96 -139 282.5t139 305.5t348 119h137q86 0 133.5 23.5t77.5 82.5q168 -44 248 -167q-53 -111 -172 -170q49 -84 43 -203q-6 -158 -142 -265.5t-343 -107.5z" />
    <glyph glyph-name="gbreve.ss04" horiz-adv-x="1138" 
d="M541 455q70 0 112.5 32.5t44.5 85.5q0 80 -10 123h-133q-70 0 -112 -32.5t-42 -92.5q1 -116 140 -116zM541 174h-95q-43 0 -64.5 -22.5t-21.5 -51t21.5 -51t64.5 -22.5h562q16 -78 16 -145.5t-16 -143.5h-566q-176 0 -280.5 63.5t-104.5 229.5t154 243
q-139 96 -139 282.5t139 305.5t348 119h137q86 0 133.5 23.5t77.5 82.5q168 -44 248 -167q-53 -111 -172 -170q49 -84 43 -203q-6 -158 -142 -265.5t-343 -107.5zM559.5 1079q-191.5 0 -304 115t-112.5 258q102 41 236 29q20 -78 75.5 -115t115 -37t114.5 39t68 113
q139 14 225 -33q0 -141 -113 -255t-304.5 -114z" />
    <glyph glyph-name="gcommaaccent.ss04" horiz-adv-x="1138" 
d="M541 455q70 0 112.5 32.5t44.5 85.5q0 80 -10 123h-133q-70 0 -112 -32.5t-42 -92.5q1 -116 140 -116zM541 174h-95q-43 0 -64.5 -22.5t-21.5 -51t21.5 -51t64.5 -22.5h562q16 -78 16 -145.5t-16 -143.5h-566q-176 0 -280.5 63.5t-104.5 229.5t154 243
q-139 96 -139 282.5t139 305.5t348 119h137q86 0 133.5 23.5t77.5 82.5q168 -44 248 -167q-53 -111 -172 -170q49 -84 43 -203q-6 -158 -142 -265.5t-343 -107.5zM549 1049q-86 0 -139 26q-4 41 -4 64q0 109 46 204t128 150q92 0 139 -70q-43 -109 -43 -194.5t22 -151.5
q-63 -28 -149 -28z" />
    <glyph glyph-name="gdotaccent.ss04" horiz-adv-x="1138" 
d="M541 455q70 0 112.5 32.5t44.5 85.5q0 80 -10 123h-133q-70 0 -112 -32.5t-42 -92.5q1 -116 140 -116zM541 174h-95q-43 0 -64.5 -22.5t-21.5 -51t21.5 -51t64.5 -22.5h562q16 -78 16 -145.5t-16 -143.5h-566q-176 0 -280.5 63.5t-104.5 229.5t154 243
q-139 96 -139 282.5t139 305.5t348 119h137q86 0 133.5 23.5t77.5 82.5q168 -44 248 -167q-53 -111 -172 -170q49 -84 43 -203q-6 -158 -142 -265.5t-343 -107.5zM558 1081q-89 0 -151.5 63.5t-62.5 150.5t62.5 149.5t150.5 62.5t152.5 -62.5t64.5 -149.5t-63.5 -150.5
t-152.5 -63.5z" />
    <glyph glyph-name="zero.osf" horiz-adv-x="1282" 
d="M641 285q203 0 203 259t-203 259t-203 -259t203 -259zM642 1141q280 0 432 -167t151 -424t-153 -420t-433 -163t-431 162t-151 423q0 261 153 425q152 164 432 164z" />
    <glyph glyph-name="one.osf" horiz-adv-x="821" 
d="M537 1133q82 0 161 -15v-1118q-98 -16 -184 -16t-184 16v715l-199 -80q-53 53 -90 136t-37 175l387 172q64 15 146 15z" />
    <glyph glyph-name="two.osf" horiz-adv-x="1107" 
d="M1063 156q0 -94 -27 -156h-954q-16 70 -16 138t57 140q57 71 227 193q174 133 216 175t42 79q0 74 -92 74t-242 -140q-90 27 -144 83t-93 151q190 246 489 246q209 -1 333 -103t124 -269t-77 -259t-197 -160l-115 -59l125 16l317 2q27 -57 27 -151z" />
    <glyph glyph-name="three.osf" horiz-adv-x="1071" 
d="M1018 135q0 -113 -49 -197q-83 -142 -296 -194q-85 -20 -175 -20q-326 0 -482 170q14 88 70 166t131 112q63 -70 121 -98t133 -27q152 0 152 127q0 68 -45 98t-168 29q-27 61 -27 146t29 135q106 0 150 26t44 84q0 59 -36 89t-95 30q-119 0 -227 -92q-76 33 -120 84
t-75 135q145 201 461 201q211 -1 333 -105t122 -286t-154 -283q203 -92 203 -330z" />
    <glyph glyph-name="four.osf" horiz-adv-x="1220" 
d="M651 301v313l2 84l-47 -82l-196 -315h241zM1196 157q0 -81 -16 -153h-191v-256q-86 -16 -165 -16t-173 16v256h-608q-27 53 -27 115q0 106 74 213l514 774q94 16 210 16t175 -16v-805h193q14 -63 14 -144z" />
    <glyph glyph-name="five.osf" horiz-adv-x="1089" 
d="M492 -274q-152 0 -267 44t-170 95q43 193 168 285q119 -90 277 -91q184 0 184 121q0 43 -15 67t-85 44t-203 20l-279 2v795h861q16 -88 16 -169t-14 -153h-535v-159h47q299 1 433 -105t134 -321t-146 -345t-406 -130z" />
    <glyph glyph-name="six.osf" horiz-adv-x="1161" 
d="M604 268q170 0 170 156q0 143 -172 143q-94 0 -188 -55q0 -120 52 -182t138 -62zM717 868q188 0 298 -108q109 -108 109 -324q0 -214 -145 -344t-396 -131q-251 1 -391 147t-141 410q0 342 244 590t590 293q53 -43 81 -138t27 -200q-379 -27 -508 -252q99 57 232 57z" />
    <glyph glyph-name="seven.osf" horiz-adv-x="1040" 
d="M1022 983q0 -90 -49 -192l-516 -1065q-93 8 -183 46t-131 89l463 930h-565q-14 67 -14 155t14 162h965q16 -35 16 -125z" />
    <glyph glyph-name="eight.osf" horiz-adv-x="1153" 
d="M422 358q0 -59 42 -93t112 -34q69 0 112 29t43 80t-39 85q-39 35 -93 61t-62 31t-15 7q-100 -78 -100 -166zM573 1100q-69 0 -105 -29t-36 -67q0 -64 80 -113q27 -16 86 -47h2l2 -2q119 70 119 145q-1 113 -148 113zM1092 373q0 -205 -153 -308t-376 -103t-363 90
t-140 278t208 332q-182 125 -185 305q-3 181 128 291t359 110t362 -94t133 -258q0 -194 -184 -307q211 -131 211 -336z" />
    <glyph glyph-name="nine.osf" horiz-adv-x="1159" 
d="M381 663q0 -71 42 -112t112 -41q125 0 196 41q-12 123 -65 193q-54 70 -128 71q-74 3 -116 -39t-41 -113zM551 1141q267 0 409 -174t142 -486q0 -375 -217 -566t-652 -189q-49 82 -49 213q0 41 9 106q237 4 355 51t161 178q-91 -72 -269 -72t-297 116q-119 118 -119 333
t154 353q154 137 373 137z" />
    <glyph glyph-name="zero.tf" horiz-adv-x="1187" 
d="M594 285q86 0 123 95q37 94 37 280t-37 277t-123 91t-123 -91t-37 -276t37 -281t123 -95zM594 1366q274 0 412 -188t139 -517t-139 -511t-414 -183q-274 1 -412 183t-137 516q0 334 139 517q138 183 412 183z" />
    <glyph glyph-name="one.tf" horiz-adv-x="1187" 
d="M477 319v631l-280 -108q-49 26 -88 116t-39 187l469 196q63 15 169 15t138 -15v-1022h274q37 -146 0 -319h-964q-18 100 -18 166t18 153h321z" />
    <glyph glyph-name="two.tf" horiz-adv-x="1187" 
d="M90 125q0 131 103 225q323 293 401 379q78 85 78 151t-35 103t-108 37t-123 -29t-111 -90q-178 66 -246 248q86 97 220 157t296 60q227 0 361 -111t133 -321q-1 -164 -101 -293t-311 -293l-41 -26l84 8l404 2q26 -80 26 -169t-26 -163h-990q-14 61 -14 125z" />
    <glyph glyph-name="three.tf" horiz-adv-x="1187" 
d="M711 465q0 166 -191 166h-194q-8 37 -9 51q0 74 82 172l136 160h-418q-44 166 0 317h932q2 -14 2 -47q0 -117 -68 -203l-180 -223q115 -25 199 -120q84 -94 85 -244q0 -286 -164 -411q-163 -124 -413 -124q-136 0 -252 47t-180 107q41 188 170 288q135 -117 287 -116
q80 0 128 46t48 134z" />
    <glyph glyph-name="four.tf" horiz-adv-x="1187" 
d="M1157 400q0 -83 -16 -171h-150v-229q-88 -16 -168 -16t-178 16v229h-557q-53 74 -54 165t44 227l237 755q193 -6 355 -80l-207 -675q-12 -35 -12 -64h194v268q189 31 346 0v-268h152q14 -74 14 -157z" />
    <glyph glyph-name="five.tf" horiz-adv-x="1187" 
d="M563 -39q-165 0 -281 38t-173 85q39 207 163 303q117 -84 292 -84t175 129t-178 129q-77 -1 -187 -23t-146 -22t-85 14v801h856q32 -177 2 -319h-530v-142q51 14 145 15q234 0 356 -118t122 -334t-142 -344t-389 -128z" />
    <glyph glyph-name="six.tf" horiz-adv-x="1187" 
d="M614 268q152 0 152 158q0 141 -154 141q-76 0 -172 -59v-2q0 -118 48 -178t126 -60zM735 866q190 0 296 -107q105 -109 105 -323t-144 -344q-146 -130 -396 -131q-250 1 -388 149t-138 396q0 374 236 612t587 283q94 -113 94 -338q-186 -25 -310 -84t-185 -197
q114 84 243 84z" />
    <glyph glyph-name="seven.tf" horiz-adv-x="1187" 
d="M1128 1315q16 -41 16 -126t-48 -192l-561 -1067q-89 0 -181 46t-133 116l469 883h-575q-17 72 -17 170t17 170h1013z" />
    <glyph glyph-name="eight.tf" horiz-adv-x="1187" 
d="M606 231q117 0 117 109q0 47 -31 77t-114 83l-37 22q-57 -76 -57 -148t33 -108q34 -35 89 -35zM592 1098q-47 0 -75 -27t-28 -69t32 -77q32 -34 126 -89q55 72 55 140t-31 95q-32 27 -79 27zM1079 342q0 -176 -128 -278t-357 -103q-229 0 -358 90q-130 90 -130 280
t189 343q-160 119 -163 295q-3 177 123 287t343 110t336 -99t119 -273t-170 -314q102 -78 149 -153t47 -185z" />
    <glyph glyph-name="nine.tf" horiz-adv-x="1187" 
d="M422 890q0 -73 48 -112t123 -39t152 27q-8 131 -55 203q-46 73 -116 73t-111 -40t-41 -112zM567 1366q259 0 403 -175t144 -470q0 -367 -218 -567t-665 -197q-49 84 -49 217q0 41 8 102q242 10 359 48t164 155q-92 -49 -205 -49q-205 0 -326 118t-121 332q-1 214 145 350
t361 136z" />
    <glyph glyph-name="currency.osf" horiz-adv-x="1261" 
d="M457 553q0 -76 51 -128t122 -52t124 53t53 127t-51 126t-124 52t-124 -51t-51 -127zM1161 552q0 -142 -69 -263l106 -107q-29 -70 -86 -127t-127 -86l-113 113q-110 -59 -242 -59t-241 59l-113 -113q-68 31 -126 88t-87 125l109 109q-70 121 -70 263t70 263l-109 109
q35 68 93 125t120 88l115 -115q111 57 240 57t239 -57l115 115q150 -66 213 -213l-108 -109q71 -123 71 -265z" />
    <glyph glyph-name="dollar.osf" horiz-adv-x="1062" 
d="M1006 367q0 -322 -314 -387v-218q-72 -16 -150 -16t-151 16v211q-217 29 -344 131q4 82 47 154t109 107q141 -102 334 -103q91 0 121 14t30 50t-39 50q-39 13 -182 21q-173 17 -279 101t-108 228t82 236t229 125v234q76 16 154 16t147 -16v-223q184 -25 287 -103
q0 -158 -121 -268q-129 82 -323 82q-137 0 -138 -55q0 -16 18 -30t226 -34q365 -42 365 -323z" />
    <glyph glyph-name="sterling.osf" horiz-adv-x="1083" 
d="M1016 160q0 -74 -23 -160h-862q0 94 35 214t35 210h-127q-20 43 -20 100t20 101h108q-4 53 -4 96q0 182 128 302t335 120q256 0 385 -148q-49 -180 -223 -256q-47 61 -129 62q-125 0 -125 -111q0 -20 4 -65h233q20 -43 20 -101t-20 -100h-213q0 -66 -16 -119h436
q23 -71 23 -145z" />
    <glyph glyph-name="yen.osf" horiz-adv-x="1308" 
d="M840 399v-77h235q8 -33 8 -75t-8 -75h-235v-172q-80 -14 -178 -14t-191 14v172h-235q-13 79 0 150h235v77h-235q-13 79 0 150h163l-360 559q139 29 251 29t185 -15l176 -327l21 -45l18 45l178 327q172 34 400 -12l-342 -561h149q8 -33 8 -75t-8 -75h-235z" />
    <glyph glyph-name="ampersand.ss02" horiz-adv-x="1421" 
d="M606 264q86 0 144 23l-265 243q-71 -46 -71 -118t53 -110t139 -38zM574 -39q-254 -1 -392 105q-137 106 -137 294q0 244 225 377q-92 106 -92 261t124 258q124 104 333 104t375 -127q-43 -180 -170 -242q-90 66 -201 66q-139 0 -139 -88q0 -33 28 -71t111 -120l197 -190
v229h503q39 -131 2 -272h-215v-58q0 -85 -18 -163l313 -301q-37 -23 -143 -41t-182 -17l-127 119q-141 -123 -395 -123z" />
    <glyph glyph-name="caroncomb.alt" 
d="M-194 1534q85 0 141 -31q12 -61 12 -123q0 -123 -54 -235.5t-138 -171.5q-33 0 -73 20.5t-59 50.5q55 115 55.5 244t-32.5 213q63 33 148 33z" />
    <glyph glyph-name="gravecomb.case" 
d="M-121 1397l-534 159q4 199 143 302l465 -312q-11 -92 -74 -149z" />
    <glyph glyph-name="acutecomb.case" 
d="M-573 1397q-66 57 -76 149l467 312q141 -106 141 -302z" />
    <glyph glyph-name="tildecomb.case" 
d="M-358 1712q65 0 90 92q147 0 241 -84q-20 -131 -104 -207.5t-193 -76.5q-74 0 -170 36.5t-124 36.5q-77 0 -97 -90q-59 0 -133 21.5t-108 62.5q20 133 105 209t202 76q70 0 165 -38t126 -38z" />
    <glyph glyph-name="acute.case" horiz-adv-x="708" 
d="M135 1397q-66 57 -76 149l467 312q141 -106 142 -302z" />
    <glyph glyph-name="breve.case" horiz-adv-x="923" 
d="M464 1415q-185 0 -294 105.5t-109 251.5q86 39 207 28q41 -133 205 -133q66 0 121 31t70 102q119 14 198 -28q0 -143 -106.5 -250t-291.5 -107z" />
    <glyph glyph-name="caron.case" horiz-adv-x="897" 
d="M358 1436l-295 237q20 106 111 158l287 -162l268 162q88 -43 109 -148l-289 -247q-95 -23 -191 0z" />
    <glyph glyph-name="circumflex.case" horiz-adv-x="897" 
d="M172 1425q-90 43 -111 156l291 238q94 20 191 0l295 -228q-16 -113 -111 -166l-287 162z" />
    <glyph glyph-name="dieresis.case" horiz-adv-x="958" 
d="M740 1450q-73 0 -125 52t-52 125t52.5 124t125 51t125 -51t52.5 -124t-52.5 -125t-125.5 -52zM218 1450q-73 0 -125 52t-52 125t52 124t125 51t125 -51t52 -124t-52 -125t-125 -52z" />
    <glyph glyph-name="dotaccent.case" horiz-adv-x="634" 
d="M316 1409q-89 0 -151.5 62.5t-62.5 149.5t62.5 149.5t150.5 62.5t152.5 -62.5t64.5 -149.5t-63.5 -149.5t-152.5 -62.5z" />
    <glyph glyph-name="grave.case" horiz-adv-x="708" 
d="M588 1397l-535 159q4 199 144 302l465 -312q-11 -92 -74 -149z" />
    <glyph glyph-name="hungarumlaut.case" horiz-adv-x="915" 
d="M580 1346q-84 27 -131 108l233 354q162 -27 213 -174zM152 1346q-80 25 -132 108l234 354q162 -25 213 -174z" />
    <glyph glyph-name="macron.case" horiz-adv-x="794" 
d="M35 1605.5q0 67.5 20 123.5h688q34 -127 0 -238h-688q-20 47 -20 114.5z" />
    <glyph glyph-name="ring.case" horiz-adv-x="616" 
d="M309 1538q35 0 58.5 24.5t23.5 60.5t-23.5 60.5t-58.5 24.5t-59.5 -25.5t-24.5 -60.5t24.5 -59.5t59.5 -24.5zM308 1354q-110 0 -188.5 78.5t-78.5 190.5t79 189.5t188.5 77.5t188 -78.5t78.5 -189.5t-78.5 -189.5t-188.5 -78.5z" />
    <glyph glyph-name="tilde.case" horiz-adv-x="983" 
d="M334 1788q70 0 165 -38t127 -38t55.5 25.5t33.5 66.5q147 0 241 -84q-20 -131 -104 -207.5t-193 -76.5q-74 0 -170 36.5t-124 36.5q-77 0 -97 -90q-59 0 -133 21.5t-108 62.5q20 133 105 209t202 76z" />
    <glyph glyph-name="IJacute" horiz-adv-x="1218" 
d="M658 -86q-216 0 -324 100q0 96 46 180t118 125q60 -59 126 -59q124 0 121 105v946q81 14 179 14t190 -14v-936q0 -201 -120 -331t-336 -130zM291 375q-98 0 -191 14v922q80 14 178 14t191 -14v-922q-80 -14 -178 -14zM766 1346q-70 49 -88 143l426 352q147 -92 168 -287z
M139 1346q-70 49 -88 143l426 352q147 -92 168 -287z" />
    <glyph glyph-name="ijacute" horiz-adv-x="1142" 
d="M626 -410q-194 0 -296 86q0 66 40 139t101 109q49 -41 109 -41q106 0 106 150v942q80 14 178 14t191 -14v-926q0 -219 -118 -339q-117 -120 -311 -120zM274 -14q-98 0 -186 14v975q84 14 182 14t187 -14v-975q-85 -14 -183 -14zM713 1051q-74 47 -99 139l390 362
q156 -82 188 -278zM125 1051q-74 47 -98 139l389 362q156 -82 188 -278z" />
    <glyph glyph-name="slashlong" horiz-adv-x="1228" 
d="M197 -76q-82 29 -111 111l899 993q80 -29 111 -102z" />
    <glyph glyph-name="slashshort" horiz-adv-x="849" 
d="M150 506q-39 29 -67 85t-32 107l651 344q80 -86 93 -196z" />
    <glyph glyph-name="stroke" horiz-adv-x="847" 
d="M784 1028q0 -49 -14 -98h-688q-18 41 -19 96q0 55 19 104h688q14 -53 14 -102z" />
    <glyph glyph-name="caronalt" horiz-adv-x="399" 
d="M90 1288q0 129 -33 213q63 33 149 33t140 -31q12 -61 12 -123q0 -124 -54 -236t-138 -171q-33 0 -73 20t-58 51q55 115 55 244z" />
    <glyph glyph-name="slashlong.case" horiz-adv-x="1523" 
d="M233 -115q-150 49 -196 189l1251 1382q139 -49 193 -182z" />
    <glyph glyph-name="slashshort.case" horiz-adv-x="849" 
d="M143 500q-39 29 -66 85q-28 56 -32 107l672 365q80 -86 92 -197z" />
    <glyph glyph-name="i.loclTRK" horiz-adv-x="544" 
d="M274 -14q-98 0 -186 14v975q84 14 182 14t187 -14v-975q-85 -14 -183 -14zM273 1081q-89 0 -151.5 63.5t-62.5 150.5t62.5 149.5t150.5 62.5t152.5 -62.5t64.5 -149.5t-63.5 -150.5t-152.5 -63.5z" />
    <glyph glyph-name="uni1EF9.ss01" horiz-adv-x="1159" 
d="M702 -4v67l-59 -6q-207 -14 -207 -131q0 -49 31 -74.5t78 -25.5q157 0 157 170zM886.5 977q98.5 0 184.5 -14v-910q0 -238 -152.5 -355.5t-364.5 -117.5t-328.5 74t-116.5 226.5t170 234.5q-109 39 -155 108.5t-46 192.5v547q86 14 184 14t184 -14v-445q0 -82 32 -117.5
t109 -35.5t115 24v574q86 14 184.5 14zM442 1487q59 0 141.5 -38t112 -38t53 23.5t33.5 62.5q147 0 242 -84q-20 -129 -104 -203.5t-193 -74.5q-63 0 -146 36.5t-108 36.5q-76 0 -96 -96q-59 0 -133 21.5t-109 62.5q20 135 105.5 213t201.5 78z" />
    <glyph glyph-name="uni1EF9.ss02" horiz-adv-x="1159" 
d="M886.5 977q98.5 0 184.5 -14v-889q0 -254 -146.5 -374t-387.5 -120q-328 0 -504 189q8 76 59 139t133 90q119 -131 298 -131t179 129v74q-72 -18 -151 -19q-473 0 -473 402v510q86 14 184 14t184 -14v-443q0 -82 32 -117.5t109 -35.5t115 24v572q86 14 184.5 14z
M440 1487q59 0 141.5 -38t112 -38t53 23.5t33.5 62.5q147 0 242 -84q-20 -129 -104 -203.5t-193 -74.5q-63 0 -146 36.5t-108 36.5q-76 0 -96 -96q-59 0 -133 21.5t-109 62.5q20 135 105.5 213t201.5 78z" />
    <glyph glyph-name="cent.osf" horiz-adv-x="1054" 
d="M560 -180q-79 0 -150 16v209q-166 43 -260 169t-94 314t94 316t260 174v203q72 16 150 16t151 -16v-193q172 -35 272 -160q-25 -63 -88 -119t-145 -90q-52 80 -144 80t-137 -55q-45 -56 -45 -150t46 -152t138 -58t172 86q156 -70 201 -230q-111 -119 -270 -147v-197
q-72 -16 -151 -16z" />
    <glyph glyph-name="Euro.osf" horiz-adv-x="1138" 
d="M739 -37q-459 0 -540 404h-144q-8 49 -8 75t8 74h125v70h-90q-8 49 -8 75t8 74h111q47 189 185 293t343 105q119 0 210 -31t136 -70q-43 -172 -182 -278q-59 43 -153 43t-138 -62h148q8 -33 8 -75t-8 -74h-193v-70h158q8 -33 8 -75t-8 -74h-117q46 -68 148 -68t165 47
q123 -80 166 -293q-133 -90 -338 -90z" />
    <glyph glyph-name="uni0308.case" 
d="M-218 1450q-73 0 -125 52t-52 125t52 124t125 51t125 -51t52 -124t-52 -125t-125 -52zM-740 1450q-73 0 -125.5 52t-52.5 125t52.5 124t125.5 51t125 -51t52 -124t-52 -125t-125 -52z" />
    <glyph glyph-name="uni0307.case" 
d="M-318 1409q-89 0 -151.5 62.5t-62.5 149.5t62 149.5t150.5 62.5t153 -62.5t64.5 -149.5t-63.5 -149.5t-152.5 -62.5z" />
    <glyph glyph-name="uni030B.case" 
d="M-350 1346q-84 27 -131 108l233 354q162 -27 213 -174zM-778 1346q-80 25 -131 108l233 354q162 -25 213 -174z" />
    <glyph glyph-name="uni0302.case" 
d="M-725 1425q-90 43 -111 156l291 238q94 20 191 0l295 -228q-16 -113 -111 -166l-287 162z" />
    <glyph glyph-name="uni030C.case" 
d="M-539 1436l-295 237q20 106 111 158l287 -162l268 162q88 -43 109 -148l-289 -247q-95 -23 -191 0z" />
    <glyph glyph-name="uni0306.case" 
d="M-470 1415q-185 0 -293.5 105.5t-108.5 251.5q86 39 206 28q41 -133 205 -133q66 0 121 31t70 102q119 14 198 -28q0 -143 -106.5 -250t-291.5 -107z" />
    <glyph glyph-name="uni030A.case" 
d="M-287 1538q35 0 58.5 24.5t23.5 60.5t-23.5 60.5t-58.5 24.5t-59.5 -25.5t-24.5 -60.5t24.5 -59.5t59.5 -24.5zM-288 1354q-110 0 -188.5 78.5t-78.5 190.5t79 189.5t189.5 77.5t188.5 -78.5t78 -189.5t-79 -189.5t-189 -78.5z" />
    <glyph glyph-name="uni0304.case" 
d="M-41 1608q0 -62 -16 -117h-688q-20 47 -20.5 114.5t20.5 123.5h688q16 -59 16 -121z" />
    <glyph glyph-name="uni0337.case" 
d="M-707 500q-39 29 -66.5 85t-31.5 107l672 365q80 -86 92 -197z" />
    <glyph glyph-name="uni0338.case" 
d="M-1290 -115q-150 49 -197 189l1251 1382q139 -49 193 -182z" />
    </font>
</defs>
</svg>
