<?xml version="1.0" standalone="no"?>
<!DOCTYPE svg PUBLIC "-//W3C//DTD SVG 1.1//EN" "http://www.w3.org/Graphics/SVG/1.1/DTD/svg11.dtd" >
<svg xmlns="http://www.w3.org/2000/svg">
<metadata></metadata>
<defs>
<font id="cera_basicbold" horiz-adv-x="1146" >
<font-face units-per-em="2048" ascent="1655" descent="-393" />
<missing-glyph horiz-adv-x="573" />
<glyph horiz-adv-x="0" />
<glyph horiz-adv-x="682" />
<glyph unicode=" "  horiz-adv-x="573" />
<glyph unicode="&#x09;" horiz-adv-x="573" />
<glyph unicode="&#xa0;" horiz-adv-x="573" />
<glyph unicode="!" horiz-adv-x="710" d="M166 166q0 81 54 135.5t138 54.5q79 0 134 -55t55 -135q0 -81 -54.5 -136t-134.5 -55q-84 0 -138 54.5t-54 136.5zM188 1352h330l-51 -856h-225z" />
<glyph unicode="&#x22;" horiz-adv-x="1101" d="M170 782l10 570h316l-115 -570h-211zM655 782l11 570h315l-115 -570h-211z" />
<glyph unicode="#" horiz-adv-x="1292" d="M55 340v231h201l27 209h-185v232h217l45 340h226l-45 -340h303l45 340h225l-45 -340h168v-232h-199l-28 -209h186v-231h-217l-47 -340h-223l45 340h-303l-48 -340h-223l45 340h-170zM479 559h303l31 234h-303z" />
<glyph unicode="$" horiz-adv-x="1101" d="M66 332l186 139q119 -186 309 -186q79 0 128.5 31t49.5 90q0 49 -38 78.5t-119 62.5l-140 51q-305 114 -305 356q0 124 80 212t211 120v248h242v-244q203 -41 305 -233l-184 -139q-96 139 -236 139q-63 0 -105 -25.5t-42 -79.5q0 -46 33 -73.5t104 -55.5l153 -53 q156 -58 234 -146t78 -214q0 -144 -94 -238.5t-246 -120.5v-250h-242v254q-242 52 -362 277z" />
<glyph unicode="%" horiz-adv-x="1701" d="M86 1040q0 142 101.5 239t246.5 97t246.5 -97t101.5 -239q0 -144 -101 -241t-247 -97t-247 97t-101 241zM299 1040q0 -66 37.5 -106.5t99.5 -40.5q58 0 96.5 41t38.5 106q0 63 -39 104.5t-96 41.5q-61 0 -99 -41t-38 -105zM352 0l776 1352h224l-779 -1352h-221zM920 315 q0 142 101.5 239t246.5 97q146 0 248 -97t102 -239q0 -144 -102 -241t-248 -97t-247 97t-101 241zM1133 315q0 -65 37 -105t100 -40q58 0 95.5 40.5t37.5 104.5t-38 105t-95 41q-62 0 -99.5 -40.5t-37.5 -105.5z" />
<glyph unicode="&#x26;" horiz-adv-x="1380" d="M94 352q0 63 19 118.5t59 106t83.5 90.5t109.5 91q-117 152 -117 295q0 145 93.5 234t248.5 89q151 0 242.5 -83t91.5 -214q0 -100 -55 -182t-158 -166l202 -248q29 40 92.5 131t98.5 140l213 -152q-17 -24 -57 -82.5t-61.5 -89.5t-54.5 -75.5t-61 -78.5l228 -276h-324 l-82 100q-168 -125 -366 -125q-197 0 -321 104.5t-124 272.5zM371 379q0 -70 50.5 -115t133.5 -45q98 0 190 76l-233 283q-74 -60 -107.5 -101.5t-33.5 -97.5zM496 1051q0 -39 19 -73.5t56 -78.5q53 41 79 76.5t26 77.5q0 40 -22.5 64t-65.5 24t-67.5 -24.5t-24.5 -65.5z " />
<glyph unicode="'" horiz-adv-x="616" d="M170 782l10 570h316l-115 -570h-211z" />
<glyph unicode="(" horiz-adv-x="747" d="M139 621q0 187 36 341t100 260.5t141 177.5t170 113l108 -165q-67 -44 -119 -101.5t-98 -143t-71 -208t-25 -274.5q0 -517 313 -725l-108 -166q-93 42 -170.5 113.5t-141 178.5t-99.5 260.5t-36 338.5z" />
<glyph unicode=")" horiz-adv-x="747" d="M53 -104q316 210 316 725q0 152 -25.5 274.5t-72 208t-99 142.5t-119.5 102l111 165q92 -42 168.5 -113t140 -177.5t99.5 -260.5t36 -341q0 -185 -36 -339t-99.5 -260.5t-140.5 -178t-168 -113.5z" />
<glyph unicode="*" horiz-adv-x="956" d="M80 983l186 137l-186 140l80 137l213 -92l26 229h158l27 -229l213 92l80 -137l-189 -140l189 -137l-80 -137l-213 92l-27 -229h-158l-26 229l-213 -92z" />
<glyph unicode="+" d="M92 539v233h352v361h265v-361h348v-233h-348v-365h-265v365h-352z" />
<glyph unicode="," horiz-adv-x="552" d="M129 -365l10 617h316l-107 -617h-219z" />
<glyph unicode="-" horiz-adv-x="700" d="M92 541v231h516v-231h-516z" />
<glyph unicode="." horiz-adv-x="552" d="M86 166q0 80 55 135t138 55q81 0 134.5 -55t53.5 -135q0 -82 -53.5 -136.5t-134.5 -54.5q-83 0 -138 54.5t-55 136.5z" />
<glyph unicode="/" horiz-adv-x="1376" d="M6 -248l1071 1845h293l-1071 -1845h-293z" />
<glyph unicode="0" horiz-adv-x="1349" d="M86 549q0 159 78 291.5t213 208t297 75.5q161 0 296.5 -75.5t214.5 -208t79 -291.5t-79 -291t-215 -207.5t-298 -75.5q-161 0 -295.5 75.5t-212.5 207.5t-78 291zM369 549q0 -138 85.5 -229t219.5 -91q130 0 217.5 91.5t87.5 228.5q0 138 -87 229.5t-218 91.5 q-134 0 -219.5 -91t-85.5 -230z" />
<glyph unicode="1" horiz-adv-x="1056" d="M143 0v233h291v619h-270v248h547v-867h266v-233h-834z" />
<glyph unicode="2" horiz-adv-x="1189" d="M82 0v59l426 318q131 100 172 142q82 85 82 173q0 75 -49.5 126.5t-134.5 51.5t-134 -51.5t-49 -128.5q0 -16 8 -86h-270q-16 62 -16 113q0 77 33 150t92.5 130.5t149 92t194.5 34.5q200 0 329 -115.5t129 -289.5q0 -68 -21 -129t-64 -117t-94 -103.5t-124 -103.5 l-43 -33h385v-233h-1001z" />
<glyph unicode="3" horiz-adv-x="1099" d="M6 33l191 137q63 -94 130.5 -141t159.5 -47q104 0 171 56t67 152t-72 147.5t-207 51.5h-165v72l278 391h-450v248h872v-74l-297 -416q134 -37 229 -147t95 -270q0 -203 -148.5 -334t-361.5 -131q-169 0 -297 83.5t-195 221.5z" />
<glyph unicode="4" horiz-adv-x="1179" d="M35 0v74l405 1026h285l-346 -867h328v381h274v-381h174v-233h-174v-248h-274v248h-672z" />
<glyph unicode="5" horiz-adv-x="1132" d="M23 33l192 137q61 -93 132 -140.5t169 -47.5q104 0 173 57t69 154q0 95 -71 145.5t-206 50.5h-317v711h784v-248h-518v-242q83 17 156 17q86 0 166 -28.5t145 -81t104 -136.5t39 -186q0 -136 -69.5 -243.5t-187 -165.5t-259.5 -58q-173 0 -302.5 83.5t-198.5 221.5z" />
<glyph unicode="6" horiz-adv-x="1150" d="M80 461q0 111 42.5 199t141.5 225l338 467h326l-312 -434h9q114 0 216 -57t167 -164t65 -238q0 -137 -69.5 -249t-183 -173.5t-245.5 -61.5q-98 0 -188.5 36.5t-158 99.5t-108 154.5t-40.5 195.5zM352 459q0 -97 64.5 -163.5t158.5 -66.5t159 66t65 164q0 97 -64.5 162 t-159.5 65q-94 0 -158.5 -65.5t-64.5 -161.5z" />
<glyph unicode="7" horiz-adv-x="1075" d="M78 852v248h950v-74l-618 -1274h-301l548 1100h-579z" />
<glyph unicode="8" horiz-adv-x="1204" d="M94 360q0 234 266 340q-204 119 -204 318q0 168 126 263t320 95q127 0 227 -40.5t160 -123t60 -194.5q0 -200 -205 -318q264 -107 264 -340q0 -176 -141 -280.5t-365 -104.5q-225 0 -366.5 104.5t-141.5 280.5zM371 371q0 -76 59.5 -123t171.5 -47q113 0 172.5 46.5 t59.5 123.5q0 76 -58.5 123.5t-173.5 89.5q-115 -41 -173 -89t-58 -124zM414 1006q0 -60 46 -101.5t142 -85.5q96 42 142.5 84.5t46.5 104.5q0 67 -54 106t-135 39q-82 0 -135 -39t-53 -108z" />
<glyph unicode="9" horiz-adv-x="1150" d="M80 643q0 137 69 248t182.5 172t246.5 61q132 0 245 -61t181.5 -173t68.5 -251q0 -110 -42 -197.5t-144 -226.5l-334 -463h-326l310 430h-11q-113 0 -214.5 57.5t-166.5 165t-65 238.5zM352 641q0 -97 65 -162t158 -65q95 0 159.5 65t64.5 162q0 98 -64.5 163.5 t-159.5 65.5q-93 0 -158 -65t-65 -164z" />
<glyph unicode=":" horiz-adv-x="552" d="M86 166q0 80 55 135t138 55q81 0 134.5 -55t53.5 -135q0 -82 -53.5 -136.5t-134.5 -54.5q-83 0 -138 54.5t-55 136.5zM86 842q0 82 55 136t138 54q82 0 135 -54t53 -136t-53 -135.5t-135 -53.5q-83 0 -138 53.5t-55 135.5z" />
<glyph unicode=";" horiz-adv-x="552" d="M86 842q0 82 55 136t138 54q82 0 135 -54t53 -136t-53 -135.5t-135 -53.5q-83 0 -138 53.5t-55 135.5zM129 -365l10 617h316l-107 -617h-219z" />
<glyph unicode="&#x3c;" d="M76 618v76l950 420v-240l-510 -217l510 -217v-241z" />
<glyph unicode="=" d="M113 319v234h923v-234h-923zM113 760v233h923v-233h-923z" />
<glyph unicode="&#x3e;" d="M121 199v241l510 217l-510 217v240l950 -420v-76z" />
<glyph unicode="?" horiz-adv-x="925" d="M49 1065q43 153 149.5 232t254.5 79q171 0 287 -99.5t116 -258.5q0 -92 -41.5 -157.5t-128.5 -141.5q-7 -6 -23.5 -20.5t-23 -20.5t-20 -18t-19.5 -18t-16 -17t-14.5 -17.5t-11 -16t-9 -17.5t-4.5 -17t-2 -18q0 -19 4 -43h-234q-22 50 -22 98q0 35 13 67t41.5 63.5 t48 49.5t59.5 51q73 62 96.5 92t23.5 76q0 58 -38 93.5t-91 35.5q-111 0 -170 -155zM246 166q0 80 54.5 135t137.5 55q81 0 136 -55t55 -135q0 -82 -54.5 -136.5t-136.5 -54.5q-83 0 -137.5 54.5t-54.5 136.5z" />
<glyph unicode="@" horiz-adv-x="1951" d="M78 487q0 151 47 287.5t132 243t199.5 185t255 120t292.5 41.5q185 0 347.5 -62.5t276 -168.5t179 -250.5t65.5 -304.5q0 -104 -28.5 -189.5t-80.5 -146t-125 -101.5t-161 -60.5t-191 -19.5h-100v101q-91 -123 -271 -123t-295.5 126t-115.5 320q0 193 116 319t295 126 q176 0 265 -115v96h231v-635q240 16 240 302q0 255 -175.5 415t-465.5 160q-205 0 -366.5 -82.5t-252 -233.5t-90.5 -345q0 -147 54 -271.5t146.5 -208.5t217 -131t264.5 -47q123 0 244 31l43 -191q-137 -51 -316 -51t-340 65t-279 178t-187.5 275t-69.5 346zM760 485 q0 -98 59.5 -157.5t145.5 -59.5q83 0 141.5 55t58.5 162q0 106 -58 161.5t-140 55.5q-87 0 -147 -59t-60 -158z" />
<glyph unicode="A" horiz-adv-x="1353" d="M27 0l604 1376h92l602 -1376h-297l-76 176h-553l-75 -176h-297zM498 403h356l-178 455z" />
<glyph unicode="B" horiz-adv-x="1271" d="M156 0v1352h266h213q188 0 308 -105t120 -272q0 -147 -100 -244q114 -40 176.5 -126t62.5 -208q0 -175 -124 -286t-320 -111h-467h-135zM422 238h315q91 0 142 45t51 125q0 78 -51.5 124t-141.5 46h-315v-340zM422 805h190q84 0 130 42.5t46 113.5q0 72 -45.5 112.5 t-130.5 40.5h-190v-309z" />
<glyph unicode="C" horiz-adv-x="1474" d="M78 676q0 146 56.5 276.5t152.5 223t229.5 146.5t282.5 54q193 0 349.5 -89.5t246.5 -246.5l-209 -147q-143 227 -387 227q-190 0 -313.5 -125t-123.5 -321q0 -194 123.5 -318.5t313.5 -124.5q244 0 387 228l209 -148q-89 -157 -246 -246.5t-352 -89.5q-148 0 -281 54 t-229 147t-152.5 223.5t-56.5 276.5z" />
<glyph unicode="D" horiz-adv-x="1413" d="M156 0v1352h442q216 0 383 -82.5t260.5 -236t93.5 -353.5q0 -197 -93 -352t-261.5 -241.5t-382.5 -86.5h-442zM432 250h164q205 0 330 118t125 312q0 197 -124 309.5t-331 112.5h-164v-852z" />
<glyph unicode="E" horiz-adv-x="1173" d="M156 0v1352h909v-250h-633v-275h465v-235h-465v-342h658v-250h-934z" />
<glyph unicode="F" horiz-adv-x="1095" d="M156 0v1352h888v-250h-612v-338h502v-250h-502v-514h-276z" />
<glyph unicode="G" horiz-adv-x="1529" d="M78 676q0 195 95 356t261 252.5t367 91.5q179 0 325 -76.5t244 -216.5l-196 -161q-143 198 -377 198q-195 0 -315 -124.5t-120 -319.5q0 -199 124.5 -326t326.5 -127q116 0 207.5 44.5t148.5 123.5v111h-372v239h649v-399q-92 -165 -263 -266t-382 -101q-200 0 -366 92 t-261.5 253t-95.5 356z" />
<glyph unicode="H" horiz-adv-x="1460" d="M156 0v1352h276v-518h598v518h277v-1352h-277v584h-598v-584h-276z" />
<glyph unicode="I" horiz-adv-x="585" d="M156 0v1352h276v-1352h-276z" />
<glyph unicode="J" horiz-adv-x="796" d="M35 0v236q124 -9 135 -9q101 0 148 37t47 125v963h276v-992q0 -193 -107 -289t-305 -96q-92 0 -194 25z" />
<glyph unicode="K" horiz-adv-x="1372" d="M156 0v1352h276v-629l516 629h330l-518 -637l586 -715h-334l-580 705v-705h-276z" />
<glyph unicode="L" horiz-adv-x="1073" d="M156 0v1352h276v-1102h592v-250h-868z" />
<glyph unicode="M" horiz-adv-x="1634" d="M156 0v1376h90l571 -733l572 733h90v-1376h-277v723l-340 -428h-90l-340 428v-723h-276z" />
<glyph unicode="N" horiz-adv-x="1460" d="M156 0v1376h90l784 -829v805h277v-1377h-93l-782 836v-811h-276z" />
<glyph unicode="O" horiz-adv-x="1593" d="M78 676q0 195 96 356t260.5 252.5t360.5 91.5t361.5 -91.5t262.5 -252.5t97 -356q0 -146 -57 -276.5t-154 -223.5t-230 -147t-280 -54t-279.5 54t-228.5 147t-152.5 223.5t-56.5 276.5zM362 676q0 -196 122.5 -320.5t312.5 -124.5q187 0 310.5 125t123.5 320 q0 194 -123.5 319t-310.5 125q-189 0 -312 -124.5t-123 -319.5z" />
<glyph unicode="P" horiz-adv-x="1216" d="M156 0v1352h508q215 0 351 -120t136 -317q0 -194 -136.5 -316t-350.5 -122h-232v-477h-276zM432 719h232q95 0 149.5 53.5t54.5 142.5q0 86 -54.5 139.5t-149.5 53.5h-232v-389z" />
<glyph unicode="Q" horiz-adv-x="1593" d="M78 676q0 195 96 356t260.5 252.5t360.5 91.5t361.5 -91.5t262.5 -252.5t97 -356q0 -165 -71 -306t-194 -239q137 -177 311 -262.5t414 -85.5q41 0 189 8v-217q-111 -27 -242 -27q-275 0 -507 117t-394 346q-110 -35 -227 -35q-147 0 -279.5 54t-228.5 147t-152.5 223.5 t-56.5 276.5zM362 676q0 -196 122.5 -320.5t312.5 -124.5q187 0 310.5 125t123.5 320q0 194 -123.5 319t-310.5 125q-189 0 -312 -124.5t-123 -319.5z" />
<glyph unicode="R" horiz-adv-x="1310" d="M156 0v1352h508q215 0 351 -120t136 -317q0 -128 -63.5 -228t-174.5 -155l383 -532h-311l-350 477h-203v-477h-276zM432 721h232q96 0 150 52.5t54 141.5q0 86 -54.5 139.5t-149.5 53.5h-232v-387z" />
<glyph unicode="S" horiz-adv-x="1144" d="M61 274l191 144q66 -91 143.5 -144t188.5 -53q89 0 140.5 40t51.5 110q0 32 -10.5 55.5t-37.5 44t-50.5 33t-73.5 35.5l-145 65q-159 72 -243.5 163.5t-84.5 225.5q0 172 127.5 277.5t321.5 105.5q154 0 268.5 -70t177.5 -186l-188 -145q-104 155 -258 155 q-72 0 -120 -33.5t-48 -97.5q0 -54 36 -85t121 -70l154 -68q112 -49 182.5 -101.5t111 -126t40.5 -167.5q0 -185 -133.5 -295.5t-339.5 -110.5q-172 0 -309 80.5t-214 218.5z" />
<glyph unicode="T" horiz-adv-x="1198" d="M29 1102v250h1142v-250h-434v-1102h-276v1102h-432z" />
<glyph unicode="U" horiz-adv-x="1433" d="M143 559v793h277v-813q0 -147 83 -227.5t214 -80.5q132 0 214.5 80t82.5 228v813h276v-793q0 -177 -75 -311t-204.5 -203.5t-293.5 -69.5q-165 0 -294.5 69.5t-204.5 203.5t-75 311z" />
<glyph unicode="V" horiz-adv-x="1353" d="M27 1352h313l338 -820l336 820h311l-602 -1377h-92z" />
<glyph unicode="W" horiz-adv-x="2119" d="M51 1352h307l301 -797l355 821h92l354 -821l301 797h307l-540 -1377h-90l-377 846l-379 -846h-90z" />
<glyph unicode="X" horiz-adv-x="1257" d="M27 0l448 688l-422 664h316l260 -428l258 428h313l-414 -664l443 -688h-314l-286 449l-287 -449h-315z" />
<glyph unicode="Y" horiz-adv-x="1277" d="M35 1352h307l297 -537l299 537h305l-465 -820v-532h-276v530z" />
<glyph unicode="Z" horiz-adv-x="1204" d="M41 0v74l678 1028h-590v250h1016v-74l-680 -1028h682v-250h-1106z" />
<glyph unicode="[" horiz-adv-x="731" d="M184 -266v1761h469v-223h-233v-1315h233v-223h-469z" />
<glyph unicode="\" horiz-adv-x="1376" d="M6 1597h293l1071 -1845h-293z" />
<glyph unicode="]" horiz-adv-x="731" d="M78 -43h233v1315h-233v223h471v-1761h-471v223z" />
<glyph unicode="^" horiz-adv-x="1097" d="M100 565l404 807h90l401 -807h-264l-182 377l-184 -377h-265z" />
<glyph unicode="_" horiz-adv-x="1028" d="M72 -133h884v-217h-884v217z" />
<glyph unicode="`" horiz-adv-x="604" d="M61 1548v49h332l150 -428h-201z" />
<glyph unicode="a" horiz-adv-x="1116" d="M74 279q0 137 103.5 215.5t279.5 78.5h254v45q0 85 -48.5 132t-140.5 47q-77 0 -138.5 -34.5t-129.5 -105.5l-143 170q176 209 442 209q199 0 316.5 -111.5t117.5 -322.5v-602h-254v98q-117 -123 -309 -123q-162 0 -256 85.5t-94 218.5zM352 289q0 -52 40 -81.5 t106 -29.5q89 0 151 56.5t62 144.5v12h-217q-142 0 -142 -102z" />
<glyph unicode="b" horiz-adv-x="1288" d="M137 0v1536h277v-621q109 121 303 121q214 0 352.5 -150t138.5 -380t-138.5 -380.5t-352.5 -150.5q-104 0 -188.5 40t-137.5 112v-127h-254zM410 506q0 -137 75.5 -208t180.5 -71q112 0 187 77.5t75 203.5t-75.5 202t-186.5 76q-106 0 -181 -72t-75 -208z" />
<glyph unicode="c" horiz-adv-x="1130" d="M80 508q0 223 157.5 375.5t385.5 152.5q149 0 262 -66.5t178 -183.5l-193 -149q-97 147 -243 147q-118 0 -192.5 -78.5t-74.5 -197.5q0 -121 74.5 -200t192.5 -79q140 0 243 146l193 -148q-65 -117 -179 -184.5t-261 -67.5q-149 0 -274 70t-197 192.5t-72 270.5z" />
<glyph unicode="d" horiz-adv-x="1288" d="M80 506q0 230 138.5 380t352.5 150q194 0 303 -121v621h277v-1536h-254v127q-53 -73 -137 -112.5t-189 -39.5q-214 0 -352.5 150.5t-138.5 380.5zM360 508q0 -126 75.5 -203.5t187.5 -77.5q105 0 180.5 71t75.5 208q0 70 -22 125t-58.5 88t-81.5 50t-94 17 q-111 0 -187 -76.5t-76 -201.5z" />
<glyph unicode="e" horiz-adv-x="1165" d="M80 506q0 224 153 377t377 153q210 0 343.5 -135.5t133.5 -335.5q0 -72 -18 -151h-713q26 -96 101.5 -148.5t185.5 -52.5q150 0 283 102l114 -188q-182 -152 -405 -152q-158 0 -285.5 70t-198.5 191.5t-71 269.5zM356 608h463q-1 94 -64.5 149.5t-154.5 55.5 q-88 0 -153.5 -55t-90.5 -150z" />
<glyph unicode="f" horiz-adv-x="700" d="M41 780v234h143v166q0 190 104 285.5t287 95.5q77 0 152 -23v-231q-47 6 -82 6q-95 0 -139.5 -36t-44.5 -122v-141h223v-234h-223v-780h-277v780h-143z" />
<glyph unicode="g" horiz-adv-x="1292" d="M84 535q0 225 137.5 363t347.5 138q223 0 332 -149v127h254v-901q0 -248 -143 -377t-381 -129q-286 0 -498 188l146 193q83 -65 160 -98t169 -33q123 0 197 60.5t74 178.5v56q-112 -121 -310 -121q-211 0 -348 140t-137 364zM365 537q0 -122 76.5 -197.5t185.5 -75.5 q105 0 180.5 71.5t75.5 203.5q0 130 -75 196t-181 66q-112 0 -187 -71t-75 -193z" />
<glyph unicode="h" horiz-adv-x="1198" d="M137 0v1536h277v-608q108 108 278 108q172 0 274.5 -111.5t102.5 -295.5v-629h-274v590q0 89 -52 142.5t-137 53.5t-138.5 -54.5t-53.5 -141.5v-590h-277z" />
<glyph unicode="i" horiz-adv-x="550" d="M98 1382q0 73 51 122.5t125 49.5t126.5 -49.5t52.5 -122.5q0 -71 -52.5 -120.5t-126.5 -49.5t-125 49t-51 121zM137 0v1014h277v-1014h-277z" />
<glyph unicode="j" horiz-adv-x="550" d="M-129 -139q50 -6 84 -6q93 0 137.5 36.5t44.5 120.5v1002h277v-1026q0 -189 -104 -285t-285 -96q-83 0 -154 22v232zM98 1382q0 73 51 122.5t125 49.5t126.5 -49.5t52.5 -122.5q0 -71 -52.5 -120.5t-126.5 -49.5t-125 49t-51 121z" />
<glyph unicode="k" d="M137 0v1536h277v-956l364 434h328l-381 -449l412 -565h-316l-407 559v-559h-277z" />
<glyph unicode="l" horiz-adv-x="550" d="M137 0v1536h277v-1536h-277z" />
<glyph unicode="m" horiz-adv-x="1826" d="M137 0v1014h254v-90q109 112 287 112q205 0 301 -145q58 68 146 106.5t192 38.5q179 0 281 -111t102 -296v-629h-277v590q0 90 -49 143t-131 53q-83 0 -134.5 -52.5t-51.5 -137.5v-596h-277v590q0 90 -49 143t-131 53q-84 0 -135 -53t-51 -143v-590h-277z" />
<glyph unicode="n" horiz-adv-x="1198" d="M137 0v1014h254v-92q114 114 297 114q177 0 279 -111t102 -296v-629h-274v592q0 88 -52 142t-137 54t-138.5 -54.5t-53.5 -141.5v-592h-277z" />
<glyph unicode="o" horiz-adv-x="1245" d="M80 508q0 223 157.5 375.5t385.5 152.5q148 0 272.5 -69t198 -190.5t73.5 -268.5q0 -148 -73.5 -270t-198.5 -191.5t-274 -69.5t-273 69.5t-196 191.5t-72 270zM360 506q0 -120 74 -197.5t189 -77.5q113 0 187.5 78.5t74.5 196.5q0 120 -74.5 199t-187.5 79 q-115 0 -189 -79t-74 -199z" />
<glyph unicode="p" horiz-adv-x="1288" d="M137 -369v1383h254v-127q109 149 326 149q215 0 353 -149.5t138 -378.5q0 -230 -138.5 -381.5t-352.5 -151.5q-189 0 -303 123v-467h-277zM410 508q0 -136 75 -208.5t181 -72.5q111 0 186.5 76.5t75.5 202.5t-75 203t-187 77q-105 0 -180.5 -70.5t-75.5 -207.5z" />
<glyph unicode="q" horiz-adv-x="1288" d="M80 508q0 229 138 378.5t353 149.5q217 0 326 -149v127h254v-1383h-277v467q-114 -123 -303 -123q-214 0 -352.5 151.5t-138.5 381.5zM360 506q0 -126 76 -202.5t187 -76.5q49 0 94 17t81.5 50.5t58.5 88.5t22 125q0 137 -75.5 207.5t-180.5 70.5q-112 0 -187.5 -77 t-75.5 -203z" />
<glyph unicode="r" horiz-adv-x="794" d="M137 0v1014h254v-123q51 66 123 100.5t156 34.5q50 0 90 -12v-244h-74q-125 0 -198.5 -66t-73.5 -198v-506h-277z" />
<glyph unicode="s" horiz-adv-x="931" d="M45 172l139 168q134 -137 285 -137q56 0 92.5 21.5t36.5 62.5q0 17 -6.5 29.5t-24 24.5t-30 18t-43.5 20l-109 45q-140 57 -208 126.5t-68 182.5q0 143 103.5 224t268.5 81q227 0 365 -153l-139 -170q-104 96 -228 96q-108 0 -108 -72q0 -29 23.5 -48t82.5 -42l98 -41 q147 -60 216 -128.5t69 -180.5q0 -152 -111.5 -238t-283.5 -86q-132 0 -241.5 53t-178.5 144z" />
<glyph unicode="t" horiz-adv-x="851" d="M33 780v234h160v256h276v-256h287v-234h-287v-399q0 -86 45 -122t143 -36q25 0 131 8v-231q-102 -25 -190 -25q-193 0 -299 95t-106 286v424h-160z" />
<glyph unicode="u" horiz-adv-x="1187" d="M127 446v568h276v-590q0 -88 55 -141.5t138 -53.5q80 0 134 54t54 141v590h277v-568q0 -212 -132 -341.5t-333 -129.5q-204 0 -336.5 129.5t-132.5 341.5z" />
<glyph unicode="v" horiz-adv-x="1144" d="M25 1014h290l256 -576l256 576h293l-502 -1039h-92z" />
<glyph unicode="w" horiz-adv-x="1755" d="M25 1014h290l242 -578l274 600h93l280 -587l236 565h291l-471 -1039h-91l-292 590l-291 -590h-90z" />
<glyph unicode="x" horiz-adv-x="1087" d="M16 0l373 524l-348 490h309l193 -291l194 291h310l-351 -490l375 -524h-309l-219 324l-217 -324h-310z" />
<glyph unicode="y" horiz-adv-x="1144" d="M25 1014h292l248 -666l264 666h291l-485 -1102q-69 -158 -165.5 -231.5t-238.5 -73.5q-87 0 -178 24v232q94 -8 119 -8q74 0 124.5 28.5t86.5 108.5l31 67z" />
<glyph unicode="z" horiz-adv-x="958" d="M35 0v74l483 706h-436v234h840v-74l-482 -707h486v-233h-891z" />
<glyph unicode="{" horiz-adv-x="845" d="M92 496v235h127q58 0 85.5 25.5t27.5 81.5q0 37 -22.5 168.5t-22.5 199.5q0 289 315 289h166v-223h-119q-127 0 -127 -133q0 -41 22.5 -168.5t22.5 -179.5q0 -76 -35.5 -118t-111.5 -61q78 -19 112.5 -59.5t34.5 -116.5q0 -50 -22.5 -177.5t-22.5 -170.5q0 -66 33 -99.5 t94 -33.5h119v-221h-166q-315 0 -315 286q0 69 22.5 200.5t22.5 168.5q0 56 -27.5 81.5t-85.5 25.5h-127z" />
<glyph unicode="|" horiz-adv-x="679" d="M225 -248v1845h230v-1845h-230z" />
<glyph unicode="}" horiz-adv-x="845" d="M78 -45h117q61 0 95 33.5t34 99.5q0 43 -22.5 170.5t-22.5 177.5q0 75 34.5 116t110.5 60q-75 19 -110 61.5t-35 117.5q0 52 22.5 179.5t22.5 168.5q0 133 -129 133h-117v223h166q315 0 315 -289q0 -68 -22.5 -199.5t-22.5 -168.5q0 -56 27.5 -81.5t85.5 -25.5h125v-235 h-125q-58 0 -85.5 -25.5t-27.5 -81.5q0 -37 22.5 -168.5t22.5 -200.5q0 -286 -315 -286h-166v221z" />
<glyph unicode="~" d="M76 592q0 127 71 210t175 83q84 0 174 -54l180 -110q78 -45 112 -45q33 0 51.5 22t18.5 56v32h209q6 -27 6 -67q0 -128 -71.5 -210.5t-176.5 -82.5q-82 0 -174 53l-180 109q-73 47 -113 47q-33 0 -50 -21.5t-17 -58.5v-31h-211q-4 36 -4 68z" />
<glyph unicode="&#xa1;" horiz-adv-x="710" d="M166 848q0 82 54 135t138 53q80 0 134.5 -53.5t54.5 -134.5t-54.5 -136t-134.5 -55q-84 0 -138 54.5t-54 136.5zM190 -369l54 885h225l51 -885h-330z" />
<glyph unicode="&#xa2;" horiz-adv-x="1140" d="M68 668q0 180 106.5 319t276.5 189v358h241v-342q119 -17 211.5 -81.5t149.5 -164.5l-193 -147q-102 145 -246 145q-117 0 -190.5 -78t-73.5 -198t73.5 -198.5t190.5 -78.5q146 0 246 146l191 -148q-55 -100 -147.5 -164.5t-211.5 -81.5v-342h-241v359 q-170 50 -276.5 189t-106.5 319z" />
<glyph unicode="&#xa3;" horiz-adv-x="1165" d="M86 0v59q88 65 143.5 119.5t91 123t35.5 142.5v21h-250v233h162q-29 55 -43.5 87t-29.5 87t-15 109q0 178 127 286.5t320 108.5q172 0 295.5 -94t173.5 -276l-232 -84q-63 198 -219 198q-86 0 -135 -51t-49 -133q0 -41 16 -87.5t28 -69.5t46 -81h330v-233h-250v-16 q0 -124 -66 -216h510v-233h-989z" />
<glyph unicode="&#xa4;" horiz-adv-x="1345" d="M35 190l211 224q-80 116 -80 262q0 139 80 258l-211 215l166 166l217 -223q116 63 248 63q136 0 256 -65l223 225l166 -166l-219 -215q77 -116 77 -258q0 -145 -79 -260l221 -226l-164 -163l-229 233q-114 -63 -252 -63q-132 0 -248 61l-217 -231zM449 676 q0 -99 60.5 -162t158.5 -63q95 0 157 63.5t62 161.5t-62.5 161.5t-156.5 63.5q-98 0 -158.5 -63t-60.5 -162z" />
<glyph unicode="&#xa5;" horiz-adv-x="1226" d="M10 1352h307l297 -437l297 437h306l-404 -584h309v-223h-368v-127h368v-223h-368v-195h-277v195h-371v223h371v127h-371v223h308z" />
<glyph unicode="&#xa6;" horiz-adv-x="679" d="M225 -248v615h230v-615h-230zM225 983v614h230v-614h-230z" />
<glyph unicode="&#xa7;" horiz-adv-x="1232" d="M59 717q0 109 64 184.5t174 110.5q-4 16 -4 49q0 147 104.5 238.5t278.5 91.5q133 0 237 -57.5t166 -162.5l-174 -141q-95 129 -231 129q-123 0 -123 -98q0 -46 32.5 -79.5t123.5 -94.5l184 -127q150 -90 216.5 -172t66.5 -187q0 -109 -64 -184.5t-174 -110.5 q4 -32 4 -49q0 -147 -104.5 -238t-278.5 -91q-133 0 -238 57t-167 162l174 141q95 -129 231 -129q123 0 123 98q0 46 -33 80.5t-121 93.5l-186 127q-149 90 -215 172t-66 187zM317 725q0 -40 33 -76.5t127 -99.5l185 -125q120 -76 182 -141q69 42 69 110q0 41 -32 77 t-125 99l-201 133q-106 70 -168 132q-70 -39 -70 -109z" />
<glyph unicode="&#xa8;" horiz-adv-x="940" d="M61 1382q0 67 50.5 114.5t115.5 47.5q68 0 117 -47t49 -115q0 -63 -49.5 -110t-116.5 -47q-64 0 -115 47.5t-51 109.5zM549 1382q0 67 50.5 114.5t115.5 47.5q68 0 117 -47t49 -115q0 -63 -49.5 -110t-116.5 -47q-64 0 -115 47.5t-51 109.5z" />
<glyph unicode="&#xa9;" horiz-adv-x="1593" d="M78 674q0 147 58 278.5t156 223.5t230 146t275 54t275 -54t230 -146.5t156 -223t58 -276.5t-58.5 -276.5t-156 -223.5t-230 -147t-276.5 -54q-143 0 -275 54t-229 146t-155 222.5t-58 276.5zM258 674q0 -120 44 -222t118.5 -169.5t171.5 -105.5t203 -38q105 0 202 38 t172.5 105.5t120.5 169.5t45 222q0 159 -77 284t-199 189.5t-264 64.5q-106 0 -203 -38t-171.5 -106.5t-118.5 -171t-44 -222.5zM424 676q0 163 111.5 272t275.5 109q187 0 309 -162l-143 -125q-70 94 -164 94q-78 0 -127 -53t-49 -135q0 -80 49.5 -133.5t126.5 -53.5 q95 0 164 93l143 -125q-123 -160 -311 -160q-163 0 -274 108.5t-111 270.5z" />
<glyph unicode="&#xaa;" horiz-adv-x="759" d="M66 684q0 90 66 139t183 49h138v23q0 86 -103 86q-72 0 -170 -68l-86 138q118 106 281 106q135 0 213 -71.5t78 -208.5v-377h-195v51q-71 -68 -184 -68q-104 0 -162.5 57.5t-58.5 143.5zM281 692q0 -26 19 -41.5t52 -15.5q43 0 72 27t29 71v19h-101q-34 0 -52.5 -16.5 t-18.5 -43.5z" />
<glyph unicode="&#xab;" horiz-adv-x="1222" d="M59 520v74l400 430l176 -154l-277 -311l277 -313l-176 -154zM586 520v74l399 430l176 -154l-276 -311l276 -313l-176 -154z" />
<glyph unicode="&#xac;" d="M88 539v235h903v-563h-258v328h-645z" />
<glyph unicode="&#xad;" horiz-adv-x="700" d="M92 541v231h516v-231h-516z" />
<glyph unicode="&#xae;" horiz-adv-x="1175" d="M68 893q0 106 41.5 203.5t111.5 167.5t166.5 111.5t202.5 41.5q105 0 201 -41.5t165.5 -111.5t110.5 -167.5t41 -203.5q0 -143 -69.5 -264t-189 -191.5t-259.5 -70.5q-141 0 -261.5 70.5t-190.5 191.5t-70 264zM205 893q0 -169 111 -283t274 -114q161 0 272 114t111 283 q0 168 -111 281.5t-272 113.5q-163 0 -274 -114t-111 -281zM383 635v514h213q90 0 148.5 -48.5t58.5 -131.5q0 -95 -80 -146l135 -188h-158l-116 153h-58v-153h-143zM526 911h70q26 0 42.5 15.5t16.5 40.5q0 26 -16.5 41.5t-42.5 15.5h-70v-113z" />
<glyph unicode="&#xaf;" horiz-adv-x="741" d="M61 1274v217h619v-217h-619z" />
<glyph unicode="&#xb0;" horiz-adv-x="739" d="M49 1061q0 130 94 222.5t228 92.5q133 0 226 -92t93 -223t-93 -223.5t-226 -92.5q-134 0 -228 93t-94 223zM233 1059q0 -58 39.5 -97.5t98.5 -39.5q60 0 98.5 39.5t38.5 97.5q0 61 -38 100t-99 39q-60 0 -99 -39.5t-39 -99.5z" />
<glyph unicode="&#xb1;" d="M113 0v221h923v-221h-923zM113 645v223h329v275h265v-275h329v-223h-329v-289h-265v289h-329z" />
<glyph unicode="&#xb2;" horiz-adv-x="788" d="M68 743v43l305 332q106 117 106 199q0 49 -27 78.5t-71 29.5t-72 -29.5t-28 -82.5q0 -10 4 -60h-203q-8 36 -8 72q0 114 85.5 201.5t223.5 87.5q131 0 219 -79t88 -200q0 -87 -46 -161.5t-140 -174.5l-66 -69h271v-185z" />
<glyph unicode="&#xb3;" horiz-adv-x="737" d="M23 930l141 100q38 -58 77 -85t93 -27t88.5 29t34.5 81q0 98 -156 98h-98v52l159 235h-272v184h563v-55l-174 -256q78 -26 133.5 -93.5t55.5 -164.5q0 -129 -95 -214t-233 -85q-109 0 -191.5 54.5t-125.5 146.5z" />
<glyph unicode="&#xb4;" horiz-adv-x="604" d="M61 1169l148 428h334v-49l-281 -379h-201z" />
<glyph unicode="&#xb5;" horiz-adv-x="1249" d="M137 -369v1383h277v-584q0 -93 52.5 -149t135.5 -56q84 0 138.5 56t54.5 149v584h274v-662q0 -65 22.5 -95t71.5 -30q27 0 56 2v-229q-68 -20 -148 -20q-155 0 -219 108q-82 -113 -227 -113q-129 0 -211 95v-439h-277z" />
<glyph unicode="&#xb6;" horiz-adv-x="1255" d="M66 901q0 204 142.5 327.5t364.5 123.5h119v-908h-119q-219 0 -363 126.5t-144 330.5zM504 -133q110 -8 131 -8q98 0 144 37t46 127v1329h277v-1358q0 -195 -106 -291t-302 -96q-96 0 -190 24v236z" />
<glyph unicode="&#xb7;" horiz-adv-x="552" d="M86 655q0 80 55 135.5t138 55.5q81 0 134.5 -55.5t53.5 -135.5q0 -82 -53 -136t-135 -54q-83 0 -138 54t-55 136z" />
<glyph unicode="&#xb8;" horiz-adv-x="591" d="M61 -190q66 -5 123 -5q59 0 93 30t34 87q0 54 -26 119l108 49q137 -77 137 -223q0 -112 -85 -186t-232 -74q-80 0 -152 20v183z" />
<glyph unicode="&#xb9;" horiz-adv-x="757" d="M86 745v185h211v483h-193v184h400v-667h176v-185h-594z" />
<glyph unicode="&#xba;" horiz-adv-x="819" d="M61 821q0 142 101 239t248 97q146 0 248 -97t102 -239q0 -144 -102 -241t-248 -97q-147 0 -248 97t-101 241zM272 821q0 -65 38.5 -105t99.5 -40t99 41t38 104q0 65 -38 105.5t-99 40.5t-99.5 -40.5t-38.5 -105.5z" />
<glyph unicode="&#xbb;" horiz-adv-x="1222" d="M63 246l275 313l-275 311l177 154l397 -430v-74l-397 -428zM588 246l276 313l-276 311l178 154l397 -430v-74l-397 -428z" />
<glyph unicode="&#xbc;" horiz-adv-x="1916" d="M86 500v184h211v483h-193v185h400v-668h176v-184h-594zM516 0l776 1352h224l-779 -1352h-221zM1174 131v53l256 668h210l-215 -553h183v223h188v-223h100v-168h-100v-131h-188v131h-434z" />
<glyph unicode="&#xbd;" horiz-adv-x="1988" d="M86 500v184h211v483h-193v185h400v-668h176v-184h-594zM516 0l776 1352h224l-779 -1352h-221zM1270 -2v43l303 332q57 63 82.5 109t25.5 89q0 49 -27.5 79t-72.5 30q-44 0 -71 -30t-27 -83q0 -9 4 -59h-205q-8 36 -8 72q0 113 86.5 200.5t222.5 87.5q131 0 219 -78.5 t88 -199.5q0 -87 -45.5 -161t-138.5 -175l-66 -70h269v-184z" />
<glyph unicode="&#xbe;" horiz-adv-x="1824" d="M23 684l141 100q38 -58 77 -85t93 -27t88.5 29t34.5 81q0 99 -156 99h-98v51l159 235h-272v185h563v-56l-174 -256q78 -26 133.5 -93.5t55.5 -164.5q0 -129 -95 -214t-233 -85q-109 0 -191.5 54.5t-125.5 146.5zM422 0l778 1352h223l-780 -1352h-221zM1081 131v53 l254 668h211l-213 -553h183v223h188v-223h100v-168h-100v-131h-188v131h-435z" />
<glyph unicode="&#xbf;" horiz-adv-x="923" d="M70 -23q0 99 43 167.5t125 140.5q82 73 112.5 110.5t30.5 79.5q0 8 -1 21.5t-1 19.5h233q23 -62 23 -96q0 -15 -3.5 -30.5t-7 -28t-13 -28t-15 -25.5t-19.5 -25.5t-19.5 -22.5t-22 -23t-21 -20t-22 -19.5t-19.5 -17.5q-67 -62 -94 -100t-27 -84q0 -60 38.5 -96.5 t92.5 -36.5q56 0 96 37.5t70 115.5l228 -98q-43 -153 -150 -232t-252 -79q-172 0 -288.5 103.5t-116.5 266.5zM295 848q0 82 54 135t136 53q83 0 137 -53t54 -135t-54 -136.5t-137 -54.5q-82 0 -136 54.5t-54 136.5z" />
<glyph unicode="&#xc0;" horiz-adv-x="1353" d="M27 0l604 1376h92l602 -1376h-297l-76 176h-553l-75 -176h-297zM297 1815v49h334l147 -381h-200zM498 403h356l-178 455z" />
<glyph unicode="&#xc1;" horiz-adv-x="1353" d="M27 0l604 1376h92l602 -1376h-297l-76 176h-553l-75 -176h-297zM498 403h356l-178 455zM569 1483l148 381h334v-49l-281 -332h-201z" />
<glyph unicode="&#xc2;" horiz-adv-x="1353" d="M27 0l604 1376h92l602 -1376h-297l-76 176h-553l-75 -176h-297zM283 1483l303 381h182l303 -381h-211l-184 164l-184 -164h-209zM498 403h356l-178 455z" />
<glyph unicode="&#xc3;" horiz-adv-x="1353" d="M27 0l604 1376h92l602 -1376h-297l-76 176h-553l-75 -176h-297zM268 1575q0 124 69 199t169 75q75 0 151 -43l64 -37q4 -2 17.5 -9.5t19 -10t16.5 -7t19.5 -6t17.5 -1.5q28 0 42.5 19t14.5 50v25h211q4 -23 4 -68q0 -125 -67.5 -200.5t-167.5 -75.5q-72 0 -154 45l-61 33 q-59 34 -92 34q-27 0 -41.5 -19t-14.5 -48v-25h-211q-6 35 -6 70zM498 403h356l-178 455z" />
<glyph unicode="&#xc4;" horiz-adv-x="1353" d="M27 0l604 1376h92l602 -1376h-297l-76 176h-553l-75 -176h-297zM248 1667q0 67 50.5 113.5t115.5 46.5q68 0 117 -46t49 -114q0 -63 -49.5 -110.5t-116.5 -47.5q-64 0 -115 48t-51 110zM498 403h356l-178 455zM776 1665q0 67 50.5 114.5t115.5 47.5q68 0 117 -47t49 -115 q0 -63 -49.5 -110.5t-116.5 -47.5q-64 0 -115 48t-51 110z" />
<glyph unicode="&#xc5;" horiz-adv-x="1353" d="M27 0l604 1376h92l602 -1376h-297l-76 176h-553l-75 -176h-297zM418 1634q0 104 73.5 176t184.5 72q113 0 186.5 -72t73.5 -176q0 -107 -73.5 -179.5t-186.5 -72.5q-112 0 -185 72.5t-73 179.5zM498 403h356l-178 455zM594 1634q0 -38 24 -62t60 -24q35 0 59.5 24.5 t24.5 61.5q0 35 -24.5 59.5t-59.5 24.5q-36 0 -60 -24t-24 -60z" />
<glyph unicode="&#xc6;" horiz-adv-x="1744" d="M10 0l692 1352h279h657v-250h-616l47 -275h404v-235h-365l57 -342h498v-250h-727l-31 176h-506l-92 -176h-297zM514 403h352l-88 551z" />
<glyph unicode="&#xc7;" horiz-adv-x="1474" d="M78 676q0 146 56.5 276.5t152.5 223t229.5 146.5t282.5 54q193 0 349.5 -89.5t246.5 -246.5l-209 -147q-143 227 -387 227q-190 0 -313.5 -125t-123.5 -321q0 -194 123.5 -318.5t313.5 -124.5q244 0 387 228l209 -148q-69 -123 -182.5 -205.5t-256.5 -113.5 q33 -58 33 -125q0 -112 -85 -186t-232 -74q-80 0 -152 20v183q66 -5 123 -5q59 0 93 30t34 87q0 28 -6 55q-143 6 -269.5 62t-218 148t-145 219t-53.5 270z" />
<glyph unicode="&#xc8;" horiz-adv-x="1173" d="M156 0v1352h909v-250h-633v-275h465v-235h-465v-342h658v-250h-934zM223 1815v49h334l148 -381h-201z" />
<glyph unicode="&#xc9;" horiz-adv-x="1173" d="M156 0v1352h909v-250h-633v-275h465v-235h-465v-342h658v-250h-934zM496 1483l147 381h334v-49l-281 -332h-200z" />
<glyph unicode="&#xca;" horiz-adv-x="1173" d="M156 0v1352h909v-250h-633v-275h465v-235h-465v-342h658v-250h-934zM209 1483l303 381h182l303 -381h-211l-184 164l-184 -164h-209z" />
<glyph unicode="&#xcb;" horiz-adv-x="1173" d="M156 0v1352h909v-250h-633v-275h465v-235h-465v-342h658v-250h-934zM174 1667q0 67 50.5 113.5t115.5 46.5q68 0 117 -46t49 -114q0 -63 -49.5 -110.5t-116.5 -47.5q-64 0 -115 48t-51 110zM702 1665q0 67 50.5 114.5t115.5 47.5q68 0 117 -47t49 -115 q0 -63 -49.5 -110.5t-116.5 -47.5q-64 0 -115 48t-51 110z" />
<glyph unicode="&#xcc;" horiz-adv-x="585" d="M-88 1815v49h334l147 -381h-200zM156 0v1352h276v-1352h-276z" />
<glyph unicode="&#xcd;" horiz-adv-x="585" d="M156 0v1352h276v-1352h-276zM186 1483l148 381h334v-49l-281 -332h-201z" />
<glyph unicode="&#xce;" horiz-adv-x="585" d="M-100 1483l303 381h182l303 -381h-211l-184 164l-184 -164h-209zM156 0v1352h276v-1352h-276z" />
<glyph unicode="&#xcf;" horiz-adv-x="585" d="M-137 1667q0 67 50.5 113.5t115.5 46.5q68 0 117 -46t49 -114q0 -63 -49.5 -110.5t-116.5 -47.5q-64 0 -115 48t-51 110zM156 0v1352h276v-1352h-276zM391 1665q0 67 50.5 114.5t115.5 47.5q68 0 117 -47t49 -115q0 -63 -49.5 -110.5t-116.5 -47.5q-64 0 -115 48t-51 110 z" />
<glyph unicode="&#xd0;" horiz-adv-x="1413" d="M-16 526v232h172v594h442q216 0 383 -82.5t260.5 -236t93.5 -353.5q0 -197 -93 -352t-261.5 -241.5t-382.5 -86.5h-442v526h-172zM432 250h164q205 0 330 118t125 312q0 197 -124 309.5t-331 112.5h-164v-344h221v-232h-221v-276z" />
<glyph unicode="&#xd1;" horiz-adv-x="1460" d="M156 0v1376h90l784 -829v805h277v-1377h-93l-782 836v-811h-276zM324 1575q0 124 68.5 199t168.5 75q76 0 152 -43l63 -37q4 -2 17.5 -9.5t19 -10t16.5 -7t19.5 -6t17.5 -1.5q28 0 43 19t15 50v25h211q4 -23 4 -68q0 -125 -68 -200.5t-168 -75.5q-71 0 -153 45l-62 33 q-59 34 -92 34q-27 0 -41 -19t-14 -48v-25h-211q-6 35 -6 70z" />
<glyph unicode="&#xd2;" horiz-adv-x="1593" d="M78 676q0 195 96 356t260.5 252.5t360.5 91.5t361.5 -91.5t262.5 -252.5t97 -356q0 -146 -57 -276.5t-154 -223.5t-230 -147t-280 -54t-279.5 54t-228.5 147t-152.5 223.5t-56.5 276.5zM362 676q0 -196 122.5 -320.5t312.5 -124.5q187 0 310.5 125t123.5 320 q0 194 -123.5 319t-310.5 125q-189 0 -312 -124.5t-123 -319.5zM416 1815v49h334l147 -381h-201z" />
<glyph unicode="&#xd3;" horiz-adv-x="1593" d="M78 676q0 195 96 356t260.5 252.5t360.5 91.5t361.5 -91.5t262.5 -252.5t97 -356q0 -146 -57 -276.5t-154 -223.5t-230 -147t-280 -54t-279.5 54t-228.5 147t-152.5 223.5t-56.5 276.5zM362 676q0 -196 122.5 -320.5t312.5 -124.5q187 0 310.5 125t123.5 320 q0 194 -123.5 319t-310.5 125q-189 0 -312 -124.5t-123 -319.5zM688 1483l148 381h333v-49l-280 -332h-201z" />
<glyph unicode="&#xd4;" horiz-adv-x="1593" d="M78 676q0 195 96 356t260.5 252.5t360.5 91.5t361.5 -91.5t262.5 -252.5t97 -356q0 -146 -57 -276.5t-154 -223.5t-230 -147t-280 -54t-279.5 54t-228.5 147t-152.5 223.5t-56.5 276.5zM362 676q0 -196 122.5 -320.5t312.5 -124.5q187 0 310.5 125t123.5 320 q0 194 -123.5 319t-310.5 125q-189 0 -312 -124.5t-123 -319.5zM401 1483l304 381h182l303 -381h-211l-184 164l-185 -164h-209z" />
<glyph unicode="&#xd5;" horiz-adv-x="1593" d="M78 676q0 195 96 356t260.5 252.5t360.5 91.5t361.5 -91.5t262.5 -252.5t97 -356q0 -146 -57 -276.5t-154 -223.5t-230 -147t-280 -54t-279.5 54t-228.5 147t-152.5 223.5t-56.5 276.5zM362 676q0 -196 122.5 -320.5t312.5 -124.5q187 0 310.5 125t123.5 320 q0 194 -123.5 319t-310.5 125q-189 0 -312 -124.5t-123 -319.5zM389 1575q0 124 69 199t169 75q75 0 151 -43l64 -37q4 -2 17.5 -9.5t19 -10t16.5 -7t19.5 -6t17.5 -1.5q28 0 42.5 19t14.5 50v25h211q4 -23 4 -68q0 -125 -67.5 -200.5t-167.5 -75.5q-72 0 -154 45l-61 33 q-59 34 -92 34q-27 0 -41.5 -19t-14.5 -48v-25h-211q-6 35 -6 70z" />
<glyph unicode="&#xd6;" horiz-adv-x="1593" d="M78 676q0 195 96 356t260.5 252.5t360.5 91.5t361.5 -91.5t262.5 -252.5t97 -356q0 -146 -57 -276.5t-154 -223.5t-230 -147t-280 -54t-279.5 54t-228.5 147t-152.5 223.5t-56.5 276.5zM362 676q0 -196 122.5 -320.5t312.5 -124.5q187 0 310.5 125t123.5 320 q0 194 -123.5 319t-310.5 125q-189 0 -312 -124.5t-123 -319.5zM367 1667q0 67 50 113.5t115 46.5q68 0 117 -46t49 -114q0 -63 -49.5 -110.5t-116.5 -47.5q-64 0 -114.5 48t-50.5 110zM895 1665q0 67 50.5 114.5t115.5 47.5q68 0 117 -47t49 -115q0 -63 -49.5 -110.5 t-116.5 -47.5q-64 0 -115 48t-51 110z" />
<glyph unicode="&#xd7;" d="M106 360l302 302l-302 301l164 163l303 -301l301 301l164 -163l-301 -301l301 -302l-164 -165l-303 301l-301 -301z" />
<glyph unicode="&#xd8;" horiz-adv-x="1593" d="M63 106l152 152q-137 186 -137 418q0 195 96 356t260.5 252.5t360.5 91.5q228 0 411 -125l158 160l166 -166l-154 -153q140 -183 140 -416q0 -146 -57 -276.5t-154 -223.5t-230 -147t-280 -54q-225 0 -410 123l-156 -157zM350 676q0 -127 53 -230l625 627 q-105 60 -231 60q-194 0 -320.5 -129t-126.5 -328zM565 279q102 -60 232 -60q192 0 319 128.5t127 328.5q0 123 -55 227z" />
<glyph unicode="&#xd9;" horiz-adv-x="1433" d="M143 559v793h277v-813q0 -147 83 -227.5t214 -80.5q132 0 214.5 80t82.5 228v813h276v-793q0 -177 -75 -311t-204.5 -203.5t-293.5 -69.5q-165 0 -294.5 69.5t-204.5 203.5t-75 311zM336 1815v49h334l147 -381h-201z" />
<glyph unicode="&#xda;" horiz-adv-x="1433" d="M143 559v793h277v-813q0 -147 83 -227.5t214 -80.5q132 0 214.5 80t82.5 228v813h276v-793q0 -177 -75 -311t-204.5 -203.5t-293.5 -69.5q-165 0 -294.5 69.5t-204.5 203.5t-75 311zM608 1483l148 381h334v-49l-281 -332h-201z" />
<glyph unicode="&#xdb;" horiz-adv-x="1433" d="M143 559v793h277v-813q0 -147 83 -227.5t214 -80.5q132 0 214.5 80t82.5 228v813h276v-793q0 -177 -75 -311t-204.5 -203.5t-293.5 -69.5q-165 0 -294.5 69.5t-204.5 203.5t-75 311zM322 1483l303 381h182l303 -381h-211l-184 164l-185 -164h-208z" />
<glyph unicode="&#xdc;" horiz-adv-x="1433" d="M143 559v793h277v-813q0 -147 83 -227.5t214 -80.5q132 0 214.5 80t82.5 228v813h276v-793q0 -177 -75 -311t-204.5 -203.5t-293.5 -69.5q-165 0 -294.5 69.5t-204.5 203.5t-75 311zM287 1667q0 67 50.5 113.5t115.5 46.5q68 0 116.5 -46t48.5 -114q0 -63 -49 -110.5 t-116 -47.5q-64 0 -115 48t-51 110zM815 1665q0 67 50.5 114.5t115.5 47.5q68 0 117 -47t49 -115q0 -63 -49.5 -110.5t-116.5 -47.5q-64 0 -115 48t-51 110z" />
<glyph unicode="&#xdd;" horiz-adv-x="1277" d="M35 1352h307l297 -537l299 537h305l-465 -820v-532h-276v530zM528 1483l148 381h334v-49l-281 -332h-201z" />
<glyph unicode="&#xde;" horiz-adv-x="1216" d="M156 0v1352h276v-207h232q215 0 351 -121t136 -319q0 -197 -136 -320t-351 -123h-232v-262h-276zM432 504h232q95 0 149.5 54.5t54.5 143.5t-54.5 144t-149.5 55h-232v-397z" />
<glyph unicode="&#xdf;" horiz-adv-x="1331" d="M137 0v1069q0 232 132.5 362t361.5 130q194 0 310 -91t116 -241q0 -78 -35 -170l-74 -191q-33 -79 -33 -112q0 -11 2.5 -21t5.5 -18t10 -17.5t12 -15.5t17 -15.5t18.5 -14.5t22 -15t23 -14.5t26.5 -16t27 -16.5q101 -63 151 -128t50 -165q0 -148 -105.5 -236t-279.5 -88 q-213 0 -360 125l104 195q133 -86 256 -86q117 0 117 86q0 37 -27 61t-109 72q-5 3 -8 4.5t-7.5 4.5t-8.5 5q-106 64 -157.5 120t-51.5 130q0 52 37 150l70 178q28 73 28 135q0 71 -41.5 113.5t-118.5 42.5q-91 0 -149.5 -62t-58.5 -192v-1057h-273z" />
<glyph unicode="&#xe0;" horiz-adv-x="1116" d="M74 279q0 137 103.5 215.5t279.5 78.5h254v45q0 85 -48.5 132t-140.5 47q-77 0 -138.5 -34.5t-129.5 -105.5l-143 170q176 209 442 209q199 0 316.5 -111.5t117.5 -322.5v-602h-254v98q-117 -123 -309 -123q-162 0 -256 85.5t-94 218.5zM176 1548v49h332l149 -428h-200z M352 289q0 -52 40 -81.5t106 -29.5q89 0 151 56.5t62 144.5v12h-217q-142 0 -142 -102z" />
<glyph unicode="&#xe1;" horiz-adv-x="1116" d="M74 279q0 137 103.5 215.5t279.5 78.5h254v45q0 85 -48.5 132t-140.5 47q-77 0 -138.5 -34.5t-129.5 -105.5l-143 170q176 209 442 209q199 0 316.5 -111.5t117.5 -322.5v-602h-254v98q-117 -123 -309 -123q-162 0 -256 85.5t-94 218.5zM352 289q0 -52 40 -81.5 t106 -29.5q89 0 151 56.5t62 144.5v12h-217q-142 0 -142 -102zM455 1169l147 428h334v-49l-281 -379h-200z" />
<glyph unicode="&#xe2;" horiz-adv-x="1116" d="M74 279q0 137 103.5 215.5t279.5 78.5h254v45q0 85 -48.5 132t-140.5 47q-77 0 -138.5 -34.5t-129.5 -105.5l-143 170q176 209 442 209q199 0 316.5 -111.5t117.5 -322.5v-602h-254v98q-117 -123 -309 -123q-162 0 -256 85.5t-94 218.5zM188 1169l277 428h180l275 -428 h-201l-164 189l-164 -189h-203zM352 289q0 -52 40 -81.5t106 -29.5q89 0 151 56.5t62 144.5v12h-217q-142 0 -142 -102z" />
<glyph unicode="&#xe3;" horiz-adv-x="1116" d="M74 279q0 137 103.5 215.5t279.5 78.5h254v45q0 85 -48.5 132t-140.5 47q-77 0 -138.5 -34.5t-129.5 -105.5l-143 170q176 209 442 209q199 0 316.5 -111.5t117.5 -322.5v-602h-254v98q-117 -123 -309 -123q-162 0 -256 85.5t-94 218.5zM160 1276q0 126 67 202t166 76 q81 0 146 -45l57 -36q3 -2 12.5 -8t12.5 -8t10.5 -6.5t12 -6.5t11 -4t12 -3t11.5 -1q57 0 57 71v25h211q4 -50 4 -70q0 -125 -66 -200.5t-167 -75.5q-78 0 -146 45l-57 35q-5 3 -20.5 13.5t-21.5 14t-17.5 7.5t-22.5 4q-57 0 -57 -72v-25h-211q-4 46 -4 68zM352 289 q0 -52 40 -81.5t106 -29.5q89 0 151 56.5t62 144.5v12h-217q-142 0 -142 -102z" />
<glyph unicode="&#xe4;" horiz-adv-x="1116" d="M74 279q0 137 103.5 215.5t279.5 78.5h254v45q0 85 -48.5 132t-140.5 47q-77 0 -138.5 -34.5t-129.5 -105.5l-143 170q176 209 442 209q199 0 316.5 -111.5t117.5 -322.5v-602h-254v98q-117 -123 -309 -123q-162 0 -256 85.5t-94 218.5zM145 1382q0 67 50.5 114.5 t115.5 47.5q68 0 117 -47t49 -115q0 -63 -49.5 -110t-116.5 -47q-64 0 -115 47.5t-51 109.5zM352 289q0 -52 40 -81.5t106 -29.5q89 0 151 56.5t62 144.5v12h-217q-142 0 -142 -102zM633 1382q0 67 50.5 114.5t115.5 47.5q68 0 117 -47t49 -115q0 -63 -49.5 -110t-116.5 -47 q-64 0 -115 47.5t-51 109.5z" />
<glyph unicode="&#xe5;" horiz-adv-x="1116" d="M74 279q0 137 103.5 215.5t279.5 78.5h254v45q0 85 -48.5 132t-140.5 47q-77 0 -138.5 -34.5t-129.5 -105.5l-143 170q176 209 442 209q199 0 316.5 -111.5t117.5 -322.5v-602h-254v98q-117 -123 -309 -123q-162 0 -256 85.5t-94 218.5zM295 1374q0 105 73.5 177.5 t184.5 72.5q113 0 186.5 -72t73.5 -178t-73.5 -179t-186.5 -73q-111 0 -184.5 73t-73.5 179zM352 289q0 -52 40 -81.5t106 -29.5q89 0 151 56.5t62 144.5v12h-217q-142 0 -142 -102zM471 1374q0 -37 23.5 -60.5t60.5 -23.5q36 0 60 24t24 60t-24 60t-60 24 q-37 0 -60.5 -23.5t-23.5 -60.5z" />
<glyph unicode="&#xe6;" horiz-adv-x="1798" d="M74 281q0 141 104 223t279 82h254v32q0 85 -48 132t-139 47q-75 0 -138.5 -35t-131.5 -105l-141 170q176 209 440 209q227 0 334 -149q139 149 358 149q209 0 342 -135.5t133 -335.5q0 -88 -20 -162h-707q28 -92 101.5 -141t181.5 -49q150 0 280 102l115 -188 q-178 -152 -401 -152q-136 0 -245.5 54.5t-180.5 150.5q-60 -100 -163 -152.5t-237 -52.5q-178 0 -274 86t-96 220zM352 297q0 -56 39.5 -86.5t104.5 -30.5q91 0 153 55.5t62 141.5v26h-217q-68 0 -105 -27t-37 -79zM985 586h469q1 105 -61 166t-158 61q-94 0 -162 -61 t-88 -166z" />
<glyph unicode="&#xe7;" horiz-adv-x="1130" d="M80 508q0 223 157.5 375.5t385.5 152.5q149 0 262 -66.5t178 -183.5l-193 -149q-97 147 -243 147q-118 0 -192.5 -78.5t-74.5 -197.5q0 -121 74.5 -200t192.5 -79q140 0 243 146l193 -148q-99 -177 -297 -233q35 -53 35 -127q0 -111 -85.5 -185.5t-232.5 -74.5 q-79 0 -151 20v183q66 -5 123 -5q59 0 93 30t34 87q0 27 -7 55q-212 19 -353.5 169t-141.5 362z" />
<glyph unicode="&#xe8;" horiz-adv-x="1165" d="M80 506q0 224 153 377t377 153q210 0 343.5 -135.5t133.5 -335.5q0 -72 -18 -151h-713q26 -96 101.5 -148.5t185.5 -52.5q150 0 283 102l114 -188q-182 -152 -405 -152q-158 0 -285.5 70t-198.5 191.5t-71 269.5zM231 1548v49h332l150 -428h-201zM356 608h463 q-1 94 -64.5 149.5t-154.5 55.5q-88 0 -153.5 -55t-90.5 -150z" />
<glyph unicode="&#xe9;" horiz-adv-x="1165" d="M80 506q0 224 153 377t377 153q210 0 343.5 -135.5t133.5 -335.5q0 -72 -18 -151h-713q26 -96 101.5 -148.5t185.5 -52.5q150 0 283 102l114 -188q-182 -152 -405 -152q-158 0 -285.5 70t-198.5 191.5t-71 269.5zM356 608h463q-1 94 -64.5 149.5t-154.5 55.5 q-88 0 -153.5 -55t-90.5 -150zM510 1169l147 428h334v-49l-280 -379h-201z" />
<glyph unicode="&#xea;" horiz-adv-x="1165" d="M80 506q0 224 153 377t377 153q210 0 343.5 -135.5t133.5 -335.5q0 -72 -18 -151h-713q26 -96 101.5 -148.5t185.5 -52.5q150 0 283 102l114 -188q-182 -152 -405 -152q-158 0 -285.5 70t-198.5 191.5t-71 269.5zM244 1169l276 428h180l275 -428h-201l-164 189l-164 -189 h-202zM356 608h463q-1 94 -64.5 149.5t-154.5 55.5q-88 0 -153.5 -55t-90.5 -150z" />
<glyph unicode="&#xeb;" horiz-adv-x="1165" d="M80 506q0 224 153 377t377 153q210 0 343.5 -135.5t133.5 -335.5q0 -72 -18 -151h-713q26 -96 101.5 -148.5t185.5 -52.5q150 0 283 102l114 -188q-182 -152 -405 -152q-158 0 -285.5 70t-198.5 191.5t-71 269.5zM201 1382q0 67 50.5 114.5t115.5 47.5q68 0 116.5 -47 t48.5 -115q0 -63 -49 -110t-116 -47q-64 0 -115 47.5t-51 109.5zM356 608h463q-1 94 -64.5 149.5t-154.5 55.5q-88 0 -153.5 -55t-90.5 -150zM688 1382q0 67 50.5 114.5t115.5 47.5q68 0 117 -47t49 -115q0 -63 -49.5 -110t-116.5 -47q-64 0 -115 47.5t-51 109.5z" />
<glyph unicode="&#xec;" horiz-adv-x="550" d="M-39 1548v49h334l86 -428h-201zM137 0v1014h277v-1014h-277z" />
<glyph unicode="&#xed;" horiz-adv-x="550" d="M137 0v1014h277v-1014h-277zM174 1169l86 428h332v-49l-217 -379h-201z" />
<glyph unicode="&#xee;" horiz-adv-x="550" d="M-90 1169l276 428h181l274 -428h-201l-164 187l-163 -187h-203zM137 0v1014h277v-1014h-277z" />
<glyph unicode="&#xef;" horiz-adv-x="550" d="M-115 1382q0 67 49.5 114.5t114.5 47.5q69 0 117.5 -46.5t48.5 -115.5q0 -64 -49 -110.5t-117 -46.5q-64 0 -114 47.5t-50 109.5zM137 0v1014h277v-1014h-277zM336 1382q0 67 49.5 114.5t114.5 47.5q69 0 117.5 -46.5t48.5 -115.5q0 -64 -49 -110.5t-117 -46.5 q-64 0 -114 47.5t-50 109.5z" />
<glyph unicode="&#xf0;" horiz-adv-x="1173" d="M76 1141l243 121l-108 147l207 152l137 -183l319 158l99 -195l-283 -141l162 -213q60 -78 95.5 -130.5t73.5 -121t55.5 -134.5t17.5 -136q0 -213 -144 -351.5t-360 -138.5q-222 0 -366 136.5t-144 339.5q0 132 64 238t172.5 164t238.5 58h20l-124 170l-279 -137zM358 451 q0 -100 63.5 -165t164.5 -65q100 0 164.5 65.5t64.5 166.5q0 100 -64.5 164.5t-164.5 64.5t-164 -65t-64 -166z" />
<glyph unicode="&#xf1;" horiz-adv-x="1198" d="M137 0v1014h254v-92q114 114 297 114q177 0 279 -111t102 -296v-629h-274v592q0 88 -52 142t-137 54t-138.5 -54.5t-53.5 -141.5v-592h-277zM180 1276q0 126 67 202t167 76q80 0 145 -45l57 -36q3 -2 12.5 -8t12.5 -8t10.5 -6.5t12 -6.5t11 -4t12 -3t11.5 -1q58 0 58 71 v25h211q4 -50 4 -70q0 -125 -66.5 -200.5t-167.5 -75.5q-77 0 -145 45l-57 35q-5 3 -20.5 13.5t-21.5 14t-17.5 7.5t-22.5 4q-58 0 -58 -72v-25h-211q-4 46 -4 68z" />
<glyph unicode="&#xf2;" horiz-adv-x="1245" d="M80 508q0 223 157.5 375.5t385.5 152.5q148 0 272.5 -69t198 -190.5t73.5 -268.5q0 -148 -73.5 -270t-198.5 -191.5t-274 -69.5t-273 69.5t-196 191.5t-72 270zM244 1548v49h331l150 -428h-201zM360 506q0 -120 74 -197.5t189 -77.5q113 0 187.5 78.5t74.5 196.5 q0 120 -74.5 199t-187.5 79q-115 0 -189 -79t-74 -199z" />
<glyph unicode="&#xf3;" horiz-adv-x="1245" d="M80 508q0 223 157.5 375.5t385.5 152.5q148 0 272.5 -69t198 -190.5t73.5 -268.5q0 -148 -73.5 -270t-198.5 -191.5t-274 -69.5t-273 69.5t-196 191.5t-72 270zM360 506q0 -120 74 -197.5t189 -77.5q113 0 187.5 78.5t74.5 196.5q0 120 -74.5 199t-187.5 79 q-115 0 -189 -79t-74 -199zM522 1169l148 428h334v-49l-281 -379h-201z" />
<glyph unicode="&#xf4;" horiz-adv-x="1245" d="M80 508q0 223 157.5 375.5t385.5 152.5q148 0 272.5 -69t198 -190.5t73.5 -268.5q0 -148 -73.5 -270t-198.5 -191.5t-274 -69.5t-273 69.5t-196 191.5t-72 270zM258 1169l277 428h180l274 -428h-201l-163 189l-164 -189h-203zM360 506q0 -120 74 -197.5t189 -77.5 q113 0 187.5 78.5t74.5 196.5q0 120 -74.5 199t-187.5 79q-115 0 -189 -79t-74 -199z" />
<glyph unicode="&#xf5;" horiz-adv-x="1245" d="M80 508q0 223 157.5 375.5t385.5 152.5q148 0 272.5 -69t198 -190.5t73.5 -268.5q0 -148 -73.5 -270t-198.5 -191.5t-274 -69.5t-273 69.5t-196 191.5t-72 270zM227 1276q0 126 67 202t167 76q80 0 145 -45l58 -36q4 -3 14.5 -9.5t14.5 -9t12 -7t13 -6.5t12.5 -3.5 t14.5 -1.5q58 0 58 71v25h211q4 -50 4 -70q0 -125 -66.5 -200.5t-167.5 -75.5q-77 0 -145 45l-57 35q-5 3 -20.5 13.5t-21.5 14t-17.5 7.5t-22.5 4q-58 0 -58 -72v-25h-211q-4 46 -4 68zM360 506q0 -120 74 -197.5t189 -77.5q113 0 187.5 78.5t74.5 196.5q0 120 -74.5 199 t-187.5 79q-115 0 -189 -79t-74 -199z" />
<glyph unicode="&#xf6;" horiz-adv-x="1245" d="M80 508q0 223 157.5 375.5t385.5 152.5q148 0 272.5 -69t198 -190.5t73.5 -268.5q0 -148 -73.5 -270t-198.5 -191.5t-274 -69.5t-273 69.5t-196 191.5t-72 270zM213 1382q0 67 50.5 114.5t115.5 47.5q68 0 117 -47t49 -115q0 -63 -49.5 -110t-116.5 -47q-64 0 -115 47.5 t-51 109.5zM360 506q0 -120 74 -197.5t189 -77.5q113 0 187.5 78.5t74.5 196.5q0 120 -74.5 199t-187.5 79q-115 0 -189 -79t-74 -199zM700 1382q0 67 50.5 114.5t115.5 47.5q68 0 117 -47t49 -115q0 -63 -49.5 -110t-116.5 -47q-64 0 -115 47.5t-51 109.5z" />
<glyph unicode="&#xf7;" d="M90 539v235h965v-235h-965zM403 270q0 67 49 112.5t119 45.5q68 0 117 -45.5t49 -112.5q0 -66 -49 -111.5t-117 -45.5q-69 0 -118.5 45.5t-49.5 111.5zM403 1040q0 66 49.5 111t118.5 45q68 0 117 -45.5t49 -110.5q0 -67 -49 -113t-117 -46q-70 0 -119 46t-49 113z" />
<glyph unicode="&#xf8;" horiz-adv-x="1253" d="M61 106l109 109q-86 131 -86 291q0 111 42.5 209.5t115 168.5t173 111t212.5 41q152 0 286 -78l113 113l166 -164l-109 -108q88 -134 88 -293q0 -147 -73.5 -269t-198.5 -192t-274 -70q-156 0 -285 80l-113 -114zM342 506q0 -61 25 -127l393 393q-60 31 -133 31 q-126 0 -205.5 -83t-79.5 -214zM494 240q67 -31 131 -31q125 0 205.5 83t80.5 214q0 70 -24 129z" />
<glyph unicode="&#xf9;" horiz-adv-x="1187" d="M127 446v568h276v-590q0 -88 55 -141.5t138 -53.5q80 0 134 54t54 141v590h277v-568q0 -212 -132 -341.5t-333 -129.5q-204 0 -336.5 129.5t-132.5 341.5zM215 1548v49h332l149 -428h-200z" />
<glyph unicode="&#xfa;" horiz-adv-x="1187" d="M127 446v568h276v-590q0 -88 55 -141.5t138 -53.5q80 0 134 54t54 141v590h277v-568q0 -212 -132 -341.5t-333 -129.5q-204 0 -336.5 129.5t-132.5 341.5zM494 1169l147 428h334v-49l-281 -379h-200z" />
<glyph unicode="&#xfb;" horiz-adv-x="1187" d="M127 446v568h276v-590q0 -88 55 -141.5t138 -53.5q80 0 134 54t54 141v590h277v-568q0 -212 -132 -341.5t-333 -129.5q-204 0 -336.5 129.5t-132.5 341.5zM229 1169l277 428h180l275 -428h-201l-164 189l-164 -189h-203z" />
<glyph unicode="&#xfc;" horiz-adv-x="1187" d="M127 446v568h276v-590q0 -88 55 -141.5t138 -53.5q80 0 134 54t54 141v590h277v-568q0 -212 -132 -341.5t-333 -129.5q-204 0 -336.5 129.5t-132.5 341.5zM184 1382q0 67 50.5 114.5t115.5 47.5q68 0 117 -47t49 -115q0 -63 -49.5 -110t-116.5 -47q-64 0 -115 47.5 t-51 109.5zM672 1382q0 67 50.5 114.5t115.5 47.5q68 0 117 -47t49 -115q0 -63 -49.5 -110t-116.5 -47q-64 0 -115 47.5t-51 109.5z" />
<glyph unicode="&#xfd;" horiz-adv-x="1144" d="M25 1014h292l248 -666l264 666h291l-485 -1102q-69 -158 -165.5 -231.5t-238.5 -73.5q-87 0 -178 24v232q94 -8 119 -8q74 0 124.5 28.5t86.5 108.5l31 67zM471 1169l147 428h334v-49l-280 -379h-201z" />
<glyph unicode="&#xfe;" horiz-adv-x="1288" d="M137 -369v1905h277v-621q109 121 303 121q215 0 353 -149.5t138 -378.5q0 -230 -138.5 -381.5t-352.5 -151.5q-189 0 -303 123v-467h-277zM410 508q0 -136 75 -208.5t181 -72.5q111 0 186.5 76.5t75.5 202.5t-75 203t-187 77q-105 0 -180.5 -70.5t-75.5 -207.5z" />
<glyph unicode="&#xff;" horiz-adv-x="1144" d="M25 1014h292l248 -666l264 666h291l-485 -1102q-69 -158 -165.5 -231.5t-238.5 -73.5q-87 0 -178 24v232q94 -8 119 -8q74 0 124.5 28.5t86.5 108.5l31 67zM162 1382q0 67 50.5 114.5t115.5 47.5q68 0 117 -47t49 -115q0 -63 -49.5 -110t-116.5 -47q-64 0 -115 47.5 t-51 109.5zM649 1382q0 67 50.5 114.5t115.5 47.5q68 0 117 -47t49 -115q0 -63 -49.5 -110t-116.5 -47q-64 0 -115 47.5t-51 109.5z" />
<glyph unicode="&#x152;" horiz-adv-x="2248" d="M78 676q0 147 55.5 276.5t150.5 222.5t228 147t283 54q134 0 246 -44t190 -122v142h909v-250h-633v-277h467v-231h-467v-344h658v-250h-934v141q-80 -79 -193.5 -122.5t-244.5 -43.5q-199 0 -363 92t-258 253t-94 356zM362 674q0 -194 122.5 -318.5t310.5 -124.5 q189 0 312.5 124.5t123.5 318.5q0 195 -123.5 320.5t-312.5 125.5q-188 0 -310.5 -125t-122.5 -321z" />
<glyph unicode="&#x153;" horiz-adv-x="1929" d="M80 506q0 147 72.5 269.5t195.5 191.5t268 69q243 0 381 -184q68 87 166 135.5t217 48.5q204 0 337.5 -136.5t133.5 -334.5q0 -74 -18 -153h-700q23 -96 95.5 -147.5t180.5 -51.5q151 0 281 102l114 -188q-178 -152 -401 -152q-128 0 -232.5 49.5t-173.5 137.5 q-66 -88 -164 -137.5t-217 -49.5q-146 0 -269 70t-195 192t-72 269zM360 506q0 -120 73.5 -198.5t187.5 -78.5q111 0 180 78.5t69 198.5q0 121 -69 199.5t-180 78.5q-114 0 -187.5 -78.5t-73.5 -199.5zM1130 606h453q-1 95 -64 151t-153 56q-86 0 -149.5 -55t-86.5 -152z " />
<glyph unicode="&#x178;" horiz-adv-x="1277" d="M35 1352h307l297 -537l299 537h305l-465 -820v-532h-276v530zM207 1667q0 67 50.5 113.5t115.5 46.5q68 0 117 -46t49 -114q0 -63 -49.5 -110.5t-116.5 -47.5q-64 0 -115 48t-51 110zM735 1665q0 67 50.5 114.5t115.5 47.5q68 0 117 -47t49 -115q0 -63 -49.5 -110.5 t-116.5 -47.5q-64 0 -115 48t-51 110z" />
<glyph unicode="&#x2c6;" horiz-adv-x="854" d="M61 1169l277 428h180l275 -428h-201l-164 189l-164 -189h-203z" />
<glyph unicode="&#x2dc;" horiz-adv-x="913" d="M61 1276q0 126 67 202t167 76q80 0 145 -45l58 -36q3 -2 12.5 -8t12.5 -8t10.5 -6.5t12 -6.5t11 -4t12 -3t11.5 -1q57 0 57 71v25h211q4 -50 4 -70q0 -125 -66.5 -200.5t-167.5 -75.5q-77 0 -145 45l-57 35q-5 3 -20.5 13.5t-21.5 14t-17.5 7.5t-22.5 4q-58 0 -58 -72 v-25h-210q-5 58 -5 68z" />
<glyph unicode="&#x2000;" horiz-adv-x="941" />
<glyph unicode="&#x2001;" horiz-adv-x="1882" />
<glyph unicode="&#x2002;" horiz-adv-x="941" />
<glyph unicode="&#x2003;" horiz-adv-x="1882" />
<glyph unicode="&#x2004;" horiz-adv-x="627" />
<glyph unicode="&#x2005;" horiz-adv-x="470" />
<glyph unicode="&#x2006;" horiz-adv-x="313" />
<glyph unicode="&#x2007;" horiz-adv-x="313" />
<glyph unicode="&#x2008;" horiz-adv-x="235" />
<glyph unicode="&#x2009;" horiz-adv-x="376" />
<glyph unicode="&#x200a;" horiz-adv-x="104" />
<glyph unicode="&#x2010;" horiz-adv-x="700" d="M92 541v231h516v-231h-516z" />
<glyph unicode="&#x2011;" horiz-adv-x="700" d="M92 541v231h516v-231h-516z" />
<glyph unicode="&#x2012;" horiz-adv-x="700" d="M92 541v231h516v-231h-516z" />
<glyph unicode="&#x2013;" horiz-adv-x="1028" d="M72 541v231h884v-231h-884z" />
<glyph unicode="&#x2014;" horiz-adv-x="2048" d="M102 541v231h1844v-231h-1844z" />
<glyph unicode="&#x2018;" horiz-adv-x="616" d="M121 782l115 570h210l-10 -570h-315z" />
<glyph unicode="&#x2019;" horiz-adv-x="616" d="M170 782l10 570h316l-115 -570h-211z" />
<glyph unicode="&#x201a;" horiz-adv-x="616" d="M170 -317l10 569h316l-115 -569h-211z" />
<glyph unicode="&#x201c;" horiz-adv-x="1101" d="M121 782l115 570h210l-10 -570h-315zM606 782l115 570h211l-10 -570h-316z" />
<glyph unicode="&#x201d;" horiz-adv-x="1101" d="M170 782l10 570h316l-115 -570h-211zM655 782l11 570h315l-115 -570h-211z" />
<glyph unicode="&#x201e;" horiz-adv-x="1101" d="M170 -317l10 569h316l-115 -569h-211zM655 -317l11 569h315l-115 -569h-211z" />
<glyph unicode="&#x2022;" horiz-adv-x="874" d="M104 555q0 138 98 232t236 94q139 0 235.5 -93.5t96.5 -232.5q0 -137 -96.5 -230.5t-235.5 -93.5q-138 0 -236 93.5t-98 230.5z" />
<glyph unicode="&#x2026;" horiz-adv-x="1613" d="M86 166q0 80 55 135t138 55q81 0 134.5 -55t53.5 -135q0 -82 -53.5 -136.5t-134.5 -54.5q-83 0 -138 54.5t-55 136.5zM616 166q0 80 55 135t138 55q81 0 134.5 -55t53.5 -135q0 -82 -53.5 -136.5t-134.5 -54.5q-83 0 -138 54.5t-55 136.5zM1147 166q0 80 54.5 135 t137.5 55q79 0 134 -55t55 -135q0 -81 -54.5 -136t-134.5 -55q-83 0 -137.5 54.5t-54.5 136.5z" />
<glyph unicode="&#x202f;" horiz-adv-x="376" />
<glyph unicode="&#x2039;" horiz-adv-x="696" d="M59 520v74l400 430l176 -154l-277 -311l277 -313l-176 -154z" />
<glyph unicode="&#x203a;" horiz-adv-x="696" d="M63 246l275 313l-275 311l177 154l397 -430v-74l-397 -428z" />
<glyph unicode="&#x205f;" horiz-adv-x="470" />
<glyph unicode="&#x20ac;" horiz-adv-x="1384" d="M4 414v196h164q-2 23 -2 68q0 37 2 55h-162v197h197q64 204 224 325t382 121q165 0 296.5 -68.5t199.5 -185.5l-193 -149q-48 67 -124 107t-171 40q-106 0 -186 -50t-125 -140h481l-53 -197h-481q-4 -36 -4 -57q0 -26 4 -66h444l-53 -196h-334q46 -87 125 -135t182 -48 q95 0 171 40t124 108l193 -150q-68 -117 -199.5 -185.5t-296.5 -68.5q-218 0 -377 119.5t-225 319.5h-203z" />
<glyph unicode="&#x2122;" horiz-adv-x="2015" d="M23 1145v207h790v-207h-281v-713h-229v713h-280zM944 432v936h76l391 -485l391 485h72v-936h-229v414l-199 -250h-74l-196 250v-414h-232z" />
<glyph unicode="&#x25fc;" horiz-adv-x="1013" d="M0 0v1014h1014v-1014h-1014z" />
</font>
</defs>
</svg>
